<svg width="1440" height="1080" viewBox="0 0 1440 1080" fill="none" xmlns="http://www.w3.org/2000/svg">
<rect width="1440" height="1080" fill="#F8F8F2"/>
<path d="M456.184 627.208H470.152V727H456.184V680.92H407.368V727H393.4V627.208H407.368V668.824H456.184V627.208ZM485.283 740.968C486.339 741.448 487.683 741.88 489.315 742.264C491.043 742.744 492.723 742.984 494.355 742.984C499.635 742.984 503.763 741.784 506.739 739.384C509.715 737.08 512.403 733.288 514.803 728.008C508.755 716.488 503.091 704.296 497.811 691.432C492.627 678.472 488.307 665.368 484.851 652.12H499.251C500.307 656.44 501.555 661.096 502.995 666.088C504.531 671.08 506.211 676.216 508.035 681.496C509.859 686.776 511.827 692.056 513.939 697.336C516.051 702.616 518.259 707.704 520.563 712.6C524.211 702.52 527.379 692.536 530.067 682.648C532.755 672.76 535.299 662.584 537.699 652.12H551.523C548.067 666.232 544.227 679.816 540.003 692.872C535.779 705.832 531.219 717.976 526.323 729.304C524.403 733.624 522.387 737.32 520.275 740.392C518.259 743.56 516.003 746.152 513.507 748.168C511.011 750.184 508.179 751.672 505.011 752.632C501.939 753.592 498.435 754.072 494.499 754.072C493.443 754.072 492.339 753.976 491.187 753.784C490.035 753.688 488.883 753.496 487.731 753.208C486.675 753.016 485.667 752.776 484.707 752.488C483.843 752.2 483.219 751.96 482.835 751.768L485.283 740.968ZM614.029 667.96C612.397 666.616 610.045 665.32 606.973 664.072C603.901 662.824 600.541 662.2 596.893 662.2C593.053 662.2 589.741 662.92 586.957 664.36C584.269 665.704 582.061 667.624 580.333 670.12C578.605 672.52 577.357 675.4 576.589 678.76C575.821 682.12 575.437 685.72 575.437 689.56C575.437 698.296 577.597 705.064 581.917 709.864C586.237 714.568 591.997 716.92 599.197 716.92C602.845 716.92 605.869 716.776 608.269 716.488C610.765 716.104 612.685 715.72 614.029 715.336V667.96ZM614.029 617.56L627.421 615.256V724.84C624.349 725.704 620.413 726.568 615.613 727.432C610.813 728.296 605.293 728.728 599.053 728.728C593.293 728.728 588.109 727.816 583.501 725.992C578.893 724.168 574.957 721.576 571.693 718.216C568.429 714.856 565.885 710.776 564.061 705.976C562.333 701.08 561.469 695.608 561.469 689.56C561.469 683.8 562.189 678.52 563.629 673.72C565.165 668.92 567.373 664.792 570.253 661.336C573.133 657.88 576.637 655.192 580.765 653.272C584.989 651.352 589.789 650.392 595.165 650.392C599.485 650.392 603.277 650.968 606.541 652.12C609.901 653.272 612.397 654.376 614.029 655.432V617.56ZM678.09 650.536C679.242 650.536 680.538 650.632 681.978 650.824C683.514 650.92 685.002 651.112 686.442 651.4C687.882 651.592 689.178 651.832 690.33 652.12C691.578 652.312 692.49 652.504 693.066 652.696L690.762 664.36C689.706 663.976 687.93 663.544 685.434 663.064C683.034 662.488 679.914 662.2 676.074 662.2C673.578 662.2 671.082 662.488 668.586 663.064C666.186 663.544 664.602 663.88 663.834 664.072V727H650.442V655.288C653.61 654.136 657.546 653.08 662.25 652.12C666.954 651.064 672.234 650.536 678.09 650.536ZM731.333 717.352C734.501 717.352 737.285 717.304 739.685 717.208C742.181 717.016 744.245 716.728 745.877 716.344V694.024C744.917 693.544 743.333 693.16 741.125 692.872C739.013 692.488 736.421 692.296 733.349 692.296C731.333 692.296 729.173 692.44 726.869 692.728C724.661 693.016 722.597 693.64 720.677 694.6C718.853 695.464 717.317 696.712 716.069 698.344C714.821 699.88 714.197 701.944 714.197 704.536C714.197 709.336 715.733 712.696 718.805 714.616C721.877 716.44 726.053 717.352 731.333 717.352ZM730.181 650.248C735.557 650.248 740.069 650.968 743.717 652.408C747.461 653.752 750.437 655.72 752.645 658.312C754.949 660.808 756.581 663.832 757.541 667.384C758.501 670.84 758.981 674.68 758.981 678.904V725.704C757.829 725.896 756.197 726.184 754.085 726.568C752.069 726.856 749.765 727.144 747.173 727.432C744.581 727.72 741.749 727.96 738.677 728.152C735.701 728.44 732.725 728.584 729.749 728.584C725.525 728.584 721.637 728.152 718.085 727.288C714.533 726.424 711.461 725.08 708.869 723.256C706.277 721.336 704.261 718.84 702.821 715.768C701.381 712.696 700.661 709 700.661 704.68C700.661 700.552 701.477 697 703.109 694.024C704.837 691.048 707.141 688.648 710.021 686.824C712.901 685 716.261 683.656 720.101 682.792C723.941 681.928 727.973 681.496 732.197 681.496C733.541 681.496 734.933 681.592 736.373 681.784C737.813 681.88 739.157 682.072 740.405 682.36C741.749 682.552 742.901 682.744 743.861 682.936C744.821 683.128 745.493 683.272 745.877 683.368V679.624C745.877 677.416 745.637 675.256 745.157 673.144C744.677 670.936 743.813 669.016 742.565 667.384C741.317 665.656 739.589 664.312 737.381 663.352C735.269 662.296 732.485 661.768 729.029 661.768C724.613 661.768 720.725 662.104 717.365 662.776C714.101 663.352 711.653 663.976 710.021 664.648L708.437 653.56C710.165 652.792 713.045 652.072 717.077 651.4C721.109 650.632 725.477 650.248 730.181 650.248ZM813.767 728.728C807.719 728.728 802.391 727.768 797.783 725.848C793.271 723.928 789.431 721.24 786.263 717.784C783.191 714.328 780.887 710.248 779.351 705.544C777.815 700.744 777.047 695.464 777.047 689.704C777.047 683.944 777.863 678.664 779.495 673.864C781.223 669.064 783.623 664.936 786.695 661.48C789.767 657.928 793.511 655.192 797.927 653.272C802.439 651.256 807.431 650.248 812.903 650.248C816.263 650.248 819.623 650.536 822.983 651.112C826.343 651.688 829.559 652.6 832.631 653.848L829.607 665.224C827.591 664.264 825.239 663.496 822.551 662.92C819.959 662.344 817.175 662.056 814.199 662.056C806.711 662.056 800.951 664.408 796.919 669.112C792.983 673.816 791.015 680.68 791.015 689.704C791.015 693.736 791.447 697.432 792.311 700.792C793.271 704.152 794.711 707.032 796.631 709.432C798.647 711.832 801.191 713.704 804.263 715.048C807.335 716.296 811.079 716.92 815.495 716.92C819.047 716.92 822.263 716.584 825.143 715.912C828.023 715.24 830.279 714.52 831.911 713.752L833.783 724.984C833.015 725.464 831.911 725.944 830.471 726.424C829.031 726.808 827.399 727.144 825.575 727.432C823.751 727.816 821.783 728.104 819.671 728.296C817.655 728.584 815.687 728.728 813.767 728.728ZM912.429 689.56C912.429 695.512 911.565 700.888 909.837 705.688C908.109 710.488 905.661 714.616 902.493 718.072C899.421 721.528 895.725 724.216 891.405 726.136C887.085 727.96 882.381 728.872 877.293 728.872C872.205 728.872 867.501 727.96 863.181 726.136C858.861 724.216 855.117 721.528 851.949 718.072C848.877 714.616 846.477 710.488 844.749 705.688C843.021 700.888 842.157 695.512 842.157 689.56C842.157 683.704 843.021 678.376 844.749 673.576C846.477 668.68 848.877 664.504 851.949 661.048C855.117 657.592 858.861 654.952 863.181 653.128C867.501 651.208 872.205 650.248 877.293 650.248C882.381 650.248 887.085 651.208 891.405 653.128C895.725 654.952 899.421 657.592 902.493 661.048C905.661 664.504 908.109 668.68 909.837 673.576C911.565 678.376 912.429 683.704 912.429 689.56ZM898.461 689.56C898.461 681.112 896.541 674.44 892.701 669.544C888.957 664.552 883.821 662.056 877.293 662.056C870.765 662.056 865.581 664.552 861.741 669.544C857.997 674.44 856.125 681.112 856.125 689.56C856.125 698.008 857.997 704.728 861.741 709.72C865.581 714.616 870.765 717.064 877.293 717.064C883.821 717.064 888.957 714.616 892.701 709.72C896.541 704.728 898.461 698.008 898.461 689.56ZM931.27 654.28C934.342 653.512 938.422 652.696 943.51 651.832C948.598 650.968 954.454 650.536 961.078 650.536C967.03 650.536 971.974 651.4 975.91 653.128C979.846 654.76 982.966 657.112 985.27 660.184C987.67 663.16 989.35 666.76 990.31 670.984C991.27 675.208 991.75 679.864 991.75 684.952V727H978.358V687.832C978.358 683.224 978.022 679.288 977.35 676.024C976.774 672.76 975.766 670.12 974.326 668.104C972.886 666.088 970.966 664.648 968.566 663.784C966.166 662.824 963.19 662.344 959.638 662.344C958.198 662.344 956.71 662.392 955.174 662.488C953.638 662.584 952.15 662.728 950.71 662.92C949.366 663.016 948.118 663.16 946.966 663.352C945.91 663.544 945.142 663.688 944.662 663.784V727H931.27V654.28ZM1043.19 615.256C1047.13 615.256 1050.49 615.544 1053.27 616.12C1056.15 616.696 1058.17 617.224 1059.32 617.704L1056.87 629.224C1055.72 628.648 1054.09 628.12 1051.97 627.64C1049.86 627.064 1047.27 626.776 1044.2 626.776C1037.96 626.776 1033.59 628.504 1031.09 631.96C1028.6 635.32 1027.35 639.88 1027.35 645.64V652.12H1056.15V663.352H1027.35V727H1013.96V645.352C1013.96 635.752 1016.31 628.36 1021.01 623.176C1025.72 617.896 1033.11 615.256 1043.19 615.256Z" fill="#282923"/>
<path d="M1010.47 469.2C948.432 400.296 893.917 370.532 819.442 326.258C819.049 326.038 818.595 325.955 818.15 326.023C817.705 326.09 817.295 326.304 816.985 326.63L815.272 328.564C814.948 328.936 814.77 329.411 814.77 329.904C814.77 330.396 814.948 330.872 815.272 331.243C825.251 342.107 835.305 353.045 847.594 366.439C847.881 366.746 848.063 367.137 848.113 367.555C848.162 367.973 848.077 368.395 847.869 368.761C847.661 369.127 847.341 369.416 846.957 369.588C846.572 369.759 846.143 369.803 845.732 369.713C774.46 354.31 727.913 369.565 679.728 409.97C625.288 455.658 604.36 474.26 524.896 478.65C445.432 483.041 428.675 466.373 428.005 470.093C427.335 473.814 491.383 510.572 556.995 510.424C579.188 510.424 619.181 509.828 661.11 493.384C710.784 459.899 768.129 399.329 833.294 410.862C833.648 410.932 834.015 410.89 834.343 410.742C834.671 410.593 834.945 410.346 835.126 410.034C835.306 409.722 835.385 409.362 835.35 409.004C835.316 408.645 835.17 408.306 834.933 408.035C824.283 396.427 815.57 386.977 806.931 377.527C806.643 377.211 806.483 376.8 806.483 376.373C806.483 375.946 806.643 375.535 806.931 375.22L808.42 373.583C808.689 373.289 809.052 373.098 809.446 373.044C809.841 372.99 810.242 373.075 810.58 373.285C869.638 408.407 914.248 433.037 962.656 482.743C966.637 482.62 970.567 481.814 974.274 480.362C989.765 474.483 989.244 478.874 1009.58 472.549C1009.9 472.437 1010.19 472.247 1010.42 471.997C1010.66 471.746 1010.82 471.442 1010.91 471.112C1011 470.781 1011.01 470.434 1010.93 470.101C1010.85 469.768 1010.69 469.458 1010.47 469.2Z" fill="url(#paint0_linear)"/>
<path d="M892.444 443.862C892.37 443.788 892.444 443.713 892.519 443.713C894.753 444.755 910.095 453.312 912.403 455.098C914.414 456.661 905.775 459.414 904.733 458.893C903.69 458.372 894.008 445.946 892.444 443.862Z" fill="#4B4B45"/>
<path d="M954.109 535.015C903.466 478.761 859.005 454.503 798.234 418.414C797.917 418.22 797.542 418.144 797.175 418.198C796.807 418.253 796.471 418.434 796.223 418.711L794.808 420.274C794.667 420.416 794.554 420.584 794.477 420.769C794.4 420.954 794.361 421.153 794.361 421.353C794.361 421.553 794.4 421.752 794.477 421.937C794.554 422.122 794.667 422.29 794.808 422.432C802.926 431.287 811.193 440.29 821.172 451.154C810.225 448.996 793.542 452.94 793.542 452.94C747.666 463.06 719.664 464.92 631.859 439.323C484.697 396.388 424.373 475.189 428.171 472.957C485.442 439.621 539.213 451.229 619.272 482.556C677.064 505.176 735.601 513.138 786.095 503.763H786.244C790.712 502.944 795.032 501.977 799.351 500.861C814.172 498.256 817.895 500.563 820.8 503.093C820.874 503.167 822.587 505.623 821.247 506.218C819.906 506.813 821.098 506.59 817.895 508.004C817.602 508.132 817.354 508.344 817.182 508.614C817.01 508.883 816.923 509.198 816.931 509.517C816.939 509.837 817.042 510.146 817.227 510.407C817.412 510.668 817.671 510.867 817.97 510.98C830.407 515.519 872.038 520.877 897.211 539.182C906.297 545.804 913.967 548.186 924.543 544.167C937.203 539.331 936.757 542.902 953.364 537.768C953.634 537.68 953.877 537.527 954.072 537.322C954.267 537.116 954.408 536.866 954.482 536.593C954.556 536.319 954.56 536.032 954.495 535.757C954.43 535.481 954.297 535.226 954.109 535.015ZM884.699 494.684C883.731 494.164 874.347 482.035 872.783 480.1C872.709 480.026 872.783 479.951 872.858 479.951C875.017 480.993 888.05 487.318 892.072 491.038C894.008 492.675 885.742 495.205 884.699 494.684Z" fill="url(#paint1_linear)"/>
<path d="M589.781 471.543C599.239 474.817 608.995 478.537 619.272 482.481C632.938 487.827 646.885 492.423 661.053 496.247C683.991 484.937 712.142 458.372 712.738 457.851C691.289 454.8 677.362 452.047 643.477 442.597C626.05 455.917 610.112 465.292 589.781 471.543Z" fill="#F8F8F2"/>
<path d="M915.382 407.699C915.308 407.624 915.382 407.475 915.531 407.55C917.989 408.74 933.629 416.256 937.278 420.051C938.618 421.465 930.054 424.813 928.862 424.218C927.671 423.622 917.17 409.931 915.382 407.699Z" fill="#F8F8F2"/>
<defs>
<linearGradient id="paint0_linear" x1="427.998" y1="418.214" x2="1010.98" y2="418.214" gradientUnits="userSpaceOnUse">
<stop stop-color="#F8F8F2"/>
<stop offset="1" stop-color="#282923"/>
</linearGradient>
<linearGradient id="paint1_linear" x1="428" y1="482.161" x2="954.548" y2="482.161" gradientUnits="userSpaceOnUse">
<stop stop-color="#F8F8F2"/>
<stop offset="1" stop-color="#282923"/>
</linearGradient>
</defs>
</svg>
