<svg width="1440" height="1080" viewBox="0 0 1440 1080" fill="none" xmlns="http://www.w3.org/2000/svg">
<rect width="1440" height="1080" fill="#F8F8F2"/>
<path d="M427.864 264.264H437.176V295.368C436.408 295.624 435.288 295.912 433.816 296.232C432.408 296.552 430.744 296.872 428.824 297.192C426.968 297.512 424.92 297.768 422.68 297.96C420.44 298.216 418.168 298.344 415.864 298.344C411.192 298.344 406.936 297.576 403.096 296.04C399.256 294.504 395.96 292.264 393.208 289.32C390.456 286.376 388.312 282.76 386.776 278.472C385.304 274.184 384.568 269.256 384.568 263.688C384.568 258.12 385.4 253.192 387.064 248.904C388.792 244.552 391.096 240.904 393.976 237.96C396.856 235.016 400.216 232.776 404.056 231.24C407.96 229.704 412.12 228.936 416.536 228.936C419.544 228.936 422.2 229.128 424.504 229.512C426.872 229.896 428.888 230.344 430.552 230.856C432.216 231.368 433.56 231.88 434.584 232.392C435.672 232.904 436.408 233.288 436.792 233.544L433.816 241.32C431.96 240.104 429.496 239.112 426.424 238.344C423.352 237.512 420.216 237.096 417.016 237.096C413.624 237.096 410.52 237.704 407.704 238.92C404.952 240.136 402.584 241.896 400.6 244.2C398.68 246.504 397.176 249.32 396.088 252.648C395 255.912 394.456 259.592 394.456 263.688C394.456 267.656 394.904 271.272 395.8 274.536C396.76 277.8 398.168 280.616 400.024 282.984C401.944 285.288 404.28 287.08 407.032 288.36C409.848 289.64 413.144 290.28 416.92 290.28C419.608 290.28 421.88 290.152 423.736 289.896C425.656 289.576 427.032 289.288 427.864 289.032V264.264ZM445.996 264.072H469.708V272.424H445.996V264.072ZM509.052 298.44C504.38 298.44 500.124 297.672 496.284 296.136C492.444 294.6 489.148 292.36 486.396 289.416C483.644 286.472 481.5 282.856 479.964 278.568C478.492 274.216 477.756 269.256 477.756 263.688C477.756 258.12 478.588 253.192 480.252 248.904C481.98 244.552 484.284 240.904 487.164 237.96C490.044 235.016 493.404 232.776 497.244 231.24C501.084 229.704 505.18 228.936 509.532 228.936C512.284 228.936 514.748 229.128 516.924 229.512C519.164 229.896 521.084 230.344 522.684 230.856C524.348 231.368 525.692 231.88 526.716 232.392C527.74 232.904 528.444 233.288 528.828 233.544L526.14 241.224C525.564 240.84 524.732 240.424 523.644 239.976C522.556 239.528 521.308 239.08 519.9 238.632C518.556 238.184 517.052 237.832 515.388 237.576C513.788 237.256 512.156 237.096 510.492 237.096C506.972 237.096 503.804 237.704 500.988 238.92C498.172 240.136 495.772 241.896 493.788 244.2C491.804 246.504 490.268 249.32 489.18 252.648C488.156 255.912 487.644 259.592 487.644 263.688C487.644 267.656 488.092 271.272 488.988 274.536C489.948 277.8 491.356 280.616 493.212 282.984C495.068 285.288 497.372 287.08 500.124 288.36C502.94 289.64 506.204 290.28 509.916 290.28C514.204 290.28 517.756 289.832 520.572 288.936C523.388 288.04 525.5 287.24 526.908 286.536L529.308 294.216C528.86 294.536 528.06 294.952 526.908 295.464C525.756 295.912 524.316 296.36 522.588 296.808C520.86 297.256 518.844 297.64 516.54 297.96C514.236 298.28 511.74 298.44 509.052 298.44ZM582.057 272.04C582.057 276.008 581.481 279.592 580.329 282.792C579.177 285.992 577.545 288.744 575.433 291.048C573.385 293.352 570.921 295.144 568.041 296.424C565.161 297.64 562.025 298.248 558.633 298.248C555.241 298.248 552.105 297.64 549.225 296.424C546.345 295.144 543.849 293.352 541.737 291.048C539.689 288.744 538.089 285.992 536.937 282.792C535.785 279.592 535.209 276.008 535.209 272.04C535.209 268.136 535.785 264.584 536.937 261.384C538.089 258.12 539.689 255.336 541.737 253.032C543.849 250.728 546.345 248.968 549.225 247.752C552.105 246.472 555.241 245.832 558.633 245.832C562.025 245.832 565.161 246.472 568.041 247.752C570.921 248.968 573.385 250.728 575.433 253.032C577.545 255.336 579.177 258.12 580.329 261.384C581.481 264.584 582.057 268.136 582.057 272.04ZM572.745 272.04C572.745 266.408 571.465 261.96 568.905 258.696C566.409 255.368 562.985 253.704 558.633 253.704C554.281 253.704 550.825 255.368 548.265 258.696C545.769 261.96 544.521 266.408 544.521 272.04C544.521 277.672 545.769 282.152 548.265 285.48C550.825 288.744 554.281 290.376 558.633 290.376C562.985 290.376 566.409 288.744 568.905 285.48C571.465 282.152 572.745 277.672 572.745 272.04ZM634.362 295.56C632.314 296.072 629.594 296.616 626.202 297.192C622.874 297.768 619.002 298.056 614.586 298.056C610.746 298.056 607.514 297.512 604.89 296.424C602.266 295.272 600.154 293.672 598.554 291.624C596.954 289.576 595.802 287.176 595.098 284.424C594.394 281.608 594.042 278.504 594.042 275.112V247.08H602.97V273.192C602.97 279.272 603.93 283.624 605.85 286.248C607.77 288.872 611.002 290.184 615.546 290.184C616.506 290.184 617.498 290.152 618.522 290.088C619.546 290.024 620.506 289.96 621.402 289.896C622.298 289.768 623.098 289.672 623.802 289.608C624.57 289.48 625.114 289.352 625.434 289.224V247.08H634.362V295.56ZM649.743 248.52C651.791 248.008 654.511 247.464 657.903 246.888C661.295 246.312 665.199 246.024 669.615 246.024C673.583 246.024 676.879 246.6 679.503 247.752C682.127 248.84 684.207 250.408 685.743 252.456C687.343 254.44 688.463 256.84 689.103 259.656C689.743 262.472 690.062 265.576 690.062 268.968V297H681.135V270.888C681.135 267.816 680.911 265.192 680.463 263.016C680.079 260.84 679.407 259.08 678.447 257.736C677.487 256.392 676.207 255.432 674.607 254.856C673.007 254.216 671.023 253.896 668.655 253.896C667.695 253.896 666.703 253.928 665.679 253.992C664.655 254.056 663.663 254.152 662.703 254.28C661.807 254.344 660.975 254.44 660.207 254.568C659.503 254.696 658.991 254.792 658.671 254.856V297H649.743V248.52ZM713.22 247.08H732.132V254.568H713.22V277.608C713.22 280.104 713.412 282.184 713.796 283.848C714.18 285.448 714.756 286.728 715.524 287.688C716.292 288.584 717.252 289.224 718.404 289.608C719.556 289.992 720.9 290.184 722.436 290.184C725.124 290.184 727.268 289.896 728.868 289.32C730.532 288.68 731.684 288.232 732.324 287.976L734.052 295.368C733.156 295.816 731.588 296.36 729.348 297C727.108 297.704 724.548 298.056 721.668 298.056C718.276 298.056 715.46 297.64 713.22 296.808C711.044 295.912 709.284 294.6 707.94 292.872C706.596 291.144 705.636 289.032 705.06 286.536C704.548 283.976 704.292 281.032 704.292 277.704V233.16L713.22 231.624V247.08ZM739.771 272.136C739.771 267.72 740.411 263.88 741.691 260.616C742.971 257.288 744.667 254.536 746.779 252.36C748.891 250.184 751.323 248.552 754.075 247.464C756.827 246.376 759.643 245.832 762.523 245.832C769.243 245.832 774.395 247.944 777.979 252.168C781.563 256.328 783.355 262.696 783.355 271.272C783.355 271.656 783.355 272.168 783.355 272.808C783.355 273.384 783.323 273.928 783.259 274.44H749.083C749.467 279.624 750.971 283.56 753.595 286.248C756.219 288.936 760.315 290.28 765.883 290.28C769.019 290.28 771.643 290.024 773.755 289.512C775.931 288.936 777.563 288.392 778.651 287.88L779.899 295.368C778.811 295.944 776.891 296.552 774.139 297.192C771.451 297.832 768.379 298.152 764.923 298.152C760.571 298.152 756.795 297.512 753.595 296.232C750.459 294.888 747.867 293.064 745.819 290.76C743.771 288.456 742.235 285.736 741.211 282.6C740.251 279.4 739.771 275.912 739.771 272.136ZM774.043 267.24C774.107 263.208 773.083 259.912 770.971 257.352C768.923 254.728 766.075 253.416 762.427 253.416C760.379 253.416 758.555 253.832 756.955 254.664C755.419 255.432 754.107 256.456 753.019 257.736C751.931 259.016 751.067 260.488 750.427 262.152C749.851 263.816 749.467 265.512 749.275 267.24H774.043ZM814.612 246.024C815.38 246.024 816.244 246.088 817.204 246.216C818.228 246.28 819.22 246.408 820.18 246.6C821.14 246.728 822.004 246.888 822.772 247.08C823.604 247.208 824.212 247.336 824.596 247.464L823.06 255.24C822.356 254.984 821.172 254.696 819.508 254.376C817.908 253.992 815.828 253.8 813.268 253.8C811.604 253.8 809.94 253.992 808.276 254.376C806.676 254.696 805.62 254.92 805.108 255.048V297H796.18V249.192C798.292 248.424 800.916 247.72 804.052 247.08C807.188 246.376 810.708 246.024 814.612 246.024ZM404.92 339.8C414.264 339.8 421.432 341.592 426.424 345.176C431.48 348.696 434.008 353.976 434.008 361.016C434.008 364.856 433.304 368.152 431.896 370.904C430.552 373.592 428.568 375.8 425.944 377.528C423.384 379.192 420.248 380.408 416.536 381.176C412.824 381.944 408.632 382.328 403.96 382.328H396.568V407H387.256V341.432C389.88 340.792 392.792 340.376 395.992 340.184C399.256 339.928 402.232 339.8 404.92 339.8ZM405.688 347.96C401.72 347.96 398.68 348.056 396.568 348.248V374.36H403.576C406.776 374.36 409.656 374.168 412.216 373.784C414.776 373.336 416.92 372.632 418.648 371.672C420.44 370.648 421.816 369.272 422.776 367.544C423.736 365.816 424.216 363.608 424.216 360.92C424.216 358.36 423.704 356.248 422.68 354.584C421.72 352.92 420.376 351.608 418.648 350.648C416.984 349.624 415.032 348.92 412.792 348.536C410.552 348.152 408.184 347.96 405.688 347.96ZM491.262 407C489.854 404.632 488.222 401.976 486.366 399.032C484.574 396.088 482.622 393.048 480.51 389.912C478.398 386.712 476.19 383.48 473.886 380.216C471.646 376.952 469.406 373.816 467.166 370.808C464.926 367.736 462.75 364.856 460.638 362.168C458.526 359.48 456.574 357.112 454.782 355.064V407H445.662V340.472H453.054C456.062 343.672 459.262 347.416 462.654 351.704C466.11 355.928 469.502 360.312 472.83 364.856C476.222 369.336 479.39 373.752 482.334 378.104C485.342 382.456 487.87 386.328 489.918 389.72V340.472H499.038V407H491.262ZM509.746 374.072H533.458V382.424H509.746V374.072ZM572.802 408.44C568.13 408.44 563.874 407.672 560.034 406.136C556.194 404.6 552.898 402.36 550.146 399.416C547.394 396.472 545.25 392.856 543.714 388.568C542.242 384.216 541.506 379.256 541.506 373.688C541.506 368.12 542.338 363.192 544.002 358.904C545.73 354.552 548.034 350.904 550.914 347.96C553.794 345.016 557.154 342.776 560.994 341.24C564.834 339.704 568.93 338.936 573.282 338.936C576.034 338.936 578.498 339.128 580.674 339.512C582.914 339.896 584.834 340.344 586.434 340.856C588.098 341.368 589.442 341.88 590.466 342.392C591.49 342.904 592.194 343.288 592.578 343.544L589.89 351.224C589.314 350.84 588.482 350.424 587.394 349.976C586.306 349.528 585.058 349.08 583.65 348.632C582.306 348.184 580.802 347.832 579.138 347.576C577.538 347.256 575.906 347.096 574.242 347.096C570.722 347.096 567.554 347.704 564.738 348.92C561.922 350.136 559.522 351.896 557.538 354.2C555.554 356.504 554.018 359.32 552.93 362.648C551.906 365.912 551.394 369.592 551.394 373.688C551.394 377.656 551.842 381.272 552.738 384.536C553.698 387.8 555.106 390.616 556.962 392.984C558.818 395.288 561.122 397.08 563.874 398.36C566.69 399.64 569.954 400.28 573.666 400.28C577.954 400.28 581.506 399.832 584.322 398.936C587.138 398.04 589.25 397.24 590.658 396.536L593.058 404.216C592.61 404.536 591.81 404.952 590.658 405.464C589.506 405.912 588.066 406.36 586.338 406.808C584.61 407.256 582.594 407.64 580.29 407.96C577.986 408.28 575.49 408.44 572.802 408.44ZM645.807 382.04C645.807 386.008 645.231 389.592 644.079 392.792C642.927 395.992 641.295 398.744 639.183 401.048C637.135 403.352 634.671 405.144 631.791 406.424C628.911 407.64 625.775 408.248 622.383 408.248C618.991 408.248 615.855 407.64 612.975 406.424C610.095 405.144 607.599 403.352 605.487 401.048C603.439 398.744 601.839 395.992 600.687 392.792C599.535 389.592 598.959 386.008 598.959 382.04C598.959 378.136 599.535 374.584 600.687 371.384C601.839 368.12 603.439 365.336 605.487 363.032C607.599 360.728 610.095 358.968 612.975 357.752C615.855 356.472 618.991 355.832 622.383 355.832C625.775 355.832 628.911 356.472 631.791 357.752C634.671 358.968 637.135 360.728 639.183 363.032C641.295 365.336 642.927 368.12 644.079 371.384C645.231 374.584 645.807 378.136 645.807 382.04ZM636.495 382.04C636.495 376.408 635.215 371.96 632.655 368.696C630.159 365.368 626.735 363.704 622.383 363.704C618.031 363.704 614.575 365.368 612.015 368.696C609.519 371.96 608.271 376.408 608.271 382.04C608.271 387.672 609.519 392.152 612.015 395.48C614.575 398.744 618.031 400.376 622.383 400.376C626.735 400.376 630.159 398.744 632.655 395.48C635.215 392.152 636.495 387.672 636.495 382.04ZM698.112 405.56C696.064 406.072 693.344 406.616 689.952 407.192C686.624 407.768 682.752 408.056 678.336 408.056C674.496 408.056 671.264 407.512 668.64 406.424C666.016 405.272 663.904 403.672 662.304 401.624C660.704 399.576 659.552 397.176 658.848 394.424C658.144 391.608 657.792 388.504 657.792 385.112V357.08H666.72V383.192C666.72 389.272 667.68 393.624 669.6 396.248C671.52 398.872 674.752 400.184 679.296 400.184C680.256 400.184 681.248 400.152 682.272 400.088C683.296 400.024 684.256 399.96 685.152 399.896C686.048 399.768 686.848 399.672 687.552 399.608C688.32 399.48 688.864 399.352 689.184 399.224V357.08H698.112V405.56ZM713.493 358.52C715.541 358.008 718.261 357.464 721.653 356.888C725.045 356.312 728.949 356.024 733.365 356.024C737.333 356.024 740.629 356.6 743.253 357.752C745.877 358.84 747.957 360.408 749.493 362.456C751.093 364.44 752.213 366.84 752.853 369.656C753.493 372.472 753.812 375.576 753.812 378.968V407H744.885V380.888C744.885 377.816 744.661 375.192 744.213 373.016C743.829 370.84 743.157 369.08 742.197 367.736C741.237 366.392 739.957 365.432 738.357 364.856C736.757 364.216 734.773 363.896 732.405 363.896C731.445 363.896 730.453 363.928 729.429 363.992C728.405 364.056 727.413 364.152 726.453 364.28C725.557 364.344 724.725 364.44 723.957 364.568C723.253 364.696 722.741 364.792 722.421 364.856V407H713.493V358.52ZM776.97 357.08H795.882V364.568H776.97V387.608C776.97 390.104 777.162 392.184 777.546 393.848C777.93 395.448 778.506 396.728 779.274 397.688C780.042 398.584 781.002 399.224 782.154 399.608C783.306 399.992 784.65 400.184 786.186 400.184C788.874 400.184 791.018 399.896 792.618 399.32C794.282 398.68 795.434 398.232 796.074 397.976L797.802 405.368C796.906 405.816 795.338 406.36 793.098 407C790.858 407.704 788.298 408.056 785.418 408.056C782.026 408.056 779.21 407.64 776.97 406.808C774.794 405.912 773.034 404.6 771.69 402.872C770.346 401.144 769.386 399.032 768.81 396.536C768.298 393.976 768.042 391.032 768.042 387.704V343.16L776.97 341.624V357.08ZM803.521 382.136C803.521 377.72 804.161 373.88 805.441 370.616C806.721 367.288 808.417 364.536 810.529 362.36C812.641 360.184 815.073 358.552 817.825 357.464C820.577 356.376 823.393 355.832 826.273 355.832C832.993 355.832 838.145 357.944 841.729 362.168C845.313 366.328 847.105 372.696 847.105 381.272C847.105 381.656 847.105 382.168 847.105 382.808C847.105 383.384 847.073 383.928 847.009 384.44H812.833C813.217 389.624 814.721 393.56 817.345 396.248C819.969 398.936 824.065 400.28 829.633 400.28C832.769 400.28 835.393 400.024 837.505 399.512C839.681 398.936 841.313 398.392 842.401 397.88L843.649 405.368C842.561 405.944 840.641 406.552 837.889 407.192C835.201 407.832 832.129 408.152 828.673 408.152C824.321 408.152 820.545 407.512 817.345 406.232C814.209 404.888 811.617 403.064 809.569 400.76C807.521 398.456 805.985 395.736 804.961 392.6C804.001 389.4 803.521 385.912 803.521 382.136ZM837.793 377.24C837.857 373.208 836.833 369.912 834.721 367.352C832.673 364.728 829.825 363.416 826.177 363.416C824.129 363.416 822.305 363.832 820.705 364.664C819.169 365.432 817.857 366.456 816.769 367.736C815.681 369.016 814.817 370.488 814.177 372.152C813.601 373.816 813.217 375.512 813.025 377.24H837.793ZM878.362 356.024C879.13 356.024 879.994 356.088 880.954 356.216C881.978 356.28 882.97 356.408 883.93 356.6C884.89 356.728 885.754 356.888 886.522 357.08C887.354 357.208 887.962 357.336 888.346 357.464L886.81 365.24C886.106 364.984 884.922 364.696 883.258 364.376C881.658 363.992 879.578 363.8 877.018 363.8C875.354 363.8 873.69 363.992 872.026 364.376C870.426 364.696 869.37 364.92 868.858 365.048V407H859.93V359.192C862.042 358.424 864.666 357.72 867.802 357.08C870.938 356.376 874.458 356.024 878.362 356.024ZM427.864 485.264H437.176V516.368C436.408 516.624 435.288 516.912 433.816 517.232C432.408 517.552 430.744 517.872 428.824 518.192C426.968 518.512 424.92 518.768 422.68 518.96C420.44 519.216 418.168 519.344 415.864 519.344C411.192 519.344 406.936 518.576 403.096 517.04C399.256 515.504 395.96 513.264 393.208 510.32C390.456 507.376 388.312 503.76 386.776 499.472C385.304 495.184 384.568 490.256 384.568 484.688C384.568 479.12 385.4 474.192 387.064 469.904C388.792 465.552 391.096 461.904 393.976 458.96C396.856 456.016 400.216 453.776 404.056 452.24C407.96 450.704 412.12 449.936 416.536 449.936C419.544 449.936 422.2 450.128 424.504 450.512C426.872 450.896 428.888 451.344 430.552 451.856C432.216 452.368 433.56 452.88 434.584 453.392C435.672 453.904 436.408 454.288 436.792 454.544L433.816 462.32C431.96 461.104 429.496 460.112 426.424 459.344C423.352 458.512 420.216 458.096 417.016 458.096C413.624 458.096 410.52 458.704 407.704 459.92C404.952 461.136 402.584 462.896 400.6 465.2C398.68 467.504 397.176 470.32 396.088 473.648C395 476.912 394.456 480.592 394.456 484.688C394.456 488.656 394.904 492.272 395.8 495.536C396.76 498.8 398.168 501.616 400.024 503.984C401.944 506.288 404.28 508.08 407.032 509.36C409.848 510.64 413.144 511.28 416.92 511.28C419.608 511.28 421.88 511.152 423.736 510.896C425.656 510.576 427.032 510.288 427.864 510.032V485.264ZM445.996 485.072H469.708V493.424H445.996V485.072ZM495.9 511.376C505.628 511.376 510.492 508.048 510.492 501.392C510.492 499.344 510.044 497.616 509.148 496.208C508.316 494.736 507.164 493.488 505.692 492.464C504.22 491.376 502.524 490.448 500.604 489.68C498.748 488.912 496.764 488.144 494.652 487.376C492.22 486.544 489.916 485.616 487.74 484.592C485.564 483.504 483.676 482.256 482.076 480.848C480.476 479.376 479.196 477.648 478.236 475.664C477.34 473.68 476.892 471.28 476.892 468.464C476.892 462.64 478.876 458.096 482.844 454.832C486.812 451.568 492.284 449.936 499.26 449.936C503.292 449.936 506.94 450.384 510.204 451.28C513.532 452.112 515.964 453.04 517.5 454.064L514.524 461.648C513.18 460.816 511.164 460.016 508.476 459.248C505.852 458.416 502.78 458 499.26 458C497.468 458 495.804 458.192 494.268 458.576C492.732 458.96 491.388 459.536 490.236 460.304C489.084 461.072 488.156 462.064 487.452 463.28C486.812 464.432 486.492 465.808 486.492 467.408C486.492 469.2 486.844 470.704 487.548 471.92C488.252 473.136 489.244 474.224 490.524 475.184C491.804 476.08 493.276 476.912 494.94 477.68C496.668 478.448 498.556 479.216 500.604 479.984C503.484 481.136 506.108 482.288 508.476 483.44C510.908 484.592 512.988 485.968 514.716 487.568C516.508 489.168 517.884 491.088 518.844 493.328C519.804 495.504 520.284 498.16 520.284 501.296C520.284 507.12 518.14 511.6 513.852 514.736C509.628 517.872 503.644 519.44 495.9 519.44C493.276 519.44 490.844 519.248 488.604 518.864C486.428 518.544 484.476 518.16 482.748 517.712C481.02 517.2 479.516 516.688 478.236 516.176C477.02 515.6 476.06 515.12 475.355 514.736L478.14 507.056C479.612 507.888 481.852 508.816 484.859 509.84C487.868 510.864 491.548 511.376 495.9 511.376ZM528.177 493.136C528.177 488.72 528.817 484.88 530.097 481.616C531.377 478.288 533.073 475.536 535.185 473.36C537.297 471.184 539.729 469.552 542.481 468.464C545.233 467.376 548.049 466.832 550.929 466.832C557.649 466.832 562.801 468.944 566.385 473.168C569.969 477.328 571.761 483.696 571.761 492.272C571.761 492.656 571.761 493.168 571.761 493.808C571.761 494.384 571.729 494.928 571.665 495.44H537.489C537.873 500.624 539.377 504.56 542.001 507.248C544.625 509.936 548.721 511.28 554.289 511.28C557.425 511.28 560.049 511.024 562.161 510.512C564.337 509.936 565.969 509.392 567.057 508.88L568.305 516.368C567.217 516.944 565.297 517.552 562.545 518.192C559.857 518.832 556.785 519.152 553.329 519.152C548.977 519.152 545.201 518.512 542.001 517.232C538.865 515.888 536.273 514.064 534.225 511.76C532.177 509.456 530.641 506.736 529.617 503.6C528.657 500.4 528.177 496.912 528.177 493.136ZM562.449 488.24C562.513 484.208 561.489 480.912 559.377 478.352C557.329 475.728 554.481 474.416 550.833 474.416C548.785 474.416 546.961 474.832 545.361 475.664C543.825 476.432 542.513 477.456 541.425 478.736C540.337 480.016 539.473 481.488 538.833 483.152C538.257 484.816 537.873 486.512 537.681 488.24H562.449ZM592.938 468.08H611.85V475.568H592.938V498.608C592.938 501.104 593.13 503.184 593.514 504.848C593.898 506.448 594.474 507.728 595.242 508.688C596.01 509.584 596.97 510.224 598.122 510.608C599.274 510.992 600.618 511.184 602.154 511.184C604.842 511.184 606.986 510.896 608.586 510.32C610.25 509.68 611.402 509.232 612.042 508.976L613.77 516.368C612.874 516.816 611.306 517.36 609.066 518C606.826 518.704 604.266 519.056 601.386 519.056C597.994 519.056 595.178 518.64 592.938 517.808C590.762 516.912 589.002 515.6 587.658 513.872C586.314 512.144 585.354 510.032 584.778 507.536C584.266 504.976 584.01 502.032 584.01 498.704V454.16L592.938 452.624V468.08ZM423.832 578.464C423.832 580.768 423.352 583.008 422.392 585.184C421.496 587.296 420.28 589.408 418.744 591.52C417.208 593.568 415.48 595.616 413.56 597.664C411.64 599.648 409.72 601.6 407.8 603.52C406.712 604.608 405.432 605.888 403.96 607.36C402.552 608.832 401.208 610.368 399.928 611.968C398.648 613.568 397.56 615.104 396.664 616.576C395.832 618.048 395.416 619.328 395.416 620.416H426.04V628H385.72C385.656 627.616 385.624 627.232 385.624 626.848C385.624 626.464 385.624 626.112 385.624 625.792C385.624 622.784 386.104 620 387.064 617.44C388.088 614.816 389.4 612.352 391 610.048C392.6 607.744 394.392 605.568 396.376 603.52C398.36 601.472 400.312 599.488 402.232 597.568C403.832 596.032 405.336 594.528 406.744 593.056C408.216 591.52 409.496 590.016 410.584 588.544C411.736 587.008 412.632 585.44 413.272 583.84C413.976 582.24 414.328 580.544 414.328 578.752C414.328 576.832 414.008 575.2 413.368 573.856C412.792 572.512 411.992 571.392 410.968 570.496C409.944 569.6 408.728 568.96 407.32 568.576C405.976 568.128 404.536 567.904 403 567.904C401.144 567.904 399.448 568.16 397.912 568.672C396.376 569.184 395 569.792 393.784 570.496C392.568 571.136 391.544 571.84 390.712 572.608C389.88 573.312 389.24 573.856 388.792 574.24L384.376 567.904C384.952 567.264 385.816 566.496 386.968 565.6C388.12 564.64 389.496 563.744 391.096 562.912C392.696 562.08 394.488 561.376 396.472 560.8C398.456 560.224 400.6 559.936 402.904 559.936C409.88 559.936 415.096 561.568 418.552 564.832C422.072 568.032 423.832 572.576 423.832 578.464ZM459.108 560.8C468.452 560.8 475.62 562.592 480.612 566.176C485.668 569.696 488.196 574.976 488.196 582.016C488.196 585.856 487.492 589.152 486.083 591.904C484.74 594.592 482.756 596.8 480.132 598.528C477.572 600.192 474.436 601.408 470.724 602.176C467.012 602.944 462.82 603.328 458.148 603.328H450.756V628H441.444V562.432C444.068 561.792 446.98 561.376 450.18 561.184C453.444 560.928 456.42 560.8 459.108 560.8ZM459.876 568.96C455.908 568.96 452.868 569.056 450.756 569.248V595.36H457.764C460.964 595.36 463.844 595.168 466.404 594.784C468.964 594.336 471.108 593.632 472.836 592.672C474.628 591.648 476.004 590.272 476.964 588.544C477.924 586.816 478.404 584.608 478.404 581.92C478.404 579.36 477.892 577.248 476.868 575.584C475.908 573.92 474.564 572.608 472.836 571.648C471.172 570.624 469.22 569.92 466.98 569.536C464.74 569.152 462.372 568.96 459.876 568.96ZM494.09 595.072H517.802V603.424H494.09V595.072ZM543.993 621.376C553.721 621.376 558.585 618.048 558.585 611.392C558.585 609.344 558.137 607.616 557.241 606.208C556.409 604.736 555.257 603.488 553.785 602.464C552.313 601.376 550.617 600.448 548.697 599.68C546.841 598.912 544.857 598.144 542.745 597.376C540.313 596.544 538.009 595.616 535.833 594.592C533.657 593.504 531.769 592.256 530.169 590.848C528.569 589.376 527.289 587.648 526.329 585.664C525.433 583.68 524.985 581.28 524.985 578.464C524.985 572.64 526.969 568.096 530.937 564.832C534.905 561.568 540.377 559.936 547.353 559.936C551.385 559.936 555.033 560.384 558.297 561.28C561.625 562.112 564.057 563.04 565.593 564.064L562.617 571.648C561.273 570.816 559.257 570.016 556.569 569.248C553.945 568.416 550.873 568 547.353 568C545.561 568 543.897 568.192 542.361 568.576C540.825 568.96 539.481 569.536 538.329 570.304C537.177 571.072 536.249 572.064 535.545 573.28C534.905 574.432 534.585 575.808 534.585 577.408C534.585 579.2 534.937 580.704 535.641 581.92C536.345 583.136 537.337 584.224 538.617 585.184C539.897 586.08 541.369 586.912 543.033 587.68C544.761 588.448 546.649 589.216 548.697 589.984C551.577 591.136 554.201 592.288 556.569 593.44C559.001 594.592 561.081 595.968 562.809 597.568C564.601 599.168 565.977 601.088 566.937 603.328C567.897 605.504 568.377 608.16 568.377 611.296C568.377 617.12 566.233 621.6 561.945 624.736C557.721 627.872 551.737 629.44 543.993 629.44C541.369 629.44 538.937 629.248 536.697 628.864C534.521 628.544 532.569 628.16 530.841 627.712C529.113 627.2 527.609 626.688 526.329 626.176C525.113 625.6 524.153 625.12 523.449 624.736L526.233 617.056C527.705 617.888 529.945 618.816 532.953 619.84C535.961 620.864 539.641 621.376 543.993 621.376ZM576.271 603.136C576.271 598.72 576.911 594.88 578.191 591.616C579.471 588.288 581.167 585.536 583.279 583.36C585.391 581.184 587.823 579.552 590.575 578.464C593.327 577.376 596.143 576.832 599.023 576.832C605.743 576.832 610.895 578.944 614.479 583.168C618.063 587.328 619.855 593.696 619.855 602.272C619.855 602.656 619.855 603.168 619.855 603.808C619.855 604.384 619.823 604.928 619.759 605.44H585.583C585.967 610.624 587.471 614.56 590.095 617.248C592.719 619.936 596.815 621.28 602.383 621.28C605.519 621.28 608.143 621.024 610.255 620.512C612.431 619.936 614.063 619.392 615.151 618.88L616.399 626.368C615.311 626.944 613.391 627.552 610.639 628.192C607.951 628.832 604.879 629.152 601.423 629.152C597.071 629.152 593.295 628.512 590.095 627.232C586.959 625.888 584.367 624.064 582.319 621.76C580.271 619.456 578.735 616.736 577.711 613.6C576.751 610.4 576.271 606.912 576.271 603.136ZM610.543 598.24C610.607 594.208 609.583 590.912 607.471 588.352C605.423 585.728 602.575 584.416 598.927 584.416C596.879 584.416 595.055 584.832 593.455 585.664C591.919 586.432 590.607 587.456 589.519 588.736C588.431 590.016 587.567 591.488 586.927 593.152C586.351 594.816 585.967 596.512 585.775 598.24H610.543ZM641.032 578.08H659.944V585.568H641.032V608.608C641.032 611.104 641.224 613.184 641.608 614.848C641.992 616.448 642.568 617.728 643.336 618.688C644.104 619.584 645.064 620.224 646.216 620.608C647.368 620.992 648.712 621.184 650.248 621.184C652.936 621.184 655.08 620.896 656.68 620.32C658.344 619.68 659.496 619.232 660.136 618.976L661.864 626.368C660.968 626.816 659.4 627.36 657.16 628C654.92 628.704 652.36 629.056 649.48 629.056C646.088 629.056 643.272 628.64 641.032 627.808C638.856 626.912 637.096 625.6 635.752 623.872C634.408 622.144 633.448 620.032 632.872 617.536C632.36 614.976 632.104 612.032 632.104 608.704V564.16L641.032 562.624V578.08ZM427.288 729.936V738H387.256V671.472H396.568V729.936H427.288ZM469.109 692.88C466.421 701.456 463.701 709.392 460.949 716.688C458.197 723.984 455.445 731.088 452.693 738H443.381C439.989 728.208 436.981 717.872 434.357 706.992C431.797 696.112 429.397 684.272 427.157 671.472H436.949C437.845 676.464 438.773 681.456 439.733 686.448C440.693 691.44 441.685 696.304 442.709 701.04C443.733 705.712 444.757 710.192 445.781 714.48C446.805 718.768 447.861 722.736 448.949 726.384C451.509 719.664 454.229 712.304 457.109 704.304C459.989 696.24 462.677 687.92 465.173 679.344H473.237C475.733 687.92 478.453 696.24 481.397 704.304C484.341 712.304 487.093 719.664 489.653 726.384C490.677 722.8 491.701 718.864 492.725 714.576C493.749 710.288 494.741 705.808 495.701 701.136C496.725 696.4 497.717 691.536 498.677 686.544C499.637 681.488 500.565 676.464 501.461 671.472H510.965C508.661 684.272 506.197 696.112 503.573 706.992C501.013 717.872 498.069 728.208 494.741 738H485.429C482.613 731.088 479.861 723.984 477.173 716.688C474.485 709.392 471.797 701.456 469.109 692.88ZM559.39 692.88C556.702 701.456 553.982 709.392 551.23 716.688C548.478 723.984 545.726 731.088 542.974 738H533.662C530.27 728.208 527.262 717.872 524.638 706.992C522.078 696.112 519.678 684.272 517.438 671.472H527.23C528.126 676.464 529.054 681.456 530.014 686.448C530.974 691.44 531.966 696.304 532.99 701.04C534.014 705.712 535.038 710.192 536.062 714.48C537.086 718.768 538.142 722.736 539.23 726.384C541.79 719.664 544.51 712.304 547.39 704.304C550.27 696.24 552.958 687.92 555.454 679.344H563.518C566.014 687.92 568.734 696.24 571.678 704.304C574.622 712.304 577.374 719.664 579.934 726.384C580.958 722.8 581.982 718.864 583.006 714.576C584.03 710.288 585.022 705.808 585.982 701.136C587.006 696.4 587.998 691.536 588.958 686.544C589.918 681.488 590.846 676.464 591.742 671.472H601.246C598.942 684.272 596.478 696.112 593.854 706.992C591.294 717.872 588.35 728.208 585.022 738H575.71C572.894 731.088 570.142 723.984 567.454 716.688C564.766 709.392 562.078 701.456 559.39 692.88ZM606.402 705.072H630.114V713.424H606.402V705.072ZM640.85 738V671.472H681.458V679.44H650.162V699.216H678.002V706.992H650.162V730.032H683.858V738H640.85ZM710.094 738.96C704.59 738.832 700.686 737.648 698.382 735.408C696.078 733.168 694.926 729.68 694.926 724.944V665.04L703.854 663.504V723.504C703.854 724.976 703.982 726.192 704.238 727.152C704.494 728.112 704.91 728.88 705.486 729.456C706.062 730.032 706.83 730.48 707.79 730.8C708.75 731.056 709.934 731.28 711.342 731.472L710.094 738.96ZM718.584 713.136C718.584 708.72 719.224 704.88 720.504 701.616C721.784 698.288 723.48 695.536 725.592 693.36C727.704 691.184 730.136 689.552 732.888 688.464C735.64 687.376 738.456 686.832 741.336 686.832C748.056 686.832 753.208 688.944 756.792 693.168C760.376 697.328 762.167 703.696 762.167 712.272C762.167 712.656 762.167 713.168 762.167 713.808C762.167 714.384 762.135 714.928 762.072 715.44H727.896C728.28 720.624 729.784 724.56 732.408 727.248C735.032 729.936 739.128 731.28 744.696 731.28C747.832 731.28 750.456 731.024 752.568 730.512C754.744 729.936 756.376 729.392 757.464 728.88L758.712 736.368C757.624 736.944 755.704 737.552 752.952 738.192C750.264 738.832 747.192 739.152 743.736 739.152C739.384 739.152 735.608 738.512 732.408 737.232C729.272 735.888 726.68 734.064 724.632 731.76C722.584 729.456 721.048 726.736 720.023 723.6C719.064 720.4 718.584 716.912 718.584 713.136ZM752.856 708.24C752.92 704.208 751.896 700.912 749.784 698.352C747.736 695.728 744.888 694.416 741.24 694.416C739.192 694.416 737.368 694.832 735.768 695.664C734.232 696.432 732.92 697.456 731.832 698.736C730.744 700.016 729.88 701.488 729.24 703.152C728.664 704.816 728.28 706.512 728.088 708.24H752.856ZM774.993 689.52C777.041 689.008 779.729 688.464 783.057 687.888C786.449 687.312 790.353 687.024 794.769 687.024C797.969 687.024 800.657 687.472 802.833 688.368C805.009 689.2 806.833 690.448 808.305 692.112C808.753 691.792 809.457 691.344 810.417 690.768C811.377 690.192 812.561 689.648 813.969 689.136C815.377 688.56 816.945 688.08 818.673 687.696C820.401 687.248 822.257 687.024 824.241 687.024C828.081 687.024 831.217 687.6 833.649 688.752C836.081 689.84 837.969 691.408 839.313 693.456C840.721 695.504 841.649 697.936 842.097 700.752C842.609 703.568 842.865 706.64 842.865 709.968V738H833.937V711.888C833.937 708.944 833.777 706.416 833.457 704.304C833.201 702.192 832.657 700.432 831.825 699.024C831.057 697.616 829.969 696.592 828.561 695.952C827.217 695.248 825.457 694.896 823.281 694.896C820.273 694.896 817.777 695.312 815.792 696.144C813.873 696.912 812.561 697.616 811.857 698.256C812.369 699.92 812.753 701.744 813.009 703.728C813.265 705.712 813.393 707.792 813.393 709.968V738H804.465V711.888C804.465 708.944 804.305 706.416 803.985 704.304C803.665 702.192 803.089 700.432 802.257 699.024C801.489 697.616 800.401 696.592 798.993 695.952C797.649 695.248 795.921 694.896 793.809 694.896C792.913 694.896 791.953 694.928 790.929 694.992C789.905 695.056 788.913 695.152 787.953 695.28C787.057 695.344 786.225 695.44 785.457 695.568C784.689 695.696 784.177 695.792 783.921 695.856V738H774.993V689.52ZM854.896 713.136C854.896 708.72 855.536 704.88 856.816 701.616C858.096 698.288 859.792 695.536 861.904 693.36C864.016 691.184 866.448 689.552 869.2 688.464C871.952 687.376 874.768 686.832 877.648 686.832C884.368 686.832 889.52 688.944 893.104 693.168C896.688 697.328 898.48 703.696 898.48 712.272C898.48 712.656 898.48 713.168 898.48 713.808C898.48 714.384 898.448 714.928 898.384 715.44H864.208C864.592 720.624 866.096 724.56 868.72 727.248C871.344 729.936 875.44 731.28 881.008 731.28C884.144 731.28 886.768 731.024 888.88 730.512C891.056 729.936 892.688 729.392 893.776 728.88L895.024 736.368C893.936 736.944 892.016 737.552 889.264 738.192C886.576 738.832 883.504 739.152 880.048 739.152C875.696 739.152 871.92 738.512 868.72 737.232C865.584 735.888 862.992 734.064 860.944 731.76C858.896 729.456 857.36 726.736 856.336 723.6C855.376 720.4 854.896 716.912 854.896 713.136ZM889.168 708.24C889.232 704.208 888.208 700.912 886.096 698.352C884.048 695.728 881.2 694.416 877.552 694.416C875.504 694.416 873.68 694.832 872.08 695.664C870.544 696.432 869.232 697.456 868.144 698.736C867.056 700.016 866.192 701.488 865.552 703.152C864.976 704.816 864.592 706.512 864.4 708.24H889.168ZM911.305 689.52C913.353 689.008 916.073 688.464 919.465 687.888C922.857 687.312 926.761 687.024 931.177 687.024C935.145 687.024 938.441 687.6 941.065 688.752C943.689 689.84 945.769 691.408 947.305 693.456C948.905 695.44 950.025 697.84 950.665 700.656C951.305 703.472 951.625 706.576 951.625 709.968V738H942.697V711.888C942.697 708.816 942.473 706.192 942.025 704.016C941.641 701.84 940.969 700.08 940.009 698.736C939.049 697.392 937.769 696.432 936.169 695.856C934.569 695.216 932.585 694.896 930.217 694.896C929.257 694.896 928.265 694.928 927.241 694.992C926.217 695.056 925.225 695.152 924.265 695.28C923.369 695.344 922.537 695.44 921.769 695.568C921.065 695.696 920.553 695.792 920.233 695.856V738H911.305V689.52ZM974.782 688.08H993.694V695.568H974.782V718.608C974.782 721.104 974.974 723.184 975.358 724.848C975.742 726.448 976.318 727.728 977.086 728.688C977.854 729.584 978.814 730.224 979.966 730.608C981.118 730.992 982.462 731.184 983.998 731.184C986.686 731.184 988.83 730.896 990.43 730.32C992.094 729.68 993.246 729.232 993.886 728.976L995.614 736.368C994.718 736.816 993.15 737.36 990.91 738C988.67 738.704 986.11 739.056 983.23 739.056C979.838 739.056 977.022 738.64 974.782 737.808C972.606 736.912 970.846 735.6 969.502 733.872C968.158 732.144 967.198 730.032 966.622 727.536C966.11 724.976 965.854 722.032 965.854 718.704V674.16L974.782 672.624V688.08ZM996.121 705.072H1019.83V713.424H996.121V705.072ZM1046.02 731.376C1055.75 731.376 1060.62 728.048 1060.62 721.392C1060.62 719.344 1060.17 717.616 1059.27 716.208C1058.44 714.736 1057.29 713.488 1055.82 712.464C1054.34 711.376 1052.65 710.448 1050.73 709.68C1048.87 708.912 1046.89 708.144 1044.78 707.376C1042.34 706.544 1040.04 705.616 1037.86 704.592C1035.69 703.504 1033.8 702.256 1032.2 700.848C1030.6 699.376 1029.32 697.648 1028.36 695.664C1027.46 693.68 1027.02 691.28 1027.02 688.464C1027.02 682.64 1029 678.096 1032.97 674.832C1036.94 671.568 1042.41 669.936 1049.38 669.936C1053.42 669.936 1057.06 670.384 1060.33 671.28C1063.66 672.112 1066.09 673.04 1067.62 674.064L1064.65 681.648C1063.3 680.816 1061.29 680.016 1058.6 679.248C1055.98 678.416 1052.9 678 1049.38 678C1047.59 678 1045.93 678.192 1044.39 678.576C1042.86 678.96 1041.51 679.536 1040.36 680.304C1039.21 681.072 1038.28 682.064 1037.58 683.28C1036.94 684.432 1036.62 685.808 1036.62 687.408C1036.62 689.2 1036.97 690.704 1037.67 691.92C1038.38 693.136 1039.37 694.224 1040.65 695.184C1041.93 696.08 1043.4 696.912 1045.06 697.68C1046.79 698.448 1048.68 699.216 1050.73 699.984C1053.61 701.136 1056.23 702.288 1058.6 703.44C1061.03 704.592 1063.11 705.968 1064.84 707.568C1066.63 709.168 1068.01 711.088 1068.97 713.328C1069.93 715.504 1070.41 718.16 1070.41 721.296C1070.41 727.12 1068.26 731.6 1063.98 734.736C1059.75 737.872 1053.77 739.44 1046.02 739.44C1043.4 739.44 1040.97 739.248 1038.73 738.864C1036.55 738.544 1034.6 738.16 1032.87 737.712C1031.14 737.2 1029.64 736.688 1028.36 736.176C1027.14 735.6 1026.18 735.12 1025.48 734.736L1028.26 727.056C1029.74 727.888 1031.98 728.816 1034.98 729.84C1037.99 730.864 1041.67 731.376 1046.02 731.376ZM1078.3 713.136C1078.3 708.72 1078.94 704.88 1080.22 701.616C1081.5 698.288 1083.2 695.536 1085.31 693.36C1087.42 691.184 1089.85 689.552 1092.61 688.464C1095.36 687.376 1098.17 686.832 1101.05 686.832C1107.77 686.832 1112.93 688.944 1116.51 693.168C1120.09 697.328 1121.89 703.696 1121.89 712.272C1121.89 712.656 1121.89 713.168 1121.89 713.808C1121.89 714.384 1121.85 714.928 1121.79 715.44H1087.61C1088 720.624 1089.5 724.56 1092.13 727.248C1094.75 729.936 1098.85 731.28 1104.41 731.28C1107.55 731.28 1110.17 731.024 1112.29 730.512C1114.46 729.936 1116.09 729.392 1117.18 728.88L1118.43 736.368C1117.34 736.944 1115.42 737.552 1112.67 738.192C1109.98 738.832 1106.91 739.152 1103.45 739.152C1099.1 739.152 1095.33 738.512 1092.13 737.232C1088.99 735.888 1086.4 734.064 1084.35 731.76C1082.3 729.456 1080.77 726.736 1079.74 723.6C1078.78 720.4 1078.3 716.912 1078.3 713.136ZM1112.57 708.24C1112.64 704.208 1111.61 700.912 1109.5 698.352C1107.45 695.728 1104.61 694.416 1100.96 694.416C1098.91 694.416 1097.09 694.832 1095.49 695.664C1093.95 696.432 1092.64 697.456 1091.55 698.736C1090.46 700.016 1089.6 701.488 1088.96 703.152C1088.38 704.816 1088 706.512 1087.81 708.24H1112.57ZM1143.06 688.08H1161.98V695.568H1143.06V718.608C1143.06 721.104 1143.26 723.184 1143.64 724.848C1144.02 726.448 1144.6 727.728 1145.37 728.688C1146.14 729.584 1147.1 730.224 1148.25 730.608C1149.4 730.992 1150.74 731.184 1152.28 731.184C1154.97 731.184 1157.11 730.896 1158.71 730.32C1160.38 729.68 1161.53 729.232 1162.17 728.976L1163.9 736.368C1163 736.816 1161.43 737.36 1159.19 738C1156.95 738.704 1154.39 739.056 1151.51 739.056C1148.12 739.056 1145.3 738.64 1143.06 737.808C1140.89 736.912 1139.13 735.6 1137.78 733.872C1136.44 732.144 1135.48 730.032 1134.9 727.536C1134.39 724.976 1134.14 722.032 1134.14 718.704V674.16L1143.06 672.624V688.08ZM384.568 815.688C384.568 809.992 385.4 804.968 387.064 800.616C388.792 796.264 391.096 792.648 393.976 789.768C396.92 786.824 400.312 784.616 404.152 783.144C408.056 781.672 412.184 780.936 416.536 780.936C420.824 780.936 424.856 781.672 428.632 783.144C432.472 784.616 435.832 786.824 438.712 789.768C441.592 792.648 443.864 796.264 445.528 800.616C447.256 804.968 448.12 809.992 448.12 815.688C448.12 821.384 447.256 826.408 445.528 830.76C443.864 835.112 441.592 838.76 438.712 841.704C435.832 844.584 432.472 846.76 428.632 848.232C424.856 849.704 420.824 850.44 416.536 850.44C412.184 850.44 408.056 849.704 404.152 848.232C400.312 846.76 396.92 844.584 393.976 841.704C391.096 838.76 388.792 835.112 387.064 830.76C385.4 826.408 384.568 821.384 384.568 815.688ZM394.36 815.688C394.36 819.72 394.872 823.4 395.896 826.728C396.92 829.992 398.36 832.776 400.216 835.08C402.136 837.384 404.44 839.176 407.128 840.456C409.88 841.672 412.952 842.28 416.344 842.28C419.736 842.28 422.776 841.672 425.464 840.456C428.152 839.176 430.424 837.384 432.28 835.08C434.2 832.776 435.672 829.992 436.696 826.728C437.72 823.4 438.232 819.72 438.232 815.688C438.232 811.656 437.72 808.008 436.696 804.744C435.672 801.416 434.2 798.6 432.28 796.296C430.424 793.992 428.152 792.232 425.464 791.016C422.776 789.736 419.736 789.096 416.344 789.096C412.952 789.096 409.88 789.736 407.128 791.016C404.44 792.232 402.136 793.992 400.216 796.296C398.36 798.6 396.92 801.416 395.896 804.744C394.872 808.008 394.36 811.656 394.36 815.688ZM494.519 821.16C495.543 822.44 496.823 824.136 498.359 826.248C499.959 828.296 501.591 830.6 503.255 833.16C504.919 835.656 506.551 838.28 508.151 841.032C509.815 843.784 511.223 846.44 512.375 849H502.199C500.919 846.568 499.511 844.104 497.975 841.608C496.503 839.112 494.999 836.744 493.463 834.504C491.927 832.2 490.391 830.056 488.855 828.072C487.383 826.088 486.039 824.36 484.823 822.888C483.991 822.952 483.127 822.984 482.231 822.984C481.399 822.984 480.535 822.984 479.639 822.984H471.287V849H461.975V783.432C464.599 782.792 467.511 782.376 470.711 782.184C473.975 781.928 476.951 781.8 479.639 781.8C488.983 781.8 496.087 783.56 500.951 787.08C505.879 790.6 508.343 795.848 508.343 802.824C508.343 807.24 507.159 811.016 504.791 814.152C502.487 817.288 499.063 819.624 494.519 821.16ZM480.407 789.96C476.439 789.96 473.399 790.056 471.287 790.248V815.304H477.911C481.111 815.304 483.991 815.144 486.551 814.824C489.111 814.504 491.255 813.896 492.983 813C494.775 812.104 496.151 810.856 497.111 809.256C498.071 807.592 498.551 805.416 498.551 802.728C498.551 800.232 498.071 798.152 497.111 796.488C496.151 794.824 494.839 793.512 493.175 792.552C491.575 791.592 489.655 790.92 487.415 790.536C485.239 790.152 482.903 789.96 480.407 789.96ZM516.59 816.072H540.302V824.424H516.59V816.072ZM566.493 842.376C576.221 842.376 581.085 839.048 581.085 832.392C581.085 830.344 580.637 828.616 579.741 827.208C578.909 825.736 577.757 824.488 576.285 823.464C574.813 822.376 573.117 821.448 571.197 820.68C569.341 819.912 567.357 819.144 565.245 818.376C562.813 817.544 560.509 816.616 558.333 815.592C556.157 814.504 554.269 813.256 552.669 811.848C551.069 810.376 549.789 808.648 548.829 806.664C547.933 804.68 547.485 802.28 547.485 799.464C547.485 793.64 549.469 789.096 553.437 785.832C557.405 782.568 562.877 780.936 569.853 780.936C573.885 780.936 577.533 781.384 580.797 782.28C584.125 783.112 586.557 784.04 588.093 785.064L585.117 792.648C583.773 791.816 581.757 791.016 579.069 790.248C576.445 789.416 573.373 789 569.853 789C568.061 789 566.397 789.192 564.861 789.576C563.325 789.96 561.981 790.536 560.829 791.304C559.677 792.072 558.749 793.064 558.045 794.28C557.405 795.432 557.085 796.808 557.085 798.408C557.085 800.2 557.437 801.704 558.141 802.92C558.845 804.136 559.837 805.224 561.117 806.184C562.397 807.08 563.869 807.912 565.533 808.68C567.261 809.448 569.149 810.216 571.197 810.984C574.077 812.136 576.701 813.288 579.069 814.44C581.501 815.592 583.581 816.968 585.309 818.568C587.101 820.168 588.477 822.088 589.437 824.328C590.397 826.504 590.877 829.16 590.877 832.296C590.877 838.12 588.733 842.6 584.445 845.736C580.221 848.872 574.237 850.44 566.493 850.44C563.869 850.44 561.437 850.248 559.197 849.864C557.021 849.544 555.069 849.16 553.341 848.712C551.613 848.2 550.109 847.688 548.829 847.176C547.613 846.6 546.653 846.12 545.949 845.736L548.733 838.056C550.205 838.888 552.445 839.816 555.453 840.84C558.461 841.864 562.141 842.376 566.493 842.376ZM598.771 824.136C598.771 819.72 599.411 815.88 600.691 812.616C601.971 809.288 603.667 806.536 605.779 804.36C607.891 802.184 610.323 800.552 613.075 799.464C615.827 798.376 618.643 797.832 621.523 797.832C628.243 797.832 633.395 799.944 636.979 804.168C640.563 808.328 642.355 814.696 642.355 823.272C642.355 823.656 642.355 824.168 642.355 824.808C642.355 825.384 642.323 825.928 642.259 826.44H608.083C608.467 831.624 609.971 835.56 612.595 838.248C615.219 840.936 619.315 842.28 624.883 842.28C628.019 842.28 630.643 842.024 632.755 841.512C634.931 840.936 636.563 840.392 637.651 839.88L638.899 847.368C637.811 847.944 635.891 848.552 633.139 849.192C630.451 849.832 627.379 850.152 623.923 850.152C619.571 850.152 615.795 849.512 612.595 848.232C609.459 846.888 606.867 845.064 604.819 842.76C602.771 840.456 601.235 837.736 600.211 834.6C599.251 831.4 598.771 827.912 598.771 824.136ZM633.043 819.24C633.107 815.208 632.083 811.912 629.971 809.352C627.923 806.728 625.075 805.416 621.427 805.416C619.379 805.416 617.555 805.832 615.955 806.664C614.419 807.432 613.107 808.456 612.019 809.736C610.931 811.016 610.067 812.488 609.427 814.152C608.851 815.816 608.467 817.512 608.275 819.24H633.043ZM663.532 799.08H682.444V806.568H663.532V829.608C663.532 832.104 663.724 834.184 664.108 835.848C664.492 837.448 665.068 838.728 665.836 839.688C666.604 840.584 667.564 841.224 668.716 841.608C669.868 841.992 671.212 842.184 672.748 842.184C675.436 842.184 677.58 841.896 679.18 841.32C680.844 840.68 681.996 840.232 682.636 839.976L684.364 847.368C683.468 847.816 681.9 848.36 679.66 849C677.42 849.704 674.86 850.056 671.98 850.056C668.588 850.056 665.772 849.64 663.532 848.808C661.356 847.912 659.596 846.6 658.252 844.872C656.908 843.144 655.948 841.032 655.372 838.536C654.86 835.976 654.604 833.032 654.604 829.704V785.16L663.532 783.624V799.08Z" fill="#282923"/>
<path d="M427.864 264.264H437.176V295.368C436.408 295.624 435.288 295.912 433.816 296.232C432.408 296.552 430.744 296.872 428.824 297.192C426.968 297.512 424.92 297.768 422.68 297.96C420.44 298.216 418.168 298.344 415.864 298.344C411.192 298.344 406.936 297.576 403.096 296.04C399.256 294.504 395.96 292.264 393.208 289.32C390.456 286.376 388.312 282.76 386.776 278.472C385.304 274.184 384.568 269.256 384.568 263.688C384.568 258.12 385.4 253.192 387.064 248.904C388.792 244.552 391.096 240.904 393.976 237.96C396.856 235.016 400.216 232.776 404.056 231.24C407.96 229.704 412.12 228.936 416.536 228.936C419.544 228.936 422.2 229.128 424.504 229.512C426.872 229.896 428.888 230.344 430.552 230.856C432.216 231.368 433.56 231.88 434.584 232.392C435.672 232.904 436.408 233.288 436.792 233.544L433.816 241.32C431.96 240.104 429.496 239.112 426.424 238.344C423.352 237.512 420.216 237.096 417.016 237.096C413.624 237.096 410.52 237.704 407.704 238.92C404.952 240.136 402.584 241.896 400.6 244.2C398.68 246.504 397.176 249.32 396.088 252.648C395 255.912 394.456 259.592 394.456 263.688C394.456 267.656 394.904 271.272 395.8 274.536C396.76 277.8 398.168 280.616 400.024 282.984C401.944 285.288 404.28 287.08 407.032 288.36C409.848 289.64 413.144 290.28 416.92 290.28C419.608 290.28 421.88 290.152 423.736 289.896C425.656 289.576 427.032 289.288 427.864 289.032V264.264ZM445.996 264.072H469.708V272.424H445.996V264.072ZM509.052 298.44C504.38 298.44 500.124 297.672 496.284 296.136C492.444 294.6 489.148 292.36 486.396 289.416C483.644 286.472 481.5 282.856 479.964 278.568C478.492 274.216 477.756 269.256 477.756 263.688C477.756 258.12 478.588 253.192 480.252 248.904C481.98 244.552 484.284 240.904 487.164 237.96C490.044 235.016 493.404 232.776 497.244 231.24C501.084 229.704 505.18 228.936 509.532 228.936C512.284 228.936 514.748 229.128 516.924 229.512C519.164 229.896 521.084 230.344 522.684 230.856C524.348 231.368 525.692 231.88 526.716 232.392C527.74 232.904 528.444 233.288 528.828 233.544L526.14 241.224C525.564 240.84 524.732 240.424 523.644 239.976C522.556 239.528 521.308 239.08 519.9 238.632C518.556 238.184 517.052 237.832 515.388 237.576C513.788 237.256 512.156 237.096 510.492 237.096C506.972 237.096 503.804 237.704 500.988 238.92C498.172 240.136 495.772 241.896 493.788 244.2C491.804 246.504 490.268 249.32 489.18 252.648C488.156 255.912 487.644 259.592 487.644 263.688C487.644 267.656 488.092 271.272 488.988 274.536C489.948 277.8 491.356 280.616 493.212 282.984C495.068 285.288 497.372 287.08 500.124 288.36C502.94 289.64 506.204 290.28 509.916 290.28C514.204 290.28 517.756 289.832 520.572 288.936C523.388 288.04 525.5 287.24 526.908 286.536L529.308 294.216C528.86 294.536 528.06 294.952 526.908 295.464C525.756 295.912 524.316 296.36 522.588 296.808C520.86 297.256 518.844 297.64 516.54 297.96C514.236 298.28 511.74 298.44 509.052 298.44ZM582.057 272.04C582.057 276.008 581.481 279.592 580.329 282.792C579.177 285.992 577.545 288.744 575.433 291.048C573.385 293.352 570.921 295.144 568.041 296.424C565.161 297.64 562.025 298.248 558.633 298.248C555.241 298.248 552.105 297.64 549.225 296.424C546.345 295.144 543.849 293.352 541.737 291.048C539.689 288.744 538.089 285.992 536.937 282.792C535.785 279.592 535.209 276.008 535.209 272.04C535.209 268.136 535.785 264.584 536.937 261.384C538.089 258.12 539.689 255.336 541.737 253.032C543.849 250.728 546.345 248.968 549.225 247.752C552.105 246.472 555.241 245.832 558.633 245.832C562.025 245.832 565.161 246.472 568.041 247.752C570.921 248.968 573.385 250.728 575.433 253.032C577.545 255.336 579.177 258.12 580.329 261.384C581.481 264.584 582.057 268.136 582.057 272.04ZM572.745 272.04C572.745 266.408 571.465 261.96 568.905 258.696C566.409 255.368 562.985 253.704 558.633 253.704C554.281 253.704 550.825 255.368 548.265 258.696C545.769 261.96 544.521 266.408 544.521 272.04C544.521 277.672 545.769 282.152 548.265 285.48C550.825 288.744 554.281 290.376 558.633 290.376C562.985 290.376 566.409 288.744 568.905 285.48C571.465 282.152 572.745 277.672 572.745 272.04ZM634.362 295.56C632.314 296.072 629.594 296.616 626.202 297.192C622.874 297.768 619.002 298.056 614.586 298.056C610.746 298.056 607.514 297.512 604.89 296.424C602.266 295.272 600.154 293.672 598.554 291.624C596.954 289.576 595.802 287.176 595.098 284.424C594.394 281.608 594.042 278.504 594.042 275.112V247.08H602.97V273.192C602.97 279.272 603.93 283.624 605.85 286.248C607.77 288.872 611.002 290.184 615.546 290.184C616.506 290.184 617.498 290.152 618.522 290.088C619.546 290.024 620.506 289.96 621.402 289.896C622.298 289.768 623.098 289.672 623.802 289.608C624.57 289.48 625.114 289.352 625.434 289.224V247.08H634.362V295.56ZM649.743 248.52C651.791 248.008 654.511 247.464 657.903 246.888C661.295 246.312 665.199 246.024 669.615 246.024C673.583 246.024 676.879 246.6 679.503 247.752C682.127 248.84 684.207 250.408 685.743 252.456C687.343 254.44 688.463 256.84 689.103 259.656C689.743 262.472 690.062 265.576 690.062 268.968V297H681.135V270.888C681.135 267.816 680.911 265.192 680.463 263.016C680.079 260.84 679.407 259.08 678.447 257.736C677.487 256.392 676.207 255.432 674.607 254.856C673.007 254.216 671.023 253.896 668.655 253.896C667.695 253.896 666.703 253.928 665.679 253.992C664.655 254.056 663.663 254.152 662.703 254.28C661.807 254.344 660.975 254.44 660.207 254.568C659.503 254.696 658.991 254.792 658.671 254.856V297H649.743V248.52ZM713.22 247.08H732.132V254.568H713.22V277.608C713.22 280.104 713.412 282.184 713.796 283.848C714.18 285.448 714.756 286.728 715.524 287.688C716.292 288.584 717.252 289.224 718.404 289.608C719.556 289.992 720.9 290.184 722.436 290.184C725.124 290.184 727.268 289.896 728.868 289.32C730.532 288.68 731.684 288.232 732.324 287.976L734.052 295.368C733.156 295.816 731.588 296.36 729.348 297C727.108 297.704 724.548 298.056 721.668 298.056C718.276 298.056 715.46 297.64 713.22 296.808C711.044 295.912 709.284 294.6 707.94 292.872C706.596 291.144 705.636 289.032 705.06 286.536C704.548 283.976 704.292 281.032 704.292 277.704V233.16L713.22 231.624V247.08ZM739.771 272.136C739.771 267.72 740.411 263.88 741.691 260.616C742.971 257.288 744.667 254.536 746.779 252.36C748.891 250.184 751.323 248.552 754.075 247.464C756.827 246.376 759.643 245.832 762.523 245.832C769.243 245.832 774.395 247.944 777.979 252.168C781.563 256.328 783.355 262.696 783.355 271.272C783.355 271.656 783.355 272.168 783.355 272.808C783.355 273.384 783.323 273.928 783.259 274.44H749.083C749.467 279.624 750.971 283.56 753.595 286.248C756.219 288.936 760.315 290.28 765.883 290.28C769.019 290.28 771.643 290.024 773.755 289.512C775.931 288.936 777.563 288.392 778.651 287.88L779.899 295.368C778.811 295.944 776.891 296.552 774.139 297.192C771.451 297.832 768.379 298.152 764.923 298.152C760.571 298.152 756.795 297.512 753.595 296.232C750.459 294.888 747.867 293.064 745.819 290.76C743.771 288.456 742.235 285.736 741.211 282.6C740.251 279.4 739.771 275.912 739.771 272.136ZM774.043 267.24C774.107 263.208 773.083 259.912 770.971 257.352C768.923 254.728 766.075 253.416 762.427 253.416C760.379 253.416 758.555 253.832 756.955 254.664C755.419 255.432 754.107 256.456 753.019 257.736C751.931 259.016 751.067 260.488 750.427 262.152C749.851 263.816 749.467 265.512 749.275 267.24H774.043ZM814.612 246.024C815.38 246.024 816.244 246.088 817.204 246.216C818.228 246.28 819.22 246.408 820.18 246.6C821.14 246.728 822.004 246.888 822.772 247.08C823.604 247.208 824.212 247.336 824.596 247.464L823.06 255.24C822.356 254.984 821.172 254.696 819.508 254.376C817.908 253.992 815.828 253.8 813.268 253.8C811.604 253.8 809.94 253.992 808.276 254.376C806.676 254.696 805.62 254.92 805.108 255.048V297H796.18V249.192C798.292 248.424 800.916 247.72 804.052 247.08C807.188 246.376 810.708 246.024 814.612 246.024ZM404.92 339.8C414.264 339.8 421.432 341.592 426.424 345.176C431.48 348.696 434.008 353.976 434.008 361.016C434.008 364.856 433.304 368.152 431.896 370.904C430.552 373.592 428.568 375.8 425.944 377.528C423.384 379.192 420.248 380.408 416.536 381.176C412.824 381.944 408.632 382.328 403.96 382.328H396.568V407H387.256V341.432C389.88 340.792 392.792 340.376 395.992 340.184C399.256 339.928 402.232 339.8 404.92 339.8ZM405.688 347.96C401.72 347.96 398.68 348.056 396.568 348.248V374.36H403.576C406.776 374.36 409.656 374.168 412.216 373.784C414.776 373.336 416.92 372.632 418.648 371.672C420.44 370.648 421.816 369.272 422.776 367.544C423.736 365.816 424.216 363.608 424.216 360.92C424.216 358.36 423.704 356.248 422.68 354.584C421.72 352.92 420.376 351.608 418.648 350.648C416.984 349.624 415.032 348.92 412.792 348.536C410.552 348.152 408.184 347.96 405.688 347.96ZM491.262 407C489.854 404.632 488.222 401.976 486.366 399.032C484.574 396.088 482.622 393.048 480.51 389.912C478.398 386.712 476.19 383.48 473.886 380.216C471.646 376.952 469.406 373.816 467.166 370.808C464.926 367.736 462.75 364.856 460.638 362.168C458.526 359.48 456.574 357.112 454.782 355.064V407H445.662V340.472H453.054C456.062 343.672 459.262 347.416 462.654 351.704C466.11 355.928 469.502 360.312 472.83 364.856C476.222 369.336 479.39 373.752 482.334 378.104C485.342 382.456 487.87 386.328 489.918 389.72V340.472H499.038V407H491.262ZM509.746 374.072H533.458V382.424H509.746V374.072ZM572.802 408.44C568.13 408.44 563.874 407.672 560.034 406.136C556.194 404.6 552.898 402.36 550.146 399.416C547.394 396.472 545.25 392.856 543.714 388.568C542.242 384.216 541.506 379.256 541.506 373.688C541.506 368.12 542.338 363.192 544.002 358.904C545.73 354.552 548.034 350.904 550.914 347.96C553.794 345.016 557.154 342.776 560.994 341.24C564.834 339.704 568.93 338.936 573.282 338.936C576.034 338.936 578.498 339.128 580.674 339.512C582.914 339.896 584.834 340.344 586.434 340.856C588.098 341.368 589.442 341.88 590.466 342.392C591.49 342.904 592.194 343.288 592.578 343.544L589.89 351.224C589.314 350.84 588.482 350.424 587.394 349.976C586.306 349.528 585.058 349.08 583.65 348.632C582.306 348.184 580.802 347.832 579.138 347.576C577.538 347.256 575.906 347.096 574.242 347.096C570.722 347.096 567.554 347.704 564.738 348.92C561.922 350.136 559.522 351.896 557.538 354.2C555.554 356.504 554.018 359.32 552.93 362.648C551.906 365.912 551.394 369.592 551.394 373.688C551.394 377.656 551.842 381.272 552.738 384.536C553.698 387.8 555.106 390.616 556.962 392.984C558.818 395.288 561.122 397.08 563.874 398.36C566.69 399.64 569.954 400.28 573.666 400.28C577.954 400.28 581.506 399.832 584.322 398.936C587.138 398.04 589.25 397.24 590.658 396.536L593.058 404.216C592.61 404.536 591.81 404.952 590.658 405.464C589.506 405.912 588.066 406.36 586.338 406.808C584.61 407.256 582.594 407.64 580.29 407.96C577.986 408.28 575.49 408.44 572.802 408.44ZM645.807 382.04C645.807 386.008 645.231 389.592 644.079 392.792C642.927 395.992 641.295 398.744 639.183 401.048C637.135 403.352 634.671 405.144 631.791 406.424C628.911 407.64 625.775 408.248 622.383 408.248C618.991 408.248 615.855 407.64 612.975 406.424C610.095 405.144 607.599 403.352 605.487 401.048C603.439 398.744 601.839 395.992 600.687 392.792C599.535 389.592 598.959 386.008 598.959 382.04C598.959 378.136 599.535 374.584 600.687 371.384C601.839 368.12 603.439 365.336 605.487 363.032C607.599 360.728 610.095 358.968 612.975 357.752C615.855 356.472 618.991 355.832 622.383 355.832C625.775 355.832 628.911 356.472 631.791 357.752C634.671 358.968 637.135 360.728 639.183 363.032C641.295 365.336 642.927 368.12 644.079 371.384C645.231 374.584 645.807 378.136 645.807 382.04ZM636.495 382.04C636.495 376.408 635.215 371.96 632.655 368.696C630.159 365.368 626.735 363.704 622.383 363.704C618.031 363.704 614.575 365.368 612.015 368.696C609.519 371.96 608.271 376.408 608.271 382.04C608.271 387.672 609.519 392.152 612.015 395.48C614.575 398.744 618.031 400.376 622.383 400.376C626.735 400.376 630.159 398.744 632.655 395.48C635.215 392.152 636.495 387.672 636.495 382.04ZM698.112 405.56C696.064 406.072 693.344 406.616 689.952 407.192C686.624 407.768 682.752 408.056 678.336 408.056C674.496 408.056 671.264 407.512 668.64 406.424C666.016 405.272 663.904 403.672 662.304 401.624C660.704 399.576 659.552 397.176 658.848 394.424C658.144 391.608 657.792 388.504 657.792 385.112V357.08H666.72V383.192C666.72 389.272 667.68 393.624 669.6 396.248C671.52 398.872 674.752 400.184 679.296 400.184C680.256 400.184 681.248 400.152 682.272 400.088C683.296 400.024 684.256 399.96 685.152 399.896C686.048 399.768 686.848 399.672 687.552 399.608C688.32 399.48 688.864 399.352 689.184 399.224V357.08H698.112V405.56ZM713.493 358.52C715.541 358.008 718.261 357.464 721.653 356.888C725.045 356.312 728.949 356.024 733.365 356.024C737.333 356.024 740.629 356.6 743.253 357.752C745.877 358.84 747.957 360.408 749.493 362.456C751.093 364.44 752.213 366.84 752.853 369.656C753.493 372.472 753.812 375.576 753.812 378.968V407H744.885V380.888C744.885 377.816 744.661 375.192 744.213 373.016C743.829 370.84 743.157 369.08 742.197 367.736C741.237 366.392 739.957 365.432 738.357 364.856C736.757 364.216 734.773 363.896 732.405 363.896C731.445 363.896 730.453 363.928 729.429 363.992C728.405 364.056 727.413 364.152 726.453 364.28C725.557 364.344 724.725 364.44 723.957 364.568C723.253 364.696 722.741 364.792 722.421 364.856V407H713.493V358.52ZM776.97 357.08H795.882V364.568H776.97V387.608C776.97 390.104 777.162 392.184 777.546 393.848C777.93 395.448 778.506 396.728 779.274 397.688C780.042 398.584 781.002 399.224 782.154 399.608C783.306 399.992 784.65 400.184 786.186 400.184C788.874 400.184 791.018 399.896 792.618 399.32C794.282 398.68 795.434 398.232 796.074 397.976L797.802 405.368C796.906 405.816 795.338 406.36 793.098 407C790.858 407.704 788.298 408.056 785.418 408.056C782.026 408.056 779.21 407.64 776.97 406.808C774.794 405.912 773.034 404.6 771.69 402.872C770.346 401.144 769.386 399.032 768.81 396.536C768.298 393.976 768.042 391.032 768.042 387.704V343.16L776.97 341.624V357.08ZM803.521 382.136C803.521 377.72 804.161 373.88 805.441 370.616C806.721 367.288 808.417 364.536 810.529 362.36C812.641 360.184 815.073 358.552 817.825 357.464C820.577 356.376 823.393 355.832 826.273 355.832C832.993 355.832 838.145 357.944 841.729 362.168C845.313 366.328 847.105 372.696 847.105 381.272C847.105 381.656 847.105 382.168 847.105 382.808C847.105 383.384 847.073 383.928 847.009 384.44H812.833C813.217 389.624 814.721 393.56 817.345 396.248C819.969 398.936 824.065 400.28 829.633 400.28C832.769 400.28 835.393 400.024 837.505 399.512C839.681 398.936 841.313 398.392 842.401 397.88L843.649 405.368C842.561 405.944 840.641 406.552 837.889 407.192C835.201 407.832 832.129 408.152 828.673 408.152C824.321 408.152 820.545 407.512 817.345 406.232C814.209 404.888 811.617 403.064 809.569 400.76C807.521 398.456 805.985 395.736 804.961 392.6C804.001 389.4 803.521 385.912 803.521 382.136ZM837.793 377.24C837.857 373.208 836.833 369.912 834.721 367.352C832.673 364.728 829.825 363.416 826.177 363.416C824.129 363.416 822.305 363.832 820.705 364.664C819.169 365.432 817.857 366.456 816.769 367.736C815.681 369.016 814.817 370.488 814.177 372.152C813.601 373.816 813.217 375.512 813.025 377.24H837.793ZM878.362 356.024C879.13 356.024 879.994 356.088 880.954 356.216C881.978 356.28 882.97 356.408 883.93 356.6C884.89 356.728 885.754 356.888 886.522 357.08C887.354 357.208 887.962 357.336 888.346 357.464L886.81 365.24C886.106 364.984 884.922 364.696 883.258 364.376C881.658 363.992 879.578 363.8 877.018 363.8C875.354 363.8 873.69 363.992 872.026 364.376C870.426 364.696 869.37 364.92 868.858 365.048V407H859.93V359.192C862.042 358.424 864.666 357.72 867.802 357.08C870.938 356.376 874.458 356.024 878.362 356.024ZM427.864 485.264H437.176V516.368C436.408 516.624 435.288 516.912 433.816 517.232C432.408 517.552 430.744 517.872 428.824 518.192C426.968 518.512 424.92 518.768 422.68 518.96C420.44 519.216 418.168 519.344 415.864 519.344C411.192 519.344 406.936 518.576 403.096 517.04C399.256 515.504 395.96 513.264 393.208 510.32C390.456 507.376 388.312 503.76 386.776 499.472C385.304 495.184 384.568 490.256 384.568 484.688C384.568 479.12 385.4 474.192 387.064 469.904C388.792 465.552 391.096 461.904 393.976 458.96C396.856 456.016 400.216 453.776 404.056 452.24C407.96 450.704 412.12 449.936 416.536 449.936C419.544 449.936 422.2 450.128 424.504 450.512C426.872 450.896 428.888 451.344 430.552 451.856C432.216 452.368 433.56 452.88 434.584 453.392C435.672 453.904 436.408 454.288 436.792 454.544L433.816 462.32C431.96 461.104 429.496 460.112 426.424 459.344C423.352 458.512 420.216 458.096 417.016 458.096C413.624 458.096 410.52 458.704 407.704 459.92C404.952 461.136 402.584 462.896 400.6 465.2C398.68 467.504 397.176 470.32 396.088 473.648C395 476.912 394.456 480.592 394.456 484.688C394.456 488.656 394.904 492.272 395.8 495.536C396.76 498.8 398.168 501.616 400.024 503.984C401.944 506.288 404.28 508.08 407.032 509.36C409.848 510.64 413.144 511.28 416.92 511.28C419.608 511.28 421.88 511.152 423.736 510.896C425.656 510.576 427.032 510.288 427.864 510.032V485.264ZM445.996 485.072H469.708V493.424H445.996V485.072ZM495.9 511.376C505.628 511.376 510.492 508.048 510.492 501.392C510.492 499.344 510.044 497.616 509.148 496.208C508.316 494.736 507.164 493.488 505.692 492.464C504.22 491.376 502.524 490.448 500.604 489.68C498.748 488.912 496.764 488.144 494.652 487.376C492.22 486.544 489.916 485.616 487.74 484.592C485.564 483.504 483.676 482.256 482.076 480.848C480.476 479.376 479.196 477.648 478.236 475.664C477.34 473.68 476.892 471.28 476.892 468.464C476.892 462.64 478.876 458.096 482.844 454.832C486.812 451.568 492.284 449.936 499.26 449.936C503.292 449.936 506.94 450.384 510.204 451.28C513.532 452.112 515.964 453.04 517.5 454.064L514.524 461.648C513.18 460.816 511.164 460.016 508.476 459.248C505.852 458.416 502.78 458 499.26 458C497.468 458 495.804 458.192 494.268 458.576C492.732 458.96 491.388 459.536 490.236 460.304C489.084 461.072 488.156 462.064 487.452 463.28C486.812 464.432 486.492 465.808 486.492 467.408C486.492 469.2 486.844 470.704 487.548 471.92C488.252 473.136 489.244 474.224 490.524 475.184C491.804 476.08 493.276 476.912 494.94 477.68C496.668 478.448 498.556 479.216 500.604 479.984C503.484 481.136 506.108 482.288 508.476 483.44C510.908 484.592 512.988 485.968 514.716 487.568C516.508 489.168 517.884 491.088 518.844 493.328C519.804 495.504 520.284 498.16 520.284 501.296C520.284 507.12 518.14 511.6 513.852 514.736C509.628 517.872 503.644 519.44 495.9 519.44C493.276 519.44 490.844 519.248 488.604 518.864C486.428 518.544 484.476 518.16 482.748 517.712C481.02 517.2 479.516 516.688 478.236 516.176C477.02 515.6 476.06 515.12 475.355 514.736L478.14 507.056C479.612 507.888 481.852 508.816 484.859 509.84C487.868 510.864 491.548 511.376 495.9 511.376ZM528.177 493.136C528.177 488.72 528.817 484.88 530.097 481.616C531.377 478.288 533.073 475.536 535.185 473.36C537.297 471.184 539.729 469.552 542.481 468.464C545.233 467.376 548.049 466.832 550.929 466.832C557.649 466.832 562.801 468.944 566.385 473.168C569.969 477.328 571.761 483.696 571.761 492.272C571.761 492.656 571.761 493.168 571.761 493.808C571.761 494.384 571.729 494.928 571.665 495.44H537.489C537.873 500.624 539.377 504.56 542.001 507.248C544.625 509.936 548.721 511.28 554.289 511.28C557.425 511.28 560.049 511.024 562.161 510.512C564.337 509.936 565.969 509.392 567.057 508.88L568.305 516.368C567.217 516.944 565.297 517.552 562.545 518.192C559.857 518.832 556.785 519.152 553.329 519.152C548.977 519.152 545.201 518.512 542.001 517.232C538.865 515.888 536.273 514.064 534.225 511.76C532.177 509.456 530.641 506.736 529.617 503.6C528.657 500.4 528.177 496.912 528.177 493.136ZM562.449 488.24C562.513 484.208 561.489 480.912 559.377 478.352C557.329 475.728 554.481 474.416 550.833 474.416C548.785 474.416 546.961 474.832 545.361 475.664C543.825 476.432 542.513 477.456 541.425 478.736C540.337 480.016 539.473 481.488 538.833 483.152C538.257 484.816 537.873 486.512 537.681 488.24H562.449ZM592.938 468.08H611.85V475.568H592.938V498.608C592.938 501.104 593.13 503.184 593.514 504.848C593.898 506.448 594.474 507.728 595.242 508.688C596.01 509.584 596.97 510.224 598.122 510.608C599.274 510.992 600.618 511.184 602.154 511.184C604.842 511.184 606.986 510.896 608.586 510.32C610.25 509.68 611.402 509.232 612.042 508.976L613.77 516.368C612.874 516.816 611.306 517.36 609.066 518C606.826 518.704 604.266 519.056 601.386 519.056C597.994 519.056 595.178 518.64 592.938 517.808C590.762 516.912 589.002 515.6 587.658 513.872C586.314 512.144 585.354 510.032 584.778 507.536C584.266 504.976 584.01 502.032 584.01 498.704V454.16L592.938 452.624V468.08ZM423.832 578.464C423.832 580.768 423.352 583.008 422.392 585.184C421.496 587.296 420.28 589.408 418.744 591.52C417.208 593.568 415.48 595.616 413.56 597.664C411.64 599.648 409.72 601.6 407.8 603.52C406.712 604.608 405.432 605.888 403.96 607.36C402.552 608.832 401.208 610.368 399.928 611.968C398.648 613.568 397.56 615.104 396.664 616.576C395.832 618.048 395.416 619.328 395.416 620.416H426.04V628H385.72C385.656 627.616 385.624 627.232 385.624 626.848C385.624 626.464 385.624 626.112 385.624 625.792C385.624 622.784 386.104 620 387.064 617.44C388.088 614.816 389.4 612.352 391 610.048C392.6 607.744 394.392 605.568 396.376 603.52C398.36 601.472 400.312 599.488 402.232 597.568C403.832 596.032 405.336 594.528 406.744 593.056C408.216 591.52 409.496 590.016 410.584 588.544C411.736 587.008 412.632 585.44 413.272 583.84C413.976 582.24 414.328 580.544 414.328 578.752C414.328 576.832 414.008 575.2 413.368 573.856C412.792 572.512 411.992 571.392 410.968 570.496C409.944 569.6 408.728 568.96 407.32 568.576C405.976 568.128 404.536 567.904 403 567.904C401.144 567.904 399.448 568.16 397.912 568.672C396.376 569.184 395 569.792 393.784 570.496C392.568 571.136 391.544 571.84 390.712 572.608C389.88 573.312 389.24 573.856 388.792 574.24L384.376 567.904C384.952 567.264 385.816 566.496 386.968 565.6C388.12 564.64 389.496 563.744 391.096 562.912C392.696 562.08 394.488 561.376 396.472 560.8C398.456 560.224 400.6 559.936 402.904 559.936C409.88 559.936 415.096 561.568 418.552 564.832C422.072 568.032 423.832 572.576 423.832 578.464ZM459.108 560.8C468.452 560.8 475.62 562.592 480.612 566.176C485.668 569.696 488.196 574.976 488.196 582.016C488.196 585.856 487.492 589.152 486.083 591.904C484.74 594.592 482.756 596.8 480.132 598.528C477.572 600.192 474.436 601.408 470.724 602.176C467.012 602.944 462.82 603.328 458.148 603.328H450.756V628H441.444V562.432C444.068 561.792 446.98 561.376 450.18 561.184C453.444 560.928 456.42 560.8 459.108 560.8ZM459.876 568.96C455.908 568.96 452.868 569.056 450.756 569.248V595.36H457.764C460.964 595.36 463.844 595.168 466.404 594.784C468.964 594.336 471.108 593.632 472.836 592.672C474.628 591.648 476.004 590.272 476.964 588.544C477.924 586.816 478.404 584.608 478.404 581.92C478.404 579.36 477.892 577.248 476.868 575.584C475.908 573.92 474.564 572.608 472.836 571.648C471.172 570.624 469.22 569.92 466.98 569.536C464.74 569.152 462.372 568.96 459.876 568.96ZM494.09 595.072H517.802V603.424H494.09V595.072ZM543.993 621.376C553.721 621.376 558.585 618.048 558.585 611.392C558.585 609.344 558.137 607.616 557.241 606.208C556.409 604.736 555.257 603.488 553.785 602.464C552.313 601.376 550.617 600.448 548.697 599.68C546.841 598.912 544.857 598.144 542.745 597.376C540.313 596.544 538.009 595.616 535.833 594.592C533.657 593.504 531.769 592.256 530.169 590.848C528.569 589.376 527.289 587.648 526.329 585.664C525.433 583.68 524.985 581.28 524.985 578.464C524.985 572.64 526.969 568.096 530.937 564.832C534.905 561.568 540.377 559.936 547.353 559.936C551.385 559.936 555.033 560.384 558.297 561.28C561.625 562.112 564.057 563.04 565.593 564.064L562.617 571.648C561.273 570.816 559.257 570.016 556.569 569.248C553.945 568.416 550.873 568 547.353 568C545.561 568 543.897 568.192 542.361 568.576C540.825 568.96 539.481 569.536 538.329 570.304C537.177 571.072 536.249 572.064 535.545 573.28C534.905 574.432 534.585 575.808 534.585 577.408C534.585 579.2 534.937 580.704 535.641 581.92C536.345 583.136 537.337 584.224 538.617 585.184C539.897 586.08 541.369 586.912 543.033 587.68C544.761 588.448 546.649 589.216 548.697 589.984C551.577 591.136 554.201 592.288 556.569 593.44C559.001 594.592 561.081 595.968 562.809 597.568C564.601 599.168 565.977 601.088 566.937 603.328C567.897 605.504 568.377 608.16 568.377 611.296C568.377 617.12 566.233 621.6 561.945 624.736C557.721 627.872 551.737 629.44 543.993 629.44C541.369 629.44 538.937 629.248 536.697 628.864C534.521 628.544 532.569 628.16 530.841 627.712C529.113 627.2 527.609 626.688 526.329 626.176C525.113 625.6 524.153 625.12 523.449 624.736L526.233 617.056C527.705 617.888 529.945 618.816 532.953 619.84C535.961 620.864 539.641 621.376 543.993 621.376ZM576.271 603.136C576.271 598.72 576.911 594.88 578.191 591.616C579.471 588.288 581.167 585.536 583.279 583.36C585.391 581.184 587.823 579.552 590.575 578.464C593.327 577.376 596.143 576.832 599.023 576.832C605.743 576.832 610.895 578.944 614.479 583.168C618.063 587.328 619.855 593.696 619.855 602.272C619.855 602.656 619.855 603.168 619.855 603.808C619.855 604.384 619.823 604.928 619.759 605.44H585.583C585.967 610.624 587.471 614.56 590.095 617.248C592.719 619.936 596.815 621.28 602.383 621.28C605.519 621.28 608.143 621.024 610.255 620.512C612.431 619.936 614.063 619.392 615.151 618.88L616.399 626.368C615.311 626.944 613.391 627.552 610.639 628.192C607.951 628.832 604.879 629.152 601.423 629.152C597.071 629.152 593.295 628.512 590.095 627.232C586.959 625.888 584.367 624.064 582.319 621.76C580.271 619.456 578.735 616.736 577.711 613.6C576.751 610.4 576.271 606.912 576.271 603.136ZM610.543 598.24C610.607 594.208 609.583 590.912 607.471 588.352C605.423 585.728 602.575 584.416 598.927 584.416C596.879 584.416 595.055 584.832 593.455 585.664C591.919 586.432 590.607 587.456 589.519 588.736C588.431 590.016 587.567 591.488 586.927 593.152C586.351 594.816 585.967 596.512 585.775 598.24H610.543ZM641.032 578.08H659.944V585.568H641.032V608.608C641.032 611.104 641.224 613.184 641.608 614.848C641.992 616.448 642.568 617.728 643.336 618.688C644.104 619.584 645.064 620.224 646.216 620.608C647.368 620.992 648.712 621.184 650.248 621.184C652.936 621.184 655.08 620.896 656.68 620.32C658.344 619.68 659.496 619.232 660.136 618.976L661.864 626.368C660.968 626.816 659.4 627.36 657.16 628C654.92 628.704 652.36 629.056 649.48 629.056C646.088 629.056 643.272 628.64 641.032 627.808C638.856 626.912 637.096 625.6 635.752 623.872C634.408 622.144 633.448 620.032 632.872 617.536C632.36 614.976 632.104 612.032 632.104 608.704V564.16L641.032 562.624V578.08ZM427.288 729.936V738H387.256V671.472H396.568V729.936H427.288ZM469.109 692.88C466.421 701.456 463.701 709.392 460.949 716.688C458.197 723.984 455.445 731.088 452.693 738H443.381C439.989 728.208 436.981 717.872 434.357 706.992C431.797 696.112 429.397 684.272 427.157 671.472H436.949C437.845 676.464 438.773 681.456 439.733 686.448C440.693 691.44 441.685 696.304 442.709 701.04C443.733 705.712 444.757 710.192 445.781 714.48C446.805 718.768 447.861 722.736 448.949 726.384C451.509 719.664 454.229 712.304 457.109 704.304C459.989 696.24 462.677 687.92 465.173 679.344H473.237C475.733 687.92 478.453 696.24 481.397 704.304C484.341 712.304 487.093 719.664 489.653 726.384C490.677 722.8 491.701 718.864 492.725 714.576C493.749 710.288 494.741 705.808 495.701 701.136C496.725 696.4 497.717 691.536 498.677 686.544C499.637 681.488 500.565 676.464 501.461 671.472H510.965C508.661 684.272 506.197 696.112 503.573 706.992C501.013 717.872 498.069 728.208 494.741 738H485.429C482.613 731.088 479.861 723.984 477.173 716.688C474.485 709.392 471.797 701.456 469.109 692.88ZM559.39 692.88C556.702 701.456 553.982 709.392 551.23 716.688C548.478 723.984 545.726 731.088 542.974 738H533.662C530.27 728.208 527.262 717.872 524.638 706.992C522.078 696.112 519.678 684.272 517.438 671.472H527.23C528.126 676.464 529.054 681.456 530.014 686.448C530.974 691.44 531.966 696.304 532.99 701.04C534.014 705.712 535.038 710.192 536.062 714.48C537.086 718.768 538.142 722.736 539.23 726.384C541.79 719.664 544.51 712.304 547.39 704.304C550.27 696.24 552.958 687.92 555.454 679.344H563.518C566.014 687.92 568.734 696.24 571.678 704.304C574.622 712.304 577.374 719.664 579.934 726.384C580.958 722.8 581.982 718.864 583.006 714.576C584.03 710.288 585.022 705.808 585.982 701.136C587.006 696.4 587.998 691.536 588.958 686.544C589.918 681.488 590.846 676.464 591.742 671.472H601.246C598.942 684.272 596.478 696.112 593.854 706.992C591.294 717.872 588.35 728.208 585.022 738H575.71C572.894 731.088 570.142 723.984 567.454 716.688C564.766 709.392 562.078 701.456 559.39 692.88ZM606.402 705.072H630.114V713.424H606.402V705.072ZM640.85 738V671.472H681.458V679.44H650.162V699.216H678.002V706.992H650.162V730.032H683.858V738H640.85ZM710.094 738.96C704.59 738.832 700.686 737.648 698.382 735.408C696.078 733.168 694.926 729.68 694.926 724.944V665.04L703.854 663.504V723.504C703.854 724.976 703.982 726.192 704.238 727.152C704.494 728.112 704.91 728.88 705.486 729.456C706.062 730.032 706.83 730.48 707.79 730.8C708.75 731.056 709.934 731.28 711.342 731.472L710.094 738.96ZM718.584 713.136C718.584 708.72 719.224 704.88 720.504 701.616C721.784 698.288 723.48 695.536 725.592 693.36C727.704 691.184 730.136 689.552 732.888 688.464C735.64 687.376 738.456 686.832 741.336 686.832C748.056 686.832 753.208 688.944 756.792 693.168C760.376 697.328 762.167 703.696 762.167 712.272C762.167 712.656 762.167 713.168 762.167 713.808C762.167 714.384 762.135 714.928 762.072 715.44H727.896C728.28 720.624 729.784 724.56 732.408 727.248C735.032 729.936 739.128 731.28 744.696 731.28C747.832 731.28 750.456 731.024 752.568 730.512C754.744 729.936 756.376 729.392 757.464 728.88L758.712 736.368C757.624 736.944 755.704 737.552 752.952 738.192C750.264 738.832 747.192 739.152 743.736 739.152C739.384 739.152 735.608 738.512 732.408 737.232C729.272 735.888 726.68 734.064 724.632 731.76C722.584 729.456 721.048 726.736 720.023 723.6C719.064 720.4 718.584 716.912 718.584 713.136ZM752.856 708.24C752.92 704.208 751.896 700.912 749.784 698.352C747.736 695.728 744.888 694.416 741.24 694.416C739.192 694.416 737.368 694.832 735.768 695.664C734.232 696.432 732.92 697.456 731.832 698.736C730.744 700.016 729.88 701.488 729.24 703.152C728.664 704.816 728.28 706.512 728.088 708.24H752.856ZM774.993 689.52C777.041 689.008 779.729 688.464 783.057 687.888C786.449 687.312 790.353 687.024 794.769 687.024C797.969 687.024 800.657 687.472 802.833 688.368C805.009 689.2 806.833 690.448 808.305 692.112C808.753 691.792 809.457 691.344 810.417 690.768C811.377 690.192 812.561 689.648 813.969 689.136C815.377 688.56 816.945 688.08 818.673 687.696C820.401 687.248 822.257 687.024 824.241 687.024C828.081 687.024 831.217 687.6 833.649 688.752C836.081 689.84 837.969 691.408 839.313 693.456C840.721 695.504 841.649 697.936 842.097 700.752C842.609 703.568 842.865 706.64 842.865 709.968V738H833.937V711.888C833.937 708.944 833.777 706.416 833.457 704.304C833.201 702.192 832.657 700.432 831.825 699.024C831.057 697.616 829.969 696.592 828.561 695.952C827.217 695.248 825.457 694.896 823.281 694.896C820.273 694.896 817.777 695.312 815.792 696.144C813.873 696.912 812.561 697.616 811.857 698.256C812.369 699.92 812.753 701.744 813.009 703.728C813.265 705.712 813.393 707.792 813.393 709.968V738H804.465V711.888C804.465 708.944 804.305 706.416 803.985 704.304C803.665 702.192 803.089 700.432 802.257 699.024C801.489 697.616 800.401 696.592 798.993 695.952C797.649 695.248 795.921 694.896 793.809 694.896C792.913 694.896 791.953 694.928 790.929 694.992C789.905 695.056 788.913 695.152 787.953 695.28C787.057 695.344 786.225 695.44 785.457 695.568C784.689 695.696 784.177 695.792 783.921 695.856V738H774.993V689.52ZM854.896 713.136C854.896 708.72 855.536 704.88 856.816 701.616C858.096 698.288 859.792 695.536 861.904 693.36C864.016 691.184 866.448 689.552 869.2 688.464C871.952 687.376 874.768 686.832 877.648 686.832C884.368 686.832 889.52 688.944 893.104 693.168C896.688 697.328 898.48 703.696 898.48 712.272C898.48 712.656 898.48 713.168 898.48 713.808C898.48 714.384 898.448 714.928 898.384 715.44H864.208C864.592 720.624 866.096 724.56 868.72 727.248C871.344 729.936 875.44 731.28 881.008 731.28C884.144 731.28 886.768 731.024 888.88 730.512C891.056 729.936 892.688 729.392 893.776 728.88L895.024 736.368C893.936 736.944 892.016 737.552 889.264 738.192C886.576 738.832 883.504 739.152 880.048 739.152C875.696 739.152 871.92 738.512 868.72 737.232C865.584 735.888 862.992 734.064 860.944 731.76C858.896 729.456 857.36 726.736 856.336 723.6C855.376 720.4 854.896 716.912 854.896 713.136ZM889.168 708.24C889.232 704.208 888.208 700.912 886.096 698.352C884.048 695.728 881.2 694.416 877.552 694.416C875.504 694.416 873.68 694.832 872.08 695.664C870.544 696.432 869.232 697.456 868.144 698.736C867.056 700.016 866.192 701.488 865.552 703.152C864.976 704.816 864.592 706.512 864.4 708.24H889.168ZM911.305 689.52C913.353 689.008 916.073 688.464 919.465 687.888C922.857 687.312 926.761 687.024 931.177 687.024C935.145 687.024 938.441 687.6 941.065 688.752C943.689 689.84 945.769 691.408 947.305 693.456C948.905 695.44 950.025 697.84 950.665 700.656C951.305 703.472 951.625 706.576 951.625 709.968V738H942.697V711.888C942.697 708.816 942.473 706.192 942.025 704.016C941.641 701.84 940.969 700.08 940.009 698.736C939.049 697.392 937.769 696.432 936.169 695.856C934.569 695.216 932.585 694.896 930.217 694.896C929.257 694.896 928.265 694.928 927.241 694.992C926.217 695.056 925.225 695.152 924.265 695.28C923.369 695.344 922.537 695.44 921.769 695.568C921.065 695.696 920.553 695.792 920.233 695.856V738H911.305V689.52ZM974.782 688.08H993.694V695.568H974.782V718.608C974.782 721.104 974.974 723.184 975.358 724.848C975.742 726.448 976.318 727.728 977.086 728.688C977.854 729.584 978.814 730.224 979.966 730.608C981.118 730.992 982.462 731.184 983.998 731.184C986.686 731.184 988.83 730.896 990.43 730.32C992.094 729.68 993.246 729.232 993.886 728.976L995.614 736.368C994.718 736.816 993.15 737.36 990.91 738C988.67 738.704 986.11 739.056 983.23 739.056C979.838 739.056 977.022 738.64 974.782 737.808C972.606 736.912 970.846 735.6 969.502 733.872C968.158 732.144 967.198 730.032 966.622 727.536C966.11 724.976 965.854 722.032 965.854 718.704V674.16L974.782 672.624V688.08ZM996.121 705.072H1019.83V713.424H996.121V705.072ZM1046.02 731.376C1055.75 731.376 1060.62 728.048 1060.62 721.392C1060.62 719.344 1060.17 717.616 1059.27 716.208C1058.44 714.736 1057.29 713.488 1055.82 712.464C1054.34 711.376 1052.65 710.448 1050.73 709.68C1048.87 708.912 1046.89 708.144 1044.78 707.376C1042.34 706.544 1040.04 705.616 1037.86 704.592C1035.69 703.504 1033.8 702.256 1032.2 700.848C1030.6 699.376 1029.32 697.648 1028.36 695.664C1027.46 693.68 1027.02 691.28 1027.02 688.464C1027.02 682.64 1029 678.096 1032.97 674.832C1036.94 671.568 1042.41 669.936 1049.38 669.936C1053.42 669.936 1057.06 670.384 1060.33 671.28C1063.66 672.112 1066.09 673.04 1067.62 674.064L1064.65 681.648C1063.3 680.816 1061.29 680.016 1058.6 679.248C1055.98 678.416 1052.9 678 1049.38 678C1047.59 678 1045.93 678.192 1044.39 678.576C1042.86 678.96 1041.51 679.536 1040.36 680.304C1039.21 681.072 1038.28 682.064 1037.58 683.28C1036.94 684.432 1036.62 685.808 1036.62 687.408C1036.62 689.2 1036.97 690.704 1037.67 691.92C1038.38 693.136 1039.37 694.224 1040.65 695.184C1041.93 696.08 1043.4 696.912 1045.06 697.68C1046.79 698.448 1048.68 699.216 1050.73 699.984C1053.61 701.136 1056.23 702.288 1058.6 703.44C1061.03 704.592 1063.11 705.968 1064.84 707.568C1066.63 709.168 1068.01 711.088 1068.97 713.328C1069.93 715.504 1070.41 718.16 1070.41 721.296C1070.41 727.12 1068.26 731.6 1063.98 734.736C1059.75 737.872 1053.77 739.44 1046.02 739.44C1043.4 739.44 1040.97 739.248 1038.73 738.864C1036.55 738.544 1034.6 738.16 1032.87 737.712C1031.14 737.2 1029.64 736.688 1028.36 736.176C1027.14 735.6 1026.18 735.12 1025.48 734.736L1028.26 727.056C1029.74 727.888 1031.98 728.816 1034.98 729.84C1037.99 730.864 1041.67 731.376 1046.02 731.376ZM1078.3 713.136C1078.3 708.72 1078.94 704.88 1080.22 701.616C1081.5 698.288 1083.2 695.536 1085.31 693.36C1087.42 691.184 1089.85 689.552 1092.61 688.464C1095.36 687.376 1098.17 686.832 1101.05 686.832C1107.77 686.832 1112.93 688.944 1116.51 693.168C1120.09 697.328 1121.89 703.696 1121.89 712.272C1121.89 712.656 1121.89 713.168 1121.89 713.808C1121.89 714.384 1121.85 714.928 1121.79 715.44H1087.61C1088 720.624 1089.5 724.56 1092.13 727.248C1094.75 729.936 1098.85 731.28 1104.41 731.28C1107.55 731.28 1110.17 731.024 1112.29 730.512C1114.46 729.936 1116.09 729.392 1117.18 728.88L1118.43 736.368C1117.34 736.944 1115.42 737.552 1112.67 738.192C1109.98 738.832 1106.91 739.152 1103.45 739.152C1099.1 739.152 1095.33 738.512 1092.13 737.232C1088.99 735.888 1086.4 734.064 1084.35 731.76C1082.3 729.456 1080.77 726.736 1079.74 723.6C1078.78 720.4 1078.3 716.912 1078.3 713.136ZM1112.57 708.24C1112.64 704.208 1111.61 700.912 1109.5 698.352C1107.45 695.728 1104.61 694.416 1100.96 694.416C1098.91 694.416 1097.09 694.832 1095.49 695.664C1093.95 696.432 1092.64 697.456 1091.55 698.736C1090.46 700.016 1089.6 701.488 1088.96 703.152C1088.38 704.816 1088 706.512 1087.81 708.24H1112.57ZM1143.06 688.08H1161.98V695.568H1143.06V718.608C1143.06 721.104 1143.26 723.184 1143.64 724.848C1144.02 726.448 1144.6 727.728 1145.37 728.688C1146.14 729.584 1147.1 730.224 1148.25 730.608C1149.4 730.992 1150.74 731.184 1152.28 731.184C1154.97 731.184 1157.11 730.896 1158.71 730.32C1160.38 729.68 1161.53 729.232 1162.17 728.976L1163.9 736.368C1163 736.816 1161.43 737.36 1159.19 738C1156.95 738.704 1154.39 739.056 1151.51 739.056C1148.12 739.056 1145.3 738.64 1143.06 737.808C1140.89 736.912 1139.13 735.6 1137.78 733.872C1136.44 732.144 1135.48 730.032 1134.9 727.536C1134.39 724.976 1134.14 722.032 1134.14 718.704V674.16L1143.06 672.624V688.08ZM384.568 815.688C384.568 809.992 385.4 804.968 387.064 800.616C388.792 796.264 391.096 792.648 393.976 789.768C396.92 786.824 400.312 784.616 404.152 783.144C408.056 781.672 412.184 780.936 416.536 780.936C420.824 780.936 424.856 781.672 428.632 783.144C432.472 784.616 435.832 786.824 438.712 789.768C441.592 792.648 443.864 796.264 445.528 800.616C447.256 804.968 448.12 809.992 448.12 815.688C448.12 821.384 447.256 826.408 445.528 830.76C443.864 835.112 441.592 838.76 438.712 841.704C435.832 844.584 432.472 846.76 428.632 848.232C424.856 849.704 420.824 850.44 416.536 850.44C412.184 850.44 408.056 849.704 404.152 848.232C400.312 846.76 396.92 844.584 393.976 841.704C391.096 838.76 388.792 835.112 387.064 830.76C385.4 826.408 384.568 821.384 384.568 815.688ZM394.36 815.688C394.36 819.72 394.872 823.4 395.896 826.728C396.92 829.992 398.36 832.776 400.216 835.08C402.136 837.384 404.44 839.176 407.128 840.456C409.88 841.672 412.952 842.28 416.344 842.28C419.736 842.28 422.776 841.672 425.464 840.456C428.152 839.176 430.424 837.384 432.28 835.08C434.2 832.776 435.672 829.992 436.696 826.728C437.72 823.4 438.232 819.72 438.232 815.688C438.232 811.656 437.72 808.008 436.696 804.744C435.672 801.416 434.2 798.6 432.28 796.296C430.424 793.992 428.152 792.232 425.464 791.016C422.776 789.736 419.736 789.096 416.344 789.096C412.952 789.096 409.88 789.736 407.128 791.016C404.44 792.232 402.136 793.992 400.216 796.296C398.36 798.6 396.92 801.416 395.896 804.744C394.872 808.008 394.36 811.656 394.36 815.688ZM494.519 821.16C495.543 822.44 496.823 824.136 498.359 826.248C499.959 828.296 501.591 830.6 503.255 833.16C504.919 835.656 506.551 838.28 508.151 841.032C509.815 843.784 511.223 846.44 512.375 849H502.199C500.919 846.568 499.511 844.104 497.975 841.608C496.503 839.112 494.999 836.744 493.463 834.504C491.927 832.2 490.391 830.056 488.855 828.072C487.383 826.088 486.039 824.36 484.823 822.888C483.991 822.952 483.127 822.984 482.231 822.984C481.399 822.984 480.535 822.984 479.639 822.984H471.287V849H461.975V783.432C464.599 782.792 467.511 782.376 470.711 782.184C473.975 781.928 476.951 781.8 479.639 781.8C488.983 781.8 496.087 783.56 500.951 787.08C505.879 790.6 508.343 795.848 508.343 802.824C508.343 807.24 507.159 811.016 504.791 814.152C502.487 817.288 499.063 819.624 494.519 821.16ZM480.407 789.96C476.439 789.96 473.399 790.056 471.287 790.248V815.304H477.911C481.111 815.304 483.991 815.144 486.551 814.824C489.111 814.504 491.255 813.896 492.983 813C494.775 812.104 496.151 810.856 497.111 809.256C498.071 807.592 498.551 805.416 498.551 802.728C498.551 800.232 498.071 798.152 497.111 796.488C496.151 794.824 494.839 793.512 493.175 792.552C491.575 791.592 489.655 790.92 487.415 790.536C485.239 790.152 482.903 789.96 480.407 789.96ZM516.59 816.072H540.302V824.424H516.59V816.072ZM566.493 842.376C576.221 842.376 581.085 839.048 581.085 832.392C581.085 830.344 580.637 828.616 579.741 827.208C578.909 825.736 577.757 824.488 576.285 823.464C574.813 822.376 573.117 821.448 571.197 820.68C569.341 819.912 567.357 819.144 565.245 818.376C562.813 817.544 560.509 816.616 558.333 815.592C556.157 814.504 554.269 813.256 552.669 811.848C551.069 810.376 549.789 808.648 548.829 806.664C547.933 804.68 547.485 802.28 547.485 799.464C547.485 793.64 549.469 789.096 553.437 785.832C557.405 782.568 562.877 780.936 569.853 780.936C573.885 780.936 577.533 781.384 580.797 782.28C584.125 783.112 586.557 784.04 588.093 785.064L585.117 792.648C583.773 791.816 581.757 791.016 579.069 790.248C576.445 789.416 573.373 789 569.853 789C568.061 789 566.397 789.192 564.861 789.576C563.325 789.96 561.981 790.536 560.829 791.304C559.677 792.072 558.749 793.064 558.045 794.28C557.405 795.432 557.085 796.808 557.085 798.408C557.085 800.2 557.437 801.704 558.141 802.92C558.845 804.136 559.837 805.224 561.117 806.184C562.397 807.08 563.869 807.912 565.533 808.68C567.261 809.448 569.149 810.216 571.197 810.984C574.077 812.136 576.701 813.288 579.069 814.44C581.501 815.592 583.581 816.968 585.309 818.568C587.101 820.168 588.477 822.088 589.437 824.328C590.397 826.504 590.877 829.16 590.877 832.296C590.877 838.12 588.733 842.6 584.445 845.736C580.221 848.872 574.237 850.44 566.493 850.44C563.869 850.44 561.437 850.248 559.197 849.864C557.021 849.544 555.069 849.16 553.341 848.712C551.613 848.2 550.109 847.688 548.829 847.176C547.613 846.6 546.653 846.12 545.949 845.736L548.733 838.056C550.205 838.888 552.445 839.816 555.453 840.84C558.461 841.864 562.141 842.376 566.493 842.376ZM598.771 824.136C598.771 819.72 599.411 815.88 600.691 812.616C601.971 809.288 603.667 806.536 605.779 804.36C607.891 802.184 610.323 800.552 613.075 799.464C615.827 798.376 618.643 797.832 621.523 797.832C628.243 797.832 633.395 799.944 636.979 804.168C640.563 808.328 642.355 814.696 642.355 823.272C642.355 823.656 642.355 824.168 642.355 824.808C642.355 825.384 642.323 825.928 642.259 826.44H608.083C608.467 831.624 609.971 835.56 612.595 838.248C615.219 840.936 619.315 842.28 624.883 842.28C628.019 842.28 630.643 842.024 632.755 841.512C634.931 840.936 636.563 840.392 637.651 839.88L638.899 847.368C637.811 847.944 635.891 848.552 633.139 849.192C630.451 849.832 627.379 850.152 623.923 850.152C619.571 850.152 615.795 849.512 612.595 848.232C609.459 846.888 606.867 845.064 604.819 842.76C602.771 840.456 601.235 837.736 600.211 834.6C599.251 831.4 598.771 827.912 598.771 824.136ZM633.043 819.24C633.107 815.208 632.083 811.912 629.971 809.352C627.923 806.728 625.075 805.416 621.427 805.416C619.379 805.416 617.555 805.832 615.955 806.664C614.419 807.432 613.107 808.456 612.019 809.736C610.931 811.016 610.067 812.488 609.427 814.152C608.851 815.816 608.467 817.512 608.275 819.24H633.043ZM663.532 799.08H682.444V806.568H663.532V829.608C663.532 832.104 663.724 834.184 664.108 835.848C664.492 837.448 665.068 838.728 665.836 839.688C666.604 840.584 667.564 841.224 668.716 841.608C669.868 841.992 671.212 842.184 672.748 842.184C675.436 842.184 677.58 841.896 679.18 841.32C680.844 840.68 681.996 840.232 682.636 839.976L684.364 847.368C683.468 847.816 681.9 848.36 679.66 849C677.42 849.704 674.86 850.056 671.98 850.056C668.588 850.056 665.772 849.64 663.532 848.808C661.356 847.912 659.596 846.6 658.252 844.872C656.908 843.144 655.948 841.032 655.372 838.536C654.86 835.976 654.604 833.032 654.604 829.704V785.16L663.532 783.624V799.08Z" fill="#282923"/>
</svg>
