<svg width="1440" height="1080" viewBox="0 0 1440 1080" fill="none" xmlns="http://www.w3.org/2000/svg">
<rect width="1440" height="1080" fill="white"/>
<g clip-path="url(#clip0)">
<path d="M0 135H1440V945H0V135Z" fill="white"/>
<path d="M413.854 208.781L433.377 257.508L452.9 208.781H463.113V268.5H455.238V245.244L455.977 220.143L436.371 268.5H430.342L410.777 220.266L411.557 245.244V268.5H403.682V208.781H413.854ZM503.227 264.111C500.273 267.584 495.939 269.32 490.225 269.32C485.494 269.32 481.885 267.953 479.396 265.219C476.936 262.457 475.691 258.383 475.664 252.996V224.121H483.252V252.791C483.252 259.518 485.986 262.881 491.455 262.881C497.252 262.881 501.107 260.721 503.021 256.4V224.121H510.609V268.5H503.391L503.227 264.111ZM530.42 268.5H522.832V205.5H530.42V268.5ZM552.896 213.375V224.121H561.182V229.986H552.896V257.508C552.896 259.285 553.266 260.625 554.004 261.527C554.742 262.402 556 262.84 557.777 262.84C558.652 262.84 559.855 262.676 561.387 262.348V268.5C559.391 269.047 557.449 269.32 555.562 269.32C552.172 269.32 549.615 268.295 547.893 266.244C546.17 264.193 545.309 261.281 545.309 257.508V229.986H537.229V224.121H545.309V213.375H552.896ZM578.326 268.5H570.738V224.121H578.326V268.5ZM570.123 212.35C570.123 211.119 570.492 210.08 571.23 209.232C571.996 208.385 573.117 207.961 574.594 207.961C576.07 207.961 577.191 208.385 577.957 209.232C578.723 210.08 579.105 211.119 579.105 212.35C579.105 213.58 578.723 214.605 577.957 215.426C577.191 216.246 576.07 216.656 574.594 216.656C573.117 216.656 571.996 216.246 571.23 215.426C570.492 214.605 570.123 213.58 570.123 212.35ZM627.996 246.803C627.996 253.557 626.451 258.998 623.361 263.127C620.271 267.256 616.088 269.32 610.811 269.32C605.424 269.32 601.186 267.611 598.096 264.193V285.562H590.508V224.121H597.439L597.809 229.043C600.898 225.215 605.191 223.301 610.687 223.301C616.02 223.301 620.23 225.311 623.32 229.33C626.437 233.35 627.996 238.941 627.996 246.105V246.803ZM620.408 245.941C620.408 240.937 619.342 236.986 617.209 234.088C615.076 231.189 612.15 229.74 608.432 229.74C603.838 229.74 600.393 231.777 598.096 235.852V257.057C600.365 261.104 603.838 263.127 608.514 263.127C612.15 263.127 615.035 261.691 617.168 258.82C619.328 255.922 620.408 251.629 620.408 245.941ZM645.92 268.5H638.332V205.5H645.92V268.5ZM676.518 269.32C670.502 269.32 665.607 267.352 661.834 263.414C658.061 259.449 656.174 254.158 656.174 247.541V246.146C656.174 241.744 657.008 237.82 658.676 234.375C660.371 230.902 662.723 228.195 665.73 226.254C668.766 224.285 672.047 223.301 675.574 223.301C681.344 223.301 685.828 225.201 689.027 229.002C692.227 232.803 693.826 238.244 693.826 245.326V248.484H663.762C663.871 252.859 665.143 256.4 667.576 259.107C670.037 261.787 673.154 263.127 676.928 263.127C679.607 263.127 681.877 262.58 683.736 261.486C685.596 260.393 687.223 258.943 688.617 257.139L693.252 260.748C689.533 266.463 683.955 269.32 676.518 269.32ZM675.574 229.535C672.512 229.535 669.941 230.656 667.863 232.898C665.785 235.113 664.5 238.23 664.008 242.25H686.238V241.676C686.02 237.82 684.98 234.84 683.121 232.734C681.262 230.602 678.746 229.535 675.574 229.535ZM749.32 256.729C749.32 254.678 748.541 253.092 746.982 251.971C745.451 250.822 742.758 249.838 738.902 249.018C735.074 248.197 732.025 247.213 729.756 246.064C727.514 244.916 725.846 243.549 724.752 241.963C723.686 240.377 723.152 238.49 723.152 236.303C723.152 232.666 724.684 229.59 727.746 227.074C730.836 224.559 734.773 223.301 739.559 223.301C744.59 223.301 748.664 224.6 751.781 227.197C754.926 229.795 756.498 233.117 756.498 237.164H748.869C748.869 235.086 747.98 233.295 746.203 231.791C744.453 230.287 742.238 229.535 739.559 229.535C736.797 229.535 734.637 230.137 733.078 231.34C731.52 232.543 730.74 234.115 730.74 236.057C730.74 237.889 731.465 239.27 732.914 240.199C734.363 241.129 736.975 242.018 740.748 242.865C744.549 243.713 747.625 244.725 749.977 245.9C752.328 247.076 754.064 248.498 755.186 250.166C756.334 251.807 756.908 253.816 756.908 256.195C756.908 260.16 755.322 263.346 752.15 265.752C748.978 268.131 744.863 269.32 739.805 269.32C736.25 269.32 733.105 268.691 730.371 267.434C727.637 266.176 725.49 264.426 723.932 262.184C722.4 259.914 721.635 257.467 721.635 254.842H729.223C729.359 257.385 730.371 259.408 732.258 260.912C734.172 262.389 736.687 263.127 739.805 263.127C742.676 263.127 744.973 262.553 746.695 261.404C748.445 260.229 749.32 258.67 749.32 256.729ZM785.209 269.32C779.193 269.32 774.299 267.352 770.525 263.414C766.752 259.449 764.865 254.158 764.865 247.541V246.146C764.865 241.744 765.699 237.82 767.367 234.375C769.062 230.902 771.414 228.195 774.422 226.254C777.457 224.285 780.738 223.301 784.266 223.301C790.035 223.301 794.519 225.201 797.719 229.002C800.918 232.803 802.518 238.244 802.518 245.326V248.484H772.453C772.562 252.859 773.834 256.4 776.268 259.107C778.728 261.787 781.846 263.127 785.619 263.127C788.299 263.127 790.568 262.58 792.428 261.486C794.287 260.393 795.914 258.943 797.309 257.139L801.943 260.748C798.225 266.463 792.646 269.32 785.209 269.32ZM784.266 229.535C781.203 229.535 778.633 230.656 776.555 232.898C774.477 235.113 773.191 238.23 772.699 242.25H794.93V241.676C794.711 237.82 793.672 234.84 791.812 232.734C789.953 230.602 787.437 229.535 784.266 229.535ZM832.787 230.93C831.639 230.738 830.394 230.643 829.055 230.643C824.078 230.643 820.701 232.762 818.924 237V268.5H811.336V224.121H818.719L818.842 229.248C821.33 225.283 824.857 223.301 829.424 223.301C830.9 223.301 832.021 223.492 832.787 223.875V230.93ZM855.182 258.205L866.174 224.121H873.926L858.012 268.5H852.228L836.15 224.121H843.902L855.182 258.205ZM899.068 269.32C893.053 269.32 888.158 267.352 884.385 263.414C880.611 259.449 878.725 254.158 878.725 247.541V246.146C878.725 241.744 879.559 237.82 881.227 234.375C882.922 230.902 885.273 228.195 888.281 226.254C891.316 224.285 894.598 223.301 898.125 223.301C903.894 223.301 908.379 225.201 911.578 229.002C914.777 232.803 916.377 238.244 916.377 245.326V248.484H886.312C886.422 252.859 887.693 256.4 890.127 259.107C892.588 261.787 895.705 263.127 899.478 263.127C902.158 263.127 904.428 262.58 906.287 261.486C908.146 260.393 909.773 258.943 911.168 257.139L915.803 260.748C912.084 266.463 906.506 269.32 899.068 269.32ZM898.125 229.535C895.062 229.535 892.492 230.656 890.414 232.898C888.336 235.113 887.051 238.23 886.559 242.25H908.789V241.676C908.57 237.82 907.531 234.84 905.672 232.734C903.812 230.602 901.297 229.535 898.125 229.535ZM946.646 230.93C945.498 230.738 944.254 230.643 942.914 230.643C937.937 230.643 934.561 232.762 932.783 237V268.5H925.195V224.121H932.578L932.701 229.248C935.189 225.283 938.717 223.301 943.283 223.301C944.76 223.301 945.881 223.492 946.646 223.875V230.93ZM979.5 256.729C979.5 254.678 978.721 253.092 977.162 251.971C975.631 250.822 972.937 249.838 969.082 249.018C965.254 248.197 962.205 247.213 959.936 246.064C957.693 244.916 956.025 243.549 954.932 241.963C953.865 240.377 953.332 238.49 953.332 236.303C953.332 232.666 954.863 229.59 957.926 227.074C961.016 224.559 964.953 223.301 969.738 223.301C974.769 223.301 978.844 224.6 981.961 227.197C985.105 229.795 986.678 233.117 986.678 237.164H979.049C979.049 235.086 978.16 233.295 976.383 231.791C974.633 230.287 972.418 229.535 969.738 229.535C966.977 229.535 964.816 230.137 963.258 231.34C961.699 232.543 960.92 234.115 960.92 236.057C960.92 237.889 961.644 239.27 963.094 240.199C964.543 241.129 967.154 242.018 970.928 242.865C974.728 243.713 977.805 244.725 980.156 245.9C982.508 247.076 984.244 248.498 985.365 250.166C986.514 251.807 987.088 253.816 987.088 256.195C987.088 260.16 985.502 263.346 982.33 265.752C979.158 268.131 975.043 269.32 969.984 269.32C966.43 269.32 963.285 268.691 960.551 267.434C957.816 266.176 955.67 264.426 954.111 262.184C952.58 259.914 951.814 257.467 951.814 254.842H959.402C959.539 257.385 960.551 259.408 962.437 260.912C964.352 262.389 966.867 263.127 969.984 263.127C972.855 263.127 975.152 262.553 976.875 261.404C978.625 260.229 979.5 258.67 979.5 256.729Z" fill="black"/>
<path d="M713.759 931.5H711.716V917.954L707.618 919.459V917.613L713.44 915.427H713.759V931.5ZM727.69 915.493V917.218H727.316C725.734 917.247 724.474 917.716 723.537 918.624C722.599 919.532 722.057 920.81 721.911 922.458C722.753 921.491 723.903 921.008 725.361 921.008C726.752 921.008 727.862 921.499 728.689 922.48C729.524 923.462 729.942 924.729 729.942 926.281C729.942 927.929 729.491 929.248 728.591 930.237C727.697 931.225 726.496 931.72 724.987 931.72C723.456 931.72 722.215 931.134 721.263 929.962C720.311 928.783 719.834 927.267 719.834 925.414V924.634C719.834 921.689 720.461 919.441 721.713 917.888C722.973 916.328 724.844 915.53 727.327 915.493H727.69ZM725.02 922.7C724.324 922.7 723.683 922.909 723.097 923.326C722.511 923.744 722.105 924.267 721.878 924.897V925.644C721.878 926.963 722.175 928.025 722.768 928.83C723.361 929.636 724.101 930.039 724.987 930.039C725.903 930.039 726.62 929.702 727.14 929.028C727.668 928.354 727.931 927.472 727.931 926.38C727.931 925.282 727.664 924.396 727.129 923.722C726.602 923.041 725.899 922.7 725.02 922.7Z" fill="black"/>
<path d="M438.179 469.893C458.773 490.487 458.773 523.876 438.179 544.47C417.584 565.065 384.195 565.065 363.601 544.47C343.007 523.876 343.007 490.487 363.601 469.893C384.195 449.299 417.584 449.299 438.179 469.893Z" fill="#5E5E5E"/>
<path d="M438.178 469.893C458.773 490.487 458.773 523.876 438.178 544.47C417.584 565.065 384.195 565.065 363.601 544.47C343.007 523.876 343.007 490.487 363.601 469.893C384.195 449.299 417.584 449.299 438.178 469.893V469.893Z" stroke="black" stroke-width="4"/>
<path d="M398.455 510.541C398.125 513.36 397.082 515.539 395.324 517.077C393.578 518.603 391.253 519.366 388.348 519.366C385.198 519.366 382.671 518.237 380.767 515.979C378.875 513.72 377.929 510.699 377.929 506.915V504.352C377.929 501.874 378.368 499.695 379.247 497.815C380.138 495.935 381.396 494.494 383.019 493.493C384.643 492.48 386.523 491.974 388.659 491.974C391.491 491.974 393.761 492.767 395.47 494.354C397.179 495.929 398.174 498.114 398.455 500.909H394.921C394.616 498.785 393.951 497.247 392.925 496.295C391.912 495.343 390.49 494.867 388.659 494.867C386.413 494.867 384.649 495.697 383.367 497.357C382.098 499.017 381.463 501.379 381.463 504.443V507.025C381.463 509.918 382.067 512.219 383.276 513.928C384.484 515.637 386.175 516.491 388.348 516.491C390.301 516.491 391.796 516.052 392.834 515.173C393.884 514.282 394.579 512.738 394.921 510.541H398.455ZM419.109 507.629C419.109 511.596 418.432 514.544 417.077 516.473C415.722 518.402 413.604 519.366 410.723 519.366C407.879 519.366 405.773 518.426 404.406 516.546C403.039 514.654 402.331 511.834 402.282 508.087V503.564C402.282 499.646 402.959 496.734 404.314 494.83C405.669 492.926 407.793 491.974 410.687 491.974C413.555 491.974 415.667 492.895 417.022 494.739C418.377 496.57 419.073 499.402 419.109 503.235V507.629ZM415.722 502.997C415.722 500.128 415.319 498.041 414.513 496.734C413.708 495.416 412.432 494.757 410.687 494.757C408.953 494.757 407.69 495.41 406.896 496.716C406.103 498.022 405.694 500.03 405.669 502.74V508.16C405.669 511.041 406.084 513.171 406.915 514.551C407.757 515.918 409.026 516.601 410.723 516.601C412.396 516.601 413.635 515.954 414.44 514.66C415.258 513.366 415.685 511.328 415.722 508.545V502.997Z" fill="white"/>
<path d="M942.995 352.668H1025.23C1032.16 352.668 1035.68 352.668 1039.42 353.853C1043.51 355.343 1046.73 358.566 1048.22 362.659C1049.41 366.398 1049.41 369.919 1049.41 376.96V454.982C1049.41 461.916 1049.41 465.436 1048.22 469.176C1046.73 473.268 1043.51 476.491 1039.42 477.981C1035.68 479.166 1032.16 479.166 1025.12 479.166H942.995C936.061 479.166 932.541 479.166 928.801 477.981C924.709 476.491 921.486 473.268 919.996 469.176C918.811 465.436 918.811 461.916 918.811 454.875V376.852C918.811 369.919 918.811 366.398 919.996 362.659C921.486 358.566 924.709 355.343 928.801 353.853C932.541 352.668 936.061 352.668 943.102 352.668H942.995Z" fill="#5E5E5E"/>
<path d="M942.995 352.668H1025.23C1032.16 352.668 1035.68 352.668 1039.42 353.853C1043.51 355.343 1046.73 358.566 1048.22 362.658C1049.41 366.398 1049.41 369.918 1049.41 376.959V454.982C1049.41 461.915 1049.41 465.436 1048.22 469.175C1046.73 473.268 1043.51 476.491 1039.42 477.981C1035.68 479.166 1032.16 479.166 1025.12 479.166H942.995C936.062 479.166 932.541 479.166 928.802 477.981C924.71 476.491 921.486 473.268 919.997 469.175C918.811 465.436 918.811 461.915 918.811 454.874V376.852C918.811 369.918 918.811 366.398 919.997 362.658C921.486 358.566 924.71 355.343 928.802 353.853C932.541 352.668 936.062 352.668 943.103 352.668H942.995Z" stroke="black" stroke-width="4"/>
<path d="M973.2 393.866C970.184 393 967.987 391.938 966.608 390.68C965.241 389.411 964.557 387.848 964.557 385.993C964.557 383.893 965.393 382.16 967.066 380.793C968.75 379.413 970.935 378.724 973.621 378.724C975.452 378.724 977.081 379.078 978.51 379.786C979.95 380.494 981.061 381.47 981.842 382.715C982.636 383.96 983.032 385.322 983.032 386.799H979.498C979.498 385.187 978.986 383.924 977.96 383.008C976.935 382.081 975.488 381.617 973.621 381.617C971.887 381.617 970.532 382.001 969.556 382.77C968.591 383.527 968.109 384.583 968.109 385.938C968.109 387.024 968.567 387.946 969.483 388.703C970.41 389.448 971.979 390.131 974.188 390.754C976.41 391.376 978.143 392.066 979.389 392.823C980.646 393.567 981.574 394.44 982.172 395.441C982.782 396.442 983.087 397.62 983.087 398.975C983.087 401.136 982.245 402.869 980.56 404.175C978.876 405.469 976.624 406.116 973.804 406.116C971.973 406.116 970.264 405.768 968.677 405.073C967.09 404.364 965.863 403.4 964.996 402.179C964.142 400.959 963.715 399.573 963.715 398.023H967.249C967.249 399.634 967.841 400.91 969.025 401.85C970.221 402.778 971.814 403.241 973.804 403.241C975.659 403.241 977.081 402.863 978.07 402.106C979.059 401.349 979.553 400.318 979.553 399.012C979.553 397.706 979.096 396.698 978.18 395.99C977.265 395.27 975.604 394.562 973.2 393.866ZM1003.45 394.379C1003.45 398.346 1002.77 401.294 1001.42 403.223C1000.06 405.152 997.943 406.116 995.062 406.116C992.218 406.116 990.112 405.176 988.745 403.296C987.378 401.404 986.67 398.584 986.621 394.837V390.314C986.621 386.396 987.299 383.484 988.654 381.58C990.009 379.676 992.133 378.724 995.026 378.724C997.894 378.724 1000.01 379.645 1001.36 381.489C1002.72 383.32 1003.41 386.152 1003.45 389.985V394.379ZM1000.06 389.747C1000.06 386.878 999.658 384.791 998.853 383.484C998.047 382.166 996.771 381.507 995.026 381.507C993.292 381.507 992.029 382.16 991.235 383.466C990.442 384.772 990.033 386.78 990.009 389.49V394.91C990.009 397.791 990.424 399.921 991.254 401.301C992.096 402.668 993.366 403.351 995.062 403.351C996.735 403.351 997.974 402.704 998.779 401.41C999.597 400.116 1000.02 398.078 1000.06 395.295V389.747Z" fill="white"/>
<path d="M965.708 422.827H1002.51V459.818H965.708V422.827Z" fill="white"/>
<path d="M965.708 422.827H1002.51V459.818H965.708V422.827Z" stroke="black" stroke-width="2"/>
<path d="M942.995 542.615H1025.23C1032.16 542.615 1035.68 542.615 1039.42 543.8C1043.51 545.289 1046.73 548.513 1048.22 552.605C1049.41 556.345 1049.41 559.865 1049.41 566.906V644.929C1049.41 651.862 1049.41 655.383 1048.22 659.122C1046.73 663.215 1043.51 666.438 1039.42 667.928C1035.68 669.113 1032.16 669.113 1025.12 669.113H942.995C936.061 669.113 932.541 669.113 928.801 667.928C924.709 666.438 921.486 663.215 919.996 659.122C918.811 655.383 918.811 651.862 918.811 644.821V566.799C918.811 559.865 918.811 556.345 919.996 552.605C921.486 548.513 924.709 545.289 928.801 543.8C932.541 542.615 936.061 542.615 943.102 542.615H942.995Z" fill="#5E5E5E"/>
<path d="M942.995 542.615H1025.23C1032.16 542.615 1035.68 542.615 1039.42 543.8C1043.51 545.289 1046.73 548.513 1048.22 552.605C1049.41 556.345 1049.41 559.865 1049.41 566.906V644.929C1049.41 651.862 1049.41 655.383 1048.22 659.122C1046.73 663.214 1043.51 666.438 1039.42 667.928C1035.68 669.113 1032.16 669.113 1025.12 669.113H942.995C936.062 669.113 932.541 669.113 928.802 667.928C924.71 666.438 921.486 663.214 919.997 659.122C918.811 655.383 918.811 651.862 918.811 644.821V566.799C918.811 559.865 918.811 556.345 919.997 552.605C921.486 548.513 924.71 545.289 928.802 543.8C932.541 542.615 936.062 542.615 943.103 542.615H942.995Z" stroke="black" stroke-width="4"/>
<path d="M973.2 584.366C970.184 583.5 967.987 582.438 966.608 581.18C965.241 579.911 964.557 578.348 964.557 576.493C964.557 574.393 965.393 572.66 967.066 571.293C968.75 569.913 970.935 569.224 973.621 569.224C975.452 569.224 977.081 569.578 978.51 570.286C979.95 570.994 981.061 571.97 981.842 573.215C982.636 574.46 983.032 575.822 983.032 577.299H979.498C979.498 575.687 978.986 574.424 977.96 573.508C976.935 572.581 975.488 572.117 973.621 572.117C971.887 572.117 970.532 572.501 969.556 573.27C968.591 574.027 968.109 575.083 968.109 576.438C968.109 577.524 968.567 578.446 969.483 579.203C970.41 579.948 971.979 580.631 974.188 581.254C976.41 581.876 978.143 582.566 979.389 583.323C980.646 584.067 981.574 584.94 982.172 585.941C982.782 586.942 983.087 588.12 983.087 589.475C983.087 591.636 982.245 593.369 980.56 594.675C978.876 595.969 976.624 596.616 973.804 596.616C971.973 596.616 970.264 596.268 968.677 595.573C967.09 594.864 965.863 593.9 964.996 592.679C964.142 591.459 963.715 590.073 963.715 588.523H967.249C967.249 590.134 967.841 591.41 969.025 592.35C970.221 593.278 971.814 593.741 973.804 593.741C975.659 593.741 977.081 593.363 978.07 592.606C979.059 591.849 979.553 590.818 979.553 589.512C979.553 588.206 979.096 587.198 978.18 586.49C977.265 585.77 975.604 585.062 973.2 584.366ZM997.864 596.25H994.458V573.673L987.628 576.182V573.105L997.333 569.462H997.864V596.25Z" fill="white"/>
<path d="M965.708 612.773H1002.51V649.765H965.708V612.773Z" fill="white"/>
<path d="M965.708 612.773H1002.51V649.765H965.708V612.773Z" stroke="black" stroke-width="2"/>
<path d="M942.995 732.561H1025.23C1032.16 732.561 1035.68 732.561 1039.42 733.746C1043.51 735.236 1046.73 738.459 1048.22 742.552C1049.41 746.291 1049.41 749.812 1049.41 756.853V834.875C1049.41 841.809 1049.41 845.329 1048.22 849.069C1046.73 853.161 1043.51 856.385 1039.42 857.874C1035.68 859.059 1032.16 859.059 1025.12 859.059H942.995C936.061 859.059 932.541 859.059 928.801 857.874C924.709 856.385 921.486 853.161 919.996 849.069C918.811 845.329 918.811 841.809 918.811 834.768V756.745C918.811 749.812 918.811 746.291 919.996 742.552C921.486 738.459 924.709 735.236 928.801 733.746C932.541 732.561 936.061 732.561 943.102 732.561H942.995Z" fill="#5E5E5E"/>
<path d="M942.995 732.561H1025.23C1032.16 732.561 1035.68 732.561 1039.42 733.746C1043.51 735.236 1046.73 738.459 1048.22 742.551C1049.41 746.291 1049.41 749.812 1049.41 756.853V834.875C1049.41 841.808 1049.41 845.329 1048.22 849.069C1046.73 853.161 1043.51 856.384 1039.42 857.874C1035.68 859.059 1032.16 859.059 1025.12 859.059H942.995C936.062 859.059 932.541 859.059 928.802 857.874C924.71 856.384 921.486 853.161 919.997 849.069C918.811 845.329 918.811 841.809 918.811 834.768V756.745C918.811 749.812 918.811 746.291 919.997 742.551C921.486 738.459 924.71 735.236 928.802 733.746C932.541 732.561 936.062 732.561 943.103 732.561H942.995Z" stroke="black" stroke-width="4"/>
<path d="M973.2 774.116C970.184 773.25 967.987 772.188 966.608 770.93C965.241 769.661 964.557 768.098 964.557 766.243C964.557 764.143 965.393 762.41 967.066 761.043C968.75 759.663 970.935 758.974 973.621 758.974C975.452 758.974 977.081 759.328 978.51 760.036C979.95 760.744 981.061 761.72 981.842 762.965C982.636 764.21 983.032 765.572 983.032 767.049H979.498C979.498 765.437 978.986 764.174 977.96 763.258C976.935 762.331 975.488 761.867 973.621 761.867C971.887 761.867 970.532 762.251 969.556 763.02C968.591 763.777 968.109 764.833 968.109 766.188C968.109 767.274 968.567 768.196 969.483 768.953C970.41 769.698 971.979 770.381 974.188 771.004C976.41 771.626 978.143 772.316 979.389 773.073C980.646 773.817 981.574 774.69 982.172 775.691C982.782 776.692 983.087 777.87 983.087 779.225C983.087 781.386 982.245 783.119 980.56 784.425C978.876 785.719 976.624 786.366 973.804 786.366C971.973 786.366 970.264 786.018 968.677 785.323C967.09 784.614 965.863 783.65 964.996 782.429C964.142 781.209 963.715 779.823 963.715 778.273H967.249C967.249 779.884 967.841 781.16 969.025 782.1C970.221 783.028 971.814 783.491 973.804 783.491C975.659 783.491 977.081 783.113 978.07 782.356C979.059 781.599 979.553 780.568 979.553 779.262C979.553 777.956 979.096 776.948 978.18 776.24C977.265 775.52 975.604 774.812 973.2 774.116ZM1004.2 786H986.731V783.565L995.96 773.311C997.327 771.76 998.267 770.503 998.779 769.539C999.304 768.562 999.567 767.555 999.567 766.518C999.567 765.126 999.146 763.985 998.303 763.094C997.461 762.202 996.338 761.757 994.934 761.757C993.25 761.757 991.937 762.239 990.997 763.203C990.07 764.156 989.606 765.486 989.606 767.195H986.218C986.218 764.741 987.006 762.758 988.58 761.244C990.167 759.73 992.285 758.974 994.934 758.974C997.412 758.974 999.371 759.627 1000.81 760.933C1002.25 762.227 1002.97 763.954 1002.97 766.115C1002.97 768.739 1001.3 771.864 997.955 775.49L990.814 783.235H1004.2V786Z" fill="white"/>
<path d="M965.708 802.72H1002.51V839.711H965.708V802.72Z" fill="white"/>
<path d="M965.708 802.72H1002.51V839.711H965.708V802.72Z" stroke="black" stroke-width="2"/>
<path d="M475.833 470.402L869.794 417.591L871.281 417.392" stroke="black" stroke-width="4"/>
<path d="M870.631 423.835L882.283 415.917L868.957 411.347L870.631 423.835Z" fill="black"/>
<path d="M473.919 522.612L872.055 619.856L873.512 620.212" stroke="black" stroke-width="4"/>
<path d="M870.559 625.977L884.295 622.846L873.55 613.736L870.559 625.977Z" fill="black"/>
<path d="M447.318 568.876L873.02 781.282L874.363 781.952" stroke="black" stroke-width="4"/>
<path d="M870.208 786.919L884.295 786.908L875.833 775.645L870.208 786.919Z" fill="black"/>
<path d="M597.293 403.487V410.1H593.426V391.331H600.748C602.157 391.331 603.395 391.589 604.46 392.105C605.534 392.62 606.359 393.355 606.935 394.309C607.511 395.254 607.799 396.333 607.799 397.545C607.799 399.384 607.167 400.836 605.904 401.902C604.649 402.959 602.909 403.487 600.683 403.487H597.293ZM597.293 400.355H600.748C601.77 400.355 602.548 400.114 603.081 399.633C603.622 399.152 603.893 398.464 603.893 397.57C603.893 396.651 603.622 395.908 603.081 395.34C602.539 394.773 601.792 394.481 600.838 394.464H597.293V400.355ZM617.415 403.229H614.334V410.1H610.467V391.331H617.441C619.658 391.331 621.368 391.825 622.571 392.814C623.775 393.802 624.376 395.199 624.376 397.003C624.376 398.284 624.097 399.354 623.538 400.213C622.988 401.064 622.15 401.743 621.025 402.25L625.085 409.92V410.1H620.934L617.415 403.229ZM614.334 400.097H617.454C618.425 400.097 619.177 399.852 619.71 399.362C620.243 398.864 620.509 398.181 620.509 397.313C620.509 396.427 620.255 395.731 619.748 395.224C619.25 394.717 618.481 394.464 617.441 394.464H614.334V400.097ZM642.745 401.141C642.745 402.989 642.419 404.609 641.766 406.001C641.112 407.393 640.176 408.467 638.955 409.224C637.744 409.98 636.352 410.358 634.779 410.358C633.223 410.358 631.836 409.984 630.615 409.236C629.395 408.489 628.45 407.423 627.779 406.04C627.109 404.647 626.77 403.049 626.761 401.244V400.316C626.761 398.468 627.092 396.844 627.754 395.443C628.424 394.034 629.365 392.956 630.577 392.208C631.797 391.452 633.189 391.074 634.753 391.074C636.317 391.074 637.705 391.452 638.917 392.208C640.137 392.956 641.078 394.034 641.74 395.443C642.41 396.844 642.745 398.464 642.745 400.303V401.141ZM638.827 400.29C638.827 398.322 638.474 396.827 637.77 395.804C637.065 394.782 636.059 394.27 634.753 394.27C633.455 394.27 632.454 394.777 631.75 395.792C631.045 396.797 630.688 398.275 630.68 400.226V401.141C630.68 403.058 631.032 404.544 631.737 405.601C632.441 406.658 633.455 407.187 634.779 407.187C636.077 407.187 637.073 406.68 637.77 405.666C638.466 404.643 638.818 403.156 638.827 401.206V400.29ZM649.423 403.487V410.1H645.555V391.331H652.877C654.287 391.331 655.524 391.589 656.59 392.105C657.664 392.62 658.489 393.355 659.065 394.309C659.641 395.254 659.929 396.333 659.929 397.545C659.929 399.384 659.297 400.836 658.034 401.902C656.779 402.959 655.039 403.487 652.813 403.487H649.423ZM649.423 400.355H652.877C653.9 400.355 654.678 400.114 655.211 399.633C655.752 399.152 656.023 398.464 656.023 397.57C656.023 396.651 655.752 395.908 655.211 395.34C654.669 394.773 653.921 394.481 652.968 394.464H649.423V400.355ZM678.014 401.141C678.014 402.989 677.687 404.609 677.034 406.001C676.381 407.393 675.445 408.467 674.224 409.224C673.012 409.98 671.62 410.358 670.048 410.358C668.492 410.358 667.104 409.984 665.884 409.236C664.664 408.489 663.718 407.423 663.048 406.04C662.378 404.647 662.038 403.049 662.03 401.244V400.316C662.03 398.468 662.361 396.844 663.022 395.443C663.693 394.034 664.634 392.956 665.845 392.208C667.066 391.452 668.458 391.074 670.022 391.074C671.586 391.074 672.974 391.452 674.186 392.208C675.406 392.956 676.347 394.034 677.009 395.443C677.679 396.844 678.014 398.464 678.014 400.303V401.141ZM674.095 400.29C674.095 398.322 673.743 396.827 673.038 395.804C672.334 394.782 671.328 394.27 670.022 394.27C668.724 394.27 667.723 394.777 667.018 395.792C666.314 396.797 665.957 398.275 665.948 400.226V401.141C665.948 403.058 666.301 404.544 667.005 405.601C667.71 406.658 668.724 407.187 670.048 407.187C671.345 407.187 672.342 406.68 673.038 405.666C673.734 404.643 674.087 403.156 674.095 401.206V400.29ZM690.557 405.176C690.557 404.445 690.299 403.887 689.783 403.5C689.268 403.105 688.339 402.692 686.999 402.263C685.658 401.824 684.597 401.395 683.815 400.974C681.684 399.822 680.618 398.271 680.618 396.32C680.618 395.306 680.902 394.404 681.469 393.613C682.045 392.814 682.865 392.191 683.931 391.744C685.005 391.297 686.208 391.074 687.54 391.074C688.881 391.074 690.075 391.318 691.124 391.808C692.172 392.29 692.984 392.973 693.56 393.858C694.145 394.743 694.437 395.749 694.437 396.874H690.57C690.57 396.015 690.299 395.349 689.757 394.876C689.216 394.395 688.455 394.154 687.476 394.154C686.53 394.154 685.796 394.356 685.271 394.76C684.747 395.156 684.485 395.68 684.485 396.333C684.485 396.943 684.79 397.454 685.4 397.867C686.019 398.279 686.926 398.666 688.12 399.027C690.32 399.689 691.923 400.509 692.929 401.489C693.934 402.469 694.437 403.689 694.437 405.15C694.437 406.774 693.822 408.05 692.593 408.979C691.364 409.898 689.71 410.358 687.63 410.358C686.187 410.358 684.872 410.096 683.686 409.572C682.5 409.039 681.593 408.313 680.966 407.393C680.347 406.474 680.038 405.408 680.038 404.196H683.918C683.918 406.267 685.155 407.303 687.63 407.303C688.55 407.303 689.268 407.118 689.783 406.749C690.299 406.37 690.557 405.846 690.557 405.176ZM708.359 401.966H700.934V406.993H709.648V410.1H697.066V391.331H709.622V394.464H700.934V398.937H708.359V401.966Z" fill="black"/>
<path d="M718.748 399.961C718.748 397.501 719.076 395.159 719.731 392.936C720.387 390.712 721.353 388.746 722.632 387.038C723.91 385.319 725.296 384.127 726.789 383.461L727.691 385.975C726.123 387.135 724.898 388.929 724.017 391.356C723.137 393.784 722.696 396.62 722.696 399.864V400.364C722.696 403.619 723.131 406.465 724.001 408.904C724.871 411.342 726.101 413.163 727.691 414.366L726.789 416.832C725.328 416.176 723.964 415.016 722.696 413.351C721.439 411.697 720.478 409.785 719.812 407.615C719.146 405.445 718.791 403.178 718.748 400.815V399.961ZM743.692 404.666H735.216L733.605 409.5H728.465L737.198 386.039H741.678L750.459 409.5H745.319L743.692 404.666ZM736.521 400.75H742.387L739.438 391.969L736.521 400.75ZM760.369 400.332C760.369 402.759 760.02 405.096 759.322 407.341C758.623 409.586 757.619 411.568 756.308 413.287C754.998 415.005 753.596 416.187 752.103 416.832L751.201 414.366C752.726 413.217 753.929 411.444 754.81 409.049C755.691 406.653 756.147 403.898 756.18 400.783V399.929C756.18 396.717 755.739 393.886 754.858 391.437C753.988 388.988 752.769 387.151 751.201 385.926L752.103 383.461C753.564 384.095 754.939 385.244 756.228 386.909C757.528 388.574 758.532 390.513 759.241 392.726C759.961 394.939 760.337 397.232 760.369 399.606V400.332Z" fill="black"/>
<path d="M987.34 447.416H978.864L977.253 452.25H972.113L980.846 428.789H985.326L994.107 452.25H988.967L987.34 447.416ZM980.169 443.5H986.035L983.086 434.719L980.169 443.5Z" fill="black"/>
<path d="M987.34 636.416H978.864L977.253 641.25H972.113L980.846 617.789H985.326L994.107 641.25H988.967L987.34 636.416ZM980.169 632.5H986.035L983.086 623.719L980.169 632.5Z" fill="black"/>
<path d="M987.34 826.916H978.864L977.253 831.75H972.113L980.846 808.289H985.326L994.107 831.75H988.967L987.34 826.916ZM980.169 823H986.035L983.086 814.219L980.169 823Z" fill="black"/>
<path d="M674.543 544.487V551.1H670.676V532.331H677.998C679.407 532.331 680.645 532.589 681.71 533.105C682.784 533.62 683.609 534.355 684.185 535.309C684.761 536.254 685.049 537.333 685.049 538.545C685.049 540.384 684.417 541.836 683.154 542.902C681.899 543.959 680.159 544.487 677.933 544.487H674.543ZM674.543 541.355H677.998C679.02 541.355 679.798 541.114 680.331 540.633C680.872 540.152 681.143 539.464 681.143 538.57C681.143 537.651 680.872 536.908 680.331 536.34C679.789 535.773 679.042 535.481 678.088 535.464H674.543V541.355ZM694.665 544.229H691.584V551.1H687.717V532.331H694.691C696.908 532.331 698.618 532.825 699.821 533.814C701.025 534.802 701.626 536.199 701.626 538.003C701.626 539.284 701.347 540.354 700.788 541.213C700.238 542.064 699.4 542.743 698.275 543.25L702.335 550.92V551.1H698.184L694.665 544.229ZM691.584 541.097H694.704C695.675 541.097 696.427 540.852 696.96 540.362C697.493 539.864 697.759 539.181 697.759 538.313C697.759 537.427 697.505 536.731 696.998 536.224C696.5 535.717 695.731 535.464 694.691 535.464H691.584V541.097ZM719.995 542.141C719.995 543.989 719.669 545.609 719.016 547.001C718.362 548.393 717.426 549.467 716.205 550.224C714.994 550.98 713.602 551.358 712.029 551.358C710.473 551.358 709.086 550.984 707.865 550.236C706.645 549.489 705.7 548.423 705.029 547.04C704.359 545.647 704.02 544.049 704.011 542.244V541.316C704.011 539.468 704.342 537.844 705.004 536.443C705.674 535.034 706.615 533.956 707.827 533.208C709.047 532.452 710.439 532.074 712.003 532.074C713.567 532.074 714.955 532.452 716.167 533.208C717.387 533.956 718.328 535.034 718.99 536.443C719.66 537.844 719.995 539.464 719.995 541.303V542.141ZM716.077 541.29C716.077 539.322 715.724 537.827 715.02 536.804C714.315 535.782 713.309 535.27 712.003 535.27C710.705 535.27 709.704 535.777 709 536.792C708.295 537.797 707.938 539.275 707.93 541.226V542.141C707.93 544.058 708.282 545.544 708.987 546.601C709.691 547.658 710.705 548.187 712.029 548.187C713.327 548.187 714.323 547.68 715.02 546.666C715.716 545.643 716.068 544.156 716.077 542.206V541.29ZM726.673 544.487V551.1H722.805V532.331H730.127C731.537 532.331 732.774 532.589 733.84 533.105C734.914 533.62 735.739 534.355 736.315 535.309C736.891 536.254 737.179 537.333 737.179 538.545C737.179 540.384 736.547 541.836 735.284 542.902C734.029 543.959 732.289 544.487 730.063 544.487H726.673ZM726.673 541.355H730.127C731.15 541.355 731.928 541.114 732.461 540.633C733.002 540.152 733.273 539.464 733.273 538.57C733.273 537.651 733.002 536.908 732.461 536.34C731.919 535.773 731.171 535.481 730.218 535.464H726.673V541.355ZM755.264 542.141C755.264 543.989 754.937 545.609 754.284 547.001C753.631 548.393 752.695 549.467 751.474 550.224C750.262 550.98 748.87 551.358 747.298 551.358C745.742 551.358 744.354 550.984 743.134 550.236C741.914 549.489 740.968 548.423 740.298 547.04C739.628 545.647 739.288 544.049 739.28 542.244V541.316C739.28 539.468 739.611 537.844 740.272 536.443C740.943 535.034 741.884 533.956 743.095 533.208C744.316 532.452 745.708 532.074 747.272 532.074C748.836 532.074 750.224 532.452 751.436 533.208C752.656 533.956 753.597 535.034 754.259 536.443C754.929 537.844 755.264 539.464 755.264 541.303V542.141ZM751.345 541.29C751.345 539.322 750.993 537.827 750.288 536.804C749.584 535.782 748.578 535.27 747.272 535.27C745.974 535.27 744.973 535.777 744.268 536.792C743.564 537.797 743.207 539.275 743.198 541.226V542.141C743.198 544.058 743.551 545.544 744.255 546.601C744.96 547.658 745.974 548.187 747.298 548.187C748.595 548.187 749.592 547.68 750.288 546.666C750.984 545.643 751.337 544.156 751.345 542.206V541.29ZM767.807 546.176C767.807 545.445 767.549 544.887 767.033 544.5C766.518 544.105 765.589 543.692 764.249 543.263C762.908 542.824 761.847 542.395 761.065 541.974C758.934 540.822 757.868 539.271 757.868 537.32C757.868 536.306 758.152 535.404 758.719 534.613C759.295 533.814 760.115 533.191 761.181 532.744C762.255 532.297 763.458 532.074 764.79 532.074C766.131 532.074 767.325 532.318 768.374 532.808C769.422 533.29 770.234 533.973 770.81 534.858C771.395 535.743 771.687 536.749 771.687 537.874H767.82C767.82 537.015 767.549 536.349 767.007 535.876C766.466 535.395 765.705 535.154 764.726 535.154C763.78 535.154 763.046 535.356 762.521 535.76C761.997 536.156 761.735 536.68 761.735 537.333C761.735 537.943 762.04 538.454 762.65 538.867C763.269 539.279 764.176 539.666 765.37 540.027C767.57 540.689 769.173 541.509 770.179 542.489C771.184 543.469 771.687 544.689 771.687 546.15C771.687 547.774 771.072 549.05 769.843 549.979C768.614 550.898 766.96 551.358 764.88 551.358C763.437 551.358 762.122 551.096 760.936 550.572C759.75 550.039 758.843 549.313 758.216 548.393C757.597 547.474 757.288 546.408 757.288 545.196H761.168C761.168 547.267 762.405 548.303 764.88 548.303C765.8 548.303 766.518 548.118 767.033 547.749C767.549 547.37 767.807 546.846 767.807 546.176ZM785.609 542.966H778.184V547.993H786.898V551.1H774.316V532.331H786.872V535.464H778.184V539.937H785.609V542.966Z" fill="black"/>
<path d="M795.998 540.961C795.998 538.501 796.326 536.159 796.981 533.936C797.637 531.712 798.603 529.746 799.882 528.038C801.16 526.319 802.546 525.127 804.039 524.461L804.941 526.975C803.373 528.135 802.148 529.929 801.267 532.356C800.387 534.784 799.946 537.62 799.946 540.864V541.364C799.946 544.619 800.381 547.465 801.251 549.904C802.121 552.342 803.351 554.163 804.941 555.366L804.039 557.832C802.578 557.176 801.214 556.016 799.946 554.351C798.689 552.697 797.728 550.785 797.062 548.615C796.396 546.445 796.041 544.178 795.998 541.815V540.961ZM820.942 545.666H812.466L810.855 550.5H805.715L814.448 527.039H818.928L827.709 550.5H822.569L820.942 545.666ZM813.771 541.75H819.637L816.688 532.969L813.771 541.75ZM837.619 541.332C837.619 543.759 837.27 546.096 836.572 548.341C835.873 550.586 834.869 552.568 833.558 554.287C832.248 556.005 830.846 557.187 829.353 557.832L828.451 555.366C829.976 554.217 831.179 552.444 832.06 550.049C832.941 547.653 833.397 544.898 833.43 541.783V540.929C833.43 537.717 832.989 534.886 832.108 532.437C831.238 529.988 830.019 528.151 828.451 526.926L829.353 524.461C830.814 525.095 832.189 526.244 833.478 527.909C834.778 529.574 835.782 531.513 836.491 533.726C837.211 535.939 837.587 538.232 837.619 540.606V541.332Z" fill="black"/>
<path d="M597.293 752.237V758.85H593.426V740.081H600.748C602.157 740.081 603.395 740.339 604.46 740.855C605.534 741.37 606.359 742.105 606.935 743.059C607.511 744.004 607.799 745.083 607.799 746.295C607.799 748.134 607.167 749.586 605.904 750.652C604.649 751.709 602.909 752.237 600.683 752.237H597.293ZM597.293 749.105H600.748C601.77 749.105 602.548 748.864 603.081 748.383C603.622 747.902 603.893 747.214 603.893 746.32C603.893 745.401 603.622 744.658 603.081 744.09C602.539 743.523 601.792 743.231 600.838 743.214H597.293V749.105ZM617.415 751.979H614.334V758.85H610.467V740.081H617.441C619.658 740.081 621.368 740.575 622.571 741.564C623.775 742.552 624.376 743.949 624.376 745.753C624.376 747.034 624.097 748.104 623.538 748.963C622.988 749.814 622.15 750.493 621.025 751L625.085 758.67V758.85H620.934L617.415 751.979ZM614.334 748.847H617.454C618.425 748.847 619.177 748.602 619.71 748.112C620.243 747.614 620.509 746.931 620.509 746.063C620.509 745.177 620.255 744.481 619.748 743.974C619.25 743.467 618.481 743.214 617.441 743.214H614.334V748.847ZM642.745 749.891C642.745 751.739 642.419 753.359 641.766 754.751C641.112 756.143 640.176 757.217 638.955 757.974C637.744 758.73 636.352 759.108 634.779 759.108C633.223 759.108 631.836 758.734 630.615 757.986C629.395 757.239 628.45 756.173 627.779 754.79C627.109 753.397 626.77 751.799 626.761 749.994V749.066C626.761 747.218 627.092 745.594 627.754 744.193C628.424 742.784 629.365 741.706 630.577 740.958C631.797 740.202 633.189 739.824 634.753 739.824C636.317 739.824 637.705 740.202 638.917 740.958C640.137 741.706 641.078 742.784 641.74 744.193C642.41 745.594 642.745 747.214 642.745 749.053V749.891ZM638.827 749.04C638.827 747.072 638.474 745.577 637.77 744.554C637.065 743.532 636.059 743.02 634.753 743.02C633.455 743.02 632.454 743.527 631.75 744.542C631.045 745.547 630.688 747.025 630.68 748.976V749.891C630.68 751.808 631.032 753.294 631.737 754.351C632.441 755.408 633.455 755.937 634.779 755.937C636.077 755.937 637.073 755.43 637.77 754.416C638.466 753.393 638.818 751.906 638.827 749.956V749.04ZM649.423 752.237V758.85H645.555V740.081H652.877C654.287 740.081 655.524 740.339 656.59 740.855C657.664 741.37 658.489 742.105 659.065 743.059C659.641 744.004 659.929 745.083 659.929 746.295C659.929 748.134 659.297 749.586 658.034 750.652C656.779 751.709 655.039 752.237 652.813 752.237H649.423ZM649.423 749.105H652.877C653.9 749.105 654.678 748.864 655.211 748.383C655.752 747.902 656.023 747.214 656.023 746.32C656.023 745.401 655.752 744.658 655.211 744.09C654.669 743.523 653.921 743.231 652.968 743.214H649.423V749.105ZM678.014 749.891C678.014 751.739 677.687 753.359 677.034 754.751C676.381 756.143 675.445 757.217 674.224 757.974C673.012 758.73 671.62 759.108 670.048 759.108C668.492 759.108 667.104 758.734 665.884 757.986C664.664 757.239 663.718 756.173 663.048 754.79C662.378 753.397 662.038 751.799 662.03 749.994V749.066C662.03 747.218 662.361 745.594 663.022 744.193C663.693 742.784 664.634 741.706 665.845 740.958C667.066 740.202 668.458 739.824 670.022 739.824C671.586 739.824 672.974 740.202 674.186 740.958C675.406 741.706 676.347 742.784 677.009 744.193C677.679 745.594 678.014 747.214 678.014 749.053V749.891ZM674.095 749.04C674.095 747.072 673.743 745.577 673.038 744.554C672.334 743.532 671.328 743.02 670.022 743.02C668.724 743.02 667.723 743.527 667.018 744.542C666.314 745.547 665.957 747.025 665.948 748.976V749.891C665.948 751.808 666.301 753.294 667.005 754.351C667.71 755.408 668.724 755.937 670.048 755.937C671.345 755.937 672.342 755.43 673.038 754.416C673.734 753.393 674.087 751.906 674.095 749.956V749.04ZM690.557 753.926C690.557 753.195 690.299 752.637 689.783 752.25C689.268 751.855 688.339 751.442 686.999 751.013C685.658 750.574 684.597 750.145 683.815 749.724C681.684 748.572 680.618 747.021 680.618 745.07C680.618 744.056 680.902 743.154 681.469 742.363C682.045 741.564 682.865 740.941 683.931 740.494C685.005 740.047 686.208 739.824 687.54 739.824C688.881 739.824 690.075 740.068 691.124 740.558C692.172 741.04 692.984 741.723 693.56 742.608C694.145 743.493 694.437 744.499 694.437 745.624H690.57C690.57 744.765 690.299 744.099 689.757 743.626C689.216 743.145 688.455 742.904 687.476 742.904C686.53 742.904 685.796 743.106 685.271 743.51C684.747 743.906 684.485 744.43 684.485 745.083C684.485 745.693 684.79 746.204 685.4 746.617C686.019 747.029 686.926 747.416 688.12 747.777C690.32 748.439 691.923 749.259 692.929 750.239C693.934 751.219 694.437 752.439 694.437 753.9C694.437 755.524 693.822 756.8 692.593 757.729C691.364 758.648 689.71 759.108 687.63 759.108C686.187 759.108 684.872 758.846 683.686 758.322C682.5 757.789 681.593 757.063 680.966 756.143C680.347 755.224 680.038 754.158 680.038 752.946H683.918C683.918 755.017 685.155 756.053 687.63 756.053C688.55 756.053 689.268 755.868 689.783 755.499C690.299 755.12 690.557 754.596 690.557 753.926ZM708.359 750.716H700.934V755.743H709.648V758.85H697.066V740.081H709.622V743.214H700.934V747.687H708.359V750.716Z" fill="black"/>
<path d="M718.748 748.711C718.748 746.251 719.076 743.909 719.731 741.686C720.387 739.462 721.353 737.496 722.632 735.788C723.91 734.069 725.296 732.877 726.789 732.211L727.691 734.725C726.123 735.885 724.898 737.679 724.017 740.106C723.137 742.534 722.696 745.37 722.696 748.614V749.114C722.696 752.369 723.131 755.215 724.001 757.654C724.871 760.092 726.101 761.913 727.691 763.116L726.789 765.582C725.328 764.926 723.964 763.766 722.696 762.101C721.439 760.447 720.478 758.535 719.812 756.365C719.146 754.195 718.791 751.928 718.748 749.565V748.711ZM743.692 753.416H735.216L733.605 758.25H728.465L737.198 734.789H741.678L750.459 758.25H745.319L743.692 753.416ZM736.521 749.5H742.387L739.438 740.719L736.521 749.5ZM760.369 749.082C760.369 751.509 760.02 753.846 759.322 756.091C758.623 758.336 757.619 760.318 756.308 762.037C754.998 763.755 753.596 764.937 752.103 765.582L751.201 763.116C752.726 761.967 753.929 760.194 754.81 757.799C755.691 755.403 756.147 752.648 756.18 749.533V748.679C756.18 745.467 755.739 742.636 754.858 740.187C753.988 737.738 752.769 735.901 751.201 734.676L752.103 732.211C753.564 732.845 754.939 733.994 756.228 735.659C757.528 737.324 758.532 739.263 759.241 741.476C759.961 743.689 760.337 745.982 760.369 748.356V749.082Z" fill="black"/>
</g>
<defs>
<clipPath id="clip0">
<rect width="1440" height="810" fill="white" transform="translate(0 135)"/>
</clipPath>
</defs>
</svg>
