<svg width="1440" height="1080" viewBox="0 0 1440 1080" fill="none" xmlns="http://www.w3.org/2000/svg">
<rect width="1440" height="1080" fill="white"/>
<g clip-path="url(#clip0)">
<path d="M0 135H1440V945H0V135Z" fill="white"/>
<path d="M528.527 241.881C521.773 239.939 516.852 237.561 513.762 234.744C510.699 231.9 509.168 228.4 509.168 224.244C509.168 219.541 511.041 215.658 514.787 212.596C518.56 209.506 523.455 207.961 529.471 207.961C533.572 207.961 537.223 208.754 540.422 210.34C543.648 211.926 546.137 214.113 547.887 216.902C549.664 219.691 550.553 222.74 550.553 226.049H542.637C542.637 222.439 541.488 219.609 539.191 217.559C536.894 215.48 533.654 214.441 529.471 214.441C525.588 214.441 522.553 215.303 520.365 217.025C518.205 218.721 517.125 221.086 517.125 224.121C517.125 226.555 518.15 228.619 520.201 230.314C522.279 231.982 525.793 233.514 530.742 234.908C535.719 236.303 539.602 237.848 542.391 239.543C545.207 241.211 547.285 243.166 548.625 245.408C549.992 247.65 550.676 250.289 550.676 253.324C550.676 258.164 548.789 262.047 545.016 264.973C541.242 267.871 536.197 269.32 529.881 269.32C525.779 269.32 521.951 268.541 518.396 266.982C514.842 265.396 512.094 263.236 510.152 260.502C508.238 257.768 507.281 254.664 507.281 251.191H515.197C515.197 254.801 516.523 257.658 519.176 259.764C521.855 261.842 525.424 262.881 529.881 262.881C534.037 262.881 537.223 262.033 539.437 260.338C541.652 258.643 542.76 256.332 542.76 253.406C542.76 250.48 541.734 248.225 539.684 246.639C537.633 245.025 533.914 243.439 528.527 241.881ZM597.105 246.803C597.105 253.557 595.56 258.998 592.471 263.127C589.381 267.256 585.197 269.32 579.92 269.32C574.533 269.32 570.295 267.611 567.205 264.193V285.562H559.617V224.121H566.549L566.918 229.043C570.008 225.215 574.301 223.301 579.797 223.301C585.129 223.301 589.34 225.311 592.43 229.33C595.547 233.35 597.105 238.941 597.105 246.105V246.803ZM589.518 245.941C589.518 240.937 588.451 236.986 586.318 234.088C584.185 231.189 581.26 229.74 577.541 229.74C572.947 229.74 569.502 231.777 567.205 235.852V257.057C569.475 261.104 572.947 263.127 577.623 263.127C581.26 263.127 584.144 261.691 586.277 258.82C588.437 255.922 589.518 251.629 589.518 245.941ZM615.029 268.5H607.441V205.5H615.029V268.5ZM635.455 268.5H627.867V224.121H635.455V268.5ZM627.252 212.35C627.252 211.119 627.621 210.08 628.359 209.232C629.125 208.385 630.246 207.961 631.723 207.961C633.199 207.961 634.32 208.385 635.086 209.232C635.852 210.08 636.234 211.119 636.234 212.35C636.234 213.58 635.852 214.605 635.086 215.426C634.32 216.246 633.199 216.656 631.723 216.656C630.246 216.656 629.125 216.246 628.359 215.426C627.621 214.605 627.252 213.58 627.252 212.35ZM657.932 213.375V224.121H666.217V229.986H657.932V257.508C657.932 259.285 658.301 260.625 659.039 261.527C659.777 262.402 661.035 262.84 662.812 262.84C663.687 262.84 664.891 262.676 666.422 262.348V268.5C664.426 269.047 662.484 269.32 660.598 269.32C657.207 269.32 654.65 268.295 652.928 266.244C651.205 264.193 650.344 261.281 650.344 257.508V229.986H642.264V224.121H650.344V213.375H657.932ZM716.912 258.041L733.975 208.781H742.588L720.439 268.5H713.467L691.359 208.781H699.932L716.912 258.041ZM745.541 245.9C745.541 241.553 746.389 237.643 748.084 234.17C749.807 230.697 752.185 228.018 755.221 226.131C758.283 224.244 761.769 223.301 765.68 223.301C771.723 223.301 776.603 225.393 780.322 229.576C784.068 233.76 785.941 239.324 785.941 246.27V246.803C785.941 251.123 785.107 255.006 783.439 258.451C781.799 261.869 779.434 264.535 776.344 266.449C773.281 268.363 769.754 269.32 765.762 269.32C759.746 269.32 754.865 267.229 751.119 263.045C747.4 258.861 745.541 253.324 745.541 246.434V245.9ZM753.17 246.803C753.17 251.725 754.305 255.676 756.574 258.656C758.871 261.637 761.934 263.127 765.762 263.127C769.617 263.127 772.68 261.623 774.949 258.615C777.219 255.58 778.353 251.342 778.353 245.9C778.353 241.033 777.191 237.096 774.867 234.088C772.57 231.053 769.508 229.535 765.68 229.535C761.934 229.535 758.912 231.025 756.615 234.006C754.318 236.986 753.17 241.252 753.17 246.803ZM805.752 213.375V224.121H814.037V229.986H805.752V257.508C805.752 259.285 806.121 260.625 806.859 261.527C807.598 262.402 808.855 262.84 810.633 262.84C811.508 262.84 812.711 262.676 814.242 262.348V268.5C812.246 269.047 810.305 269.32 808.418 269.32C805.027 269.32 802.471 268.295 800.748 266.244C799.025 264.193 798.164 261.281 798.164 257.508V229.986H790.084V224.121H798.164V213.375H805.752ZM841.353 269.32C835.338 269.32 830.443 267.352 826.67 263.414C822.896 259.449 821.01 254.158 821.01 247.541V246.146C821.01 241.744 821.844 237.82 823.512 234.375C825.207 230.902 827.559 228.195 830.566 226.254C833.601 224.285 836.883 223.301 840.41 223.301C846.18 223.301 850.664 225.201 853.863 229.002C857.062 232.803 858.662 238.244 858.662 245.326V248.484H828.598C828.707 252.859 829.978 256.4 832.412 259.107C834.873 261.787 837.99 263.127 841.764 263.127C844.443 263.127 846.713 262.58 848.572 261.486C850.432 260.393 852.059 258.943 853.453 257.139L858.088 260.748C854.369 266.463 848.791 269.32 841.353 269.32ZM840.41 229.535C837.348 229.535 834.777 230.656 832.699 232.898C830.621 235.113 829.336 238.23 828.844 242.25H851.074V241.676C850.855 237.82 849.816 234.84 847.957 232.734C846.098 230.602 843.582 229.535 840.41 229.535ZM893.32 256.729C893.32 254.678 892.541 253.092 890.982 251.971C889.451 250.822 886.758 249.838 882.902 249.018C879.074 248.197 876.025 247.213 873.756 246.064C871.514 244.916 869.846 243.549 868.752 241.963C867.685 240.377 867.152 238.49 867.152 236.303C867.152 232.666 868.684 229.59 871.746 227.074C874.836 224.559 878.773 223.301 883.559 223.301C888.59 223.301 892.664 224.6 895.781 227.197C898.926 229.795 900.498 233.117 900.498 237.164H892.869C892.869 235.086 891.98 233.295 890.203 231.791C888.453 230.287 886.238 229.535 883.559 229.535C880.797 229.535 878.637 230.137 877.078 231.34C875.519 232.543 874.74 234.115 874.74 236.057C874.74 237.889 875.465 239.27 876.914 240.199C878.363 241.129 880.975 242.018 884.748 242.865C888.549 243.713 891.625 244.725 893.976 245.9C896.328 247.076 898.064 248.498 899.185 250.166C900.334 251.807 900.908 253.816 900.908 256.195C900.908 260.16 899.322 263.346 896.15 265.752C892.978 268.131 888.863 269.32 883.805 269.32C880.25 269.32 877.105 268.691 874.371 267.434C871.637 266.176 869.49 264.426 867.932 262.184C866.4 259.914 865.635 257.467 865.635 254.842H873.223C873.359 257.385 874.371 259.408 876.258 260.912C878.172 262.389 880.687 263.127 883.805 263.127C886.676 263.127 888.973 262.553 890.695 261.404C892.445 260.229 893.32 258.67 893.32 256.729Z" fill="black"/>
<path d="M717.56 931.5H707.079V930.039L712.616 923.886C713.437 922.956 714.001 922.202 714.308 921.623C714.623 921.037 714.781 920.433 714.781 919.811C714.781 918.976 714.528 918.291 714.023 917.756C713.517 917.221 712.843 916.954 712.001 916.954C710.99 916.954 710.203 917.243 709.639 917.822C709.082 918.393 708.804 919.192 708.804 920.217H706.772C706.772 918.745 707.244 917.555 708.189 916.646C709.141 915.738 710.412 915.284 712.001 915.284C713.488 915.284 714.664 915.676 715.528 916.46C716.392 917.236 716.824 918.272 716.824 919.569C716.824 921.144 715.821 923.019 713.814 925.194L709.529 929.841H717.56V931.5ZM729.744 924.677C729.744 927.058 729.338 928.827 728.525 929.984C727.712 931.141 726.441 931.72 724.712 931.72C723.006 931.72 721.742 931.156 720.922 930.028C720.102 928.893 719.677 927.201 719.648 924.952V922.239C719.648 919.887 720.054 918.141 720.867 916.998C721.68 915.855 722.955 915.284 724.69 915.284C726.412 915.284 727.679 915.837 728.492 916.943C729.305 918.042 729.722 919.741 729.744 922.041V924.677ZM727.712 921.898C727.712 920.177 727.47 918.924 726.987 918.141C726.503 917.35 725.738 916.954 724.69 916.954C723.65 916.954 722.892 917.346 722.416 918.13C721.94 918.913 721.695 920.118 721.68 921.744V924.996C721.68 926.725 721.929 928.003 722.427 928.83C722.933 929.651 723.694 930.061 724.712 930.061C725.716 930.061 726.459 929.673 726.943 928.896C727.433 928.12 727.69 926.897 727.712 925.227V921.898Z" fill="black"/>
<path d="M942.995 352.668H1025.23C1032.16 352.668 1035.68 352.668 1039.42 353.853C1043.51 355.343 1046.73 358.566 1048.22 362.659C1049.41 366.398 1049.41 369.919 1049.41 376.96V454.982C1049.41 461.916 1049.41 465.436 1048.22 469.176C1046.73 473.268 1043.51 476.491 1039.42 477.981C1035.68 479.166 1032.16 479.166 1025.12 479.166H942.995C936.061 479.166 932.541 479.166 928.801 477.981C924.709 476.491 921.486 473.268 919.996 469.176C918.811 465.436 918.811 461.916 918.811 454.875V376.852C918.811 369.919 918.811 366.398 919.996 362.659C921.486 358.566 924.709 355.343 928.801 353.853C932.541 352.668 936.061 352.668 943.102 352.668H942.995Z" fill="#5E5E5E"/>
<path d="M942.995 352.668H1025.23C1032.16 352.668 1035.68 352.668 1039.42 353.853C1043.51 355.343 1046.73 358.566 1048.22 362.658C1049.41 366.398 1049.41 369.918 1049.41 376.959V454.982C1049.41 461.915 1049.41 465.436 1048.22 469.175C1046.73 473.268 1043.51 476.491 1039.42 477.981C1035.68 479.166 1032.16 479.166 1025.12 479.166H942.995C936.062 479.166 932.541 479.166 928.802 477.981C924.71 476.491 921.486 473.268 919.997 469.175C918.811 465.436 918.811 461.915 918.811 454.874V376.852C918.811 369.918 918.811 366.398 919.997 362.658C921.486 358.566 924.71 355.343 928.802 353.853C932.541 352.668 936.062 352.668 943.103 352.668H942.995Z" stroke="black" stroke-width="4"/>
<path d="M973.2 393.866C970.184 393 967.987 391.938 966.608 390.68C965.241 389.411 964.557 387.848 964.557 385.993C964.557 383.893 965.393 382.16 967.066 380.793C968.75 379.413 970.935 378.724 973.621 378.724C975.452 378.724 977.081 379.078 978.51 379.786C979.95 380.494 981.061 381.47 981.842 382.715C982.636 383.96 983.032 385.322 983.032 386.799H979.498C979.498 385.187 978.986 383.924 977.96 383.008C976.935 382.081 975.488 381.617 973.621 381.617C971.887 381.617 970.532 382.001 969.556 382.77C968.591 383.527 968.109 384.583 968.109 385.938C968.109 387.024 968.567 387.946 969.483 388.703C970.41 389.448 971.979 390.131 974.188 390.754C976.41 391.376 978.143 392.066 979.389 392.823C980.646 393.567 981.574 394.44 982.172 395.441C982.782 396.442 983.087 397.62 983.087 398.975C983.087 401.136 982.245 402.869 980.56 404.175C978.876 405.469 976.624 406.116 973.804 406.116C971.973 406.116 970.264 405.768 968.677 405.073C967.09 404.364 965.863 403.4 964.996 402.179C964.142 400.959 963.715 399.573 963.715 398.023H967.249C967.249 399.634 967.841 400.91 969.025 401.85C970.221 402.778 971.814 403.241 973.804 403.241C975.659 403.241 977.081 402.863 978.07 402.106C979.059 401.349 979.553 400.318 979.553 399.012C979.553 397.706 979.096 396.698 978.18 395.99C977.265 395.27 975.604 394.562 973.2 393.866ZM1003.45 394.379C1003.45 398.346 1002.77 401.294 1001.42 403.223C1000.06 405.152 997.943 406.116 995.062 406.116C992.218 406.116 990.112 405.176 988.745 403.296C987.378 401.404 986.67 398.584 986.621 394.837V390.314C986.621 386.396 987.299 383.484 988.654 381.58C990.009 379.676 992.133 378.724 995.026 378.724C997.894 378.724 1000.01 379.645 1001.36 381.489C1002.72 383.32 1003.41 386.152 1003.45 389.985V394.379ZM1000.06 389.747C1000.06 386.878 999.658 384.791 998.853 383.484C998.047 382.166 996.771 381.507 995.026 381.507C993.292 381.507 992.029 382.16 991.236 383.466C990.442 384.772 990.033 386.78 990.009 389.49V394.91C990.009 397.791 990.424 399.921 991.254 401.301C992.096 402.668 993.366 403.351 995.062 403.351C996.735 403.351 997.974 402.704 998.779 401.41C999.597 400.116 1000.02 398.078 1000.06 395.295V389.747Z" fill="white"/>
<path d="M965.708 422.827H1002.51V459.818H965.708V422.827Z" fill="white"/>
<path d="M965.708 422.827H1002.51V459.818H965.708V422.827Z" stroke="black" stroke-width="2"/>
<path d="M942.995 542.615H1025.23C1032.16 542.615 1035.68 542.615 1039.42 543.8C1043.51 545.289 1046.73 548.513 1048.22 552.605C1049.41 556.345 1049.41 559.865 1049.41 566.906V644.929C1049.41 651.862 1049.41 655.383 1048.22 659.122C1046.73 663.215 1043.51 666.438 1039.42 667.928C1035.68 669.113 1032.16 669.113 1025.12 669.113H942.995C936.061 669.113 932.541 669.113 928.801 667.928C924.709 666.438 921.486 663.215 919.996 659.122C918.811 655.383 918.811 651.862 918.811 644.821V566.799C918.811 559.865 918.811 556.345 919.996 552.605C921.486 548.513 924.709 545.289 928.801 543.8C932.541 542.615 936.061 542.615 943.102 542.615H942.995Z" fill="#5E5E5E"/>
<path d="M942.995 542.615H1025.23C1032.16 542.615 1035.68 542.615 1039.42 543.8C1043.51 545.289 1046.73 548.513 1048.22 552.605C1049.41 556.345 1049.41 559.865 1049.41 566.906V644.929C1049.41 651.862 1049.41 655.383 1048.22 659.122C1046.73 663.214 1043.51 666.438 1039.42 667.928C1035.68 669.113 1032.16 669.113 1025.12 669.113H942.995C936.062 669.113 932.541 669.113 928.802 667.928C924.71 666.438 921.486 663.214 919.997 659.122C918.811 655.383 918.811 651.862 918.811 644.821V566.799C918.811 559.865 918.811 556.345 919.997 552.605C921.486 548.513 924.71 545.289 928.802 543.8C932.541 542.615 936.062 542.615 943.103 542.615H942.995Z" stroke="black" stroke-width="4"/>
<path d="M973.2 584.366C970.184 583.5 967.987 582.438 966.608 581.18C965.241 579.911 964.557 578.348 964.557 576.493C964.557 574.393 965.393 572.66 967.066 571.293C968.75 569.913 970.935 569.224 973.621 569.224C975.452 569.224 977.081 569.578 978.51 570.286C979.95 570.994 981.061 571.97 981.842 573.215C982.636 574.46 983.032 575.822 983.032 577.299H979.498C979.498 575.687 978.986 574.424 977.96 573.508C976.935 572.581 975.488 572.117 973.621 572.117C971.887 572.117 970.532 572.501 969.556 573.27C968.591 574.027 968.109 575.083 968.109 576.438C968.109 577.524 968.567 578.446 969.483 579.203C970.41 579.948 971.979 580.631 974.188 581.254C976.41 581.876 978.143 582.566 979.389 583.323C980.646 584.067 981.574 584.94 982.172 585.941C982.782 586.942 983.087 588.12 983.087 589.475C983.087 591.636 982.245 593.369 980.56 594.675C978.876 595.969 976.624 596.616 973.804 596.616C971.973 596.616 970.264 596.268 968.677 595.573C967.09 594.864 965.863 593.9 964.996 592.679C964.142 591.459 963.715 590.073 963.715 588.523H967.249C967.249 590.134 967.841 591.41 969.025 592.35C970.221 593.278 971.814 593.741 973.804 593.741C975.659 593.741 977.081 593.363 978.07 592.606C979.059 591.849 979.553 590.818 979.553 589.512C979.553 588.206 979.096 587.198 978.18 586.49C977.265 585.77 975.604 585.062 973.2 584.366ZM997.864 596.25H994.458V573.673L987.628 576.182V573.105L997.333 569.462H997.864V596.25Z" fill="white"/>
<path d="M965.708 612.773H1002.51V649.765H965.708V612.773Z" fill="white"/>
<path d="M965.708 612.773H1002.51V649.765H965.708V612.773Z" stroke="black" stroke-width="2"/>
<path d="M942.995 732.561H1025.23C1032.16 732.561 1035.68 732.561 1039.42 733.746C1043.51 735.236 1046.73 738.459 1048.22 742.552C1049.41 746.291 1049.41 749.812 1049.41 756.853V834.875C1049.41 841.809 1049.41 845.329 1048.22 849.069C1046.73 853.161 1043.51 856.385 1039.42 857.874C1035.68 859.059 1032.16 859.059 1025.12 859.059H942.995C936.061 859.059 932.541 859.059 928.801 857.874C924.709 856.385 921.486 853.161 919.996 849.069C918.811 845.329 918.811 841.809 918.811 834.768V756.745C918.811 749.812 918.811 746.291 919.996 742.552C921.486 738.459 924.709 735.236 928.801 733.746C932.541 732.561 936.061 732.561 943.102 732.561H942.995Z" fill="#5E5E5E"/>
<path d="M942.995 732.561H1025.23C1032.16 732.561 1035.68 732.561 1039.42 733.746C1043.51 735.236 1046.73 738.459 1048.22 742.551C1049.41 746.291 1049.41 749.812 1049.41 756.853V834.875C1049.41 841.808 1049.41 845.329 1048.22 849.069C1046.73 853.161 1043.51 856.384 1039.42 857.874C1035.68 859.059 1032.16 859.059 1025.12 859.059H942.995C936.062 859.059 932.541 859.059 928.802 857.874C924.71 856.384 921.486 853.161 919.997 849.069C918.811 845.329 918.811 841.809 918.811 834.768V756.745C918.811 749.812 918.811 746.291 919.997 742.551C921.486 738.459 924.71 735.236 928.802 733.746C932.541 732.561 936.062 732.561 943.103 732.561H942.995Z" stroke="black" stroke-width="4"/>
<path d="M973.2 774.116C970.184 773.25 967.987 772.188 966.608 770.93C965.241 769.661 964.557 768.098 964.557 766.243C964.557 764.143 965.393 762.41 967.066 761.043C968.75 759.663 970.935 758.974 973.621 758.974C975.452 758.974 977.081 759.328 978.51 760.036C979.95 760.744 981.061 761.72 981.842 762.965C982.636 764.21 983.032 765.572 983.032 767.049H979.498C979.498 765.437 978.986 764.174 977.96 763.258C976.935 762.331 975.488 761.867 973.621 761.867C971.887 761.867 970.532 762.251 969.556 763.02C968.591 763.777 968.109 764.833 968.109 766.188C968.109 767.274 968.567 768.196 969.483 768.953C970.41 769.698 971.979 770.381 974.188 771.004C976.41 771.626 978.143 772.316 979.389 773.073C980.646 773.817 981.574 774.69 982.172 775.691C982.782 776.692 983.087 777.87 983.087 779.225C983.087 781.386 982.245 783.119 980.56 784.425C978.876 785.719 976.624 786.366 973.804 786.366C971.973 786.366 970.264 786.018 968.677 785.323C967.09 784.614 965.863 783.65 964.996 782.429C964.142 781.209 963.715 779.823 963.715 778.273H967.249C967.249 779.884 967.841 781.16 969.025 782.1C970.221 783.028 971.814 783.491 973.804 783.491C975.659 783.491 977.081 783.113 978.07 782.356C979.059 781.599 979.553 780.568 979.553 779.262C979.553 777.956 979.096 776.948 978.18 776.24C977.265 775.52 975.604 774.812 973.2 774.116ZM1004.2 786H986.731V783.565L995.96 773.311C997.327 771.76 998.267 770.503 998.779 769.539C999.304 768.562 999.567 767.555 999.567 766.518C999.567 765.126 999.146 763.985 998.303 763.094C997.461 762.202 996.338 761.757 994.934 761.757C993.25 761.757 991.937 762.239 990.997 763.203C990.07 764.156 989.606 765.486 989.606 767.195H986.218C986.218 764.741 987.006 762.758 988.58 761.244C990.167 759.73 992.285 758.974 994.934 758.974C997.412 758.974 999.371 759.627 1000.81 760.933C1002.25 762.227 1002.97 763.954 1002.97 766.115C1002.97 768.739 1001.3 771.864 997.955 775.49L990.814 783.235H1004.2V786Z" fill="white"/>
<path d="M965.708 802.72H1002.51V839.711H965.708V802.72Z" fill="white"/>
<path d="M965.708 802.72H1002.51V839.711H965.708V802.72Z" stroke="black" stroke-width="2"/>
<path d="M987.34 447.416H978.864L977.253 452.25H972.113L980.846 428.789H985.326L994.107 452.25H988.967L987.34 447.416ZM980.169 443.5H986.035L983.086 434.719L980.169 443.5Z" fill="black"/>
<path d="M974.095 641.25V617.789H982.312C985.159 617.789 987.318 618.337 988.79 619.433C990.262 620.518 990.997 622.113 990.997 624.218C990.997 625.368 990.702 626.383 990.111 627.264C989.52 628.134 988.699 628.773 987.646 629.181C988.849 629.482 989.794 630.089 990.482 631.002C991.18 631.915 991.529 633.032 991.529 634.354C991.529 636.609 990.81 638.317 989.37 639.478C987.931 640.638 985.879 641.229 983.215 641.25H974.095ZM978.929 631.034V637.367H983.07C984.208 637.367 985.095 637.098 985.728 636.561C986.373 636.013 986.695 635.261 986.695 634.305C986.695 632.157 985.583 631.066 983.36 631.034H978.929ZM978.929 627.618H982.506C984.944 627.575 986.164 626.603 986.164 624.702C986.164 623.638 985.852 622.875 985.229 622.414C984.617 621.941 983.644 621.705 982.312 621.705H978.929V627.618Z" fill="black"/>
<path d="M992.512 823.935C992.33 826.459 991.395 828.447 989.708 829.897C988.033 831.347 985.82 832.072 983.07 832.072C980.062 832.072 977.693 831.062 975.964 829.043C974.245 827.013 973.386 824.23 973.386 820.696V819.262C973.386 817.006 973.783 815.019 974.578 813.3C975.373 811.582 976.506 810.266 977.978 809.353C979.46 808.429 981.179 807.967 983.134 807.967C985.841 807.967 988.022 808.692 989.676 810.142C991.331 811.592 992.287 813.628 992.544 816.249H987.71C987.592 814.734 987.168 813.639 986.437 812.962C985.718 812.274 984.617 811.931 983.134 811.931C981.523 811.931 980.314 812.511 979.509 813.671C978.714 814.82 978.306 816.609 978.284 819.037V820.809C978.284 823.344 978.665 825.197 979.428 826.368C980.202 827.539 981.415 828.125 983.07 828.125C984.563 828.125 985.675 827.786 986.405 827.109C987.146 826.422 987.571 825.364 987.678 823.935H992.512Z" fill="black"/>
<path d="M464.413 378.628C485.007 399.222 485.007 432.612 464.413 453.206C443.819 473.8 410.43 473.8 389.836 453.206C369.242 432.612 369.242 399.222 389.836 378.628C410.43 358.034 443.819 358.034 464.413 378.628Z" fill="#5E5E5E"/>
<path d="M464.413 378.628C485.007 399.222 485.007 432.612 464.413 453.206C443.819 473.8 410.43 473.8 389.836 453.206C369.242 432.612 369.242 399.222 389.836 378.628C410.43 358.034 443.819 358.034 464.413 378.628V378.628Z" stroke="black" stroke-width="4"/>
<path d="M424.705 419.791C424.375 422.61 423.332 424.789 421.574 426.327C419.828 427.853 417.503 428.616 414.598 428.616C411.448 428.616 408.921 427.487 407.017 425.229C405.125 422.97 404.179 419.949 404.179 416.165V413.602C404.179 411.124 404.618 408.945 405.497 407.065C406.388 405.185 407.646 403.744 409.269 402.743C410.893 401.73 412.773 401.224 414.909 401.224C417.741 401.224 420.011 402.017 421.72 403.604C423.429 405.179 424.424 407.364 424.705 410.159H421.171C420.866 408.035 420.201 406.497 419.175 405.545C418.162 404.593 416.74 404.117 414.909 404.117C412.663 404.117 410.899 404.947 409.617 406.607C408.348 408.267 407.713 410.629 407.713 413.693V416.275C407.713 419.168 408.317 421.469 409.526 423.178C410.734 424.887 412.425 425.741 414.598 425.741C416.551 425.741 418.046 425.302 419.084 424.423C420.134 423.532 420.829 421.988 421.171 419.791H424.705ZM445.359 416.879C445.359 420.846 444.682 423.794 443.327 425.723C441.972 427.652 439.854 428.616 436.973 428.616C434.129 428.616 432.023 427.676 430.656 425.796C429.289 423.904 428.581 421.084 428.532 417.337V412.814C428.532 408.896 429.209 405.984 430.564 404.08C431.919 402.176 434.043 401.224 436.936 401.224C439.805 401.224 441.917 402.145 443.272 403.989C444.627 405.82 445.323 408.652 445.359 412.485V416.879ZM441.972 412.247C441.972 409.378 441.569 407.291 440.763 405.984C439.958 404.666 438.682 404.007 436.936 404.007C435.203 404.007 433.94 404.66 433.146 405.966C432.353 407.272 431.944 409.28 431.919 411.99V417.41C431.919 420.291 432.334 422.421 433.165 423.801C434.007 425.168 435.276 425.851 436.973 425.851C438.645 425.851 439.884 425.204 440.69 423.91C441.508 422.616 441.935 420.578 441.972 417.795V412.247Z" fill="white"/>
<path d="M462.704 568.575C483.298 589.169 483.298 622.559 462.704 643.153C442.11 663.747 408.721 663.747 388.127 643.153C367.532 622.559 367.532 589.169 388.127 568.575C408.721 547.981 442.11 547.981 462.704 568.575Z" fill="#5E5E5E"/>
<path d="M462.704 568.575C483.298 589.169 483.298 622.559 462.704 643.153C442.11 663.747 408.721 663.747 388.127 643.153C367.533 622.559 367.533 589.169 388.127 568.575C408.721 547.981 442.11 547.981 462.704 568.575V568.575Z" stroke="black" stroke-width="4"/>
<path d="M423.205 609.541C422.875 612.36 421.832 614.539 420.074 616.077C418.328 617.603 416.003 618.366 413.098 618.366C409.948 618.366 407.421 617.237 405.517 614.979C403.625 612.72 402.679 609.699 402.679 605.915V603.352C402.679 600.874 403.118 598.695 403.997 596.815C404.888 594.935 406.146 593.494 407.769 592.493C409.393 591.48 411.273 590.974 413.409 590.974C416.241 590.974 418.511 591.767 420.22 593.354C421.929 594.929 422.924 597.114 423.205 599.909H419.671C419.366 597.785 418.701 596.247 417.675 595.295C416.662 594.343 415.24 593.867 413.409 593.867C411.163 593.867 409.399 594.697 408.117 596.357C406.848 598.017 406.213 600.379 406.213 603.443V606.025C406.213 608.918 406.817 611.219 408.026 612.928C409.234 614.637 410.925 615.491 413.098 615.491C415.051 615.491 416.546 615.052 417.584 614.173C418.634 613.282 419.329 611.738 419.671 609.541H423.205ZM438.275 618H434.869V595.423L428.039 597.932V594.855L437.744 591.212H438.275V618Z" fill="white"/>
<path d="M462.704 758.521C483.298 779.115 483.298 812.505 462.704 833.099C442.11 853.693 408.721 853.693 388.127 833.099C367.532 812.505 367.532 779.115 388.127 758.521C408.721 737.927 442.11 737.927 462.704 758.521Z" fill="#5E5E5E"/>
<path d="M462.704 758.521C483.298 779.115 483.298 812.505 462.704 833.099C442.11 853.693 408.721 853.693 388.127 833.099C367.533 812.505 367.533 779.115 388.127 758.521C408.721 737.927 442.11 737.927 462.704 758.521V758.521Z" stroke="black" stroke-width="4"/>
<path d="M423.205 799.291C422.875 802.11 421.832 804.289 420.074 805.827C418.328 807.353 416.003 808.116 413.098 808.116C409.948 808.116 407.421 806.987 405.517 804.729C403.625 802.47 402.679 799.449 402.679 795.665V793.102C402.679 790.624 403.118 788.445 403.997 786.565C404.888 784.685 406.146 783.244 407.769 782.243C409.393 781.23 411.273 780.724 413.409 780.724C416.241 780.724 418.511 781.517 420.22 783.104C421.929 784.679 422.924 786.864 423.205 789.659H419.671C419.366 787.535 418.701 785.997 417.675 785.045C416.662 784.093 415.24 783.617 413.409 783.617C411.163 783.617 409.399 784.447 408.117 786.107C406.848 787.767 406.213 790.129 406.213 793.193V795.775C406.213 798.668 406.817 800.969 408.026 802.678C409.234 804.387 410.925 805.241 413.098 805.241C415.051 805.241 416.546 804.802 417.584 803.923C418.634 803.032 419.329 801.488 419.671 799.291H423.205ZM444.61 807.75H427.142V805.315L436.37 795.061C437.738 793.51 438.677 792.253 439.19 791.289C439.715 790.312 439.978 789.305 439.978 788.268C439.978 786.876 439.556 785.735 438.714 784.844C437.872 783.952 436.749 783.507 435.345 783.507C433.66 783.507 432.348 783.989 431.408 784.953C430.48 785.906 430.017 787.236 430.017 788.945H426.629C426.629 786.491 427.416 784.508 428.991 782.994C430.578 781.48 432.696 780.724 435.345 780.724C437.823 780.724 439.782 781.377 441.223 782.683C442.663 783.977 443.383 785.704 443.383 787.865C443.383 790.489 441.711 793.614 438.366 797.24L431.225 804.985H444.61V807.75Z" fill="white"/>
</g>
<defs>
<clipPath id="clip0">
<rect width="1440" height="810" fill="white" transform="translate(0 135)"/>
</clipPath>
</defs>
</svg>
