<svg width="1440" height="1080" viewBox="0 0 1440 1080" fill="none" xmlns="http://www.w3.org/2000/svg">
<rect width="1440" height="1080" fill="white"/>
<g clip-path="url(#clip0)">
<path d="M0 135H1440V945H0V135Z" fill="white"/>
<path d="M163.59 210.093L182.528 257.358L201.466 210.093H211.372V268.02H203.734V245.462L204.45 221.113L185.432 268.02H179.584L160.607 221.233L161.362 245.462V268.02H153.724V210.093H163.59ZM250.282 263.763C247.418 267.131 243.214 268.816 237.67 268.816C233.082 268.816 229.581 267.49 227.167 264.837C224.78 262.158 223.573 258.206 223.547 252.981V224.972H230.907V252.782C230.907 259.307 233.559 262.569 238.864 262.569C244.487 262.569 248.227 260.474 250.083 256.283V224.972H257.444V268.02H250.441L250.282 263.763ZM276.66 268.02H269.3V206.91H276.66V268.02ZM298.462 214.549V224.972H306.499V230.662H298.462V257.358C298.462 259.082 298.82 260.381 299.536 261.257C300.252 262.105 301.472 262.53 303.197 262.53C304.045 262.53 305.212 262.371 306.698 262.052V268.02C304.761 268.55 302.878 268.816 301.048 268.816C297.759 268.816 295.279 267.821 293.608 265.832C291.937 263.843 291.102 261.018 291.102 257.358V230.662H283.264V224.972H291.102V214.549H298.462ZM323.129 268.02H315.769V224.972H323.129V268.02ZM315.172 213.554C315.172 212.361 315.53 211.353 316.246 210.53C316.989 209.708 318.076 209.297 319.508 209.297C320.941 209.297 322.028 209.708 322.771 210.53C323.513 211.353 323.885 212.361 323.885 213.554C323.885 214.748 323.513 215.742 322.771 216.538C322.028 217.334 320.941 217.732 319.508 217.732C318.076 217.732 316.989 217.334 316.246 216.538C315.53 215.742 315.172 214.748 315.172 213.554ZM371.309 246.974C371.309 253.525 369.81 258.803 366.813 262.808C363.816 266.813 359.758 268.816 354.639 268.816C349.414 268.816 345.302 267.158 342.305 263.843V284.571H334.945V224.972H341.669L342.027 229.747C345.024 226.033 349.188 224.177 354.519 224.177C359.691 224.177 363.776 226.126 366.773 230.025C369.797 233.924 371.309 239.348 371.309 246.297V246.974ZM363.948 246.138C363.948 241.284 362.914 237.452 360.845 234.64C358.776 231.829 355.938 230.423 352.331 230.423C347.875 230.423 344.533 232.399 342.305 236.351V256.92C344.507 260.845 347.875 262.808 352.411 262.808C355.938 262.808 358.737 261.416 360.805 258.631C362.901 255.819 363.948 251.655 363.948 246.138ZM388.695 268.02H381.335V206.91H388.695V268.02ZM418.375 268.816C412.539 268.816 407.792 266.906 404.131 263.087C400.471 259.241 398.641 254.108 398.641 247.69V246.337C398.641 242.067 399.45 238.261 401.068 234.919C402.712 231.55 404.993 228.924 407.911 227.041C410.855 225.132 414.038 224.177 417.459 224.177C423.056 224.177 427.406 226.02 430.509 229.707C433.612 233.394 435.164 238.672 435.164 245.541V248.605H406.001C406.107 252.849 407.341 256.283 409.701 258.909C412.088 261.509 415.112 262.808 418.772 262.808C421.372 262.808 423.573 262.278 425.377 261.217C427.18 260.156 428.758 258.75 430.111 257L434.607 260.501C431 266.044 425.589 268.816 418.375 268.816ZM417.459 230.224C414.489 230.224 411.996 231.312 409.98 233.487C407.964 235.635 406.717 238.659 406.24 242.558H427.804V242.001C427.591 238.261 426.584 235.37 424.78 233.327C422.976 231.259 420.536 230.224 417.459 230.224ZM502.043 257.875L510.318 224.972H517.678L505.146 268.02H499.178L488.715 235.396L478.53 268.02H472.562L460.069 224.972H467.39L475.864 257.198L485.89 224.972H491.818L502.043 257.875ZM546.005 231.577C544.891 231.391 543.685 231.298 542.385 231.298C537.558 231.298 534.282 233.354 532.558 237.465V268.02H525.198V224.972H532.359L532.478 229.946C534.892 226.1 538.314 224.177 542.743 224.177C544.175 224.177 545.263 224.362 546.005 224.734V231.577ZM560.805 268.02H553.445V224.972H560.805V268.02ZM552.848 213.554C552.848 212.361 553.206 211.353 553.923 210.53C554.665 209.708 555.753 209.297 557.185 209.297C558.617 209.297 559.705 209.708 560.447 210.53C561.19 211.353 561.561 212.361 561.561 213.554C561.561 214.748 561.19 215.742 560.447 216.538C559.705 217.334 558.617 217.732 557.185 217.732C555.753 217.732 554.665 217.334 553.923 216.538C553.206 215.742 552.848 214.748 552.848 213.554ZM582.608 214.549V224.972H590.644V230.662H582.608V257.358C582.608 259.082 582.966 260.381 583.682 261.257C584.398 262.105 585.618 262.53 587.342 262.53C588.191 262.53 589.358 262.371 590.843 262.052V268.02C588.907 268.55 587.024 268.816 585.194 268.816C581.905 268.816 579.425 267.821 577.754 265.832C576.083 263.843 575.247 261.018 575.247 257.358V230.662H567.41V224.972H575.247V214.549H582.608ZM617.141 268.816C611.306 268.816 606.558 266.906 602.898 263.087C599.238 259.241 597.408 254.108 597.408 247.69V246.337C597.408 242.067 598.217 238.261 599.835 234.919C601.479 231.55 603.76 228.924 606.678 227.041C609.622 225.132 612.805 224.177 616.226 224.177C621.823 224.177 626.172 226.02 629.276 229.707C632.379 233.394 633.93 238.672 633.93 245.541V248.605H604.768C604.874 252.849 606.107 256.283 608.468 258.909C610.855 261.509 613.879 262.808 617.539 262.808C620.138 262.808 622.34 262.278 624.143 261.217C625.947 260.156 627.525 258.75 628.878 257L633.373 260.501C629.766 266.044 624.356 268.816 617.141 268.816ZM616.226 230.224C613.255 230.224 610.762 231.312 608.746 233.487C606.731 235.635 605.484 238.659 605.007 242.558H626.57V242.001C626.358 238.261 625.35 235.37 623.547 233.327C621.743 231.259 619.303 230.224 616.226 230.224ZM657.802 246.417H638.386V240.409H657.802V246.417ZM663.053 246.098C663.053 241.881 663.875 238.088 665.52 234.72C667.191 231.351 669.498 228.752 672.442 226.922C675.413 225.092 678.795 224.177 682.588 224.177C688.449 224.177 693.184 226.206 696.791 230.264C700.425 234.322 702.242 239.72 702.242 246.456V246.974C702.242 251.164 701.433 254.931 699.815 258.273C698.223 261.588 695.929 264.174 692.932 266.031C689.961 267.887 686.54 268.816 682.667 268.816C676.832 268.816 672.098 266.787 668.464 262.729C664.857 258.671 663.053 253.3 663.053 246.616V246.098ZM670.453 246.974C670.453 251.748 671.554 255.581 673.755 258.472C675.983 261.363 678.954 262.808 682.667 262.808C686.407 262.808 689.378 261.349 691.579 258.432C693.781 255.488 694.881 251.377 694.881 246.098C694.881 241.377 693.754 237.558 691.5 234.64C689.272 231.696 686.301 230.224 682.588 230.224C678.954 230.224 676.023 231.67 673.795 234.561C671.567 237.452 670.453 241.589 670.453 246.974ZM718.434 224.972L718.673 230.383C721.962 226.246 726.259 224.177 731.563 224.177C740.661 224.177 745.249 229.309 745.329 239.574V268.02H737.969V239.534C737.942 236.431 737.226 234.136 735.82 232.651C734.441 231.166 732.279 230.423 729.335 230.423C726.948 230.423 724.853 231.06 723.049 232.333C721.246 233.606 719.84 235.277 718.832 237.346V268.02H711.472V224.972H718.434ZM773.696 262.808C776.322 262.808 778.616 262.012 780.579 260.421C782.541 258.83 783.629 256.84 783.841 254.453H790.803C790.671 256.92 789.822 259.267 788.257 261.495C786.692 263.723 784.597 265.5 781.971 266.826C779.372 268.153 776.613 268.816 773.696 268.816C767.834 268.816 763.166 266.866 759.691 262.967C756.243 259.042 754.519 253.684 754.519 246.894V245.661C754.519 241.47 755.288 237.744 756.827 234.481C758.365 231.219 760.567 228.686 763.431 226.882C766.322 225.079 769.73 224.177 773.656 224.177C778.483 224.177 782.488 225.622 785.671 228.513C788.88 231.404 790.591 235.157 790.803 239.773H783.841C783.629 236.988 782.568 234.707 780.658 232.93C778.775 231.126 776.441 230.224 773.656 230.224C769.916 230.224 767.012 231.577 764.943 234.282C762.901 236.961 761.88 240.847 761.88 245.939V247.332C761.88 252.292 762.901 256.111 764.943 258.79C766.985 261.469 769.903 262.808 773.696 262.808ZM816.942 268.816C811.107 268.816 806.359 266.906 802.699 263.087C799.039 259.241 797.209 254.108 797.209 247.69V246.337C797.209 242.067 798.018 238.261 799.636 234.919C801.28 231.55 803.561 228.924 806.479 227.041C809.423 225.132 812.606 224.177 816.027 224.177C821.624 224.177 825.973 226.02 829.077 229.707C832.18 233.394 833.732 238.672 833.732 245.541V248.605H804.569C804.675 252.849 805.908 256.283 808.269 258.909C810.656 261.509 813.68 262.808 817.34 262.808C819.939 262.808 822.141 262.278 823.944 261.217C825.748 260.156 827.326 258.75 828.679 257L833.175 260.501C829.567 266.044 824.157 268.816 816.942 268.816ZM816.027 230.224C813.057 230.224 810.563 231.312 808.548 233.487C806.532 235.635 805.285 238.659 804.808 242.558H826.371V242.001C826.159 238.261 825.151 235.37 823.348 233.327C821.544 231.259 819.104 230.224 816.027 230.224ZM883.304 231.577C882.19 231.391 880.983 231.298 879.683 231.298C874.856 231.298 871.58 233.354 869.856 237.465V268.02H862.496V224.972H869.658L869.777 229.946C872.19 226.1 875.612 224.177 880.041 224.177C881.474 224.177 882.561 224.362 883.304 224.734V231.577ZM907.175 268.816C901.34 268.816 896.592 266.906 892.932 263.087C889.272 259.241 887.441 254.108 887.441 247.69V246.337C887.441 242.067 888.25 238.261 889.868 234.919C891.513 231.55 893.794 228.924 896.711 227.041C899.656 225.132 902.838 224.177 906.26 224.177C911.856 224.177 916.206 226.02 919.309 229.707C922.413 233.394 923.964 238.672 923.964 245.541V248.605H894.802C894.908 252.849 896.141 256.283 898.502 258.909C900.889 261.509 903.913 262.808 907.573 262.808C910.172 262.808 912.374 262.278 914.177 261.217C915.981 260.156 917.559 258.75 918.912 257L923.407 260.501C919.8 266.044 914.389 268.816 907.175 268.816ZM906.26 230.224C903.289 230.224 900.796 231.312 898.78 233.487C896.764 235.635 895.518 238.659 895.04 242.558H916.604V242.001C916.392 238.261 915.384 235.37 913.58 233.327C911.777 231.259 909.337 230.224 906.26 230.224ZM930.767 246.138C930.767 239.428 932.319 234.097 935.422 230.145C938.526 226.166 942.637 224.177 947.756 224.177C953.007 224.177 957.105 226.033 960.049 229.747L960.407 224.972H967.131V266.986C967.131 272.556 965.473 276.945 962.158 280.154C958.869 283.364 954.44 284.968 948.87 284.968C945.766 284.968 942.73 284.305 939.759 282.979C936.788 281.653 934.521 279.836 932.956 277.529L936.775 273.113C939.931 277.011 943.791 278.961 948.353 278.961C951.933 278.961 954.718 277.953 956.707 275.937C958.723 273.921 959.731 271.083 959.731 267.423V263.723C956.787 267.118 952.769 268.816 947.676 268.816C942.637 268.816 938.552 266.787 935.422 262.729C932.319 258.671 930.767 253.14 930.767 246.138ZM938.168 246.974C938.168 251.827 939.162 255.647 941.151 258.432C943.141 261.19 945.926 262.569 949.506 262.569C954.148 262.569 957.556 260.461 959.731 256.244V236.59C957.477 232.479 954.095 230.423 949.586 230.423C946.005 230.423 943.207 231.816 941.191 234.6C939.175 237.385 938.168 241.51 938.168 246.974ZM986.268 268.02H978.908V224.972H986.268V268.02ZM978.311 213.554C978.311 212.361 978.669 211.353 979.385 210.53C980.128 209.708 981.215 209.297 982.647 209.297C984.08 209.297 985.167 209.708 985.91 210.53C986.652 211.353 987.024 212.361 987.024 213.554C987.024 214.748 986.652 215.742 985.91 216.538C985.167 217.334 984.08 217.732 982.647 217.732C981.215 217.732 980.128 217.334 979.385 216.538C978.669 215.742 978.311 214.748 978.311 213.554ZM1023.15 256.602C1023.15 254.612 1022.39 253.074 1020.88 251.987C1019.4 250.873 1016.78 249.918 1013.04 249.122C1009.33 248.326 1006.37 247.372 1004.17 246.258C1002 245.144 1000.38 243.817 999.317 242.279C998.283 240.741 997.766 238.911 997.766 236.789C997.766 233.261 999.251 230.277 1002.22 227.837C1005.22 225.397 1009.04 224.177 1013.68 224.177C1018.56 224.177 1022.51 225.437 1025.54 227.956C1028.59 230.476 1030.11 233.699 1030.11 237.624H1022.71C1022.71 235.608 1021.85 233.871 1020.12 232.412C1018.43 230.954 1016.28 230.224 1013.68 230.224C1011 230.224 1008.91 230.808 1007.39 231.975C1005.88 233.142 1005.13 234.667 1005.13 236.55C1005.13 238.327 1005.83 239.666 1007.23 240.568C1008.64 241.47 1011.17 242.332 1014.83 243.154C1018.52 243.977 1021.5 244.958 1023.79 246.098C1026.07 247.239 1027.75 248.618 1028.84 250.236C1029.95 251.827 1030.51 253.777 1030.51 256.084C1030.51 259.93 1028.97 263.02 1025.89 265.354C1022.82 267.662 1018.83 268.816 1013.92 268.816C1010.47 268.816 1007.42 268.206 1004.77 266.986C1002.12 265.766 1000.03 264.068 998.522 261.893C997.036 259.692 996.294 257.318 996.294 254.772H1003.65C1003.79 257.238 1004.77 259.201 1006.6 260.66C1008.45 262.092 1010.89 262.808 1013.92 262.808C1016.7 262.808 1018.93 262.251 1020.6 261.137C1022.3 259.997 1023.15 258.485 1023.15 256.602ZM1050.08 214.549V224.972H1058.12V230.662H1050.08V257.358C1050.08 259.082 1050.44 260.381 1051.16 261.257C1051.87 262.105 1053.09 262.53 1054.82 262.53C1055.67 262.53 1056.83 262.371 1058.32 262.052V268.02C1056.38 268.55 1054.5 268.816 1052.67 268.816C1049.38 268.816 1046.9 267.821 1045.23 265.832C1043.56 263.843 1042.72 261.018 1042.72 257.358V230.662H1034.89V224.972H1042.72V214.549H1050.08ZM1084.62 268.816C1078.78 268.816 1074.03 266.906 1070.37 263.087C1066.71 259.241 1064.88 254.108 1064.88 247.69V246.337C1064.88 242.067 1065.69 238.261 1067.31 234.919C1068.95 231.55 1071.24 228.924 1074.15 227.041C1077.1 225.132 1080.28 224.177 1083.7 224.177C1089.3 224.177 1093.65 226.02 1096.75 229.707C1099.85 233.394 1101.41 238.672 1101.41 245.541V248.605H1072.24C1072.35 252.849 1073.58 256.283 1075.94 258.909C1078.33 261.509 1081.35 262.808 1085.01 262.808C1087.61 262.808 1089.82 262.278 1091.62 261.217C1093.42 260.156 1095 258.75 1096.35 257L1100.85 260.501C1097.24 266.044 1091.83 268.816 1084.62 268.816ZM1083.7 230.224C1080.73 230.224 1078.24 231.312 1076.22 233.487C1074.21 235.635 1072.96 238.659 1072.48 242.558H1094.05V242.001C1093.83 238.261 1092.83 235.37 1091.02 233.327C1089.22 231.259 1086.78 230.224 1083.7 230.224ZM1130.77 231.577C1129.65 231.391 1128.45 231.298 1127.15 231.298C1122.32 231.298 1119.04 233.354 1117.32 237.465V268.02H1109.96V224.972H1117.12L1117.24 229.946C1119.65 226.1 1123.08 224.177 1127.51 224.177C1128.94 224.177 1130.02 224.362 1130.77 224.734V231.577ZM1162.64 256.602C1162.64 254.612 1161.88 253.074 1160.37 251.987C1158.88 250.873 1156.27 249.918 1152.53 249.122C1148.82 248.326 1145.86 247.372 1143.66 246.258C1141.48 245.144 1139.86 243.817 1138.8 242.279C1137.77 240.741 1137.25 238.911 1137.25 236.789C1137.25 233.261 1138.74 230.277 1141.71 227.837C1144.71 225.397 1148.52 224.177 1153.17 224.177C1158.05 224.177 1162 225.437 1165.02 227.956C1168.07 230.476 1169.6 233.699 1169.6 237.624H1162.2C1162.2 235.608 1161.34 233.871 1159.61 232.412C1157.91 230.954 1155.77 230.224 1153.17 230.224C1150.49 230.224 1148.39 230.808 1146.88 231.975C1145.37 233.142 1144.61 234.667 1144.61 236.55C1144.61 238.327 1145.32 239.666 1146.72 240.568C1148.13 241.47 1150.66 242.332 1154.32 243.154C1158.01 243.977 1160.99 244.958 1163.27 246.098C1165.55 247.239 1167.24 248.618 1168.32 250.236C1169.44 251.827 1170 253.777 1170 256.084C1170 259.93 1168.46 263.02 1165.38 265.354C1162.3 267.662 1158.31 268.816 1153.41 268.816C1149.96 268.816 1146.91 268.206 1144.25 266.986C1141.6 265.766 1139.52 264.068 1138.01 261.893C1136.52 259.692 1135.78 257.318 1135.78 254.772H1143.14C1143.27 257.238 1144.25 259.201 1146.08 260.66C1147.94 262.092 1150.38 262.808 1153.41 262.808C1156.19 262.808 1158.42 262.251 1160.09 261.137C1161.79 259.997 1162.64 258.485 1162.64 256.602Z" fill="black"/>
<path d="M717.56 931.5H707.079V930.039L712.616 923.886C713.437 922.956 714.001 922.202 714.308 921.623C714.623 921.037 714.781 920.433 714.781 919.811C714.781 918.976 714.528 918.291 714.023 917.756C713.517 917.221 712.844 916.954 712.001 916.954C710.99 916.954 710.203 917.243 709.639 917.822C709.083 918.393 708.804 919.192 708.804 920.217H706.772C706.772 918.745 707.244 917.555 708.189 916.646C709.141 915.738 710.412 915.284 712.001 915.284C713.488 915.284 714.664 915.676 715.528 916.46C716.392 917.236 716.824 918.272 716.824 919.569C716.824 921.144 715.821 923.019 713.814 925.194L709.529 929.841H717.56V931.5ZM726.393 931.5H724.35V917.954L720.252 919.459V917.613L726.075 915.427H726.393V931.5Z" fill="black"/>
<path d="M464.413 378.628C485.007 399.222 485.007 432.612 464.413 453.206C443.819 473.8 410.43 473.8 389.836 453.206C369.241 432.612 369.241 399.222 389.836 378.628C410.43 358.034 443.819 358.034 464.413 378.628Z" fill="#5E5E5E"/>
<path d="M464.413 378.628C485.007 399.222 485.007 432.612 464.413 453.206C443.819 473.8 410.43 473.8 389.836 453.206C369.242 432.612 369.242 399.222 389.836 378.628C410.43 358.034 443.819 358.034 464.413 378.628V378.628Z" stroke="black" stroke-width="4"/>
<path d="M424.705 419.791C424.375 422.61 423.332 424.789 421.574 426.327C419.828 427.853 417.503 428.616 414.598 428.616C411.448 428.616 408.921 427.487 407.017 425.229C405.125 422.97 404.179 419.949 404.179 416.165V413.602C404.179 411.124 404.618 408.945 405.497 407.065C406.388 405.185 407.646 403.744 409.269 402.743C410.893 401.73 412.773 401.224 414.909 401.224C417.741 401.224 420.011 402.017 421.72 403.604C423.429 405.179 424.424 407.364 424.705 410.159H421.171C420.866 408.035 420.201 406.497 419.175 405.545C418.162 404.593 416.74 404.117 414.909 404.117C412.663 404.117 410.899 404.947 409.617 406.607C408.348 408.267 407.713 410.629 407.713 413.693V416.275C407.713 419.168 408.317 421.469 409.526 423.178C410.734 424.887 412.425 425.741 414.598 425.741C416.551 425.741 418.046 425.302 419.084 424.423C420.134 423.532 420.829 421.988 421.171 419.791H424.705ZM445.359 416.879C445.359 420.846 444.682 423.794 443.327 425.723C441.972 427.652 439.854 428.616 436.973 428.616C434.129 428.616 432.023 427.676 430.656 425.796C429.289 423.904 428.581 421.084 428.532 417.337V412.814C428.532 408.896 429.209 405.984 430.564 404.08C431.919 402.176 434.043 401.224 436.937 401.224C439.805 401.224 441.917 402.145 443.272 403.989C444.627 405.82 445.323 408.652 445.359 412.485V416.879ZM441.972 412.247C441.972 409.378 441.569 407.291 440.763 405.984C439.958 404.666 438.682 404.007 436.937 404.007C435.203 404.007 433.94 404.66 433.146 405.966C432.353 407.272 431.944 409.28 431.919 411.99V417.41C431.919 420.291 432.334 422.421 433.165 423.801C434.007 425.168 435.276 425.851 436.973 425.851C438.646 425.851 439.885 425.204 440.69 423.91C441.508 422.616 441.935 420.578 441.972 417.795V412.247Z" fill="white"/>
<path d="M462.704 568.575C483.298 589.169 483.298 622.559 462.704 643.153C442.11 663.747 408.721 663.747 388.127 643.153C367.533 622.559 367.533 589.169 388.127 568.575C408.721 547.981 442.11 547.981 462.704 568.575Z" fill="#5E5E5E"/>
<path d="M462.704 568.575C483.298 589.169 483.298 622.559 462.704 643.153C442.11 663.747 408.721 663.747 388.127 643.153C367.533 622.559 367.533 589.169 388.127 568.575C408.721 547.981 442.11 547.981 462.704 568.575V568.575Z" stroke="black" stroke-width="4"/>
<path d="M423.205 609.541C422.875 612.36 421.832 614.539 420.074 616.077C418.328 617.603 416.003 618.366 413.098 618.366C409.948 618.366 407.421 617.237 405.517 614.979C403.625 612.72 402.679 609.699 402.679 605.915V603.352C402.679 600.874 403.118 598.695 403.997 596.815C404.888 594.935 406.146 593.494 407.769 592.493C409.393 591.48 411.273 590.974 413.409 590.974C416.241 590.974 418.511 591.767 420.22 593.354C421.929 594.929 422.924 597.114 423.205 599.909H419.671C419.366 597.785 418.701 596.247 417.675 595.295C416.662 594.343 415.24 593.867 413.409 593.867C411.163 593.867 409.399 594.697 408.117 596.357C406.848 598.017 406.213 600.379 406.213 603.443V606.025C406.213 608.918 406.817 611.219 408.026 612.928C409.234 614.637 410.925 615.491 413.098 615.491C415.051 615.491 416.546 615.052 417.584 614.173C418.634 613.282 419.329 611.738 419.671 609.541H423.205ZM438.275 618H434.869V595.423L428.039 597.932V594.855L437.744 591.212H438.275V618Z" fill="white"/>
<path d="M852.94 356.667H1098.41C1105.34 356.667 1108.86 356.667 1112.6 357.852C1116.7 359.342 1119.92 362.565 1121.41 366.657C1122.59 370.397 1122.59 373.917 1122.59 380.958V450.983C1122.59 457.917 1122.59 461.437 1121.41 465.177C1119.92 469.269 1116.7 472.492 1112.6 473.982C1108.86 475.167 1105.34 475.167 1098.3 475.167H852.94C846.006 475.167 842.485 475.167 838.746 473.982C834.654 472.492 831.43 469.269 829.941 465.177C828.756 461.437 828.756 457.917 828.756 450.875V380.851C828.756 373.917 828.756 370.397 829.941 366.657C831.43 362.565 834.654 359.342 838.746 357.852C842.485 356.667 846.006 356.667 853.047 356.667H852.94Z" fill="#5E5E5E"/>
<path d="M852.94 356.667H1098.41C1105.34 356.667 1108.86 356.667 1112.6 357.852C1116.7 359.342 1119.92 362.565 1121.41 366.657C1122.59 370.397 1122.59 373.917 1122.59 380.958V450.983C1122.59 457.917 1122.59 461.437 1121.41 465.177C1119.92 469.269 1116.7 472.492 1112.6 473.982C1108.86 475.167 1105.34 475.167 1098.3 475.167H852.94C846.006 475.167 842.486 475.167 838.746 473.982C834.654 472.492 831.431 469.269 829.941 465.177C828.756 461.437 828.756 457.917 828.756 450.876V380.851C828.756 373.917 828.756 370.397 829.941 366.657C831.431 362.565 834.654 359.342 838.746 357.852C842.486 356.667 846.006 356.667 853.047 356.667H852.94Z" stroke="black" stroke-width="4"/>
<path d="M964.95 393.866C961.934 393 959.737 391.938 958.358 390.68C956.991 389.411 956.307 387.848 956.307 385.993C956.307 383.893 957.143 382.16 958.816 380.793C960.5 379.413 962.685 378.724 965.371 378.724C967.202 378.724 968.831 379.078 970.26 379.786C971.7 380.494 972.811 381.47 973.592 382.715C974.386 383.96 974.782 385.322 974.782 386.799H971.248C971.248 385.187 970.736 383.924 969.71 383.008C968.685 382.081 967.238 381.617 965.371 381.617C963.637 381.617 962.282 382.001 961.306 382.77C960.341 383.527 959.859 384.583 959.859 385.938C959.859 387.024 960.317 387.946 961.233 388.703C962.16 389.448 963.729 390.131 965.938 390.754C968.16 391.376 969.893 392.066 971.139 392.823C972.396 393.567 973.324 394.44 973.922 395.441C974.532 396.442 974.837 397.62 974.837 398.975C974.837 401.136 973.995 402.869 972.31 404.175C970.626 405.469 968.374 406.116 965.554 406.116C963.723 406.116 962.014 405.768 960.427 405.073C958.84 404.364 957.613 403.4 956.746 402.179C955.892 400.959 955.465 399.573 955.465 398.023H958.999C958.999 399.634 959.591 400.91 960.775 401.85C961.971 402.778 963.564 403.241 965.554 403.241C967.409 403.241 968.831 402.863 969.82 402.106C970.809 401.349 971.303 400.318 971.303 399.012C971.303 397.706 970.846 396.698 969.93 395.99C969.015 395.27 967.354 394.562 964.95 393.866ZM995.199 394.379C995.199 398.346 994.521 401.294 993.166 403.223C991.811 405.152 989.693 406.116 986.812 406.116C983.968 406.116 981.862 405.176 980.495 403.296C979.128 401.404 978.42 398.584 978.371 394.837V390.314C978.371 386.396 979.049 383.484 980.404 381.58C981.759 379.676 983.883 378.724 986.776 378.724C989.644 378.724 991.756 379.645 993.111 381.489C994.466 383.32 995.162 386.152 995.199 389.985V394.379ZM991.811 389.747C991.811 386.878 991.408 384.791 990.603 383.484C989.797 382.166 988.521 381.507 986.776 381.507C985.042 381.507 983.779 382.16 982.985 383.466C982.192 384.772 981.783 386.78 981.759 389.49V394.91C981.759 397.791 982.174 399.921 983.004 401.301C983.846 402.668 985.116 403.351 986.812 403.351C988.485 403.351 989.724 402.704 990.529 401.41C991.347 400.116 991.775 398.078 991.811 395.295V389.747Z" fill="white"/>
<path d="M875.653 417.68H912.457V454.671H875.653V417.68Z" fill="white"/>
<path d="M875.653 417.68H912.456V454.671H875.653V417.68Z" stroke="black" stroke-width="2"/>
<path d="M898.84 441.416H890.364L888.753 446.25H883.613L892.346 422.789H896.826L905.607 446.25H900.467L898.84 441.416ZM891.669 437.5H897.535L894.586 428.719L891.669 437.5Z" fill="black"/>
<path d="M462.704 758.521C483.298 779.115 483.298 812.505 462.704 833.099C442.11 853.693 408.721 853.693 388.127 833.099C367.533 812.505 367.533 779.115 388.127 758.521C408.721 737.927 442.11 737.927 462.704 758.521Z" fill="#5E5E5E"/>
<path d="M462.704 758.521C483.298 779.115 483.298 812.505 462.704 833.099C442.11 853.693 408.721 853.693 388.127 833.099C367.533 812.505 367.533 779.115 388.127 758.521C408.721 737.927 442.11 737.927 462.704 758.521V758.521Z" stroke="black" stroke-width="4"/>
<path d="M423.205 799.291C422.875 802.11 421.832 804.289 420.074 805.827C418.328 807.353 416.003 808.116 413.098 808.116C409.948 808.116 407.421 806.987 405.517 804.729C403.625 802.47 402.679 799.449 402.679 795.665V793.102C402.679 790.624 403.118 788.445 403.997 786.565C404.888 784.685 406.146 783.244 407.769 782.243C409.393 781.23 411.273 780.724 413.409 780.724C416.241 780.724 418.511 781.517 420.22 783.104C421.929 784.679 422.924 786.864 423.205 789.659H419.671C419.366 787.535 418.701 785.997 417.675 785.045C416.662 784.093 415.24 783.617 413.409 783.617C411.163 783.617 409.399 784.447 408.117 786.107C406.848 787.767 406.213 790.129 406.213 793.193V795.775C406.213 798.668 406.817 800.969 408.026 802.678C409.234 804.387 410.925 805.241 413.098 805.241C415.051 805.241 416.546 804.802 417.584 803.923C418.634 803.032 419.329 801.488 419.671 799.291H423.205ZM444.61 807.75H427.142V805.315L436.37 795.061C437.738 793.51 438.677 792.253 439.19 791.289C439.715 790.312 439.978 789.305 439.978 788.268C439.978 786.876 439.556 785.735 438.714 784.844C437.872 783.952 436.749 783.507 435.345 783.507C433.66 783.507 432.348 783.989 431.408 784.953C430.48 785.906 430.017 787.236 430.017 788.945H426.629C426.629 786.491 427.417 784.508 428.991 782.994C430.578 781.48 432.696 780.724 435.345 780.724C437.823 780.724 439.782 781.377 441.223 782.683C442.663 783.977 443.383 785.704 443.383 787.865C443.383 790.489 441.711 793.614 438.366 797.24L431.225 804.985H444.61V807.75Z" fill="white"/>
<path d="M916.462 417.68H953.266V454.671H916.462V417.68Z" fill="white"/>
<path d="M916.462 417.68H953.266V454.671H916.462V417.68Z" stroke="black" stroke-width="2"/>
<path d="M957.273 417.68H994.076V454.671H957.273V417.68Z" fill="white"/>
<path d="M957.273 417.68H994.077V454.671H957.273V417.68Z" stroke="black" stroke-width="2"/>
<path d="M998.083 417.68H1034.89V454.671H998.083V417.68Z" fill="white"/>
<path d="M998.083 417.68H1034.89V454.671H998.083V417.68Z" stroke="black" stroke-width="2"/>
<path d="M1052.14 447.712C1052.14 446.971 1052.39 446.369 1052.88 445.907C1053.39 445.445 1054.02 445.214 1054.77 445.214C1055.53 445.214 1056.16 445.445 1056.65 445.907C1057.16 446.369 1057.41 446.971 1057.41 447.712C1057.41 448.442 1057.16 449.039 1056.67 449.5C1056.18 449.952 1055.54 450.177 1054.77 450.177C1054.01 450.177 1053.38 449.952 1052.88 449.5C1052.39 449.039 1052.14 448.442 1052.14 447.712ZM1059.76 447.712C1059.76 446.971 1060.01 446.369 1060.51 445.907C1061.01 445.445 1061.64 445.214 1062.39 445.214C1063.15 445.214 1063.78 445.445 1064.28 445.907C1064.78 446.369 1065.03 446.971 1065.03 447.712C1065.03 448.442 1064.79 449.039 1064.29 449.5C1063.8 449.952 1063.16 450.177 1062.39 450.177C1061.63 450.177 1061 449.952 1060.51 449.5C1060.01 449.039 1059.76 448.442 1059.76 447.712ZM1067.24 447.712C1067.24 446.971 1067.49 446.369 1067.98 445.907C1068.49 445.445 1069.12 445.214 1069.87 445.214C1070.63 445.214 1071.26 445.445 1071.75 445.907C1072.26 446.369 1072.51 446.971 1072.51 447.712C1072.51 448.442 1072.26 449.039 1071.77 449.5C1071.27 449.952 1070.64 450.177 1069.87 450.177C1069.1 450.177 1068.48 449.952 1067.98 449.5C1067.49 449.039 1067.24 448.442 1067.24 447.712Z" fill="white"/>
<path d="M852.94 546.732H1098.41C1105.34 546.732 1108.86 546.732 1112.6 547.918C1116.7 549.407 1119.92 552.631 1121.41 556.723C1122.59 560.463 1122.59 563.983 1122.59 571.024V640.811C1122.59 647.745 1122.59 651.265 1121.41 655.005C1119.92 659.097 1116.7 662.321 1112.6 663.81C1108.86 664.995 1105.34 664.995 1098.3 664.995H852.94C846.006 664.995 842.485 664.995 838.746 663.81C834.654 662.321 831.43 659.097 829.941 655.005C828.756 651.265 828.756 647.745 828.756 640.704V570.916C828.756 563.983 828.756 560.463 829.941 556.723C831.43 552.631 834.654 549.407 838.746 547.918C842.485 546.732 846.006 546.732 853.047 546.732H852.94Z" fill="#5E5E5E"/>
<path d="M852.94 546.732H1098.41C1105.34 546.732 1108.86 546.732 1112.6 547.918C1116.7 549.407 1119.92 552.631 1121.41 556.723C1122.59 560.462 1122.59 563.983 1122.59 571.024V640.811C1122.59 647.745 1122.59 651.265 1121.41 655.005C1119.92 659.097 1116.7 662.32 1112.6 663.81C1108.86 664.995 1105.34 664.995 1098.3 664.995H852.94C846.006 664.995 842.486 664.995 838.746 663.81C834.654 662.32 831.431 659.097 829.941 655.005C828.756 651.265 828.756 647.745 828.756 640.704V570.916C828.756 563.983 828.756 560.462 829.941 556.723C831.431 552.631 834.654 549.407 838.746 547.918C842.486 546.732 846.006 546.732 853.047 546.732H852.94Z" stroke="black" stroke-width="4"/>
<path d="M964.95 584.366C961.934 583.5 959.737 582.438 958.358 581.18C956.991 579.911 956.307 578.348 956.307 576.493C956.307 574.393 957.143 572.66 958.816 571.293C960.5 569.913 962.685 569.224 965.371 569.224C967.202 569.224 968.831 569.578 970.26 570.286C971.7 570.994 972.811 571.97 973.592 573.215C974.386 574.46 974.782 575.822 974.782 577.299H971.248C971.248 575.687 970.736 574.424 969.71 573.508C968.685 572.581 967.238 572.117 965.371 572.117C963.637 572.117 962.282 572.501 961.306 573.27C960.341 574.027 959.859 575.083 959.859 576.438C959.859 577.524 960.317 578.446 961.233 579.203C962.16 579.948 963.729 580.631 965.938 581.254C968.16 581.876 969.893 582.566 971.139 583.323C972.396 584.067 973.324 584.94 973.922 585.941C974.532 586.942 974.837 588.12 974.837 589.475C974.837 591.636 973.995 593.369 972.31 594.675C970.626 595.969 968.374 596.616 965.554 596.616C963.723 596.616 962.014 596.268 960.427 595.573C958.84 594.864 957.613 593.9 956.746 592.679C955.892 591.459 955.465 590.073 955.465 588.523H958.999C958.999 590.134 959.591 591.41 960.775 592.35C961.971 593.278 963.564 593.741 965.554 593.741C967.409 593.741 968.831 593.363 969.82 592.606C970.809 591.849 971.303 590.818 971.303 589.512C971.303 588.206 970.846 587.198 969.93 586.49C969.015 585.77 967.354 585.062 964.95 584.366ZM989.614 596.25H986.208V573.673L979.378 576.182V573.105L989.083 569.462H989.614V596.25Z" fill="white"/>
<path d="M875.653 608.656H912.457V645.647H875.653V608.656Z" fill="white"/>
<path d="M875.653 608.656H912.456V645.647H875.653V608.656Z" stroke="black" stroke-width="2"/>
<path d="M885.595 637.5V614.039H893.812C896.659 614.039 898.818 614.587 900.29 615.683C901.762 616.768 902.497 618.363 902.497 620.468C902.497 621.618 902.202 622.633 901.611 623.514C901.02 624.384 900.199 625.023 899.146 625.431C900.349 625.732 901.294 626.339 901.982 627.252C902.68 628.165 903.029 629.282 903.029 630.604C903.029 632.859 902.309 634.567 900.87 635.728C899.431 636.888 897.379 637.479 894.715 637.5H885.595ZM890.429 627.284V633.617H894.57C895.708 633.617 896.595 633.348 897.228 632.811C897.873 632.263 898.195 631.511 898.195 630.555C898.195 628.407 897.083 627.316 894.86 627.284H890.429ZM890.429 623.868H894.006C896.444 623.825 897.663 622.853 897.663 620.952C897.663 619.888 897.352 619.125 896.729 618.664C896.117 618.191 895.144 617.955 893.812 617.955H890.429V623.868Z" fill="black"/>
<path d="M916.462 608.656H953.266V645.647H916.462V608.656Z" fill="white"/>
<path d="M916.462 608.656H953.266V645.647H916.462V608.656Z" stroke="black" stroke-width="2"/>
<path d="M957.273 608.656H994.076V645.647H957.273V608.656Z" fill="white"/>
<path d="M957.273 608.656H994.077V645.647H957.273V608.656Z" stroke="black" stroke-width="2"/>
<path d="M998.083 608.656H1034.89V645.647H998.083V608.656Z" fill="white"/>
<path d="M998.083 608.656H1034.89V645.647H998.083V608.656Z" stroke="black" stroke-width="2"/>
<path d="M1052.14 638.962C1052.14 638.221 1052.39 637.619 1052.88 637.157C1053.39 636.695 1054.02 636.464 1054.77 636.464C1055.53 636.464 1056.16 636.695 1056.65 637.157C1057.16 637.619 1057.41 638.221 1057.41 638.962C1057.41 639.692 1057.16 640.289 1056.67 640.75C1056.18 641.202 1055.54 641.427 1054.77 641.427C1054.01 641.427 1053.38 641.202 1052.88 640.75C1052.39 640.289 1052.14 639.692 1052.14 638.962ZM1059.76 638.962C1059.76 638.221 1060.01 637.619 1060.51 637.157C1061.01 636.695 1061.64 636.464 1062.39 636.464C1063.15 636.464 1063.78 636.695 1064.28 637.157C1064.78 637.619 1065.03 638.221 1065.03 638.962C1065.03 639.692 1064.79 640.289 1064.29 640.75C1063.8 641.202 1063.16 641.427 1062.39 641.427C1061.63 641.427 1061 641.202 1060.51 640.75C1060.01 640.289 1059.76 639.692 1059.76 638.962ZM1067.24 638.962C1067.24 638.221 1067.49 637.619 1067.98 637.157C1068.49 636.695 1069.12 636.464 1069.87 636.464C1070.63 636.464 1071.26 636.695 1071.75 637.157C1072.26 637.619 1072.51 638.221 1072.51 638.962C1072.51 639.692 1072.26 640.289 1071.77 640.75C1071.27 641.202 1070.64 641.427 1069.87 641.427C1069.1 641.427 1068.48 641.202 1067.98 640.75C1067.49 640.289 1067.24 639.692 1067.24 638.962Z" fill="white"/>
<path d="M852.94 736.56H1098.41C1105.34 736.56 1108.86 736.56 1112.6 737.745C1116.7 739.235 1119.92 742.458 1121.41 746.551C1122.59 750.29 1122.59 753.811 1122.59 760.852V830.876C1122.59 837.81 1122.59 841.33 1121.41 845.07C1119.92 849.162 1116.7 852.385 1112.6 853.875C1108.86 855.06 1105.34 855.06 1098.3 855.06H852.94C846.006 855.06 842.485 855.06 838.746 853.875C834.654 852.385 831.43 849.162 829.941 845.07C828.756 841.33 828.756 837.81 828.756 830.769V760.744C828.756 753.811 828.756 750.29 829.941 746.551C831.43 742.458 834.654 739.235 838.746 737.745C842.485 736.56 846.006 736.56 853.047 736.56H852.94Z" fill="#5E5E5E"/>
<path d="M852.94 736.56H1098.41C1105.34 736.56 1108.86 736.56 1112.6 737.745C1116.7 739.235 1119.92 742.458 1121.41 746.55C1122.59 750.29 1122.59 753.811 1122.59 760.852V830.876C1122.59 837.81 1122.59 841.33 1121.41 845.07C1119.92 849.162 1116.7 852.385 1112.6 853.875C1108.86 855.06 1105.34 855.06 1098.3 855.06H852.94C846.006 855.06 842.486 855.06 838.746 853.875C834.654 852.385 831.431 849.162 829.941 845.07C828.756 841.33 828.756 837.81 828.756 830.769V760.744C828.756 753.811 828.756 750.29 829.941 746.55C831.431 742.458 834.654 739.235 838.746 737.745C842.486 736.56 846.006 736.56 853.047 736.56H852.94Z" stroke="black" stroke-width="4"/>
<path d="M964.95 774.116C961.934 773.25 959.737 772.188 958.358 770.93C956.991 769.661 956.307 768.098 956.307 766.243C956.307 764.143 957.143 762.41 958.816 761.043C960.5 759.663 962.685 758.974 965.371 758.974C967.202 758.974 968.831 759.328 970.26 760.036C971.7 760.744 972.811 761.72 973.592 762.965C974.386 764.21 974.782 765.572 974.782 767.049H971.248C971.248 765.437 970.736 764.174 969.71 763.258C968.685 762.331 967.238 761.867 965.371 761.867C963.637 761.867 962.282 762.251 961.306 763.02C960.341 763.777 959.859 764.833 959.859 766.188C959.859 767.274 960.317 768.196 961.233 768.953C962.16 769.698 963.729 770.381 965.938 771.004C968.16 771.626 969.893 772.316 971.139 773.073C972.396 773.817 973.324 774.69 973.922 775.691C974.532 776.692 974.837 777.87 974.837 779.225C974.837 781.386 973.995 783.119 972.31 784.425C970.626 785.719 968.374 786.366 965.554 786.366C963.723 786.366 962.014 786.018 960.427 785.323C958.84 784.614 957.613 783.65 956.746 782.429C955.892 781.209 955.465 779.823 955.465 778.273H958.999C958.999 779.884 959.591 781.16 960.775 782.1C961.971 783.028 963.564 783.491 965.554 783.491C967.409 783.491 968.831 783.113 969.82 782.356C970.809 781.599 971.303 780.568 971.303 779.262C971.303 777.956 970.846 776.948 969.93 776.24C969.015 775.52 967.354 774.812 964.95 774.116ZM995.949 786H978.481V783.565L987.71 773.311C989.077 771.76 990.017 770.503 990.529 769.539C991.054 768.562 991.317 767.555 991.317 766.518C991.317 765.126 990.896 763.985 990.053 763.094C989.211 762.202 988.088 761.757 986.684 761.757C985 761.757 983.687 762.239 982.747 763.203C981.82 764.156 981.356 765.486 981.356 767.195H977.968C977.968 764.741 978.756 762.758 980.33 761.244C981.917 759.73 984.035 758.974 986.684 758.974C989.162 758.974 991.121 759.627 992.562 760.933C994.002 762.227 994.723 763.954 994.723 766.115C994.723 768.739 993.05 771.864 989.705 775.49L982.564 783.235H995.949V786Z" fill="white"/>
<path d="M875.653 799.631H912.457V836.623H875.653V799.631Z" fill="white"/>
<path d="M875.653 799.631H912.456V836.623H875.653V799.631Z" stroke="black" stroke-width="2"/>
<path d="M903.262 820.935C903.08 823.459 902.145 825.447 900.458 826.897C898.783 828.347 896.57 829.072 893.82 829.072C890.812 829.072 888.443 828.062 886.714 826.043C884.995 824.013 884.136 821.23 884.136 817.696V816.262C884.136 814.006 884.533 812.019 885.328 810.3C886.123 808.582 887.256 807.266 888.728 806.353C890.21 805.429 891.929 804.967 893.884 804.967C896.591 804.967 898.772 805.692 900.426 807.142C902.081 808.592 903.037 810.628 903.294 813.249H898.46C898.342 811.734 897.918 810.639 897.187 809.962C896.468 809.274 895.367 808.931 893.884 808.931C892.273 808.931 891.064 809.511 890.259 810.671C889.464 811.82 889.056 813.609 889.034 816.037V817.809C889.034 820.344 889.416 822.197 890.178 823.368C890.952 824.539 892.166 825.125 893.82 825.125C895.313 825.125 896.425 824.786 897.155 824.109C897.896 823.422 898.321 822.364 898.428 820.935H903.262Z" fill="black"/>
<path d="M916.462 799.631H953.266V836.623H916.462V799.631Z" fill="white"/>
<path d="M916.462 799.631H953.266V836.623H916.462V799.631Z" stroke="black" stroke-width="2"/>
<path d="M957.273 799.631H994.076V836.623H957.273V799.631Z" fill="white"/>
<path d="M957.273 799.631H994.077V836.623H957.273V799.631Z" stroke="black" stroke-width="2"/>
<path d="M998.083 799.631H1034.89V836.623H998.083V799.631Z" fill="white"/>
<path d="M998.083 799.631H1034.89V836.623H998.083V799.631Z" stroke="black" stroke-width="2"/>
<path d="M1052.14 829.462C1052.14 828.721 1052.39 828.119 1052.88 827.657C1053.39 827.195 1054.02 826.964 1054.77 826.964C1055.53 826.964 1056.16 827.195 1056.65 827.657C1057.16 828.119 1057.41 828.721 1057.41 829.462C1057.41 830.192 1057.17 830.789 1056.67 831.25C1056.18 831.702 1055.54 831.927 1054.77 831.927C1054.01 831.927 1053.38 831.702 1052.88 831.25C1052.39 830.789 1052.14 830.192 1052.14 829.462ZM1059.76 829.462C1059.76 828.721 1060.01 828.119 1060.51 827.657C1061.01 827.195 1061.64 826.964 1062.39 826.964C1063.15 826.964 1063.78 827.195 1064.28 827.657C1064.78 828.119 1065.03 828.721 1065.03 829.462C1065.03 830.192 1064.79 830.789 1064.29 831.25C1063.8 831.702 1063.16 831.927 1062.39 831.927C1061.63 831.927 1061 831.702 1060.51 831.25C1060.01 830.789 1059.76 830.192 1059.76 829.462ZM1067.24 829.462C1067.24 828.721 1067.49 828.119 1067.98 827.657C1068.49 827.195 1069.12 826.964 1069.87 826.964C1070.63 826.964 1071.26 827.195 1071.75 827.657C1072.26 828.119 1072.51 828.721 1072.51 829.462C1072.51 830.192 1072.26 830.789 1071.77 831.25C1071.27 831.702 1070.64 831.927 1069.87 831.927C1069.1 831.927 1068.48 831.702 1067.98 831.25C1067.49 830.789 1067.24 830.192 1067.24 829.462Z" fill="white"/>
<path d="M939.34 441.416H930.864L929.253 446.25H924.113L932.846 422.789H937.326L946.107 446.25H940.967L939.34 441.416ZM932.169 437.5H938.035L935.086 428.719L932.169 437.5Z" fill="black"/>
<path d="M939.34 631.916H930.864L929.253 636.75H924.113L932.846 613.289H937.326L946.107 636.75H940.967L939.34 631.916ZM932.169 628H938.035L935.086 619.219L932.169 628Z" fill="black"/>
<path d="M936.344 820.581H927.272V816.826H936.344V820.581Z" fill="black"/>
<path d="M771.45 416.366C768.435 415.5 766.237 414.438 764.858 413.18C763.491 411.911 762.807 410.348 762.807 408.493C762.807 406.393 763.643 404.66 765.316 403.293C767 401.913 769.185 401.224 771.871 401.224C773.702 401.224 775.332 401.578 776.76 402.286C778.2 402.994 779.311 403.97 780.092 405.215C780.886 406.46 781.282 407.822 781.282 409.299H777.749C777.749 407.687 777.236 406.424 776.21 405.508C775.185 404.581 773.739 404.117 771.871 404.117C770.137 404.117 768.782 404.501 767.806 405.27C766.842 406.027 766.359 407.083 766.359 408.438C766.359 409.524 766.817 410.446 767.733 411.203C768.66 411.948 770.229 412.631 772.438 413.254C774.66 413.876 776.394 414.566 777.639 415.323C778.896 416.067 779.824 416.94 780.422 417.941C781.032 418.942 781.337 420.12 781.337 421.475C781.337 423.636 780.495 425.369 778.811 426.675C777.126 427.969 774.874 428.616 772.054 428.616C770.223 428.616 768.514 428.268 766.927 427.573C765.34 426.864 764.113 425.9 763.247 424.679C762.392 423.459 761.965 422.073 761.965 420.523H765.499C765.499 422.134 766.091 423.41 767.275 424.35C768.471 425.278 770.064 425.741 772.054 425.741C773.909 425.741 775.332 425.363 776.32 424.606C777.309 423.849 777.803 422.818 777.803 421.512C777.803 420.206 777.346 419.198 776.43 418.49C775.515 417.77 773.854 417.062 771.45 416.366ZM801.699 416.879C801.699 420.846 801.021 423.794 799.666 425.723C798.311 427.652 796.193 428.616 793.312 428.616C790.468 428.616 788.363 427.676 786.995 425.796C785.628 423.904 784.92 421.084 784.871 417.337V412.814C784.871 408.896 785.549 405.984 786.904 404.08C788.259 402.176 790.383 401.224 793.276 401.224C796.145 401.224 798.256 402.145 799.611 403.989C800.966 405.82 801.662 408.652 801.699 412.485V416.879ZM798.311 412.247C798.311 409.378 797.908 407.291 797.103 405.984C796.297 404.666 795.021 404.007 793.276 404.007C791.542 404.007 790.279 404.66 789.486 405.966C788.692 407.272 788.283 409.28 788.259 411.99V417.41C788.259 420.291 788.674 422.421 789.504 423.801C790.346 425.168 791.616 425.851 793.312 425.851C794.985 425.851 796.224 425.204 797.03 423.91C797.847 422.616 798.275 420.578 798.311 417.795V412.247Z" fill="white"/>
<path d="M980.59 632.666H972.114L970.503 637.5H965.363L974.096 614.039H978.576L987.357 637.5H982.217L980.59 632.666ZM973.419 628.75H979.285L976.336 619.969L973.419 628.75Z" fill="black"/>
<path d="M976.094 820.581H967.022V816.826H976.094V820.581Z" fill="black"/>
</g>
<defs>
<clipPath id="clip0">
<rect width="1440" height="810" fill="white" transform="translate(0 135)"/>
</clipPath>
</defs>
</svg>
