<svg width="1440" height="1080" viewBox="0 0 1440 1080" fill="none" xmlns="http://www.w3.org/2000/svg">
<rect width="1440" height="1080" fill="white"/>
<g clip-path="url(#clip0)">
<path d="M0 135H1440V945H0V135Z" fill="white"/>
<path d="M360.937 243.896H335.057V265.061H365.121V271.5H327.182V211.781H364.711V218.262H335.057V237.457H360.937V243.896ZM388.623 243.322L398.467 227.121H407.326L392.807 249.064L407.777 271.5H399L388.746 254.889L378.492 271.5H369.674L384.644 249.064L370.125 227.121H378.902L388.623 243.322ZM442.805 271.5C442.367 270.625 442.012 269.066 441.738 266.824C438.211 270.488 434 272.32 429.105 272.32C424.73 272.32 421.135 271.09 418.318 268.629C415.529 266.141 414.135 262.996 414.135 259.195C414.135 254.574 415.885 250.992 419.385 248.449C422.912 245.879 427.861 244.594 434.232 244.594H441.615V241.107C441.615 238.455 440.822 236.35 439.236 234.791C437.65 233.205 435.312 232.412 432.223 232.412C429.516 232.412 427.246 233.096 425.414 234.463C423.582 235.83 422.666 237.484 422.666 239.426H415.037C415.037 237.211 415.816 235.078 417.375 233.027C418.961 230.949 421.094 229.309 423.773 228.105C426.48 226.902 429.447 226.301 432.674 226.301C437.787 226.301 441.793 227.586 444.691 230.156C447.59 232.699 449.094 236.213 449.203 240.697V261.123C449.203 265.197 449.723 268.437 450.762 270.844V271.5H442.805ZM430.213 265.717C432.592 265.717 434.848 265.102 436.98 263.871C439.113 262.641 440.658 261.041 441.615 259.072V249.967H435.668C426.371 249.967 421.723 252.687 421.723 258.129C421.723 260.508 422.516 262.367 424.102 263.707C425.687 265.047 427.725 265.717 430.213 265.717ZM468.234 227.121L468.439 232.043C471.693 228.215 476.082 226.301 481.605 226.301C487.812 226.301 492.037 228.68 494.279 233.437C495.756 231.305 497.67 229.582 500.021 228.27C502.4 226.957 505.203 226.301 508.43 226.301C518.164 226.301 523.113 231.455 523.277 241.764V271.5H515.689V242.215C515.689 239.043 514.965 236.678 513.516 235.119C512.066 233.533 509.633 232.74 506.215 232.74C503.398 232.74 501.061 233.588 499.201 235.283C497.342 236.951 496.262 239.207 495.961 242.051V271.5H488.332V242.42C488.332 235.967 485.174 232.74 478.857 232.74C473.881 232.74 470.477 234.859 468.644 239.098V271.5H461.057V227.121H468.234ZM572.25 249.803C572.25 256.557 570.705 261.998 567.615 266.127C564.525 270.256 560.342 272.32 555.064 272.32C549.678 272.32 545.439 270.611 542.35 267.193V288.562H534.762V227.121H541.693L542.062 232.043C545.152 228.215 549.445 226.301 554.941 226.301C560.273 226.301 564.484 228.311 567.574 232.33C570.691 236.35 572.25 241.941 572.25 249.105V249.803ZM564.662 248.941C564.662 243.937 563.596 239.986 561.463 237.088C559.33 234.189 556.404 232.74 552.685 232.74C548.092 232.74 544.646 234.777 542.35 238.852V260.057C544.619 264.104 548.092 266.127 552.768 266.127C556.404 266.127 559.289 264.691 561.422 261.82C563.582 258.922 564.662 254.629 564.662 248.941ZM590.174 271.5H582.586V208.5H590.174V271.5ZM620.771 272.32C614.756 272.32 609.861 270.352 606.088 266.414C602.314 262.449 600.428 257.158 600.428 250.541V249.146C600.428 244.744 601.262 240.82 602.93 237.375C604.625 233.902 606.977 231.195 609.984 229.254C613.019 227.285 616.301 226.301 619.828 226.301C625.598 226.301 630.082 228.201 633.281 232.002C636.48 235.803 638.08 241.244 638.08 248.326V251.484H608.016C608.125 255.859 609.396 259.4 611.83 262.107C614.291 264.787 617.408 266.127 621.182 266.127C623.861 266.127 626.131 265.58 627.99 264.486C629.85 263.393 631.477 261.943 632.871 260.139L637.506 263.748C633.787 269.463 628.209 272.32 620.771 272.32ZM619.828 232.535C616.766 232.535 614.195 233.656 612.117 235.898C610.039 238.113 608.754 241.23 608.262 245.25H630.492V244.676C630.273 240.82 629.234 237.84 627.375 235.734C625.516 233.602 623 232.535 619.828 232.535ZM693.574 259.729C693.574 257.678 692.795 256.092 691.236 254.971C689.705 253.822 687.012 252.838 683.156 252.018C679.328 251.197 676.279 250.213 674.01 249.064C671.768 247.916 670.1 246.549 669.006 244.963C667.939 243.377 667.406 241.49 667.406 239.303C667.406 235.666 668.937 232.59 672 230.074C675.09 227.559 679.027 226.301 683.812 226.301C688.844 226.301 692.918 227.6 696.035 230.197C699.18 232.795 700.752 236.117 700.752 240.164H693.123C693.123 238.086 692.234 236.295 690.457 234.791C688.707 233.287 686.492 232.535 683.812 232.535C681.051 232.535 678.891 233.137 677.332 234.34C675.773 235.543 674.994 237.115 674.994 239.057C674.994 240.889 675.719 242.27 677.168 243.199C678.617 244.129 681.228 245.018 685.002 245.865C688.803 246.713 691.879 247.725 694.23 248.9C696.582 250.076 698.318 251.498 699.439 253.166C700.588 254.807 701.162 256.816 701.162 259.195C701.162 263.16 699.576 266.346 696.404 268.752C693.232 271.131 689.117 272.32 684.059 272.32C680.504 272.32 677.359 271.691 674.625 270.434C671.891 269.176 669.744 267.426 668.185 265.184C666.654 262.914 665.889 260.467 665.889 257.842H673.477C673.613 260.385 674.625 262.408 676.512 263.912C678.426 265.389 680.941 266.127 684.059 266.127C686.93 266.127 689.227 265.553 690.949 264.404C692.699 263.229 693.574 261.67 693.574 259.729ZM721.342 216.375V227.121H729.627V232.986H721.342V260.508C721.342 262.285 721.711 263.625 722.449 264.527C723.187 265.402 724.445 265.84 726.223 265.84C727.098 265.84 728.301 265.676 729.832 265.348V271.5C727.836 272.047 725.894 272.32 724.008 272.32C720.617 272.32 718.06 271.295 716.338 269.244C714.615 267.193 713.754 264.281 713.754 260.508V232.986H705.674V227.121H713.754V216.375H721.342ZM765.926 271.5C765.488 270.625 765.133 269.066 764.859 266.824C761.332 270.488 757.121 272.32 752.226 272.32C747.851 272.32 744.256 271.09 741.439 268.629C738.65 266.141 737.256 262.996 737.256 259.195C737.256 254.574 739.006 250.992 742.506 248.449C746.033 245.879 750.982 244.594 757.353 244.594H764.736V241.107C764.736 238.455 763.943 236.35 762.357 234.791C760.771 233.205 758.434 232.412 755.344 232.412C752.637 232.412 750.367 233.096 748.535 234.463C746.703 235.83 745.787 237.484 745.787 239.426H738.158C738.158 237.211 738.937 235.078 740.496 233.027C742.082 230.949 744.215 229.309 746.894 228.105C749.601 226.902 752.568 226.301 755.795 226.301C760.908 226.301 764.914 227.586 767.812 230.156C770.711 232.699 772.215 236.213 772.324 240.697V261.123C772.324 265.197 772.844 268.437 773.883 270.844V271.5H765.926ZM753.334 265.717C755.713 265.717 757.969 265.102 760.101 263.871C762.234 262.641 763.779 261.041 764.736 259.072V249.967H758.789C749.492 249.967 744.844 252.687 744.844 258.129C744.844 260.508 745.637 262.367 747.223 263.707C748.809 265.047 750.846 265.717 753.334 265.717ZM794.514 216.375V227.121H802.799V232.986H794.514V260.508C794.514 262.285 794.883 263.625 795.621 264.527C796.359 265.402 797.617 265.84 799.394 265.84C800.269 265.84 801.473 265.676 803.004 265.348V271.5C801.008 272.047 799.066 272.32 797.18 272.32C793.789 272.32 791.232 271.295 789.51 269.244C787.787 267.193 786.926 264.281 786.926 260.508V232.986H778.846V227.121H786.926V216.375H794.514ZM830.115 272.32C824.1 272.32 819.205 270.352 815.432 266.414C811.658 262.449 809.771 257.158 809.771 250.541V249.146C809.771 244.744 810.605 240.82 812.273 237.375C813.969 233.902 816.32 231.195 819.328 229.254C822.363 227.285 825.644 226.301 829.172 226.301C834.941 226.301 839.426 228.201 842.625 232.002C845.824 235.803 847.424 241.244 847.424 248.326V251.484H817.359C817.469 255.859 818.74 259.4 821.174 262.107C823.635 264.787 826.752 266.127 830.525 266.127C833.205 266.127 835.475 265.58 837.334 264.486C839.193 263.393 840.82 261.943 842.215 260.139L846.85 263.748C843.131 269.463 837.553 272.32 830.115 272.32ZM829.172 232.535C826.109 232.535 823.539 233.656 821.461 235.898C819.383 238.113 818.098 241.23 817.605 245.25H839.836V244.676C839.617 240.82 838.578 237.84 836.719 235.734C834.859 233.602 832.344 232.535 829.172 232.535ZM887.373 216.375V227.121H895.658V232.986H887.373V260.508C887.373 262.285 887.742 263.625 888.48 264.527C889.219 265.402 890.476 265.84 892.254 265.84C893.129 265.84 894.332 265.676 895.863 265.348V271.5C893.867 272.047 891.926 272.32 890.039 272.32C886.648 272.32 884.092 271.295 882.369 269.244C880.646 267.193 879.785 264.281 879.785 260.508V232.986H871.705V227.121H879.785V216.375H887.373ZM931.957 271.5C931.519 270.625 931.164 269.066 930.891 266.824C927.363 270.488 923.152 272.32 918.258 272.32C913.883 272.32 910.287 271.09 907.471 268.629C904.682 266.141 903.287 262.996 903.287 259.195C903.287 254.574 905.037 250.992 908.537 248.449C912.064 245.879 917.014 244.594 923.385 244.594H930.767V241.107C930.767 238.455 929.975 236.35 928.389 234.791C926.803 233.205 924.465 232.412 921.375 232.412C918.668 232.412 916.398 233.096 914.566 234.463C912.734 235.83 911.818 237.484 911.818 239.426H904.189C904.189 237.211 904.969 235.078 906.527 233.027C908.113 230.949 910.246 229.309 912.926 228.105C915.633 226.902 918.6 226.301 921.826 226.301C926.939 226.301 930.945 227.586 933.844 230.156C936.742 232.699 938.246 236.213 938.355 240.697V261.123C938.355 265.197 938.875 268.437 939.914 270.844V271.5H931.957ZM919.365 265.717C921.744 265.717 924 265.102 926.133 263.871C928.266 262.641 929.81 261.041 930.767 259.072V249.967H924.82C915.523 249.967 910.875 252.687 910.875 258.129C910.875 260.508 911.668 262.367 913.254 263.707C914.84 265.047 916.877 265.717 919.365 265.717ZM987.82 249.803C987.82 256.584 986.262 262.039 983.144 266.168C980.027 270.27 975.844 272.32 970.594 272.32C964.988 272.32 960.654 270.338 957.592 266.373L957.223 271.5H950.25V208.5H957.838V232.002C960.9 228.201 965.125 226.301 970.512 226.301C975.898 226.301 980.123 228.338 983.185 232.412C986.275 236.486 987.82 242.064 987.82 249.146V249.803ZM980.232 248.941C980.232 243.773 979.234 239.781 977.238 236.965C975.242 234.148 972.371 232.74 968.625 232.74C963.621 232.74 960.025 235.064 957.838 239.713V258.908C960.162 263.557 963.785 265.881 968.707 265.881C972.344 265.881 975.174 264.473 977.197 261.656C979.221 258.84 980.232 254.602 980.232 248.941ZM1005.66 271.5H998.074V208.5H1005.66V271.5ZM1036.26 272.32C1030.24 272.32 1025.35 270.352 1021.58 266.414C1017.8 262.449 1015.92 257.158 1015.92 250.541V249.146C1015.92 244.744 1016.75 240.82 1018.42 237.375C1020.11 233.902 1022.46 231.195 1025.47 229.254C1028.51 227.285 1031.79 226.301 1035.32 226.301C1041.09 226.301 1045.57 228.201 1048.77 232.002C1051.97 235.803 1053.57 241.244 1053.57 248.326V251.484H1023.5C1023.61 255.859 1024.88 259.4 1027.32 262.107C1029.78 264.787 1032.9 266.127 1036.67 266.127C1039.35 266.127 1041.62 265.58 1043.48 264.486C1045.34 263.393 1046.96 261.943 1048.36 260.139L1052.99 263.748C1049.28 269.463 1043.7 272.32 1036.26 272.32ZM1035.32 232.535C1032.25 232.535 1029.68 233.656 1027.61 235.898C1025.53 238.113 1024.24 241.23 1023.75 245.25H1045.98V244.676C1045.76 240.82 1044.72 237.84 1042.86 235.734C1041 233.602 1038.49 232.535 1035.32 232.535Z" fill="black"/>
<path d="M717.56 931.5H707.079V930.039L712.616 923.886C713.437 922.956 714.001 922.202 714.308 921.623C714.623 921.037 714.781 920.433 714.781 919.811C714.781 918.976 714.528 918.291 714.023 917.756C713.517 917.221 712.843 916.954 712.001 916.954C710.99 916.954 710.203 917.243 709.639 917.822C709.082 918.393 708.804 919.192 708.804 920.217H706.772C706.772 918.745 707.244 917.555 708.189 916.646C709.141 915.738 710.412 915.284 712.001 915.284C713.488 915.284 714.664 915.676 715.528 916.46C716.392 917.236 716.824 918.272 716.824 919.569C716.824 921.144 715.821 923.019 713.814 925.194L709.529 929.841H717.56V931.5ZM730.195 931.5H719.714V930.039L725.251 923.886C726.071 922.956 726.635 922.202 726.943 921.623C727.258 921.037 727.415 920.433 727.415 919.811C727.415 918.976 727.162 918.291 726.657 917.756C726.152 917.221 725.478 916.954 724.635 916.954C723.625 916.954 722.837 917.243 722.273 917.822C721.717 918.393 721.438 919.192 721.438 920.217H719.406C719.406 918.745 719.878 917.555 720.823 916.646C721.775 915.738 723.046 915.284 724.635 915.284C726.122 915.284 727.298 915.676 728.162 916.46C729.026 917.236 729.458 918.272 729.458 919.569C729.458 921.144 728.455 923.019 726.448 925.194L722.164 929.841H730.195V931.5Z" fill="black"/>
<path d="M521.25 517.5H618.813V570H521.25V517.5Z" fill="#D6D5D5"/>
<path d="M618.813 517.5H716.376V570H618.813V517.5Z" fill="#D6D5D5"/>
<path d="M716.376 517.5H813.939V570H716.376V517.5Z" fill="#D6D5D5"/>
<path d="M813.939 517.5H911.503V570H813.939V517.5Z" fill="#D6D5D5"/>
<path d="M521.25 570H618.813V622.5H521.25V570Z" fill="#D6D5D5"/>
<path d="M521.25 622.5H618.813V675H521.25V622.5Z" fill="#D6D5D5"/>
<path d="M521.25 675H618.813V727.5H521.25V675Z" fill="#D6D5D5"/>
<path d="M660.455 549.505C660.455 548.468 660.089 547.674 659.356 547.125C658.624 546.563 657.305 545.978 655.401 545.367C653.497 544.745 651.989 544.134 650.878 543.536C647.851 541.9 646.337 539.697 646.337 536.926C646.337 535.486 646.74 534.204 647.546 533.081C648.364 531.946 649.529 531.061 651.043 530.426C652.569 529.791 654.278 529.474 656.17 529.474C658.074 529.474 659.771 529.822 661.26 530.517C662.75 531.201 663.903 532.171 664.721 533.429C665.551 534.686 665.966 536.114 665.966 537.713H660.473C660.473 536.493 660.089 535.547 659.32 534.875C658.55 534.192 657.47 533.85 656.079 533.85C654.736 533.85 653.692 534.137 652.947 534.71C652.203 535.272 651.831 536.017 651.831 536.944C651.831 537.811 652.264 538.537 653.131 539.123C654.009 539.709 655.297 540.259 656.994 540.771C660.119 541.711 662.396 542.877 663.824 544.269C665.252 545.66 665.966 547.394 665.966 549.469C665.966 551.776 665.093 553.589 663.348 554.907C661.602 556.213 659.252 556.866 656.298 556.866C654.248 556.866 652.38 556.494 650.695 555.749C649.011 554.992 647.723 553.961 646.832 552.655C645.953 551.349 645.513 549.835 645.513 548.114H651.025C651.025 551.056 652.783 552.527 656.298 552.527C657.604 552.527 658.624 552.264 659.356 551.739C660.089 551.202 660.455 550.458 660.455 549.505ZM687.078 545.477C687.078 549.164 686.315 551.983 684.789 553.937C683.264 555.89 681.03 556.866 678.088 556.866C675.183 556.866 672.961 555.908 671.423 553.991C669.885 552.075 669.097 549.328 669.061 545.752V540.844C669.061 537.121 669.83 534.295 671.368 532.367C672.918 530.438 675.146 529.474 678.051 529.474C680.956 529.474 683.178 530.432 684.716 532.348C686.254 534.253 687.042 536.993 687.078 540.57V545.477ZM681.787 540.094C681.787 537.884 681.481 536.279 680.871 535.278C680.273 534.265 679.333 533.758 678.051 533.758C676.806 533.758 675.884 534.24 675.286 535.205C674.7 536.157 674.389 537.652 674.352 539.691V546.173C674.352 548.346 674.645 549.963 675.231 551.025C675.83 552.075 676.782 552.6 678.088 552.6C679.382 552.6 680.316 552.093 680.889 551.08C681.463 550.067 681.762 548.517 681.787 546.429V540.094Z" fill="black"/>
<path d="M757.955 549.505C757.955 548.468 757.589 547.674 756.856 547.125C756.124 546.563 754.805 545.978 752.901 545.367C750.997 544.745 749.489 544.134 748.378 543.536C745.351 541.9 743.837 539.697 743.837 536.926C743.837 535.486 744.24 534.204 745.046 533.081C745.864 531.946 747.029 531.061 748.543 530.426C750.069 529.791 751.778 529.474 753.67 529.474C755.574 529.474 757.271 529.822 758.76 530.517C760.25 531.201 761.403 532.171 762.221 533.429C763.051 534.686 763.466 536.114 763.466 537.713H757.973C757.973 536.493 757.589 535.547 756.82 534.875C756.05 534.192 754.97 533.85 753.579 533.85C752.236 533.85 751.192 534.137 750.447 534.71C749.703 535.272 749.331 536.017 749.331 536.944C749.331 537.811 749.764 538.537 750.631 539.123C751.509 539.709 752.797 540.259 754.494 540.771C757.619 541.711 759.896 542.877 761.324 544.269C762.752 545.66 763.466 547.394 763.466 549.469C763.466 551.776 762.593 553.589 760.848 554.907C759.102 556.213 756.752 556.866 753.798 556.866C751.747 556.866 749.88 556.494 748.195 555.749C746.511 554.992 745.223 553.961 744.332 552.655C743.453 551.349 743.013 549.835 743.013 548.114H748.525C748.525 551.056 750.283 552.527 753.798 552.527C755.104 552.527 756.124 552.264 756.856 551.739C757.589 551.202 757.955 550.458 757.955 549.505ZM779.488 556.5H774.196V536.102L767.879 538.061V533.758L778.92 529.803H779.488V556.5Z" fill="black"/>
<path d="M855.455 549.505C855.455 548.468 855.089 547.674 854.356 547.125C853.624 546.563 852.305 545.978 850.401 545.367C848.497 544.745 846.989 544.134 845.878 543.536C842.851 541.9 841.337 539.697 841.337 536.926C841.337 535.486 841.74 534.204 842.546 533.081C843.364 531.946 844.529 531.061 846.043 530.426C847.569 529.791 849.278 529.474 851.17 529.474C853.074 529.474 854.771 529.822 856.26 530.517C857.75 531.201 858.903 532.171 859.721 533.429C860.551 534.686 860.966 536.114 860.966 537.713H855.473C855.473 536.493 855.089 535.547 854.32 534.875C853.55 534.192 852.47 533.85 851.079 533.85C849.736 533.85 848.692 534.137 847.947 534.71C847.203 535.272 846.831 536.017 846.831 536.944C846.831 537.811 847.264 538.537 848.131 539.123C849.009 539.709 850.297 540.259 851.994 540.771C855.119 541.711 857.396 542.877 858.824 544.269C860.252 545.66 860.966 547.394 860.966 549.469C860.966 551.776 860.093 553.589 858.348 554.907C856.602 556.213 854.252 556.866 851.298 556.866C849.247 556.866 847.38 556.494 845.695 555.749C844.011 554.992 842.723 553.961 841.832 552.655C840.953 551.349 840.513 549.835 840.513 548.114H846.025C846.025 551.056 847.783 552.527 851.298 552.527C852.604 552.527 853.624 552.264 854.356 551.739C855.089 551.202 855.455 550.458 855.455 549.505ZM882.408 556.5H864.134V552.875L872.758 543.683C873.942 542.389 874.815 541.26 875.377 540.295C875.95 539.331 876.237 538.415 876.237 537.549C876.237 536.365 875.938 535.437 875.34 534.765C874.742 534.082 873.887 533.74 872.777 533.74C871.58 533.74 870.634 534.155 869.938 534.985C869.255 535.803 868.913 536.883 868.913 538.226H863.603C863.603 536.603 863.987 535.119 864.757 533.777C865.538 532.434 866.636 531.384 868.052 530.627C869.468 529.858 871.074 529.474 872.868 529.474C875.615 529.474 877.745 530.133 879.258 531.451C880.784 532.77 881.547 534.631 881.547 537.036C881.547 538.354 881.206 539.697 880.522 541.064C879.838 542.431 878.666 544.024 877.006 545.843L870.945 552.234H882.408V556.5Z" fill="black"/>
<path d="M557.5 598.49H553.123V608.25H547.63V581.59H557.536C560.686 581.59 563.115 582.292 564.824 583.696C566.533 585.099 567.387 587.083 567.387 589.646C567.387 591.465 566.991 592.985 566.197 594.206C565.416 595.414 564.226 596.379 562.627 597.099L568.394 607.994V608.25H562.498L557.5 598.49ZM553.123 594.041H557.555C558.934 594.041 560.002 593.693 560.759 592.997C561.516 592.289 561.894 591.319 561.894 590.086C561.894 588.829 561.534 587.84 560.814 587.12C560.106 586.399 559.013 586.039 557.536 586.039H553.123V594.041ZM588.957 597.227C588.957 600.914 588.194 603.733 586.668 605.687C585.143 607.64 582.909 608.616 579.967 608.616C577.061 608.616 574.84 607.658 573.302 605.741C571.764 603.825 570.976 601.078 570.94 597.502V592.594C570.94 588.871 571.709 586.045 573.247 584.117C574.797 582.188 577.025 581.224 579.93 581.224C582.835 581.224 585.057 582.182 586.595 584.098C588.133 586.003 588.921 588.743 588.957 592.32V597.227ZM583.665 591.844C583.665 589.634 583.36 588.029 582.75 587.028C582.152 586.015 581.212 585.508 579.93 585.508C578.685 585.508 577.763 585.99 577.165 586.955C576.579 587.907 576.268 589.402 576.231 591.441V597.923C576.231 600.096 576.524 601.713 577.11 602.775C577.708 603.825 578.661 604.35 579.967 604.35C581.261 604.35 582.195 603.843 582.768 602.83C583.342 601.817 583.641 600.267 583.665 598.179V591.844Z" fill="black"/>
<path d="M672.566 601.292H661.397L658.888 608.25H655.263L665.443 581.59H668.519L678.718 608.25H675.111L672.566 601.292ZM662.459 598.399H671.522L666.981 585.929L662.459 598.399Z" fill="black"/>
<path d="M757.594 608.25V581.59H766.31C769.203 581.59 771.376 582.188 772.829 583.384C774.294 584.581 775.026 586.351 775.026 588.694C775.026 589.939 774.672 591.044 773.964 592.009C773.256 592.961 772.292 593.699 771.071 594.224C772.511 594.627 773.647 595.396 774.477 596.531C775.319 597.654 775.74 598.997 775.74 600.56C775.74 602.952 774.965 604.832 773.415 606.199C771.864 607.566 769.673 608.25 766.841 608.25H757.594ZM761.11 595.781V605.375H766.914C768.55 605.375 769.838 604.954 770.778 604.112C771.73 603.257 772.206 602.085 772.206 600.596C772.206 597.386 770.461 595.781 766.969 595.781H761.11ZM761.11 592.961H766.42C767.958 592.961 769.185 592.576 770.101 591.807C771.028 591.038 771.492 589.994 771.492 588.676C771.492 587.211 771.065 586.149 770.21 585.49C769.356 584.819 768.056 584.483 766.31 584.483H761.11V592.961Z" fill="black"/>
<path d="M871.705 599.791C871.375 602.61 870.332 604.789 868.574 606.327C866.828 607.853 864.503 608.616 861.598 608.616C858.448 608.616 855.921 607.487 854.017 605.229C852.125 602.97 851.179 599.949 851.179 596.165V593.602C851.179 591.124 851.618 588.945 852.497 587.065C853.388 585.185 854.646 583.744 856.269 582.743C857.893 581.73 859.773 581.224 861.909 581.224C864.741 581.224 867.011 582.017 868.72 583.604C870.429 585.179 871.424 587.364 871.705 590.159H868.171C867.866 588.035 867.201 586.497 866.175 585.545C865.162 584.593 863.74 584.117 861.909 584.117C859.663 584.117 857.899 584.947 856.617 586.607C855.348 588.267 854.713 590.629 854.713 593.693V596.275C854.713 599.168 855.317 601.469 856.526 603.178C857.734 604.887 859.425 605.741 861.598 605.741C863.551 605.741 865.046 605.302 866.084 604.423C867.133 603.532 867.829 601.988 868.171 599.791H871.705Z" fill="black"/>
<path d="M557.5 650.99H553.123V660.75H547.63V634.09H557.536C560.686 634.09 563.115 634.792 564.824 636.196C566.533 637.599 567.387 639.583 567.387 642.146C567.387 643.965 566.991 645.485 566.197 646.706C565.416 647.914 564.226 648.879 562.627 649.599L568.394 660.494V660.75H562.498L557.5 650.99ZM553.123 646.541H557.555C558.934 646.541 560.002 646.193 560.759 645.497C561.516 644.789 561.894 643.819 561.894 642.586C561.894 641.329 561.534 640.34 560.814 639.62C560.106 638.899 559.013 638.539 557.536 638.539H553.123V646.541ZM583.867 660.75H578.575V640.352L572.258 642.311V638.008L583.299 634.053H583.867V660.75Z" fill="black"/>
<path d="M672.566 653.792H661.397L658.888 660.75H655.263L665.443 634.09H668.519L678.718 660.75H675.111L672.566 653.792ZM662.459 650.899H671.522L666.981 638.429L662.459 650.899Z" fill="black"/>
<path d="M770.066 653.792H758.897L756.388 660.75H752.763L762.943 634.09H766.019L776.218 660.75H772.611L770.066 653.792ZM759.959 650.899H769.022L764.481 638.429L759.959 650.899Z" fill="black"/>
<path d="M860.863 650.807H851.927V648.042H860.863V650.807Z" fill="black"/>
<path d="M557.5 703.49H553.123V713.25H547.63V686.59H557.536C560.686 686.59 563.115 687.292 564.824 688.696C566.533 690.099 567.387 692.083 567.387 694.646C567.387 696.465 566.991 697.985 566.197 699.206C565.416 700.414 564.226 701.379 562.627 702.099L568.394 712.994V713.25H562.498L557.5 703.49ZM553.123 699.041H557.555C558.934 699.041 560.002 698.693 560.759 697.997C561.516 697.289 561.894 696.319 561.894 695.086C561.894 693.829 561.534 692.84 560.814 692.12C560.106 691.399 559.013 691.039 557.536 691.039H553.123V699.041ZM589.287 713.25H571.013V709.625L579.637 700.433C580.821 699.139 581.694 698.01 582.256 697.045C582.829 696.081 583.116 695.165 583.116 694.299C583.116 693.115 582.817 692.187 582.219 691.515C581.621 690.832 580.766 690.49 579.655 690.49C578.459 690.49 577.513 690.905 576.817 691.735C576.134 692.553 575.792 693.633 575.792 694.976H570.482C570.482 693.353 570.866 691.869 571.635 690.527C572.417 689.184 573.515 688.134 574.931 687.377C576.347 686.608 577.953 686.224 579.747 686.224C582.494 686.224 584.624 686.883 586.137 688.201C587.663 689.52 588.426 691.381 588.426 693.786C588.426 695.104 588.084 696.447 587.401 697.814C586.717 699.181 585.545 700.774 583.885 702.593L577.824 708.984H589.287V713.25Z" fill="black"/>
<path d="M770.066 706.292H758.897L756.388 713.25H752.763L762.943 686.59H766.019L776.218 713.25H772.611L770.066 706.292ZM759.959 703.399H769.022L764.481 690.929L759.959 703.399Z" fill="black"/>
<path d="M860.863 703.307H851.927V700.542H860.863V703.307Z" fill="black"/>
<path d="M716.376 516V570" stroke="black" stroke-dasharray="2 2"/>
<path d="M716.376 516V729" stroke="black" stroke-dasharray="2 2"/>
<path d="M813.939 516V570" stroke="black" stroke-dasharray="2 2"/>
<path d="M813.939 516V729" stroke="black" stroke-dasharray="2 2"/>
<path d="M519.75 622.5H618.813" stroke="black" stroke-dasharray="2 2"/>
<path d="M519.75 622.5H913.002" stroke="black" stroke-dasharray="2 2"/>
<path d="M519.75 675H618.813" stroke="black" stroke-dasharray="2 2"/>
<path d="M519.75 675H913.002" stroke="black" stroke-dasharray="2 2"/>
<path d="M618.813 516V570" stroke="black" stroke-dasharray="2 2"/>
<path d="M618.813 570V729" stroke="black"/>
<path d="M519.75 570H913.002" stroke="black"/>
<path d="M521.25 516V570" stroke="black" stroke-width="4"/>
<path d="M521.25 570V729" stroke="black" stroke-width="4"/>
<path d="M911.502 516V570" stroke="black" stroke-width="4"/>
<path d="M911.502 570V729" stroke="black" stroke-width="4"/>
<path d="M519.75 517.5H913.002" stroke="black" stroke-width="4"/>
<path d="M519.75 727.5H618.813" stroke="black" stroke-width="4"/>
<path d="M618.813 727.5H913.002" stroke="black" stroke-width="4"/>
<path d="M972.037 594.631C969.124 594.631 966.763 596.992 966.763 599.904V634.428L893.311 643.357L968.357 652.498C969.308 653.431 970.6 654.021 972.037 654.021H1109.15C1112.06 654.021 1114.42 651.66 1114.42 648.748V599.904C1114.42 596.992 1112.06 594.631 1109.15 594.631H972.037Z" fill="#5E5E5E"/>
<path d="M1039.83 636H1036.3L1022.88 615.456V636H1019.34V609.34H1022.88L1036.34 629.976V609.34H1039.83V636ZM1049.23 636H1045.84V616.188H1049.23V636ZM1045.57 610.933C1045.57 610.384 1045.73 609.92 1046.06 609.541C1046.4 609.163 1046.9 608.974 1047.56 608.974C1048.22 608.974 1048.72 609.163 1049.06 609.541C1049.4 609.92 1049.58 610.384 1049.58 610.933C1049.58 611.482 1049.4 611.94 1049.06 612.306C1048.72 612.672 1048.22 612.855 1047.56 612.855C1046.9 612.855 1046.4 612.672 1046.06 612.306C1045.73 611.94 1045.57 611.482 1045.57 610.933ZM1058.35 636H1054.96V607.875H1058.35V636Z" fill="white"/>
<path d="M648.458 359.35C645.545 359.35 643.184 361.711 643.184 364.624V430.202C643.184 431.566 643.74 432.781 644.591 433.717L654.059 538.342L663.364 435.475H776.263C779.175 435.475 781.536 433.114 781.536 430.202V364.624C781.536 361.711 779.175 359.35 776.263 359.35H648.458Z" fill="#5E5E5E"/>
<path d="M667.2 397.616C664.185 396.75 661.987 395.688 660.608 394.43C659.241 393.161 658.557 391.598 658.557 389.743C658.557 387.643 659.393 385.91 661.066 384.543C662.75 383.163 664.935 382.474 667.621 382.474C669.452 382.474 671.081 382.828 672.51 383.536C673.95 384.244 675.061 385.22 675.842 386.465C676.636 387.71 677.032 389.072 677.032 390.549H673.498C673.498 388.937 672.986 387.674 671.96 386.758C670.935 385.831 669.488 385.367 667.621 385.367C665.887 385.367 664.532 385.751 663.556 386.52C662.592 387.277 662.109 388.333 662.109 389.688C662.109 390.774 662.567 391.696 663.483 392.453C664.41 393.198 665.979 393.881 668.188 394.504C670.41 395.126 672.144 395.816 673.389 396.573C674.646 397.317 675.574 398.19 676.172 399.191C676.782 400.192 677.087 401.37 677.087 402.725C677.087 404.886 676.245 406.619 674.56 407.925C672.876 409.219 670.624 409.866 667.804 409.866C665.973 409.866 664.264 409.518 662.677 408.823C661.09 408.114 659.863 407.15 658.997 405.929C658.142 404.709 657.715 403.323 657.715 401.773H661.249C661.249 403.384 661.841 404.66 663.025 405.6C664.221 406.528 665.814 406.991 667.804 406.991C669.659 406.991 671.081 406.613 672.07 405.856C673.059 405.099 673.553 404.068 673.553 402.762C673.553 401.456 673.096 400.448 672.18 399.74C671.265 399.02 669.604 398.312 667.2 397.616ZM689.3 409.866C686.615 409.866 684.43 408.987 682.745 407.229C681.061 405.459 680.218 403.097 680.218 400.143V399.521C680.218 397.555 680.591 395.804 681.335 394.266C682.092 392.715 683.142 391.507 684.485 390.64C685.84 389.761 687.305 389.322 688.879 389.322C691.455 389.322 693.457 390.17 694.885 391.867C696.313 393.564 697.028 395.993 697.028 399.155V400.564H683.606C683.655 402.518 684.222 404.098 685.309 405.307C686.407 406.503 687.799 407.101 689.484 407.101C690.68 407.101 691.693 406.857 692.523 406.369C693.353 405.881 694.08 405.234 694.702 404.428L696.771 406.039C695.111 408.591 692.621 409.866 689.3 409.866ZM688.879 392.105C687.512 392.105 686.365 392.605 685.437 393.606C684.509 394.595 683.935 395.987 683.716 397.781H693.64V397.525C693.542 395.804 693.079 394.473 692.248 393.533C691.418 392.581 690.295 392.105 688.879 392.105ZM710.541 392.728C710.028 392.642 709.473 392.599 708.874 392.599C706.653 392.599 705.145 393.545 704.352 395.437V409.5H700.964V389.688H704.26L704.315 391.977C705.426 390.207 707.001 389.322 709.039 389.322C709.698 389.322 710.199 389.407 710.541 389.578V392.728ZM720.538 404.904L725.445 389.688H728.906L721.802 409.5H719.22L712.042 389.688H715.503L720.538 404.904ZM740.131 409.866C737.445 409.866 735.26 408.987 733.575 407.229C731.891 405.459 731.049 403.097 731.049 400.143V399.521C731.049 397.555 731.421 395.804 732.165 394.266C732.922 392.715 733.972 391.507 735.315 390.64C736.67 389.761 738.135 389.322 739.709 389.322C742.285 389.322 744.287 390.17 745.715 391.867C747.143 393.564 747.858 395.993 747.858 399.155V400.564H734.436C734.485 402.518 735.052 404.098 736.139 405.307C737.237 406.503 738.629 407.101 740.314 407.101C741.51 407.101 742.523 406.857 743.353 406.369C744.183 405.881 744.91 405.234 745.532 404.428L747.601 406.039C745.941 408.591 743.451 409.866 740.131 409.866ZM739.709 392.105C738.342 392.105 737.195 392.605 736.267 393.606C735.339 394.595 734.766 395.987 734.546 397.781H744.47V397.525C744.373 395.804 743.909 394.473 743.079 393.533C742.248 392.581 741.125 392.105 739.709 392.105ZM761.371 392.728C760.858 392.642 760.303 392.599 759.705 392.599C757.483 392.599 755.975 393.545 755.182 395.437V409.5H751.794V389.688H755.09L755.145 391.977C756.256 390.207 757.831 389.322 759.869 389.322C760.529 389.322 761.029 389.407 761.371 389.578V392.728Z" fill="white"/>
<path d="M208.1 622.938C203.653 622.938 200.038 626.553 200.038 631V698.453C200.038 702.9 203.653 706.516 208.1 706.516H445.499C449.946 706.516 453.538 702.9 453.538 698.453V674.688L526.85 658.586L453.538 642.484V631C453.538 626.553 449.946 622.938 445.499 622.938H208.1Z" fill="#5E5E5E"/>
<path d="M280.664 664.177H269.11V673.625H282.532V676.5H265.594V649.84H282.349V652.733H269.11V661.302H280.664V664.177ZM303.113 666.814C303.113 669.829 302.423 672.258 301.044 674.101C299.664 675.945 297.797 676.866 295.441 676.866C293.036 676.866 291.144 676.103 289.764 674.577V684.117H286.377V656.688H289.471L289.636 658.885C291.016 657.176 292.932 656.322 295.386 656.322C297.766 656.322 299.646 657.219 301.025 659.013C302.417 660.808 303.113 663.304 303.113 666.502V666.814ZM299.725 666.429C299.725 664.195 299.249 662.431 298.297 661.137C297.345 659.844 296.039 659.197 294.379 659.197C292.328 659.197 290.79 660.106 289.764 661.925V671.391C290.778 673.198 292.328 674.101 294.415 674.101C296.039 674.101 297.327 673.46 298.279 672.179C299.243 670.885 299.725 668.968 299.725 666.429ZM306.537 666.411C306.537 664.47 306.915 662.724 307.672 661.174C308.441 659.624 309.503 658.427 310.858 657.585C312.225 656.743 313.782 656.322 315.527 656.322C318.225 656.322 320.404 657.256 322.064 659.123C323.737 660.991 324.573 663.475 324.573 666.576V666.814C324.573 668.742 324.2 670.476 323.456 672.014C322.723 673.54 321.667 674.73 320.288 675.584C318.921 676.439 317.346 676.866 315.564 676.866C312.878 676.866 310.699 675.932 309.027 674.065C307.367 672.197 306.537 669.725 306.537 666.649V666.411ZM309.943 666.814C309.943 669.011 310.449 670.775 311.462 672.105C312.488 673.436 313.855 674.101 315.564 674.101C317.285 674.101 318.652 673.43 319.665 672.087C320.679 670.732 321.185 668.84 321.185 666.411C321.185 664.238 320.666 662.48 319.629 661.137C318.603 659.782 317.236 659.105 315.527 659.105C313.855 659.105 312.506 659.77 311.481 661.101C310.455 662.431 309.943 664.336 309.943 666.814ZM336.768 674.101C337.976 674.101 339.032 673.735 339.935 673.003C340.839 672.27 341.339 671.355 341.437 670.256H344.641C344.58 671.391 344.189 672.472 343.469 673.497C342.749 674.522 341.785 675.34 340.576 675.951C339.38 676.561 338.11 676.866 336.768 676.866C334.07 676.866 331.921 675.969 330.322 674.175C328.735 672.368 327.942 669.902 327.942 666.777V666.209C327.942 664.281 328.296 662.566 329.004 661.064C329.712 659.563 330.725 658.397 332.043 657.567C333.374 656.737 334.943 656.322 336.749 656.322C338.971 656.322 340.814 656.987 342.279 658.318C343.756 659.648 344.543 661.375 344.641 663.5H341.437C341.339 662.218 340.851 661.168 339.972 660.35C339.105 659.52 338.031 659.105 336.749 659.105C335.028 659.105 333.691 659.728 332.739 660.973C331.799 662.206 331.329 663.994 331.329 666.338V666.979C331.329 669.261 331.799 671.019 332.739 672.252C333.679 673.485 335.022 674.101 336.768 674.101ZM351.837 659.087C353.339 657.243 355.292 656.322 357.696 656.322C361.884 656.322 363.995 658.684 364.032 663.408V676.5H360.644V663.39C360.632 661.961 360.303 660.906 359.656 660.222C359.021 659.538 358.026 659.197 356.671 659.197C355.572 659.197 354.608 659.49 353.778 660.075C352.948 660.661 352.301 661.43 351.837 662.383V676.5H348.45V648.375H351.837V659.087ZM380.64 671.245C380.64 670.329 380.292 669.621 379.596 669.121C378.912 668.608 377.71 668.169 375.989 667.802C374.28 667.436 372.919 666.997 371.905 666.484C370.905 665.971 370.16 665.361 369.672 664.653C369.196 663.945 368.957 663.103 368.957 662.126C368.957 660.503 369.641 659.129 371.008 658.006C372.388 656.883 374.145 656.322 376.282 656.322C378.528 656.322 380.347 656.902 381.738 658.061C383.142 659.221 383.844 660.704 383.844 662.511H380.438C380.438 661.583 380.041 660.783 379.248 660.112C378.467 659.441 377.478 659.105 376.282 659.105C375.049 659.105 374.084 659.374 373.389 659.911C372.693 660.448 372.345 661.15 372.345 662.016C372.345 662.834 372.668 663.451 373.315 663.866C373.962 664.281 375.128 664.677 376.813 665.056C378.509 665.434 379.883 665.886 380.933 666.411C381.982 666.936 382.758 667.571 383.258 668.315C383.771 669.048 384.027 669.945 384.027 671.007C384.027 672.777 383.319 674.199 381.903 675.273C380.487 676.335 378.65 676.866 376.392 676.866C374.805 676.866 373.401 676.585 372.18 676.024C370.959 675.462 370.001 674.681 369.305 673.68C368.622 672.667 368.28 671.574 368.28 670.403H371.667C371.728 671.538 372.18 672.441 373.022 673.113C373.877 673.772 375 674.101 376.392 674.101C377.673 674.101 378.699 673.845 379.468 673.332C380.249 672.807 380.64 672.112 380.64 671.245Z" fill="white"/>
<path d="M533.46 597.294L393.397 622.958H208.1C203.653 622.958 200.038 626.574 200.038 631.021V705.481C200.038 709.928 203.653 713.521 208.1 713.521H445.499C449.946 713.521 453.538 709.928 453.538 705.481V646.372L533.46 597.294Z" fill="#5E5E5E"/>
<path d="M222.872 669.465H216.61V680.25H213.076V653.59H221.902C224.905 653.59 227.212 654.273 228.823 655.641C230.447 657.008 231.259 658.998 231.259 661.61C231.259 663.27 230.807 664.717 229.904 665.949C229.012 667.182 227.767 668.104 226.168 668.714L232.43 680.03V680.25H228.658L222.872 669.465ZM216.61 666.59H222.012C223.757 666.59 225.143 666.139 226.168 665.235C227.206 664.332 227.725 663.124 227.725 661.61C227.725 659.962 227.23 658.698 226.241 657.82C225.265 656.941 223.849 656.495 221.993 656.483H216.61V666.59ZM243.893 680.616C241.207 680.616 239.022 679.737 237.338 677.979C235.653 676.209 234.811 673.847 234.811 670.893V670.271C234.811 668.305 235.183 666.554 235.928 665.016C236.685 663.465 237.734 662.257 239.077 661.39C240.432 660.511 241.897 660.072 243.472 660.072C246.047 660.072 248.049 660.92 249.478 662.617C250.906 664.314 251.62 666.743 251.62 669.905V671.314H238.198C238.247 673.268 238.815 674.848 239.901 676.057C241 677.253 242.391 677.851 244.076 677.851C245.272 677.851 246.285 677.607 247.115 677.119C247.946 676.631 248.672 675.984 249.294 675.178L251.363 676.789C249.703 679.341 247.213 680.616 243.893 680.616ZM243.472 662.855C242.104 662.855 240.957 663.355 240.029 664.356C239.102 665.345 238.528 666.737 238.308 668.531H248.232V668.275C248.135 666.554 247.671 665.223 246.841 664.283C246.011 663.331 244.888 662.855 243.472 662.855ZM254.751 670.179C254.751 667.091 255.465 664.637 256.893 662.818C258.321 660.987 260.214 660.072 262.57 660.072C264.987 660.072 266.873 660.926 268.228 662.635L268.392 660.438H271.487V679.774C271.487 682.337 270.724 684.358 269.198 685.835C267.684 687.312 265.646 688.05 263.082 688.05C261.654 688.05 260.256 687.745 258.889 687.135C257.522 686.524 256.478 685.688 255.758 684.626L257.516 682.594C258.968 684.388 260.745 685.285 262.844 685.285C264.492 685.285 265.774 684.822 266.689 683.894C267.617 682.966 268.081 681.66 268.081 679.975V678.272C266.726 679.835 264.877 680.616 262.533 680.616C260.214 680.616 258.334 679.682 256.893 677.815C255.465 675.947 254.751 673.402 254.751 670.179ZM258.157 670.564C258.157 672.798 258.614 674.555 259.53 675.837C260.446 677.107 261.727 677.741 263.375 677.741C265.511 677.741 267.08 676.771 268.081 674.83V665.785C267.043 663.893 265.487 662.947 263.412 662.947C261.764 662.947 260.476 663.587 259.548 664.869C258.621 666.151 258.157 668.049 258.157 670.564ZM280.294 680.25H276.907V660.438H280.294V680.25ZM276.632 655.183C276.632 654.634 276.797 654.17 277.126 653.791C277.468 653.413 277.969 653.224 278.628 653.224C279.287 653.224 279.788 653.413 280.129 653.791C280.471 654.17 280.642 654.634 280.642 655.183C280.642 655.732 280.471 656.19 280.129 656.556C279.788 656.922 279.287 657.105 278.628 657.105C277.969 657.105 277.468 656.922 277.126 656.556C276.797 656.19 276.632 655.732 276.632 655.183ZM297.268 674.995C297.268 674.079 296.92 673.371 296.224 672.871C295.541 672.358 294.338 671.919 292.617 671.552C290.908 671.186 289.547 670.747 288.534 670.234C287.533 669.721 286.788 669.111 286.3 668.403C285.824 667.695 285.586 666.853 285.586 665.876C285.586 664.253 286.269 662.879 287.637 661.756C289.016 660.633 290.774 660.072 292.91 660.072C295.156 660.072 296.975 660.652 298.367 661.811C299.77 662.971 300.472 664.454 300.472 666.261H297.067C297.067 665.333 296.67 664.533 295.876 663.862C295.095 663.191 294.106 662.855 292.91 662.855C291.677 662.855 290.713 663.124 290.017 663.661C289.321 664.198 288.973 664.9 288.973 665.766C288.973 666.584 289.297 667.201 289.944 667.616C290.591 668.031 291.757 668.427 293.441 668.806C295.138 669.184 296.511 669.636 297.561 670.161C298.611 670.686 299.386 671.321 299.886 672.065C300.399 672.798 300.655 673.695 300.655 674.757C300.655 676.527 299.947 677.949 298.531 679.023C297.115 680.085 295.278 680.616 293.02 680.616C291.433 680.616 290.029 680.335 288.809 679.774C287.588 679.212 286.63 678.431 285.934 677.43C285.25 676.417 284.908 675.324 284.908 674.153H288.296C288.357 675.288 288.809 676.191 289.651 676.863C290.505 677.522 291.628 677.851 293.02 677.851C294.302 677.851 295.327 677.595 296.096 677.082C296.877 676.557 297.268 675.862 297.268 674.995ZM309.664 655.641V660.438H313.363V663.056H309.664V675.343C309.664 676.136 309.829 676.734 310.159 677.137C310.488 677.528 311.05 677.723 311.843 677.723C312.234 677.723 312.771 677.65 313.455 677.503V680.25C312.563 680.494 311.697 680.616 310.854 680.616C309.341 680.616 308.199 680.158 307.43 679.243C306.661 678.327 306.277 677.027 306.277 675.343V663.056H302.67V660.438H306.277V655.641H309.664ZM325.558 680.616C322.872 680.616 320.687 679.737 319.003 677.979C317.318 676.209 316.476 673.847 316.476 670.893V670.271C316.476 668.305 316.848 666.554 317.593 665.016C318.35 663.465 319.399 662.257 320.742 661.39C322.097 660.511 323.562 660.072 325.137 660.072C327.712 660.072 329.714 660.92 331.143 662.617C332.571 664.314 333.285 666.743 333.285 669.905V671.314H319.863C319.912 673.268 320.48 674.848 321.566 676.057C322.665 677.253 324.056 677.851 325.741 677.851C326.937 677.851 327.95 677.607 328.78 677.119C329.611 676.631 330.337 675.984 330.959 675.178L333.029 676.789C331.368 679.341 328.878 680.616 325.558 680.616ZM325.137 662.855C323.769 662.855 322.622 663.355 321.694 664.356C320.767 665.345 320.193 666.737 319.973 668.531H329.897V668.275C329.8 666.554 329.336 665.223 328.506 664.283C327.676 663.331 326.553 662.855 325.137 662.855ZM346.798 663.478C346.285 663.392 345.73 663.349 345.132 663.349C342.91 663.349 341.403 664.295 340.609 666.187V680.25H337.222V660.438H340.518L340.572 662.727C341.683 660.957 343.258 660.072 345.297 660.072C345.956 660.072 346.456 660.157 346.798 660.328V663.478ZM370.767 674.995C370.767 674.079 370.419 673.371 369.723 672.871C369.039 672.358 367.837 671.919 366.116 671.552C364.407 671.186 363.046 670.747 362.032 670.234C361.031 669.721 360.287 669.111 359.799 668.403C359.322 667.695 359.084 666.853 359.084 665.876C359.084 664.253 359.768 662.879 361.135 661.756C362.515 660.633 364.272 660.072 366.409 660.072C368.655 660.072 370.474 660.652 371.865 661.811C373.269 662.971 373.971 664.454 373.971 666.261H370.565C370.565 665.333 370.168 664.533 369.375 663.862C368.594 663.191 367.605 662.855 366.409 662.855C365.176 662.855 364.211 663.124 363.516 663.661C362.82 664.198 362.472 664.9 362.472 665.766C362.472 666.584 362.795 667.201 363.442 667.616C364.089 668.031 365.255 668.427 366.94 668.806C368.636 669.184 370.01 669.636 371.06 670.161C372.109 670.686 372.884 671.321 373.385 672.065C373.898 672.798 374.154 673.695 374.154 674.757C374.154 676.527 373.446 677.949 372.03 679.023C370.614 680.085 368.777 680.616 366.519 680.616C364.932 680.616 363.528 680.335 362.307 679.774C361.086 679.212 360.128 678.431 359.432 677.43C358.749 676.417 358.407 675.324 358.407 674.153H361.794C361.855 675.288 362.307 676.191 363.149 676.863C364.004 677.522 365.127 677.851 366.519 677.851C367.8 677.851 368.826 677.595 369.595 677.082C370.376 676.557 370.767 675.862 370.767 674.995ZM386.788 680.616C384.103 680.616 381.918 679.737 380.233 677.979C378.549 676.209 377.706 673.847 377.706 670.893V670.271C377.706 668.305 378.079 666.554 378.823 665.016C379.58 663.465 380.63 662.257 381.973 661.39C383.328 660.511 384.792 660.072 386.367 660.072C388.943 660.072 390.945 660.92 392.373 662.617C393.801 664.314 394.515 666.743 394.515 669.905V671.314H381.094C381.143 673.268 381.71 674.848 382.797 676.057C383.895 677.253 385.287 677.851 386.971 677.851C388.168 677.851 389.181 677.607 390.011 677.119C390.841 676.631 391.567 675.984 392.19 675.178L394.259 676.789C392.599 679.341 390.109 680.616 386.788 680.616ZM386.367 662.855C385 662.855 383.852 663.355 382.925 664.356C381.997 665.345 381.423 666.737 381.204 668.531H391.128V668.275C391.03 666.554 390.566 665.223 389.736 664.283C388.906 663.331 387.783 662.855 386.367 662.855ZM403.048 655.641V660.438H406.747V663.056H403.048V675.343C403.048 676.136 403.213 676.734 403.542 677.137C403.872 677.528 404.434 677.723 405.227 677.723C405.618 677.723 406.155 677.65 406.838 677.503V680.25C405.947 680.494 405.081 680.616 404.238 680.616C402.725 680.616 401.583 680.158 400.814 679.243C400.045 678.327 399.661 677.027 399.661 675.343V663.056H396.053V660.438H399.661V655.641H403.048ZM422.256 674.995C422.256 674.079 421.908 673.371 421.212 672.871C420.529 672.358 419.326 671.919 417.605 671.552C415.896 671.186 414.535 670.747 413.522 670.234C412.521 669.721 411.776 669.111 411.288 668.403C410.812 667.695 410.574 666.853 410.574 665.876C410.574 664.253 411.257 662.879 412.624 661.756C414.004 660.633 415.762 660.072 417.898 660.072C420.144 660.072 421.963 660.652 423.354 661.811C424.758 662.971 425.46 664.454 425.46 666.261H422.054C422.054 665.333 421.658 664.533 420.864 663.862C420.083 663.191 419.094 662.855 417.898 662.855C416.665 662.855 415.701 663.124 415.005 663.661C414.309 664.198 413.961 664.9 413.961 665.766C413.961 666.584 414.285 667.201 414.932 667.616C415.579 668.031 416.744 668.427 418.429 668.806C420.126 669.184 421.499 669.636 422.549 670.161C423.599 670.686 424.374 671.321 424.874 672.065C425.387 672.798 425.643 673.695 425.643 674.757C425.643 676.527 424.935 677.949 423.519 679.023C422.103 680.085 420.266 680.616 418.008 680.616C416.421 680.616 415.017 680.335 413.796 679.774C412.576 679.212 411.617 678.431 410.922 677.43C410.238 676.417 409.896 675.324 409.896 674.153H413.284C413.345 675.288 413.796 676.191 414.639 676.863C415.493 677.522 416.616 677.851 418.008 677.851C419.29 677.851 420.315 677.595 421.084 677.082C421.865 676.557 422.256 675.862 422.256 674.995Z" fill="white"/>
<path d="M629.696 352.226C626.784 352.226 624.423 354.587 624.423 357.499V435.077C624.423 437.99 626.784 440.351 629.696 440.351H803.18L855.844 516.194L818.321 417.686V357.499C818.321 354.587 815.96 352.226 813.048 352.226H629.696Z" fill="#5E5E5E"/>
<path d="M666.45 396.116C663.435 395.25 661.237 394.188 659.858 392.93C658.491 391.661 657.807 390.098 657.807 388.243C657.807 386.143 658.643 384.41 660.316 383.043C662 381.663 664.185 380.974 666.871 380.974C668.702 380.974 670.331 381.328 671.76 382.036C673.2 382.744 674.311 383.72 675.092 384.965C675.886 386.21 676.282 387.572 676.282 389.049H672.748C672.748 387.437 672.236 386.174 671.21 385.258C670.185 384.331 668.738 383.867 666.871 383.867C665.137 383.867 663.782 384.251 662.806 385.02C661.842 385.777 661.359 386.833 661.359 388.188C661.359 389.274 661.817 390.196 662.733 390.953C663.66 391.698 665.229 392.381 667.438 393.004C669.66 393.626 671.394 394.316 672.639 395.073C673.896 395.817 674.824 396.69 675.422 397.691C676.032 398.692 676.337 399.87 676.337 401.225C676.337 403.386 675.495 405.119 673.81 406.425C672.126 407.719 669.874 408.366 667.054 408.366C665.223 408.366 663.514 408.018 661.927 407.323C660.34 406.614 659.113 405.65 658.247 404.429C657.392 403.209 656.965 401.823 656.965 400.273H660.499C660.499 401.884 661.091 403.16 662.275 404.1C663.471 405.028 665.064 405.491 667.054 405.491C668.909 405.491 670.331 405.113 671.32 404.356C672.309 403.599 672.803 402.568 672.803 401.262C672.803 399.956 672.346 398.948 671.43 398.24C670.515 397.52 668.854 396.812 666.45 396.116ZM688.55 408.366C685.865 408.366 683.68 407.487 681.995 405.729C680.311 403.959 679.468 401.597 679.468 398.643V398.021C679.468 396.055 679.841 394.304 680.585 392.766C681.342 391.215 682.392 390.007 683.735 389.14C685.09 388.261 686.555 387.822 688.129 387.822C690.705 387.822 692.707 388.67 694.135 390.367C695.563 392.064 696.278 394.493 696.278 397.655V399.064H682.856C682.905 401.018 683.472 402.598 684.559 403.807C685.657 405.003 687.049 405.601 688.734 405.601C689.93 405.601 690.943 405.357 691.773 404.869C692.603 404.381 693.33 403.734 693.952 402.928L696.021 404.539C694.361 407.091 691.871 408.366 688.55 408.366ZM688.129 390.605C686.762 390.605 685.615 391.105 684.687 392.106C683.759 393.095 683.185 394.487 682.966 396.281H692.89V396.025C692.792 394.304 692.329 392.973 691.498 392.033C690.668 391.081 689.545 390.605 688.129 390.605ZM709.791 391.228C709.278 391.142 708.723 391.099 708.124 391.099C705.903 391.099 704.395 392.045 703.602 393.937V408H700.214V388.188H703.51L703.565 390.477C704.676 388.707 706.251 387.822 708.289 387.822C708.948 387.822 709.449 387.907 709.791 388.078V391.228ZM719.788 403.404L724.695 388.188H728.156L721.052 408H718.47L711.292 388.188H714.753L719.788 403.404ZM739.381 408.366C736.695 408.366 734.51 407.487 732.825 405.729C731.141 403.959 730.299 401.597 730.299 398.643V398.021C730.299 396.055 730.671 394.304 731.415 392.766C732.172 391.215 733.222 390.007 734.565 389.14C735.92 388.261 737.385 387.822 738.959 387.822C741.535 387.822 743.537 388.67 744.965 390.367C746.393 392.064 747.108 394.493 747.108 397.655V399.064H733.686C733.735 401.018 734.302 402.598 735.389 403.807C736.487 405.003 737.879 405.601 739.564 405.601C740.76 405.601 741.773 405.357 742.603 404.869C743.433 404.381 744.16 403.734 744.782 402.928L746.851 404.539C745.191 407.091 742.701 408.366 739.381 408.366ZM738.959 390.605C737.592 390.605 736.445 391.105 735.517 392.106C734.589 393.095 734.016 394.487 733.796 396.281H743.72V396.025C743.623 394.304 743.159 392.973 742.329 392.033C741.498 391.081 740.375 390.605 738.959 390.605ZM760.621 391.228C760.108 391.142 759.553 391.099 758.955 391.099C756.733 391.099 755.225 392.045 754.432 393.937V408H751.044V388.188H754.34L754.395 390.477C755.506 388.707 757.081 387.822 759.119 387.822C759.779 387.822 760.279 387.907 760.621 388.078V391.228ZM775.288 402.745C775.288 401.829 774.94 401.121 774.244 400.621C773.56 400.108 772.358 399.669 770.637 399.302C768.928 398.936 767.567 398.497 766.553 397.984C765.552 397.471 764.808 396.861 764.32 396.153C763.843 395.445 763.605 394.603 763.605 393.626C763.605 392.003 764.289 390.629 765.656 389.506C767.036 388.383 768.793 387.822 770.93 387.822C773.176 387.822 774.995 388.402 776.386 389.561C777.79 390.721 778.492 392.204 778.492 394.011H775.086C775.086 393.083 774.689 392.283 773.896 391.612C773.115 390.941 772.126 390.605 770.93 390.605C769.697 390.605 768.732 390.874 768.037 391.411C767.341 391.948 766.993 392.65 766.993 393.516C766.993 394.334 767.316 394.951 767.963 395.366C768.61 395.781 769.776 396.177 771.461 396.556C773.157 396.934 774.531 397.386 775.581 397.911C776.63 398.436 777.405 399.071 777.906 399.815C778.419 400.548 778.675 401.445 778.675 402.507C778.675 404.277 777.967 405.699 776.551 406.773C775.135 407.835 773.298 408.366 771.039 408.366C769.453 408.366 768.049 408.085 766.828 407.524C765.607 406.962 764.649 406.181 763.953 405.18C763.27 404.167 762.928 403.074 762.928 401.903H766.315C766.376 403.038 766.828 403.941 767.67 404.613C768.525 405.272 769.648 405.601 771.039 405.601C772.321 405.601 773.347 405.345 774.116 404.832C774.897 404.307 775.288 403.612 775.288 402.745Z" fill="white"/>
<path d="M972.037 594.631C969.124 594.631 966.763 596.992 966.763 599.904V638.764L888.974 703.123L986.099 654.022H1109.15C1112.06 654.022 1114.42 651.661 1114.42 648.748V599.904C1114.42 596.992 1112.06 594.631 1109.15 594.631H972.037Z" fill="#5E5E5E"/>
<path d="M1039.83 636H1036.3L1022.88 615.456V636H1019.34V609.34H1022.88L1036.34 629.976V609.34H1039.83V636ZM1049.23 636H1045.84V616.188H1049.23V636ZM1045.57 610.933C1045.57 610.384 1045.73 609.92 1046.06 609.541C1046.4 609.163 1046.9 608.974 1047.56 608.974C1048.22 608.974 1048.72 609.163 1049.06 609.541C1049.4 609.92 1049.58 610.384 1049.58 610.933C1049.58 611.482 1049.4 611.94 1049.06 612.306C1048.72 612.672 1048.22 612.855 1047.56 612.855C1046.9 612.855 1046.4 612.672 1046.06 612.306C1045.73 611.94 1045.57 611.482 1045.57 610.933ZM1058.35 636H1054.96V607.875H1058.35V636Z" fill="white"/>
</g>
<defs>
<clipPath id="clip0">
<rect width="1440" height="810" fill="white" transform="translate(0 135)"/>
</clipPath>
</defs>
</svg>
