<svg width="1440" height="1080" viewBox="0 0 1440 1080" fill="none" xmlns="http://www.w3.org/2000/svg">
<rect width="1440" height="1080" fill="white"/>
<g clip-path="url(#clip0)">
<path d="M0 135H1440V945H0V135Z" fill="white"/>
<path d="M385.354 211.781L404.877 260.508L424.4 211.781H434.613V271.5H426.738V248.244L427.477 223.143L407.871 271.5H401.842L382.277 223.266L383.057 248.244V271.5H375.182V211.781H385.354ZM474.727 271.5C474.289 270.625 473.934 269.066 473.66 266.824C470.133 270.488 465.922 272.32 461.027 272.32C456.652 272.32 453.057 271.09 450.24 268.629C447.451 266.141 446.057 262.996 446.057 259.195C446.057 254.574 447.807 250.992 451.307 248.449C454.834 245.879 459.783 244.594 466.154 244.594H473.537V241.107C473.537 238.455 472.744 236.35 471.158 234.791C469.572 233.205 467.234 232.412 464.145 232.412C461.437 232.412 459.168 233.096 457.336 234.463C455.504 235.83 454.588 237.484 454.588 239.426H446.959C446.959 237.211 447.738 235.078 449.297 233.027C450.883 230.949 453.016 229.309 455.695 228.105C458.402 226.902 461.369 226.301 464.596 226.301C469.709 226.301 473.715 227.586 476.613 230.156C479.512 232.699 481.016 236.213 481.125 240.697V261.123C481.125 265.197 481.645 268.437 482.684 270.844V271.5H474.727ZM462.135 265.717C464.514 265.717 466.77 265.102 468.902 263.871C471.035 262.641 472.58 261.041 473.537 259.072V249.967H467.59C458.293 249.967 453.645 252.687 453.645 258.129C453.645 260.508 454.437 262.367 456.023 263.707C457.609 265.047 459.646 265.717 462.135 265.717ZM505.406 250.951L500.648 255.914V271.5H493.061V208.5H500.648V246.604L504.709 241.723L518.531 227.121H527.76L510.492 245.66L529.77 271.5H520.869L505.406 250.951ZM543.838 271.5H536.25V227.121H543.838V271.5ZM535.635 215.35C535.635 214.119 536.004 213.08 536.742 212.232C537.508 211.385 538.629 210.961 540.105 210.961C541.582 210.961 542.703 211.385 543.469 212.232C544.234 213.08 544.617 214.119 544.617 215.35C544.617 216.58 544.234 217.605 543.469 218.426C542.703 219.246 541.582 219.656 540.105 219.656C538.629 219.656 537.508 219.246 536.742 218.426C536.004 217.605 535.635 216.58 535.635 215.35ZM563.197 227.121L563.443 232.699C566.834 228.434 571.264 226.301 576.732 226.301C586.111 226.301 590.842 231.592 590.924 242.174V271.5H583.336V242.133C583.309 238.934 582.57 236.568 581.121 235.037C579.699 233.506 577.471 232.74 574.436 232.74C571.975 232.74 569.814 233.396 567.955 234.709C566.096 236.021 564.646 237.744 563.607 239.877V271.5H556.02V227.121H563.197ZM600.562 248.941C600.562 242.023 602.162 236.527 605.361 232.453C608.561 228.352 612.799 226.301 618.076 226.301C623.49 226.301 627.715 228.215 630.75 232.043L631.119 227.121H638.051V270.434C638.051 276.176 636.342 280.701 632.924 284.01C629.533 287.318 624.967 288.973 619.225 288.973C616.025 288.973 612.895 288.289 609.832 286.922C606.77 285.555 604.432 283.682 602.818 281.303L606.756 276.75C610.01 280.77 613.988 282.779 618.691 282.779C622.383 282.779 625.254 281.74 627.305 279.662C629.383 277.584 630.422 274.658 630.422 270.885V267.07C627.387 270.57 623.244 272.32 617.994 272.32C612.799 272.32 608.588 270.229 605.361 266.045C602.162 261.861 600.562 256.16 600.562 248.941ZM608.191 249.803C608.191 254.807 609.217 258.744 611.268 261.615C613.318 264.459 616.189 265.881 619.881 265.881C624.666 265.881 628.18 263.707 630.422 259.359V239.098C628.098 234.859 624.611 232.74 619.963 232.74C616.271 232.74 613.387 234.176 611.309 237.047C609.23 239.918 608.191 244.17 608.191 249.803ZM668.525 248.941C668.525 242.133 670.139 236.664 673.365 232.535C676.592 228.379 680.816 226.301 686.039 226.301C691.234 226.301 695.35 228.078 698.385 231.633V208.5H705.973V271.5H699L698.631 266.742C695.596 270.461 691.371 272.32 685.957 272.32C680.816 272.32 676.619 270.215 673.365 266.004C670.139 261.793 668.525 256.297 668.525 249.516V248.941ZM676.113 249.803C676.113 254.834 677.152 258.771 679.23 261.615C681.309 264.459 684.18 265.881 687.844 265.881C692.656 265.881 696.17 263.721 698.385 259.4V239.016C696.115 234.832 692.629 232.74 687.926 232.74C684.207 232.74 681.309 234.176 679.23 237.047C677.152 239.918 676.113 244.17 676.113 249.803ZM736.201 272.32C730.186 272.32 725.291 270.352 721.518 266.414C717.744 262.449 715.857 257.158 715.857 250.541V249.146C715.857 244.744 716.691 240.82 718.359 237.375C720.055 233.902 722.406 231.195 725.414 229.254C728.449 227.285 731.73 226.301 735.258 226.301C741.027 226.301 745.512 228.201 748.711 232.002C751.91 235.803 753.51 241.244 753.51 248.326V251.484H723.445C723.555 255.859 724.826 259.4 727.26 262.107C729.721 264.787 732.838 266.127 736.611 266.127C739.291 266.127 741.561 265.58 743.42 264.486C745.279 263.393 746.906 261.943 748.301 260.139L752.936 263.748C749.217 269.463 743.639 272.32 736.201 272.32ZM735.258 232.535C732.195 232.535 729.625 233.656 727.547 235.898C725.469 238.113 724.184 241.23 723.691 245.25H745.922V244.676C745.703 240.82 744.664 237.84 742.805 235.734C740.945 233.602 738.43 232.535 735.258 232.535ZM780.129 266.127C782.836 266.127 785.201 265.307 787.225 263.666C789.248 262.025 790.369 259.975 790.588 257.514H797.766C797.629 260.057 796.754 262.477 795.141 264.773C793.527 267.07 791.367 268.902 788.66 270.27C785.98 271.637 783.137 272.32 780.129 272.32C774.086 272.32 769.273 270.311 765.691 266.291C762.137 262.244 760.359 256.721 760.359 249.721V248.449C760.359 244.129 761.152 240.287 762.738 236.924C764.324 233.561 766.594 230.949 769.547 229.09C772.527 227.23 776.041 226.301 780.088 226.301C785.064 226.301 789.193 227.791 792.475 230.771C795.783 233.752 797.547 237.621 797.766 242.379H790.588C790.369 239.508 789.275 237.156 787.307 235.324C785.365 233.465 782.959 232.535 780.088 232.535C776.232 232.535 773.238 233.93 771.105 236.719C769 239.48 767.947 243.486 767.947 248.736V250.172C767.947 255.285 769 259.223 771.105 261.984C773.211 264.746 776.219 266.127 780.129 266.127ZM814.541 271.5H806.953V227.121H814.541V271.5ZM806.338 215.35C806.338 214.119 806.707 213.08 807.445 212.232C808.211 211.385 809.332 210.961 810.809 210.961C812.285 210.961 813.406 211.385 814.172 212.232C814.937 213.08 815.32 214.119 815.32 215.35C815.32 216.58 814.937 217.605 814.172 218.426C813.406 219.246 812.285 219.656 810.809 219.656C809.332 219.656 808.211 219.246 807.445 218.426C806.707 217.605 806.338 216.58 806.338 215.35ZM852.562 259.729C852.562 257.678 851.783 256.092 850.225 254.971C848.693 253.822 846 252.838 842.144 252.018C838.316 251.197 835.268 250.213 832.998 249.064C830.756 247.916 829.088 246.549 827.994 244.963C826.928 243.377 826.394 241.49 826.394 239.303C826.394 235.666 827.926 232.59 830.988 230.074C834.078 227.559 838.016 226.301 842.801 226.301C847.832 226.301 851.906 227.6 855.023 230.197C858.168 232.795 859.74 236.117 859.74 240.164H852.111C852.111 238.086 851.223 236.295 849.445 234.791C847.695 233.287 845.48 232.535 842.801 232.535C840.039 232.535 837.879 233.137 836.32 234.34C834.762 235.543 833.982 237.115 833.982 239.057C833.982 240.889 834.707 242.27 836.156 243.199C837.605 244.129 840.217 245.018 843.99 245.865C847.791 246.713 850.867 247.725 853.219 248.9C855.57 250.076 857.307 251.498 858.428 253.166C859.576 254.807 860.15 256.816 860.15 259.195C860.15 263.16 858.564 266.346 855.393 268.752C852.221 271.131 848.105 272.32 843.047 272.32C839.492 272.32 836.348 271.691 833.613 270.434C830.879 269.176 828.732 267.426 827.174 265.184C825.643 262.914 824.877 260.467 824.877 257.842H832.465C832.602 260.385 833.613 262.408 835.5 263.912C837.414 265.389 839.93 266.127 843.047 266.127C845.918 266.127 848.215 265.553 849.937 264.404C851.687 263.229 852.562 261.67 852.562 259.729ZM878.279 271.5H870.691V227.121H878.279V271.5ZM870.076 215.35C870.076 214.119 870.445 213.08 871.184 212.232C871.949 211.385 873.07 210.961 874.547 210.961C876.023 210.961 877.144 211.385 877.91 212.232C878.676 213.08 879.059 214.119 879.059 215.35C879.059 216.58 878.676 217.605 877.91 218.426C877.144 219.246 876.023 219.656 874.547 219.656C873.07 219.656 871.949 219.246 871.184 218.426C870.445 217.605 870.076 216.58 870.076 215.35ZM888.451 248.9C888.451 244.553 889.299 240.643 890.994 237.17C892.717 233.697 895.096 231.018 898.131 229.131C901.193 227.244 904.68 226.301 908.59 226.301C914.633 226.301 919.514 228.393 923.232 232.576C926.978 236.76 928.852 242.324 928.852 249.27V249.803C928.852 254.123 928.018 258.006 926.35 261.451C924.709 264.869 922.344 267.535 919.254 269.449C916.191 271.363 912.664 272.32 908.672 272.32C902.656 272.32 897.775 270.229 894.029 266.045C890.311 261.861 888.451 256.324 888.451 249.434V248.9ZM896.08 249.803C896.08 254.725 897.215 258.676 899.484 261.656C901.781 264.637 904.844 266.127 908.672 266.127C912.527 266.127 915.59 264.623 917.859 261.615C920.129 258.58 921.264 254.342 921.264 248.9C921.264 244.033 920.102 240.096 917.777 237.088C915.48 234.053 912.418 232.535 908.59 232.535C904.844 232.535 901.822 234.025 899.525 237.006C897.228 239.986 896.08 244.252 896.08 249.803ZM945.545 227.121L945.791 232.699C949.182 228.434 953.611 226.301 959.08 226.301C968.459 226.301 973.189 231.592 973.271 242.174V271.5H965.684V242.133C965.656 238.934 964.918 236.568 963.469 235.037C962.047 233.506 959.818 232.74 956.783 232.74C954.322 232.74 952.162 233.396 950.303 234.709C948.443 236.021 946.994 237.744 945.955 239.877V271.5H938.367V227.121H945.545ZM1010.55 259.729C1010.55 257.678 1009.78 256.092 1008.22 254.971C1006.69 253.822 1003.99 252.838 1000.14 252.018C996.309 251.197 993.26 250.213 990.99 249.064C988.748 247.916 987.08 246.549 985.986 244.963C984.92 243.377 984.387 241.49 984.387 239.303C984.387 235.666 985.918 232.59 988.98 230.074C992.07 227.559 996.008 226.301 1000.79 226.301C1005.82 226.301 1009.9 227.6 1013.02 230.197C1016.16 232.795 1017.73 236.117 1017.73 240.164H1010.1C1010.1 238.086 1009.21 236.295 1007.44 234.791C1005.69 233.287 1003.47 232.535 1000.79 232.535C998.031 232.535 995.871 233.137 994.312 234.34C992.754 235.543 991.975 237.115 991.975 239.057C991.975 240.889 992.699 242.27 994.148 243.199C995.598 244.129 998.209 245.018 1001.98 245.865C1005.78 246.713 1008.86 247.725 1011.21 248.9C1013.56 250.076 1015.3 251.498 1016.42 253.166C1017.57 254.807 1018.14 256.816 1018.14 259.195C1018.14 263.16 1016.56 266.346 1013.38 268.752C1010.21 271.131 1006.1 272.32 1001.04 272.32C997.484 272.32 994.34 271.691 991.605 270.434C988.871 269.176 986.725 267.426 985.166 265.184C983.635 262.914 982.869 260.467 982.869 257.842H990.457C990.594 260.385 991.605 262.408 993.492 263.912C995.406 265.389 997.922 266.127 1001.04 266.127C1003.91 266.127 1006.21 265.553 1007.93 264.404C1009.68 263.229 1010.55 261.67 1010.55 259.729Z" fill="black"/>
<path d="M717.56 931.5H707.079V930.039L712.616 923.886C713.437 922.956 714.001 922.202 714.308 921.623C714.623 921.037 714.781 920.433 714.781 919.811C714.781 918.976 714.528 918.291 714.023 917.756C713.517 917.221 712.844 916.954 712.001 916.954C710.99 916.954 710.203 917.243 709.639 917.822C709.083 918.393 708.804 919.192 708.804 920.217H706.772C706.772 918.745 707.244 917.555 708.189 916.646C709.141 915.738 710.412 915.284 712.001 915.284C713.488 915.284 714.664 915.676 715.528 916.46C716.392 917.236 716.824 918.272 716.824 919.569C716.824 921.144 715.821 923.019 713.814 925.194L709.529 929.841H717.56V931.5ZM722.669 922.513H724.196C725.156 922.499 725.91 922.246 726.459 921.755C727.009 921.264 727.283 920.602 727.283 919.767C727.283 917.892 726.349 916.954 724.482 916.954C723.603 916.954 722.9 917.207 722.372 917.712C721.852 918.21 721.592 918.873 721.592 919.701H719.56C719.56 918.434 720.021 917.383 720.944 916.548C721.874 915.705 723.053 915.284 724.482 915.284C725.99 915.284 727.173 915.683 728.03 916.482C728.887 917.28 729.316 918.39 729.316 919.811C729.316 920.506 729.089 921.18 728.635 921.832C728.188 922.484 727.576 922.971 726.8 923.293C727.679 923.572 728.356 924.033 728.832 924.677C729.316 925.322 729.557 926.109 729.557 927.04C729.557 928.475 729.089 929.614 728.151 930.456C727.214 931.299 725.994 931.72 724.493 931.72C722.991 931.72 721.768 931.313 720.823 930.5C719.886 929.687 719.417 928.614 719.417 927.281H721.46C721.46 928.124 721.735 928.797 722.284 929.303C722.834 929.808 723.57 930.061 724.493 930.061C725.474 930.061 726.225 929.804 726.745 929.292C727.265 928.779 727.525 928.043 727.525 927.083C727.525 926.153 727.239 925.439 726.668 924.941C726.097 924.443 725.273 924.187 724.196 924.172H722.669V922.513Z" fill="black"/>
<path d="M202.882 487.057H184.305L180.133 498.63H174.103L191.035 454.289H196.151L213.114 498.63H207.115L202.882 487.057ZM186.071 482.246H201.146L193.593 461.506L186.071 482.246ZM244.543 490.986L252.705 465.679H258.461L246.644 498.63H242.35L230.412 465.679H236.168L244.543 490.986ZM283.737 498.63C283.413 497.98 283.149 496.823 282.946 495.158C280.327 497.879 277.2 499.239 273.566 499.239C270.317 499.239 267.648 498.325 265.556 496.498C263.486 494.651 262.45 492.316 262.45 489.494C262.45 486.062 263.749 483.403 266.348 481.515C268.967 479.606 272.642 478.652 277.373 478.652H282.854V476.063C282.854 474.094 282.266 472.531 281.088 471.373C279.91 470.196 278.175 469.607 275.88 469.607C273.87 469.607 272.185 470.115 270.825 471.13C269.465 472.145 268.785 473.373 268.785 474.815H263.12C263.12 473.17 263.699 471.587 264.856 470.064C266.033 468.521 267.617 467.303 269.607 466.409C271.617 465.516 273.82 465.069 276.215 465.069C280.012 465.069 282.986 466.024 285.138 467.932C287.29 469.82 288.407 472.429 288.488 475.759V490.925C288.488 493.95 288.874 496.356 289.646 498.143V498.63H283.737ZM274.388 494.336C276.154 494.336 277.829 493.879 279.413 492.965C280.997 492.052 282.144 490.864 282.854 489.402V482.641H278.438C271.536 482.641 268.084 484.662 268.084 488.702C268.084 490.468 268.673 491.849 269.85 492.844C271.028 493.838 272.541 494.336 274.388 494.336ZM303.441 498.63H297.807V451.852H303.441V498.63ZM332.829 495.371C330.637 497.95 327.419 499.239 323.176 499.239C319.663 499.239 316.983 498.224 315.136 496.194C313.308 494.143 312.385 491.118 312.364 487.118V465.679H317.998V486.966C317.998 491.96 320.029 494.458 324.089 494.458C328.393 494.458 331.256 492.854 332.677 489.646V465.679H338.311V498.63H332.951L332.829 495.371ZM360.573 499.239C356.107 499.239 352.472 497.777 349.671 494.854C346.869 491.91 345.468 487.981 345.468 483.068V482.032C345.468 478.764 346.087 475.85 347.326 473.292C348.584 470.714 350.33 468.704 352.564 467.262C354.817 465.8 357.254 465.069 359.873 465.069C364.157 465.069 367.486 466.48 369.862 469.303C372.237 472.125 373.425 476.165 373.425 481.423V483.768H351.102C351.183 487.017 352.127 489.646 353.934 491.656C355.761 493.646 358.076 494.64 360.878 494.64C362.867 494.64 364.553 494.234 365.933 493.422C367.314 492.61 368.522 491.534 369.557 490.194L372.998 492.874C370.237 497.117 366.096 499.239 360.573 499.239ZM359.873 469.698C357.599 469.698 355.69 470.531 354.147 472.196C352.604 473.84 351.65 476.155 351.285 479.139H367.791V478.713C367.628 475.85 366.857 473.637 365.476 472.074C364.096 470.49 362.228 469.698 359.873 469.698ZM401.564 498.63H395.93V465.679H401.564V498.63ZM395.474 456.938C395.474 456.025 395.748 455.253 396.296 454.624C396.864 453.994 397.697 453.68 398.793 453.68C399.889 453.68 400.722 453.994 401.29 454.624C401.859 455.253 402.143 456.025 402.143 456.938C402.143 457.852 401.859 458.613 401.29 459.222C400.722 459.831 399.889 460.136 398.793 460.136C397.697 460.136 396.864 459.831 396.296 459.222C395.748 458.613 395.474 457.852 395.474 456.938ZM429.795 489.89C429.795 488.367 429.217 487.189 428.059 486.357C426.923 485.504 424.923 484.773 422.06 484.164C419.218 483.555 416.954 482.824 415.269 481.971C413.604 481.119 412.365 480.104 411.553 478.926C410.762 477.749 410.366 476.348 410.366 474.723C410.366 472.023 411.503 469.739 413.776 467.871C416.071 466.003 418.994 465.069 422.547 465.069C426.283 465.069 429.308 466.034 431.623 467.963C433.957 469.891 435.125 472.358 435.125 475.363H429.46C429.46 473.82 428.801 472.49 427.481 471.373C426.181 470.257 424.537 469.698 422.547 469.698C420.497 469.698 418.893 470.145 417.736 471.038C416.578 471.932 416 473.099 416 474.541C416 475.901 416.538 476.926 417.614 477.617C418.69 478.307 420.629 478.967 423.43 479.596C426.253 480.225 428.537 480.977 430.283 481.85C432.029 482.723 433.318 483.778 434.15 485.017C435.003 486.235 435.429 487.727 435.429 489.494C435.429 492.438 434.252 494.803 431.897 496.589C429.542 498.356 426.486 499.239 422.73 499.239C420.091 499.239 417.756 498.772 415.726 497.838C413.695 496.904 412.102 495.605 410.944 493.94C409.807 492.255 409.239 490.438 409.239 488.489H414.873C414.974 490.377 415.726 491.879 417.126 492.996C418.548 494.092 420.415 494.64 422.73 494.64C424.862 494.64 426.567 494.214 427.846 493.361C429.146 492.488 429.795 491.331 429.795 489.89Z" fill="black"/>
<path d="M485.526 481.911C485.526 476.774 486.673 472.683 488.968 469.638C491.282 466.592 494.439 465.069 498.439 465.069C501.647 465.069 504.296 466.267 506.387 468.663V451.852H515.219V498.63H507.271L506.844 495.128C504.652 497.869 501.829 499.239 498.378 499.239C494.5 499.239 491.384 497.716 489.029 494.671C486.694 491.605 485.526 487.352 485.526 481.911ZM494.328 482.55C494.328 485.636 494.866 488.001 495.942 489.646C497.018 491.29 498.581 492.113 500.632 492.113C503.352 492.113 505.271 490.966 506.387 488.671V475.667C505.291 473.373 503.393 472.226 500.692 472.226C496.449 472.226 494.328 475.667 494.328 482.55ZM537.207 499.239C532.375 499.239 528.436 497.757 525.391 494.793C522.366 491.828 520.853 487.88 520.853 482.946V482.093C520.853 478.784 521.493 475.83 522.772 473.231C524.051 470.612 525.858 468.602 528.193 467.201C530.548 465.78 533.228 465.069 536.232 465.069C540.74 465.069 544.282 466.491 546.861 469.333C549.46 472.175 550.759 476.206 550.759 481.423V485.017H529.776C530.06 487.169 530.913 488.895 532.334 490.194C533.776 491.493 535.593 492.143 537.786 492.143C541.176 492.143 543.826 490.915 545.734 488.458L550.059 493.3C548.739 495.168 546.952 496.63 544.699 497.686C542.445 498.721 539.948 499.239 537.207 499.239ZM536.202 472.196C534.456 472.196 533.035 472.784 531.938 473.962C530.862 475.14 530.172 476.825 529.867 479.017H542.11V478.317C542.069 476.368 541.542 474.866 540.526 473.81C539.511 472.734 538.07 472.196 536.202 472.196ZM569.488 492.143C571.112 492.143 572.432 491.696 573.447 490.803C574.462 489.91 574.99 488.722 575.031 487.24H583.284C583.264 489.473 582.655 491.524 581.457 493.392C580.259 495.239 578.614 496.681 576.523 497.716C574.452 498.731 572.158 499.239 569.641 499.239C564.93 499.239 561.215 497.747 558.494 494.762C555.774 491.757 554.414 487.616 554.414 482.337V481.758C554.414 476.683 555.764 472.632 558.464 469.607C561.164 466.582 564.869 465.069 569.58 465.069C573.701 465.069 577 466.247 579.477 468.602C581.974 470.937 583.243 474.053 583.284 477.952H575.031C574.99 476.246 574.462 474.866 573.447 473.81C572.432 472.734 571.092 472.196 569.427 472.196C567.377 472.196 565.824 472.947 564.768 474.449C563.732 475.931 563.215 478.347 563.215 481.697V482.611C563.215 486.002 563.732 488.438 564.768 489.92C565.803 491.402 567.377 492.143 569.488 492.143ZM597.597 498.63H588.766V465.679H597.597V498.63ZM588.248 457.151C588.248 455.832 588.685 454.746 589.558 453.893C590.451 453.04 591.659 452.614 593.182 452.614C594.684 452.614 595.882 453.04 596.775 453.893C597.668 454.746 598.115 455.832 598.115 457.151C598.115 458.491 597.658 459.588 596.745 460.44C595.851 461.293 594.664 461.72 593.182 461.72C591.699 461.72 590.502 461.293 589.588 460.44C588.695 459.588 588.248 458.491 588.248 457.151ZM603.506 481.911C603.506 476.774 604.653 472.683 606.947 469.638C609.261 466.592 612.418 465.069 616.418 465.069C619.626 465.069 622.275 466.267 624.367 468.663V451.852H633.198V498.63H625.25L624.823 495.128C622.631 497.869 619.809 499.239 616.357 499.239C612.479 499.239 609.363 497.716 607.008 494.671C604.673 491.605 603.506 487.352 603.506 481.911ZM612.307 482.55C612.307 485.636 612.845 488.001 613.921 489.646C614.997 491.29 616.56 492.113 618.611 492.113C621.331 492.113 623.25 490.966 624.367 488.671V475.667C623.27 473.373 621.372 472.226 618.672 472.226C614.428 472.226 612.307 475.667 612.307 482.55ZM655.186 499.239C650.354 499.239 646.415 497.757 643.37 494.793C640.345 491.828 638.832 487.88 638.832 482.946V482.093C638.832 478.784 639.472 475.83 640.751 473.231C642.03 470.612 643.837 468.602 646.172 467.201C648.527 465.78 651.207 465.069 654.212 465.069C658.719 465.069 662.262 466.491 664.84 469.333C667.439 472.175 668.738 476.206 668.738 481.423V485.017H647.755C648.04 487.169 648.892 488.895 650.313 490.194C651.755 491.493 653.572 492.143 655.765 492.143C659.155 492.143 661.805 490.915 663.713 488.458L668.038 493.3C666.718 495.168 664.931 496.63 662.678 497.686C660.424 498.721 657.927 499.239 655.186 499.239ZM654.181 472.196C652.435 472.196 651.014 472.784 649.918 473.962C648.842 475.14 648.151 476.825 647.847 479.017H660.089V478.317C660.049 476.368 659.521 474.866 658.506 473.81C657.49 472.734 656.049 472.196 654.181 472.196ZM672.393 481.911C672.393 476.774 673.54 472.683 675.834 469.638C678.149 466.592 681.306 465.069 685.305 465.069C688.513 465.069 691.163 466.267 693.254 468.663V451.852H702.085V498.63H694.137L693.711 495.128C691.518 497.869 688.696 499.239 685.244 499.239C681.366 499.239 678.25 497.716 675.895 494.671C673.56 491.605 672.393 487.352 672.393 481.911ZM681.194 482.55C681.194 485.636 681.732 488.001 682.808 489.646C683.884 491.29 685.447 492.113 687.498 492.113C690.218 492.113 692.137 490.966 693.254 488.671V475.667C692.157 473.373 690.259 472.226 687.559 472.226C683.316 472.226 681.194 475.667 681.194 482.55Z" fill="black"/>
<path d="M787.235 490.864L793.569 465.679H799.203L789.61 498.63H785.042L777.033 473.658L769.236 498.63H764.668L755.106 465.679H760.709L767.196 490.346L774.87 465.679H779.408L787.235 490.864ZM810.593 469.668C813.09 466.602 816.339 465.069 820.338 465.069C827.302 465.069 830.815 468.998 830.875 476.855V498.63H825.241V476.825C825.221 474.449 824.673 472.693 823.597 471.556C822.541 470.419 820.887 469.851 818.633 469.851C816.806 469.851 815.202 470.338 813.821 471.313C812.441 472.287 811.365 473.566 810.593 475.15V498.63H804.959V451.852H810.593V469.668ZM852.985 499.239C848.519 499.239 844.884 497.777 842.083 494.854C839.281 491.91 837.88 487.981 837.88 483.068V482.032C837.88 478.764 838.499 475.85 839.738 473.292C840.996 470.714 842.742 468.704 844.976 467.262C847.229 465.8 849.666 465.069 852.285 465.069C856.569 465.069 859.898 466.48 862.274 469.303C864.649 472.125 865.837 476.165 865.837 481.423V483.768H843.514C843.595 487.017 844.539 489.646 846.346 491.656C848.173 493.646 850.488 494.64 853.29 494.64C855.279 494.64 856.964 494.234 858.345 493.422C859.726 492.61 860.934 491.534 861.969 490.194L865.41 492.874C862.649 497.117 858.507 499.239 852.985 499.239ZM852.285 469.698C850.011 469.698 848.102 470.531 846.559 472.196C845.016 473.84 844.062 476.155 843.697 479.139H860.203V478.713C860.04 475.85 859.269 473.637 857.888 472.074C856.508 470.49 854.64 469.698 852.285 469.698ZM877.714 465.679L877.897 469.82C880.414 466.653 883.703 465.069 887.764 465.069C894.728 465.069 898.24 468.998 898.301 476.855V498.63H892.667V476.825C892.647 474.449 892.098 472.693 891.022 471.556C889.967 470.419 888.312 469.851 886.058 469.851C884.231 469.851 882.627 470.338 881.247 471.313C879.866 472.287 878.79 473.566 878.018 475.15V498.63H872.384V465.679H877.714ZM928.39 498.63H922.755V465.679H928.39V498.63ZM922.299 456.938C922.299 456.025 922.573 455.253 923.121 454.624C923.689 453.994 924.522 453.68 925.618 453.68C926.715 453.68 927.547 453.994 928.115 454.624C928.684 455.253 928.968 456.025 928.968 456.938C928.968 457.852 928.684 458.613 928.115 459.222C927.547 459.831 926.715 460.136 925.618 460.136C924.522 460.136 923.689 459.831 923.121 459.222C922.573 458.613 922.299 457.852 922.299 456.938ZM945.078 457.7V465.679H951.23V470.033H945.078V490.468C945.078 491.788 945.352 492.783 945.901 493.453C946.449 494.102 947.383 494.427 948.702 494.427C949.352 494.427 950.245 494.305 951.382 494.062V498.63C949.9 499.036 948.459 499.239 947.058 499.239C944.54 499.239 942.642 498.478 941.363 496.955C940.084 495.432 939.444 493.27 939.444 490.468V470.033H933.445V465.679H939.444V457.7H945.078ZM978.943 469.668C981.441 466.602 984.689 465.069 988.689 465.069C995.652 465.069 999.165 468.998 999.226 476.855V498.63H993.592V476.825C993.571 474.449 993.023 472.693 991.947 471.556C990.891 470.419 989.237 469.851 986.983 469.851C985.156 469.851 983.552 470.338 982.171 471.313C980.791 472.287 979.715 473.566 978.943 475.15V498.63H973.309V451.852H978.943V469.668ZM1028 498.63C1027.68 497.98 1027.42 496.823 1027.21 495.158C1024.59 497.879 1021.47 499.239 1017.83 499.239C1014.58 499.239 1011.91 498.325 1009.82 496.498C1007.75 494.651 1006.72 492.316 1006.72 489.494C1006.72 486.062 1008.02 483.403 1010.62 481.515C1013.23 479.606 1016.91 478.652 1021.64 478.652H1027.12V476.063C1027.12 474.094 1026.53 472.531 1025.36 471.373C1024.18 470.196 1022.44 469.607 1020.15 469.607C1018.14 469.607 1016.45 470.115 1015.09 471.13C1013.73 472.145 1013.05 473.373 1013.05 474.815H1007.39C1007.39 473.17 1007.97 471.587 1009.12 470.064C1010.3 468.521 1011.88 467.303 1013.87 466.409C1015.88 465.516 1018.09 465.069 1020.48 465.069C1024.28 465.069 1027.25 466.024 1029.41 467.932C1031.56 469.82 1032.67 472.429 1032.76 475.759V490.925C1032.76 493.95 1033.14 496.356 1033.91 498.143V498.63H1028ZM1018.66 494.336C1020.42 494.336 1022.1 493.879 1023.68 492.965C1025.26 492.052 1026.41 490.864 1027.12 489.402V482.641H1022.71C1015.8 482.641 1012.35 484.662 1012.35 488.702C1012.35 490.468 1012.94 491.849 1014.12 492.844C1015.3 493.838 1016.81 494.336 1018.66 494.336ZM1060.77 489.89C1060.77 488.367 1060.19 487.189 1059.04 486.357C1057.9 485.504 1055.9 484.773 1053.04 484.164C1050.2 483.555 1047.93 482.824 1046.25 481.971C1044.58 481.119 1043.34 480.104 1042.53 478.926C1041.74 477.749 1041.34 476.348 1041.34 474.723C1041.34 472.023 1042.48 469.739 1044.75 467.871C1047.05 466.003 1049.97 465.069 1053.53 465.069C1057.26 465.069 1060.29 466.034 1062.6 467.963C1064.94 469.891 1066.1 472.358 1066.1 475.363H1060.44C1060.44 473.82 1059.78 472.49 1058.46 471.373C1057.16 470.257 1055.52 469.698 1053.53 469.698C1051.47 469.698 1049.87 470.145 1048.71 471.038C1047.56 471.932 1046.98 473.099 1046.98 474.541C1046.98 475.901 1047.52 476.926 1048.59 477.617C1049.67 478.307 1051.61 478.967 1054.41 479.596C1057.23 480.225 1059.51 480.977 1061.26 481.85C1063.01 482.723 1064.3 483.778 1065.13 485.017C1065.98 486.235 1066.41 487.727 1066.41 489.494C1066.41 492.438 1065.23 494.803 1062.87 496.589C1060.52 498.356 1057.46 499.239 1053.71 499.239C1051.07 499.239 1048.73 498.772 1046.7 497.838C1044.67 496.904 1043.08 495.605 1041.92 493.94C1040.79 492.255 1040.22 490.438 1040.22 488.489H1045.85C1045.95 490.377 1046.7 491.879 1048.1 492.996C1049.53 494.092 1051.39 494.64 1053.71 494.64C1055.84 494.64 1057.55 494.214 1058.82 493.361C1060.12 492.488 1060.77 491.331 1060.77 489.89ZM1117.11 482.52C1117.11 487.555 1115.96 491.605 1113.64 494.671C1111.33 497.716 1108.22 499.239 1104.32 499.239C1100.16 499.239 1096.94 497.767 1094.67 494.823L1094.39 498.63H1089.22V451.852H1094.85V469.303C1097.13 466.48 1100.26 465.069 1104.26 465.069C1108.26 465.069 1111.4 466.582 1113.67 469.607C1115.97 472.632 1117.11 476.774 1117.11 482.032V482.52ZM1111.48 481.88C1111.48 478.043 1110.74 475.079 1109.26 472.988C1107.77 470.896 1105.64 469.851 1102.86 469.851C1099.15 469.851 1096.48 471.576 1094.85 475.028V489.28C1096.58 492.732 1099.27 494.458 1102.92 494.458C1105.62 494.458 1107.72 493.412 1109.23 491.321C1110.73 489.23 1111.48 486.083 1111.48 481.88ZM1137.91 499.239C1133.45 499.239 1129.81 497.777 1127.01 494.854C1124.21 491.91 1122.81 487.981 1122.81 483.068V482.032C1122.81 478.764 1123.43 475.85 1124.67 473.292C1125.92 470.714 1127.67 468.704 1129.9 467.262C1132.16 465.8 1134.59 465.069 1137.21 465.069C1141.5 465.069 1144.83 466.48 1147.2 469.303C1149.58 472.125 1150.77 476.165 1150.77 481.423V483.768H1128.44C1128.52 487.017 1129.47 489.646 1131.27 491.656C1133.1 493.646 1135.42 494.64 1138.22 494.64C1140.21 494.64 1141.89 494.234 1143.27 493.422C1144.65 492.61 1145.86 491.534 1146.9 490.194L1150.34 492.874C1147.58 497.117 1143.44 499.239 1137.91 499.239ZM1137.21 469.698C1134.94 469.698 1133.03 470.531 1131.49 472.196C1129.94 473.84 1128.99 476.155 1128.63 479.139H1145.13V478.713C1144.97 475.85 1144.2 473.637 1142.82 472.074C1141.44 470.49 1139.57 469.698 1137.21 469.698ZM1170.99 499.239C1166.52 499.239 1162.89 497.777 1160.08 494.854C1157.28 491.91 1155.88 487.981 1155.88 483.068V482.032C1155.88 478.764 1156.5 475.85 1157.74 473.292C1159 470.714 1160.74 468.704 1162.98 467.262C1165.23 465.8 1167.67 465.069 1170.29 465.069C1174.57 465.069 1177.9 466.48 1180.28 469.303C1182.65 472.125 1183.84 476.165 1183.84 481.423V483.768H1161.52C1161.6 487.017 1162.54 489.646 1164.35 491.656C1166.18 493.646 1168.49 494.64 1171.29 494.64C1173.28 494.64 1174.97 494.234 1176.35 493.422C1177.73 492.61 1178.94 491.534 1179.97 490.194L1183.41 492.874C1180.65 497.117 1176.51 499.239 1170.99 499.239ZM1170.29 469.698C1168.01 469.698 1166.1 470.531 1164.56 472.196C1163.02 473.84 1162.06 476.155 1161.7 479.139H1178.2V478.713C1178.04 475.85 1177.27 473.637 1175.89 472.074C1174.51 470.49 1172.64 469.698 1170.29 469.698ZM1195.72 465.679L1195.9 469.82C1198.42 466.653 1201.7 465.069 1205.77 465.069C1212.73 465.069 1216.24 468.998 1216.3 476.855V498.63H1210.67V476.825C1210.65 474.449 1210.1 472.693 1209.02 471.556C1207.97 470.419 1206.31 469.851 1204.06 469.851C1202.23 469.851 1200.63 470.338 1199.25 471.313C1197.87 472.287 1196.79 473.566 1196.02 475.15V498.63H1190.39V465.679H1195.72Z" fill="black"/>
<path d="M257.689 564.364L264.023 539.179H269.657L260.064 572.13H255.496L247.486 547.158L239.69 572.13H235.122L225.56 539.179H231.163L237.65 563.846L245.324 539.179H249.862L257.689 564.364ZM291.34 544.234C290.488 544.092 289.564 544.021 288.569 544.021C284.874 544.021 282.367 545.594 281.047 548.741V572.13H275.413V539.179H280.895L280.986 542.985C282.834 540.041 285.453 538.569 288.843 538.569C289.939 538.569 290.772 538.712 291.34 538.996V544.234ZM302.669 572.13H297.035V539.179H302.669V572.13ZM296.578 530.438C296.578 529.525 296.853 528.753 297.401 528.124C297.969 527.494 298.802 527.18 299.898 527.18C300.994 527.18 301.827 527.494 302.395 528.124C302.964 528.753 303.248 529.525 303.248 530.438C303.248 531.352 302.964 532.113 302.395 532.722C301.827 533.331 300.994 533.636 299.898 533.636C298.802 533.636 297.969 533.331 297.401 532.722C296.853 532.113 296.578 531.352 296.578 530.438ZM319.358 531.2V539.179H325.51V543.533H319.358V563.968C319.358 565.288 319.632 566.283 320.18 566.953C320.729 567.602 321.663 567.927 322.982 567.927C323.632 567.927 324.525 567.805 325.662 567.562V572.13C324.18 572.536 322.739 572.739 321.338 572.739C318.82 572.739 316.922 571.978 315.643 570.455C314.364 568.932 313.724 566.77 313.724 563.968V543.533H307.725V539.179H313.724V531.2H319.358ZM339.762 531.2V539.179H345.914V543.533H339.762V563.968C339.762 565.288 340.036 566.283 340.585 566.953C341.133 567.602 342.067 567.927 343.386 567.927C344.036 567.927 344.929 567.805 346.066 567.562V572.13C344.584 572.536 343.143 572.739 341.742 572.739C339.224 572.739 337.326 571.978 336.047 570.455C334.768 568.932 334.128 566.77 334.128 563.968V543.533H328.129V539.179H334.128V531.2H339.762ZM366.197 572.739C361.73 572.739 358.096 571.277 355.294 568.354C352.492 565.41 351.091 561.481 351.091 556.568V555.532C351.091 552.264 351.711 549.35 352.949 546.792C354.208 544.214 355.954 542.204 358.187 540.762C360.441 539.3 362.877 538.569 365.496 538.569C369.78 538.569 373.11 539.98 375.485 542.803C377.86 545.625 379.048 549.665 379.048 554.923V557.268H356.725C356.807 560.517 357.751 563.146 359.558 565.156C361.385 567.146 363.699 568.14 366.501 568.14C368.491 568.14 370.176 567.734 371.556 566.922C372.937 566.11 374.145 565.034 375.181 563.694L378.622 566.374C375.861 570.617 371.719 572.739 366.197 572.739ZM365.496 543.198C363.222 543.198 361.314 544.031 359.771 545.696C358.228 547.34 357.274 549.655 356.908 552.639H373.414V552.213C373.252 549.35 372.48 547.137 371.1 545.574C369.719 543.99 367.851 543.198 365.496 543.198ZM390.925 539.179L391.108 543.32C393.626 540.153 396.915 538.569 400.975 538.569C407.939 538.569 411.451 542.498 411.512 550.355V572.13H405.878V550.325C405.858 547.949 405.31 546.193 404.234 545.056C403.178 543.919 401.523 543.351 399.27 543.351C397.442 543.351 395.839 543.838 394.458 544.813C393.077 545.787 392.001 547.066 391.23 548.65V572.13H385.596V539.179H390.925ZM443.124 531.2V539.179H449.275V543.533H443.124V563.968C443.124 565.288 443.398 566.283 443.946 566.953C444.494 567.602 445.428 567.927 446.748 567.927C447.397 567.927 448.291 567.805 449.428 567.562V572.13C447.946 572.536 446.504 572.739 445.103 572.739C442.586 572.739 440.687 571.978 439.408 570.455C438.129 568.932 437.49 566.77 437.49 563.968V543.533H431.49V539.179H437.49V531.2H443.124ZM453.783 555.35C453.783 552.122 454.412 549.218 455.671 546.64C456.95 544.061 458.716 542.072 460.97 540.671C463.244 539.27 465.832 538.569 468.736 538.569C473.222 538.569 476.846 540.123 479.608 543.229C482.389 546.335 483.78 550.467 483.78 555.624V556.02C483.78 559.227 483.161 562.11 481.922 564.669C480.704 567.206 478.948 569.186 476.654 570.607C474.38 572.028 471.761 572.739 468.796 572.739C464.33 572.739 460.706 571.186 457.924 568.079C455.163 564.973 453.783 560.862 453.783 555.746V555.35ZM459.447 556.02C459.447 559.674 460.29 562.608 461.975 564.821C463.68 567.034 465.954 568.14 468.796 568.14C471.659 568.14 473.933 567.024 475.618 564.79C477.303 562.537 478.146 559.39 478.146 555.35C478.146 551.736 477.283 548.812 475.557 546.579C473.852 544.325 471.578 543.198 468.736 543.198C465.954 543.198 463.711 544.305 462.005 546.518C460.3 548.731 459.447 551.898 459.447 556.02ZM513.96 531.2V539.179H520.112V543.533H513.96V563.968C513.96 565.288 514.234 566.283 514.782 566.953C515.33 567.602 516.264 567.927 517.584 567.927C518.234 567.927 519.127 567.805 520.264 567.562V572.13C518.782 572.536 517.34 572.739 515.939 572.739C513.422 572.739 511.524 571.978 510.244 570.455C508.965 568.932 508.326 566.77 508.326 563.968V543.533H502.326V539.179H508.326V531.2H513.96ZM532.354 543.168C534.851 540.102 538.1 538.569 542.099 538.569C549.063 538.569 552.576 542.498 552.637 550.355V572.13H547.003V550.325C546.982 547.949 546.434 546.193 545.358 545.056C544.302 543.919 542.648 543.351 540.394 543.351C538.567 543.351 536.963 543.838 535.582 544.813C534.202 545.787 533.126 547.066 532.354 548.65V572.13H526.72V525.352H532.354V543.168ZM574.746 572.739C570.28 572.739 566.645 571.277 563.844 568.354C561.042 565.41 559.641 561.481 559.641 556.568V555.532C559.641 552.264 560.26 549.35 561.499 546.792C562.757 544.214 564.504 542.204 566.737 540.762C568.99 539.3 571.427 538.569 574.046 538.569C578.33 538.569 581.659 539.98 584.035 542.803C586.41 545.625 587.598 549.665 587.598 554.923V557.268H565.275C565.356 560.517 566.3 563.146 568.107 565.156C569.934 567.146 572.249 568.14 575.051 568.14C577.04 568.14 578.726 567.734 580.106 566.922C581.487 566.11 582.695 565.034 583.73 563.694L587.172 566.374C584.41 570.617 580.269 572.739 574.746 572.739ZM574.046 543.198C571.772 543.198 569.863 544.031 568.32 545.696C566.777 547.34 565.823 549.655 565.458 552.639H581.964V552.213C581.801 549.35 581.03 547.137 579.649 545.574C578.269 543.99 576.401 543.198 574.046 543.198ZM628.802 563.39C628.802 561.867 628.224 560.689 627.066 559.857C625.929 559.004 623.93 558.273 621.067 557.664C618.225 557.055 615.961 556.324 614.276 555.471C612.611 554.619 611.372 553.604 610.56 552.426C609.768 551.249 609.373 549.848 609.373 548.223C609.373 545.523 610.51 543.239 612.783 541.371C615.078 539.503 618.001 538.569 621.554 538.569C625.29 538.569 628.315 539.534 630.63 541.463C632.964 543.391 634.132 545.858 634.132 548.863H628.467C628.467 547.32 627.807 545.99 626.488 544.873C625.188 543.757 623.544 543.198 621.554 543.198C619.504 543.198 617.9 543.645 616.742 544.538C615.585 545.432 615.007 546.599 615.007 548.041C615.007 549.401 615.545 550.426 616.621 551.117C617.697 551.807 619.636 552.467 622.437 553.096C625.259 553.725 627.544 554.477 629.29 555.35C631.036 556.223 632.325 557.278 633.157 558.517C634.01 559.735 634.436 561.227 634.436 562.994C634.436 565.938 633.259 568.303 630.904 570.089C628.548 571.856 625.493 572.739 621.737 572.739C619.098 572.739 616.763 572.272 614.732 571.338C612.702 570.404 611.108 569.105 609.951 567.44C608.814 565.755 608.246 563.938 608.246 561.989H613.88C613.981 563.877 614.732 565.379 616.133 566.496C617.555 567.592 619.422 568.14 621.737 568.14C623.869 568.14 625.574 567.714 626.853 566.861C628.153 565.988 628.802 564.831 628.802 563.39ZM662.119 572.13C661.794 571.48 661.53 570.323 661.327 568.658C658.708 571.379 655.582 572.739 651.947 572.739C648.699 572.739 646.029 571.825 643.938 569.998C641.867 568.151 640.832 565.816 640.832 562.994C640.832 559.562 642.131 556.903 644.73 555.015C647.349 553.106 651.024 552.152 655.754 552.152H661.236V549.563C661.236 547.594 660.647 546.031 659.47 544.873C658.292 543.696 656.556 543.107 654.262 543.107C652.252 543.107 650.567 543.615 649.207 544.63C647.846 545.645 647.166 546.873 647.166 548.315H641.502C641.502 546.67 642.08 545.087 643.238 543.564C644.415 542.021 645.999 540.803 647.988 539.909C649.998 539.016 652.201 538.569 654.597 538.569C658.394 538.569 661.368 539.524 663.52 541.432C665.672 543.32 666.789 545.929 666.87 549.259V564.425C666.87 567.45 667.256 569.856 668.027 571.643V572.13H662.119ZM652.77 567.836C654.536 567.836 656.211 567.379 657.795 566.465C659.378 565.552 660.525 564.364 661.236 562.902V556.141H656.82C649.917 556.141 646.466 558.162 646.466 562.202C646.466 563.968 647.054 565.349 648.232 566.344C649.41 567.338 650.922 567.836 652.77 567.836ZM681.001 539.179L681.153 542.833C683.569 539.991 686.827 538.569 690.929 538.569C695.537 538.569 698.674 540.336 700.339 543.868C701.435 542.285 702.856 541.006 704.603 540.031C706.369 539.057 708.45 538.569 710.846 538.569C718.073 538.569 721.748 542.397 721.87 550.051V572.13H716.236V550.386C716.236 548.031 715.698 546.274 714.622 545.117C713.546 543.94 711.739 543.351 709.201 543.351C707.11 543.351 705.374 543.98 703.993 545.239C702.613 546.477 701.811 548.152 701.588 550.264V572.13H695.923V550.538C695.923 545.746 693.578 543.351 688.888 543.351C685.193 543.351 682.665 544.924 681.305 548.071V572.13H675.671V539.179H681.001ZM744.071 572.739C739.604 572.739 735.97 571.277 733.168 568.354C730.367 565.41 728.966 561.481 728.966 556.568V555.532C728.966 552.264 729.585 549.35 730.824 546.792C732.082 544.214 733.828 542.204 736.062 540.762C738.315 539.3 740.752 538.569 743.371 538.569C747.654 538.569 750.984 539.98 753.36 542.803C755.735 545.625 756.923 549.665 756.923 554.923V557.268H734.6C734.681 560.517 735.625 563.146 737.432 565.156C739.259 567.146 741.574 568.14 744.376 568.14C746.365 568.14 748.05 567.734 749.431 566.922C750.812 566.11 752.02 565.034 753.055 563.694L756.496 566.374C753.735 570.617 749.593 572.739 744.071 572.739ZM743.371 543.198C741.097 543.198 739.188 544.031 737.645 545.696C736.102 547.34 735.148 549.655 734.783 552.639H751.289V552.213C751.126 549.35 750.355 547.137 748.974 545.574C747.594 543.99 745.726 543.198 743.371 543.198ZM794.868 544.234C794.016 544.092 793.092 544.021 792.097 544.021C788.402 544.021 785.895 545.594 784.575 548.741V572.13H778.941V539.179H784.423L784.514 542.985C786.362 540.041 788.981 538.569 792.371 538.569C793.468 538.569 794.3 538.712 794.868 538.996V544.234ZM813.141 572.739C808.674 572.739 805.04 571.277 802.238 568.354C799.437 565.41 798.036 561.481 798.036 556.568V555.532C798.036 552.264 798.655 549.35 799.893 546.792C801.152 544.214 802.898 542.204 805.132 540.762C807.385 539.3 809.821 538.569 812.44 538.569C816.724 538.569 820.054 539.98 822.429 542.803C824.805 545.625 825.993 549.665 825.993 554.923V557.268H803.67C803.751 560.517 804.695 563.146 806.502 565.156C808.329 567.146 810.644 568.14 813.445 568.14C815.435 568.14 817.12 567.734 818.501 566.922C819.881 566.11 821.089 565.034 822.125 563.694L825.566 566.374C822.805 570.617 818.663 572.739 813.141 572.739ZM812.44 543.198C810.167 543.198 808.258 544.031 806.715 545.696C805.172 547.34 804.218 549.655 803.852 552.639H820.359V552.213C820.196 549.35 819.425 547.137 818.044 545.574C816.663 543.99 814.796 543.198 812.44 543.198ZM831.2 555.38C831.2 550.244 832.388 546.163 834.763 543.138C837.139 540.092 840.286 538.569 844.204 538.569C848.224 538.569 851.361 539.991 853.614 542.833L853.889 539.179H859.035V571.338C859.035 575.602 857.766 578.962 855.229 581.418C852.711 583.875 849.32 585.103 845.057 585.103C842.681 585.103 840.357 584.596 838.083 583.581C835.809 582.565 834.073 581.175 832.875 579.408L835.799 576.028C838.215 579.013 841.169 580.505 844.661 580.505C847.402 580.505 849.534 579.733 851.056 578.19C852.599 576.647 853.371 574.475 853.371 571.673V568.841C851.117 571.44 848.041 572.739 844.143 572.739C840.286 572.739 837.159 571.186 834.763 568.079C832.388 564.973 831.2 560.74 831.2 555.38ZM836.865 556.02C836.865 559.735 837.626 562.659 839.149 564.79C840.671 566.902 842.803 567.958 845.544 567.958C849.097 567.958 851.706 566.344 853.371 563.115V548.071C851.645 544.924 849.056 543.351 845.605 543.351C842.864 543.351 840.722 544.417 839.179 546.548C837.636 548.68 836.865 551.837 836.865 556.02ZM873.684 572.13H868.05V539.179H873.684V572.13ZM867.593 530.438C867.593 529.525 867.867 528.753 868.415 528.124C868.984 527.494 869.816 527.18 870.912 527.18C872.009 527.18 872.841 527.494 873.41 528.124C873.978 528.753 874.262 529.525 874.262 530.438C874.262 531.352 873.978 532.113 873.41 532.722C872.841 533.331 872.009 533.636 870.912 533.636C869.816 533.636 868.984 533.331 868.415 532.722C867.867 532.113 867.593 531.352 867.593 530.438ZM901.915 563.39C901.915 561.867 901.336 560.689 900.179 559.857C899.042 559.004 897.042 558.273 894.179 557.664C891.337 557.055 889.073 556.324 887.388 555.471C885.723 554.619 884.485 553.604 883.673 552.426C882.881 551.249 882.485 549.848 882.485 548.223C882.485 545.523 883.622 543.239 885.896 541.371C888.19 539.503 891.114 538.569 894.667 538.569C898.402 538.569 901.427 539.534 903.742 541.463C906.077 543.391 907.244 545.858 907.244 548.863H901.58C901.58 547.32 900.92 545.99 899.6 544.873C898.301 543.757 896.656 543.198 894.667 543.198C892.616 543.198 891.012 543.645 889.855 544.538C888.698 545.432 888.119 546.599 888.119 548.041C888.119 549.401 888.657 550.426 889.733 551.117C890.809 551.807 892.748 552.467 895.55 553.096C898.372 553.725 900.656 554.477 902.402 555.35C904.148 556.223 905.437 557.278 906.27 558.517C907.122 559.735 907.549 561.227 907.549 562.994C907.549 565.938 906.371 568.303 904.016 570.089C901.661 571.856 898.605 572.739 894.849 572.739C892.21 572.739 889.875 572.272 887.845 571.338C885.815 570.404 884.221 569.105 883.064 567.44C881.927 565.755 881.358 563.938 881.358 561.989H886.992C887.094 563.877 887.845 565.379 889.246 566.496C890.667 567.592 892.535 568.14 894.849 568.14C896.981 568.14 898.687 567.714 899.966 566.861C901.265 565.988 901.915 564.831 901.915 563.39ZM922.532 531.2V539.179H928.684V543.533H922.532V563.968C922.532 565.288 922.806 566.283 923.354 566.953C923.902 567.602 924.836 567.927 926.156 567.927C926.806 567.927 927.699 567.805 928.836 567.562V572.13C927.354 572.536 925.912 572.739 924.512 572.739C921.994 572.739 920.096 571.978 918.817 570.455C917.538 568.932 916.898 566.77 916.898 563.968V543.533H910.899V539.179H916.898V531.2H922.532ZM948.966 572.739C944.5 572.739 940.865 571.277 938.064 568.354C935.262 565.41 933.861 561.481 933.861 556.568V555.532C933.861 552.264 934.48 549.35 935.719 546.792C936.977 544.214 938.724 542.204 940.957 540.762C943.21 539.3 945.647 538.569 948.266 538.569C952.55 538.569 955.879 539.98 958.255 542.803C960.63 545.625 961.818 549.665 961.818 554.923V557.268H939.495C939.576 560.517 940.52 563.146 942.327 565.156C944.154 567.146 946.469 568.14 949.271 568.14C951.26 568.14 952.946 567.734 954.326 566.922C955.707 566.11 956.915 565.034 957.95 563.694L961.392 566.374C958.63 570.617 954.489 572.739 948.966 572.739ZM948.266 543.198C945.992 543.198 944.083 544.031 942.54 545.696C940.997 547.34 940.043 549.655 939.678 552.639H956.184V552.213C956.021 549.35 955.25 547.137 953.869 545.574C952.489 543.99 950.621 543.198 948.266 543.198ZM984.293 544.234C983.44 544.092 982.516 544.021 981.522 544.021C977.827 544.021 975.319 545.594 973.999 548.741V572.13H968.365V539.179H973.847L973.939 542.985C975.786 540.041 978.405 538.569 981.796 538.569C982.892 538.569 983.725 538.712 984.293 538.996V544.234ZM1003.48 555.35C1003.48 552.122 1004.11 549.218 1005.37 546.64C1006.65 544.061 1008.41 542.072 1010.67 540.671C1012.94 539.27 1015.53 538.569 1018.43 538.569C1022.92 538.569 1026.54 540.123 1029.3 543.229C1032.09 546.335 1033.48 550.467 1033.48 555.624V556.02C1033.48 559.227 1032.86 562.11 1031.62 564.669C1030.4 567.206 1028.64 569.186 1026.35 570.607C1024.08 572.028 1021.46 572.739 1018.49 572.739C1014.03 572.739 1010.4 571.186 1007.62 568.079C1004.86 564.973 1003.48 560.862 1003.48 555.746V555.35ZM1009.14 556.02C1009.14 559.674 1009.99 562.608 1011.67 564.821C1013.38 567.034 1015.65 568.14 1018.49 568.14C1021.36 568.14 1023.63 567.024 1025.31 564.79C1027 562.537 1027.84 559.39 1027.84 555.35C1027.84 551.736 1026.98 548.812 1025.25 546.579C1023.55 544.325 1021.27 543.198 1018.43 543.198C1015.65 543.198 1013.41 544.305 1011.7 546.518C1010 548.731 1009.14 551.898 1009.14 556.02ZM1045.87 539.179L1046.05 543.32C1048.57 540.153 1051.86 538.569 1055.92 538.569C1062.88 538.569 1066.4 542.498 1066.46 550.355V572.13H1060.82V550.325C1060.8 547.949 1060.26 546.193 1059.18 545.056C1058.12 543.919 1056.47 543.351 1054.22 543.351C1052.39 543.351 1050.78 543.838 1049.4 544.813C1048.02 545.787 1046.95 547.066 1046.18 548.65V572.13H1040.54V539.179H1045.87ZM1110.77 572.13C1110.44 571.48 1110.18 570.323 1109.98 568.658C1107.36 571.379 1104.23 572.739 1100.6 572.739C1097.35 572.739 1094.68 571.825 1092.59 569.998C1090.52 568.151 1089.48 565.816 1089.48 562.994C1089.48 559.562 1090.78 556.903 1093.38 555.015C1096 553.106 1099.67 552.152 1104.4 552.152H1109.89V549.563C1109.89 547.594 1109.3 546.031 1108.12 544.873C1106.94 543.696 1105.21 543.107 1102.91 543.107C1100.9 543.107 1099.22 543.615 1097.86 544.63C1096.5 545.645 1095.82 546.873 1095.82 548.315H1090.15C1090.15 546.67 1090.73 545.087 1091.89 543.564C1093.06 542.021 1094.65 540.803 1096.64 539.909C1098.65 539.016 1100.85 538.569 1103.25 538.569C1107.04 538.569 1110.02 539.524 1112.17 541.432C1114.32 543.32 1115.44 545.929 1115.52 549.259V564.425C1115.52 567.45 1115.91 569.856 1116.68 571.643V572.13H1110.77ZM1101.42 567.836C1103.19 567.836 1104.86 567.379 1106.44 566.465C1108.03 565.552 1109.18 564.364 1109.89 562.902V556.141H1105.47C1098.57 556.141 1095.12 558.162 1095.12 562.202C1095.12 563.968 1095.7 565.349 1096.88 566.344C1098.06 567.338 1099.57 567.836 1101.42 567.836Z" fill="black"/>
<path d="M294.95 636.89C294.95 635.367 294.371 634.189 293.214 633.357C292.077 632.504 290.077 631.773 287.214 631.164C284.372 630.555 282.108 629.824 280.423 628.971C278.758 628.119 277.52 627.104 276.708 625.926C275.916 624.749 275.52 623.348 275.52 621.723C275.52 619.023 276.657 616.739 278.931 614.871C281.225 613.003 284.149 612.069 287.702 612.069C291.437 612.069 294.462 613.034 296.777 614.963C299.112 616.891 300.279 619.358 300.279 622.363H294.615C294.615 620.82 293.955 619.49 292.635 618.373C291.336 617.257 289.691 616.698 287.702 616.698C285.651 616.698 284.047 617.145 282.89 618.038C281.733 618.932 281.154 620.099 281.154 621.541C281.154 622.901 281.692 623.926 282.768 624.617C283.844 625.307 285.783 625.967 288.585 626.596C291.407 627.225 293.691 627.977 295.437 628.85C297.183 629.723 298.472 630.778 299.305 632.017C300.157 633.235 300.584 634.727 300.584 636.494C300.584 639.438 299.406 641.803 297.051 643.589C294.696 645.356 291.64 646.239 287.884 646.239C285.245 646.239 282.91 645.772 280.88 644.838C278.85 643.904 277.256 642.605 276.099 640.94C274.962 639.255 274.393 637.438 274.393 635.489H280.027C280.129 637.377 280.88 638.879 282.281 639.996C283.702 641.092 285.57 641.64 287.884 641.64C290.016 641.64 291.722 641.214 293.001 640.361C294.3 639.488 294.95 638.331 294.95 636.89ZM328.266 642.371C326.074 644.95 322.856 646.239 318.612 646.239C315.1 646.239 312.42 645.224 310.573 643.194C308.745 641.143 307.822 638.118 307.801 634.118V612.679H313.435V633.966C313.435 638.96 315.466 641.458 319.526 641.458C323.83 641.458 326.693 639.854 328.114 636.646V612.679H333.748V645.63H328.388L328.266 642.371ZM370.232 629.52C370.232 634.555 369.075 638.605 366.76 641.671C364.446 644.716 361.34 646.239 357.441 646.239C353.279 646.239 350.061 644.767 347.788 641.823L347.513 645.63H342.336V598.852H347.97V616.303C350.244 613.48 353.381 612.069 357.381 612.069C361.38 612.069 364.517 613.582 366.791 616.607C369.085 619.632 370.232 623.774 370.232 629.032V629.52ZM364.598 628.88C364.598 625.043 363.857 622.079 362.375 619.988C360.893 617.896 358.761 616.851 355.98 616.851C352.264 616.851 349.594 618.576 347.97 622.028V636.28C349.696 639.732 352.386 641.458 356.041 641.458C358.741 641.458 360.842 640.412 362.345 638.321C363.847 636.23 364.598 633.083 364.598 628.88ZM396.545 636.89C396.545 635.367 395.966 634.189 394.809 633.357C393.672 632.504 391.672 631.773 388.809 631.164C385.967 630.555 383.703 629.824 382.018 628.971C380.353 628.119 379.115 627.104 378.303 625.926C377.511 624.749 377.115 623.348 377.115 621.723C377.115 619.023 378.252 616.739 380.526 614.871C382.82 613.003 385.743 612.069 389.296 612.069C393.032 612.069 396.057 613.034 398.372 614.963C400.707 616.891 401.874 619.358 401.874 622.363H396.21C396.21 620.82 395.55 619.49 394.23 618.373C392.931 617.257 391.286 616.698 389.296 616.698C387.246 616.698 385.642 617.145 384.485 618.038C383.327 618.932 382.749 620.099 382.749 621.541C382.749 622.901 383.287 623.926 384.363 624.617C385.439 625.307 387.378 625.967 390.18 626.596C393.002 627.225 395.286 627.977 397.032 628.85C398.778 629.723 400.067 630.778 400.899 632.017C401.752 633.235 402.179 634.727 402.179 636.494C402.179 639.438 401.001 641.803 398.646 643.589C396.291 645.356 393.235 646.239 389.479 646.239C386.84 646.239 384.505 645.772 382.475 644.838C380.444 643.904 378.851 642.605 377.693 640.94C376.556 639.255 375.988 637.438 375.988 635.489H381.622C381.724 637.377 382.475 638.879 383.876 639.996C385.297 641.092 387.165 641.64 389.479 641.64C391.611 641.64 393.316 641.214 394.595 640.361C395.895 639.488 396.545 638.331 396.545 636.89ZM423.192 646.239C418.725 646.239 415.091 644.777 412.289 641.854C409.488 638.91 408.087 634.981 408.087 630.068V629.032C408.087 625.764 408.706 622.85 409.944 620.292C411.203 617.714 412.949 615.704 415.182 614.262C417.436 612.8 419.872 612.069 422.491 612.069C426.775 612.069 430.105 613.48 432.48 616.303C434.856 619.125 436.044 623.165 436.044 628.423V630.768H413.721C413.802 634.017 414.746 636.646 416.553 638.656C418.38 640.646 420.695 641.64 423.496 641.64C425.486 641.64 427.171 641.234 428.552 640.422C429.932 639.61 431.14 638.534 432.176 637.194L435.617 639.874C432.856 644.117 428.714 646.239 423.192 646.239ZM422.491 616.698C420.218 616.698 418.309 617.531 416.766 619.196C415.223 620.84 414.269 623.155 413.903 626.139H430.41V625.713C430.247 622.85 429.476 620.637 428.095 619.074C426.714 617.49 424.847 616.698 422.491 616.698ZM450.235 604.7V612.679H456.387V617.033H450.235V637.468C450.235 638.788 450.509 639.783 451.057 640.453C451.606 641.102 452.539 641.427 453.859 641.427C454.509 641.427 455.402 641.305 456.539 641.062V645.63C455.057 646.036 453.616 646.239 452.215 646.239C449.697 646.239 447.799 645.478 446.52 643.955C445.241 642.432 444.601 640.27 444.601 637.468V617.033H438.602V612.679H444.601V604.7H450.235ZM476.974 628.85C476.974 625.622 477.603 622.718 478.862 620.14C480.141 617.561 481.907 615.572 484.161 614.171C486.435 612.77 489.023 612.069 491.927 612.069C496.414 612.069 500.038 613.623 502.799 616.729C505.58 619.835 506.971 623.967 506.971 629.124V629.52C506.971 632.727 506.352 635.61 505.113 638.169C503.895 640.706 502.139 642.686 499.845 644.107C497.571 645.528 494.952 646.239 491.988 646.239C487.521 646.239 483.897 644.686 481.116 641.579C478.354 638.473 476.974 634.362 476.974 629.246V628.85ZM482.638 629.52C482.638 633.174 483.481 636.108 485.166 638.321C486.871 640.534 489.145 641.64 491.988 641.64C494.85 641.64 497.124 640.524 498.809 638.29C500.495 636.037 501.337 632.89 501.337 628.85C501.337 625.236 500.474 622.312 498.749 620.079C497.043 617.825 494.769 616.698 491.927 616.698C489.145 616.698 486.902 617.805 485.196 620.018C483.491 622.231 482.638 625.398 482.638 629.52ZM516.808 645.63V617.033H511.6V612.679H516.808V609.298C516.808 605.765 517.752 603.035 519.64 601.106C521.528 599.177 524.198 598.213 527.649 598.213C528.949 598.213 530.238 598.385 531.517 598.731L531.213 603.299C530.258 603.116 529.243 603.025 528.167 603.025C526.34 603.025 524.929 603.563 523.934 604.639C522.939 605.694 522.442 607.217 522.442 609.207V612.679H529.477V617.033H522.442V645.63H516.808ZM570.377 636.89C570.377 635.367 569.798 634.189 568.641 633.357C567.504 632.504 565.504 631.773 562.641 631.164C559.799 630.555 557.535 629.824 555.85 628.971C554.185 628.119 552.947 627.104 552.135 625.926C551.343 624.749 550.947 623.348 550.947 621.723C550.947 619.023 552.084 616.739 554.358 614.871C556.652 613.003 559.575 612.069 563.128 612.069C566.864 612.069 569.889 613.034 572.204 614.963C574.539 616.891 575.706 619.358 575.706 622.363H570.042C570.042 620.82 569.382 619.49 568.062 618.373C566.763 617.257 565.118 616.698 563.128 616.698C561.078 616.698 559.474 617.145 558.317 618.038C557.159 618.932 556.581 620.099 556.581 621.541C556.581 622.901 557.119 623.926 558.195 624.617C559.271 625.307 561.21 625.967 564.012 626.596C566.834 627.225 569.118 627.977 570.864 628.85C572.61 629.723 573.899 630.778 574.731 632.017C575.584 633.235 576.011 634.727 576.011 636.494C576.011 639.438 574.833 641.803 572.478 643.589C570.123 645.356 567.067 646.239 563.311 646.239C560.672 646.239 558.337 645.772 556.307 644.838C554.276 643.904 552.683 642.605 551.525 640.94C550.388 639.255 549.82 637.438 549.82 635.489H555.454C555.556 637.377 556.307 638.879 557.708 639.996C559.129 641.092 560.997 641.64 563.311 641.64C565.443 641.64 567.148 641.214 568.427 640.361C569.727 639.488 570.377 638.331 570.377 636.89ZM597.024 646.239C592.557 646.239 588.923 644.777 586.121 641.854C583.32 638.91 581.919 634.981 581.919 630.068V629.032C581.919 625.764 582.538 622.85 583.776 620.292C585.035 617.714 586.781 615.704 589.014 614.262C591.268 612.8 593.704 612.069 596.323 612.069C600.607 612.069 603.937 613.48 606.312 616.303C608.688 619.125 609.875 623.165 609.875 628.423V630.768H587.553C587.634 634.017 588.578 636.646 590.385 638.656C592.212 640.646 594.527 641.64 597.328 641.64C599.318 641.64 601.003 641.234 602.384 640.422C603.764 639.61 604.972 638.534 606.008 637.194L609.449 639.874C606.688 644.117 602.546 646.239 597.024 646.239ZM596.323 616.698C594.05 616.698 592.141 617.531 590.598 619.196C589.055 620.84 588.101 623.155 587.735 626.139H604.241V625.713C604.079 622.85 603.308 620.637 601.927 619.074C600.546 617.49 598.679 616.698 596.323 616.698ZM632.351 617.734C631.498 617.592 630.574 617.521 629.579 617.521C625.884 617.521 623.377 619.094 622.057 622.241V645.63H616.423V612.679H621.905L621.996 616.485C623.844 613.541 626.463 612.069 629.853 612.069C630.95 612.069 631.782 612.212 632.351 612.496V617.734ZM648.979 637.986L657.14 612.679H662.896L651.08 645.63H646.786L634.848 612.679H640.604L648.979 637.986ZM681.564 646.239C677.098 646.239 673.464 644.777 670.662 641.854C667.86 638.91 666.459 634.981 666.459 630.068V629.032C666.459 625.764 667.078 622.85 668.317 620.292C669.576 617.714 671.322 615.704 673.555 614.262C675.809 612.8 678.245 612.069 680.864 612.069C685.148 612.069 688.478 613.48 690.853 616.303C693.228 619.125 694.416 623.165 694.416 628.423V630.768H672.093C672.174 634.017 673.119 636.646 674.925 638.656C676.753 640.646 679.067 641.64 681.869 641.64C683.859 641.64 685.544 641.234 686.924 640.422C688.305 639.61 689.513 638.534 690.548 637.194L693.99 639.874C691.229 644.117 687.087 646.239 681.564 646.239ZM680.864 616.698C678.59 616.698 676.682 617.531 675.139 619.196C673.596 620.84 672.641 623.155 672.276 626.139H688.782V625.713C688.62 622.85 687.848 620.637 686.468 619.074C685.087 617.49 683.219 616.698 680.864 616.698ZM716.891 617.734C716.039 617.592 715.115 617.521 714.12 617.521C710.425 617.521 707.917 619.094 706.598 622.241V645.63H700.964V612.679H706.445L706.537 616.485C708.384 613.541 711.003 612.069 714.394 612.069C715.49 612.069 716.323 612.212 716.891 612.496V617.734ZM741.285 636.89C741.285 635.367 740.706 634.189 739.549 633.357C738.412 632.504 736.412 631.773 733.55 631.164C730.707 630.555 728.443 629.824 726.758 628.971C725.094 628.119 723.855 627.104 723.043 625.926C722.251 624.749 721.855 623.348 721.855 621.723C721.855 619.023 722.992 616.739 725.266 614.871C727.56 613.003 730.484 612.069 734.037 612.069C737.773 612.069 740.798 613.034 743.112 614.963C745.447 616.891 746.614 619.358 746.614 622.363H740.95C740.95 620.82 740.29 619.49 738.97 618.373C737.671 617.257 736.027 616.698 734.037 616.698C731.986 616.698 730.382 617.145 729.225 618.038C728.068 618.932 727.489 620.099 727.489 621.541C727.489 622.901 728.027 623.926 729.103 624.617C730.179 625.307 732.118 625.967 734.92 626.596C737.742 627.225 740.026 627.977 741.772 628.85C743.518 629.723 744.807 630.778 745.64 632.017C746.493 633.235 746.919 634.727 746.919 636.494C746.919 639.438 745.741 641.803 743.386 643.589C741.031 645.356 737.976 646.239 734.22 646.239C731.58 646.239 729.245 645.772 727.215 644.838C725.185 643.904 723.591 642.605 722.434 640.94C721.297 639.255 720.728 637.438 720.728 635.489H726.362C726.464 637.377 727.215 638.879 728.616 639.996C730.037 641.092 731.905 641.64 734.22 641.64C736.351 641.64 738.057 641.214 739.336 640.361C740.635 639.488 741.285 638.331 741.285 636.89ZM754.076 654.462L750.878 652.269C752.786 649.609 753.781 646.868 753.863 644.046V638.96H759.375V643.376C759.375 645.427 758.867 647.477 757.852 649.528C756.857 651.579 755.598 653.223 754.076 654.462ZM791.169 630.372L787.636 634.057V645.63H782.002V598.852H787.636V627.144L790.651 623.52L800.914 612.679H807.766L794.945 626.444L809.259 645.63H802.65L791.169 630.372ZM818.912 612.679L819.095 616.82C821.613 613.653 824.902 612.069 828.962 612.069C835.926 612.069 839.439 615.998 839.499 623.855V645.63H833.865V623.825C833.845 621.449 833.297 619.693 832.221 618.556C831.165 617.419 829.51 616.851 827.257 616.851C825.43 616.851 823.826 617.338 822.445 618.313C821.065 619.287 819.988 620.566 819.217 622.15V645.63H813.583V612.679H818.912ZM846.504 628.85C846.504 625.622 847.133 622.718 848.392 620.14C849.671 617.561 851.437 615.572 853.691 614.171C855.965 612.77 858.554 612.069 861.457 612.069C865.944 612.069 869.568 613.623 872.329 616.729C875.11 619.835 876.501 623.967 876.501 629.124V629.52C876.501 632.727 875.882 635.61 874.643 638.169C873.425 640.706 871.669 642.686 869.375 644.107C867.101 645.528 864.482 646.239 861.518 646.239C857.051 646.239 853.427 644.686 850.646 641.579C847.884 638.473 846.504 634.362 846.504 629.246V628.85ZM852.168 629.52C852.168 633.174 853.011 636.108 854.696 638.321C856.401 640.534 858.675 641.64 861.518 641.64C864.38 641.64 866.654 640.524 868.339 638.29C870.025 636.037 870.867 632.89 870.867 628.85C870.867 625.236 870.004 622.312 868.279 620.079C866.573 617.825 864.299 616.698 861.457 616.698C858.675 616.698 856.432 617.805 854.726 620.018C853.021 622.231 852.168 625.398 852.168 629.52ZM912.742 637.864L919.076 612.679H924.71L915.117 645.63H910.549L902.539 620.658L894.743 645.63H890.175L880.612 612.679H886.216L892.703 637.346L900.377 612.679H904.915L912.742 637.864ZM935.795 612.679L935.978 616.82C938.496 613.653 941.785 612.069 945.845 612.069C952.809 612.069 956.321 615.998 956.382 623.855V645.63H950.748V623.825C950.728 621.449 950.18 619.693 949.104 618.556C948.048 617.419 946.393 616.851 944.14 616.851C942.312 616.851 940.709 617.338 939.328 618.313C937.947 619.287 936.871 620.566 936.1 622.15V645.63H930.466V612.679H935.795ZM1000.69 645.63C1000.37 644.98 1000.1 643.823 999.901 642.158C997.282 644.879 994.156 646.239 990.521 646.239C987.273 646.239 984.603 645.325 982.512 643.498C980.441 641.651 979.406 639.316 979.406 636.494C979.406 633.062 980.705 630.403 983.304 628.515C985.923 626.606 989.598 625.652 994.328 625.652H999.81V623.063C999.81 621.094 999.221 619.531 998.043 618.373C996.866 617.196 995.13 616.607 992.836 616.607C990.826 616.607 989.141 617.115 987.78 618.13C986.42 619.145 985.74 620.373 985.74 621.815H980.076C980.076 620.17 980.654 618.587 981.811 617.064C982.989 615.521 984.573 614.303 986.562 613.409C988.572 612.516 990.775 612.069 993.171 612.069C996.967 612.069 999.942 613.024 1002.09 614.932C1004.25 616.82 1005.36 619.429 1005.44 622.759V637.925C1005.44 640.95 1005.83 643.356 1006.6 645.143V645.63H1000.69ZM991.344 641.336C993.11 641.336 994.785 640.879 996.369 639.965C997.952 639.052 999.099 637.864 999.81 636.402V629.641H995.394C988.491 629.641 985.04 631.662 985.04 635.702C985.04 637.468 985.628 638.849 986.806 639.844C987.983 640.838 989.496 641.336 991.344 641.336ZM1033.46 636.89C1033.46 635.367 1032.88 634.189 1031.73 633.357C1030.59 632.504 1028.59 631.773 1025.73 631.164C1022.88 630.555 1020.62 629.824 1018.94 628.971C1017.27 628.119 1016.03 627.104 1015.22 625.926C1014.43 624.749 1014.03 623.348 1014.03 621.723C1014.03 619.023 1015.17 616.739 1017.44 614.871C1019.74 613.003 1022.66 612.069 1026.21 612.069C1029.95 612.069 1032.97 613.034 1035.29 614.963C1037.62 616.891 1038.79 619.358 1038.79 622.363H1033.13C1033.13 620.82 1032.47 619.49 1031.15 618.373C1029.85 617.257 1028.2 616.698 1026.21 616.698C1024.16 616.698 1022.56 617.145 1021.4 618.038C1020.24 618.932 1019.67 620.099 1019.67 621.541C1019.67 622.901 1020.2 623.926 1021.28 624.617C1022.36 625.307 1024.29 625.967 1027.1 626.596C1029.92 627.225 1032.2 627.977 1033.95 628.85C1035.69 629.723 1036.98 630.778 1037.82 632.017C1038.67 633.235 1039.1 634.727 1039.1 636.494C1039.1 639.438 1037.92 641.803 1035.56 643.589C1033.21 645.356 1030.15 646.239 1026.4 646.239C1023.76 646.239 1021.42 645.772 1019.39 644.838C1017.36 643.904 1015.77 642.605 1014.61 640.94C1013.47 639.255 1012.91 637.438 1012.91 635.489H1018.54C1018.64 637.377 1019.39 638.879 1020.79 639.996C1022.21 641.092 1024.08 641.64 1026.4 641.64C1028.53 641.64 1030.23 641.214 1031.51 640.361C1032.81 639.488 1033.46 638.331 1033.46 636.89ZM1082.25 645.63C1081.92 644.98 1081.66 643.823 1081.46 642.158C1078.84 644.879 1075.71 646.239 1072.08 646.239C1068.83 646.239 1066.16 645.325 1064.07 643.498C1062 641.651 1060.96 639.316 1060.96 636.494C1060.96 633.062 1062.26 630.403 1064.86 628.515C1067.48 626.606 1071.15 625.652 1075.88 625.652H1081.37V623.063C1081.37 621.094 1080.78 619.531 1079.6 618.373C1078.42 617.196 1076.69 616.607 1074.39 616.607C1072.38 616.607 1070.7 617.115 1069.34 618.13C1067.98 619.145 1067.3 620.373 1067.3 621.815H1061.63C1061.63 620.17 1062.21 618.587 1063.37 617.064C1064.55 615.521 1066.13 614.303 1068.12 613.409C1070.13 612.516 1072.33 612.069 1074.73 612.069C1078.52 612.069 1081.5 613.024 1083.65 614.932C1085.8 616.82 1086.92 619.429 1087 622.759V637.925C1087 640.95 1087.39 643.356 1088.16 645.143V645.63H1082.25ZM1072.9 641.336C1074.67 641.336 1076.34 640.879 1077.92 639.965C1079.51 639.052 1080.66 637.864 1081.37 636.402V629.641H1076.95C1070.05 629.641 1066.6 631.662 1066.6 635.702C1066.6 637.468 1067.18 638.849 1068.36 639.844C1069.54 640.838 1071.05 641.336 1072.9 641.336Z" fill="black"/>
<path d="M586.26 702.35C586.26 697.172 587.407 693.081 589.701 690.077C592.016 687.072 595.183 685.569 599.203 685.569C602.736 685.569 605.548 686.92 607.639 689.62L608.217 686.179H615.953V731.799H607.121V716.298C605.091 718.592 602.431 719.739 599.142 719.739C595.224 719.739 592.097 718.216 589.762 715.171C587.427 712.125 586.26 707.852 586.26 702.35ZM595.061 702.989C595.061 706.136 595.609 708.532 596.706 710.176C597.822 711.821 599.386 712.643 601.396 712.643C604.096 712.643 606.004 711.567 607.121 709.415V695.802C606.025 693.731 604.137 692.696 601.457 692.696C599.426 692.696 597.853 693.518 596.736 695.163C595.62 696.807 595.061 699.416 595.061 702.989ZM642.631 715.78C640.458 718.419 637.453 719.739 633.616 719.739C630.083 719.739 627.383 718.724 625.515 716.694C623.668 714.663 622.724 711.689 622.683 707.77V686.179H631.484V707.466C631.484 710.897 633.048 712.613 636.174 712.613C639.159 712.613 641.209 711.577 642.326 709.506V686.179H651.158V719.13H642.874L642.631 715.78ZM656.426 702.35C656.426 699.081 657.056 696.167 658.314 693.609C659.573 691.051 661.38 689.072 663.735 687.671C666.111 686.27 668.862 685.569 671.988 685.569C676.435 685.569 680.059 686.93 682.86 689.65C685.682 692.371 687.256 696.066 687.581 700.736L687.642 702.989C687.642 708.045 686.231 712.105 683.409 715.171C680.586 718.216 676.8 719.739 672.049 719.739C667.298 719.739 663.502 718.216 660.659 715.171C657.837 712.125 656.426 707.984 656.426 702.746V702.35ZM665.227 702.989C665.227 706.116 665.816 708.512 666.994 710.176C668.171 711.821 669.856 712.643 672.049 712.643C674.181 712.643 675.846 711.831 677.044 710.207C678.242 708.562 678.84 705.943 678.84 702.35C678.84 699.284 678.242 696.909 677.044 695.223C675.846 693.538 674.161 692.696 671.988 692.696C669.836 692.696 668.171 693.538 666.994 695.223C665.816 696.888 665.227 699.477 665.227 702.989ZM711.579 694.432C710.381 694.269 709.325 694.188 708.411 694.188C705.082 694.188 702.899 695.315 701.864 697.568V719.13H693.063V686.179H701.376L701.62 690.107C703.386 687.082 705.833 685.569 708.96 685.569C709.934 685.569 710.848 685.701 711.7 685.965L711.579 694.432ZM735.576 715.78C733.404 718.419 730.399 719.739 726.562 719.739C723.029 719.739 720.329 718.724 718.461 716.694C716.614 714.663 715.67 711.689 715.629 707.77V686.179H724.43V707.466C724.43 710.897 725.994 712.613 729.12 712.613C732.105 712.613 734.155 711.577 735.272 709.506V686.179H744.104V719.13H735.82L735.576 715.78ZM758.996 686.179L759.27 689.863C761.605 687.001 764.762 685.569 768.741 685.569C772.984 685.569 775.898 687.244 777.481 690.594C779.796 687.244 783.095 685.569 787.379 685.569C790.952 685.569 793.612 686.615 795.358 688.706C797.104 690.777 797.977 693.904 797.977 698.086V719.13H789.145V698.117C789.145 696.249 788.78 694.888 788.049 694.036C787.318 693.163 786.029 692.726 784.181 692.726C781.542 692.726 779.715 693.985 778.699 696.502L778.73 719.13H769.929V698.147C769.929 696.239 769.553 694.858 768.802 694.005C768.051 693.153 766.772 692.726 764.965 692.726C762.467 692.726 760.66 693.762 759.544 695.832V719.13H750.743V686.179H758.996Z" fill="black"/>
<path d="M840.552 716.176C840.552 715.201 840.836 714.389 841.404 713.74C841.993 713.09 842.866 712.765 844.023 712.765C845.181 712.765 846.054 713.09 846.642 713.74C847.252 714.389 847.556 715.201 847.556 716.176C847.556 717.11 847.252 717.891 846.642 718.521C846.054 719.15 845.181 719.465 844.023 719.465C842.866 719.465 841.993 719.15 841.404 718.521C840.836 717.891 840.552 717.11 840.552 716.176Z" fill="black"/>
</g>
<defs>
<clipPath id="clip0">
<rect width="1440" height="810" fill="white" transform="translate(0 135)"/>
</clipPath>
</defs>
</svg>
