<svg width="1440" height="1080" viewBox="0 0 1440 1080" fill="none" xmlns="http://www.w3.org/2000/svg">
<rect width="1440" height="1080" fill="white"/>
<g clip-path="url(#clip0)">
<path d="M0 135H1440V945H0V135Z" fill="white"/>
<path d="M622.277 244.881C615.523 242.94 610.602 240.561 607.512 237.744C604.449 234.9 602.918 231.4 602.918 227.244C602.918 222.541 604.791 218.658 608.537 215.596C612.311 212.506 617.205 210.961 623.221 210.961C627.322 210.961 630.973 211.754 634.172 213.34C637.398 214.926 639.887 217.113 641.637 219.902C643.414 222.691 644.303 225.74 644.303 229.049H636.387C636.387 225.44 635.238 222.609 632.941 220.559C630.645 218.481 627.404 217.441 623.221 217.441C619.338 217.441 616.303 218.303 614.115 220.025C611.955 221.721 610.875 224.086 610.875 227.121C610.875 229.555 611.9 231.619 613.951 233.315C616.029 234.982 619.543 236.514 624.492 237.908C629.469 239.303 633.352 240.848 636.141 242.543C638.957 244.211 641.035 246.166 642.375 248.408C643.742 250.65 644.426 253.289 644.426 256.324C644.426 261.164 642.539 265.047 638.766 267.973C634.992 270.871 629.947 272.32 623.631 272.32C619.529 272.32 615.701 271.541 612.146 269.982C608.592 268.397 605.844 266.236 603.902 263.502C601.988 260.768 601.031 257.664 601.031 254.191H608.947C608.947 257.801 610.273 260.658 612.926 262.764C615.605 264.842 619.174 265.881 623.631 265.881C627.787 265.881 630.973 265.033 633.187 263.338C635.402 261.643 636.51 259.332 636.51 256.406C636.51 253.481 635.484 251.225 633.434 249.639C631.383 248.025 627.664 246.44 622.277 244.881ZM680.766 271.5C680.328 270.625 679.973 269.066 679.699 266.824C676.172 270.488 671.961 272.32 667.066 272.32C662.691 272.32 659.096 271.09 656.279 268.629C653.49 266.141 652.096 262.996 652.096 259.195C652.096 254.574 653.846 250.992 657.346 248.449C660.873 245.879 665.822 244.594 672.193 244.594H679.576V241.107C679.576 238.455 678.783 236.35 677.197 234.791C675.611 233.205 673.273 232.412 670.184 232.412C667.477 232.412 665.207 233.096 663.375 234.463C661.543 235.83 660.627 237.484 660.627 239.426H652.998C652.998 237.211 653.777 235.078 655.336 233.027C656.922 230.949 659.055 229.309 661.734 228.106C664.441 226.902 667.408 226.301 670.635 226.301C675.748 226.301 679.754 227.586 682.652 230.156C685.551 232.699 687.055 236.213 687.164 240.697V261.123C687.164 265.197 687.684 268.438 688.723 270.844V271.5H680.766ZM668.174 265.717C670.553 265.717 672.809 265.102 674.941 263.871C677.074 262.641 678.619 261.041 679.576 259.072V249.967H673.629C664.332 249.967 659.684 252.688 659.684 258.129C659.684 260.508 660.477 262.367 662.062 263.707C663.648 265.047 665.686 265.717 668.174 265.717ZM702.791 271.5V232.986H695.777V227.121H702.791V222.568C702.791 217.811 704.062 214.133 706.605 211.535C709.148 208.938 712.744 207.639 717.393 207.639C719.143 207.639 720.879 207.871 722.602 208.336L722.191 214.488C720.906 214.242 719.539 214.119 718.09 214.119C715.629 214.119 713.729 214.844 712.389 216.293C711.049 217.715 710.379 219.766 710.379 222.445V227.121H719.854V232.986H710.379V271.5H702.791ZM745.693 272.32C739.678 272.32 734.783 270.352 731.01 266.414C727.236 262.449 725.35 257.158 725.35 250.541V249.147C725.35 244.744 726.184 240.82 727.852 237.375C729.547 233.902 731.898 231.195 734.906 229.254C737.941 227.285 741.223 226.301 744.75 226.301C750.52 226.301 755.004 228.201 758.203 232.002C761.402 235.803 763.002 241.244 763.002 248.326V251.484H732.937C733.047 255.859 734.318 259.4 736.752 262.107C739.213 264.787 742.33 266.127 746.104 266.127C748.783 266.127 751.053 265.58 752.912 264.486C754.771 263.393 756.398 261.943 757.793 260.139L762.428 263.748C758.709 269.463 753.131 272.32 745.693 272.32ZM744.75 232.535C741.687 232.535 739.117 233.656 737.039 235.898C734.961 238.113 733.676 241.231 733.184 245.25H755.414V244.676C755.195 240.82 754.156 237.84 752.297 235.734C750.437 233.602 747.922 232.535 744.75 232.535ZM782.115 216.375V227.121H790.4V232.986H782.115V260.508C782.115 262.285 782.484 263.625 783.223 264.527C783.961 265.402 785.219 265.84 786.996 265.84C787.871 265.84 789.074 265.676 790.605 265.348V271.5C788.609 272.047 786.668 272.32 784.781 272.32C781.391 272.32 778.834 271.295 777.111 269.244C775.389 267.193 774.527 264.281 774.527 260.508V232.986H766.447V227.121H774.527V216.375H782.115ZM813.82 260.385L824.156 227.121H832.277L814.436 278.35C811.674 285.732 807.285 289.424 801.27 289.424L799.834 289.301L797.004 288.768V282.615L799.055 282.779C801.625 282.779 803.621 282.26 805.043 281.221C806.492 280.182 807.682 278.281 808.611 275.52L810.293 271.008L794.461 227.121H802.746L813.82 260.385Z" fill="black"/>
<path d="M710.035 922.513H711.562C712.521 922.499 713.276 922.246 713.825 921.755C714.374 921.264 714.649 920.602 714.649 919.767C714.649 917.892 713.715 916.954 711.847 916.954C710.969 916.954 710.265 917.207 709.738 917.712C709.218 918.21 708.958 918.873 708.958 919.701H706.926C706.926 918.434 707.387 917.383 708.31 916.548C709.24 915.705 710.419 915.284 711.847 915.284C713.356 915.284 714.539 915.683 715.396 916.482C716.253 917.28 716.681 918.39 716.681 919.811C716.681 920.506 716.454 921.18 716 921.832C715.553 922.484 714.942 922.971 714.166 923.293C715.044 923.572 715.722 924.033 716.198 924.677C716.681 925.322 716.923 926.109 716.923 927.04C716.923 928.475 716.454 929.614 715.517 930.456C714.579 931.299 713.36 931.72 711.858 931.72C710.357 931.72 709.134 931.313 708.189 930.5C707.251 929.687 706.783 928.614 706.783 927.281H708.826C708.826 928.124 709.101 928.797 709.65 929.303C710.199 929.808 710.936 930.061 711.858 930.061C712.84 930.061 713.591 929.804 714.111 929.292C714.631 928.779 714.891 928.043 714.891 927.083C714.891 926.153 714.605 925.439 714.034 924.941C713.462 924.443 712.638 924.187 711.562 924.172H710.035V922.513ZM730.195 931.5H719.714V930.039L725.251 923.886C726.071 922.956 726.635 922.202 726.943 921.623C727.258 921.037 727.415 920.433 727.415 919.811C727.415 918.976 727.162 918.291 726.657 917.756C726.152 917.221 725.478 916.954 724.635 916.954C723.625 916.954 722.837 917.243 722.273 917.822C721.717 918.393 721.438 919.192 721.438 920.217H719.406C719.406 918.745 719.878 917.555 720.823 916.646C721.775 915.738 723.046 915.284 724.635 915.284C726.122 915.284 727.298 915.676 728.162 916.46C729.026 917.236 729.458 918.272 729.458 919.569C729.458 921.144 728.455 923.019 726.448 925.194L722.164 929.841H730.195V931.5Z" fill="black"/>
<path d="M84.8445 530.25V503.59H93.5603C96.4534 503.59 98.6262 504.188 100.079 505.384C101.544 506.581 102.276 508.351 102.276 510.694C102.276 511.939 101.922 513.044 101.214 514.009C100.506 514.961 99.5417 515.699 98.321 516.224C99.7615 516.627 100.897 517.396 101.727 518.531C102.569 519.654 102.99 520.997 102.99 522.56C102.99 524.952 102.215 526.832 100.665 528.199C99.1145 529.566 96.9233 530.25 94.0913 530.25H84.8445ZM88.3601 517.781V527.375H94.1645C95.8003 527.375 97.0881 526.954 98.0281 526.112C98.9802 525.257 99.4563 524.085 99.4563 522.596C99.4563 519.386 97.7107 517.781 94.2195 517.781H88.3601ZM88.3601 514.961H93.6702C95.2083 514.961 96.4351 514.576 97.3506 513.807C98.2783 513.038 98.7422 511.994 98.7422 510.676C98.7422 509.211 98.3149 508.149 97.4604 507.49C96.606 506.819 95.3059 506.483 93.5603 506.483H88.3601V514.961ZM115.899 530.616C113.214 530.616 111.029 529.737 109.344 527.98C107.659 526.21 106.817 523.847 106.817 520.893V520.271C106.817 518.305 107.189 516.554 107.934 515.016C108.691 513.465 109.741 512.257 111.083 511.39C112.438 510.511 113.903 510.072 115.478 510.072C118.054 510.072 120.056 510.92 121.484 512.617C122.912 514.314 123.626 516.743 123.626 519.905V521.314H110.205C110.253 523.268 110.821 524.848 111.907 526.057C113.006 527.253 114.398 527.851 116.082 527.851C117.279 527.851 118.292 527.607 119.122 527.119C119.952 526.631 120.678 525.984 121.301 525.178L123.37 526.789C121.71 529.341 119.219 530.616 115.899 530.616ZM115.478 512.855C114.111 512.855 112.963 513.356 112.036 514.356C111.108 515.345 110.534 516.737 110.314 518.531H120.239V518.275C120.141 516.554 119.677 515.223 118.847 514.283C118.017 513.331 116.894 512.855 115.478 512.855ZM129.229 530.25V513.056H126.098V510.438H129.229V508.406C129.229 506.282 129.797 504.64 130.932 503.48C132.067 502.32 133.673 501.741 135.748 501.741C136.529 501.741 137.304 501.844 138.073 502.052L137.89 504.798C137.316 504.689 136.706 504.634 136.059 504.634C134.96 504.634 134.112 504.957 133.514 505.604C132.916 506.239 132.617 507.154 132.617 508.351V510.438H136.846V513.056H132.617V530.25H129.229ZM139.703 520.161C139.703 518.22 140.081 516.474 140.838 514.924C141.607 513.374 142.669 512.178 144.024 511.335C145.391 510.493 146.948 510.072 148.693 510.072C151.391 510.072 153.57 511.006 155.23 512.873C156.903 514.741 157.739 517.225 157.739 520.326V520.564C157.739 522.492 157.366 524.226 156.622 525.764C155.889 527.29 154.833 528.48 153.454 529.335C152.087 530.189 150.512 530.616 148.73 530.616C146.044 530.616 143.865 529.682 142.193 527.815C140.533 525.947 139.703 523.475 139.703 520.399V520.161ZM143.109 520.564C143.109 522.761 143.615 524.525 144.628 525.856C145.654 527.186 147.021 527.851 148.73 527.851C150.451 527.851 151.818 527.18 152.832 525.837C153.845 524.482 154.351 522.59 154.351 520.161C154.351 517.988 153.833 516.23 152.795 514.887C151.77 513.533 150.402 512.855 148.693 512.855C147.021 512.855 145.672 513.52 144.647 514.851C143.621 516.181 143.109 518.086 143.109 520.564ZM171.563 513.478C171.051 513.392 170.495 513.349 169.897 513.349C167.675 513.349 166.168 514.295 165.374 516.188V530.25H161.987V510.438H165.283L165.338 512.727C166.448 510.957 168.023 510.072 170.062 510.072C170.721 510.072 171.221 510.157 171.563 510.328V513.478ZM182.55 530.616C179.864 530.616 177.679 529.737 175.994 527.98C174.31 526.21 173.468 523.847 173.468 520.893V520.271C173.468 518.305 173.84 516.554 174.584 515.016C175.341 513.465 176.391 512.257 177.734 511.39C179.089 510.511 180.554 510.072 182.128 510.072C184.704 510.072 186.706 510.92 188.134 512.617C189.562 514.314 190.277 516.743 190.277 519.905V521.314H176.855C176.904 523.268 177.471 524.848 178.558 526.057C179.656 527.253 181.048 527.851 182.733 527.851C183.929 527.851 184.942 527.607 185.772 527.119C186.602 526.631 187.329 525.984 187.951 525.178L190.02 526.789C188.36 529.341 185.87 530.616 182.55 530.616ZM182.128 512.855C180.761 512.855 179.614 513.356 178.686 514.356C177.758 515.345 177.185 516.737 176.965 518.531H186.889V518.275C186.791 516.554 186.328 515.223 185.498 514.283C184.667 513.331 183.544 512.855 182.128 512.855ZM215.747 530.25C215.551 529.859 215.393 529.164 215.27 528.163C213.696 529.798 211.816 530.616 209.631 530.616C207.678 530.616 206.072 530.067 204.815 528.968C203.57 527.857 202.948 526.454 202.948 524.757C202.948 522.694 203.729 521.095 205.291 519.96C206.866 518.812 209.075 518.238 211.92 518.238H215.216V516.682C215.216 515.498 214.862 514.558 214.154 513.862C213.446 513.154 212.402 512.8 211.022 512.8C209.814 512.8 208.801 513.105 207.983 513.716C207.165 514.326 206.756 515.064 206.756 515.931H203.35C203.35 514.942 203.698 513.99 204.394 513.075C205.102 512.147 206.054 511.415 207.25 510.877C208.459 510.34 209.783 510.072 211.224 510.072C213.507 510.072 215.295 510.646 216.589 511.793C217.883 512.928 218.554 514.497 218.603 516.499V525.617C218.603 527.436 218.835 528.883 219.299 529.957V530.25H215.747ZM210.125 527.668C211.187 527.668 212.194 527.394 213.146 526.844C214.099 526.295 214.788 525.581 215.216 524.702V520.637H212.561C208.41 520.637 206.335 521.852 206.335 524.281C206.335 525.343 206.689 526.173 207.397 526.771C208.105 527.369 209.014 527.668 210.125 527.668ZM241.162 527.851C242.37 527.851 243.426 527.485 244.329 526.753C245.233 526.02 245.733 525.105 245.831 524.006H249.035C248.974 525.141 248.583 526.222 247.863 527.247C247.143 528.272 246.179 529.09 244.97 529.701C243.774 530.311 242.504 530.616 241.162 530.616C238.464 530.616 236.315 529.719 234.716 527.925C233.129 526.118 232.336 523.652 232.336 520.527V519.96C232.336 518.031 232.69 516.316 233.398 514.814C234.106 513.313 235.119 512.147 236.437 511.317C237.768 510.487 239.337 510.072 241.143 510.072C243.365 510.072 245.208 510.737 246.673 512.068C248.15 513.398 248.937 515.126 249.035 517.25H245.831C245.733 515.968 245.245 514.918 244.366 514.1C243.499 513.27 242.425 512.855 241.143 512.855C239.422 512.855 238.085 513.478 237.133 514.723C236.193 515.956 235.723 517.744 235.723 520.088V520.729C235.723 523.011 236.193 524.769 237.133 526.002C238.073 527.235 239.416 527.851 241.162 527.851ZM256.524 530.25H253.137V502.125H256.524V530.25ZM265.643 530.25H262.255V510.438H265.643V530.25ZM261.981 505.183C261.981 504.634 262.145 504.17 262.475 503.791C262.817 503.413 263.317 503.224 263.977 503.224C264.636 503.224 265.136 503.413 265.478 503.791C265.82 504.17 265.991 504.634 265.991 505.183C265.991 505.732 265.82 506.19 265.478 506.556C265.136 506.922 264.636 507.106 263.977 507.106C263.317 507.106 262.817 506.922 262.475 506.556C262.145 506.19 261.981 505.732 261.981 505.183ZM279.302 530.616C276.617 530.616 274.432 529.737 272.747 527.98C271.063 526.21 270.22 523.847 270.22 520.893V520.271C270.22 518.305 270.593 516.554 271.337 515.016C272.094 513.465 273.144 512.257 274.487 511.39C275.842 510.511 277.307 510.072 278.881 510.072C281.457 510.072 283.459 510.92 284.887 512.617C286.315 514.314 287.03 516.743 287.03 519.905V521.314H273.608C273.657 523.268 274.224 524.848 275.311 526.057C276.409 527.253 277.801 527.851 279.486 527.851C280.682 527.851 281.695 527.607 282.525 527.119C283.355 526.631 284.082 525.984 284.704 525.178L286.773 526.789C285.113 529.341 282.623 530.616 279.302 530.616ZM278.881 512.855C277.514 512.855 276.367 513.356 275.439 514.356C274.511 515.345 273.937 516.737 273.718 518.531H283.642V518.275C283.544 516.554 283.081 515.223 282.25 514.283C281.42 513.331 280.297 512.855 278.881 512.855ZM294.171 510.438L294.281 512.928C295.794 511.024 297.772 510.072 300.213 510.072C304.4 510.072 306.512 512.434 306.549 517.158V530.25H303.161V517.14C303.149 515.711 302.819 514.656 302.172 513.972C301.538 513.288 300.543 512.947 299.188 512.947C298.089 512.947 297.125 513.24 296.295 513.825C295.465 514.411 294.818 515.18 294.354 516.133V530.25H290.966V510.438H294.171ZM316.253 505.641V510.438H319.952V513.056H316.253V525.343C316.253 526.136 316.418 526.734 316.748 527.137C317.077 527.528 317.639 527.723 318.432 527.723C318.823 527.723 319.36 527.65 320.043 527.503V530.25C319.152 530.494 318.286 530.616 317.443 530.616C315.93 530.616 314.788 530.158 314.019 529.243C313.25 528.327 312.866 527.027 312.866 525.343V513.056H309.259V510.438H312.866V505.641H316.253ZM350.769 525.581L354.577 510.438H357.965L352.197 530.25H349.45L344.635 515.235L339.947 530.25H337.2L331.451 510.438H334.82L338.72 525.27L343.334 510.438H346.063L350.769 525.581ZM371.002 513.478C370.489 513.392 369.934 513.349 369.335 513.349C367.114 513.349 365.606 514.295 364.813 516.188V530.25H361.425V510.438H364.721L364.776 512.727C365.887 510.957 367.462 510.072 369.5 510.072C370.159 510.072 370.66 510.157 371.002 510.328V513.478ZM377.813 530.25H374.426V510.438H377.813V530.25ZM374.151 505.183C374.151 504.634 374.316 504.17 374.645 503.791C374.987 503.413 375.488 503.224 376.147 503.224C376.806 503.224 377.307 503.413 377.648 503.791C377.99 504.17 378.161 504.634 378.161 505.183C378.161 505.732 377.99 506.19 377.648 506.556C377.307 506.922 376.806 507.106 376.147 507.106C375.488 507.106 374.987 506.922 374.645 506.556C374.316 506.19 374.151 505.732 374.151 505.183ZM387.847 505.641V510.438H391.546V513.056H387.847V525.343C387.847 526.136 388.012 526.734 388.342 527.137C388.671 527.528 389.233 527.723 390.026 527.723C390.417 527.723 390.954 527.65 391.638 527.503V530.25C390.747 530.494 389.88 530.616 389.038 530.616C387.524 530.616 386.383 530.158 385.614 529.243C384.844 528.327 384.46 527.027 384.46 525.343V513.056H380.853V510.438H384.46V505.641H387.847ZM403.741 530.616C401.055 530.616 398.87 529.737 397.186 527.98C395.501 526.21 394.659 523.847 394.659 520.893V520.271C394.659 518.305 395.031 516.554 395.776 515.016C396.533 513.465 397.582 512.257 398.925 511.39C400.28 510.511 401.745 510.072 403.32 510.072C405.895 510.072 407.897 510.92 409.326 512.617C410.754 514.314 411.468 516.743 411.468 519.905V521.314H398.046C398.095 523.268 398.663 524.848 399.749 526.057C400.848 527.253 402.239 527.851 403.924 527.851C405.12 527.851 406.134 527.607 406.964 527.119C407.794 526.631 408.52 525.984 409.143 525.178L411.212 526.789C409.551 529.341 407.061 530.616 403.741 530.616ZM403.32 512.855C401.953 512.855 400.805 513.356 399.877 514.356C398.95 515.345 398.376 516.737 398.156 518.531H408.081V518.275C407.983 516.554 407.519 515.223 406.689 514.283C405.859 513.331 404.736 512.855 403.32 512.855ZM426.94 524.995C426.94 524.079 426.593 523.371 425.897 522.871C425.213 522.358 424.011 521.919 422.29 521.553C420.581 521.186 419.219 520.747 418.206 520.234C417.205 519.721 416.461 519.111 415.972 518.403C415.496 517.695 415.258 516.853 415.258 515.876C415.258 514.253 415.942 512.879 417.309 511.756C418.688 510.633 420.446 510.072 422.582 510.072C424.829 510.072 426.647 510.652 428.039 511.811C429.443 512.971 430.145 514.454 430.145 516.261H426.739C426.739 515.333 426.342 514.533 425.549 513.862C424.768 513.191 423.779 512.855 422.582 512.855C421.35 512.855 420.385 513.124 419.689 513.661C418.994 514.198 418.646 514.9 418.646 515.766C418.646 516.584 418.969 517.201 419.616 517.616C420.263 518.031 421.429 518.428 423.113 518.806C424.81 519.184 426.184 519.636 427.233 520.161C428.283 520.686 429.058 521.321 429.559 522.065C430.072 522.798 430.328 523.695 430.328 524.757C430.328 526.527 429.62 527.949 428.204 529.023C426.788 530.085 424.951 530.616 422.692 530.616C421.105 530.616 419.702 530.335 418.481 529.774C417.26 529.212 416.302 528.431 415.606 527.43C414.923 526.417 414.581 525.324 414.581 524.153H417.968C418.029 525.288 418.481 526.191 419.323 526.863C420.178 527.522 421.301 527.851 422.692 527.851C423.974 527.851 424.999 527.595 425.769 527.082C426.55 526.557 426.94 525.862 426.94 524.995ZM456.274 530.25C456.079 529.859 455.92 529.164 455.798 528.163C454.223 529.798 452.343 530.616 450.158 530.616C448.205 530.616 446.6 530.067 445.343 528.968C444.097 527.857 443.475 526.454 443.475 524.757C443.475 522.694 444.256 521.095 445.819 519.96C447.393 518.812 449.603 518.238 452.447 518.238H455.743V516.682C455.743 515.498 455.389 514.558 454.681 513.862C453.973 513.154 452.929 512.8 451.55 512.8C450.341 512.8 449.328 513.105 448.51 513.716C447.692 514.326 447.283 515.064 447.283 515.931H443.878C443.878 514.942 444.226 513.99 444.921 513.075C445.629 512.147 446.582 511.415 447.778 510.877C448.986 510.34 450.311 510.072 451.751 510.072C454.034 510.072 455.822 510.646 457.116 511.793C458.41 512.928 459.082 514.497 459.13 516.499V525.617C459.13 527.436 459.362 528.883 459.826 529.957V530.25H456.274ZM450.653 527.668C451.715 527.668 452.722 527.394 453.674 526.844C454.626 526.295 455.316 525.581 455.743 524.702V520.637H453.088C448.937 520.637 446.862 521.852 446.862 524.281C446.862 525.343 447.216 526.173 447.924 526.771C448.632 527.369 449.542 527.668 450.653 527.668ZM480.279 525.654L485.186 510.438H488.647L481.542 530.25H478.961L471.783 510.438H475.244L480.279 525.654ZM503.845 530.25C503.649 529.859 503.491 529.164 503.369 528.163C501.794 529.798 499.914 530.616 497.729 530.616C495.776 530.616 494.171 530.067 492.913 528.968C491.668 527.857 491.046 526.454 491.046 524.757C491.046 522.694 491.827 521.095 493.389 519.96C494.964 518.812 497.174 518.238 500.018 518.238H503.314V516.682C503.314 515.498 502.96 514.558 502.252 513.862C501.544 513.154 500.5 512.8 499.121 512.8C497.912 512.8 496.899 513.105 496.081 513.716C495.263 514.326 494.854 515.064 494.854 515.931H491.448C491.448 514.942 491.796 513.99 492.492 513.075C493.2 512.147 494.152 511.415 495.349 510.877C496.557 510.34 497.882 510.072 499.322 510.072C501.605 510.072 503.393 510.646 504.687 511.793C505.981 512.928 506.652 514.497 506.701 516.499V525.617C506.701 527.436 506.933 528.883 507.397 529.957V530.25H503.845ZM498.223 527.668C499.285 527.668 500.292 527.394 501.245 526.844C502.197 526.295 502.886 525.581 503.314 524.702V520.637H500.659C496.508 520.637 494.433 521.852 494.433 524.281C494.433 525.343 494.787 526.173 495.495 526.771C496.203 527.369 497.113 527.668 498.223 527.668ZM515.692 530.25H512.304V502.125H515.692V530.25ZM533.361 528.291C532.043 529.841 530.108 530.616 527.557 530.616C525.445 530.616 523.834 530.006 522.723 528.785C521.624 527.552 521.069 525.733 521.057 523.329V510.438H524.444V523.237C524.444 526.24 525.665 527.741 528.106 527.741C530.694 527.741 532.415 526.777 533.27 524.848V510.438H536.657V530.25H533.435L533.361 528.291ZM550.042 530.616C547.357 530.616 545.172 529.737 543.487 527.98C541.802 526.21 540.96 523.847 540.96 520.893V520.271C540.96 518.305 541.332 516.554 542.077 515.016C542.834 513.465 543.884 512.257 545.227 511.39C546.582 510.511 548.046 510.072 549.621 510.072C552.197 510.072 554.199 510.92 555.627 512.617C557.055 514.314 557.769 516.743 557.769 519.905V521.314H544.348C544.396 523.268 544.964 524.848 546.051 526.057C547.149 527.253 548.541 527.851 550.225 527.851C551.422 527.851 552.435 527.607 553.265 527.119C554.095 526.631 554.821 525.984 555.444 525.178L557.513 526.789C555.853 529.341 553.363 530.616 550.042 530.616ZM549.621 512.855C548.254 512.855 547.106 513.356 546.179 514.356C545.251 515.345 544.677 516.737 544.457 518.531H554.382V518.275C554.284 516.554 553.82 515.223 552.99 514.283C552.16 513.331 551.037 512.855 549.621 512.855ZM575.604 505.641V510.438H579.302V513.056H575.604V525.343C575.604 526.136 575.769 526.734 576.098 527.137C576.428 527.528 576.989 527.723 577.783 527.723C578.173 527.723 578.71 527.65 579.394 527.503V530.25C578.503 530.494 577.636 530.616 576.794 530.616C575.28 530.616 574.139 530.158 573.37 529.243C572.601 528.327 572.216 527.027 572.216 525.343V513.056H568.609V510.438H572.216V505.641H575.604ZM582.012 520.161C582.012 518.22 582.391 516.474 583.148 514.924C583.917 513.374 584.979 512.178 586.334 511.335C587.701 510.493 589.257 510.072 591.003 510.072C593.701 510.072 595.88 511.006 597.54 512.873C599.212 514.741 600.048 517.225 600.048 520.326V520.564C600.048 522.492 599.676 524.226 598.931 525.764C598.199 527.29 597.143 528.48 595.764 529.335C594.396 530.189 592.822 530.616 591.04 530.616C588.354 530.616 586.175 529.682 584.503 527.815C582.842 525.947 582.012 523.475 582.012 520.399V520.161ZM585.418 520.564C585.418 522.761 585.925 524.525 586.938 525.856C587.963 527.186 589.331 527.851 591.04 527.851C592.761 527.851 594.128 527.18 595.141 525.837C596.154 524.482 596.661 522.59 596.661 520.161C596.661 517.988 596.142 516.23 595.104 514.887C594.079 513.533 592.712 512.855 591.003 512.855C589.331 512.855 587.982 513.52 586.956 514.851C585.931 516.181 585.418 518.086 585.418 520.564ZM623.175 513.478C622.662 513.392 622.106 513.349 621.508 513.349C619.287 513.349 617.779 514.295 616.986 516.188V530.25H613.598V510.438H616.894L616.949 512.727C618.06 510.957 619.634 510.072 621.673 510.072C622.332 510.072 622.833 510.157 623.175 510.328V513.478ZM634.161 530.616C631.475 530.616 629.29 529.737 627.606 527.98C625.921 526.21 625.079 523.847 625.079 520.893V520.271C625.079 518.305 625.451 516.554 626.196 515.016C626.953 513.465 628.002 512.257 629.345 511.39C630.7 510.511 632.165 510.072 633.74 510.072C636.315 510.072 638.317 510.92 639.746 512.617C641.174 514.314 641.888 516.743 641.888 519.905V521.314H628.466C628.515 523.268 629.083 524.848 630.169 526.057C631.268 527.253 632.659 527.851 634.344 527.851C635.54 527.851 636.553 527.607 637.384 527.119C638.214 526.631 638.94 525.984 639.562 525.178L641.632 526.789C639.971 529.341 637.481 530.616 634.161 530.616ZM633.74 512.855C632.373 512.855 631.225 513.356 630.297 514.356C629.37 515.345 628.796 516.737 628.576 518.531H638.5V518.275C638.403 516.554 637.939 515.223 637.109 514.283C636.279 513.331 635.156 512.855 633.74 512.855ZM645.019 520.179C645.019 517.091 645.733 514.637 647.161 512.818C648.59 510.987 650.482 510.072 652.838 510.072C655.255 510.072 657.141 510.926 658.496 512.635L658.66 510.438H661.755V529.774C661.755 532.337 660.992 534.358 659.466 535.835C657.952 537.312 655.914 538.05 653.35 538.05C651.922 538.05 650.524 537.745 649.157 537.135C647.79 536.524 646.746 535.688 646.026 534.626L647.784 532.594C649.237 534.388 651.013 535.285 653.112 535.285C654.76 535.285 656.042 534.822 656.957 533.894C657.885 532.966 658.349 531.66 658.349 529.975V528.272C656.994 529.835 655.145 530.616 652.801 530.616C650.482 530.616 648.602 529.682 647.161 527.815C645.733 525.947 645.019 523.402 645.019 520.179ZM648.425 520.564C648.425 522.798 648.883 524.555 649.798 525.837C650.714 527.107 651.995 527.741 653.643 527.741C655.779 527.741 657.348 526.771 658.349 524.83V515.785C657.311 513.893 655.755 512.947 653.68 512.947C652.032 512.947 650.744 513.587 649.816 514.869C648.889 516.151 648.425 518.049 648.425 520.564ZM670.562 530.25H667.175V510.438H670.562V530.25ZM666.9 505.183C666.9 504.634 667.065 504.17 667.394 503.791C667.736 503.413 668.237 503.224 668.896 503.224C669.555 503.224 670.056 503.413 670.397 503.791C670.739 504.17 670.91 504.634 670.91 505.183C670.91 505.732 670.739 506.19 670.397 506.556C670.056 506.922 669.555 507.106 668.896 507.106C668.237 507.106 667.736 506.922 667.394 506.556C667.065 506.19 666.9 505.732 666.9 505.183ZM687.536 524.995C687.536 524.079 687.188 523.371 686.492 522.871C685.809 522.358 684.606 521.919 682.885 521.553C681.176 521.186 679.815 520.747 678.802 520.234C677.801 519.721 677.056 519.111 676.568 518.403C676.092 517.695 675.854 516.853 675.854 515.876C675.854 514.253 676.538 512.879 677.905 511.756C679.284 510.633 681.042 510.072 683.178 510.072C685.424 510.072 687.243 510.652 688.635 511.811C690.039 512.971 690.74 514.454 690.74 516.261H687.335C687.335 515.333 686.938 514.533 686.144 513.862C685.363 513.191 684.374 512.855 683.178 512.855C681.945 512.855 680.981 513.124 680.285 513.661C679.589 514.198 679.241 514.9 679.241 515.766C679.241 516.584 679.565 517.201 680.212 517.616C680.859 518.031 682.025 518.428 683.709 518.806C685.406 519.184 686.779 519.636 687.829 520.161C688.879 520.686 689.654 521.321 690.154 522.065C690.667 522.798 690.924 523.695 690.924 524.757C690.924 526.527 690.216 527.949 688.8 529.023C687.383 530.085 685.546 530.616 683.288 530.616C681.701 530.616 680.297 530.335 679.077 529.774C677.856 529.212 676.898 528.431 676.202 527.43C675.518 526.417 675.176 525.324 675.176 524.153H678.564C678.625 525.288 679.077 526.191 679.919 526.863C680.773 527.522 681.896 527.851 683.288 527.851C684.57 527.851 685.595 527.595 686.364 527.082C687.145 526.557 687.536 525.862 687.536 524.995ZM699.932 505.641V510.438H703.631V513.056H699.932V525.343C699.932 526.136 700.097 526.734 700.427 527.137C700.756 527.528 701.318 527.723 702.111 527.723C702.502 527.723 703.039 527.65 703.723 527.503V530.25C702.831 530.494 701.965 530.616 701.123 530.616C699.609 530.616 698.467 530.158 697.698 529.243C696.929 528.327 696.545 527.027 696.545 525.343V513.056H692.938V510.438H696.545V505.641H699.932ZM715.826 530.616C713.14 530.616 710.955 529.737 709.271 527.98C707.586 526.21 706.744 523.847 706.744 520.893V520.271C706.744 518.305 707.116 516.554 707.861 515.016C708.618 513.465 709.667 512.257 711.01 511.39C712.365 510.511 713.83 510.072 715.405 510.072C717.98 510.072 719.982 510.92 721.411 512.617C722.839 514.314 723.553 516.743 723.553 519.905V521.314H710.131C710.18 523.268 710.748 524.848 711.834 526.057C712.933 527.253 714.324 527.851 716.009 527.851C717.205 527.851 718.218 527.607 719.049 527.119C719.879 526.631 720.605 525.984 721.227 525.178L723.297 526.789C721.636 529.341 719.146 530.616 715.826 530.616ZM715.405 512.855C714.038 512.855 712.89 513.356 711.962 514.356C711.035 515.345 710.461 516.737 710.241 518.531H720.165V518.275C720.068 516.554 719.604 515.223 718.774 514.283C717.944 513.331 716.821 512.855 715.405 512.855ZM737.066 513.478C736.553 513.392 735.998 513.349 735.4 513.349C733.178 513.349 731.671 514.295 730.877 516.188V530.25H727.49V510.438H730.786L730.841 512.727C731.951 510.957 733.526 510.072 735.565 510.072C736.224 510.072 736.724 510.157 737.066 510.328V513.478ZM753.179 530.25H749.792V510.438H753.179V530.25ZM749.517 505.183C749.517 504.634 749.682 504.17 750.012 503.791C750.353 503.413 750.854 503.224 751.513 503.224C752.172 503.224 752.673 503.413 753.015 503.791C753.356 504.17 753.527 504.634 753.527 505.183C753.527 505.732 753.356 506.19 753.015 506.556C752.673 506.922 752.172 507.106 751.513 507.106C750.854 507.106 750.353 506.922 750.012 506.556C749.682 506.19 749.517 505.732 749.517 505.183ZM771.6 530.25H768.212V510.438H771.6V530.25ZM767.938 505.183C767.938 504.634 768.102 504.17 768.432 503.791C768.774 503.413 769.274 503.224 769.934 503.224C770.593 503.224 771.093 503.413 771.435 503.791C771.777 504.17 771.948 504.634 771.948 505.183C771.948 505.732 771.777 506.19 771.435 506.556C771.093 506.922 770.593 507.106 769.934 507.106C769.274 507.106 768.774 506.922 768.432 506.556C768.102 506.19 767.938 505.732 767.938 505.183ZM781.634 505.641V510.438H785.333V513.056H781.634V525.343C781.634 526.136 781.799 526.734 782.128 527.137C782.458 527.528 783.019 527.723 783.813 527.723C784.204 527.723 784.741 527.65 785.424 527.503V530.25C784.533 530.494 783.666 530.616 782.824 530.616C781.31 530.616 780.169 530.158 779.4 529.243C778.631 528.327 778.247 527.027 778.247 525.343V513.056H774.639V510.438H778.247V505.641H781.634ZM801.794 510.438L801.885 512.635C803.338 510.926 805.297 510.072 807.763 510.072C810.534 510.072 812.42 511.134 813.421 513.258C814.08 512.306 814.935 511.537 815.985 510.951C817.047 510.365 818.298 510.072 819.738 510.072C824.084 510.072 826.293 512.373 826.367 516.975V530.25H822.979V517.176C822.979 515.76 822.656 514.704 822.009 514.009C821.362 513.301 820.275 512.947 818.749 512.947C817.492 512.947 816.448 513.325 815.618 514.082C814.788 514.826 814.306 515.834 814.172 517.103V530.25H810.766V517.268C810.766 514.387 809.356 512.947 806.536 512.947C804.315 512.947 802.795 513.893 801.977 515.785V530.25H798.59V510.438H801.794ZM843.725 528.291C842.407 529.841 840.472 530.616 837.921 530.616C835.809 530.616 834.197 530.006 833.087 528.785C831.988 527.552 831.433 525.733 831.42 523.329V510.438H834.808V523.237C834.808 526.24 836.029 527.741 838.47 527.741C841.058 527.741 842.779 526.777 843.633 524.848V510.438H847.021V530.25H843.798L843.725 528.291ZM863.72 524.995C863.72 524.079 863.372 523.371 862.676 522.871C861.993 522.358 860.79 521.919 859.069 521.553C857.36 521.186 855.999 520.747 854.986 520.234C853.985 519.721 853.24 519.111 852.752 518.403C852.276 517.695 852.038 516.853 852.038 515.876C852.038 514.253 852.722 512.879 854.089 511.756C855.468 510.633 857.226 510.072 859.362 510.072C861.608 510.072 863.427 510.652 864.819 511.811C866.223 512.971 866.924 514.454 866.924 516.261H863.519C863.519 515.333 863.122 514.533 862.329 513.862C861.547 513.191 860.559 512.855 859.362 512.855C858.129 512.855 857.165 513.124 856.469 513.661C855.773 514.198 855.425 514.9 855.425 515.766C855.425 516.584 855.749 517.201 856.396 517.616C857.043 518.031 858.209 518.428 859.893 518.806C861.59 519.184 862.963 519.636 864.013 520.161C865.063 520.686 865.838 521.321 866.339 522.065C866.851 522.798 867.108 523.695 867.108 524.757C867.108 526.527 866.4 527.949 864.984 529.023C863.568 530.085 861.73 530.616 859.472 530.616C857.885 530.616 856.481 530.335 855.261 529.774C854.04 529.212 853.082 528.431 852.386 527.43C851.702 526.417 851.361 525.324 851.361 524.153H854.748C854.809 525.288 855.261 526.191 856.103 526.863C856.957 527.522 858.081 527.851 859.472 527.851C860.754 527.851 861.779 527.595 862.548 527.082C863.33 526.557 863.72 525.862 863.72 524.995ZM876.116 505.641V510.438H879.815V513.056H876.116V525.343C876.116 526.136 876.281 526.734 876.611 527.137C876.94 527.528 877.502 527.723 878.295 527.723C878.686 527.723 879.223 527.65 879.907 527.503V530.25C879.016 530.494 878.149 530.616 877.307 530.616C875.793 530.616 874.652 530.158 873.883 529.243C873.113 528.327 872.729 527.027 872.729 525.343V513.056H869.122V510.438H872.729V505.641H876.116ZM901.312 530.616C898.626 530.616 896.441 529.737 894.757 527.98C893.072 526.21 892.23 523.847 892.23 520.893V520.271C892.23 518.305 892.602 516.554 893.347 515.016C894.103 513.465 895.153 512.257 896.496 511.39C897.851 510.511 899.316 510.072 900.891 510.072C903.466 510.072 905.468 510.92 906.896 512.617C908.325 514.314 909.039 516.743 909.039 519.905V521.314H895.617C895.666 523.268 896.234 524.848 897.32 526.057C898.419 527.253 899.81 527.851 901.495 527.851C902.691 527.851 903.704 527.607 904.534 527.119C905.364 526.631 906.091 525.984 906.713 525.178L908.782 526.789C907.122 529.341 904.632 530.616 901.312 530.616ZM900.891 512.855C899.523 512.855 898.376 513.356 897.448 514.356C896.52 515.345 895.947 516.737 895.727 518.531H905.651V518.275C905.554 516.554 905.09 515.223 904.26 514.283C903.43 513.331 902.307 512.855 900.891 512.855ZM916.18 510.438L916.29 512.928C917.803 511.024 919.781 510.072 922.222 510.072C926.409 510.072 928.521 512.434 928.558 517.158V530.25H925.17V517.14C925.158 515.711 924.829 514.656 924.182 513.972C923.547 513.288 922.552 512.947 921.197 512.947C920.098 512.947 919.134 513.24 918.304 513.825C917.474 514.411 916.827 515.18 916.363 516.133V530.25H912.976V510.438H916.18ZM945.202 524.995C945.202 524.079 944.854 523.371 944.158 522.871C943.475 522.358 942.272 521.919 940.551 521.553C938.842 521.186 937.481 520.747 936.468 520.234C935.467 519.721 934.722 519.111 934.234 518.403C933.758 517.695 933.52 516.853 933.52 515.876C933.52 514.253 934.204 512.879 935.571 511.756C936.95 510.633 938.708 510.072 940.844 510.072C943.09 510.072 944.909 510.652 946.301 511.811C947.705 512.971 948.406 514.454 948.406 516.261H945.001C945.001 515.333 944.604 514.533 943.81 513.862C943.029 513.191 942.04 512.855 940.844 512.855C939.611 512.855 938.647 513.124 937.951 513.661C937.255 514.198 936.907 514.9 936.907 515.766C936.907 516.584 937.231 517.201 937.878 517.616C938.525 518.031 939.691 518.428 941.375 518.806C943.072 519.184 944.445 519.636 945.495 520.161C946.545 520.686 947.32 521.321 947.82 522.065C948.333 522.798 948.59 523.695 948.59 524.757C948.59 526.527 947.882 527.949 946.466 529.023C945.049 530.085 943.212 530.616 940.954 530.616C939.367 530.616 937.963 530.335 936.743 529.774C935.522 529.212 934.564 528.431 933.868 527.43C933.184 526.417 932.842 525.324 932.842 524.153H936.23C936.291 525.288 936.743 526.191 937.585 526.863C938.439 527.522 939.562 527.851 940.954 527.851C942.236 527.851 943.261 527.595 944.03 527.082C944.811 526.557 945.202 525.862 945.202 524.995ZM965.234 528.291C963.915 529.841 961.981 530.616 959.429 530.616C957.318 530.616 955.706 530.006 954.595 528.785C953.497 527.552 952.941 525.733 952.929 523.329V510.438H956.317V523.237C956.317 526.24 957.537 527.741 959.979 527.741C962.567 527.741 964.288 526.777 965.142 524.848V510.438H968.53V530.25H965.307L965.234 528.291ZM983.27 513.478C982.757 513.392 982.202 513.349 981.603 513.349C979.382 513.349 977.874 514.295 977.081 516.188V530.25H973.693V510.438H976.989L977.044 512.727C978.155 510.957 979.73 510.072 981.768 510.072C982.427 510.072 982.928 510.157 983.27 510.328V513.478ZM994.256 530.616C991.57 530.616 989.385 529.737 987.701 527.98C986.016 526.21 985.174 523.847 985.174 520.893V520.271C985.174 518.305 985.546 516.554 986.291 515.016C987.048 513.465 988.098 512.257 989.44 511.39C990.795 510.511 992.26 510.072 993.835 510.072C996.411 510.072 998.413 510.92 999.841 512.617C1001.27 514.314 1001.98 516.743 1001.98 519.905V521.314H988.561C988.61 523.268 989.178 524.848 990.264 526.057C991.363 527.253 992.755 527.851 994.439 527.851C995.635 527.851 996.649 527.607 997.479 527.119C998.309 526.631 999.035 525.984 999.658 525.178L1001.73 526.789C1000.07 529.341 997.576 530.616 994.256 530.616ZM993.835 512.855C992.468 512.855 991.32 513.356 990.393 514.356C989.465 515.345 988.891 516.737 988.671 518.531H998.596V518.275C998.498 516.554 998.034 515.223 997.204 514.283C996.374 513.331 995.251 512.855 993.835 512.855ZM1019.82 505.641V510.438H1023.52V513.056H1019.82V525.343C1019.82 526.136 1019.98 526.734 1020.31 527.137C1020.64 527.528 1021.2 527.723 1022 527.723C1022.39 527.723 1022.92 527.65 1023.61 527.503V530.25C1022.72 530.494 1021.85 530.616 1021.01 530.616C1019.49 530.616 1018.35 530.158 1017.58 529.243C1016.81 528.327 1016.43 527.027 1016.43 525.343V513.056H1012.82V510.438H1016.43V505.641H1019.82ZM1030.88 512.837C1032.38 510.993 1034.33 510.072 1036.74 510.072C1040.92 510.072 1043.04 512.434 1043.07 517.158V530.25H1039.68V517.14C1039.67 515.711 1039.34 514.656 1038.7 513.972C1038.06 513.288 1037.07 512.947 1035.71 512.947C1034.61 512.947 1033.65 513.24 1032.82 513.825C1031.99 514.411 1031.34 515.18 1030.88 516.133V530.25H1027.49V502.125H1030.88V512.837ZM1060.38 530.25C1060.18 529.859 1060.02 529.164 1059.9 528.163C1058.32 529.798 1056.44 530.616 1054.26 530.616C1052.31 530.616 1050.7 530.067 1049.44 528.968C1048.2 527.857 1047.58 526.454 1047.58 524.757C1047.58 522.694 1048.36 521.095 1049.92 519.96C1051.49 518.812 1053.7 518.238 1056.55 518.238H1059.84V516.682C1059.84 515.498 1059.49 514.558 1058.78 513.862C1058.07 513.154 1057.03 512.8 1055.65 512.8C1054.44 512.8 1053.43 513.105 1052.61 513.716C1051.79 514.326 1051.38 515.064 1051.38 515.931H1047.98C1047.98 514.942 1048.33 513.99 1049.02 513.075C1049.73 512.147 1050.68 511.415 1051.88 510.877C1053.09 510.34 1054.41 510.072 1055.85 510.072C1058.14 510.072 1059.92 510.646 1061.22 511.793C1062.51 512.928 1063.18 514.497 1063.23 516.499V525.617C1063.23 527.436 1063.46 528.883 1063.93 529.957V530.25H1060.38ZM1054.75 527.668C1055.82 527.668 1056.82 527.394 1057.78 526.844C1058.73 526.295 1059.42 525.581 1059.84 524.702V520.637H1057.19C1053.04 520.637 1050.96 521.852 1050.96 524.281C1050.96 525.343 1051.32 526.173 1052.03 526.771C1052.73 527.369 1053.64 527.668 1054.75 527.668ZM1073.14 505.641V510.438H1076.84V513.056H1073.14V525.343C1073.14 526.136 1073.3 526.734 1073.63 527.137C1073.96 527.528 1074.52 527.723 1075.32 527.723C1075.71 527.723 1076.24 527.65 1076.93 527.503V530.25C1076.04 530.494 1075.17 530.616 1074.33 530.616C1072.81 530.616 1071.67 530.158 1070.9 529.243C1070.13 528.327 1069.75 527.027 1069.75 525.343V513.056H1066.14V510.438H1069.75V505.641H1073.14ZM1080.7 528.474C1080.7 527.888 1080.87 527.4 1081.21 527.009C1081.57 526.618 1082.09 526.423 1082.79 526.423C1083.48 526.423 1084.01 526.618 1084.36 527.009C1084.73 527.4 1084.91 527.888 1084.91 528.474C1084.91 529.035 1084.73 529.505 1084.36 529.884C1084.01 530.262 1083.48 530.451 1082.79 530.451C1082.09 530.451 1081.57 530.262 1081.21 529.884C1080.87 529.505 1080.7 529.035 1080.7 528.474ZM1080.72 512.306C1080.72 511.72 1080.89 511.231 1081.23 510.841C1081.59 510.45 1082.11 510.255 1082.81 510.255C1083.5 510.255 1084.03 510.45 1084.38 510.841C1084.75 511.231 1084.93 511.72 1084.93 512.306C1084.93 512.867 1084.75 513.337 1084.38 513.716C1084.03 514.094 1083.5 514.283 1082.81 514.283C1082.11 514.283 1081.59 514.094 1081.23 513.716C1080.89 513.337 1080.72 512.867 1080.72 512.306Z" fill="black"/>
<path d="M132.598 618.75H129.193V596.173L122.363 598.682V595.605L132.067 591.962H132.598V618.75ZM142.944 616.974C142.944 616.388 143.115 615.9 143.457 615.509C143.811 615.118 144.335 614.923 145.031 614.923C145.727 614.923 146.252 615.118 146.606 615.509C146.972 615.9 147.155 616.388 147.155 616.974C147.155 617.535 146.972 618.005 146.606 618.384C146.252 618.762 145.727 618.951 145.031 618.951C144.335 618.951 143.811 618.762 143.457 618.384C143.115 618.005 142.944 617.535 142.944 616.974Z" fill="black"/>
<path d="M201.334 618.75H197.8L184.378 598.206V618.75H180.844V592.09H184.378L197.837 612.726V592.09H201.334V618.75ZM206.15 608.661C206.15 606.72 206.528 604.974 207.285 603.424C208.054 601.874 209.116 600.678 210.471 599.835C211.838 598.993 213.395 598.572 215.14 598.572C217.838 598.572 220.017 599.506 221.677 601.373C223.349 603.241 224.186 605.725 224.186 608.826V609.064C224.186 610.992 223.813 612.726 223.069 614.264C222.336 615.79 221.28 616.98 219.901 617.835C218.534 618.689 216.959 619.116 215.177 619.116C212.491 619.116 210.312 618.182 208.64 616.315C206.98 614.447 206.15 611.975 206.15 608.899V608.661ZM209.555 609.064C209.555 611.261 210.062 613.025 211.075 614.355C212.101 615.686 213.468 616.351 215.177 616.351C216.898 616.351 218.265 615.68 219.278 614.337C220.292 612.982 220.798 611.09 220.798 608.661C220.798 606.488 220.279 604.73 219.242 603.387C218.216 602.032 216.849 601.355 215.14 601.355C213.468 601.355 212.119 602.02 211.094 603.351C210.068 604.681 209.555 606.586 209.555 609.064ZM236.838 608.661C236.838 606.72 237.217 604.974 237.973 603.424C238.742 601.874 239.804 600.678 241.159 599.835C242.527 598.993 244.083 598.572 245.829 598.572C248.526 598.572 250.705 599.506 252.365 601.373C254.038 603.241 254.874 605.725 254.874 608.826V609.064C254.874 610.992 254.502 612.726 253.757 614.264C253.025 615.79 251.969 616.98 250.589 617.835C249.222 618.689 247.647 619.116 245.865 619.116C243.18 619.116 241.001 618.182 239.328 616.315C237.668 614.447 236.838 611.975 236.838 608.899V608.661ZM240.244 609.064C240.244 611.261 240.75 613.025 241.764 614.355C242.789 615.686 244.156 616.351 245.865 616.351C247.586 616.351 248.954 615.68 249.967 614.337C250.98 612.982 251.487 611.09 251.487 608.661C251.487 606.488 250.968 604.73 249.93 603.387C248.905 602.032 247.538 601.355 245.829 601.355C244.156 601.355 242.807 602.02 241.782 603.351C240.757 604.681 240.244 606.586 240.244 609.064ZM263.718 594.141V598.938H267.417V601.556H263.718V613.843C263.718 614.636 263.883 615.234 264.212 615.637C264.542 616.028 265.104 616.223 265.897 616.223C266.288 616.223 266.825 616.15 267.508 616.003V618.75C266.617 618.994 265.75 619.116 264.908 619.116C263.395 619.116 262.253 618.658 261.484 617.743C260.715 616.827 260.331 615.527 260.331 613.843V601.556H256.723V598.938H260.331V594.141H263.718ZM274.778 601.337C276.279 599.493 278.232 598.572 280.637 598.572C284.824 598.572 286.936 600.934 286.972 605.658V618.75H283.585V605.64C283.573 604.211 283.243 603.156 282.596 602.472C281.961 601.788 280.967 601.447 279.612 601.447C278.513 601.447 277.549 601.74 276.718 602.325C275.888 602.911 275.241 603.68 274.778 604.633V618.75H271.39V590.625H274.778V601.337ZM300.266 619.116C297.58 619.116 295.395 618.237 293.711 616.48C292.026 614.71 291.184 612.347 291.184 609.393V608.771C291.184 606.805 291.556 605.054 292.301 603.516C293.058 601.965 294.107 600.757 295.45 599.89C296.805 599.011 298.27 598.572 299.845 598.572C302.42 598.572 304.422 599.42 305.851 601.117C307.279 602.814 307.993 605.243 307.993 608.405V609.814H294.571C294.62 611.768 295.188 613.348 296.274 614.557C297.373 615.753 298.764 616.351 300.449 616.351C301.645 616.351 302.658 616.107 303.489 615.619C304.319 615.131 305.045 614.484 305.667 613.678L307.737 615.289C306.076 617.841 303.586 619.116 300.266 619.116ZM299.845 601.355C298.478 601.355 297.33 601.855 296.402 602.856C295.475 603.845 294.901 605.237 294.681 607.031H304.605V606.775C304.508 605.054 304.044 603.723 303.214 602.783C302.384 601.831 301.261 601.355 299.845 601.355ZM321.506 601.978C320.993 601.892 320.438 601.849 319.84 601.849C317.618 601.849 316.111 602.795 315.317 604.688V618.75H311.93V598.938H315.226L315.281 601.227C316.391 599.457 317.966 598.572 320.005 598.572C320.664 598.572 321.164 598.657 321.506 598.828V601.978ZM340.476 614.154L345.383 598.938H348.844L341.739 618.75H339.157L331.98 598.938H335.44L340.476 614.154ZM364.041 618.75C363.846 618.359 363.687 617.664 363.565 616.663C361.991 618.298 360.111 619.116 357.926 619.116C355.973 619.116 354.367 618.567 353.11 617.468C351.865 616.357 351.242 614.954 351.242 613.257C351.242 611.194 352.024 609.595 353.586 608.46C355.161 607.312 357.37 606.738 360.215 606.738H363.51V605.182C363.51 603.998 363.156 603.058 362.448 602.362C361.74 601.654 360.697 601.3 359.317 601.3C358.109 601.3 357.096 601.605 356.278 602.216C355.46 602.826 355.051 603.564 355.051 604.431H351.645C351.645 603.442 351.993 602.49 352.689 601.575C353.397 600.647 354.349 599.915 355.545 599.377C356.754 598.84 358.078 598.572 359.519 598.572C361.801 598.572 363.59 599.146 364.884 600.293C366.178 601.428 366.849 602.997 366.898 604.999V614.117C366.898 615.936 367.13 617.383 367.594 618.457V618.75H364.041ZM358.42 616.168C359.482 616.168 360.489 615.894 361.441 615.344C362.394 614.795 363.083 614.081 363.51 613.202V609.137H360.855C356.705 609.137 354.63 610.352 354.63 612.781C354.63 613.843 354.984 614.673 355.692 615.271C356.4 615.869 357.309 616.168 358.42 616.168ZM375.888 618.75H372.501V590.625H375.888V618.75ZM393.558 616.791C392.24 618.341 390.305 619.116 387.754 619.116C385.642 619.116 384.031 618.506 382.92 617.285C381.821 616.052 381.266 614.233 381.253 611.829V598.938H384.641V611.737C384.641 614.74 385.862 616.241 388.303 616.241C390.891 616.241 392.612 615.277 393.467 613.348V598.938H396.854V618.75H393.631L393.558 616.791ZM410.239 619.116C407.553 619.116 405.368 618.237 403.684 616.48C401.999 614.71 401.157 612.347 401.157 609.393V608.771C401.157 606.805 401.529 605.054 402.274 603.516C403.031 601.965 404.081 600.757 405.423 599.89C406.778 599.011 408.243 598.572 409.818 598.572C412.394 598.572 414.395 599.42 415.824 601.117C417.252 602.814 417.966 605.243 417.966 608.405V609.814H404.544C404.593 611.768 405.161 613.348 406.247 614.557C407.346 615.753 408.738 616.351 410.422 616.351C411.618 616.351 412.632 616.107 413.462 615.619C414.292 615.131 415.018 614.484 415.641 613.678L417.71 615.289C416.05 617.841 413.559 619.116 410.239 619.116ZM409.818 601.355C408.451 601.355 407.303 601.855 406.375 602.856C405.448 603.845 404.874 605.237 404.654 607.031H414.579V606.775C414.481 605.054 414.017 603.723 413.187 602.783C412.357 601.831 411.234 601.355 409.818 601.355ZM433.438 613.495C433.438 612.579 433.091 611.871 432.395 611.371C431.711 610.858 430.509 610.419 428.788 610.053C427.079 609.686 425.718 609.247 424.704 608.734C423.703 608.221 422.959 607.611 422.47 606.903C421.994 606.195 421.756 605.353 421.756 604.376C421.756 602.753 422.44 601.379 423.807 600.256C425.187 599.133 426.944 598.572 429.081 598.572C431.327 598.572 433.145 599.152 434.537 600.311C435.941 601.471 436.643 602.954 436.643 604.761H433.237C433.237 603.833 432.84 603.033 432.047 602.362C431.266 601.691 430.277 601.355 429.081 601.355C427.848 601.355 426.883 601.624 426.187 602.161C425.492 602.698 425.144 603.4 425.144 604.266C425.144 605.084 425.467 605.701 426.114 606.116C426.761 606.531 427.927 606.928 429.612 607.306C431.308 607.684 432.682 608.136 433.731 608.661C434.781 609.186 435.556 609.821 436.057 610.565C436.57 611.298 436.826 612.195 436.826 613.257C436.826 615.027 436.118 616.449 434.702 617.523C433.286 618.585 431.449 619.116 429.19 619.116C427.603 619.116 426.2 618.835 424.979 618.274C423.758 617.712 422.8 616.931 422.104 615.93C421.421 614.917 421.079 613.824 421.079 612.653H424.466C424.527 613.788 424.979 614.691 425.821 615.363C426.676 616.022 427.799 616.351 429.19 616.351C430.472 616.351 431.498 616.095 432.267 615.582C433.048 615.057 433.438 614.362 433.438 613.495ZM458.487 616.351C459.696 616.351 460.752 615.985 461.655 615.253C462.558 614.52 463.059 613.605 463.156 612.506H466.361C466.3 613.641 465.909 614.722 465.189 615.747C464.469 616.772 463.504 617.59 462.296 618.201C461.1 618.811 459.83 619.116 458.487 619.116C455.79 619.116 453.641 618.219 452.042 616.425C450.455 614.618 449.662 612.152 449.662 609.027V608.46C449.662 606.531 450.016 604.816 450.724 603.314C451.432 601.813 452.445 600.647 453.763 599.817C455.094 598.987 456.662 598.572 458.469 598.572C460.691 598.572 462.534 599.237 463.999 600.568C465.476 601.898 466.263 603.626 466.361 605.75H463.156C463.059 604.468 462.571 603.418 461.692 602.6C460.825 601.77 459.751 601.355 458.469 601.355C456.748 601.355 455.411 601.978 454.459 603.223C453.519 604.456 453.049 606.244 453.049 608.588V609.229C453.049 611.511 453.519 613.269 454.459 614.502C455.399 615.735 456.742 616.351 458.487 616.351ZM469.272 608.661C469.272 606.72 469.651 604.974 470.407 603.424C471.176 601.874 472.239 600.678 473.593 599.835C474.961 598.993 476.517 598.572 478.263 598.572C480.96 598.572 483.139 599.506 484.8 601.373C486.472 603.241 487.308 605.725 487.308 608.826V609.064C487.308 610.992 486.936 612.726 486.191 614.264C485.459 615.79 484.403 616.98 483.023 617.835C481.656 618.689 480.082 619.116 478.299 619.116C475.614 619.116 473.435 618.182 471.762 616.315C470.102 614.447 469.272 611.975 469.272 608.899V608.661ZM472.678 609.064C472.678 611.261 473.185 613.025 474.198 614.355C475.223 615.686 476.59 616.351 478.299 616.351C480.02 616.351 481.388 615.68 482.401 614.337C483.414 612.982 483.921 611.09 483.921 608.661C483.921 606.488 483.402 604.73 482.364 603.387C481.339 602.032 479.972 601.355 478.263 601.355C476.59 601.355 475.241 602.02 474.216 603.351C473.191 604.681 472.678 606.586 472.678 609.064ZM503.788 616.791C502.469 618.341 500.534 619.116 497.983 619.116C495.871 619.116 494.26 618.506 493.149 617.285C492.051 616.052 491.495 614.233 491.483 611.829V598.938H494.87V611.737C494.87 614.74 496.091 616.241 498.532 616.241C501.12 616.241 502.842 615.277 503.696 613.348V598.938H507.083V618.75H503.861L503.788 616.791ZM515.927 618.75H512.54V590.625H515.927V618.75ZM520.542 608.679C520.542 605.64 521.262 603.198 522.702 601.355C524.143 599.5 526.029 598.572 528.36 598.572C530.68 598.572 532.517 599.365 533.872 600.952V590.625H537.259V618.75H534.146L533.982 616.626C532.627 618.286 530.741 619.116 528.324 619.116C526.029 619.116 524.155 618.176 522.702 616.296C521.262 614.417 520.542 611.963 520.542 608.936V608.679ZM523.929 609.064C523.929 611.31 524.393 613.068 525.321 614.337C526.249 615.607 527.53 616.241 529.166 616.241C531.314 616.241 532.883 615.277 533.872 613.348V604.248C532.859 602.38 531.302 601.447 529.203 601.447C527.542 601.447 526.249 602.087 525.321 603.369C524.393 604.651 523.929 606.549 523.929 609.064ZM568.607 609.064C568.607 612.091 567.911 614.526 566.52 616.37C565.128 618.201 563.26 619.116 560.916 619.116C558.414 619.116 556.479 618.231 555.112 616.461L554.947 618.75H551.834V590.625H555.222V601.117C556.589 599.42 558.475 598.572 560.88 598.572C563.285 598.572 565.171 599.481 566.538 601.3C567.917 603.119 568.607 605.609 568.607 608.771V609.064ZM565.219 608.679C565.219 606.372 564.774 604.59 563.883 603.333C562.992 602.075 561.71 601.447 560.038 601.447C557.804 601.447 556.198 602.484 555.222 604.559V613.129C556.259 615.204 557.877 616.241 560.074 616.241C561.698 616.241 562.961 615.613 563.864 614.355C564.768 613.098 565.219 611.206 565.219 608.679ZM581.113 619.116C578.427 619.116 576.242 618.237 574.558 616.48C572.873 614.71 572.031 612.347 572.031 609.393V608.771C572.031 606.805 572.403 605.054 573.148 603.516C573.905 601.965 574.955 600.757 576.297 599.89C577.652 599.011 579.117 598.572 580.692 598.572C583.268 598.572 585.269 599.42 586.698 601.117C588.126 602.814 588.84 605.243 588.84 608.405V609.814H575.418C575.467 611.768 576.035 613.348 577.121 614.557C578.22 615.753 579.612 616.351 581.296 616.351C582.492 616.351 583.506 616.107 584.336 615.619C585.166 615.131 585.892 614.484 586.515 613.678L588.584 615.289C586.924 617.841 584.433 619.116 581.113 619.116ZM580.692 601.355C579.325 601.355 578.177 601.855 577.249 602.856C576.322 603.845 575.748 605.237 575.528 607.031H585.453V606.775C585.355 605.054 584.891 603.723 584.061 602.783C583.231 601.831 582.108 601.355 580.692 601.355ZM601.255 608.679C601.255 605.64 601.975 603.198 603.415 601.355C604.856 599.5 606.742 598.572 609.073 598.572C611.393 598.572 613.23 599.365 614.585 600.952V590.625H617.972V618.75H614.859L614.695 616.626C613.34 618.286 611.454 619.116 609.037 619.116C606.742 619.116 604.868 618.176 603.415 616.296C601.975 614.417 601.255 611.963 601.255 608.936V608.679ZM604.642 609.064C604.642 611.31 605.106 613.068 606.034 614.337C606.961 615.607 608.243 616.241 609.879 616.241C612.027 616.241 613.596 615.277 614.585 613.348V604.248C613.571 602.38 612.015 601.447 609.915 601.447C608.255 601.447 606.961 602.087 606.034 603.369C605.106 604.651 604.642 606.549 604.642 609.064ZM631.467 619.116C628.781 619.116 626.596 618.237 624.912 616.48C623.227 614.71 622.385 612.347 622.385 609.393V608.771C622.385 606.805 622.757 605.054 623.502 603.516C624.259 601.965 625.309 600.757 626.651 599.89C628.006 599.011 629.471 598.572 631.046 598.572C633.622 598.572 635.623 599.42 637.052 601.117C638.48 602.814 639.194 605.243 639.194 608.405V609.814H625.772C625.821 611.768 626.389 613.348 627.475 614.557C628.574 615.753 629.966 616.351 631.65 616.351C632.846 616.351 633.86 616.107 634.69 615.619C635.52 615.131 636.246 614.484 636.869 613.678L638.938 615.289C637.278 617.841 634.787 619.116 631.467 619.116ZM631.046 601.355C629.679 601.355 628.531 601.855 627.603 602.856C626.676 603.845 626.102 605.237 625.882 607.031H635.807V606.775C635.709 605.054 635.245 603.723 634.415 602.783C633.585 601.831 632.462 601.355 631.046 601.355ZM651.078 616.351C652.286 616.351 653.342 615.985 654.245 615.253C655.149 614.52 655.649 613.605 655.747 612.506H658.951C658.89 613.641 658.499 614.722 657.779 615.747C657.059 616.772 656.095 617.59 654.886 618.201C653.69 618.811 652.42 619.116 651.078 619.116C648.38 619.116 646.231 618.219 644.632 616.425C643.045 614.618 642.252 612.152 642.252 609.027V608.46C642.252 606.531 642.606 604.816 643.314 603.314C644.022 601.813 645.035 600.647 646.353 599.817C647.684 598.987 649.253 598.572 651.059 598.572C653.281 598.572 655.124 599.237 656.589 600.568C658.066 601.898 658.853 603.626 658.951 605.75H655.747C655.649 604.468 655.161 603.418 654.282 602.6C653.415 601.77 652.341 601.355 651.059 601.355C649.338 601.355 648.001 601.978 647.049 603.223C646.109 604.456 645.639 606.244 645.639 608.588V609.229C645.639 611.511 646.109 613.269 647.049 614.502C647.989 615.735 649.332 616.351 651.078 616.351ZM666.44 618.75H663.053V598.938H666.44V618.75ZM662.778 593.683C662.778 593.134 662.943 592.67 663.272 592.291C663.614 591.913 664.115 591.724 664.774 591.724C665.433 591.724 665.934 591.913 666.275 592.291C666.617 592.67 666.788 593.134 666.788 593.683C666.788 594.232 666.617 594.69 666.275 595.056C665.934 595.422 665.433 595.605 664.774 595.605C664.115 595.605 663.614 595.422 663.272 595.056C662.943 594.69 662.778 594.232 662.778 593.683ZM671.054 608.679C671.054 605.64 671.775 603.198 673.215 601.355C674.655 599.5 676.541 598.572 678.873 598.572C681.192 598.572 683.03 599.365 684.384 600.952V590.625H687.772V618.75H684.659L684.494 616.626C683.139 618.286 681.253 619.116 678.836 619.116C676.541 619.116 674.668 618.176 673.215 616.296C671.775 614.417 671.054 611.963 671.054 608.936V608.679ZM674.442 609.064C674.442 611.31 674.906 613.068 675.833 614.337C676.761 615.607 678.043 616.241 679.679 616.241C681.827 616.241 683.396 615.277 684.384 613.348V604.248C683.371 602.38 681.815 601.447 679.715 601.447C678.055 601.447 676.761 602.087 675.833 603.369C674.906 604.651 674.442 606.549 674.442 609.064ZM701.267 619.116C698.581 619.116 696.396 618.237 694.712 616.48C693.027 614.71 692.185 612.347 692.185 609.393V608.771C692.185 606.805 692.557 605.054 693.302 603.516C694.059 601.965 695.108 600.757 696.451 599.89C697.806 599.011 699.271 598.572 700.846 598.572C703.421 598.572 705.423 599.42 706.852 601.117C708.28 602.814 708.994 605.243 708.994 608.405V609.814H695.572C695.621 611.768 696.189 613.348 697.275 614.557C698.374 615.753 699.765 616.351 701.45 616.351C702.646 616.351 703.659 616.107 704.489 615.619C705.32 615.131 706.046 614.484 706.668 613.678L708.738 615.289C707.077 617.841 704.587 619.116 701.267 619.116ZM700.846 601.355C699.478 601.355 698.331 601.855 697.403 602.856C696.476 603.845 695.902 605.237 695.682 607.031H705.606V606.775C705.509 605.054 705.045 603.723 704.215 602.783C703.385 601.831 702.262 601.355 700.846 601.355ZM712.107 608.679C712.107 605.64 712.827 603.198 714.267 601.355C715.708 599.5 717.594 598.572 719.925 598.572C722.245 598.572 724.082 599.365 725.437 600.952V590.625H728.824V618.75H725.711L725.547 616.626C724.192 618.286 722.306 619.116 719.889 619.116C717.594 619.116 715.72 618.176 714.267 616.296C712.827 614.417 712.107 611.963 712.107 608.936V608.679ZM715.494 609.064C715.494 611.31 715.958 613.068 716.886 614.337C717.813 615.607 719.095 616.241 720.731 616.241C722.879 616.241 724.448 615.277 725.437 613.348V604.248C724.424 602.38 722.867 601.447 720.768 601.447C719.107 601.447 717.813 602.087 716.886 603.369C715.958 604.651 715.494 606.549 715.494 609.064ZM747.08 618.75H743.692V598.938H747.08V618.75ZM743.418 593.683C743.418 593.134 743.582 592.67 743.912 592.291C744.254 591.913 744.754 591.724 745.414 591.724C746.073 591.724 746.573 591.913 746.915 592.291C747.257 592.67 747.428 593.134 747.428 593.683C747.428 594.232 747.257 594.69 746.915 595.056C746.573 595.422 746.073 595.605 745.414 595.605C744.754 595.605 744.254 595.422 743.912 595.056C743.582 594.69 743.418 594.232 743.418 593.683ZM755.722 598.938L755.832 601.428C757.346 599.524 759.323 598.572 761.765 598.572C765.952 598.572 768.064 600.934 768.1 605.658V618.75H764.713V605.64C764.701 604.211 764.371 603.156 763.724 602.472C763.089 601.788 762.094 601.447 760.739 601.447C759.641 601.447 758.676 601.74 757.846 602.325C757.016 602.911 756.369 603.68 755.905 604.633V618.75H752.518V598.938H755.722ZM792.087 601.978C791.574 601.892 791.019 601.849 790.421 601.849C788.199 601.849 786.692 602.795 785.898 604.688V618.75H782.511V598.938H785.807L785.862 601.227C786.972 599.457 788.547 598.572 790.586 598.572C791.245 598.572 791.745 598.657 792.087 598.828V601.978ZM803.073 619.116C800.388 619.116 798.203 618.237 796.518 616.48C794.834 614.71 793.991 612.347 793.991 609.393V608.771C793.991 606.805 794.364 605.054 795.108 603.516C795.865 601.965 796.915 600.757 798.258 599.89C799.613 599.011 801.078 598.572 802.652 598.572C805.228 598.572 807.23 599.42 808.658 601.117C810.086 602.814 810.8 605.243 810.8 608.405V609.814H797.379C797.428 611.768 797.995 613.348 799.082 614.557C800.18 615.753 801.572 616.351 803.257 616.351C804.453 616.351 805.466 616.107 806.296 615.619C807.126 615.131 807.852 614.484 808.475 613.678L810.544 615.289C808.884 617.841 806.394 619.116 803.073 619.116ZM802.652 601.355C801.285 601.355 800.138 601.855 799.21 602.856C798.282 603.845 797.708 605.237 797.489 607.031H807.413V606.775C807.315 605.054 806.852 603.723 806.021 602.783C805.191 601.831 804.068 601.355 802.652 601.355ZM813.932 608.679C813.932 605.591 814.646 603.137 816.074 601.318C817.502 599.487 819.394 598.572 821.75 598.572C824.167 598.572 826.053 599.426 827.408 601.135L827.573 598.938H830.667V618.274C830.667 620.837 829.904 622.858 828.379 624.335C826.865 625.812 824.826 626.55 822.263 626.55C820.835 626.55 819.437 626.245 818.07 625.635C816.703 625.024 815.659 624.188 814.939 623.126L816.696 621.094C818.149 622.888 819.925 623.785 822.025 623.785C823.673 623.785 824.955 623.322 825.87 622.394C826.798 621.466 827.262 620.16 827.262 618.475V616.772C825.907 618.335 824.057 619.116 821.714 619.116C819.394 619.116 817.514 618.182 816.074 616.315C814.646 614.447 813.932 611.902 813.932 608.679ZM817.337 609.064C817.337 611.298 817.795 613.055 818.711 614.337C819.626 615.607 820.908 616.241 822.556 616.241C824.692 616.241 826.261 615.271 827.262 613.33V604.285C826.224 602.393 824.668 601.447 822.592 601.447C820.945 601.447 819.657 602.087 818.729 603.369C817.801 604.651 817.337 606.549 817.337 609.064ZM839.475 618.75H836.087V598.938H839.475V618.75ZM835.813 593.683C835.813 593.134 835.977 592.67 836.307 592.291C836.649 591.913 837.149 591.724 837.809 591.724C838.468 591.724 838.968 591.913 839.31 592.291C839.652 592.67 839.823 593.134 839.823 593.683C839.823 594.232 839.652 594.69 839.31 595.056C838.968 595.422 838.468 595.605 837.809 595.605C837.149 595.605 836.649 595.422 836.307 595.056C835.977 594.69 835.813 594.232 835.813 593.683ZM856.449 613.495C856.449 612.579 856.101 611.871 855.405 611.371C854.721 610.858 853.519 610.419 851.798 610.053C850.089 609.686 848.728 609.247 847.715 608.734C846.714 608.221 845.969 607.611 845.481 606.903C845.005 606.195 844.767 605.353 844.767 604.376C844.767 602.753 845.45 601.379 846.817 600.256C848.197 599.133 849.955 598.572 852.091 598.572C854.337 598.572 856.156 599.152 857.547 600.311C858.951 601.471 859.653 602.954 859.653 604.761H856.247C856.247 603.833 855.851 603.033 855.057 602.362C854.276 601.691 853.287 601.355 852.091 601.355C850.858 601.355 849.894 601.624 849.198 602.161C848.502 602.698 848.154 603.4 848.154 604.266C848.154 605.084 848.477 605.701 849.124 606.116C849.771 606.531 850.937 606.928 852.622 607.306C854.319 607.684 855.692 608.136 856.742 608.661C857.791 609.186 858.567 609.821 859.067 610.565C859.58 611.298 859.836 612.195 859.836 613.257C859.836 615.027 859.128 616.449 857.712 617.523C856.296 618.585 854.459 619.116 852.201 619.116C850.614 619.116 849.21 618.835 847.989 618.274C846.769 617.712 845.81 616.931 845.114 615.93C844.431 614.917 844.089 613.824 844.089 612.653H847.477C847.538 613.788 847.989 614.691 848.831 615.363C849.686 616.022 850.809 616.351 852.201 616.351C853.482 616.351 854.508 616.095 855.277 615.582C856.058 615.057 856.449 614.362 856.449 613.495ZM868.845 594.141V598.938H872.544V601.556H868.845V613.843C868.845 614.636 869.01 615.234 869.339 615.637C869.669 616.028 870.23 616.223 871.024 616.223C871.414 616.223 871.952 616.15 872.635 616.003V618.75C871.744 618.994 870.877 619.116 870.035 619.116C868.521 619.116 867.38 618.658 866.611 617.743C865.842 616.827 865.457 615.527 865.457 613.843V601.556H861.85V598.938H865.457V594.141H868.845ZM884.738 619.116C882.053 619.116 879.868 618.237 878.183 616.48C876.499 614.71 875.656 612.347 875.656 609.393V608.771C875.656 606.805 876.029 605.054 876.773 603.516C877.53 601.965 878.58 600.757 879.923 599.89C881.278 599.011 882.743 598.572 884.317 598.572C886.893 598.572 888.895 599.42 890.323 601.117C891.751 602.814 892.466 605.243 892.466 608.405V609.814H879.044C879.093 611.768 879.66 613.348 880.747 614.557C881.845 615.753 883.237 616.351 884.922 616.351C886.118 616.351 887.131 616.107 887.961 615.619C888.791 615.131 889.518 614.484 890.14 613.678L892.209 615.289C890.549 617.841 888.059 619.116 884.738 619.116ZM884.317 601.355C882.95 601.355 881.803 601.855 880.875 602.856C879.947 603.845 879.373 605.237 879.154 607.031H889.078V606.775C888.98 605.054 888.517 603.723 887.686 602.783C886.856 601.831 885.733 601.355 884.317 601.355ZM905.979 601.978C905.466 601.892 904.911 601.849 904.312 601.849C902.091 601.849 900.583 602.795 899.79 604.688V618.75H896.402V598.938H899.698L899.753 601.227C900.864 599.457 902.439 598.572 904.477 598.572C905.136 598.572 905.637 598.657 905.979 598.828V601.978ZM929.947 613.495C929.947 612.579 929.599 611.871 928.904 611.371C928.22 610.858 927.018 610.419 925.296 610.053C923.587 609.686 922.226 609.247 921.213 608.734C920.212 608.221 919.467 607.611 918.979 606.903C918.503 606.195 918.265 605.353 918.265 604.376C918.265 602.753 918.949 601.379 920.316 600.256C921.695 599.133 923.453 598.572 925.589 598.572C927.835 598.572 929.654 599.152 931.046 600.311C932.45 601.471 933.152 602.954 933.152 604.761H929.746C929.746 603.833 929.349 603.033 928.556 602.362C927.774 601.691 926.786 601.355 925.589 601.355C924.356 601.355 923.392 601.624 922.696 602.161C922 602.698 921.653 603.4 921.653 604.266C921.653 605.084 921.976 605.701 922.623 606.116C923.27 606.531 924.436 606.928 926.12 607.306C927.817 607.684 929.19 608.136 930.24 608.661C931.29 609.186 932.065 609.821 932.566 610.565C933.078 611.298 933.335 612.195 933.335 613.257C933.335 615.027 932.627 616.449 931.211 617.523C929.795 618.585 927.957 619.116 925.699 619.116C924.112 619.116 922.708 618.835 921.488 618.274C920.267 617.712 919.309 616.931 918.613 615.93C917.929 614.917 917.588 613.824 917.588 612.653H920.975C921.036 613.788 921.488 614.691 922.33 615.363C923.185 616.022 924.308 616.351 925.699 616.351C926.981 616.351 928.006 616.095 928.775 615.582C929.557 615.057 929.947 614.362 929.947 613.495ZM945.969 619.116C943.283 619.116 941.098 618.237 939.414 616.48C937.729 614.71 936.887 612.347 936.887 609.393V608.771C936.887 606.805 937.259 605.054 938.004 603.516C938.761 601.965 939.81 600.757 941.153 599.89C942.508 599.011 943.973 598.572 945.548 598.572C948.123 598.572 950.125 599.42 951.554 601.117C952.982 602.814 953.696 605.243 953.696 608.405V609.814H940.274C940.323 611.768 940.891 613.348 941.977 614.557C943.076 615.753 944.467 616.351 946.152 616.351C947.348 616.351 948.362 616.107 949.192 615.619C950.022 615.131 950.748 614.484 951.371 613.678L953.44 615.289C951.779 617.841 949.289 619.116 945.969 619.116ZM945.548 601.355C944.181 601.355 943.033 601.855 942.105 602.856C941.178 603.845 940.604 605.237 940.384 607.031H950.309V606.775C950.211 605.054 949.747 603.723 948.917 602.783C948.087 601.831 946.964 601.355 945.548 601.355ZM962.229 594.141V598.938H965.927V601.556H962.229V613.843C962.229 614.636 962.393 615.234 962.723 615.637C963.053 616.028 963.614 616.223 964.408 616.223C964.798 616.223 965.335 616.15 966.019 616.003V618.75C965.128 618.994 964.261 619.116 963.419 619.116C961.905 619.116 960.764 618.658 959.995 617.743C959.226 616.827 958.841 615.527 958.841 613.843V601.556H955.234V598.938H958.841V594.141H962.229ZM982.883 618.75H979.496V598.938H982.883V618.75ZM979.221 593.683C979.221 593.134 979.386 592.67 979.715 592.291C980.057 591.913 980.558 591.724 981.217 591.724C981.876 591.724 982.376 591.913 982.718 592.291C983.06 592.67 983.231 593.134 983.231 593.683C983.231 594.232 983.06 594.69 982.718 595.056C982.376 595.422 981.876 595.605 981.217 595.605C980.558 595.605 980.057 595.422 979.715 595.056C979.386 594.69 979.221 594.232 979.221 593.683Z" fill="black"/>
<path d="M138.934 707.25H121.466V704.815L130.694 694.561C132.061 693.011 133.001 691.753 133.514 690.789C134.039 689.812 134.301 688.805 134.301 687.768C134.301 686.376 133.88 685.235 133.038 684.344C132.196 683.452 131.073 683.007 129.669 683.007C127.984 683.007 126.672 683.489 125.732 684.453C124.804 685.406 124.34 686.736 124.34 688.445H120.953C120.953 685.991 121.74 684.008 123.315 682.494C124.902 680.98 127.02 680.224 129.669 680.224C132.147 680.224 134.106 680.877 135.546 682.183C136.987 683.477 137.707 685.204 137.707 687.365C137.707 689.989 136.035 693.114 132.69 696.74L125.549 704.485H138.934V707.25ZM142.944 705.474C142.944 704.888 143.115 704.4 143.457 704.009C143.811 703.618 144.335 703.423 145.031 703.423C145.727 703.423 146.252 703.618 146.606 704.009C146.972 704.4 147.155 704.888 147.155 705.474C147.155 706.035 146.972 706.505 146.606 706.884C146.252 707.262 145.727 707.451 145.031 707.451C144.335 707.451 143.811 707.262 143.457 706.884C143.115 706.505 142.944 706.035 142.944 705.474Z" fill="black"/>
<path d="M201.334 707.25H197.8L184.378 686.706V707.25H180.844V680.59H184.378L197.837 701.226V680.59H201.334V707.25ZM206.15 697.161C206.15 695.22 206.528 693.474 207.285 691.924C208.054 690.374 209.116 689.178 210.471 688.335C211.838 687.493 213.395 687.072 215.14 687.072C217.838 687.072 220.017 688.006 221.677 689.873C223.349 691.741 224.186 694.225 224.186 697.326V697.564C224.186 699.492 223.813 701.226 223.069 702.764C222.336 704.29 221.28 705.48 219.901 706.334C218.534 707.189 216.959 707.616 215.177 707.616C212.491 707.616 210.312 706.682 208.64 704.815C206.98 702.947 206.15 700.475 206.15 697.399V697.161ZM209.555 697.564C209.555 699.761 210.062 701.525 211.075 702.855C212.101 704.186 213.468 704.851 215.177 704.851C216.898 704.851 218.265 704.18 219.278 702.837C220.292 701.482 220.798 699.59 220.798 697.161C220.798 694.988 220.279 693.23 219.242 691.887C218.216 690.532 216.849 689.855 215.14 689.855C213.468 689.855 212.119 690.52 211.094 691.851C210.068 693.181 209.555 695.086 209.555 697.564ZM236.838 697.161C236.838 695.22 237.217 693.474 237.973 691.924C238.742 690.374 239.804 689.178 241.159 688.335C242.527 687.493 244.083 687.072 245.829 687.072C248.526 687.072 250.705 688.006 252.365 689.873C254.038 691.741 254.874 694.225 254.874 697.326V697.564C254.874 699.492 254.502 701.226 253.757 702.764C253.025 704.29 251.969 705.48 250.589 706.334C249.222 707.189 247.647 707.616 245.865 707.616C243.18 707.616 241.001 706.682 239.328 704.815C237.668 702.947 236.838 700.475 236.838 697.399V697.161ZM240.244 697.564C240.244 699.761 240.75 701.525 241.764 702.855C242.789 704.186 244.156 704.851 245.865 704.851C247.586 704.851 248.954 704.18 249.967 702.837C250.98 701.482 251.487 699.59 251.487 697.161C251.487 694.988 250.968 693.23 249.93 691.887C248.905 690.532 247.538 689.855 245.829 689.855C244.156 689.855 242.807 690.52 241.782 691.851C240.757 693.181 240.244 695.086 240.244 697.564ZM263.718 682.641V687.438H267.417V690.056H263.718V702.343C263.718 703.136 263.883 703.734 264.212 704.137C264.542 704.528 265.104 704.723 265.897 704.723C266.288 704.723 266.825 704.65 267.508 704.503V707.25C266.617 707.494 265.75 707.616 264.908 707.616C263.395 707.616 262.253 707.158 261.484 706.243C260.715 705.327 260.331 704.027 260.331 702.343V690.056H256.723V687.438H260.331V682.641H263.718ZM274.778 689.837C276.279 687.993 278.232 687.072 280.637 687.072C284.824 687.072 286.936 689.434 286.972 694.158V707.25H283.585V694.14C283.573 692.711 283.243 691.656 282.596 690.972C281.961 690.288 280.967 689.947 279.612 689.947C278.513 689.947 277.549 690.24 276.718 690.825C275.888 691.411 275.241 692.18 274.778 693.133V707.25H271.39V679.125H274.778V689.837ZM300.266 707.616C297.58 707.616 295.395 706.737 293.711 704.98C292.026 703.209 291.184 700.847 291.184 697.893V697.271C291.184 695.305 291.556 693.554 292.301 692.016C293.058 690.465 294.107 689.257 295.45 688.39C296.805 687.511 298.27 687.072 299.845 687.072C302.42 687.072 304.422 687.92 305.851 689.617C307.279 691.314 307.993 693.743 307.993 696.905V698.314H294.571C294.62 700.268 295.188 701.848 296.274 703.057C297.373 704.253 298.764 704.851 300.449 704.851C301.645 704.851 302.658 704.607 303.489 704.119C304.319 703.631 305.045 702.984 305.667 702.178L307.737 703.789C306.076 706.341 303.586 707.616 300.266 707.616ZM299.845 689.855C298.478 689.855 297.33 690.355 296.402 691.356C295.475 692.345 294.901 693.737 294.681 695.531H304.605V695.275C304.508 693.554 304.044 692.223 303.214 691.283C302.384 690.331 301.261 689.855 299.845 689.855ZM321.506 690.478C320.993 690.392 320.438 690.349 319.84 690.349C317.618 690.349 316.111 691.295 315.317 693.188V707.25H311.93V687.438H315.226L315.281 689.727C316.391 687.957 317.966 687.072 320.005 687.072C320.664 687.072 321.164 687.157 321.506 687.328V690.478ZM340.476 702.654L345.383 687.438H348.844L341.739 707.25H339.157L331.98 687.438H335.44L340.476 702.654ZM364.041 707.25C363.846 706.859 363.687 706.164 363.565 705.163C361.991 706.798 360.111 707.616 357.926 707.616C355.973 707.616 354.367 707.067 353.11 705.968C351.865 704.857 351.242 703.454 351.242 701.757C351.242 699.694 352.024 698.095 353.586 696.959C355.161 695.812 357.37 695.238 360.215 695.238H363.51V693.682C363.51 692.498 363.156 691.558 362.448 690.862C361.74 690.154 360.697 689.8 359.317 689.8C358.109 689.8 357.096 690.105 356.278 690.716C355.46 691.326 355.051 692.064 355.051 692.931H351.645C351.645 691.942 351.993 690.99 352.689 690.075C353.397 689.147 354.349 688.415 355.545 687.877C356.754 687.34 358.078 687.072 359.519 687.072C361.801 687.072 363.59 687.646 364.884 688.793C366.178 689.928 366.849 691.497 366.898 693.499V702.617C366.898 704.436 367.13 705.883 367.594 706.957V707.25H364.041ZM358.42 704.668C359.482 704.668 360.489 704.394 361.441 703.844C362.394 703.295 363.083 702.581 363.51 701.702V697.637H360.855C356.705 697.637 354.63 698.852 354.63 701.281C354.63 702.343 354.984 703.173 355.692 703.771C356.4 704.369 357.309 704.668 358.42 704.668ZM375.888 707.25H372.501V679.125H375.888V707.25ZM393.558 705.291C392.24 706.841 390.305 707.616 387.754 707.616C385.642 707.616 384.031 707.006 382.92 705.785C381.821 704.552 381.266 702.733 381.253 700.329V687.438H384.641V700.237C384.641 703.24 385.862 704.741 388.303 704.741C390.891 704.741 392.612 703.777 393.467 701.848V687.438H396.854V707.25H393.631L393.558 705.291ZM410.239 707.616C407.553 707.616 405.368 706.737 403.684 704.98C401.999 703.209 401.157 700.847 401.157 697.893V697.271C401.157 695.305 401.529 693.554 402.274 692.016C403.031 690.465 404.081 689.257 405.423 688.39C406.778 687.511 408.243 687.072 409.818 687.072C412.394 687.072 414.395 687.92 415.824 689.617C417.252 691.314 417.966 693.743 417.966 696.905V698.314H404.544C404.593 700.268 405.161 701.848 406.247 703.057C407.346 704.253 408.738 704.851 410.422 704.851C411.618 704.851 412.632 704.607 413.462 704.119C414.292 703.631 415.018 702.984 415.641 702.178L417.71 703.789C416.05 706.341 413.559 707.616 410.239 707.616ZM409.818 689.855C408.451 689.855 407.303 690.355 406.375 691.356C405.448 692.345 404.874 693.737 404.654 695.531H414.579V695.275C414.481 693.554 414.017 692.223 413.187 691.283C412.357 690.331 411.234 689.855 409.818 689.855ZM433.438 701.995C433.438 701.079 433.091 700.371 432.395 699.871C431.711 699.358 430.509 698.919 428.788 698.553C427.079 698.186 425.718 697.747 424.704 697.234C423.703 696.721 422.959 696.111 422.47 695.403C421.994 694.695 421.756 693.853 421.756 692.876C421.756 691.253 422.44 689.879 423.807 688.756C425.187 687.633 426.944 687.072 429.081 687.072C431.327 687.072 433.145 687.652 434.537 688.811C435.941 689.971 436.643 691.454 436.643 693.261H433.237C433.237 692.333 432.84 691.533 432.047 690.862C431.266 690.191 430.277 689.855 429.081 689.855C427.848 689.855 426.883 690.124 426.187 690.661C425.492 691.198 425.144 691.9 425.144 692.766C425.144 693.584 425.467 694.201 426.114 694.616C426.761 695.031 427.927 695.428 429.612 695.806C431.308 696.184 432.682 696.636 433.731 697.161C434.781 697.686 435.556 698.321 436.057 699.065C436.57 699.798 436.826 700.695 436.826 701.757C436.826 703.527 436.118 704.949 434.702 706.023C433.286 707.085 431.449 707.616 429.19 707.616C427.603 707.616 426.2 707.335 424.979 706.774C423.758 706.212 422.8 705.431 422.104 704.43C421.421 703.417 421.079 702.324 421.079 701.153H424.466C424.527 702.288 424.979 703.191 425.821 703.863C426.676 704.522 427.799 704.851 429.19 704.851C430.472 704.851 431.498 704.595 432.267 704.082C433.048 703.557 433.438 702.862 433.438 701.995ZM458.487 704.851C459.696 704.851 460.752 704.485 461.655 703.753C462.558 703.02 463.059 702.105 463.156 701.006H466.361C466.3 702.141 465.909 703.222 465.189 704.247C464.469 705.272 463.504 706.09 462.296 706.701C461.1 707.311 459.83 707.616 458.487 707.616C455.79 707.616 453.641 706.719 452.042 704.925C450.455 703.118 449.662 700.652 449.662 697.527V696.959C449.662 695.031 450.016 693.316 450.724 691.814C451.432 690.313 452.445 689.147 453.763 688.317C455.094 687.487 456.662 687.072 458.469 687.072C460.691 687.072 462.534 687.737 463.999 689.068C465.476 690.398 466.263 692.126 466.361 694.25H463.156C463.059 692.968 462.571 691.918 461.692 691.1C460.825 690.27 459.751 689.855 458.469 689.855C456.748 689.855 455.411 690.478 454.459 691.723C453.519 692.956 453.049 694.744 453.049 697.088V697.729C453.049 700.011 453.519 701.769 454.459 703.002C455.399 704.235 456.742 704.851 458.487 704.851ZM469.272 697.161C469.272 695.22 469.651 693.474 470.407 691.924C471.176 690.374 472.239 689.178 473.593 688.335C474.961 687.493 476.517 687.072 478.263 687.072C480.96 687.072 483.139 688.006 484.8 689.873C486.472 691.741 487.308 694.225 487.308 697.326V697.564C487.308 699.492 486.936 701.226 486.191 702.764C485.459 704.29 484.403 705.48 483.023 706.334C481.656 707.189 480.082 707.616 478.299 707.616C475.614 707.616 473.435 706.682 471.762 704.815C470.102 702.947 469.272 700.475 469.272 697.399V697.161ZM472.678 697.564C472.678 699.761 473.185 701.525 474.198 702.855C475.223 704.186 476.59 704.851 478.299 704.851C480.02 704.851 481.388 704.18 482.401 702.837C483.414 701.482 483.921 699.59 483.921 697.161C483.921 694.988 483.402 693.23 482.364 691.887C481.339 690.532 479.972 689.855 478.263 689.855C476.59 689.855 475.241 690.52 474.216 691.851C473.191 693.181 472.678 695.086 472.678 697.564ZM503.788 705.291C502.469 706.841 500.534 707.616 497.983 707.616C495.871 707.616 494.26 707.006 493.149 705.785C492.051 704.552 491.495 702.733 491.483 700.329V687.438H494.87V700.237C494.87 703.24 496.091 704.741 498.532 704.741C501.12 704.741 502.842 703.777 503.696 701.848V687.438H507.083V707.25H503.861L503.788 705.291ZM515.927 707.25H512.54V679.125H515.927V707.25ZM520.542 697.179C520.542 694.14 521.262 691.698 522.702 689.855C524.143 688 526.029 687.072 528.36 687.072C530.68 687.072 532.517 687.865 533.872 689.452V679.125H537.259V707.25H534.146L533.982 705.126C532.627 706.786 530.741 707.616 528.324 707.616C526.029 707.616 524.155 706.676 522.702 704.796C521.262 702.917 520.542 700.463 520.542 697.436V697.179ZM523.929 697.564C523.929 699.81 524.393 701.568 525.321 702.837C526.249 704.107 527.53 704.741 529.166 704.741C531.314 704.741 532.883 703.777 533.872 701.848V692.748C532.859 690.88 531.302 689.947 529.203 689.947C527.542 689.947 526.249 690.587 525.321 691.869C524.393 693.151 523.929 695.049 523.929 697.564ZM568.607 697.564C568.607 700.591 567.911 703.026 566.52 704.87C565.128 706.701 563.26 707.616 560.916 707.616C558.414 707.616 556.479 706.731 555.112 704.961L554.947 707.25H551.834V679.125H555.222V689.617C556.589 687.92 558.475 687.072 560.88 687.072C563.285 687.072 565.171 687.981 566.538 689.8C567.917 691.619 568.607 694.109 568.607 697.271V697.564ZM565.219 697.179C565.219 694.872 564.774 693.09 563.883 691.833C562.992 690.575 561.71 689.947 560.038 689.947C557.804 689.947 556.198 690.984 555.222 693.059V701.629C556.259 703.704 557.877 704.741 560.074 704.741C561.698 704.741 562.961 704.113 563.864 702.855C564.768 701.598 565.219 699.706 565.219 697.179ZM581.113 707.616C578.427 707.616 576.242 706.737 574.558 704.98C572.873 703.209 572.031 700.847 572.031 697.893V697.271C572.031 695.305 572.403 693.554 573.148 692.016C573.905 690.465 574.955 689.257 576.297 688.39C577.652 687.511 579.117 687.072 580.692 687.072C583.268 687.072 585.269 687.92 586.698 689.617C588.126 691.314 588.84 693.743 588.84 696.905V698.314H575.418C575.467 700.268 576.035 701.848 577.121 703.057C578.22 704.253 579.612 704.851 581.296 704.851C582.492 704.851 583.506 704.607 584.336 704.119C585.166 703.631 585.892 702.984 586.515 702.178L588.584 703.789C586.924 706.341 584.433 707.616 581.113 707.616ZM580.692 689.855C579.325 689.855 578.177 690.355 577.249 691.356C576.322 692.345 575.748 693.737 575.528 695.531H585.453V695.275C585.355 693.554 584.891 692.223 584.061 691.283C583.231 690.331 582.108 689.855 580.692 689.855ZM601.255 697.179C601.255 694.14 601.975 691.698 603.415 689.855C604.856 688 606.742 687.072 609.073 687.072C611.393 687.072 613.23 687.865 614.585 689.452V679.125H617.972V707.25H614.859L614.695 705.126C613.34 706.786 611.454 707.616 609.037 707.616C606.742 707.616 604.868 706.676 603.415 704.796C601.975 702.917 601.255 700.463 601.255 697.436V697.179ZM604.642 697.564C604.642 699.81 605.106 701.568 606.034 702.837C606.961 704.107 608.243 704.741 609.879 704.741C612.027 704.741 613.596 703.777 614.585 701.848V692.748C613.571 690.88 612.015 689.947 609.915 689.947C608.255 689.947 606.961 690.587 606.034 691.869C605.106 693.151 604.642 695.049 604.642 697.564ZM631.467 707.616C628.781 707.616 626.596 706.737 624.912 704.98C623.227 703.209 622.385 700.847 622.385 697.893V697.271C622.385 695.305 622.757 693.554 623.502 692.016C624.259 690.465 625.309 689.257 626.651 688.39C628.006 687.511 629.471 687.072 631.046 687.072C633.622 687.072 635.623 687.92 637.052 689.617C638.48 691.314 639.194 693.743 639.194 696.905V698.314H625.772C625.821 700.268 626.389 701.848 627.475 703.057C628.574 704.253 629.966 704.851 631.65 704.851C632.846 704.851 633.86 704.607 634.69 704.119C635.52 703.631 636.246 702.984 636.869 702.178L638.938 703.789C637.278 706.341 634.787 707.616 631.467 707.616ZM631.046 689.855C629.679 689.855 628.531 690.355 627.603 691.356C626.676 692.345 626.102 693.737 625.882 695.531H635.807V695.275C635.709 693.554 635.245 692.223 634.415 691.283C633.585 690.331 632.462 689.855 631.046 689.855ZM651.078 704.851C652.286 704.851 653.342 704.485 654.245 703.753C655.149 703.02 655.649 702.105 655.747 701.006H658.951C658.89 702.141 658.499 703.222 657.779 704.247C657.059 705.272 656.095 706.09 654.886 706.701C653.69 707.311 652.42 707.616 651.078 707.616C648.38 707.616 646.231 706.719 644.632 704.925C643.045 703.118 642.252 700.652 642.252 697.527V696.959C642.252 695.031 642.606 693.316 643.314 691.814C644.022 690.313 645.035 689.147 646.353 688.317C647.684 687.487 649.253 687.072 651.059 687.072C653.281 687.072 655.124 687.737 656.589 689.068C658.066 690.398 658.853 692.126 658.951 694.25H655.747C655.649 692.968 655.161 691.918 654.282 691.1C653.415 690.27 652.341 689.855 651.059 689.855C649.338 689.855 648.001 690.478 647.049 691.723C646.109 692.956 645.639 694.744 645.639 697.088V697.729C645.639 700.011 646.109 701.769 647.049 703.002C647.989 704.235 649.332 704.851 651.078 704.851ZM666.44 707.25H663.053V687.438H666.44V707.25ZM662.778 682.183C662.778 681.634 662.943 681.17 663.272 680.791C663.614 680.413 664.115 680.224 664.774 680.224C665.433 680.224 665.934 680.413 666.275 680.791C666.617 681.17 666.788 681.634 666.788 682.183C666.788 682.732 666.617 683.19 666.275 683.556C665.934 683.922 665.433 684.105 664.774 684.105C664.115 684.105 663.614 683.922 663.272 683.556C662.943 683.19 662.778 682.732 662.778 682.183ZM671.054 697.179C671.054 694.14 671.775 691.698 673.215 689.855C674.655 688 676.541 687.072 678.873 687.072C681.192 687.072 683.03 687.865 684.384 689.452V679.125H687.772V707.25H684.659L684.494 705.126C683.139 706.786 681.253 707.616 678.836 707.616C676.541 707.616 674.668 706.676 673.215 704.796C671.775 702.917 671.054 700.463 671.054 697.436V697.179ZM674.442 697.564C674.442 699.81 674.906 701.568 675.833 702.837C676.761 704.107 678.043 704.741 679.679 704.741C681.827 704.741 683.396 703.777 684.384 701.848V692.748C683.371 690.88 681.815 689.947 679.715 689.947C678.055 689.947 676.761 690.587 675.833 691.869C674.906 693.151 674.442 695.049 674.442 697.564ZM701.267 707.616C698.581 707.616 696.396 706.737 694.712 704.98C693.027 703.209 692.185 700.847 692.185 697.893V697.271C692.185 695.305 692.557 693.554 693.302 692.016C694.059 690.465 695.108 689.257 696.451 688.39C697.806 687.511 699.271 687.072 700.846 687.072C703.421 687.072 705.423 687.92 706.852 689.617C708.28 691.314 708.994 693.743 708.994 696.905V698.314H695.572C695.621 700.268 696.189 701.848 697.275 703.057C698.374 704.253 699.765 704.851 701.45 704.851C702.646 704.851 703.659 704.607 704.489 704.119C705.32 703.631 706.046 702.984 706.668 702.178L708.738 703.789C707.077 706.341 704.587 707.616 701.267 707.616ZM700.846 689.855C699.478 689.855 698.331 690.355 697.403 691.356C696.476 692.345 695.902 693.737 695.682 695.531H705.606V695.275C705.509 693.554 705.045 692.223 704.215 691.283C703.385 690.331 702.262 689.855 700.846 689.855ZM712.107 697.179C712.107 694.14 712.827 691.698 714.267 689.855C715.708 688 717.594 687.072 719.925 687.072C722.245 687.072 724.082 687.865 725.437 689.452V679.125H728.824V707.25H725.711L725.547 705.126C724.192 706.786 722.306 707.616 719.889 707.616C717.594 707.616 715.72 706.676 714.267 704.796C712.827 702.917 712.107 700.463 712.107 697.436V697.179ZM715.494 697.564C715.494 699.81 715.958 701.568 716.886 702.837C717.813 704.107 719.095 704.741 720.731 704.741C722.879 704.741 724.448 703.777 725.437 701.848V692.748C724.424 690.88 722.867 689.947 720.768 689.947C719.107 689.947 717.813 690.587 716.886 691.869C715.958 693.151 715.494 695.049 715.494 697.564ZM747.08 707.25H743.692V687.438H747.08V707.25ZM743.418 682.183C743.418 681.634 743.582 681.17 743.912 680.791C744.254 680.413 744.754 680.224 745.414 680.224C746.073 680.224 746.573 680.413 746.915 680.791C747.257 681.17 747.428 681.634 747.428 682.183C747.428 682.732 747.257 683.19 746.915 683.556C746.573 683.922 746.073 684.105 745.414 684.105C744.754 684.105 744.254 683.922 743.912 683.556C743.582 683.19 743.418 682.732 743.418 682.183ZM755.722 687.438L755.832 689.928C757.346 688.024 759.323 687.072 761.765 687.072C765.952 687.072 768.064 689.434 768.1 694.158V707.25H764.713V694.14C764.701 692.711 764.371 691.656 763.724 690.972C763.089 690.288 762.094 689.947 760.739 689.947C759.641 689.947 758.676 690.24 757.846 690.825C757.016 691.411 756.369 692.18 755.905 693.133V707.25H752.518V687.438H755.722ZM792.087 690.478C791.574 690.392 791.019 690.349 790.421 690.349C788.199 690.349 786.692 691.295 785.898 693.188V707.25H782.511V687.438H785.807L785.862 689.727C786.972 687.957 788.547 687.072 790.586 687.072C791.245 687.072 791.745 687.157 792.087 687.328V690.478ZM803.073 707.616C800.388 707.616 798.203 706.737 796.518 704.98C794.834 703.209 793.991 700.847 793.991 697.893V697.271C793.991 695.305 794.364 693.554 795.108 692.016C795.865 690.465 796.915 689.257 798.258 688.39C799.613 687.511 801.078 687.072 802.652 687.072C805.228 687.072 807.23 687.92 808.658 689.617C810.086 691.314 810.8 693.743 810.8 696.905V698.314H797.379C797.428 700.268 797.995 701.848 799.082 703.057C800.18 704.253 801.572 704.851 803.257 704.851C804.453 704.851 805.466 704.607 806.296 704.119C807.126 703.631 807.852 702.984 808.475 702.178L810.544 703.789C808.884 706.341 806.394 707.616 803.073 707.616ZM802.652 689.855C801.285 689.855 800.138 690.355 799.21 691.356C798.282 692.345 797.708 693.737 797.489 695.531H807.413V695.275C807.315 693.554 806.852 692.223 806.021 691.283C805.191 690.331 804.068 689.855 802.652 689.855ZM813.932 697.179C813.932 694.091 814.646 691.637 816.074 689.818C817.502 687.987 819.394 687.072 821.75 687.072C824.167 687.072 826.053 687.926 827.408 689.635L827.573 687.438H830.667V706.774C830.667 709.337 829.904 711.358 828.379 712.835C826.865 714.312 824.826 715.05 822.263 715.05C820.835 715.05 819.437 714.745 818.07 714.135C816.703 713.524 815.659 712.688 814.939 711.626L816.696 709.594C818.149 711.388 819.925 712.285 822.025 712.285C823.673 712.285 824.955 711.822 825.87 710.894C826.798 709.966 827.262 708.66 827.262 706.975V705.272C825.907 706.835 824.057 707.616 821.714 707.616C819.394 707.616 817.514 706.682 816.074 704.815C814.646 702.947 813.932 700.402 813.932 697.179ZM817.337 697.564C817.337 699.798 817.795 701.555 818.711 702.837C819.626 704.107 820.908 704.741 822.556 704.741C824.692 704.741 826.261 703.771 827.262 701.83V692.785C826.224 690.893 824.668 689.947 822.592 689.947C820.945 689.947 819.657 690.587 818.729 691.869C817.801 693.151 817.337 695.049 817.337 697.564ZM839.475 707.25H836.087V687.438H839.475V707.25ZM835.813 682.183C835.813 681.634 835.977 681.17 836.307 680.791C836.649 680.413 837.149 680.224 837.809 680.224C838.468 680.224 838.968 680.413 839.31 680.791C839.652 681.17 839.823 681.634 839.823 682.183C839.823 682.732 839.652 683.19 839.31 683.556C838.968 683.922 838.468 684.105 837.809 684.105C837.149 684.105 836.649 683.922 836.307 683.556C835.977 683.19 835.813 682.732 835.813 682.183ZM856.449 701.995C856.449 701.079 856.101 700.371 855.405 699.871C854.721 699.358 853.519 698.919 851.798 698.553C850.089 698.186 848.728 697.747 847.715 697.234C846.714 696.721 845.969 696.111 845.481 695.403C845.005 694.695 844.767 693.853 844.767 692.876C844.767 691.253 845.45 689.879 846.817 688.756C848.197 687.633 849.955 687.072 852.091 687.072C854.337 687.072 856.156 687.652 857.547 688.811C858.951 689.971 859.653 691.454 859.653 693.261H856.247C856.247 692.333 855.851 691.533 855.057 690.862C854.276 690.191 853.287 689.855 852.091 689.855C850.858 689.855 849.894 690.124 849.198 690.661C848.502 691.198 848.154 691.9 848.154 692.766C848.154 693.584 848.477 694.201 849.124 694.616C849.771 695.031 850.937 695.428 852.622 695.806C854.319 696.184 855.692 696.636 856.742 697.161C857.791 697.686 858.567 698.321 859.067 699.065C859.58 699.798 859.836 700.695 859.836 701.757C859.836 703.527 859.128 704.949 857.712 706.023C856.296 707.085 854.459 707.616 852.201 707.616C850.614 707.616 849.21 707.335 847.989 706.774C846.769 706.212 845.81 705.431 845.114 704.43C844.431 703.417 844.089 702.324 844.089 701.153H847.477C847.538 702.288 847.989 703.191 848.831 703.863C849.686 704.522 850.809 704.851 852.201 704.851C853.482 704.851 854.508 704.595 855.277 704.082C856.058 703.557 856.449 702.862 856.449 701.995ZM868.845 682.641V687.438H872.544V690.056H868.845V702.343C868.845 703.136 869.01 703.734 869.339 704.137C869.669 704.528 870.23 704.723 871.024 704.723C871.414 704.723 871.952 704.65 872.635 704.503V707.25C871.744 707.494 870.877 707.616 870.035 707.616C868.521 707.616 867.38 707.158 866.611 706.243C865.842 705.327 865.457 704.027 865.457 702.343V690.056H861.85V687.438H865.457V682.641H868.845ZM884.738 707.616C882.053 707.616 879.868 706.737 878.183 704.98C876.499 703.209 875.656 700.847 875.656 697.893V697.271C875.656 695.305 876.029 693.554 876.773 692.016C877.53 690.465 878.58 689.257 879.923 688.39C881.278 687.511 882.743 687.072 884.317 687.072C886.893 687.072 888.895 687.92 890.323 689.617C891.751 691.314 892.466 693.743 892.466 696.905V698.314H879.044C879.093 700.268 879.66 701.848 880.747 703.057C881.845 704.253 883.237 704.851 884.922 704.851C886.118 704.851 887.131 704.607 887.961 704.119C888.791 703.631 889.518 702.984 890.14 702.178L892.209 703.789C890.549 706.341 888.059 707.616 884.738 707.616ZM884.317 689.855C882.95 689.855 881.803 690.355 880.875 691.356C879.947 692.345 879.373 693.737 879.154 695.531H889.078V695.275C888.98 693.554 888.517 692.223 887.686 691.283C886.856 690.331 885.733 689.855 884.317 689.855ZM905.979 690.478C905.466 690.392 904.911 690.349 904.312 690.349C902.091 690.349 900.583 691.295 899.79 693.188V707.25H896.402V687.438H899.698L899.753 689.727C900.864 687.957 902.439 687.072 904.477 687.072C905.136 687.072 905.637 687.157 905.979 687.328V690.478ZM929.947 701.995C929.947 701.079 929.599 700.371 928.904 699.871C928.22 699.358 927.018 698.919 925.296 698.553C923.587 698.186 922.226 697.747 921.213 697.234C920.212 696.721 919.467 696.111 918.979 695.403C918.503 694.695 918.265 693.853 918.265 692.876C918.265 691.253 918.949 689.879 920.316 688.756C921.695 687.633 923.453 687.072 925.589 687.072C927.835 687.072 929.654 687.652 931.046 688.811C932.45 689.971 933.152 691.454 933.152 693.261H929.746C929.746 692.333 929.349 691.533 928.556 690.862C927.774 690.191 926.786 689.855 925.589 689.855C924.356 689.855 923.392 690.124 922.696 690.661C922 691.198 921.653 691.9 921.653 692.766C921.653 693.584 921.976 694.201 922.623 694.616C923.27 695.031 924.436 695.428 926.12 695.806C927.817 696.184 929.19 696.636 930.24 697.161C931.29 697.686 932.065 698.321 932.566 699.065C933.078 699.798 933.335 700.695 933.335 701.757C933.335 703.527 932.627 704.949 931.211 706.023C929.795 707.085 927.957 707.616 925.699 707.616C924.112 707.616 922.708 707.335 921.488 706.774C920.267 706.212 919.309 705.431 918.613 704.43C917.929 703.417 917.588 702.324 917.588 701.153H920.975C921.036 702.288 921.488 703.191 922.33 703.863C923.185 704.522 924.308 704.851 925.699 704.851C926.981 704.851 928.006 704.595 928.775 704.082C929.557 703.557 929.947 702.862 929.947 701.995ZM945.969 707.616C943.283 707.616 941.098 706.737 939.414 704.98C937.729 703.209 936.887 700.847 936.887 697.893V697.271C936.887 695.305 937.259 693.554 938.004 692.016C938.761 690.465 939.81 689.257 941.153 688.39C942.508 687.511 943.973 687.072 945.548 687.072C948.123 687.072 950.125 687.92 951.554 689.617C952.982 691.314 953.696 693.743 953.696 696.905V698.314H940.274C940.323 700.268 940.891 701.848 941.977 703.057C943.076 704.253 944.467 704.851 946.152 704.851C947.348 704.851 948.362 704.607 949.192 704.119C950.022 703.631 950.748 702.984 951.371 702.178L953.44 703.789C951.779 706.341 949.289 707.616 945.969 707.616ZM945.548 689.855C944.181 689.855 943.033 690.355 942.105 691.356C941.178 692.345 940.604 693.737 940.384 695.531H950.309V695.275C950.211 693.554 949.747 692.223 948.917 691.283C948.087 690.331 946.964 689.855 945.548 689.855ZM962.229 682.641V687.438H965.927V690.056H962.229V702.343C962.229 703.136 962.393 703.734 962.723 704.137C963.053 704.528 963.614 704.723 964.408 704.723C964.798 704.723 965.335 704.65 966.019 704.503V707.25C965.128 707.494 964.261 707.616 963.419 707.616C961.905 707.616 960.764 707.158 959.995 706.243C959.226 705.327 958.841 704.027 958.841 702.343V690.056H955.234V687.438H958.841V682.641H962.229ZM981.436 701.995C981.436 701.079 981.089 700.371 980.393 699.871C979.709 699.358 978.507 698.919 976.786 698.553C975.077 698.186 973.716 697.747 972.702 697.234C971.701 696.721 970.957 696.111 970.468 695.403C969.992 694.695 969.754 693.853 969.754 692.876C969.754 691.253 970.438 689.879 971.805 688.756C973.185 687.633 974.942 687.072 977.079 687.072C979.325 687.072 981.143 687.652 982.535 688.811C983.939 689.971 984.641 691.454 984.641 693.261H981.235C981.235 692.333 980.838 691.533 980.045 690.862C979.264 690.191 978.275 689.855 977.079 689.855C975.846 689.855 974.881 690.124 974.185 690.661C973.49 691.198 973.142 691.9 973.142 692.766C973.142 693.584 973.465 694.201 974.112 694.616C974.759 695.031 975.925 695.428 977.61 695.806C979.306 696.184 980.68 696.636 981.729 697.161C982.779 697.686 983.554 698.321 984.055 699.065C984.568 699.798 984.824 700.695 984.824 701.757C984.824 703.527 984.116 704.949 982.7 706.023C981.284 707.085 979.447 707.616 977.188 707.616C975.601 707.616 974.198 707.335 972.977 706.774C971.756 706.212 970.798 705.431 970.102 704.43C969.419 703.417 969.077 702.324 969.077 701.153H972.464C972.525 702.288 972.977 703.191 973.819 703.863C974.674 704.522 975.797 704.851 977.188 704.851C978.47 704.851 979.496 704.595 980.265 704.082C981.046 703.557 981.436 702.862 981.436 701.995ZM1014.91 695.879C1014.91 699.846 1014.23 702.794 1012.88 704.723C1011.52 706.652 1009.4 707.616 1006.52 707.616C1003.68 707.616 1001.57 706.676 1000.2 704.796C998.838 702.904 998.13 700.084 998.081 696.337V691.814C998.081 687.896 998.758 684.984 1000.11 683.08C1001.47 681.176 1003.59 680.224 1006.49 680.224C1009.35 680.224 1011.47 681.145 1012.82 682.989C1014.18 684.82 1014.87 687.652 1014.91 691.485V695.879ZM1011.52 691.247C1011.52 688.378 1011.12 686.291 1010.31 684.984C1009.51 683.666 1008.23 683.007 1006.49 683.007C1004.75 683.007 1003.49 683.66 1002.7 684.966C1001.9 686.272 1001.49 688.28 1001.47 690.99V696.41C1001.47 699.291 1001.88 701.421 1002.71 702.801C1003.56 704.168 1004.83 704.851 1006.52 704.851C1008.19 704.851 1009.43 704.204 1010.24 702.91C1011.06 701.616 1011.48 699.578 1011.52 696.795V691.247ZM1033.49 682.641V687.438H1037.19V690.056H1033.49V702.343C1033.49 703.136 1033.66 703.734 1033.99 704.137C1034.32 704.528 1034.88 704.723 1035.67 704.723C1036.06 704.723 1036.6 704.65 1037.28 704.503V707.25C1036.39 707.494 1035.53 707.616 1034.68 707.616C1033.17 707.616 1032.03 707.158 1031.26 706.243C1030.49 705.327 1030.11 704.027 1030.11 702.343V690.056H1026.5V687.438H1030.11V682.641H1033.49ZM1039.9 697.161C1039.9 695.22 1040.28 693.474 1041.04 691.924C1041.81 690.374 1042.87 689.178 1044.22 688.335C1045.59 687.493 1047.15 687.072 1048.89 687.072C1051.59 687.072 1053.77 688.006 1055.43 689.873C1057.1 691.741 1057.94 694.225 1057.94 697.326V697.564C1057.94 699.492 1057.57 701.226 1056.82 702.764C1056.09 704.29 1055.03 705.48 1053.65 706.334C1052.29 707.189 1050.71 707.616 1048.93 707.616C1046.24 707.616 1044.06 706.682 1042.39 704.815C1040.73 702.947 1039.9 700.475 1039.9 697.399V697.161ZM1043.31 697.564C1043.31 699.761 1043.81 701.525 1044.83 702.855C1045.85 704.186 1047.22 704.851 1048.93 704.851C1050.65 704.851 1052.02 704.18 1053.03 702.837C1054.04 701.482 1054.55 699.59 1054.55 697.161C1054.55 694.988 1054.03 693.23 1052.99 691.887C1051.97 690.532 1050.6 689.855 1048.89 689.855C1047.22 689.855 1045.87 690.52 1044.85 691.851C1043.82 693.181 1043.31 695.086 1043.31 697.564ZM1075.17 707.25H1071.78V687.438H1075.17V707.25ZM1071.51 682.183C1071.51 681.634 1071.67 681.17 1072 680.791C1072.34 680.413 1072.84 680.224 1073.5 680.224C1074.16 680.224 1074.66 680.413 1075 680.791C1075.35 681.17 1075.52 681.634 1075.52 682.183C1075.52 682.732 1075.35 683.19 1075 683.556C1074.66 683.922 1074.16 684.105 1073.5 684.105C1072.84 684.105 1072.34 683.922 1072 683.556C1071.67 683.19 1071.51 682.732 1071.51 682.183ZM1087.66 697.307H1078.72V694.542H1087.66V697.307ZM1101.76 707.25H1098.35V684.673L1091.52 687.182V684.105L1101.22 680.462H1101.76V707.25Z" fill="black"/>
</g>
<defs>
<clipPath id="clip0">
<rect width="1440" height="810" fill="white" transform="translate(0 135)"/>
</clipPath>
</defs>
</svg>
