<svg width="1440" height="1080" viewBox="0 0 1440 1080" fill="none" xmlns="http://www.w3.org/2000/svg">
<rect width="1440" height="1080" fill="#F8F8F2"/>
<path d="M212.864 680.44C208.192 680.44 203.936 679.672 200.096 678.136C196.256 676.6 192.96 674.36 190.208 671.416C187.456 668.472 185.312 664.856 183.776 660.568C182.304 656.216 181.568 651.256 181.568 645.688C181.568 640.12 182.4 635.192 184.064 630.904C185.792 626.552 188.096 622.904 190.976 619.96C193.856 617.016 197.216 614.776 201.056 613.24C204.896 611.704 208.992 610.936 213.344 610.936C216.096 610.936 218.56 611.128 220.736 611.512C222.976 611.896 224.896 612.344 226.496 612.856C228.16 613.368 229.504 613.88 230.528 614.392C231.552 614.904 232.256 615.288 232.64 615.544L229.952 623.224C229.376 622.84 228.544 622.424 227.456 621.976C226.368 621.528 225.12 621.08 223.712 620.632C222.368 620.184 220.864 619.832 219.2 619.576C217.6 619.256 215.968 619.096 214.304 619.096C210.784 619.096 207.616 619.704 204.8 620.92C201.984 622.136 199.584 623.896 197.6 626.2C195.616 628.504 194.08 631.32 192.992 634.648C191.968 637.912 191.456 641.592 191.456 645.688C191.456 649.656 191.904 653.272 192.8 656.536C193.76 659.8 195.168 662.616 197.024 664.984C198.88 667.288 201.184 669.08 203.936 670.36C206.752 671.64 210.016 672.28 213.728 672.28C218.016 672.28 221.568 671.832 224.384 670.936C227.2 670.04 229.312 669.24 230.72 668.536L233.12 676.216C232.672 676.536 231.872 676.952 230.72 677.464C229.568 677.912 228.128 678.36 226.4 678.808C224.672 679.256 222.656 679.64 220.352 679.96C218.048 680.28 215.552 680.44 212.864 680.44ZM276.331 651.16C277.355 652.44 278.635 654.136 280.171 656.248C281.771 658.296 283.403 660.6 285.067 663.16C286.731 665.656 288.363 668.28 289.963 671.032C291.627 673.784 293.035 676.44 294.187 679H284.011C282.731 676.568 281.323 674.104 279.787 671.608C278.315 669.112 276.811 666.744 275.275 664.504C273.739 662.2 272.203 660.056 270.667 658.072C269.195 656.088 267.851 654.36 266.635 652.888C265.803 652.952 264.939 652.984 264.043 652.984C263.211 652.984 262.347 652.984 261.451 652.984H253.099V679H243.787V613.432C246.411 612.792 249.323 612.376 252.523 612.184C255.787 611.928 258.763 611.8 261.451 611.8C270.795 611.8 277.899 613.56 282.763 617.08C287.691 620.6 290.155 625.848 290.155 632.824C290.155 637.24 288.971 641.016 286.603 644.152C284.299 647.288 280.875 649.624 276.331 651.16ZM262.219 619.96C258.251 619.96 255.211 620.056 253.099 620.248V645.304H259.723C262.923 645.304 265.803 645.144 268.363 644.824C270.923 644.504 273.067 643.896 274.795 643C276.587 642.104 277.963 640.856 278.923 639.256C279.883 637.592 280.363 635.416 280.363 632.728C280.363 630.232 279.883 628.152 278.923 626.488C277.963 624.824 276.651 623.512 274.987 622.552C273.387 621.592 271.467 620.92 269.227 620.536C267.051 620.152 264.715 619.96 262.219 619.96ZM358.786 645.688C358.786 651.448 357.89 656.472 356.098 660.76C354.306 664.984 351.778 668.504 348.514 671.32C345.25 674.072 341.346 676.152 336.802 677.56C332.258 678.904 327.266 679.576 321.826 679.576C319.138 679.576 316.162 679.448 312.898 679.192C309.698 679 306.786 678.584 304.162 677.944V613.432C306.786 612.792 309.698 612.376 312.898 612.184C316.162 611.928 319.138 611.8 321.826 611.8C327.266 611.8 332.258 612.504 336.802 613.912C341.346 615.256 345.25 617.336 348.514 620.152C351.778 622.904 354.306 626.424 356.098 630.712C357.89 634.936 358.786 639.928 358.786 645.688ZM322.594 671.416C331.426 671.416 338.018 669.176 342.37 664.696C346.722 660.152 348.898 653.816 348.898 645.688C348.898 637.56 346.722 631.256 342.37 626.776C338.018 622.232 331.426 619.96 322.594 619.96C319.97 619.96 317.922 619.992 316.45 620.056C315.042 620.12 314.05 620.184 313.474 620.248V671.128C314.05 671.192 315.042 671.256 316.45 671.32C317.922 671.384 319.97 671.416 322.594 671.416ZM414.423 612.472V620.536H393.495V679H384.183V620.536H363.255V612.472H414.423ZM426.178 673.816C426.178 675.544 425.602 677.048 424.45 678.328C423.298 679.608 421.73 680.248 419.746 680.248C417.762 680.248 416.194 679.608 415.042 678.328C413.89 677.048 413.314 675.544 413.314 673.816C413.314 672.088 413.89 670.584 415.042 669.304C416.194 668.024 417.762 667.384 419.746 667.384C421.73 667.384 423.298 668.024 424.45 669.304C425.602 670.584 426.178 672.088 426.178 673.816ZM426.178 635.512C426.178 637.24 425.602 638.744 424.45 640.024C423.298 641.304 421.73 641.944 419.746 641.944C417.762 641.944 416.194 641.304 415.042 640.024C413.89 638.744 413.314 637.24 413.314 635.512C413.314 633.784 413.89 632.28 415.042 631C416.194 629.72 417.762 629.08 419.746 629.08C421.73 629.08 423.298 629.72 424.45 631C425.602 632.28 426.178 633.784 426.178 635.512ZM201.92 721.8C211.264 721.8 218.432 723.592 223.424 727.176C228.48 730.696 231.008 735.976 231.008 743.016C231.008 746.856 230.304 750.152 228.896 752.904C227.552 755.592 225.568 757.8 222.944 759.528C220.384 761.192 217.248 762.408 213.536 763.176C209.824 763.944 205.632 764.328 200.96 764.328H193.568V789H184.256V723.432C186.88 722.792 189.792 722.376 192.992 722.184C196.256 721.928 199.232 721.8 201.92 721.8ZM202.688 729.96C198.72 729.96 195.68 730.056 193.568 730.248V756.36H200.576C203.776 756.36 206.656 756.168 209.216 755.784C211.776 755.336 213.92 754.632 215.648 753.672C217.44 752.648 218.816 751.272 219.776 749.544C220.736 747.816 221.216 745.608 221.216 742.92C221.216 740.36 220.704 738.248 219.68 736.584C218.72 734.92 217.376 733.608 215.648 732.648C213.984 731.624 212.032 730.92 209.792 730.536C207.552 730.152 205.184 729.96 202.688 729.96ZM257.201 782.568C259.313 782.568 261.169 782.536 262.769 782.472C264.433 782.344 265.809 782.152 266.897 781.896V767.016C266.257 766.696 265.201 766.44 263.729 766.248C262.321 765.992 260.593 765.864 258.545 765.864C257.201 765.864 255.761 765.96 254.225 766.152C252.753 766.344 251.377 766.76 250.097 767.4C248.881 767.976 247.857 768.808 247.025 769.896C246.193 770.92 245.777 772.296 245.777 774.024C245.777 777.224 246.801 779.464 248.849 780.744C250.897 781.96 253.681 782.568 257.201 782.568ZM256.433 737.832C260.017 737.832 263.025 738.312 265.457 739.272C267.953 740.168 269.937 741.48 271.409 743.208C272.945 744.872 274.033 746.888 274.673 749.256C275.313 751.56 275.633 754.12 275.633 756.936V788.136C274.865 788.264 273.777 788.456 272.369 788.712C271.025 788.904 269.489 789.096 267.761 789.288C266.033 789.48 264.145 789.64 262.097 789.768C260.113 789.96 258.129 790.056 256.145 790.056C253.329 790.056 250.737 789.768 248.369 789.192C246.001 788.616 243.953 787.72 242.225 786.504C240.497 785.224 239.153 783.56 238.193 781.512C237.233 779.464 236.753 777 236.753 774.12C236.753 771.368 237.297 769 238.385 767.016C239.537 765.032 241.073 763.432 242.993 762.216C244.913 761 247.153 760.104 249.713 759.528C252.273 758.952 254.961 758.664 257.777 758.664C258.673 758.664 259.601 758.728 260.561 758.856C261.521 758.92 262.417 759.048 263.249 759.24C264.145 759.368 264.913 759.496 265.553 759.624C266.193 759.752 266.641 759.848 266.897 759.912V757.416C266.897 755.944 266.737 754.504 266.417 753.096C266.097 751.624 265.521 750.344 264.689 749.256C263.857 748.104 262.705 747.208 261.233 746.568C259.825 745.864 257.969 745.512 255.665 745.512C252.721 745.512 250.129 745.736 247.889 746.184C245.713 746.568 244.081 746.984 242.993 747.432L241.937 740.04C243.089 739.528 245.009 739.048 247.697 738.6C250.385 738.088 253.297 737.832 256.433 737.832ZM320.317 789C319.613 787.592 318.749 786.024 317.725 784.296C316.701 782.568 315.581 780.808 314.365 779.016C313.149 777.16 311.901 775.336 310.621 773.544C309.341 771.752 308.093 770.056 306.877 768.456C305.661 770.056 304.413 771.784 303.133 773.64C301.853 775.432 300.605 777.256 299.389 779.112C298.237 780.904 297.149 782.664 296.125 784.392C295.101 786.12 294.237 787.656 293.533 789H284.317C286.557 784.648 289.213 780.232 292.285 775.752C295.421 771.208 298.525 766.888 301.597 762.792L285.085 739.08H295.165L307.069 756.552L319.069 739.08H328.573L312.445 762.216C315.517 766.376 318.653 770.792 321.853 775.464C325.117 780.072 327.869 784.584 330.109 789H320.317ZM381.494 764.04C381.494 768.008 380.918 771.592 379.766 774.792C378.614 777.992 376.982 780.744 374.87 783.048C372.822 785.352 370.358 787.144 367.478 788.424C364.598 789.64 361.462 790.248 358.07 790.248C354.678 790.248 351.542 789.64 348.662 788.424C345.782 787.144 343.286 785.352 341.174 783.048C339.126 780.744 337.526 777.992 336.374 774.792C335.222 771.592 334.646 768.008 334.646 764.04C334.646 760.136 335.222 756.584 336.374 753.384C337.526 750.12 339.126 747.336 341.174 745.032C343.286 742.728 345.782 740.968 348.662 739.752C351.542 738.472 354.678 737.832 358.07 737.832C361.462 737.832 364.598 738.472 367.478 739.752C370.358 740.968 372.822 742.728 374.87 745.032C376.982 747.336 378.614 750.12 379.766 753.384C380.918 756.584 381.494 760.136 381.494 764.04ZM372.182 764.04C372.182 758.408 370.902 753.96 368.342 750.696C365.846 747.368 362.422 745.704 358.07 745.704C353.718 745.704 350.262 747.368 347.702 750.696C345.206 753.96 343.958 758.408 343.958 764.04C343.958 769.672 345.206 774.152 347.702 777.48C350.262 780.744 353.718 782.376 358.07 782.376C362.422 782.376 365.846 780.744 368.342 777.48C370.902 774.152 372.182 769.672 372.182 764.04ZM405.671 782.568C409.319 782.568 412.007 782.088 413.735 781.128C415.527 780.168 416.423 778.632 416.423 776.52C416.423 774.344 415.559 772.616 413.831 771.336C412.103 770.056 409.255 768.616 405.287 767.016C403.367 766.248 401.511 765.48 399.719 764.712C397.991 763.88 396.487 762.92 395.207 761.832C393.927 760.744 392.903 759.432 392.135 757.896C391.367 756.36 390.983 754.472 390.983 752.232C390.983 747.816 392.615 744.328 395.879 741.768C399.143 739.144 403.591 737.832 409.223 737.832C410.631 737.832 412.039 737.928 413.447 738.12C414.855 738.248 416.167 738.44 417.383 738.696C418.599 738.888 419.655 739.112 420.551 739.368C421.511 739.624 422.247 739.848 422.759 740.04L421.127 747.72C420.167 747.208 418.663 746.696 416.615 746.184C414.567 745.608 412.103 745.32 409.223 745.32C406.727 745.32 404.551 745.832 402.695 746.856C400.839 747.816 399.911 749.352 399.911 751.464C399.911 752.552 400.103 753.512 400.487 754.344C400.935 755.176 401.575 755.944 402.407 756.648C403.303 757.288 404.391 757.896 405.671 758.472C406.951 759.048 408.487 759.656 410.279 760.296C412.647 761.192 414.759 762.088 416.615 762.984C418.471 763.816 420.039 764.808 421.319 765.96C422.663 767.112 423.687 768.52 424.391 770.184C425.095 771.784 425.447 773.768 425.447 776.136C425.447 780.744 423.719 784.232 420.263 786.6C416.871 788.968 412.007 790.152 405.671 790.152C401.255 790.152 397.799 789.768 395.303 789C392.807 788.296 391.111 787.752 390.215 787.368L391.847 779.688C392.871 780.072 394.503 780.648 396.743 781.416C398.983 782.184 401.959 782.568 405.671 782.568ZM447.459 783.816C447.459 785.544 446.883 787.048 445.731 788.328C444.579 789.608 443.011 790.248 441.027 790.248C439.043 790.248 437.475 789.608 436.323 788.328C435.171 787.048 434.595 785.544 434.595 783.816C434.595 782.088 435.171 780.584 436.323 779.304C437.475 778.024 439.043 777.384 441.027 777.384C443.011 777.384 444.579 778.024 445.731 779.304C446.883 780.584 447.459 782.088 447.459 783.816ZM447.459 745.512C447.459 747.24 446.883 748.744 445.731 750.024C444.579 751.304 443.011 751.944 441.027 751.944C439.043 751.944 437.475 751.304 436.323 750.024C435.171 748.744 434.595 747.24 434.595 745.512C434.595 743.784 435.171 742.28 436.323 741C437.475 739.72 439.043 739.08 441.027 739.08C443.011 739.08 444.579 739.72 445.731 741C446.883 742.28 447.459 743.784 447.459 745.512Z" fill="#74705D"/>
<path d="M491.893 669.784C491.253 668.248 490.389 666.296 489.301 663.928C488.277 661.56 487.157 659 485.941 656.248C484.725 653.496 483.413 650.68 482.005 647.8C480.661 644.856 479.381 642.104 478.165 639.544C476.949 636.92 475.797 634.584 474.709 632.536C473.685 630.488 472.853 628.92 472.213 627.832C471.509 635.384 470.933 643.576 470.485 652.408C470.037 661.176 469.653 670.04 469.333 679H460.213C460.469 673.24 460.757 667.448 461.077 661.624C461.397 655.736 461.749 649.976 462.133 644.344C462.581 638.648 463.029 633.112 463.477 627.736C463.989 622.36 464.533 617.272 465.109 612.472H473.269C474.997 615.288 476.853 618.616 478.837 622.456C480.821 626.296 482.805 630.328 484.789 634.552C486.773 638.712 488.693 642.904 490.549 647.128C492.405 651.288 494.101 655.096 495.637 658.552C497.173 655.096 498.869 651.288 500.725 647.128C502.581 642.904 504.501 638.712 506.485 634.552C508.469 630.328 510.453 626.296 512.437 622.456C514.421 618.616 516.277 615.288 518.005 612.472H526.165C528.341 633.912 529.973 656.088 531.061 679H521.941C521.621 670.04 521.237 661.176 520.789 652.408C520.341 643.576 519.765 635.384 519.061 627.832C518.421 628.92 517.557 630.488 516.469 632.536C515.445 634.584 514.325 636.92 513.109 639.544C511.893 642.104 510.581 644.856 509.173 647.8C507.829 650.68 506.549 653.496 505.333 656.248C504.117 659 502.965 661.56 501.877 663.928C500.853 666.296 500.021 668.248 499.381 669.784H491.893ZM561.982 672.568C564.094 672.568 565.95 672.536 567.55 672.472C569.214 672.344 570.59 672.152 571.678 671.896V657.016C571.038 656.696 569.982 656.44 568.51 656.248C567.102 655.992 565.374 655.864 563.326 655.864C561.982 655.864 560.542 655.96 559.006 656.152C557.534 656.344 556.158 656.76 554.878 657.4C553.662 657.976 552.638 658.808 551.806 659.896C550.974 660.92 550.558 662.296 550.558 664.024C550.558 667.224 551.582 669.464 553.63 670.744C555.678 671.96 558.462 672.568 561.982 672.568ZM561.214 627.832C564.798 627.832 567.806 628.312 570.238 629.272C572.734 630.168 574.718 631.48 576.19 633.208C577.726 634.872 578.814 636.888 579.454 639.256C580.094 641.56 580.414 644.12 580.414 646.936V678.136C579.646 678.264 578.558 678.456 577.15 678.712C575.806 678.904 574.27 679.096 572.542 679.288C570.814 679.48 568.926 679.64 566.878 679.768C564.894 679.96 562.91 680.056 560.926 680.056C558.11 680.056 555.518 679.768 553.15 679.192C550.782 678.616 548.734 677.72 547.006 676.504C545.278 675.224 543.934 673.56 542.974 671.512C542.014 669.464 541.534 667 541.534 664.12C541.534 661.368 542.078 659 543.166 657.016C544.318 655.032 545.854 653.432 547.774 652.216C549.694 651 551.934 650.104 554.494 649.528C557.054 648.952 559.742 648.664 562.558 648.664C563.454 648.664 564.382 648.728 565.342 648.856C566.302 648.92 567.198 649.048 568.03 649.24C568.926 649.368 569.694 649.496 570.334 649.624C570.974 649.752 571.422 649.848 571.678 649.912V647.416C571.678 645.944 571.518 644.504 571.198 643.096C570.878 641.624 570.302 640.344 569.47 639.256C568.638 638.104 567.486 637.208 566.014 636.568C564.606 635.864 562.75 635.512 560.446 635.512C557.502 635.512 554.91 635.736 552.67 636.184C550.494 636.568 548.862 636.984 547.774 637.432L546.718 630.04C547.87 629.528 549.79 629.048 552.478 628.6C555.166 628.088 558.078 627.832 561.214 627.832ZM613.675 628.024C614.443 628.024 615.307 628.088 616.267 628.216C617.291 628.28 618.283 628.408 619.243 628.6C620.203 628.728 621.067 628.888 621.835 629.08C622.667 629.208 623.275 629.336 623.659 629.464L622.123 637.24C621.419 636.984 620.235 636.696 618.571 636.376C616.971 635.992 614.891 635.8 612.331 635.8C610.667 635.8 609.003 635.992 607.339 636.376C605.739 636.696 604.683 636.92 604.171 637.048V679H595.243V631.192C597.355 630.424 599.979 629.72 603.115 629.08C606.251 628.376 609.771 628.024 613.675 628.024ZM640.626 629.08H659.538V636.568H640.626V659.608C640.626 662.104 640.818 664.184 641.202 665.848C641.586 667.448 642.162 668.728 642.93 669.688C643.698 670.584 644.658 671.224 645.81 671.608C646.962 671.992 648.306 672.184 649.842 672.184C652.53 672.184 654.674 671.896 656.274 671.32C657.938 670.68 659.09 670.232 659.73 669.976L661.458 677.368C660.562 677.816 658.994 678.36 656.754 679C654.514 679.704 651.954 680.056 649.074 680.056C645.682 680.056 642.866 679.64 640.626 678.808C638.45 677.912 636.69 676.6 635.346 674.872C634.002 673.144 633.042 671.032 632.466 668.536C631.954 665.976 631.698 663.032 631.698 659.704V615.16L640.626 613.624V629.08ZM679.827 679H670.899V629.08H679.827V679ZM675.315 620.056C673.715 620.056 672.339 619.544 671.187 618.52C670.099 617.432 669.555 615.992 669.555 614.2C669.555 612.408 670.099 611 671.187 609.976C672.339 608.888 673.715 608.344 675.315 608.344C676.915 608.344 678.259 608.888 679.347 609.976C680.499 611 681.075 612.408 681.075 614.2C681.075 615.992 680.499 617.432 679.347 618.52C678.259 619.544 676.915 620.056 675.315 620.056ZM695.18 630.52C697.228 630.008 699.948 629.464 703.34 628.888C706.732 628.312 710.636 628.024 715.052 628.024C719.02 628.024 722.316 628.6 724.94 629.752C727.564 630.84 729.644 632.408 731.18 634.456C732.78 636.44 733.9 638.84 734.54 641.656C735.18 644.472 735.5 647.576 735.5 650.968V679H726.572V652.888C726.572 649.816 726.348 647.192 725.9 645.016C725.516 642.84 724.844 641.08 723.884 639.736C722.924 638.392 721.644 637.432 720.044 636.856C718.444 636.216 716.46 635.896 714.092 635.896C713.132 635.896 712.14 635.928 711.116 635.992C710.092 636.056 709.1 636.152 708.14 636.28C707.244 636.344 706.412 636.44 705.644 636.568C704.94 636.696 704.428 636.792 704.108 636.856V679H695.18V630.52ZM822.348 612.472C820.364 614.648 818.124 617.08 815.628 619.768C813.132 622.392 810.508 625.112 807.756 627.928C805.068 630.68 802.38 633.4 799.692 636.088C797.004 638.776 794.476 641.272 792.108 643.576C794.86 645.496 797.772 647.864 800.844 650.68C803.916 653.496 806.924 656.504 809.868 659.704C812.812 662.904 815.564 666.168 818.124 669.496C820.748 672.824 822.924 675.992 824.652 679H813.708C811.788 675.992 809.58 672.984 807.084 669.976C804.588 666.904 801.932 663.992 799.116 661.24C796.364 658.424 793.548 655.832 790.668 653.464C787.852 651.096 785.1 649.08 782.412 647.416V679H773.1V612.472H782.412V641.848C784.652 639.736 787.116 637.368 789.804 634.744C792.492 632.056 795.148 629.368 797.772 626.68C800.396 623.992 802.86 621.432 805.164 619C807.532 616.504 809.516 614.328 811.116 612.472H822.348ZM847.875 679.96C842.371 679.832 838.467 678.648 836.163 676.408C833.859 674.168 832.707 670.68 832.707 665.944V606.04L841.635 604.504V664.504C841.635 665.976 841.763 667.192 842.019 668.152C842.275 669.112 842.691 669.88 843.267 670.456C843.843 671.032 844.611 671.48 845.571 671.8C846.531 672.056 847.715 672.28 849.123 672.472L847.875 679.96ZM856.365 654.136C856.365 649.72 857.005 645.88 858.285 642.616C859.565 639.288 861.261 636.536 863.373 634.36C865.485 632.184 867.917 630.552 870.669 629.464C873.421 628.376 876.237 627.832 879.117 627.832C885.837 627.832 890.989 629.944 894.573 634.168C898.157 638.328 899.949 644.696 899.949 653.272C899.949 653.656 899.949 654.168 899.949 654.808C899.949 655.384 899.917 655.928 899.853 656.44H865.677C866.061 661.624 867.565 665.56 870.189 668.248C872.813 670.936 876.909 672.28 882.477 672.28C885.613 672.28 888.237 672.024 890.349 671.512C892.525 670.936 894.157 670.392 895.245 669.88L896.493 677.368C895.405 677.944 893.485 678.552 890.733 679.192C888.045 679.832 884.973 680.152 881.517 680.152C877.165 680.152 873.389 679.512 870.189 678.232C867.053 676.888 864.461 675.064 862.413 672.76C860.365 670.456 858.829 667.736 857.805 664.6C856.845 661.4 856.365 657.912 856.365 654.136ZM890.637 649.24C890.701 645.208 889.677 641.912 887.565 639.352C885.517 636.728 882.669 635.416 879.021 635.416C876.973 635.416 875.149 635.832 873.549 636.664C872.013 637.432 870.701 638.456 869.613 639.736C868.525 641.016 867.661 642.488 867.021 644.152C866.445 645.816 866.061 647.512 865.869 649.24H890.637ZM947.43 654.136C947.43 648.312 945.99 643.832 943.11 640.696C940.23 637.56 936.39 635.992 931.59 635.992C928.902 635.992 926.79 636.088 925.254 636.28C923.782 636.472 922.598 636.696 921.702 636.952V668.44C922.79 669.336 924.358 670.2 926.406 671.032C928.454 671.864 930.694 672.28 933.126 672.28C935.686 672.28 937.862 671.832 939.654 670.936C941.51 669.976 943.014 668.696 944.166 667.096C945.318 665.432 946.15 663.512 946.662 661.336C947.174 659.096 947.43 656.696 947.43 654.136ZM956.742 654.136C956.742 657.912 956.23 661.4 955.206 664.6C954.246 667.8 952.806 670.552 950.886 672.856C948.966 675.16 946.598 676.952 943.782 678.232C941.03 679.512 937.862 680.152 934.278 680.152C931.398 680.152 928.838 679.768 926.598 679C924.422 678.232 922.79 677.496 921.702 676.792V696.76H912.774V630.616C914.886 630.104 917.51 629.56 920.646 628.984C923.846 628.344 927.526 628.024 931.686 628.024C935.526 628.024 938.982 628.632 942.054 629.848C945.126 631.064 947.75 632.792 949.926 635.032C952.102 637.272 953.766 640.024 954.918 643.288C956.134 646.488 956.742 650.104 956.742 654.136ZM1003.96 654.136C1003.96 648.312 1002.52 643.832 999.641 640.696C996.761 637.56 992.921 635.992 988.121 635.992C985.433 635.992 983.321 636.088 981.785 636.28C980.313 636.472 979.129 636.696 978.233 636.952V668.44C979.321 669.336 980.889 670.2 982.937 671.032C984.985 671.864 987.225 672.28 989.657 672.28C992.217 672.28 994.393 671.832 996.185 670.936C998.041 669.976 999.545 668.696 1000.7 667.096C1001.85 665.432 1002.68 663.512 1003.19 661.336C1003.71 659.096 1003.96 656.696 1003.96 654.136ZM1013.27 654.136C1013.27 657.912 1012.76 661.4 1011.74 664.6C1010.78 667.8 1009.34 670.552 1007.42 672.856C1005.5 675.16 1003.13 676.952 1000.31 678.232C997.561 679.512 994.393 680.152 990.809 680.152C987.929 680.152 985.369 679.768 983.129 679C980.953 678.232 979.321 677.496 978.233 676.792V696.76H969.305V630.616C971.417 630.104 974.041 629.56 977.177 628.984C980.377 628.344 984.057 628.024 988.217 628.024C992.057 628.024 995.513 628.632 998.585 629.848C1001.66 631.064 1004.28 632.792 1006.46 635.032C1008.63 637.272 1010.3 640.024 1011.45 643.288C1012.67 646.488 1013.27 650.104 1013.27 654.136ZM1025.84 630.52C1027.88 630.008 1030.57 629.464 1033.9 628.888C1037.29 628.312 1041.2 628.024 1045.61 628.024C1048.81 628.024 1051.5 628.472 1053.68 629.368C1055.85 630.2 1057.68 631.448 1059.15 633.112C1059.6 632.792 1060.3 632.344 1061.26 631.768C1062.22 631.192 1063.4 630.648 1064.81 630.136C1066.22 629.56 1067.79 629.08 1069.52 628.696C1071.24 628.248 1073.1 628.024 1075.08 628.024C1078.92 628.024 1082.06 628.6 1084.49 629.752C1086.92 630.84 1088.81 632.408 1090.16 634.456C1091.56 636.504 1092.49 638.936 1092.94 641.752C1093.45 644.568 1093.71 647.64 1093.71 650.968V679H1084.78V652.888C1084.78 649.944 1084.62 647.416 1084.3 645.304C1084.04 643.192 1083.5 641.432 1082.67 640.024C1081.9 638.616 1080.81 637.592 1079.4 636.952C1078.06 636.248 1076.3 635.896 1074.12 635.896C1071.12 635.896 1068.62 636.312 1066.64 637.144C1064.72 637.912 1063.4 638.616 1062.7 639.256C1063.21 640.92 1063.6 642.744 1063.85 644.728C1064.11 646.712 1064.24 648.792 1064.24 650.968V679H1055.31V652.888C1055.31 649.944 1055.15 647.416 1054.83 645.304C1054.51 643.192 1053.93 641.432 1053.1 640.024C1052.33 638.616 1051.24 637.592 1049.84 636.952C1048.49 636.248 1046.76 635.896 1044.65 635.896C1043.76 635.896 1042.8 635.928 1041.77 635.992C1040.75 636.056 1039.76 636.152 1038.8 636.28C1037.9 636.344 1037.07 636.44 1036.3 636.568C1035.53 636.696 1035.02 636.792 1034.76 636.856V679H1025.84V630.52ZM1125.42 672.568C1127.53 672.568 1129.39 672.536 1130.99 672.472C1132.65 672.344 1134.03 672.152 1135.12 671.896V657.016C1134.48 656.696 1133.42 656.44 1131.95 656.248C1130.54 655.992 1128.81 655.864 1126.76 655.864C1125.42 655.864 1123.98 655.96 1122.44 656.152C1120.97 656.344 1119.6 656.76 1118.32 657.4C1117.1 657.976 1116.08 658.808 1115.24 659.896C1114.41 660.92 1114 662.296 1114 664.024C1114 667.224 1115.02 669.464 1117.07 670.744C1119.12 671.96 1121.9 672.568 1125.42 672.568ZM1124.65 627.832C1128.24 627.832 1131.24 628.312 1133.68 629.272C1136.17 630.168 1138.16 631.48 1139.63 633.208C1141.16 634.872 1142.25 636.888 1142.89 639.256C1143.53 641.56 1143.85 644.12 1143.85 646.936V678.136C1143.08 678.264 1142 678.456 1140.59 678.712C1139.24 678.904 1137.71 679.096 1135.98 679.288C1134.25 679.48 1132.36 679.64 1130.32 679.768C1128.33 679.96 1126.35 680.056 1124.36 680.056C1121.55 680.056 1118.96 679.768 1116.59 679.192C1114.22 678.616 1112.17 677.72 1110.44 676.504C1108.72 675.224 1107.37 673.56 1106.41 671.512C1105.45 669.464 1104.97 667 1104.97 664.12C1104.97 661.368 1105.52 659 1106.6 657.016C1107.76 655.032 1109.29 653.432 1111.21 652.216C1113.13 651 1115.37 650.104 1117.93 649.528C1120.49 648.952 1123.18 648.664 1126 648.664C1126.89 648.664 1127.82 648.728 1128.78 648.856C1129.74 648.92 1130.64 649.048 1131.47 649.24C1132.36 649.368 1133.13 649.496 1133.77 649.624C1134.41 649.752 1134.86 649.848 1135.12 649.912V647.416C1135.12 645.944 1134.96 644.504 1134.64 643.096C1134.32 641.624 1133.74 640.344 1132.91 639.256C1132.08 638.104 1130.92 637.208 1129.45 636.568C1128.04 635.864 1126.19 635.512 1123.88 635.512C1120.94 635.512 1118.35 635.736 1116.11 636.184C1113.93 636.568 1112.3 636.984 1111.21 637.432L1110.16 630.04C1111.31 629.528 1113.23 629.048 1115.92 628.6C1118.6 628.088 1121.52 627.832 1124.65 627.832ZM1158.68 630.52C1160.73 630.008 1163.45 629.464 1166.84 628.888C1170.23 628.312 1174.14 628.024 1178.55 628.024C1182.52 628.024 1185.82 628.6 1188.44 629.752C1191.06 630.84 1193.14 632.408 1194.68 634.456C1196.28 636.44 1197.4 638.84 1198.04 641.656C1198.68 644.472 1199 647.576 1199 650.968V679H1190.07V652.888C1190.07 649.816 1189.85 647.192 1189.4 645.016C1189.02 642.84 1188.34 641.08 1187.38 639.736C1186.42 638.392 1185.14 637.432 1183.54 636.856C1181.94 636.216 1179.96 635.896 1177.59 635.896C1176.63 635.896 1175.64 635.928 1174.62 635.992C1173.59 636.056 1172.6 636.152 1171.64 636.28C1170.74 636.344 1169.91 636.44 1169.14 636.568C1168.44 636.696 1167.93 636.792 1167.61 636.856V679H1158.68V630.52ZM1213.81 630.52C1215.85 630.008 1218.57 629.464 1221.97 628.888C1225.36 628.312 1229.26 628.024 1233.68 628.024C1237.65 628.024 1240.94 628.6 1243.57 629.752C1246.19 630.84 1248.27 632.408 1249.81 634.456C1251.41 636.44 1252.53 638.84 1253.17 641.656C1253.81 644.472 1254.12 647.576 1254.12 650.968V679H1245.2V652.888C1245.2 649.816 1244.97 647.192 1244.53 645.016C1244.14 642.84 1243.47 641.08 1242.51 639.736C1241.55 638.392 1240.27 637.432 1238.67 636.856C1237.07 636.216 1235.09 635.896 1232.72 635.896C1231.76 635.896 1230.77 635.928 1229.74 635.992C1228.72 636.056 1227.73 636.152 1226.77 636.28C1225.87 636.344 1225.04 636.44 1224.27 636.568C1223.57 636.696 1223.05 636.792 1222.73 636.856V679H1213.81V630.52ZM525.175 722.472H534.487V789H525.175V758.28H492.631V789H483.319V722.472H492.631V750.216H525.175V722.472ZM547.646 764.136C547.646 759.72 548.286 755.88 549.566 752.616C550.846 749.288 552.542 746.536 554.654 744.36C556.766 742.184 559.198 740.552 561.95 739.464C564.702 738.376 567.518 737.832 570.398 737.832C577.118 737.832 582.27 739.944 585.854 744.168C589.438 748.328 591.23 754.696 591.23 763.272C591.23 763.656 591.23 764.168 591.23 764.808C591.23 765.384 591.198 765.928 591.134 766.44H556.958C557.342 771.624 558.846 775.56 561.47 778.248C564.094 780.936 568.19 782.28 573.758 782.28C576.894 782.28 579.518 782.024 581.63 781.512C583.806 780.936 585.438 780.392 586.526 779.88L587.774 787.368C586.686 787.944 584.766 788.552 582.014 789.192C579.326 789.832 576.254 790.152 572.798 790.152C568.446 790.152 564.67 789.512 561.47 788.232C558.334 786.888 555.742 785.064 553.694 782.76C551.646 780.456 550.11 777.736 549.086 774.6C548.126 771.4 547.646 767.912 547.646 764.136ZM581.918 759.24C581.982 755.208 580.958 751.912 578.846 749.352C576.798 746.728 573.95 745.416 570.302 745.416C568.254 745.416 566.43 745.832 564.83 746.664C563.294 747.432 561.982 748.456 560.894 749.736C559.806 751.016 558.942 752.488 558.302 754.152C557.726 755.816 557.342 757.512 557.15 759.24H581.918ZM612.983 789H604.055V739.08H612.983V789ZM608.471 730.056C606.871 730.056 605.495 729.544 604.343 728.52C603.255 727.432 602.711 725.992 602.711 724.2C602.711 722.408 603.255 721 604.343 719.976C605.495 718.888 606.871 718.344 608.471 718.344C610.071 718.344 611.415 718.888 612.503 719.976C613.655 721 614.231 722.408 614.231 724.2C614.231 725.992 613.655 727.432 612.503 728.52C611.415 729.544 610.071 730.056 608.471 730.056ZM660.592 749.64C659.504 748.744 657.936 747.88 655.888 747.048C653.84 746.216 651.6 745.8 649.168 745.8C646.608 745.8 644.4 746.28 642.544 747.24C640.752 748.136 639.28 749.416 638.128 751.08C636.976 752.68 636.144 754.6 635.632 756.84C635.12 759.08 634.864 761.48 634.864 764.04C634.864 769.864 636.304 774.376 639.184 777.576C642.064 780.712 645.904 782.28 650.704 782.28C653.136 782.28 655.152 782.184 656.752 781.992C658.416 781.736 659.696 781.48 660.592 781.224V749.64ZM660.592 716.04L669.52 714.504V787.56C667.472 788.136 664.848 788.712 661.648 789.288C658.448 789.864 654.768 790.152 650.608 790.152C646.768 790.152 643.312 789.544 640.24 788.328C637.168 787.112 634.544 785.384 632.368 783.144C630.192 780.904 628.496 778.184 627.28 774.984C626.128 771.72 625.552 768.072 625.552 764.04C625.552 760.2 626.032 756.68 626.992 753.48C628.016 750.28 629.488 747.528 631.408 745.224C633.328 742.92 635.664 741.128 638.416 739.848C641.232 738.568 644.432 737.928 648.016 737.928C650.896 737.928 653.424 738.312 655.6 739.08C657.84 739.848 659.504 740.584 660.592 741.288V716.04ZM693.796 789H684.868V739.08H693.796V789ZM689.284 730.056C687.684 730.056 686.308 729.544 685.156 728.52C684.068 727.432 683.523 725.992 683.523 724.2C683.523 722.408 684.068 721 685.156 719.976C686.308 718.888 687.684 718.344 689.284 718.344C690.884 718.344 692.228 718.888 693.316 719.976C694.468 721 695.044 722.408 695.044 724.2C695.044 725.992 694.468 727.432 693.316 728.52C692.228 729.544 690.884 730.056 689.284 730.056ZM773.8 722.472H783.112V789H773.8V758.28H741.256V789H731.944V722.472H741.256V750.216H773.8V722.472ZM843.119 764.04C843.119 768.008 842.543 771.592 841.391 774.792C840.239 777.992 838.607 780.744 836.495 783.048C834.447 785.352 831.983 787.144 829.103 788.424C826.223 789.64 823.087 790.248 819.695 790.248C816.303 790.248 813.167 789.64 810.287 788.424C807.407 787.144 804.911 785.352 802.799 783.048C800.751 780.744 799.151 777.992 797.999 774.792C796.847 771.592 796.271 768.008 796.271 764.04C796.271 760.136 796.847 756.584 797.999 753.384C799.151 750.12 800.751 747.336 802.799 745.032C804.911 742.728 807.407 740.968 810.287 739.752C813.167 738.472 816.303 737.832 819.695 737.832C823.087 737.832 826.223 738.472 829.103 739.752C831.983 740.968 834.447 742.728 836.495 745.032C838.607 747.336 840.239 750.12 841.391 753.384C842.543 756.584 843.119 760.136 843.119 764.04ZM833.807 764.04C833.807 758.408 832.527 753.96 829.967 750.696C827.471 747.368 824.047 745.704 819.695 745.704C815.343 745.704 811.887 747.368 809.327 750.696C806.831 753.96 805.583 758.408 805.583 764.04C805.583 769.672 806.831 774.152 809.327 777.48C811.887 780.744 815.343 782.376 819.695 782.376C824.047 782.376 827.471 780.744 829.967 777.48C832.527 774.152 833.807 769.672 833.807 764.04ZM895.261 789C893.469 784.392 891.549 779.144 889.501 773.256C887.517 767.304 885.693 761.128 884.029 754.728C882.365 761.128 880.541 767.304 878.557 773.256C876.573 779.144 874.685 784.392 872.893 789H865.117C862.173 782.408 859.293 774.888 856.477 766.44C853.661 757.992 851.005 748.872 848.509 739.08H858.109C858.749 742.088 859.517 745.352 860.413 748.872C861.309 752.392 862.237 755.912 863.197 759.432C864.221 762.952 865.277 766.344 866.365 769.608C867.453 772.872 868.477 775.72 869.437 778.152C870.525 775.144 871.581 771.976 872.605 768.648C873.693 765.256 874.717 761.864 875.677 758.472C876.637 755.016 877.533 751.656 878.365 748.392C879.261 745.064 880.029 741.96 880.669 739.08H888.061C888.637 741.96 889.341 745.064 890.173 748.392C891.005 751.656 891.901 755.016 892.861 758.472C893.821 761.864 894.813 765.256 895.837 768.648C896.925 771.976 898.013 775.144 899.101 778.152C900.061 775.72 901.053 772.872 902.077 769.608C903.165 766.344 904.221 762.952 905.245 759.432C906.269 755.912 907.229 752.392 908.125 748.872C909.021 745.352 909.789 742.088 910.429 739.08H919.645C917.149 748.872 914.493 757.992 911.677 766.44C908.861 774.888 905.981 782.408 903.037 789H895.261ZM945.982 782.568C948.094 782.568 949.95 782.536 951.55 782.472C953.214 782.344 954.59 782.152 955.678 781.896V767.016C955.038 766.696 953.982 766.44 952.51 766.248C951.102 765.992 949.374 765.864 947.326 765.864C945.982 765.864 944.542 765.96 943.006 766.152C941.534 766.344 940.158 766.76 938.878 767.4C937.662 767.976 936.638 768.808 935.806 769.896C934.974 770.92 934.558 772.296 934.558 774.024C934.558 777.224 935.582 779.464 937.63 780.744C939.678 781.96 942.462 782.568 945.982 782.568ZM945.214 737.832C948.798 737.832 951.806 738.312 954.238 739.272C956.734 740.168 958.718 741.48 960.19 743.208C961.726 744.872 962.814 746.888 963.454 749.256C964.094 751.56 964.414 754.12 964.414 756.936V788.136C963.646 788.264 962.558 788.456 961.15 788.712C959.806 788.904 958.27 789.096 956.542 789.288C954.814 789.48 952.926 789.64 950.878 789.768C948.894 789.96 946.91 790.056 944.926 790.056C942.11 790.056 939.518 789.768 937.15 789.192C934.782 788.616 932.734 787.72 931.006 786.504C929.278 785.224 927.934 783.56 926.974 781.512C926.014 779.464 925.534 777 925.534 774.12C925.534 771.368 926.078 769 927.166 767.016C928.318 765.032 929.854 763.432 931.774 762.216C933.694 761 935.934 760.104 938.494 759.528C941.054 758.952 943.742 758.664 946.558 758.664C947.454 758.664 948.382 758.728 949.342 758.856C950.302 758.92 951.198 759.048 952.03 759.24C952.926 759.368 953.694 759.496 954.334 759.624C954.974 759.752 955.422 759.848 955.678 759.912V757.416C955.678 755.944 955.518 754.504 955.198 753.096C954.878 751.624 954.302 750.344 953.47 749.256C952.638 748.104 951.486 747.208 950.014 746.568C948.606 745.864 946.75 745.512 944.446 745.512C941.502 745.512 938.91 745.736 936.67 746.184C934.494 746.568 932.862 746.984 931.774 747.432L930.718 740.04C931.87 739.528 933.79 739.048 936.478 738.6C939.166 738.088 942.078 737.832 945.214 737.832ZM997.675 738.024C998.443 738.024 999.307 738.088 1000.27 738.216C1001.29 738.28 1002.28 738.408 1003.24 738.6C1004.2 738.728 1005.07 738.888 1005.83 739.08C1006.67 739.208 1007.27 739.336 1007.66 739.464L1006.12 747.24C1005.42 746.984 1004.23 746.696 1002.57 746.376C1000.97 745.992 998.891 745.8 996.331 745.8C994.667 745.8 993.003 745.992 991.339 746.376C989.739 746.696 988.683 746.92 988.171 747.048V789H979.243V741.192C981.355 740.424 983.979 739.72 987.115 739.08C990.251 738.376 993.771 738.024 997.675 738.024ZM1048.53 749.64C1047.44 748.744 1045.87 747.88 1043.83 747.048C1041.78 746.216 1039.54 745.8 1037.11 745.8C1034.55 745.8 1032.34 746.28 1030.48 747.24C1028.69 748.136 1027.22 749.416 1026.07 751.08C1024.91 752.68 1024.08 754.6 1023.57 756.84C1023.06 759.08 1022.8 761.48 1022.8 764.04C1022.8 769.864 1024.24 774.376 1027.12 777.576C1030 780.712 1033.84 782.28 1038.64 782.28C1041.07 782.28 1043.09 782.184 1044.69 781.992C1046.35 781.736 1047.63 781.48 1048.53 781.224V749.64ZM1048.53 716.04L1057.46 714.504V787.56C1055.41 788.136 1052.79 788.712 1049.59 789.288C1046.39 789.864 1042.71 790.152 1038.55 790.152C1034.71 790.152 1031.25 789.544 1028.18 788.328C1025.11 787.112 1022.48 785.384 1020.31 783.144C1018.13 780.904 1016.43 778.184 1015.22 774.984C1014.07 771.72 1013.49 768.072 1013.49 764.04C1013.49 760.2 1013.97 756.68 1014.93 753.48C1015.95 750.28 1017.43 747.528 1019.35 745.224C1021.27 742.92 1023.6 741.128 1026.35 739.848C1029.17 738.568 1032.37 737.928 1035.95 737.928C1038.83 737.928 1041.36 738.312 1043.54 739.08C1045.78 739.848 1047.44 740.584 1048.53 741.288V716.04Z" fill="#282923"/>
<path d="M403.302 370.44C398.63 370.44 394.374 369.672 390.534 368.136C386.694 366.6 383.398 364.36 380.646 361.416C377.894 358.472 375.75 354.856 374.214 350.568C372.742 346.216 372.006 341.256 372.006 335.688C372.006 330.12 372.838 325.192 374.502 320.904C376.23 316.552 378.534 312.904 381.414 309.96C384.294 307.016 387.654 304.776 391.494 303.24C395.334 301.704 399.43 300.936 403.782 300.936C406.534 300.936 408.998 301.128 411.174 301.512C413.414 301.896 415.334 302.344 416.934 302.856C418.598 303.368 419.942 303.88 420.966 304.392C421.99 304.904 422.694 305.288 423.078 305.544L420.39 313.224C419.814 312.84 418.982 312.424 417.894 311.976C416.806 311.528 415.558 311.08 414.15 310.632C412.806 310.184 411.302 309.832 409.638 309.576C408.038 309.256 406.406 309.096 404.742 309.096C401.222 309.096 398.054 309.704 395.238 310.92C392.422 312.136 390.022 313.896 388.038 316.2C386.054 318.504 384.518 321.32 383.43 324.648C382.406 327.912 381.894 331.592 381.894 335.688C381.894 339.656 382.342 343.272 383.238 346.536C384.198 349.8 385.606 352.616 387.462 354.984C389.318 357.288 391.622 359.08 394.374 360.36C397.19 361.64 400.454 362.28 404.166 362.28C408.454 362.28 412.006 361.832 414.822 360.936C417.638 360.04 419.75 359.24 421.158 358.536L423.558 366.216C423.11 366.536 422.31 366.952 421.158 367.464C420.006 367.912 418.566 368.36 416.838 368.808C415.11 369.256 413.094 369.64 410.79 369.96C408.486 370.28 405.99 370.44 403.302 370.44ZM452.081 318.024C452.849 318.024 453.713 318.088 454.673 318.216C455.697 318.28 456.689 318.408 457.649 318.6C458.609 318.728 459.473 318.888 460.241 319.08C461.073 319.208 461.681 319.336 462.065 319.464L460.529 327.24C459.825 326.984 458.641 326.696 456.977 326.376C455.377 325.992 453.297 325.8 450.737 325.8C449.073 325.8 447.409 325.992 445.745 326.376C444.145 326.696 443.089 326.92 442.577 327.048V369H433.649V321.192C435.761 320.424 438.385 319.72 441.521 319.08C444.657 318.376 448.177 318.024 452.081 318.024ZM467.896 344.136C467.896 339.72 468.536 335.88 469.816 332.616C471.096 329.288 472.792 326.536 474.904 324.36C477.016 322.184 479.448 320.552 482.2 319.464C484.952 318.376 487.768 317.832 490.648 317.832C497.368 317.832 502.52 319.944 506.104 324.168C509.688 328.328 511.48 334.696 511.48 343.272C511.48 343.656 511.48 344.168 511.48 344.808C511.48 345.384 511.448 345.928 511.384 346.44H477.208C477.592 351.624 479.096 355.56 481.72 358.248C484.344 360.936 488.44 362.28 494.008 362.28C497.144 362.28 499.768 362.024 501.88 361.512C504.056 360.936 505.688 360.392 506.776 359.88L508.024 367.368C506.936 367.944 505.016 368.552 502.264 369.192C499.576 369.832 496.504 370.152 493.048 370.152C488.696 370.152 484.92 369.512 481.72 368.232C478.584 366.888 475.992 365.064 473.944 362.76C471.896 360.456 470.36 357.736 469.336 354.6C468.376 351.4 467.896 347.912 467.896 344.136ZM502.168 339.24C502.232 335.208 501.208 331.912 499.096 329.352C497.048 326.728 494.2 325.416 490.552 325.416C488.504 325.416 486.68 325.832 485.08 326.664C483.544 327.432 482.232 328.456 481.144 329.736C480.056 331.016 479.192 332.488 478.552 334.152C477.976 335.816 477.592 337.512 477.4 339.24H502.168ZM556.561 329.64C555.473 328.744 553.905 327.88 551.857 327.048C549.809 326.216 547.569 325.8 545.137 325.8C542.577 325.8 540.369 326.28 538.513 327.24C536.721 328.136 535.249 329.416 534.097 331.08C532.945 332.68 532.113 334.6 531.601 336.84C531.089 339.08 530.833 341.48 530.833 344.04C530.833 349.864 532.273 354.376 535.153 357.576C538.033 360.712 541.873 362.28 546.673 362.28C549.105 362.28 551.121 362.184 552.721 361.992C554.385 361.736 555.665 361.48 556.561 361.224V329.64ZM556.561 296.04L565.489 294.504V367.56C563.441 368.136 560.817 368.712 557.617 369.288C554.417 369.864 550.737 370.152 546.577 370.152C542.737 370.152 539.281 369.544 536.209 368.328C533.137 367.112 530.513 365.384 528.337 363.144C526.161 360.904 524.465 358.184 523.249 354.984C522.097 351.72 521.521 348.072 521.521 344.04C521.521 340.2 522.001 336.68 522.961 333.48C523.985 330.28 525.457 327.528 527.377 325.224C529.297 322.92 531.633 321.128 534.385 319.848C537.201 318.568 540.401 317.928 543.985 317.928C546.865 317.928 549.393 318.312 551.569 319.08C553.809 319.848 555.473 320.584 556.561 321.288V296.04ZM589.764 369H580.836V319.08H589.764V369ZM585.252 310.056C583.652 310.056 582.276 309.544 581.124 308.52C580.036 307.432 579.492 305.992 579.492 304.2C579.492 302.408 580.036 301 581.124 299.976C582.276 298.888 583.652 298.344 585.252 298.344C586.852 298.344 588.196 298.888 589.284 299.976C590.436 301 591.012 302.408 591.012 304.2C591.012 305.992 590.436 307.432 589.284 308.52C588.196 309.544 586.852 310.056 585.252 310.056ZM613.47 319.08H632.382V326.568H613.47V349.608C613.47 352.104 613.662 354.184 614.046 355.848C614.43 357.448 615.006 358.728 615.774 359.688C616.542 360.584 617.502 361.224 618.654 361.608C619.806 361.992 621.15 362.184 622.686 362.184C625.374 362.184 627.518 361.896 629.118 361.32C630.782 360.68 631.934 360.232 632.574 359.976L634.302 367.368C633.406 367.816 631.838 368.36 629.598 369C627.358 369.704 624.798 370.056 621.918 370.056C618.526 370.056 615.71 369.64 613.47 368.808C611.294 367.912 609.534 366.6 608.19 364.872C606.846 363.144 605.886 361.032 605.31 358.536C604.798 355.976 604.542 353.032 604.542 349.704V305.16L613.47 303.624V319.08ZM655.359 362.568C659.007 362.568 661.695 362.088 663.423 361.128C665.215 360.168 666.111 358.632 666.111 356.52C666.111 354.344 665.247 352.616 663.519 351.336C661.791 350.056 658.943 348.616 654.975 347.016C653.055 346.248 651.199 345.48 649.407 344.712C647.679 343.88 646.175 342.92 644.895 341.832C643.615 340.744 642.591 339.432 641.823 337.896C641.055 336.36 640.671 334.472 640.671 332.232C640.671 327.816 642.303 324.328 645.567 321.768C648.831 319.144 653.279 317.832 658.911 317.832C660.319 317.832 661.727 317.928 663.135 318.12C664.543 318.248 665.855 318.44 667.071 318.696C668.287 318.888 669.343 319.112 670.239 319.368C671.199 319.624 671.935 319.848 672.447 320.04L670.815 327.72C669.855 327.208 668.351 326.696 666.303 326.184C664.255 325.608 661.791 325.32 658.911 325.32C656.415 325.32 654.239 325.832 652.383 326.856C650.527 327.816 649.599 329.352 649.599 331.464C649.599 332.552 649.791 333.512 650.174 334.344C650.623 335.176 651.263 335.944 652.095 336.648C652.991 337.288 654.079 337.896 655.359 338.472C656.639 339.048 658.175 339.656 659.967 340.296C662.335 341.192 664.447 342.088 666.303 342.984C668.159 343.816 669.727 344.808 671.007 345.96C672.351 347.112 673.375 348.52 674.079 350.184C674.783 351.784 675.135 353.768 675.135 356.136C675.135 360.744 673.407 364.232 669.951 366.6C666.559 368.968 661.695 370.152 655.359 370.152C650.943 370.152 647.487 369.768 644.991 369C642.495 368.296 640.799 367.752 639.903 367.368L641.535 359.688C642.559 360.072 644.191 360.648 646.431 361.416C648.671 362.184 651.647 362.568 655.359 362.568ZM707.941 386.76H698.821L731.365 293.832H740.293L707.941 386.76ZM779.484 362.568C783.132 362.568 785.82 362.088 787.548 361.128C789.34 360.168 790.236 358.632 790.236 356.52C790.236 354.344 789.372 352.616 787.644 351.336C785.916 350.056 783.068 348.616 779.1 347.016C777.18 346.248 775.324 345.48 773.532 344.712C771.804 343.88 770.3 342.92 769.02 341.832C767.74 340.744 766.716 339.432 765.948 337.896C765.18 336.36 764.796 334.472 764.796 332.232C764.796 327.816 766.428 324.328 769.692 321.768C772.956 319.144 777.404 317.832 783.036 317.832C784.444 317.832 785.852 317.928 787.26 318.12C788.668 318.248 789.98 318.44 791.196 318.696C792.412 318.888 793.468 319.112 794.364 319.368C795.324 319.624 796.06 319.848 796.572 320.04L794.94 327.72C793.98 327.208 792.476 326.696 790.428 326.184C788.38 325.608 785.916 325.32 783.036 325.32C780.54 325.32 778.364 325.832 776.508 326.856C774.652 327.816 773.724 329.352 773.724 331.464C773.724 332.552 773.916 333.512 774.299 334.344C774.748 335.176 775.388 335.944 776.22 336.648C777.116 337.288 778.204 337.896 779.484 338.472C780.764 339.048 782.3 339.656 784.092 340.296C786.46 341.192 788.572 342.088 790.428 342.984C792.284 343.816 793.852 344.808 795.132 345.96C796.476 347.112 797.5 348.52 798.204 350.184C798.908 351.784 799.26 353.768 799.26 356.136C799.26 360.744 797.532 364.232 794.076 366.6C790.684 368.968 785.82 370.152 779.484 370.152C775.068 370.152 771.612 369.768 769.116 369C766.62 368.296 764.924 367.752 764.028 367.368L765.66 359.688C766.684 360.072 768.316 360.648 770.556 361.416C772.796 362.184 775.772 362.568 779.484 362.568ZM825.687 369.96C820.183 369.832 816.279 368.648 813.975 366.408C811.671 364.168 810.519 360.68 810.519 355.944V296.04L819.447 294.504V354.504C819.447 355.976 819.575 357.192 819.831 358.152C820.087 359.112 820.503 359.88 821.079 360.456C821.655 361.032 822.423 361.48 823.383 361.8C824.343 362.056 825.527 362.28 826.935 362.472L825.687 369.96ZM845.889 369H836.961V319.08H845.889V369ZM841.377 310.056C839.777 310.056 838.401 309.544 837.249 308.52C836.161 307.432 835.617 305.992 835.617 304.2C835.617 302.408 836.161 301 837.249 299.976C838.401 298.888 839.777 298.344 841.377 298.344C842.977 298.344 844.321 298.888 845.409 299.976C846.561 301 847.137 302.408 847.137 304.2C847.137 305.992 846.561 307.432 845.409 308.52C844.321 309.544 842.977 310.056 841.377 310.056ZM893.499 329.64C892.411 328.744 890.843 327.88 888.795 327.048C886.747 326.216 884.507 325.8 882.075 325.8C879.515 325.8 877.307 326.28 875.451 327.24C873.659 328.136 872.187 329.416 871.035 331.08C869.883 332.68 869.051 334.6 868.539 336.84C868.027 339.08 867.771 341.48 867.771 344.04C867.771 349.864 869.211 354.376 872.091 357.576C874.971 360.712 878.811 362.28 883.611 362.28C886.043 362.28 888.059 362.184 889.659 361.992C891.323 361.736 892.603 361.48 893.499 361.224V329.64ZM893.499 296.04L902.427 294.504V367.56C900.379 368.136 897.755 368.712 894.555 369.288C891.355 369.864 887.675 370.152 883.515 370.152C879.675 370.152 876.219 369.544 873.147 368.328C870.075 367.112 867.451 365.384 865.275 363.144C863.099 360.904 861.403 358.184 860.187 354.984C859.035 351.72 858.459 348.072 858.459 344.04C858.459 340.2 858.939 336.68 859.898 333.48C860.923 330.28 862.395 327.528 864.315 325.224C866.235 322.92 868.571 321.128 871.323 319.848C874.139 318.568 877.339 317.928 880.923 317.928C883.803 317.928 886.331 318.312 888.507 319.08C890.747 319.848 892.411 320.584 893.499 321.288V296.04ZM914.99 344.136C914.99 339.72 915.63 335.88 916.91 332.616C918.19 329.288 919.886 326.536 921.998 324.36C924.11 322.184 926.542 320.552 929.294 319.464C932.046 318.376 934.862 317.832 937.742 317.832C944.462 317.832 949.614 319.944 953.198 324.168C956.782 328.328 958.574 334.696 958.574 343.272C958.574 343.656 958.574 344.168 958.574 344.808C958.574 345.384 958.542 345.928 958.478 346.44H924.302C924.686 351.624 926.19 355.56 928.814 358.248C931.438 360.936 935.534 362.28 941.102 362.28C944.238 362.28 946.862 362.024 948.974 361.512C951.15 360.936 952.782 360.392 953.87 359.88L955.118 367.368C954.03 367.944 952.11 368.552 949.358 369.192C946.67 369.832 943.598 370.152 940.142 370.152C935.79 370.152 932.014 369.512 928.814 368.232C925.678 366.888 923.086 365.064 921.038 362.76C918.99 360.456 917.454 357.736 916.43 354.6C915.47 351.4 914.99 347.912 914.99 344.136ZM949.262 339.24C949.326 335.208 948.302 331.912 946.19 329.352C944.142 326.728 941.294 325.416 937.646 325.416C935.598 325.416 933.774 325.832 932.174 326.664C930.638 327.432 929.326 328.456 928.238 329.736C927.15 331.016 926.286 332.488 925.646 334.152C925.07 335.816 924.686 337.512 924.494 339.24H949.262ZM983.015 362.568C986.663 362.568 989.351 362.088 991.079 361.128C992.871 360.168 993.767 358.632 993.767 356.52C993.767 354.344 992.903 352.616 991.175 351.336C989.447 350.056 986.599 348.616 982.631 347.016C980.711 346.248 978.855 345.48 977.063 344.712C975.335 343.88 973.831 342.92 972.551 341.832C971.271 340.744 970.247 339.432 969.479 337.896C968.711 336.36 968.327 334.472 968.327 332.232C968.327 327.816 969.959 324.328 973.223 321.768C976.487 319.144 980.935 317.832 986.567 317.832C987.975 317.832 989.383 317.928 990.791 318.12C992.199 318.248 993.511 318.44 994.727 318.696C995.943 318.888 996.999 319.112 997.895 319.368C998.855 319.624 999.591 319.848 1000.1 320.04L998.471 327.72C997.511 327.208 996.007 326.696 993.959 326.184C991.911 325.608 989.447 325.32 986.567 325.32C984.071 325.32 981.895 325.832 980.039 326.856C978.183 327.816 977.255 329.352 977.255 331.464C977.255 332.552 977.447 333.512 977.831 334.344C978.279 335.176 978.919 335.944 979.751 336.648C980.647 337.288 981.735 337.896 983.015 338.472C984.295 339.048 985.831 339.656 987.623 340.296C989.991 341.192 992.103 342.088 993.959 342.984C995.815 343.816 997.383 344.808 998.663 345.96C1000.01 347.112 1001.03 348.52 1001.73 350.184C1002.44 351.784 1002.79 353.768 1002.79 356.136C1002.79 360.744 1001.06 364.232 997.607 366.6C994.215 368.968 989.351 370.152 983.015 370.152C978.599 370.152 975.143 369.768 972.647 369C970.151 368.296 968.455 367.752 967.559 367.368L969.191 359.688C970.215 360.072 971.847 360.648 974.087 361.416C976.327 362.184 979.303 362.568 983.015 362.568Z" fill="#FD9621"/>
</svg>
