<svg width="1440" height="1080" viewBox="0 0 1440 1080" fill="none" xmlns="http://www.w3.org/2000/svg">
<rect width="1440" height="1080" fill="#282923"/>
<path d="M409.681 505.792C410.193 505.792 410.641 506 411.025 506.416L414.721 510.4C411.905 513.664 408.481 516.208 404.449 518.032C400.449 519.856 395.601 520.768 389.905 520.768C384.977 520.768 380.497 519.92 376.465 518.224C372.433 516.496 368.993 514.096 366.145 511.024C363.297 507.92 361.089 504.208 359.521 499.888C357.953 495.568 357.169 490.816 357.169 485.632C357.169 480.448 357.985 475.696 359.617 471.376C361.249 467.056 363.537 463.344 366.481 460.24C369.457 457.136 373.009 454.736 377.137 453.04C381.265 451.312 385.825 450.448 390.817 450.448C395.713 450.448 400.033 451.232 403.777 452.8C407.521 454.368 410.817 456.496 413.665 459.184L410.593 463.456C410.401 463.776 410.145 464.048 409.825 464.272C409.537 464.464 409.137 464.56 408.625 464.56C408.049 464.56 407.345 464.256 406.513 463.648C405.681 463.008 404.593 462.304 403.249 461.536C401.905 460.768 400.225 460.08 398.209 459.472C396.193 458.832 393.713 458.512 390.769 458.512C387.217 458.512 383.969 459.136 381.025 460.384C378.081 461.6 375.537 463.376 373.393 465.712C371.281 468.048 369.633 470.896 368.449 474.256C367.265 477.616 366.673 481.408 366.673 485.632C366.673 489.92 367.281 493.744 368.497 497.104C369.745 500.464 371.425 503.312 373.537 505.648C375.681 507.952 378.193 509.712 381.073 510.928C383.985 512.144 387.121 512.752 390.481 512.752C392.529 512.752 394.369 512.64 396.001 512.416C397.665 512.16 399.185 511.776 400.561 511.264C401.969 510.752 403.265 510.112 404.449 509.344C405.665 508.544 406.865 507.6 408.049 506.512C408.593 506.032 409.137 505.792 409.681 505.792ZM477.413 471.232V520H469.685V487.696C469.685 486.8 469.733 485.808 469.829 484.72C469.957 483.6 470.117 482.56 470.309 481.6L453.413 511.216C453.157 511.696 452.821 512.08 452.405 512.368C451.989 512.656 451.509 512.8 450.965 512.8H450.005C449.461 512.8 448.965 512.656 448.517 512.368C448.101 512.08 447.765 511.696 447.509 511.216L430.325 481.504C430.485 482.464 430.629 483.52 430.757 484.672C430.885 485.792 430.949 486.8 430.949 487.696V520H423.221V471.232H430.085C430.693 471.232 431.285 471.376 431.861 471.664C432.437 471.92 432.933 472.416 433.349 473.152L448.517 498.496C449.253 499.968 449.909 501.52 450.485 503.152C451.029 501.456 451.669 499.904 452.405 498.496L467.285 473.152C467.701 472.384 468.197 471.872 468.773 471.616C469.349 471.36 469.941 471.232 470.549 471.232H477.413ZM523.453 490.384C523.453 488.4 523.165 486.592 522.589 484.96C522.045 483.296 521.229 481.872 520.141 480.688C519.085 479.472 517.789 478.544 516.253 477.904C514.717 477.232 512.973 476.896 511.021 476.896C506.925 476.896 503.677 478.096 501.277 480.496C498.909 482.864 497.437 486.16 496.861 490.384H523.453ZM530.365 513.184C529.309 514.464 528.045 515.584 526.573 516.544C525.101 517.472 523.517 518.24 521.821 518.848C520.157 519.456 518.429 519.904 516.637 520.192C514.845 520.512 513.069 520.672 511.309 520.672C507.949 520.672 504.845 520.112 501.997 518.992C499.181 517.84 496.733 516.176 494.653 514C492.605 511.792 491.005 509.072 489.853 505.84C488.701 502.608 488.125 498.896 488.125 494.704C488.125 491.312 488.637 488.144 489.661 485.2C490.717 482.256 492.221 479.712 494.173 477.568C496.125 475.392 498.509 473.696 501.325 472.48C504.141 471.232 507.309 470.608 510.829 470.608C513.741 470.608 516.429 471.104 518.893 472.096C521.389 473.056 523.533 474.464 525.325 476.32C527.149 478.144 528.573 480.416 529.597 483.136C530.621 485.824 531.133 488.896 531.133 492.352C531.133 493.696 530.989 494.592 530.701 495.04C530.413 495.488 529.869 495.712 529.069 495.712H496.573C496.669 498.784 497.085 501.456 497.821 503.728C498.589 506 499.645 507.904 500.989 509.44C502.333 510.944 503.933 512.08 505.789 512.848C507.645 513.584 509.725 513.952 512.029 513.952C514.173 513.952 516.013 513.712 517.549 513.232C519.117 512.72 520.461 512.176 521.581 511.6C522.701 511.024 523.629 510.496 524.365 510.016C525.133 509.504 525.789 509.248 526.333 509.248C527.037 509.248 527.581 509.52 527.965 510.064L530.365 513.184ZM582.139 471.376V520H573.547V497.248H550.219V520H541.627V471.376H550.219V490.768H573.547V471.376H582.139ZM622.073 498.112C618.137 498.24 614.777 498.56 611.993 499.072C609.241 499.552 606.985 500.192 605.225 500.992C603.497 501.792 602.233 502.736 601.433 503.824C600.665 504.912 600.281 506.128 600.281 507.472C600.281 508.752 600.489 509.856 600.905 510.784C601.321 511.712 601.881 512.48 602.585 513.088C603.321 513.664 604.169 514.096 605.129 514.384C606.121 514.64 607.177 514.768 608.297 514.768C609.801 514.768 611.177 514.624 612.425 514.336C613.673 514.016 614.841 513.568 615.929 512.992C617.049 512.416 618.105 511.728 619.097 510.928C620.121 510.128 621.113 509.216 622.073 508.192V498.112ZM594.473 478.24C597.161 475.648 600.057 473.712 603.161 472.432C606.265 471.152 609.705 470.512 613.481 470.512C616.201 470.512 618.617 470.96 620.729 471.856C622.841 472.752 624.617 474 626.057 475.6C627.497 477.2 628.585 479.136 629.321 481.408C630.057 483.68 630.425 486.176 630.425 488.896V520H626.633C625.801 520 625.161 519.872 624.713 519.616C624.265 519.328 623.913 518.784 623.657 517.984L622.697 513.376C621.417 514.56 620.169 515.616 618.953 516.544C617.737 517.44 616.457 518.208 615.113 518.848C613.769 519.456 612.329 519.92 610.793 520.24C609.289 520.592 607.609 520.768 605.753 520.768C603.865 520.768 602.089 520.512 600.425 520C598.761 519.456 597.305 518.656 596.057 517.6C594.841 516.544 593.865 515.216 593.129 513.616C592.425 511.984 592.073 510.064 592.073 507.856C592.073 505.936 592.601 504.096 593.657 502.336C594.713 500.544 596.425 498.96 598.793 497.584C601.161 496.208 604.249 495.088 608.057 494.224C611.865 493.328 616.537 492.816 622.073 492.688V488.896C622.073 485.12 621.257 482.272 619.625 480.352C617.993 478.4 615.609 477.424 612.473 477.424C610.361 477.424 608.585 477.696 607.145 478.24C605.737 478.752 604.505 479.344 603.449 480.016C602.425 480.656 601.529 481.248 600.761 481.792C600.025 482.304 599.289 482.56 598.553 482.56C597.977 482.56 597.481 482.416 597.065 482.128C596.649 481.808 596.297 481.424 596.009 480.976L594.473 478.24ZM708.514 520H699.922V477.904H676.594V520H668.002V471.376H708.514V520ZM748.448 498.112C744.512 498.24 741.152 498.56 738.368 499.072C735.616 499.552 733.36 500.192 731.6 500.992C729.872 501.792 728.608 502.736 727.808 503.824C727.04 504.912 726.656 506.128 726.656 507.472C726.656 508.752 726.864 509.856 727.28 510.784C727.696 511.712 728.256 512.48 728.96 513.088C729.696 513.664 730.544 514.096 731.504 514.384C732.496 514.64 733.552 514.768 734.672 514.768C736.176 514.768 737.552 514.624 738.8 514.336C740.048 514.016 741.216 513.568 742.304 512.992C743.424 512.416 744.48 511.728 745.472 510.928C746.496 510.128 747.488 509.216 748.448 508.192V498.112ZM720.848 478.24C723.536 475.648 726.432 473.712 729.536 472.432C732.64 471.152 736.08 470.512 739.856 470.512C742.576 470.512 744.992 470.96 747.104 471.856C749.216 472.752 750.992 474 752.432 475.6C753.872 477.2 754.96 479.136 755.696 481.408C756.432 483.68 756.8 486.176 756.8 488.896V520H753.008C752.176 520 751.536 519.872 751.088 519.616C750.64 519.328 750.288 518.784 750.032 517.984L749.072 513.376C747.792 514.56 746.544 515.616 745.328 516.544C744.112 517.44 742.832 518.208 741.488 518.848C740.144 519.456 738.704 519.92 737.168 520.24C735.664 520.592 733.984 520.768 732.128 520.768C730.24 520.768 728.464 520.512 726.8 520C725.136 519.456 723.68 518.656 722.432 517.6C721.216 516.544 720.24 515.216 719.504 513.616C718.8 511.984 718.448 510.064 718.448 507.856C718.448 505.936 718.976 504.096 720.032 502.336C721.088 500.544 722.8 498.96 725.168 497.584C727.536 496.208 730.624 495.088 734.432 494.224C738.24 493.328 742.912 492.816 748.448 492.688V488.896C748.448 485.12 747.632 482.272 746 480.352C744.368 478.4 741.984 477.424 738.848 477.424C736.736 477.424 734.96 477.696 733.52 478.24C732.112 478.752 730.88 479.344 729.824 480.016C728.8 480.656 727.904 481.248 727.136 481.792C726.4 482.304 725.664 482.56 724.928 482.56C724.352 482.56 723.856 482.416 723.44 482.128C723.024 481.808 722.672 481.424 722.384 480.976L720.848 478.24ZM778.407 508.288C779.975 510.4 781.687 511.888 783.543 512.752C785.399 513.616 787.479 514.048 789.783 514.048C794.327 514.048 797.815 512.432 800.247 509.2C802.679 505.968 803.895 501.36 803.895 495.376C803.895 492.208 803.607 489.488 803.031 487.216C802.487 484.944 801.687 483.088 800.631 481.648C799.575 480.176 798.279 479.104 796.743 478.432C795.207 477.76 793.463 477.424 791.511 477.424C788.727 477.424 786.279 478.064 784.167 479.344C782.087 480.624 780.167 482.432 778.407 484.768V508.288ZM777.975 478.912C780.023 476.384 782.391 474.352 785.079 472.816C787.767 471.28 790.839 470.512 794.295 470.512C797.111 470.512 799.655 471.056 801.927 472.144C804.199 473.2 806.135 474.784 807.735 476.896C809.335 478.976 810.567 481.568 811.431 484.672C812.295 487.776 812.727 491.344 812.727 495.376C812.727 498.96 812.247 502.304 811.287 505.408C810.327 508.48 808.935 511.152 807.111 513.424C805.319 515.664 803.111 517.44 800.487 518.752C797.895 520.032 794.967 520.672 791.703 520.672C788.727 520.672 786.167 520.176 784.023 519.184C781.911 518.16 780.039 516.752 778.407 514.96V536.464H769.815V471.376H774.951C776.167 471.376 776.919 471.968 777.207 473.152L777.975 478.912ZM849.886 498.112C845.95 498.24 842.59 498.56 839.806 499.072C837.054 499.552 834.798 500.192 833.038 500.992C831.31 501.792 830.046 502.736 829.246 503.824C828.478 504.912 828.094 506.128 828.094 507.472C828.094 508.752 828.302 509.856 828.718 510.784C829.134 511.712 829.694 512.48 830.398 513.088C831.134 513.664 831.982 514.096 832.942 514.384C833.934 514.64 834.99 514.768 836.11 514.768C837.614 514.768 838.99 514.624 840.238 514.336C841.486 514.016 842.654 513.568 843.742 512.992C844.862 512.416 845.918 511.728 846.91 510.928C847.934 510.128 848.926 509.216 849.886 508.192V498.112ZM822.286 478.24C824.974 475.648 827.87 473.712 830.974 472.432C834.078 471.152 837.518 470.512 841.294 470.512C844.014 470.512 846.43 470.96 848.542 471.856C850.654 472.752 852.43 474 853.87 475.6C855.31 477.2 856.398 479.136 857.134 481.408C857.87 483.68 858.238 486.176 858.238 488.896V520H854.446C853.614 520 852.974 519.872 852.526 519.616C852.078 519.328 851.726 518.784 851.47 517.984L850.51 513.376C849.23 514.56 847.982 515.616 846.766 516.544C845.55 517.44 844.27 518.208 842.926 518.848C841.582 519.456 840.142 519.92 838.606 520.24C837.102 520.592 835.422 520.768 833.566 520.768C831.678 520.768 829.902 520.512 828.238 520C826.574 519.456 825.118 518.656 823.87 517.6C822.654 516.544 821.678 515.216 820.942 513.616C820.238 511.984 819.886 510.064 819.886 507.856C819.886 505.936 820.414 504.096 821.47 502.336C822.526 500.544 824.238 498.96 826.606 497.584C828.974 496.208 832.062 495.088 835.87 494.224C839.678 493.328 844.35 492.816 849.886 492.688V488.896C849.886 485.12 849.07 482.272 847.438 480.352C845.806 478.4 843.422 477.424 840.286 477.424C838.174 477.424 836.398 477.696 834.958 478.24C833.55 478.752 832.318 479.344 831.262 480.016C830.238 480.656 829.342 481.248 828.574 481.792C827.838 482.304 827.102 482.56 826.366 482.56C825.79 482.56 825.294 482.416 824.878 482.128C824.462 481.808 824.11 481.424 823.822 480.976L822.286 478.24ZM904.756 513.76V478.096H889.348C889.028 483.088 888.58 487.504 888.004 491.344C887.428 495.184 886.756 498.56 885.988 501.472C885.252 504.352 884.42 506.8 883.492 508.816C882.596 510.832 881.652 512.48 880.66 513.76H904.756ZM921.94 513.52V534.112C921.94 534.944 921.7 535.584 921.22 536.032C920.772 536.512 920.18 536.752 919.444 536.752H914.212V520H873.316V534.304C873.316 534.912 873.124 535.472 872.74 535.984C872.388 536.496 871.796 536.752 870.964 536.752H865.588V513.76H867.172C868.292 513.76 869.396 513.568 870.484 513.184C871.604 512.8 872.676 512.08 873.7 511.024C874.724 509.936 875.684 508.416 876.58 506.464C877.508 504.512 878.34 501.968 879.076 498.832C879.812 495.696 880.452 491.888 880.996 487.408C881.54 482.896 881.972 477.552 882.292 471.376H913.06V513.52H921.94ZM972.308 471.376V520H963.764V486.976C963.764 486.336 963.796 485.648 963.86 484.912C963.924 484.176 964.004 483.44 964.1 482.704C963.812 483.344 963.524 483.936 963.236 484.48C962.948 485.024 962.644 485.52 962.324 485.968L938.852 517.888C938.5 518.4 938.052 518.896 937.508 519.376C936.996 519.824 936.42 520.048 935.78 520.048H930.596V471.424H939.188V504.448C939.188 505.056 939.156 505.728 939.092 506.464C939.028 507.168 938.948 507.888 938.852 508.624C939.14 508.016 939.428 507.456 939.716 506.944C940.004 506.4 940.292 505.904 940.58 505.456L964.052 473.536C964.404 473.024 964.852 472.544 965.396 472.096C965.94 471.616 966.532 471.376 967.172 471.376H972.308ZM1017.35 477.904H994.407V520H985.815V471.376H1017.35V477.904ZM1079.66 471.232V520H1071.94V487.696C1071.94 486.8 1071.98 485.808 1072.08 484.72C1072.21 483.6 1072.37 482.56 1072.56 481.6L1055.66 511.216C1055.41 511.696 1055.07 512.08 1054.66 512.368C1054.24 512.656 1053.76 512.8 1053.22 512.8H1052.26C1051.71 512.8 1051.22 512.656 1050.77 512.368C1050.35 512.08 1050.02 511.696 1049.76 511.216L1032.58 481.504C1032.74 482.464 1032.88 483.52 1033.01 484.672C1033.14 485.792 1033.2 486.8 1033.2 487.696V520H1025.47V471.232H1032.34C1032.94 471.232 1033.54 471.376 1034.11 471.664C1034.69 471.92 1035.18 472.416 1035.6 473.152L1050.77 498.496C1051.5 499.968 1052.16 501.52 1052.74 503.152C1053.28 501.456 1053.92 499.904 1054.66 498.496L1069.54 473.152C1069.95 472.384 1070.45 471.872 1071.02 471.616C1071.6 471.36 1072.19 471.232 1072.8 471.232H1079.66Z" fill="#F8F8F2"/>
<path d="M212.421 574.232L207.021 560.24C206.861 559.824 206.693 559.344 206.517 558.8C206.341 558.24 206.173 557.648 206.013 557.024C205.677 558.32 205.333 559.4 204.981 560.264L199.581 574.232H212.421ZM222.117 587H218.517C218.101 587 217.765 586.896 217.509 586.688C217.253 586.48 217.061 586.216 216.932 585.896L213.717 577.592H198.285L195.069 585.896C194.973 586.184 194.789 586.44 194.517 586.664C194.245 586.888 193.901 587 193.485 587H189.909L203.661 552.608H208.365L222.117 587ZM234.829 584C236.429 584 237.693 583.632 238.621 582.896C239.549 582.144 240.013 581.12 240.013 579.824C240.013 579.248 239.925 578.728 239.749 578.264C239.573 577.784 239.285 577.368 238.885 577.016C238.485 576.664 237.949 576.392 237.277 576.2C236.621 576.008 235.813 575.912 234.853 575.912H229.597V584H234.829ZM229.597 565.568V573.2H234.277C234.981 573.2 235.629 573.104 236.221 572.912C236.829 572.704 237.349 572.424 237.781 572.072C238.213 571.704 238.549 571.272 238.789 570.776C239.029 570.264 239.149 569.704 239.149 569.096C239.149 568.648 239.069 568.216 238.909 567.8C238.749 567.368 238.477 566.992 238.093 566.672C237.709 566.336 237.205 566.072 236.581 565.88C235.957 565.672 235.189 565.568 234.277 565.568H229.597ZM234.397 562.688C235.901 562.688 237.189 562.84 238.261 563.144C239.333 563.448 240.213 563.864 240.901 564.392C241.589 564.904 242.093 565.512 242.413 566.216C242.733 566.92 242.893 567.672 242.893 568.472C242.893 569 242.821 569.552 242.677 570.128C242.533 570.704 242.277 571.256 241.909 571.784C241.557 572.312 241.069 572.792 240.445 573.224C239.837 573.64 239.069 573.968 238.141 574.208C239.997 574.528 241.429 575.176 242.437 576.152C243.445 577.112 243.949 578.384 243.949 579.968C243.949 581.152 243.709 582.184 243.229 583.064C242.765 583.928 242.117 584.656 241.285 585.248C240.469 585.84 239.509 586.28 238.405 586.568C237.301 586.856 236.117 587 234.853 587H225.493V562.688H234.397ZM269.139 565.952H259.803V587H255.531V565.952H246.195V562.688H269.139V565.952ZM282.476 562.304C284.252 562.304 285.852 562.6 287.276 563.192C288.7 563.784 289.916 564.624 290.924 565.712C291.932 566.8 292.7 568.12 293.228 569.672C293.772 571.208 294.044 572.928 294.044 574.832C294.044 576.752 293.772 578.48 293.228 580.016C292.7 581.552 291.932 582.864 290.924 583.952C289.916 585.04 288.7 585.88 287.276 586.472C285.852 587.048 284.252 587.336 282.476 587.336C280.684 587.336 279.068 587.048 277.628 586.472C276.204 585.88 274.988 585.04 273.98 583.952C272.972 582.864 272.196 581.552 271.652 580.016C271.124 578.48 270.86 576.752 270.86 574.832C270.86 572.928 271.124 571.208 271.652 569.672C272.196 568.12 272.972 566.8 273.98 565.712C274.988 564.624 276.204 563.784 277.628 563.192C279.068 562.6 280.684 562.304 282.476 562.304ZM282.476 584C284.876 584 286.668 583.2 287.852 581.6C289.036 579.984 289.628 577.736 289.628 574.856C289.628 571.96 289.036 569.704 287.852 568.088C286.668 566.472 284.876 565.664 282.476 565.664C281.26 565.664 280.196 565.872 279.284 566.288C278.388 566.704 277.636 567.304 277.028 568.088C276.436 568.872 275.988 569.84 275.684 570.992C275.396 572.128 275.252 573.416 275.252 574.856C275.252 577.736 275.844 579.984 277.028 581.6C278.228 583.2 280.044 584 282.476 584ZM316.382 567.008C316.254 567.184 316.126 567.32 315.998 567.416C315.87 567.512 315.694 567.56 315.47 567.56C315.23 567.56 314.966 567.464 314.678 567.272C314.39 567.064 314.03 566.84 313.598 566.6C313.182 566.36 312.662 566.144 312.038 565.952C311.43 565.744 310.678 565.64 309.782 565.64C308.582 565.64 307.526 565.856 306.614 566.288C305.702 566.704 304.934 567.312 304.31 568.112C303.702 568.912 303.238 569.88 302.918 571.016C302.614 572.152 302.462 573.424 302.462 574.832C302.462 576.304 302.63 577.616 302.966 578.768C303.302 579.904 303.774 580.864 304.382 581.648C305.006 582.416 305.75 583.008 306.614 583.424C307.494 583.824 308.478 584.024 309.566 584.024C310.606 584.024 311.462 583.904 312.134 583.664C312.806 583.408 313.358 583.128 313.79 582.824C314.238 582.52 314.606 582.248 314.894 582.008C315.198 581.752 315.494 581.624 315.782 581.624C316.134 581.624 316.406 581.76 316.598 582.032L317.798 583.592C317.27 584.248 316.67 584.808 315.998 585.272C315.326 585.736 314.598 586.128 313.814 586.448C313.046 586.752 312.238 586.976 311.39 587.12C310.542 587.264 309.678 587.336 308.798 587.336C307.278 587.336 305.862 587.056 304.55 586.496C303.254 585.936 302.126 585.128 301.166 584.072C300.206 583 299.454 581.688 298.91 580.136C298.366 578.584 298.094 576.816 298.094 574.832C298.094 573.024 298.342 571.352 298.838 569.816C299.35 568.28 300.086 566.96 301.046 565.856C302.022 564.736 303.214 563.864 304.622 563.24C306.046 562.616 307.678 562.304 309.518 562.304C311.23 562.304 312.734 562.584 314.03 563.144C315.342 563.688 316.502 564.464 317.51 565.472L316.382 567.008ZM342.592 565.952H333.256V587H328.984V565.952H319.648V562.688H342.592V565.952ZM355.929 562.304C357.705 562.304 359.305 562.6 360.729 563.192C362.153 563.784 363.369 564.624 364.377 565.712C365.385 566.8 366.153 568.12 366.681 569.672C367.225 571.208 367.497 572.928 367.497 574.832C367.497 576.752 367.225 578.48 366.681 580.016C366.153 581.552 365.385 582.864 364.377 583.952C363.369 585.04 362.153 585.88 360.729 586.472C359.305 587.048 357.705 587.336 355.929 587.336C354.137 587.336 352.521 587.048 351.081 586.472C349.657 585.88 348.441 585.04 347.433 583.952C346.425 582.864 345.649 581.552 345.105 580.016C344.577 578.48 344.313 576.752 344.313 574.832C344.313 572.928 344.577 571.208 345.105 569.672C345.649 568.12 346.425 566.8 347.433 565.712C348.441 564.624 349.657 563.784 351.081 563.192C352.521 562.6 354.137 562.304 355.929 562.304ZM355.929 584C358.329 584 360.121 583.2 361.305 581.6C362.489 579.984 363.081 577.736 363.081 574.856C363.081 571.96 362.489 569.704 361.305 568.088C360.121 566.472 358.329 565.664 355.929 565.664C354.713 565.664 353.649 565.872 352.737 566.288C351.841 566.704 351.089 567.304 350.481 568.088C349.889 568.872 349.441 569.84 349.137 570.992C348.849 572.128 348.705 573.416 348.705 574.856C348.705 577.736 349.297 579.984 350.481 581.6C351.681 583.2 353.497 584 355.929 584ZM393.171 587H388.875V565.952H377.211V587H372.915V562.688H393.171V587ZM410.21 562.304C411.986 562.304 413.586 562.6 415.01 563.192C416.434 563.784 417.65 564.624 418.658 565.712C419.666 566.8 420.434 568.12 420.962 569.672C421.506 571.208 421.778 572.928 421.778 574.832C421.778 576.752 421.506 578.48 420.962 580.016C420.434 581.552 419.666 582.864 418.658 583.952C417.65 585.04 416.434 585.88 415.01 586.472C413.586 587.048 411.986 587.336 410.21 587.336C408.418 587.336 406.802 587.048 405.362 586.472C403.938 585.88 402.722 585.04 401.714 583.952C400.706 582.864 399.93 581.552 399.386 580.016C398.858 578.48 398.594 576.752 398.594 574.832C398.594 572.928 398.858 571.208 399.386 569.672C399.93 568.12 400.706 566.8 401.714 565.712C402.722 564.624 403.938 563.784 405.362 563.192C406.802 562.6 408.418 562.304 410.21 562.304ZM410.21 584C412.61 584 414.402 583.2 415.586 581.6C416.77 579.984 417.362 577.736 417.362 574.856C417.362 571.96 416.77 569.704 415.586 568.088C414.402 566.472 412.61 565.664 410.21 565.664C408.994 565.664 407.93 565.872 407.018 566.288C406.122 566.704 405.37 567.304 404.762 568.088C404.17 568.872 403.722 569.84 403.418 570.992C403.13 572.128 402.986 573.416 402.986 574.856C402.986 577.736 403.578 579.984 404.762 581.6C405.962 583.2 407.778 584 410.21 584ZM454.293 562.616V587H450.429V570.848C450.429 570.4 450.453 569.904 450.501 569.36C450.565 568.8 450.645 568.28 450.741 567.8L442.293 582.608C442.165 582.848 441.997 583.04 441.789 583.184C441.581 583.328 441.341 583.4 441.069 583.4H440.589C440.317 583.4 440.069 583.328 439.845 583.184C439.637 583.04 439.469 582.848 439.341 582.608L430.749 567.752C430.829 568.232 430.901 568.76 430.965 569.336C431.029 569.896 431.061 570.4 431.061 570.848V587H427.197V562.616H430.629C430.933 562.616 431.229 562.688 431.517 562.832C431.805 562.96 432.053 563.208 432.261 563.576L439.845 576.248C440.213 576.984 440.541 577.76 440.829 578.576C441.101 577.728 441.421 576.952 441.789 576.248L449.229 563.576C449.437 563.192 449.685 562.936 449.973 562.808C450.261 562.68 450.557 562.616 450.861 562.616H454.293ZM493.578 587H489.282V565.952H477.618V587H473.322V562.688H493.578V587ZM510.616 562.304C512.392 562.304 513.992 562.6 515.416 563.192C516.84 563.784 518.056 564.624 519.064 565.712C520.072 566.8 520.84 568.12 521.368 569.672C521.912 571.208 522.184 572.928 522.184 574.832C522.184 576.752 521.912 578.48 521.368 580.016C520.84 581.552 520.072 582.864 519.064 583.952C518.056 585.04 516.84 585.88 515.416 586.472C513.992 587.048 512.392 587.336 510.616 587.336C508.824 587.336 507.208 587.048 505.768 586.472C504.344 585.88 503.128 585.04 502.12 583.952C501.112 582.864 500.336 581.552 499.792 580.016C499.264 578.48 499 576.752 499 574.832C499 572.928 499.264 571.208 499.792 569.672C500.336 568.12 501.112 566.8 502.12 565.712C503.128 564.624 504.344 563.784 505.768 563.192C507.208 562.6 508.824 562.304 510.616 562.304ZM510.616 584C513.016 584 514.808 583.2 515.992 581.6C517.176 579.984 517.768 577.736 517.768 574.856C517.768 571.96 517.176 569.704 515.992 568.088C514.808 566.472 513.016 565.664 510.616 565.664C509.4 565.664 508.336 565.872 507.424 566.288C506.528 566.704 505.776 567.304 505.168 568.088C504.576 568.872 504.128 569.84 503.824 570.992C503.536 572.128 503.392 573.416 503.392 574.856C503.392 577.736 503.984 579.984 505.168 581.6C506.368 583.2 508.184 584 510.616 584ZM554.644 563.888C554.868 563.536 555.164 563.248 555.532 563.024C555.9 562.8 556.292 562.688 556.708 562.688H560.044L553.732 571.952C553.348 572.544 552.948 573.032 552.532 573.416C552.116 573.784 551.604 574.072 550.996 574.28C551.764 574.488 552.412 574.816 552.94 575.264C553.468 575.696 553.94 576.256 554.356 576.944L560.74 587H557.764C556.996 587 556.404 586.872 555.988 586.616C555.572 586.36 555.212 585.992 554.908 585.512L550.18 577.952C549.428 576.704 548.3 576.08 546.796 576.08H544.18V587.024H539.884V562.688H544.18V573.2H546.484C547.764 573.2 548.764 572.656 549.484 571.568L554.644 563.888ZM574.038 562.304C575.814 562.304 577.414 562.6 578.838 563.192C580.262 563.784 581.478 564.624 582.486 565.712C583.494 566.8 584.262 568.12 584.79 569.672C585.334 571.208 585.606 572.928 585.606 574.832C585.606 576.752 585.334 578.48 584.79 580.016C584.262 581.552 583.494 582.864 582.486 583.952C581.478 585.04 580.262 585.88 578.838 586.472C577.414 587.048 575.814 587.336 574.038 587.336C572.246 587.336 570.63 587.048 569.19 586.472C567.766 585.88 566.55 585.04 565.542 583.952C564.534 582.864 563.758 581.552 563.214 580.016C562.686 578.48 562.422 576.752 562.422 574.832C562.422 572.928 562.686 571.208 563.214 569.672C563.758 568.12 564.534 566.8 565.542 565.712C566.55 564.624 567.766 563.784 569.19 563.192C570.63 562.6 572.246 562.304 574.038 562.304ZM574.038 584C576.438 584 578.23 583.2 579.414 581.6C580.598 579.984 581.19 577.736 581.19 574.856C581.19 571.96 580.598 569.704 579.414 568.088C578.23 566.472 576.438 565.664 574.038 565.664C572.822 565.664 571.758 565.872 570.846 566.288C569.95 566.704 569.198 567.304 568.59 568.088C567.998 568.872 567.55 569.84 567.246 570.992C566.958 572.128 566.814 573.416 566.814 574.856C566.814 577.736 567.406 579.984 568.59 581.6C569.79 583.2 571.606 584 574.038 584ZM611.281 562.688V587H606.985V575.624H595.321V587H591.025V562.688H595.321V572.384H606.985V562.688H611.281ZM642.768 583.76V594.056C642.768 594.472 642.648 594.792 642.408 595.016C642.184 595.256 641.888 595.376 641.52 595.376H638.904V587H618.072V562.688H622.368V583.76H634.032V562.688H638.328V583.76H642.768ZM662.937 572.192C662.937 571.2 662.793 570.296 662.505 569.48C662.233 568.648 661.825 567.936 661.281 567.344C660.753 566.736 660.105 566.272 659.337 565.952C658.569 565.616 657.697 565.448 656.721 565.448C654.673 565.448 653.049 566.048 651.849 567.248C650.665 568.432 649.929 570.08 649.641 572.192H662.937ZM666.393 583.592C665.865 584.232 665.233 584.792 664.497 585.272C663.761 585.736 662.969 586.12 662.121 586.424C661.289 586.728 660.425 586.952 659.529 587.096C658.633 587.256 657.745 587.336 656.865 587.336C655.185 587.336 653.633 587.056 652.209 586.496C650.801 585.92 649.577 585.088 648.537 584C647.513 582.896 646.713 581.536 646.137 579.92C645.561 578.304 645.273 576.448 645.273 574.352C645.273 572.656 645.529 571.072 646.041 569.6C646.569 568.128 647.321 566.856 648.297 565.784C649.273 564.696 650.465 563.848 651.873 563.24C653.281 562.616 654.865 562.304 656.625 562.304C658.081 562.304 659.425 562.552 660.657 563.048C661.905 563.528 662.977 564.232 663.873 565.16C664.785 566.072 665.497 567.208 666.009 568.568C666.521 569.912 666.777 571.448 666.777 573.176C666.777 573.848 666.705 574.296 666.561 574.52C666.417 574.744 666.145 574.856 665.745 574.856H649.497C649.545 576.392 649.753 577.728 650.121 578.864C650.505 580 651.033 580.952 651.705 581.72C652.377 582.472 653.177 583.04 654.105 583.424C655.033 583.792 656.073 583.976 657.225 583.976C658.297 583.976 659.217 583.856 659.985 583.616C660.769 583.36 661.441 583.088 662.001 582.8C662.561 582.512 663.025 582.248 663.393 582.008C663.777 581.752 664.105 581.624 664.377 581.624C664.729 581.624 665.001 581.76 665.193 582.032L666.393 583.592ZM692.281 587H687.985V565.952H676.321V587H672.025V562.688H692.281V587ZM723.768 583.76V594.056C723.768 594.472 723.648 594.792 723.408 595.016C723.184 595.256 722.888 595.376 722.52 595.376H719.904V587H699.072V562.688H703.368V583.76H715.032V562.688H719.328V583.76H723.768ZM748.943 562.688V587H744.671V570.488C744.671 570.168 744.687 569.824 744.719 569.456C744.751 569.088 744.791 568.72 744.839 568.352C744.695 568.672 744.551 568.968 744.407 569.24C744.263 569.512 744.111 569.76 743.951 569.984L732.215 585.944C732.039 586.2 731.815 586.448 731.543 586.688C731.287 586.912 730.999 587.024 730.679 587.024H728.087V562.712H732.383V579.224C732.383 579.528 732.367 579.864 732.335 580.232C732.303 580.584 732.263 580.944 732.215 581.312C732.359 581.008 732.503 580.728 732.647 580.472C732.791 580.2 732.935 579.952 733.079 579.728L744.815 563.768C744.991 563.512 745.215 563.272 745.487 563.048C745.759 562.808 746.055 562.688 746.375 562.688H748.943ZM768.489 574.04V565.568H764.409C763.497 565.568 762.729 565.704 762.105 565.976C761.481 566.232 760.977 566.568 760.593 566.984C760.225 567.384 759.961 567.84 759.801 568.352C759.641 568.848 759.561 569.344 759.561 569.84C759.561 571.152 760.041 572.184 761.001 572.936C761.961 573.672 763.273 574.04 764.937 574.04H768.489ZM772.569 562.688V587H768.489V576.752H766.617C766.169 576.752 765.793 576.792 765.489 576.872C765.201 576.936 764.945 577.032 764.721 577.16C764.513 577.288 764.329 577.456 764.169 577.664C764.009 577.856 763.841 578.08 763.665 578.336L758.337 585.512C758.065 586.024 757.729 586.4 757.329 586.64C756.945 586.88 756.377 587 755.625 587H752.649L759.705 577.832C760.281 576.872 761.041 576.232 761.985 575.912C760.753 575.752 759.713 575.464 758.865 575.048C758.017 574.632 757.321 574.144 756.777 573.584C756.249 573.008 755.865 572.376 755.625 571.688C755.385 571 755.265 570.304 755.265 569.6C755.265 568.768 755.425 567.936 755.745 567.104C756.081 566.272 756.609 565.536 757.329 564.896C758.049 564.24 758.977 563.712 760.113 563.312C761.265 562.896 762.657 562.688 764.289 562.688H772.569ZM806.464 562.616V587H802.6V570.848C802.6 570.4 802.624 569.904 802.672 569.36C802.736 568.8 802.816 568.28 802.912 567.8L794.464 582.608C794.336 582.848 794.168 583.04 793.96 583.184C793.752 583.328 793.512 583.4 793.24 583.4H792.76C792.488 583.4 792.24 583.328 792.016 583.184C791.808 583.04 791.64 582.848 791.512 582.608L782.92 567.752C783 568.232 783.072 568.76 783.136 569.336C783.2 569.896 783.232 570.4 783.232 570.848V587H779.368V562.616H782.8C783.104 562.616 783.4 562.688 783.688 562.832C783.976 562.96 784.224 563.208 784.432 563.576L792.016 576.248C792.384 576.984 792.712 577.76 793 578.576C793.272 577.728 793.592 576.952 793.96 576.248L801.4 563.576C801.608 563.192 801.856 562.936 802.144 562.808C802.432 562.68 802.728 562.616 803.032 562.616H806.464ZM845.749 587H841.453V565.952H829.789V587H825.493V562.688H845.749V587ZM856.836 581.144C857.62 582.2 858.476 582.944 859.404 583.376C860.332 583.808 861.372 584.024 862.524 584.024C864.796 584.024 866.54 583.216 867.756 581.6C868.972 579.984 869.58 577.68 869.58 574.688C869.58 573.104 869.436 571.744 869.148 570.608C868.876 569.472 868.476 568.544 867.948 567.824C867.42 567.088 866.772 566.552 866.004 566.216C865.236 565.88 864.364 565.712 863.388 565.712C861.996 565.712 860.772 566.032 859.716 566.672C858.676 567.312 857.716 568.216 856.836 569.384V581.144ZM856.62 566.456C857.644 565.192 858.828 564.176 860.172 563.408C861.516 562.64 863.052 562.256 864.78 562.256C866.188 562.256 867.46 562.528 868.596 563.072C869.732 563.6 870.7 564.392 871.5 565.448C872.3 566.488 872.916 567.784 873.348 569.336C873.78 570.888 873.996 572.672 873.996 574.688C873.996 576.48 873.756 578.152 873.276 579.704C872.796 581.24 872.1 582.576 871.188 583.712C870.292 584.832 869.188 585.72 867.876 586.376C866.58 587.016 865.116 587.336 863.484 587.336C861.996 587.336 860.716 587.088 859.644 586.592C858.588 586.08 857.652 585.376 856.836 584.48V595.232H852.54V562.688H855.108C855.716 562.688 856.092 562.984 856.236 563.576L856.62 566.456ZM889.648 562.304C891.424 562.304 893.024 562.6 894.448 563.192C895.872 563.784 897.088 564.624 898.096 565.712C899.104 566.8 899.872 568.12 900.4 569.672C900.944 571.208 901.216 572.928 901.216 574.832C901.216 576.752 900.944 578.48 900.4 580.016C899.872 581.552 899.104 582.864 898.096 583.952C897.088 585.04 895.872 585.88 894.448 586.472C893.024 587.048 891.424 587.336 889.648 587.336C887.856 587.336 886.24 587.048 884.8 586.472C883.376 585.88 882.16 585.04 881.152 583.952C880.144 582.864 879.368 581.552 878.824 580.016C878.296 578.48 878.032 576.752 878.032 574.832C878.032 572.928 878.296 571.208 878.824 569.672C879.368 568.12 880.144 566.8 881.152 565.712C882.16 564.624 883.376 563.784 884.8 563.192C886.24 562.6 887.856 562.304 889.648 562.304ZM889.648 584C892.048 584 893.84 583.2 895.024 581.6C896.208 579.984 896.8 577.736 896.8 574.856C896.8 571.96 896.208 569.704 895.024 568.088C893.84 566.472 892.048 565.664 889.648 565.664C888.432 565.664 887.368 565.872 886.456 566.288C885.56 566.704 884.808 567.304 884.2 568.088C883.608 568.872 883.16 569.84 882.856 570.992C882.568 572.128 882.424 573.416 882.424 574.856C882.424 577.736 883.016 579.984 884.2 581.6C885.4 583.2 887.216 584 889.648 584ZM922.402 565.952H910.93V587H906.634V562.688H922.402V565.952ZM930.758 581.144C931.542 582.2 932.398 582.944 933.326 583.376C934.254 583.808 935.294 584.024 936.446 584.024C938.718 584.024 940.462 583.216 941.678 581.6C942.894 579.984 943.502 577.68 943.502 574.688C943.502 573.104 943.358 571.744 943.07 570.608C942.798 569.472 942.398 568.544 941.87 567.824C941.342 567.088 940.694 566.552 939.926 566.216C939.158 565.88 938.286 565.712 937.31 565.712C935.918 565.712 934.694 566.032 933.638 566.672C932.598 567.312 931.638 568.216 930.758 569.384V581.144ZM930.542 566.456C931.566 565.192 932.75 564.176 934.094 563.408C935.438 562.64 936.974 562.256 938.702 562.256C940.11 562.256 941.382 562.528 942.518 563.072C943.654 563.6 944.622 564.392 945.422 565.448C946.222 566.488 946.838 567.784 947.27 569.336C947.702 570.888 947.918 572.672 947.918 574.688C947.918 576.48 947.678 578.152 947.198 579.704C946.718 581.24 946.022 582.576 945.11 583.712C944.214 584.832 943.11 585.72 941.798 586.376C940.502 587.016 939.038 587.336 937.406 587.336C935.918 587.336 934.638 587.088 933.566 586.592C932.51 586.08 931.574 585.376 930.758 584.48V595.232H926.462V562.688H929.03C929.638 562.688 930.014 562.984 930.158 563.576L930.542 566.456ZM966.498 576.056C964.53 576.12 962.85 576.28 961.458 576.536C960.082 576.776 958.954 577.096 958.074 577.496C957.21 577.896 956.578 578.368 956.178 578.912C955.794 579.456 955.602 580.064 955.602 580.736C955.602 581.376 955.706 581.928 955.914 582.392C956.122 582.856 956.402 583.24 956.754 583.544C957.122 583.832 957.546 584.048 958.026 584.192C958.522 584.32 959.05 584.384 959.61 584.384C960.362 584.384 961.05 584.312 961.674 584.168C962.298 584.008 962.882 583.784 963.426 583.496C963.986 583.208 964.514 582.864 965.01 582.464C965.522 582.064 966.018 581.608 966.498 581.096V576.056ZM952.698 566.12C954.042 564.824 955.49 563.856 957.042 563.216C958.594 562.576 960.314 562.256 962.202 562.256C963.562 562.256 964.77 562.48 965.826 562.928C966.882 563.376 967.77 564 968.49 564.8C969.21 565.6 969.754 566.568 970.122 567.704C970.49 568.84 970.674 570.088 970.674 571.448V587H968.778C968.362 587 968.042 586.936 967.818 586.808C967.594 586.664 967.418 586.392 967.29 585.992L966.81 583.688C966.17 584.28 965.546 584.808 964.938 585.272C964.33 585.72 963.69 586.104 963.018 586.424C962.346 586.728 961.626 586.96 960.858 587.12C960.106 587.296 959.266 587.384 958.338 587.384C957.394 587.384 956.506 587.256 955.674 587C954.842 586.728 954.114 586.328 953.49 585.8C952.882 585.272 952.394 584.608 952.026 583.808C951.674 582.992 951.498 582.032 951.498 580.928C951.498 579.968 951.762 579.048 952.29 578.168C952.818 577.272 953.674 576.48 954.858 575.792C956.042 575.104 957.586 574.544 959.49 574.112C961.394 573.664 963.73 573.408 966.498 573.344V571.448C966.498 569.56 966.09 568.136 965.274 567.176C964.458 566.2 963.266 565.712 961.698 565.712C960.642 565.712 959.754 565.848 959.034 566.12C958.33 566.376 957.714 566.672 957.186 567.008C956.674 567.328 956.226 567.624 955.842 567.896C955.474 568.152 955.106 568.28 954.738 568.28C954.45 568.28 954.202 568.208 953.994 568.064C953.786 567.904 953.61 567.712 953.465 567.488L952.698 566.12ZM1004.28 562.616V587H1000.41V570.848C1000.41 570.4 1000.44 569.904 1000.48 569.36C1000.55 568.8 1000.63 568.28 1000.72 567.8L992.277 582.608C992.149 582.848 991.981 583.04 991.773 583.184C991.565 583.328 991.325 583.4 991.053 583.4H990.573C990.301 583.4 990.053 583.328 989.829 583.184C989.621 583.04 989.453 582.848 989.325 582.608L980.733 567.752C980.813 568.232 980.885 568.76 980.949 569.336C981.013 569.896 981.045 570.4 981.045 570.848V587H977.181V562.616H980.613C980.917 562.616 981.213 562.688 981.501 562.832C981.789 562.96 982.037 563.208 982.245 563.576L989.829 576.248C990.197 576.984 990.525 577.76 990.813 578.576C991.085 577.728 991.405 576.952 991.773 576.248L999.213 563.576C999.421 563.192 999.669 562.936 999.957 562.808C1000.24 562.68 1000.54 562.616 1000.84 562.616H1004.28ZM1038.12 562.616V587H1034.26V570.848C1034.26 570.4 1034.28 569.904 1034.33 569.36C1034.39 568.8 1034.47 568.28 1034.57 567.8L1026.12 582.608C1025.99 582.848 1025.82 583.04 1025.62 583.184C1025.41 583.328 1025.17 583.4 1024.9 583.4H1024.42C1024.14 583.4 1023.9 583.328 1023.67 583.184C1023.46 583.04 1023.3 582.848 1023.17 582.608L1014.58 567.752C1014.66 568.232 1014.73 568.76 1014.79 569.336C1014.86 569.896 1014.89 570.4 1014.89 570.848V587H1011.02V562.616H1014.46C1014.76 562.616 1015.06 562.688 1015.34 562.832C1015.63 562.96 1015.88 563.208 1016.09 563.576L1023.67 576.248C1024.04 576.984 1024.37 577.76 1024.66 578.576C1024.93 577.728 1025.25 576.952 1025.62 576.248L1033.06 563.576C1033.26 563.192 1033.51 562.936 1033.8 562.808C1034.09 562.68 1034.38 562.616 1034.69 562.616H1038.12ZM1065.72 562.688V587H1061.45V570.488C1061.45 570.168 1061.47 569.824 1061.5 569.456C1061.53 569.088 1061.57 568.72 1061.62 568.352C1061.48 568.672 1061.33 568.968 1061.19 569.24C1061.04 569.512 1060.89 569.76 1060.73 569.984L1049 585.944C1048.82 586.2 1048.6 586.448 1048.32 586.688C1048.07 586.912 1047.78 587.024 1047.46 587.024H1044.87V562.712H1049.16V579.224C1049.16 579.528 1049.15 579.864 1049.12 580.232C1049.08 580.584 1049.04 580.944 1049 581.312C1049.14 581.008 1049.28 580.728 1049.43 580.472C1049.57 580.2 1049.72 579.952 1049.86 579.728L1061.6 563.768C1061.77 563.512 1062 563.272 1062.27 563.048C1062.54 562.808 1062.84 562.688 1063.16 562.688H1065.72ZM1076.77 581.144C1077.56 582.2 1078.41 582.944 1079.34 583.376C1080.27 583.808 1081.31 584.024 1082.46 584.024C1084.73 584.024 1086.48 583.216 1087.69 581.6C1088.91 579.984 1089.52 577.68 1089.52 574.688C1089.52 573.104 1089.37 571.744 1089.09 570.608C1088.81 569.472 1088.41 568.544 1087.89 567.824C1087.36 567.088 1086.71 566.552 1085.94 566.216C1085.17 565.88 1084.3 565.712 1083.33 565.712C1081.93 565.712 1080.71 566.032 1079.65 566.672C1078.61 567.312 1077.65 568.216 1076.77 569.384V581.144ZM1076.56 566.456C1077.58 565.192 1078.77 564.176 1080.11 563.408C1081.45 562.64 1082.99 562.256 1084.72 562.256C1086.13 562.256 1087.4 562.528 1088.53 563.072C1089.67 563.6 1090.64 564.392 1091.44 565.448C1092.24 566.488 1092.85 567.784 1093.29 569.336C1093.72 570.888 1093.93 572.672 1093.93 574.688C1093.93 576.48 1093.69 578.152 1093.21 579.704C1092.73 581.24 1092.04 582.576 1091.13 583.712C1090.23 584.832 1089.13 585.72 1087.81 586.376C1086.52 587.016 1085.05 587.336 1083.42 587.336C1081.93 587.336 1080.65 587.088 1079.58 586.592C1078.53 586.08 1077.59 585.376 1076.77 584.48V595.232H1072.48V562.688H1075.05C1075.65 562.688 1076.03 562.984 1076.17 563.576L1076.56 566.456ZM1109.59 562.304C1111.36 562.304 1112.96 562.6 1114.39 563.192C1115.81 563.784 1117.03 564.624 1118.03 565.712C1119.04 566.8 1119.81 568.12 1120.34 569.672C1120.88 571.208 1121.15 572.928 1121.15 574.832C1121.15 576.752 1120.88 578.48 1120.34 580.016C1119.81 581.552 1119.04 582.864 1118.03 583.952C1117.03 585.04 1115.81 585.88 1114.39 586.472C1112.96 587.048 1111.36 587.336 1109.59 587.336C1107.79 587.336 1106.18 587.048 1104.74 586.472C1103.31 585.88 1102.1 585.04 1101.09 583.952C1100.08 582.864 1099.31 581.552 1098.76 580.016C1098.23 578.48 1097.97 576.752 1097.97 574.832C1097.97 572.928 1098.23 571.208 1098.76 569.672C1099.31 568.12 1100.08 566.8 1101.09 565.712C1102.1 564.624 1103.31 563.784 1104.74 563.192C1106.18 562.6 1107.79 562.304 1109.59 562.304ZM1109.59 584C1111.99 584 1113.78 583.2 1114.96 581.6C1116.15 579.984 1116.74 577.736 1116.74 574.856C1116.74 571.96 1116.15 569.704 1114.96 568.088C1113.78 566.472 1111.99 565.664 1109.59 565.664C1108.37 565.664 1107.31 565.872 1106.39 566.288C1105.5 566.704 1104.75 567.304 1104.14 568.088C1103.55 568.872 1103.1 569.84 1102.79 570.992C1102.51 572.128 1102.36 573.416 1102.36 574.856C1102.36 577.736 1102.95 579.984 1104.14 581.6C1105.34 583.2 1107.15 584 1109.59 584ZM1135.91 584C1137.51 584 1138.77 583.632 1139.7 582.896C1140.63 582.144 1141.09 581.12 1141.09 579.824C1141.09 579.248 1141 578.728 1140.83 578.264C1140.65 577.784 1140.36 577.368 1139.96 577.016C1139.56 576.664 1139.03 576.392 1138.36 576.2C1137.7 576.008 1136.89 575.912 1135.93 575.912H1130.68V584H1135.91ZM1130.68 565.568V573.2H1135.36C1136.06 573.2 1136.71 573.104 1137.3 572.912C1137.91 572.704 1138.43 572.424 1138.86 572.072C1139.29 571.704 1139.63 571.272 1139.87 570.776C1140.11 570.264 1140.23 569.704 1140.23 569.096C1140.23 568.648 1140.15 568.216 1139.99 567.8C1139.83 567.368 1139.56 566.992 1139.17 566.672C1138.79 566.336 1138.28 566.072 1137.66 565.88C1137.04 565.672 1136.27 565.568 1135.36 565.568H1130.68ZM1135.48 562.688C1136.98 562.688 1138.27 562.84 1139.34 563.144C1140.41 563.448 1141.29 563.864 1141.98 564.392C1142.67 564.904 1143.17 565.512 1143.49 566.216C1143.81 566.92 1143.97 567.672 1143.97 568.472C1143.97 569 1143.9 569.552 1143.76 570.128C1143.61 570.704 1143.36 571.256 1142.99 571.784C1142.64 572.312 1142.15 572.792 1141.52 573.224C1140.92 573.64 1140.15 573.968 1139.22 574.208C1141.08 574.528 1142.51 575.176 1143.52 576.152C1144.52 577.112 1145.03 578.384 1145.03 579.968C1145.03 581.152 1144.79 582.184 1144.31 583.064C1143.84 583.928 1143.2 584.656 1142.36 585.248C1141.55 585.84 1140.59 586.28 1139.48 586.568C1138.38 586.856 1137.2 587 1135.93 587H1126.57V562.688H1135.48ZM1163.56 576.056C1161.59 576.12 1159.91 576.28 1158.52 576.536C1157.14 576.776 1156.02 577.096 1155.14 577.496C1154.27 577.896 1153.64 578.368 1153.24 578.912C1152.86 579.456 1152.66 580.064 1152.66 580.736C1152.66 581.376 1152.77 581.928 1152.98 582.392C1153.18 582.856 1153.46 583.24 1153.82 583.544C1154.18 583.832 1154.61 584.048 1155.09 584.192C1155.58 584.32 1156.11 584.384 1156.67 584.384C1157.42 584.384 1158.11 584.312 1158.74 584.168C1159.36 584.008 1159.94 583.784 1160.49 583.496C1161.05 583.208 1161.58 582.864 1162.07 582.464C1162.58 582.064 1163.08 581.608 1163.56 581.096V576.056ZM1149.76 566.12C1151.1 564.824 1152.55 563.856 1154.1 563.216C1155.66 562.576 1157.38 562.256 1159.26 562.256C1160.62 562.256 1161.83 562.48 1162.89 562.928C1163.94 563.376 1164.83 564 1165.55 564.8C1166.27 565.6 1166.82 566.568 1167.18 567.704C1167.55 568.84 1167.74 570.088 1167.74 571.448V587H1165.84C1165.42 587 1165.1 586.936 1164.88 586.808C1164.66 586.664 1164.48 586.392 1164.35 585.992L1163.87 583.688C1163.23 584.28 1162.61 584.808 1162 585.272C1161.39 585.72 1160.75 586.104 1160.08 586.424C1159.41 586.728 1158.69 586.96 1157.92 587.12C1157.17 587.296 1156.33 587.384 1155.4 587.384C1154.46 587.384 1153.57 587.256 1152.74 587C1151.9 586.728 1151.18 586.328 1150.55 585.8C1149.94 585.272 1149.46 584.608 1149.09 583.808C1148.74 582.992 1148.56 582.032 1148.56 580.928C1148.56 579.968 1148.82 579.048 1149.35 578.168C1149.88 577.272 1150.74 576.48 1151.92 575.792C1153.1 575.104 1154.65 574.544 1156.55 574.112C1158.46 573.664 1160.79 573.408 1163.56 573.344V571.448C1163.56 569.56 1163.15 568.136 1162.34 567.176C1161.52 566.2 1160.33 565.712 1158.76 565.712C1157.7 565.712 1156.82 565.848 1156.1 566.12C1155.39 566.376 1154.78 566.672 1154.25 567.008C1153.74 567.328 1153.29 567.624 1152.9 567.896C1152.54 568.152 1152.17 568.28 1151.8 568.28C1151.51 568.28 1151.26 568.208 1151.06 568.064C1150.85 567.904 1150.67 567.712 1150.53 567.488L1149.76 566.12ZM1194.5 562.688V587H1190.2V575.624H1178.54V587H1174.24V562.688H1178.54V572.384H1190.2V562.688H1194.5ZM1222.15 562.688V587H1217.87V570.488C1217.87 570.168 1217.89 569.824 1217.92 569.456C1217.95 569.088 1217.99 568.72 1218.04 568.352C1217.9 568.672 1217.75 568.968 1217.61 569.24C1217.47 569.512 1217.31 569.76 1217.15 569.984L1205.42 585.944C1205.24 586.2 1205.02 586.448 1204.75 586.688C1204.49 586.912 1204.2 587.024 1203.88 587.024H1201.29V562.712H1205.59V579.224C1205.59 579.528 1205.57 579.864 1205.54 580.232C1205.51 580.584 1205.47 580.944 1205.42 581.312C1205.56 581.008 1205.71 580.728 1205.85 580.472C1205.99 580.2 1206.14 579.952 1206.28 579.728L1218.02 563.768C1218.19 563.512 1218.42 563.272 1218.69 563.048C1218.96 562.808 1219.26 562.688 1219.58 562.688H1222.15ZM1241.69 574.04V565.568H1237.61C1236.7 565.568 1235.93 565.704 1235.31 565.976C1234.68 566.232 1234.18 566.568 1233.8 566.984C1233.43 567.384 1233.16 567.84 1233 568.352C1232.84 568.848 1232.76 569.344 1232.76 569.84C1232.76 571.152 1233.24 572.184 1234.2 572.936C1235.16 573.672 1236.48 574.04 1238.14 574.04H1241.69ZM1245.77 562.688V587H1241.69V576.752H1239.82C1239.37 576.752 1239 576.792 1238.69 576.872C1238.4 576.936 1238.15 577.032 1237.92 577.16C1237.72 577.288 1237.53 577.456 1237.37 577.664C1237.21 577.856 1237.04 578.08 1236.87 578.336L1231.54 585.512C1231.27 586.024 1230.93 586.4 1230.53 586.64C1230.15 586.88 1229.58 587 1228.83 587H1225.85L1232.91 577.832C1233.48 576.872 1234.24 576.232 1235.19 575.912C1233.96 575.752 1232.92 575.464 1232.07 575.048C1231.22 574.632 1230.52 574.144 1229.98 573.584C1229.45 573.008 1229.07 572.376 1228.83 571.688C1228.59 571 1228.47 570.304 1228.47 569.6C1228.47 568.768 1228.63 567.936 1228.95 567.104C1229.28 566.272 1229.81 565.536 1230.53 564.896C1231.25 564.24 1232.18 563.712 1233.32 563.312C1234.47 562.896 1235.86 562.688 1237.49 562.688H1245.77Z" fill="#E7DB74"/>
<path d="M996.664 912.318L993.76 899.272C993.687 898.876 993.599 898.421 993.496 897.908C993.408 897.395 993.32 896.837 993.232 896.236C993.012 896.837 992.792 897.395 992.572 897.908C992.367 898.421 992.176 898.883 992 899.294L985.884 912.318H996.664ZM1003.51 924H1000.32C999.949 924 999.663 923.912 999.458 923.736C999.253 923.545 999.113 923.303 999.04 923.01L997.324 915.31H984.476L980.868 923.01C980.751 923.274 980.553 923.509 980.274 923.714C979.995 923.905 979.687 924 979.35 924H976.16L991.604 892.474H995.784L1003.51 924ZM1011.28 912.098C1011.75 910.235 1012.3 908.651 1012.93 907.346C1013.56 906.026 1014.34 904.955 1015.26 904.134C1016.2 903.298 1017.33 902.689 1018.63 902.308C1019.94 901.927 1021.49 901.736 1023.29 901.736H1027.39L1024.66 924H1020.9L1023.25 904.706H1022.52C1021.44 904.706 1020.5 904.838 1019.71 905.102C1018.93 905.351 1018.25 905.769 1017.66 906.356C1017.08 906.943 1016.57 907.727 1016.14 908.71C1015.72 909.678 1015.33 910.873 1014.98 912.296C1014.45 914.569 1013.89 916.476 1013.31 918.016C1012.73 919.541 1012.1 920.773 1011.41 921.712C1010.74 922.636 1010 923.296 1009.19 923.692C1008.39 924.088 1007.49 924.286 1006.51 924.286C1005.85 924.286 1005.39 924.227 1005.14 924.11C1004.9 924.007 1004.79 923.817 1004.81 923.538L1005.08 921.316H1005.8C1006.49 921.316 1007.08 921.155 1007.56 920.832C1008.06 920.509 1008.51 919.989 1008.91 919.27C1009.32 918.537 1009.71 917.583 1010.07 916.41C1010.44 915.237 1010.84 913.799 1011.28 912.098ZM1041.82 904.222C1040.9 904.222 1040.04 904.413 1039.27 904.794C1038.49 905.175 1037.8 905.703 1037.2 906.378C1036.6 907.038 1036.08 907.823 1035.66 908.732C1035.23 909.627 1034.9 910.595 1034.67 911.636C1036.93 911.357 1038.74 911.042 1040.1 910.69C1041.47 910.323 1042.52 909.935 1043.25 909.524C1043.98 909.099 1044.47 908.644 1044.7 908.16C1044.94 907.676 1045.05 907.17 1045.05 906.642C1045.05 906.378 1044.99 906.107 1044.88 905.828C1044.76 905.535 1044.57 905.271 1044.31 905.036C1044.06 904.801 1043.73 904.611 1043.32 904.464C1042.9 904.303 1042.41 904.222 1041.82 904.222ZM1048.02 919.886C1047.28 920.663 1046.54 921.331 1045.82 921.888C1045.1 922.431 1044.37 922.885 1043.62 923.252C1042.89 923.619 1042.11 923.883 1041.29 924.044C1040.48 924.22 1039.61 924.308 1038.67 924.308C1037.4 924.308 1036.25 924.095 1035.24 923.67C1034.23 923.245 1033.37 922.643 1032.67 921.866C1031.96 921.074 1031.42 920.121 1031.04 919.006C1030.66 917.891 1030.47 916.645 1030.47 915.266C1030.47 914.122 1030.58 912.985 1030.82 911.856C1031.07 910.712 1031.42 909.627 1031.88 908.6C1032.34 907.573 1032.91 906.62 1033.57 905.74C1034.24 904.86 1035.01 904.105 1035.86 903.474C1036.72 902.829 1037.67 902.323 1038.7 901.956C1039.74 901.589 1040.85 901.406 1042.04 901.406C1043.17 901.406 1044.14 901.567 1044.97 901.89C1045.79 902.213 1046.46 902.623 1046.99 903.122C1047.52 903.621 1047.91 904.171 1048.16 904.772C1048.42 905.373 1048.55 905.945 1048.55 906.488C1048.55 907.456 1048.35 908.351 1047.96 909.172C1047.56 909.979 1046.84 910.712 1045.78 911.372C1044.72 912.017 1043.27 912.582 1041.42 913.066C1039.58 913.55 1037.2 913.939 1034.3 914.232C1034.3 914.393 1034.29 914.555 1034.27 914.716C1034.27 914.863 1034.27 915.017 1034.27 915.178C1034.27 917.143 1034.7 918.647 1035.55 919.688C1036.41 920.715 1037.71 921.228 1039.44 921.228C1040.15 921.228 1040.77 921.155 1041.31 921.008C1041.87 920.861 1042.36 920.685 1042.79 920.48C1043.23 920.26 1043.61 920.025 1043.93 919.776C1044.27 919.512 1044.57 919.277 1044.83 919.072C1045.11 918.852 1045.37 918.669 1045.6 918.522C1045.84 918.375 1046.07 918.302 1046.31 918.302C1046.59 918.302 1046.84 918.427 1047.06 918.676L1048.02 919.886ZM1064.54 905.344C1065 904.699 1065.4 904.149 1065.75 903.694C1066.11 903.225 1066.46 902.843 1066.83 902.55C1067.2 902.257 1067.6 902.044 1068.04 901.912C1068.48 901.765 1069.02 901.692 1069.65 901.692H1071.3L1070.9 903.716C1070.84 904.039 1070.72 904.251 1070.53 904.354C1070.35 904.442 1070.13 904.523 1069.87 904.596C1069.62 904.669 1069.34 904.779 1069.03 904.926C1068.74 905.073 1068.44 905.351 1068.13 905.762L1064.85 910.074C1064.63 910.367 1064.42 910.631 1064.21 910.866C1064.01 911.101 1063.8 911.306 1063.58 911.482C1063.36 911.643 1063.11 911.79 1062.85 911.922C1062.6 912.039 1062.31 912.135 1061.99 912.208C1062.83 912.369 1063.5 912.677 1064.02 913.132C1064.54 913.587 1064.98 914.232 1065.34 915.068L1069.43 924H1067.21C1066.53 924 1066.02 923.89 1065.67 923.67C1065.33 923.435 1065.06 923.105 1064.85 922.68L1061.6 915.684C1061.35 915.112 1060.99 914.643 1060.54 914.276C1060.08 913.895 1059.55 913.704 1058.93 913.704L1056.6 914.144L1055.41 924H1051.65L1054.36 901.714H1058.12L1056.91 911.57L1058.82 911.174C1059.12 911.115 1059.37 911.049 1059.59 910.976C1059.81 910.903 1060.01 910.815 1060.19 910.712C1060.38 910.595 1060.55 910.455 1060.72 910.294C1060.88 910.133 1061.04 909.942 1061.2 909.722L1064.54 905.344ZM1088.78 919.996C1088.02 920.832 1087.29 921.529 1086.6 922.086C1085.91 922.643 1085.22 923.091 1084.54 923.428C1083.85 923.751 1083.13 923.978 1082.38 924.11C1081.65 924.242 1080.85 924.308 1080 924.308C1078.71 924.308 1077.57 924.088 1076.57 923.648C1075.59 923.208 1074.76 922.592 1074.09 921.8C1073.43 920.993 1072.92 920.033 1072.57 918.918C1072.23 917.789 1072.06 916.549 1072.06 915.2C1072.06 913.396 1072.34 911.665 1072.9 910.008C1073.47 908.351 1074.26 906.884 1075.27 905.608C1076.29 904.332 1077.49 903.313 1078.88 902.55C1080.29 901.787 1081.82 901.406 1083.48 901.406C1084.96 901.406 1086.2 901.67 1087.2 902.198C1088.19 902.711 1089.07 903.467 1089.82 904.464L1088.58 905.938C1088.48 906.055 1088.36 906.151 1088.23 906.224C1088.11 906.297 1087.97 906.334 1087.81 906.334C1087.61 906.334 1087.4 906.246 1087.2 906.07C1087.01 905.879 1086.75 905.674 1086.43 905.454C1086.1 905.219 1085.7 905.014 1085.22 904.838C1084.75 904.647 1084.14 904.552 1083.39 904.552C1082.38 904.552 1081.43 904.831 1080.53 905.388C1079.64 905.931 1078.85 906.679 1078.18 907.632C1077.5 908.585 1076.97 909.715 1076.57 911.02C1076.19 912.325 1076 913.726 1076 915.222C1076 916.131 1076.1 916.96 1076.31 917.708C1076.51 918.441 1076.82 919.072 1077.23 919.6C1077.64 920.113 1078.14 920.517 1078.73 920.81C1079.33 921.089 1080.03 921.228 1080.82 921.228C1081.8 921.228 1082.62 921.081 1083.28 920.788C1083.96 920.495 1084.52 920.179 1084.98 919.842C1085.43 919.49 1085.81 919.167 1086.12 918.874C1086.44 918.581 1086.76 918.434 1087.07 918.434C1087.34 918.434 1087.59 918.559 1087.81 918.808L1088.78 919.996ZM1107.03 904.442C1106.71 904.369 1106.39 904.325 1106.06 904.31C1105.75 904.281 1105.45 904.266 1105.14 904.266C1104.26 904.266 1103.41 904.413 1102.59 904.706C1101.77 904.985 1101 905.381 1100.28 905.894C1099.56 906.407 1098.91 907.023 1098.32 907.742C1097.73 908.446 1097.23 909.223 1096.8 910.074C1096.39 910.925 1096.07 911.834 1095.83 912.802C1095.6 913.755 1095.48 914.738 1095.48 915.75C1095.48 919.285 1096.61 921.052 1098.87 921.052C1099.59 921.052 1100.29 920.832 1100.98 920.392C1101.67 919.937 1102.32 919.314 1102.94 918.522C1103.57 917.715 1104.15 916.769 1104.68 915.684C1105.2 914.584 1105.67 913.381 1106.08 912.076L1107.03 904.442ZM1105.53 918.126C1105.01 919.065 1104.43 919.915 1103.82 920.678C1103.22 921.441 1102.57 922.093 1101.88 922.636C1101.21 923.164 1100.49 923.575 1099.73 923.868C1098.98 924.161 1098.2 924.308 1097.39 924.308C1096.51 924.308 1095.72 924.139 1095 923.802C1094.28 923.45 1093.66 922.944 1093.15 922.284C1092.65 921.609 1092.26 920.788 1091.98 919.82C1091.7 918.837 1091.56 917.715 1091.56 916.454C1091.56 915.134 1091.73 913.851 1092.05 912.604C1092.39 911.343 1092.86 910.155 1093.46 909.04C1094.07 907.925 1094.81 906.906 1095.66 905.982C1096.51 905.043 1097.45 904.237 1098.49 903.562C1099.55 902.873 1100.68 902.345 1101.88 901.978C1103.09 901.597 1104.35 901.406 1105.67 901.406C1106.62 901.406 1107.54 901.487 1108.44 901.648C1109.35 901.795 1110.24 902.059 1111.12 902.44L1108.46 924H1106.44C1105.92 924 1105.57 923.868 1105.38 923.604C1105.2 923.34 1105.12 923.017 1105.12 922.636L1105.53 918.126ZM1134.32 901.714L1131.64 924H1127.74L1128.98 913.77H1119.36L1118.13 924H1114.24L1116.92 901.714H1120.81L1119.71 910.866H1129.33L1130.43 901.714H1134.32ZM1153.54 906.576C1153.06 905.96 1152.43 905.461 1151.65 905.08C1150.89 904.684 1150.02 904.486 1149.05 904.486C1147.88 904.486 1146.82 904.779 1145.89 905.366C1144.95 905.938 1144.15 906.708 1143.49 907.676C1142.83 908.644 1142.31 909.766 1141.95 911.042C1141.6 912.303 1141.42 913.623 1141.42 915.002C1141.42 916.073 1141.53 916.997 1141.75 917.774C1141.97 918.551 1142.28 919.197 1142.67 919.71C1143.07 920.209 1143.54 920.583 1144.08 920.832C1144.64 921.081 1145.25 921.206 1145.91 921.206C1146.92 921.206 1147.88 920.92 1148.79 920.348C1149.71 919.776 1150.52 918.896 1151.21 917.708C1151.91 916.505 1152.47 914.987 1152.88 913.154C1153.29 911.306 1153.5 909.113 1153.5 906.576H1153.54ZM1141.9 892.342C1144.29 892.107 1146.44 892.181 1148.35 892.562C1150.26 892.943 1151.88 893.706 1153.21 894.85C1154.55 895.979 1155.57 897.512 1156.27 899.448C1156.99 901.369 1157.35 903.76 1157.35 906.62C1157.35 909.465 1157.02 911.988 1156.38 914.188C1155.75 916.388 1154.89 918.236 1153.81 919.732C1152.72 921.228 1151.45 922.365 1150 923.142C1148.56 923.905 1147.04 924.286 1145.42 924.286C1144.26 924.286 1143.2 924.088 1142.23 923.692C1141.27 923.281 1140.43 922.687 1139.73 921.91C1139.04 921.118 1138.49 920.143 1138.1 918.984C1137.72 917.825 1137.53 916.483 1137.53 914.958C1137.53 913.286 1137.77 911.651 1138.27 910.052C1138.79 908.453 1139.51 907.031 1140.43 905.784C1141.37 904.537 1142.5 903.533 1143.82 902.77C1145.14 902.007 1146.61 901.626 1148.24 901.626C1149.41 901.626 1150.45 901.839 1151.34 902.264C1152.25 902.675 1153.06 903.276 1153.76 904.068C1153.59 902.352 1153.23 900.907 1152.68 899.734C1152.14 898.561 1151.4 897.622 1150.46 896.918C1149.54 896.199 1148.41 895.693 1147.07 895.4C1145.74 895.107 1144.21 894.989 1142.48 895.048C1142.14 895.048 1141.91 894.975 1141.79 894.828C1141.69 894.667 1141.66 894.439 1141.71 894.146L1141.9 892.342ZM1165.04 919.116C1165.6 919.893 1166.27 920.451 1167.04 920.788C1167.82 921.111 1168.61 921.272 1169.42 921.272C1170.18 921.272 1170.9 921.111 1171.58 920.788C1172.25 920.465 1172.87 920.033 1173.42 919.49C1173.98 918.933 1174.48 918.287 1174.92 917.554C1175.36 916.806 1175.73 916.014 1176.02 915.178C1176.33 914.327 1176.56 913.455 1176.72 912.56C1176.89 911.651 1176.97 910.756 1176.97 909.876C1176.97 908.131 1176.65 906.803 1176.02 905.894C1175.39 904.985 1174.5 904.53 1173.36 904.53C1172.65 904.53 1171.94 904.75 1171.22 905.19C1170.51 905.615 1169.81 906.217 1169.13 906.994C1168.47 907.771 1167.85 908.695 1167.26 909.766C1166.69 910.837 1166.19 912.01 1165.77 913.286L1165.04 919.116ZM1166.23 907.764C1166.79 906.796 1167.4 905.923 1168.06 905.146C1168.72 904.354 1169.41 903.679 1170.15 903.122C1170.88 902.565 1171.63 902.139 1172.41 901.846C1173.2 901.538 1174.01 901.384 1174.83 901.384C1176.74 901.384 1178.21 902.073 1179.25 903.452C1180.31 904.831 1180.84 906.847 1180.84 909.502C1180.84 910.705 1180.71 911.907 1180.46 913.11C1180.21 914.313 1179.86 915.464 1179.39 916.564C1178.93 917.649 1178.37 918.669 1177.71 919.622C1177.07 920.561 1176.34 921.382 1175.54 922.086C1174.74 922.775 1173.88 923.318 1172.94 923.714C1172 924.11 1171.02 924.308 1169.99 924.308C1168.89 924.308 1167.89 924.095 1167 923.67C1166.11 923.23 1165.34 922.614 1164.71 921.822L1163.52 931.546H1159.72L1163.35 901.692H1165.28C1166.16 901.692 1166.6 902.132 1166.6 903.012L1166.23 907.764ZM1205.57 908.908C1206.82 908.908 1207.92 908.717 1208.87 908.336C1209.83 907.955 1210.63 907.427 1211.27 906.752C1211.92 906.063 1212.41 905.249 1212.75 904.31C1213.08 903.357 1213.25 902.323 1213.25 901.208C1213.25 900.357 1213.13 899.595 1212.88 898.92C1212.63 898.245 1212.26 897.673 1211.76 897.204C1211.26 896.72 1210.63 896.353 1209.86 896.104C1209.1 895.84 1208.21 895.708 1207.2 895.708H1202.63L1201 908.908H1205.57ZM1207.6 892.474C1209.27 892.474 1210.72 892.672 1211.95 893.068C1213.19 893.464 1214.2 894.029 1214.99 894.762C1215.8 895.495 1216.4 896.375 1216.79 897.402C1217.19 898.429 1217.39 899.573 1217.39 900.834C1217.39 902.491 1217.12 904.017 1216.57 905.41C1216.03 906.789 1215.24 907.977 1214.2 908.974C1213.17 909.971 1211.9 910.756 1210.37 911.328C1208.86 911.885 1207.13 912.164 1205.18 912.164H1200.6L1199.15 924H1195.06L1198.91 892.474H1207.6ZM1239.43 901.714L1224.39 930.644C1224.22 930.952 1224.03 931.179 1223.81 931.326C1223.61 931.473 1223.34 931.546 1223.02 931.546H1220.14L1224.98 922.68L1219.19 901.714H1222.43C1222.75 901.714 1222.98 901.795 1223.13 901.956C1223.28 902.103 1223.39 902.293 1223.46 902.528L1227.05 916.564C1227.12 916.872 1227.18 917.18 1227.22 917.488C1227.27 917.796 1227.3 918.104 1227.33 918.412C1227.47 918.104 1227.6 917.796 1227.73 917.488C1227.86 917.165 1228 916.85 1228.15 916.542L1235.19 902.484C1235.3 902.249 1235.47 902.066 1235.67 901.934C1235.89 901.787 1236.11 901.714 1236.33 901.714H1239.43ZM1242.24 912.098C1242.71 910.235 1243.26 908.651 1243.89 907.346C1244.52 906.026 1245.3 904.955 1246.22 904.134C1247.16 903.298 1248.28 902.689 1249.59 902.308C1250.89 901.927 1252.45 901.736 1254.25 901.736H1258.34L1255.62 924H1251.85L1254.21 904.706H1253.48C1252.4 904.706 1251.46 904.838 1250.67 905.102C1249.89 905.351 1249.21 905.769 1248.62 906.356C1248.03 906.943 1247.53 907.727 1247.1 908.71C1246.68 909.678 1246.29 910.873 1245.94 912.296C1245.41 914.569 1244.85 916.476 1244.26 918.016C1243.69 919.541 1243.06 920.773 1242.37 921.712C1241.7 922.636 1240.96 923.296 1240.15 923.692C1239.34 924.088 1238.45 924.286 1237.47 924.286C1236.81 924.286 1236.35 924.227 1236.1 924.11C1235.85 924.007 1235.74 923.817 1235.77 923.538L1236.04 921.316H1236.76C1237.45 921.316 1238.04 921.155 1238.52 920.832C1239.02 920.509 1239.47 919.989 1239.86 919.27C1240.27 918.537 1240.66 917.583 1241.03 916.41C1241.4 915.237 1241.8 913.799 1242.24 912.098ZM1272.78 904.222C1271.85 904.222 1271 904.413 1270.22 904.794C1269.45 905.175 1268.76 905.703 1268.16 906.378C1267.56 907.038 1267.04 907.823 1266.62 908.732C1266.19 909.627 1265.86 910.595 1265.63 911.636C1267.89 911.357 1269.7 911.042 1271.06 910.69C1272.42 910.323 1273.47 909.935 1274.21 909.524C1274.94 909.099 1275.42 908.644 1275.66 908.16C1275.89 907.676 1276.01 907.17 1276.01 906.642C1276.01 906.378 1275.95 906.107 1275.83 905.828C1275.72 905.535 1275.53 905.271 1275.26 905.036C1275.01 904.801 1274.68 904.611 1274.27 904.464C1273.86 904.303 1273.36 904.222 1272.78 904.222ZM1278.98 919.886C1278.23 920.663 1277.5 921.331 1276.78 921.888C1276.06 922.431 1275.33 922.885 1274.58 923.252C1273.85 923.619 1273.07 923.883 1272.25 924.044C1271.44 924.22 1270.57 924.308 1269.63 924.308C1268.35 924.308 1267.21 924.095 1266.2 923.67C1265.19 923.245 1264.33 922.643 1263.62 921.866C1262.92 921.074 1262.38 920.121 1262 919.006C1261.62 917.891 1261.42 916.645 1261.42 915.266C1261.42 914.122 1261.54 912.985 1261.78 911.856C1262.03 910.712 1262.38 909.627 1262.83 908.6C1263.3 907.573 1263.87 906.62 1264.53 905.74C1265.2 904.86 1265.96 904.105 1266.81 903.474C1267.68 902.829 1268.63 902.323 1269.65 901.956C1270.69 901.589 1271.81 901.406 1273 901.406C1274.13 901.406 1275.1 901.567 1275.92 901.89C1276.74 902.213 1277.42 902.623 1277.95 903.122C1278.47 903.621 1278.86 904.171 1279.11 904.772C1279.38 905.373 1279.51 905.945 1279.51 906.488C1279.51 907.456 1279.31 908.351 1278.91 909.172C1278.52 909.979 1277.79 910.712 1276.74 911.372C1275.68 912.017 1274.23 912.582 1272.38 913.066C1270.53 913.55 1268.16 913.939 1265.25 914.232C1265.25 914.393 1265.25 914.555 1265.23 914.716C1265.23 914.863 1265.23 915.017 1265.23 915.178C1265.23 917.143 1265.66 918.647 1266.51 919.688C1267.37 920.715 1268.67 921.228 1270.4 921.228C1271.1 921.228 1271.73 921.155 1272.27 921.008C1272.83 920.861 1273.32 920.685 1273.74 920.48C1274.18 920.26 1274.57 920.025 1274.89 919.776C1275.23 919.512 1275.53 919.277 1275.79 919.072C1276.07 918.852 1276.33 918.669 1276.56 918.522C1276.8 918.375 1277.03 918.302 1277.26 918.302C1277.54 918.302 1277.79 918.427 1278.01 918.676L1278.98 919.886ZM1271.96 895.642C1271.96 895.979 1271.9 896.295 1271.76 896.588C1271.63 896.881 1271.45 897.138 1271.21 897.358C1270.98 897.578 1270.71 897.754 1270.4 897.886C1270.11 898.018 1269.79 898.084 1269.45 898.084C1269.12 898.084 1268.8 898.018 1268.51 897.886C1268.22 897.754 1267.95 897.578 1267.72 897.358C1267.5 897.138 1267.32 896.881 1267.19 896.588C1267.06 896.295 1266.99 895.979 1266.99 895.642C1266.99 895.305 1267.06 894.982 1267.19 894.674C1267.32 894.366 1267.5 894.102 1267.72 893.882C1267.95 893.647 1268.22 893.464 1268.51 893.332C1268.8 893.2 1269.12 893.134 1269.45 893.134C1269.79 893.134 1270.11 893.2 1270.4 893.332C1270.71 893.464 1270.98 893.647 1271.21 893.882C1271.45 894.102 1271.63 894.366 1271.76 894.674C1271.9 894.982 1271.96 895.305 1271.96 895.642ZM1279.9 895.642C1279.9 895.979 1279.84 896.295 1279.71 896.588C1279.57 896.881 1279.39 897.138 1279.16 897.358C1278.94 897.578 1278.67 897.754 1278.36 897.886C1278.07 898.018 1277.76 898.084 1277.42 898.084C1277.08 898.084 1276.76 898.018 1276.45 897.886C1276.16 897.754 1275.89 897.578 1275.66 897.358C1275.44 897.138 1275.26 896.881 1275.13 896.588C1275 896.295 1274.93 895.979 1274.93 895.642C1274.93 895.305 1275 894.982 1275.13 894.674C1275.26 894.366 1275.44 894.102 1275.66 893.882C1275.89 893.647 1276.16 893.464 1276.45 893.332C1276.76 893.2 1277.08 893.134 1277.42 893.134C1277.76 893.134 1278.07 893.2 1278.36 893.332C1278.67 893.464 1278.94 893.647 1279.16 893.882C1279.39 894.102 1279.57 894.366 1279.71 894.674C1279.84 894.982 1279.9 895.305 1279.9 895.642ZM1286.18 914.342C1286.16 914.474 1286.15 914.606 1286.13 914.738C1286.13 914.87 1286.13 915.002 1286.13 915.134C1286.12 916.073 1286.2 916.931 1286.38 917.708C1286.57 918.471 1286.85 919.131 1287.23 919.688C1287.62 920.231 1288.1 920.649 1288.69 920.942C1289.27 921.235 1289.96 921.375 1290.75 921.36C1291.49 921.345 1292.17 921.206 1292.8 920.942C1293.45 920.663 1294 920.304 1294.47 919.864C1294.96 919.409 1295.33 918.889 1295.59 918.302C1295.87 917.715 1296.01 917.092 1296.01 916.432C1296.01 915.904 1295.92 915.413 1295.73 914.958C1295.55 914.503 1295.25 914.129 1294.82 913.836C1294.4 913.543 1293.84 913.352 1293.15 913.264C1292.48 913.161 1291.65 913.205 1290.67 913.396L1286.18 914.342ZM1290.38 911.042C1291.69 910.793 1292.73 910.499 1293.53 910.162C1294.33 909.825 1294.95 909.465 1295.37 909.084C1295.81 908.688 1296.11 908.285 1296.25 907.874C1296.4 907.449 1296.47 907.031 1296.47 906.62C1296.47 906.312 1296.42 906.011 1296.32 905.718C1296.23 905.41 1296.08 905.139 1295.86 904.904C1295.64 904.669 1295.34 904.479 1294.98 904.332C1294.63 904.185 1294.19 904.112 1293.66 904.112C1292.79 904.112 1291.98 904.31 1291.22 904.706C1290.47 905.102 1289.79 905.652 1289.17 906.356C1288.55 907.06 1288.02 907.889 1287.56 908.842C1287.11 909.781 1286.76 910.8 1286.51 911.9L1290.38 911.042ZM1294.27 911.702C1295.07 911.731 1295.79 911.856 1296.45 912.076C1297.11 912.281 1297.68 912.582 1298.15 912.978C1298.62 913.359 1298.97 913.836 1299.22 914.408C1299.49 914.98 1299.62 915.64 1299.62 916.388C1299.62 917.4 1299.39 918.383 1298.94 919.336C1298.5 920.289 1297.87 921.14 1297.05 921.888C1296.24 922.621 1295.26 923.215 1294.12 923.67C1292.98 924.11 1291.71 924.33 1290.34 924.33C1289.03 924.33 1287.87 924.117 1286.86 923.692C1285.86 923.267 1285.02 922.673 1284.33 921.91C1283.66 921.147 1283.14 920.238 1282.79 919.182C1282.45 918.111 1282.28 916.938 1282.28 915.662C1282.28 914.445 1282.42 913.249 1282.68 912.076C1282.94 910.903 1283.32 909.788 1283.8 908.732C1284.3 907.676 1284.9 906.701 1285.61 905.806C1286.31 904.911 1287.1 904.141 1287.98 903.496C1288.86 902.851 1289.82 902.345 1290.84 901.978C1291.88 901.611 1292.98 901.428 1294.14 901.428C1295.11 901.428 1295.95 901.553 1296.67 901.802C1297.39 902.051 1297.98 902.389 1298.43 902.814C1298.9 903.225 1299.25 903.701 1299.47 904.244C1299.7 904.772 1299.82 905.322 1299.82 905.894C1299.82 906.481 1299.72 907.053 1299.51 907.61C1299.3 908.167 1298.97 908.703 1298.52 909.216C1298.08 909.715 1297.51 910.177 1296.8 910.602C1296.1 911.027 1295.26 911.394 1294.27 911.702Z" fill="#74705D"/>
<g clip-path="url(#clip0)">
<path fill-rule="evenodd" clip-rule="evenodd" d="M1292.49 1019.3C1292.43 1019.3 1292.36 1020.29 1292.29 1022.24C1292.2 1024.26 1292.08 1026.48 1291.92 1028.9C1291.74 1031.75 1291.59 1033.58 1291.48 1034.38C1291.38 1035.17 1291.23 1035.81 1291.04 1036.31C1290.84 1036.84 1290.61 1037.28 1290.35 1037.62C1290.15 1037.92 1289.9 1038.18 1289.62 1038.39C1289.3 1038.63 1288.94 1038.81 1288.53 1038.94C1288.01 1039.1 1287.46 1039.18 1286.88 1039.18C1286.19 1039.18 1285.53 1039.07 1284.9 1038.85C1284.27 1038.63 1283.77 1038.3 1283.42 1037.87C1283.06 1037.43 1282.82 1036.9 1282.68 1036.27C1282.54 1035.65 1282.48 1034.87 1282.48 1033.94C1282.48 1033.45 1282.51 1032.55 1282.56 1031.27C1282.61 1029.98 1282.7 1028.6 1282.81 1027.13L1283.36 1019.3C1281.73 1019.33 1280.42 1019.34 1279.44 1019.34C1278.66 1019.34 1277.31 1019.33 1275.4 1019.3L1275.07 1026.57C1274.99 1028.07 1274.92 1029.21 1274.86 1029.98L1274.62 1032.92C1274.54 1034.04 1274.48 1034.9 1274.45 1035.5C1274.43 1036.09 1274.42 1036.53 1274.42 1036.82C1274.42 1037.7 1274.53 1038.51 1274.75 1039.28C1274.94 1039.95 1275.21 1040.53 1275.56 1041.01C1275.9 1041.5 1276.39 1041.97 1277.03 1042.44C1277.73 1042.94 1278.55 1043.38 1279.5 1043.76C1280.44 1044.12 1281.5 1044.42 1282.68 1044.61C1283.96 1044.8 1285.28 1044.9 1286.65 1044.9C1288.19 1044.9 1289.71 1044.77 1291.2 1044.51C1292.7 1044.26 1294.04 1043.82 1295.22 1043.2C1296.39 1042.58 1297.29 1041.89 1297.9 1041.12C1298.51 1040.34 1298.96 1039.43 1299.22 1038.38C1299.48 1037.33 1299.64 1035.53 1299.69 1032.98C1299.69 1032.82 1299.7 1032.62 1299.71 1032.37L1300.61 1019.3H1292.49L1292.49 1019.3ZM1326.08 1022.2C1325.74 1021.72 1325.31 1021.29 1324.79 1020.89C1324.28 1020.51 1323.64 1020.18 1322.89 1019.92C1322.13 1019.64 1321.3 1019.46 1320.38 1019.38C1319.15 1019.26 1317.75 1019.19 1316.18 1019.19C1314.84 1019.19 1313.47 1019.22 1312.06 1019.28C1310.65 1019.33 1309.45 1019.36 1308.47 1019.36C1307.53 1019.36 1306.28 1019.35 1304.75 1019.31C1304.75 1020.8 1304.72 1022.82 1304.68 1025.35C1304.63 1027.89 1304.56 1030.3 1304.46 1032.58C1304.36 1034.86 1304.24 1036.87 1304.1 1038.59C1303.97 1040.33 1303.78 1042.27 1303.55 1044.43C1305.4 1044.4 1306.68 1044.39 1307.4 1044.39C1308.01 1044.39 1309.34 1044.4 1311.39 1044.43C1311.43 1040.94 1311.51 1037.4 1311.64 1033.77C1311.75 1030.15 1311.9 1027.08 1312.06 1024.57C1312.67 1024.56 1313.21 1024.54 1313.66 1024.52C1314.13 1024.51 1314.57 1024.5 1315.01 1024.5C1316.26 1024.5 1317.2 1024.6 1317.8 1024.79C1318.41 1024.99 1318.86 1025.28 1319.14 1025.69C1319.43 1026.08 1319.56 1026.55 1319.56 1027.07C1319.56 1027.7 1319.38 1028.29 1319.01 1028.86C1318.63 1029.42 1318.07 1029.85 1317.35 1030.11C1316.62 1030.38 1315.8 1030.52 1314.91 1030.52C1314.27 1030.52 1313.62 1030.45 1312.96 1030.33L1314.85 1035.54C1315.43 1037.11 1315.87 1038.33 1316.16 1039.21C1316.31 1039.6 1316.49 1040.15 1316.69 1040.88C1317.21 1042.61 1317.57 1043.79 1317.77 1044.43C1319.78 1044.4 1321.22 1044.39 1322.11 1044.39C1322.81 1044.39 1324.17 1044.4 1326.19 1044.43C1325.91 1043.74 1325.71 1043.28 1325.6 1043.05L1323.14 1037.66C1322.83 1036.98 1322.54 1036.32 1322.27 1035.67L1321.31 1033.33C1322.54 1032.85 1323.5 1032.38 1324.18 1031.92C1324.85 1031.47 1325.42 1030.92 1325.87 1030.28C1326.32 1029.65 1326.65 1028.98 1326.85 1028.26C1327.06 1027.54 1327.17 1026.77 1327.17 1025.95C1327.17 1025.21 1327.07 1024.52 1326.88 1023.88C1326.69 1023.23 1326.43 1022.68 1326.08 1022.2L1326.08 1022.2ZM1352.39 1023.5C1352.41 1022.87 1352.44 1022.08 1352.49 1021.11L1352.6 1019.3L1350.21 1019.33H1345.79L1341.25 1019.34C1336.61 1019.34 1332.55 1019.33 1329.07 1019.3C1329.04 1020.6 1329 1021.8 1328.95 1022.89L1328.86 1024.93L1336.7 1024.74C1336.58 1031.9 1336.21 1038.47 1335.6 1044.43C1337.89 1044.4 1339.3 1044.39 1339.83 1044.39C1340.42 1044.39 1341.72 1044.4 1343.73 1044.43C1343.73 1042.9 1343.77 1040.89 1343.85 1038.41C1343.92 1035.93 1344.02 1033.37 1344.16 1030.74C1344.25 1028.9 1344.4 1026.9 1344.58 1024.74H1345.87C1347.57 1024.74 1349.74 1024.8 1352.36 1024.93C1352.36 1024.61 1352.37 1024.14 1352.39 1023.5L1352.39 1023.5ZM1259.66 1029.78C1259.66 1030.58 1259.65 1031.2 1259.62 1031.66C1259.6 1032.12 1259.57 1032.48 1259.57 1032.73L1259.44 1034.99L1261.39 1034.97C1261.54 1034.97 1262.01 1034.98 1262.81 1035.02L1262.61 1039.02C1261.31 1039.34 1260.11 1039.5 1259.02 1039.5C1257.7 1039.5 1256.51 1039.24 1255.44 1038.73C1254.37 1038.21 1253.59 1037.45 1253.11 1036.47C1252.62 1035.48 1252.37 1034.36 1252.37 1033.09C1252.37 1031.85 1252.58 1030.68 1253.01 1029.56C1253.44 1028.44 1254.09 1027.48 1254.96 1026.67C1255.82 1025.88 1256.85 1025.28 1258.05 1024.89C1259.26 1024.5 1260.53 1024.31 1261.89 1024.31C1262.4 1024.31 1262.98 1024.34 1263.64 1024.41C1264.3 1024.46 1264.99 1024.56 1265.72 1024.69C1266.45 1024.82 1267.09 1024.96 1267.64 1025.11C1268.18 1025.26 1268.89 1025.49 1269.78 1025.78C1269.62 1023.58 1269.54 1021.59 1269.54 1019.8C1266.28 1019.15 1263.3 1018.83 1260.61 1018.83C1256.93 1018.83 1253.92 1019.45 1251.6 1020.69C1249.27 1021.94 1247.49 1023.63 1246.25 1025.76C1245.01 1027.9 1244.39 1030.21 1244.39 1032.7C1244.39 1034.21 1244.63 1035.67 1245.08 1037.08C1245.54 1038.49 1246.2 1039.72 1247.04 1040.74C1247.89 1041.77 1248.95 1042.59 1250.22 1043.2C1251.49 1043.79 1252.92 1044.23 1254.53 1044.5C1256.14 1044.77 1257.78 1044.9 1259.45 1044.9C1260.47 1044.9 1261.63 1044.86 1262.93 1044.76C1264.23 1044.67 1265.34 1044.57 1266.27 1044.45C1267.2 1044.34 1268.37 1044.15 1269.77 1043.89C1269.81 1042.32 1269.91 1040 1270.08 1036.92C1270.25 1033.83 1270.41 1031.46 1270.57 1029.77C1269.1 1029.8 1267.06 1029.81 1264.46 1029.81C1262.94 1029.81 1261.34 1029.8 1259.65 1029.77L1259.66 1029.78ZM1373.98 1026.98L1371.29 1019.3C1369.81 1019.33 1368.22 1019.34 1366.48 1019.34C1366.22 1019.34 1365.92 1019.34 1365.58 1019.34C1364.62 1019.33 1363.34 1019.32 1361.75 1019.3C1361.23 1020.41 1360.82 1021.26 1360.52 1021.84L1359.51 1023.85L1349.99 1041.78L1348.47 1044.43C1350.54 1044.4 1352.04 1044.39 1352.98 1044.39C1353.5 1044.39 1354.89 1044.4 1357.17 1044.43C1358.31 1041.83 1359.42 1039.45 1360.49 1037.29H1369.76C1370.78 1040.02 1371.56 1042.41 1372.1 1044.43C1374.1 1044.4 1375.62 1044.39 1376.65 1044.39C1377.1 1044.39 1378.39 1044.4 1380.51 1044.43L1379.44 1041.74L1373.98 1026.98L1373.98 1026.98ZM1365.58 1031.93H1362.71L1364.04 1029.21C1364.47 1028.31 1364.99 1027.22 1365.58 1025.94L1366.1 1024.78C1366.23 1025.22 1367.01 1027.6 1368.44 1031.93H1365.58H1365.58ZM1413.4 1019.3C1411.26 1019.33 1409.6 1019.34 1408.39 1019.34C1406.63 1019.34 1404.83 1019.33 1402.98 1019.3C1402.68 1020.44 1402.44 1021.27 1402.26 1021.82C1402.08 1022.36 1401.66 1023.52 1401 1025.29C1400.33 1027.05 1399.78 1028.63 1399.34 1030.01C1398.9 1031.41 1398.4 1033.06 1397.87 1034.98C1397.34 1032.18 1396.95 1030.19 1396.68 1029.03C1396.42 1027.87 1396.07 1026.5 1395.64 1024.91C1395.2 1023.32 1394.93 1022.25 1394.81 1021.7C1394.7 1021.16 1394.57 1020.36 1394.41 1019.3C1392.21 1019.33 1390.58 1019.34 1389.51 1019.34C1388.22 1019.34 1386.45 1019.33 1384.19 1019.3L1383.62 1027.8L1382.48 1040.71L1382.02 1044.43C1383.6 1044.4 1384.7 1044.39 1385.33 1044.39C1385.8 1044.39 1386.88 1044.4 1388.57 1044.43L1388.63 1042.07L1389.24 1031.62L1389.7 1026.52C1389.83 1027.29 1389.93 1027.83 1389.99 1028.14C1390.05 1028.44 1390.11 1028.7 1390.16 1028.91L1391.49 1034.31L1393.75 1044.43C1395.32 1044.4 1396.49 1044.39 1397.25 1044.39C1397.84 1044.39 1398.94 1044.4 1400.54 1044.43L1404 1033.97L1406.41 1026.48C1406.43 1027.37 1406.44 1028.07 1406.44 1028.58C1406.44 1029.73 1406.38 1032.39 1406.22 1036.54C1406.08 1040.69 1405.96 1043.32 1405.86 1044.43C1407.23 1044.4 1408.39 1044.39 1409.34 1044.39C1409.99 1044.39 1411.12 1044.4 1412.74 1044.43C1412.72 1043.24 1412.7 1042.42 1412.7 1041.96C1412.7 1039.78 1412.79 1035.78 1412.95 1029.96C1413.02 1026.99 1413.17 1023.44 1413.4 1019.3L1413.4 1019.3ZM1165.94 1018.15L1181.01 1004.08L1195.08 1019.15L1180.01 1033.22L1165.94 1018.15ZM1145 1037.93L1163.66 1020.5L1177.73 1035.58L1159.07 1053L1145 1037.93ZM1183.36 1036.81L1198.43 1022.74L1212.5 1037.81L1197.43 1051.88L1183.36 1036.81ZM1200.91 1020.42L1219.57 1003L1233.64 1018.07L1214.98 1035.49L1200.91 1020.42Z" fill="#74705D"/>
</g>
<defs>
<clipPath id="clip0">
<rect width="268.403" height="50" fill="white" transform="translate(1145 1003)"/>
</clipPath>
</defs>
</svg>
