<svg width="1440" height="1080" viewBox="0 0 1440 1080" fill="none" xmlns="http://www.w3.org/2000/svg">
<rect width="1440" height="1080" fill="#282923"/>
<path d="M224 700H1278.5" stroke="#F8F8F2" stroke-width="6"/>
<path d="M227 703L227 635.5" stroke="#F8F8F2" stroke-width="6"/>
<path d="M720 702.5L720 635" stroke="#F8F8F2" stroke-width="6"/>
<path d="M1213 702.5L1213 635" stroke="#F8F8F2" stroke-width="6"/>
<path d="M163.448 540.206V566H160.388V547.046C160.388 546.794 160.394 546.524 160.406 546.236C160.43 545.948 160.454 545.654 160.478 545.354L151.622 561.482C151.346 562.022 150.926 562.292 150.362 562.292H149.858C149.294 562.292 148.874 562.022 148.598 561.482L139.562 545.282C139.634 545.918 139.67 546.506 139.67 547.046V566H136.61V540.206H139.184C139.496 540.206 139.736 540.236 139.904 540.296C140.072 540.356 140.234 540.524 140.39 540.8L149.3 556.676C149.444 556.964 149.582 557.264 149.714 557.576C149.858 557.888 149.99 558.206 150.11 558.53C150.23 558.206 150.356 557.888 150.488 557.576C150.62 557.252 150.764 556.946 150.92 556.658L159.668 540.8C159.812 540.524 159.968 540.356 160.136 540.296C160.316 540.236 160.562 540.206 160.874 540.206H163.448ZM178.643 557.792C177.167 557.84 175.907 557.96 174.863 558.152C173.831 558.332 172.985 558.572 172.325 558.872C171.677 559.172 171.203 559.526 170.903 559.934C170.615 560.342 170.471 560.798 170.471 561.302C170.471 561.782 170.549 562.196 170.705 562.544C170.861 562.892 171.071 563.18 171.335 563.408C171.611 563.624 171.929 563.786 172.289 563.894C172.661 563.99 173.057 564.038 173.477 564.038C174.041 564.038 174.557 563.984 175.025 563.876C175.493 563.756 175.931 563.588 176.339 563.372C176.759 563.156 177.155 562.898 177.527 562.598C177.911 562.298 178.283 561.956 178.643 561.572V557.792ZM168.293 550.34C169.301 549.368 170.387 548.642 171.551 548.162C172.715 547.682 174.005 547.442 175.421 547.442C176.441 547.442 177.347 547.61 178.139 547.946C178.931 548.282 179.597 548.75 180.137 549.35C180.677 549.95 181.085 550.676 181.361 551.528C181.637 552.38 181.775 553.316 181.775 554.336V566H180.353C180.041 566 179.801 565.952 179.633 565.856C179.465 565.748 179.333 565.544 179.237 565.244L178.877 563.516C178.397 563.96 177.929 564.356 177.473 564.704C177.017 565.04 176.537 565.328 176.033 565.568C175.529 565.796 174.989 565.97 174.413 566.09C173.849 566.222 173.219 566.288 172.523 566.288C171.815 566.288 171.149 566.192 170.525 566C169.901 565.796 169.355 565.496 168.887 565.1C168.431 564.704 168.065 564.206 167.789 563.606C167.525 562.994 167.393 562.274 167.393 561.446C167.393 560.726 167.591 560.036 167.987 559.376C168.383 558.704 169.025 558.11 169.913 557.594C170.801 557.078 171.959 556.658 173.387 556.334C174.815 555.998 176.567 555.806 178.643 555.758V554.336C178.643 552.92 178.337 551.852 177.725 551.132C177.113 550.4 176.219 550.034 175.043 550.034C174.251 550.034 173.585 550.136 173.045 550.34C172.517 550.532 172.055 550.754 171.659 551.006C171.275 551.246 170.939 551.468 170.651 551.672C170.375 551.864 170.099 551.96 169.823 551.96C169.607 551.96 169.421 551.906 169.265 551.798C169.109 551.678 168.977 551.534 168.869 551.366L168.293 550.34ZM211.189 547.766V566H186.655V547.766H189.877V563.57H197.311V547.766H200.533V563.57H207.967V547.766H211.189ZM231.899 547.766V566H228.695V553.616C228.695 553.376 228.707 553.118 228.731 552.842C228.755 552.566 228.785 552.29 228.821 552.014C228.713 552.254 228.605 552.476 228.497 552.68C228.389 552.884 228.275 553.07 228.155 553.238L219.353 565.208C219.221 565.4 219.053 565.586 218.849 565.766C218.657 565.934 218.441 566.018 218.201 566.018H216.257V547.784H219.479V560.168C219.479 560.396 219.467 560.648 219.443 560.924C219.419 561.188 219.389 561.458 219.353 561.734C219.461 561.506 219.569 561.296 219.677 561.104C219.785 560.9 219.893 560.714 220.001 560.546L228.803 548.576C228.935 548.384 229.103 548.204 229.307 548.036C229.511 547.856 229.733 547.766 229.973 547.766H231.899ZM252.156 547.766V566H248.934V557.468H240.186V566H236.964V547.766H240.186V555.038H248.934V547.766H252.156ZM272.441 547.766V566H269.219V557.468H260.471V566H257.249V547.766H260.471V555.038H269.219V547.766H272.441ZM284.536 563.66C285.184 563.66 285.742 563.582 286.21 563.426C286.69 563.258 287.086 563.03 287.398 562.742C287.71 562.442 287.944 562.094 288.1 561.698C288.256 561.302 288.334 560.87 288.334 560.402C288.334 559.97 288.268 559.568 288.136 559.196C288.004 558.812 287.782 558.476 287.47 558.188C287.17 557.9 286.774 557.672 286.282 557.504C285.79 557.336 285.19 557.252 284.482 557.252H280.594V563.66H284.536ZM284.482 554.912C285.742 554.912 286.798 555.062 287.65 555.362C288.514 555.662 289.204 556.064 289.72 556.568C290.248 557.072 290.626 557.654 290.854 558.314C291.082 558.974 291.196 559.658 291.196 560.366C291.196 561.182 291.052 561.938 290.764 562.634C290.476 563.318 290.05 563.912 289.486 564.416C288.922 564.908 288.226 565.298 287.398 565.586C286.57 565.862 285.616 566 284.536 566H277.534V547.766H280.594V554.912H284.482ZM298.414 547.766V566H295.21V547.766H298.414ZM319.157 547.766V566H315.953V553.616C315.953 553.376 315.965 553.118 315.989 552.842C316.013 552.566 316.043 552.29 316.079 552.014C315.971 552.254 315.863 552.476 315.755 552.68C315.647 552.884 315.533 553.07 315.413 553.238L306.611 565.208C306.479 565.4 306.311 565.586 306.107 565.766C305.915 565.934 305.699 566.018 305.459 566.018H303.515V547.784H306.737V560.168C306.737 560.396 306.725 560.648 306.701 560.924C306.677 561.188 306.647 561.458 306.611 561.734C306.719 561.506 306.827 561.296 306.935 561.104C307.043 560.9 307.151 560.714 307.259 560.546L316.061 548.576C316.193 548.384 316.361 548.204 316.565 548.036C316.769 547.856 316.991 547.766 317.231 547.766H319.157ZM311.543 543.356C312.035 543.356 312.449 543.302 312.785 543.194C313.121 543.074 313.391 542.888 313.595 542.636C313.811 542.384 313.967 542.06 314.063 541.664C314.159 541.268 314.207 540.782 314.207 540.206H316.079C316.307 540.206 316.481 540.308 316.601 540.512C316.721 540.716 316.781 540.938 316.781 541.178C316.781 541.778 316.661 542.318 316.421 542.798C316.181 543.278 315.833 543.692 315.377 544.04C314.933 544.376 314.387 544.634 313.739 544.814C313.091 544.994 312.359 545.084 311.543 545.084C310.727 545.084 309.995 544.994 309.347 544.814C308.699 544.634 308.147 544.376 307.691 544.04C307.247 543.692 306.905 543.278 306.665 542.798C306.425 542.318 306.305 541.778 306.305 541.178C306.305 540.938 306.365 540.716 306.485 540.512C306.605 540.308 306.779 540.206 307.007 540.206H308.879C308.879 540.782 308.927 541.268 309.023 541.664C309.119 542.06 309.269 542.384 309.473 542.636C309.689 542.888 309.965 543.074 310.301 543.194C310.637 543.302 311.051 543.356 311.543 543.356ZM211.137 592.666C211.305 592.402 211.527 592.186 211.803 592.018C212.079 591.85 212.373 591.766 212.685 591.766H215.187L210.453 598.714C210.165 599.158 209.865 599.524 209.553 599.812C209.241 600.088 208.857 600.304 208.401 600.46C208.977 600.616 209.463 600.862 209.859 601.198C210.255 601.522 210.609 601.942 210.921 602.458L215.709 610H213.477C212.901 610 212.457 609.904 212.145 609.712C211.833 609.52 211.563 609.244 211.335 608.884L207.789 603.214C207.225 602.278 206.379 601.81 205.251 601.81H203.289V610.018H200.067V591.766H203.289V599.65H205.017C205.977 599.65 206.727 599.242 207.267 598.426L211.137 592.666ZM225.683 591.478C227.015 591.478 228.215 591.7 229.283 592.144C230.351 592.588 231.263 593.218 232.019 594.034C232.775 594.85 233.351 595.84 233.747 597.004C234.155 598.156 234.359 599.446 234.359 600.874C234.359 602.314 234.155 603.61 233.747 604.762C233.351 605.914 232.775 606.898 232.019 607.714C231.263 608.53 230.351 609.16 229.283 609.604C228.215 610.036 227.015 610.252 225.683 610.252C224.339 610.252 223.127 610.036 222.047 609.604C220.979 609.16 220.067 608.53 219.311 607.714C218.555 606.898 217.973 605.914 217.565 604.762C217.169 603.61 216.971 602.314 216.971 600.874C216.971 599.446 217.169 598.156 217.565 597.004C217.973 595.84 218.555 594.85 219.311 594.034C220.067 593.218 220.979 592.588 222.047 592.144C223.127 591.7 224.339 591.478 225.683 591.478ZM225.683 607.75C227.483 607.75 228.827 607.15 229.715 605.95C230.603 604.738 231.047 603.052 231.047 600.892C231.047 598.72 230.603 597.028 229.715 595.816C228.827 594.604 227.483 593.998 225.683 593.998C224.771 593.998 223.973 594.154 223.289 594.466C222.617 594.778 222.053 595.228 221.597 595.816C221.153 596.404 220.817 597.13 220.589 597.994C220.373 598.846 220.265 599.812 220.265 600.892C220.265 603.052 220.709 604.738 221.597 605.95C222.497 607.15 223.859 607.75 225.683 607.75ZM250.319 607.66V594.286H244.541C244.421 596.158 244.253 597.814 244.037 599.254C243.821 600.694 243.569 601.96 243.281 603.052C243.005 604.132 242.693 605.05 242.345 605.806C242.009 606.562 241.655 607.18 241.283 607.66H250.319ZM256.763 607.57V615.292C256.763 615.604 256.673 615.844 256.493 616.012C256.325 616.192 256.103 616.282 255.827 616.282H253.865V610H238.529V615.364C238.529 615.592 238.457 615.802 238.313 615.994C238.181 616.186 237.959 616.282 237.647 616.282H235.631V607.66H236.225C236.645 607.66 237.059 607.588 237.467 607.444C237.887 607.3 238.289 607.03 238.673 606.634C239.057 606.226 239.417 605.656 239.753 604.924C240.101 604.192 240.413 603.238 240.689 602.062C240.965 600.886 241.205 599.458 241.409 597.778C241.613 596.086 241.775 594.082 241.895 591.766H253.433V607.57H256.763Z" fill="#F8F8F2"/>
<path d="M690.315 608.228C691.311 608.228 692.163 608.114 692.871 607.886C693.591 607.658 694.173 607.346 694.617 606.95C695.073 606.542 695.403 606.056 695.607 605.492C695.823 604.916 695.931 604.286 695.931 603.602C695.931 602.882 695.823 602.246 695.607 601.694C695.403 601.13 695.073 600.656 694.617 600.272C694.173 599.876 693.597 599.582 692.889 599.39C692.181 599.186 691.329 599.084 690.333 599.084H685.311V608.228H690.315ZM690.333 596.312C691.905 596.312 693.261 596.486 694.401 596.834C695.541 597.17 696.477 597.65 697.209 598.274C697.953 598.886 698.499 599.618 698.847 600.47C699.207 601.322 699.387 602.252 699.387 603.26C699.387 604.448 699.183 605.522 698.775 606.482C698.379 607.43 697.791 608.24 697.011 608.912C696.243 609.584 695.295 610.1 694.167 610.46C693.039 610.82 691.755 611 690.315 611H681.837V585.206H698.505V587.96H685.311V596.312H690.333ZM718.967 611H715.763V595.286H710.003C709.859 597.602 709.643 599.606 709.355 601.298C709.067 602.978 708.719 604.412 708.311 605.6C707.915 606.776 707.465 607.736 706.961 608.48C706.469 609.212 705.947 609.782 705.395 610.19C704.855 610.598 704.291 610.874 703.703 611.018C703.127 611.162 702.551 611.234 701.975 611.234C700.955 611.234 700.445 611.072 700.445 610.748V608.714H701.381C701.789 608.714 702.203 608.642 702.623 608.498C703.043 608.354 703.451 608.078 703.847 607.67C704.255 607.262 704.645 606.692 705.017 605.96C705.389 605.216 705.725 604.256 706.025 603.08C706.337 601.892 706.601 600.458 706.817 598.778C707.045 597.086 707.219 595.082 707.339 592.766H718.967V611ZM733.924 602.792C732.448 602.84 731.188 602.96 730.144 603.152C729.112 603.332 728.266 603.572 727.606 603.872C726.958 604.172 726.484 604.526 726.184 604.934C725.896 605.342 725.752 605.798 725.752 606.302C725.752 606.782 725.83 607.196 725.986 607.544C726.142 607.892 726.352 608.18 726.616 608.408C726.892 608.624 727.21 608.786 727.57 608.894C727.942 608.99 728.338 609.038 728.758 609.038C729.322 609.038 729.838 608.984 730.306 608.876C730.774 608.756 731.212 608.588 731.62 608.372C732.04 608.156 732.436 607.898 732.808 607.598C733.192 607.298 733.564 606.956 733.924 606.572V602.792ZM723.574 595.34C724.582 594.368 725.668 593.642 726.832 593.162C727.996 592.682 729.286 592.442 730.702 592.442C731.722 592.442 732.628 592.61 733.42 592.946C734.212 593.282 734.878 593.75 735.418 594.35C735.958 594.95 736.366 595.676 736.642 596.528C736.918 597.38 737.056 598.316 737.056 599.336V611H735.634C735.322 611 735.082 610.952 734.914 610.856C734.746 610.748 734.614 610.544 734.518 610.244L734.158 608.516C733.678 608.96 733.21 609.356 732.754 609.704C732.298 610.04 731.818 610.328 731.314 610.568C730.81 610.796 730.27 610.97 729.694 611.09C729.13 611.222 728.5 611.288 727.804 611.288C727.096 611.288 726.43 611.192 725.806 611C725.182 610.796 724.636 610.496 724.168 610.1C723.712 609.704 723.346 609.206 723.07 608.606C722.806 607.994 722.674 607.274 722.674 606.446C722.674 605.726 722.872 605.036 723.268 604.376C723.664 603.704 724.306 603.11 725.194 602.594C726.082 602.078 727.24 601.658 728.668 601.334C730.096 600.998 731.848 600.806 733.924 600.758V599.336C733.924 597.92 733.618 596.852 733.006 596.132C732.394 595.4 731.5 595.034 730.324 595.034C729.532 595.034 728.866 595.136 728.326 595.34C727.798 595.532 727.336 595.754 726.94 596.006C726.556 596.246 726.22 596.468 725.932 596.672C725.656 596.864 725.38 596.96 725.104 596.96C724.888 596.96 724.702 596.906 724.546 596.798C724.39 596.678 724.258 596.534 724.15 596.366L723.574 595.34ZM750.162 608.876C751.962 608.876 753.318 608.306 754.23 607.166C755.154 606.014 755.616 604.406 755.616 602.342C755.616 600.29 755.172 598.688 754.284 597.536C753.408 596.384 752.088 595.808 750.324 595.808C749.472 595.808 748.704 595.946 748.02 596.222C747.336 596.486 746.754 596.876 746.274 597.392C745.806 597.908 745.44 598.544 745.176 599.3C744.924 600.056 744.798 600.92 744.798 601.892C744.798 602.984 744.912 603.962 745.14 604.826C745.368 605.69 745.704 606.422 746.148 607.022C746.604 607.622 747.162 608.084 747.822 608.408C748.494 608.72 749.274 608.876 750.162 608.876ZM751.404 588.482C750.18 588.59 749.13 588.86 748.254 589.292C747.39 589.724 746.67 590.312 746.094 591.056C745.518 591.788 745.086 592.67 744.798 593.702C744.51 594.734 744.342 595.898 744.294 597.194C744.582 596.618 744.954 596.102 745.41 595.646C745.866 595.178 746.388 594.782 746.976 594.458C747.564 594.122 748.2 593.87 748.884 593.702C749.58 593.522 750.318 593.432 751.098 593.432C752.31 593.432 753.396 593.648 754.356 594.08C755.328 594.5 756.15 595.1 756.822 595.88C757.506 596.66 758.028 597.602 758.388 598.706C758.748 599.798 758.928 601.01 758.928 602.342C758.928 603.698 758.718 604.928 758.298 606.032C757.89 607.124 757.302 608.06 756.534 608.84C755.766 609.608 754.842 610.202 753.762 610.622C752.694 611.042 751.494 611.252 750.162 611.252C748.938 611.252 747.792 611.048 746.724 610.64C745.656 610.232 744.732 609.56 743.952 608.624C743.172 607.688 742.554 606.458 742.098 604.934C741.654 603.398 741.432 601.508 741.432 599.264C741.432 597.344 741.606 595.58 741.954 593.972C742.302 592.364 742.86 590.966 743.628 589.778C744.408 588.59 745.41 587.636 746.634 586.916C747.87 586.184 749.37 585.74 751.134 585.584L757.65 585.026L757.83 586.682C757.866 587.054 757.812 587.366 757.668 587.618C757.524 587.87 757.266 588.008 756.894 588.032L751.404 588.482Z" fill="#E7DB74"/>
<path d="M527.15 763H524.018C523.67 763 523.37 762.91 523.118 762.73C522.878 762.538 522.65 762.262 522.434 761.902L515.612 752.452C515.3 751.984 514.964 751.66 514.604 751.48C514.244 751.288 513.752 751.192 513.128 751.192H510.032V763H506.558V737.206H510.032V748.51H512.714C513.254 748.51 513.71 748.426 514.082 748.258C514.466 748.09 514.844 747.76 515.216 747.268L521.966 738.196C522.146 737.908 522.362 737.674 522.614 737.494C522.878 737.302 523.184 737.206 523.532 737.206H526.466L518.672 747.808C518.084 748.636 517.328 749.206 516.404 749.518C517.04 749.686 517.574 749.956 518.006 750.328C518.45 750.688 518.87 751.192 519.266 751.84L527.15 763ZM536.269 744.478C537.601 744.478 538.801 744.7 539.869 745.144C540.937 745.588 541.849 746.218 542.605 747.034C543.361 747.85 543.937 748.84 544.333 750.004C544.741 751.156 544.945 752.446 544.945 753.874C544.945 755.314 544.741 756.61 544.333 757.762C543.937 758.914 543.361 759.898 542.605 760.714C541.849 761.53 540.937 762.16 539.869 762.604C538.801 763.036 537.601 763.252 536.269 763.252C534.925 763.252 533.713 763.036 532.633 762.604C531.565 762.16 530.653 761.53 529.897 760.714C529.141 759.898 528.559 758.914 528.151 757.762C527.755 756.61 527.557 755.314 527.557 753.874C527.557 752.446 527.755 751.156 528.151 750.004C528.559 748.84 529.141 747.85 529.897 747.034C530.653 746.218 531.565 745.588 532.633 745.144C533.713 744.7 534.925 744.478 536.269 744.478ZM536.269 760.75C538.069 760.75 539.413 760.15 540.301 758.95C541.189 757.738 541.633 756.052 541.633 753.892C541.633 751.72 541.189 750.028 540.301 748.816C539.413 747.604 538.069 746.998 536.269 746.998C535.357 746.998 534.559 747.154 533.875 747.466C533.203 747.778 532.639 748.228 532.183 748.816C531.739 749.404 531.403 750.13 531.175 750.994C530.959 751.846 530.851 752.812 530.851 753.892C530.851 756.052 531.295 757.738 532.183 758.95C533.083 760.15 534.445 760.75 536.269 760.75ZM564.201 744.766V763H560.979V754.468H552.231V763H549.009V744.766H552.231V752.038H560.979V744.766H564.201ZM584.45 747.214H577.448V763H574.244V747.214H567.242V744.766H584.45V747.214ZM603.147 744.766V763H599.943V750.616C599.943 750.376 599.955 750.118 599.979 749.842C600.003 749.566 600.033 749.29 600.069 749.014C599.961 749.254 599.853 749.476 599.745 749.68C599.637 749.884 599.523 750.07 599.403 750.238L590.601 762.208C590.469 762.4 590.301 762.586 590.097 762.766C589.905 762.934 589.689 763.018 589.449 763.018H587.505V744.784H590.727V757.168C590.727 757.396 590.715 757.648 590.691 757.924C590.667 758.188 590.637 758.458 590.601 758.734C590.709 758.506 590.817 758.296 590.925 758.104C591.033 757.9 591.141 757.714 591.249 757.546L600.051 745.576C600.183 745.384 600.351 745.204 600.555 745.036C600.759 744.856 600.981 744.766 601.221 744.766H603.147ZM623.404 744.766V763H620.182V754.468H611.434V763H608.212V744.766H611.434V752.038H620.182V744.766H623.404ZM644.229 744.766L634.059 768.382C633.951 768.622 633.813 768.814 633.645 768.958C633.489 769.102 633.243 769.174 632.907 769.174H630.531L633.861 761.938L626.337 744.766H629.109C629.385 744.766 629.601 744.838 629.757 744.982C629.925 745.114 630.039 745.264 630.099 745.432L634.977 756.916C635.169 757.42 635.331 757.948 635.463 758.5C635.631 757.936 635.811 757.402 636.003 756.898L640.737 745.432C640.809 745.24 640.929 745.084 641.097 744.964C641.277 744.832 641.475 744.766 641.691 744.766H644.229ZM662.791 744.766L652.621 768.382C652.513 768.622 652.375 768.814 652.207 768.958C652.051 769.102 651.805 769.174 651.469 769.174H649.093L652.423 761.938L644.899 744.766H647.671C647.947 744.766 648.163 744.838 648.319 744.982C648.487 745.114 648.601 745.264 648.661 745.432L653.539 756.916C653.731 757.42 653.893 757.948 654.025 758.5C654.193 757.936 654.373 757.402 654.565 756.898L659.299 745.432C659.371 745.24 659.491 745.084 659.659 744.964C659.839 744.832 660.037 744.766 660.253 744.766H662.791ZM685.944 744.712V763H683.046V750.886C683.046 750.55 683.064 750.178 683.1 749.77C683.148 749.35 683.208 748.96 683.28 748.6L676.944 759.706C676.848 759.886 676.722 760.03 676.566 760.138C676.41 760.246 676.23 760.3 676.026 760.3H675.666C675.462 760.3 675.276 760.246 675.108 760.138C674.952 760.03 674.826 759.886 674.73 759.706L668.286 748.564C668.346 748.924 668.4 749.32 668.448 749.752C668.496 750.172 668.52 750.55 668.52 750.886V763H665.622V744.712H668.196C668.424 744.712 668.646 744.766 668.862 744.874C669.078 744.97 669.264 745.156 669.42 745.432L675.108 754.936C675.384 755.488 675.63 756.07 675.846 756.682C676.05 756.046 676.29 755.464 676.566 754.936L682.146 745.432C682.302 745.144 682.488 744.952 682.704 744.856C682.92 744.76 683.142 744.712 683.37 744.712H685.944ZM710.098 754.792C708.622 754.84 707.362 754.96 706.318 755.152C705.286 755.332 704.44 755.572 703.78 755.872C703.132 756.172 702.658 756.526 702.358 756.934C702.07 757.342 701.926 757.798 701.926 758.302C701.926 758.782 702.004 759.196 702.16 759.544C702.316 759.892 702.526 760.18 702.79 760.408C703.066 760.624 703.384 760.786 703.744 760.894C704.116 760.99 704.512 761.038 704.932 761.038C705.496 761.038 706.012 760.984 706.48 760.876C706.948 760.756 707.386 760.588 707.794 760.372C708.214 760.156 708.61 759.898 708.982 759.598C709.366 759.298 709.738 758.956 710.098 758.572V754.792ZM699.748 747.34C700.756 746.368 701.842 745.642 703.006 745.162C704.17 744.682 705.46 744.442 706.876 744.442C707.896 744.442 708.802 744.61 709.594 744.946C710.386 745.282 711.052 745.75 711.592 746.35C712.132 746.95 712.54 747.676 712.816 748.528C713.092 749.38 713.23 750.316 713.23 751.336V763H711.808C711.496 763 711.256 762.952 711.088 762.856C710.92 762.748 710.788 762.544 710.692 762.244L710.332 760.516C709.852 760.96 709.384 761.356 708.928 761.704C708.472 762.04 707.992 762.328 707.488 762.568C706.984 762.796 706.444 762.97 705.868 763.09C705.304 763.222 704.674 763.288 703.978 763.288C703.27 763.288 702.604 763.192 701.98 763C701.356 762.796 700.81 762.496 700.342 762.1C699.886 761.704 699.52 761.206 699.244 760.606C698.98 759.994 698.848 759.274 698.848 758.446C698.848 757.726 699.046 757.036 699.442 756.376C699.838 755.704 700.48 755.11 701.368 754.594C702.256 754.078 703.414 753.658 704.842 753.334C706.27 752.998 708.022 752.806 710.098 752.758V751.336C710.098 749.92 709.792 748.852 709.18 748.132C708.568 747.4 707.674 747.034 706.498 747.034C705.706 747.034 705.04 747.136 704.5 747.34C703.972 747.532 703.51 747.754 703.114 748.006C702.73 748.246 702.394 748.468 702.106 748.672C701.83 748.864 701.554 748.96 701.278 748.96C701.062 748.96 700.876 748.906 700.72 748.798C700.564 748.678 700.432 748.534 700.324 748.366L699.748 747.34ZM726.336 760.876C728.136 760.876 729.492 760.306 730.404 759.166C731.328 758.014 731.79 756.406 731.79 754.342C731.79 752.29 731.346 750.688 730.458 749.536C729.582 748.384 728.262 747.808 726.498 747.808C725.646 747.808 724.878 747.946 724.194 748.222C723.51 748.486 722.928 748.876 722.448 749.392C721.98 749.908 721.614 750.544 721.35 751.3C721.098 752.056 720.972 752.92 720.972 753.892C720.972 754.984 721.086 755.962 721.314 756.826C721.542 757.69 721.878 758.422 722.322 759.022C722.778 759.622 723.336 760.084 723.996 760.408C724.668 760.72 725.448 760.876 726.336 760.876ZM727.578 740.482C726.354 740.59 725.304 740.86 724.428 741.292C723.564 741.724 722.844 742.312 722.268 743.056C721.692 743.788 721.26 744.67 720.972 745.702C720.684 746.734 720.516 747.898 720.468 749.194C720.756 748.618 721.128 748.102 721.584 747.646C722.04 747.178 722.562 746.782 723.15 746.458C723.738 746.122 724.374 745.87 725.058 745.702C725.754 745.522 726.492 745.432 727.272 745.432C728.484 745.432 729.57 745.648 730.53 746.08C731.502 746.5 732.324 747.1 732.996 747.88C733.68 748.66 734.202 749.602 734.562 750.706C734.922 751.798 735.102 753.01 735.102 754.342C735.102 755.698 734.892 756.928 734.472 758.032C734.064 759.124 733.476 760.06 732.708 760.84C731.94 761.608 731.016 762.202 729.936 762.622C728.868 763.042 727.668 763.252 726.336 763.252C725.112 763.252 723.966 763.048 722.898 762.64C721.83 762.232 720.906 761.56 720.126 760.624C719.346 759.688 718.728 758.458 718.272 756.934C717.828 755.398 717.606 753.508 717.606 751.264C717.606 749.344 717.78 747.58 718.128 745.972C718.476 744.364 719.034 742.966 719.802 741.778C720.582 740.59 721.584 739.636 722.808 738.916C724.044 738.184 725.544 737.74 727.308 737.584L733.824 737.026L734.004 738.682C734.04 739.054 733.986 739.366 733.842 739.618C733.698 739.87 733.44 740.008 733.068 740.032L727.578 740.482ZM751.859 748.006C751.763 748.138 751.667 748.24 751.571 748.312C751.475 748.384 751.343 748.42 751.175 748.42C750.995 748.42 750.797 748.348 750.581 748.204C750.365 748.048 750.095 747.88 749.771 747.7C749.459 747.52 749.069 747.358 748.601 747.214C748.145 747.058 747.581 746.98 746.909 746.98C746.009 746.98 745.217 747.142 744.533 747.466C743.849 747.778 743.273 748.234 742.805 748.834C742.349 749.434 742.001 750.16 741.761 751.012C741.533 751.864 741.419 752.818 741.419 753.874C741.419 754.978 741.545 755.962 741.797 756.826C742.049 757.678 742.403 758.398 742.859 758.986C743.327 759.562 743.885 760.006 744.533 760.318C745.193 760.618 745.931 760.768 746.747 760.768C747.527 760.768 748.169 760.678 748.673 760.498C749.177 760.306 749.591 760.096 749.915 759.868C750.251 759.64 750.527 759.436 750.743 759.256C750.971 759.064 751.193 758.968 751.409 758.968C751.673 758.968 751.877 759.07 752.021 759.274L752.921 760.444C752.525 760.936 752.075 761.356 751.571 761.704C751.067 762.052 750.521 762.346 749.933 762.586C749.357 762.814 748.751 762.982 748.115 763.09C747.479 763.198 746.831 763.252 746.171 763.252C745.031 763.252 743.969 763.042 742.985 762.622C742.013 762.202 741.167 761.596 740.447 760.804C739.727 760 739.163 759.016 738.755 757.852C738.347 756.688 738.143 755.362 738.143 753.874C738.143 752.518 738.329 751.264 738.701 750.112C739.085 748.96 739.637 747.97 740.357 747.142C741.089 746.302 741.983 745.648 743.039 745.18C744.107 744.712 745.331 744.478 746.711 744.478C747.995 744.478 749.123 744.688 750.095 745.108C751.079 745.516 751.949 746.098 752.705 746.854L751.859 748.006ZM771.516 747.214H764.514V763H761.31V747.214H754.308V744.766H771.516V747.214ZM777.793 758.608C778.381 759.4 779.023 759.958 779.719 760.282C780.415 760.606 781.195 760.768 782.059 760.768C783.763 760.768 785.071 760.162 785.983 758.95C786.895 757.738 787.351 756.01 787.351 753.766C787.351 752.578 787.243 751.558 787.027 750.706C786.823 749.854 786.523 749.158 786.127 748.618C785.731 748.066 785.245 747.664 784.669 747.412C784.093 747.16 783.439 747.034 782.707 747.034C781.663 747.034 780.745 747.274 779.953 747.754C779.173 748.234 778.453 748.912 777.793 749.788V758.608ZM777.631 747.592C778.399 746.644 779.287 745.882 780.295 745.306C781.303 744.73 782.455 744.442 783.751 744.442C784.807 744.442 785.761 744.646 786.613 745.054C787.465 745.45 788.191 746.044 788.791 746.836C789.391 747.616 789.853 748.588 790.177 749.752C790.501 750.916 790.663 752.254 790.663 753.766C790.663 755.11 790.483 756.364 790.123 757.528C789.763 758.68 789.241 759.682 788.557 760.534C787.885 761.374 787.057 762.04 786.073 762.532C785.101 763.012 784.003 763.252 782.779 763.252C781.663 763.252 780.703 763.066 779.899 762.694C779.107 762.31 778.405 761.782 777.793 761.11V769.174H774.571V744.766H776.497C776.953 744.766 777.235 744.988 777.343 745.432L777.631 747.592ZM804.598 754.792C803.122 754.84 801.862 754.96 800.818 755.152C799.786 755.332 798.94 755.572 798.28 755.872C797.632 756.172 797.158 756.526 796.858 756.934C796.57 757.342 796.426 757.798 796.426 758.302C796.426 758.782 796.504 759.196 796.66 759.544C796.816 759.892 797.026 760.18 797.29 760.408C797.566 760.624 797.884 760.786 798.244 760.894C798.616 760.99 799.012 761.038 799.432 761.038C799.996 761.038 800.512 760.984 800.98 760.876C801.448 760.756 801.886 760.588 802.294 760.372C802.714 760.156 803.11 759.898 803.482 759.598C803.866 759.298 804.238 758.956 804.598 758.572V754.792ZM794.248 747.34C795.256 746.368 796.342 745.642 797.506 745.162C798.67 744.682 799.96 744.442 801.376 744.442C802.396 744.442 803.302 744.61 804.094 744.946C804.886 745.282 805.552 745.75 806.092 746.35C806.632 746.95 807.04 747.676 807.316 748.528C807.592 749.38 807.73 750.316 807.73 751.336V763H806.308C805.996 763 805.756 762.952 805.588 762.856C805.42 762.748 805.288 762.544 805.192 762.244L804.832 760.516C804.352 760.96 803.884 761.356 803.428 761.704C802.972 762.04 802.492 762.328 801.988 762.568C801.484 762.796 800.944 762.97 800.368 763.09C799.804 763.222 799.174 763.288 798.478 763.288C797.77 763.288 797.104 763.192 796.48 763C795.856 762.796 795.31 762.496 794.842 762.1C794.386 761.704 794.02 761.206 793.744 760.606C793.48 759.994 793.348 759.274 793.348 758.446C793.348 757.726 793.546 757.036 793.942 756.376C794.338 755.704 794.98 755.11 795.868 754.594C796.756 754.078 797.914 753.658 799.342 753.334C800.77 752.998 802.522 752.806 804.598 752.758V751.336C804.598 749.92 804.292 748.852 803.68 748.132C803.068 747.4 802.174 747.034 800.998 747.034C800.206 747.034 799.54 747.136 799 747.34C798.472 747.532 798.01 747.754 797.614 748.006C797.23 748.246 796.894 748.468 796.606 748.672C796.33 748.864 796.054 748.96 795.778 748.96C795.562 748.96 795.376 748.906 795.22 748.798C795.064 748.678 794.932 748.534 794.824 748.366L794.248 747.34ZM823.68 745.666C823.848 745.402 824.07 745.186 824.346 745.018C824.622 744.85 824.916 744.766 825.228 744.766H827.73L822.996 751.714C822.708 752.158 822.408 752.524 822.096 752.812C821.784 753.088 821.4 753.304 820.944 753.46C821.52 753.616 822.006 753.862 822.402 754.198C822.798 754.522 823.152 754.942 823.464 755.458L828.252 763H826.02C825.444 763 825 762.904 824.688 762.712C824.376 762.52 824.106 762.244 823.878 761.884L820.332 756.214C819.768 755.278 818.922 754.81 817.794 754.81H815.832V763.018H812.61V744.766H815.832V752.65H817.56C818.52 752.65 819.27 752.242 819.81 751.426L823.68 745.666ZM846.399 747.214H839.397V763H836.193V747.214H829.191V744.766H846.399V747.214ZM864.646 744.766V763H861.424V754.468H852.676V763H849.454V744.766H852.676V752.038H861.424V744.766H864.646ZM877.425 744.478C878.757 744.478 879.957 744.7 881.025 745.144C882.093 745.588 883.005 746.218 883.761 747.034C884.517 747.85 885.093 748.84 885.489 750.004C885.897 751.156 886.101 752.446 886.101 753.874C886.101 755.314 885.897 756.61 885.489 757.762C885.093 758.914 884.517 759.898 883.761 760.714C883.005 761.53 882.093 762.16 881.025 762.604C879.957 763.036 878.757 763.252 877.425 763.252C876.081 763.252 874.869 763.036 873.789 762.604C872.721 762.16 871.809 761.53 871.053 760.714C870.297 759.898 869.715 758.914 869.307 757.762C868.911 756.61 868.713 755.314 868.713 753.874C868.713 752.446 868.911 751.156 869.307 750.004C869.715 748.84 870.297 747.85 871.053 747.034C871.809 746.218 872.721 745.588 873.789 745.144C874.869 744.7 876.081 744.478 877.425 744.478ZM877.425 760.75C879.225 760.75 880.569 760.15 881.457 758.95C882.345 757.738 882.789 756.052 882.789 753.892C882.789 751.72 882.345 750.028 881.457 748.816C880.569 747.604 879.225 746.998 877.425 746.998C876.513 746.998 875.715 747.154 875.031 747.466C874.359 747.778 873.795 748.228 873.339 748.816C872.895 749.404 872.559 750.13 872.331 750.994C872.115 751.846 872.007 752.812 872.007 753.892C872.007 756.052 872.451 757.738 873.339 758.95C874.239 760.15 875.601 760.75 877.425 760.75ZM902.855 748.006C902.759 748.138 902.663 748.24 902.567 748.312C902.471 748.384 902.339 748.42 902.171 748.42C901.991 748.42 901.793 748.348 901.577 748.204C901.361 748.048 901.091 747.88 900.767 747.7C900.455 747.52 900.065 747.358 899.597 747.214C899.141 747.058 898.577 746.98 897.905 746.98C897.005 746.98 896.213 747.142 895.529 747.466C894.845 747.778 894.269 748.234 893.801 748.834C893.345 749.434 892.997 750.16 892.757 751.012C892.529 751.864 892.415 752.818 892.415 753.874C892.415 754.978 892.541 755.962 892.793 756.826C893.045 757.678 893.399 758.398 893.855 758.986C894.323 759.562 894.881 760.006 895.529 760.318C896.189 760.618 896.927 760.768 897.743 760.768C898.523 760.768 899.165 760.678 899.669 760.498C900.173 760.306 900.587 760.096 900.911 759.868C901.247 759.64 901.523 759.436 901.739 759.256C901.967 759.064 902.189 758.968 902.405 758.968C902.669 758.968 902.873 759.07 903.017 759.274L903.917 760.444C903.521 760.936 903.071 761.356 902.567 761.704C902.063 762.052 901.517 762.346 900.929 762.586C900.353 762.814 899.747 762.982 899.111 763.09C898.475 763.198 897.827 763.252 897.167 763.252C896.027 763.252 894.965 763.042 893.981 762.622C893.009 762.202 892.163 761.596 891.443 760.804C890.723 760 890.159 759.016 889.751 757.852C889.343 756.688 889.139 755.362 889.139 753.874C889.139 752.518 889.325 751.264 889.697 750.112C890.081 748.96 890.633 747.97 891.353 747.142C892.085 746.302 892.979 745.648 894.035 745.18C895.103 744.712 896.327 744.478 897.707 744.478C898.991 744.478 900.119 744.688 901.091 745.108C902.075 745.516 902.945 746.098 903.701 746.854L902.855 748.006ZM922.512 747.214H915.51V763H912.306V747.214H905.304V744.766H922.512V747.214ZM941.209 744.766V763H938.005V750.616C938.005 750.376 938.017 750.118 938.041 749.842C938.065 749.566 938.095 749.29 938.131 749.014C938.023 749.254 937.915 749.476 937.807 749.68C937.699 749.884 937.585 750.07 937.465 750.238L928.663 762.208C928.531 762.4 928.363 762.586 928.159 762.766C927.967 762.934 927.751 763.018 927.511 763.018H925.567V744.784H928.789V757.168C928.789 757.396 928.777 757.648 928.753 757.924C928.729 758.188 928.699 758.458 928.663 758.734C928.771 758.506 928.879 758.296 928.987 758.104C929.095 757.9 929.203 757.714 929.311 757.546L938.113 745.576C938.245 745.384 938.413 745.204 938.617 745.036C938.821 744.856 939.043 744.766 939.283 744.766H941.209Z" fill="#67D8EF"/>
<path d="M1191.97 608.066V611H1177.34V585.206H1180.81V608.066H1191.97ZM1198.46 592.766V611H1195.26V592.766H1198.46ZM1199.15 587.042C1199.15 587.354 1199.08 587.648 1198.95 587.924C1198.83 588.188 1198.66 588.428 1198.44 588.644C1198.24 588.848 1197.99 589.01 1197.71 589.13C1197.43 589.25 1197.14 589.31 1196.82 589.31C1196.51 589.31 1196.22 589.25 1195.94 589.13C1195.68 589.01 1195.44 588.848 1195.24 588.644C1195.04 588.428 1194.87 588.188 1194.75 587.924C1194.63 587.648 1194.57 587.354 1194.57 587.042C1194.57 586.73 1194.63 586.436 1194.75 586.16C1194.87 585.872 1195.04 585.626 1195.24 585.422C1195.44 585.206 1195.68 585.038 1195.94 584.918C1196.22 584.798 1196.51 584.738 1196.82 584.738C1197.14 584.738 1197.43 584.798 1197.71 584.918C1197.99 585.038 1198.24 585.206 1198.44 585.422C1198.66 585.626 1198.83 585.872 1198.95 586.16C1199.08 586.436 1199.15 586.73 1199.15 587.042ZM1214.35 595.772C1214.2 596.036 1213.98 596.168 1213.68 596.168C1213.5 596.168 1213.3 596.102 1213.07 595.97C1212.84 595.838 1212.56 595.694 1212.22 595.538C1211.9 595.37 1211.51 595.22 1211.05 595.088C1210.6 594.944 1210.06 594.872 1209.43 594.872C1208.89 594.872 1208.41 594.944 1207.97 595.088C1207.54 595.22 1207.17 595.406 1206.86 595.646C1206.56 595.886 1206.32 596.168 1206.16 596.492C1206 596.804 1205.92 597.146 1205.92 597.518C1205.92 597.986 1206.05 598.376 1206.32 598.688C1206.59 599 1206.95 599.27 1207.4 599.498C1207.84 599.726 1208.35 599.93 1208.91 600.11C1209.47 600.278 1210.05 600.464 1210.64 600.668C1211.24 600.86 1211.82 601.076 1212.38 601.316C1212.95 601.556 1213.45 601.856 1213.9 602.216C1214.34 602.576 1214.69 603.02 1214.96 603.548C1215.23 604.064 1215.37 604.688 1215.37 605.42C1215.37 606.26 1215.22 607.04 1214.92 607.76C1214.62 608.468 1214.18 609.086 1213.59 609.614C1213 610.13 1212.28 610.538 1211.43 610.838C1210.58 611.138 1209.59 611.288 1208.48 611.288C1207.21 611.288 1206.05 611.084 1205.02 610.676C1203.99 610.256 1203.11 609.722 1202.39 609.074L1203.15 607.85C1203.25 607.694 1203.36 607.574 1203.49 607.49C1203.62 607.406 1203.79 607.364 1204 607.364C1204.21 607.364 1204.44 607.448 1204.68 607.616C1204.92 607.784 1205.21 607.97 1205.54 608.174C1205.89 608.378 1206.31 608.564 1206.8 608.732C1207.3 608.9 1207.91 608.984 1208.64 608.984C1209.26 608.984 1209.81 608.906 1210.28 608.75C1210.75 608.582 1211.14 608.36 1211.45 608.084C1211.76 607.808 1211.99 607.49 1212.13 607.13C1212.29 606.77 1212.37 606.386 1212.37 605.978C1212.37 605.474 1212.23 605.06 1211.95 604.736C1211.69 604.4 1211.33 604.118 1210.89 603.89C1210.45 603.65 1209.94 603.446 1209.36 603.278C1208.8 603.098 1208.21 602.912 1207.61 602.72C1207.03 602.528 1206.44 602.312 1205.87 602.072C1205.3 601.82 1204.8 601.508 1204.36 601.136C1203.91 600.764 1203.55 600.308 1203.28 599.768C1203.01 599.216 1202.88 598.55 1202.88 597.77C1202.88 597.074 1203.02 596.408 1203.31 595.772C1203.6 595.124 1204.02 594.56 1204.57 594.08C1205.12 593.588 1205.8 593.198 1206.61 592.91C1207.41 592.622 1208.33 592.478 1209.36 592.478C1210.56 592.478 1211.63 592.67 1212.58 593.054C1213.54 593.426 1214.37 593.942 1215.07 594.602L1214.35 595.772ZM1222.52 606.608C1223.11 607.4 1223.75 607.958 1224.45 608.282C1225.14 608.606 1225.92 608.768 1226.79 608.768C1228.49 608.768 1229.8 608.162 1230.71 606.95C1231.62 605.738 1232.08 604.01 1232.08 601.766C1232.08 600.578 1231.97 599.558 1231.76 598.706C1231.55 597.854 1231.25 597.158 1230.86 596.618C1230.46 596.066 1229.97 595.664 1229.4 595.412C1228.82 595.16 1228.17 595.034 1227.44 595.034C1226.39 595.034 1225.47 595.274 1224.68 595.754C1223.9 596.234 1223.18 596.912 1222.52 597.788V606.608ZM1222.36 595.592C1223.13 594.644 1224.02 593.882 1225.02 593.306C1226.03 592.73 1227.18 592.442 1228.48 592.442C1229.54 592.442 1230.49 592.646 1231.34 593.054C1232.19 593.45 1232.92 594.044 1233.52 594.836C1234.12 595.616 1234.58 596.588 1234.91 597.752C1235.23 598.916 1235.39 600.254 1235.39 601.766C1235.39 603.11 1235.21 604.364 1234.85 605.528C1234.49 606.68 1233.97 607.682 1233.29 608.534C1232.61 609.374 1231.79 610.04 1230.8 610.532C1229.83 611.012 1228.73 611.252 1227.51 611.252C1226.39 611.252 1225.43 611.066 1224.63 610.694C1223.84 610.31 1223.13 609.782 1222.52 609.11V617.174H1219.3V592.766H1221.23C1221.68 592.766 1221.96 592.988 1222.07 593.432L1222.36 595.592ZM1237.31 587.51C1237.68 587.162 1238.09 586.832 1238.53 586.52C1238.99 586.208 1239.48 585.932 1240.01 585.692C1240.55 585.452 1241.13 585.266 1241.74 585.134C1242.36 584.99 1243.03 584.918 1243.75 584.918C1244.7 584.918 1245.58 585.056 1246.38 585.332C1247.2 585.608 1247.9 585.998 1248.49 586.502C1249.08 587.006 1249.54 587.618 1249.87 588.338C1250.21 589.058 1250.38 589.868 1250.38 590.768C1250.38 591.68 1250.24 592.466 1249.96 593.126C1249.7 593.786 1249.36 594.368 1248.94 594.872C1248.53 595.364 1248.08 595.796 1247.59 596.168C1247.11 596.528 1246.65 596.87 1246.22 597.194C1245.79 597.518 1245.42 597.842 1245.1 598.166C1244.8 598.49 1244.63 598.85 1244.58 599.246L1244.26 602H1242.06L1241.85 599.012C1241.8 598.472 1241.9 598.004 1242.15 597.608C1242.4 597.2 1242.73 596.822 1243.14 596.474C1243.55 596.114 1244 595.766 1244.49 595.43C1244.98 595.082 1245.44 594.698 1245.86 594.278C1246.29 593.858 1246.65 593.384 1246.94 592.856C1247.23 592.316 1247.37 591.674 1247.37 590.93C1247.37 590.414 1247.27 589.946 1247.07 589.526C1246.86 589.106 1246.59 588.752 1246.24 588.464C1245.89 588.164 1245.48 587.936 1245 587.78C1244.53 587.624 1244.02 587.546 1243.48 587.546C1242.75 587.546 1242.12 587.636 1241.59 587.816C1241.08 587.996 1240.64 588.194 1240.28 588.41C1239.92 588.626 1239.63 588.824 1239.4 589.004C1239.18 589.184 1239 589.274 1238.86 589.274C1238.56 589.274 1238.32 589.136 1238.16 588.86L1237.31 587.51ZM1240.82 609.02C1240.82 608.708 1240.87 608.414 1240.98 608.138C1241.1 607.862 1241.26 607.622 1241.45 607.418C1241.65 607.214 1241.89 607.052 1242.17 606.932C1242.45 606.812 1242.74 606.752 1243.05 606.752C1243.36 606.752 1243.66 606.812 1243.93 606.932C1244.21 607.052 1244.45 607.214 1244.65 607.418C1244.86 607.622 1245.02 607.862 1245.14 608.138C1245.26 608.414 1245.32 608.708 1245.32 609.02C1245.32 609.344 1245.26 609.644 1245.14 609.92C1245.02 610.184 1244.86 610.418 1244.65 610.622C1244.45 610.826 1244.21 610.982 1243.93 611.09C1243.66 611.21 1243.36 611.27 1243.05 611.27C1242.74 611.27 1242.45 611.21 1242.17 611.09C1241.89 610.982 1241.65 610.826 1241.45 610.622C1241.26 610.418 1241.1 610.184 1240.98 609.92C1240.87 609.644 1240.82 609.344 1240.82 609.02Z" fill="#F8F8F2"/>
<path d="M1044.11 968.336C1044.41 968.76 1044.78 969.064 1045.2 969.248C1045.62 969.424 1046.06 969.512 1046.5 969.512C1046.91 969.512 1047.3 969.424 1047.67 969.248C1048.04 969.072 1048.38 968.836 1048.68 968.54C1048.98 968.236 1049.26 967.884 1049.5 967.484C1049.74 967.076 1049.94 966.644 1050.1 966.188C1050.26 965.724 1050.39 965.248 1050.48 964.76C1050.57 964.264 1050.61 963.776 1050.61 963.296C1050.61 962.344 1050.44 961.62 1050.1 961.124C1049.75 960.628 1049.27 960.38 1048.64 960.38C1048.26 960.38 1047.87 960.5 1047.48 960.74C1047.09 960.972 1046.71 961.3 1046.34 961.724C1045.98 962.148 1045.64 962.652 1045.32 963.236C1045.01 963.82 1044.74 964.46 1044.5 965.156L1044.11 968.336ZM1044.76 962.144C1045.06 961.616 1045.39 961.14 1045.75 960.716C1046.11 960.284 1046.49 959.916 1046.89 959.612C1047.29 959.308 1047.7 959.076 1048.13 958.916C1048.56 958.748 1049 958.664 1049.45 958.664C1050.49 958.664 1051.29 959.04 1051.86 959.792C1052.44 960.544 1052.72 961.644 1052.72 963.092C1052.72 963.748 1052.66 964.404 1052.52 965.06C1052.38 965.716 1052.19 966.344 1051.93 966.944C1051.68 967.536 1051.38 968.092 1051.02 968.612C1050.67 969.124 1050.27 969.572 1049.83 969.956C1049.4 970.332 1048.93 970.628 1048.42 970.844C1047.9 971.06 1047.37 971.168 1046.81 971.168C1046.21 971.168 1045.66 971.052 1045.18 970.82C1044.69 970.58 1044.27 970.244 1043.93 969.812L1043.28 975.116H1041.2L1043.18 958.832H1044.24C1044.72 958.832 1044.96 959.072 1044.96 959.552L1044.76 962.144ZM1062.72 960.332C1062.54 960.292 1062.36 960.268 1062.19 960.26C1062.02 960.244 1061.85 960.236 1061.68 960.236C1061.2 960.236 1060.74 960.316 1060.29 960.476C1059.84 960.628 1059.42 960.844 1059.03 961.124C1058.64 961.404 1058.28 961.74 1057.96 962.132C1057.64 962.516 1057.37 962.94 1057.14 963.404C1056.91 963.868 1056.74 964.364 1056.61 964.892C1056.48 965.412 1056.42 965.948 1056.42 966.5C1056.42 968.428 1057.03 969.392 1058.26 969.392C1058.66 969.392 1059.04 969.272 1059.42 969.032C1059.79 968.784 1060.15 968.444 1060.48 968.012C1060.83 967.572 1061.14 967.056 1061.43 966.464C1061.72 965.864 1061.98 965.208 1062.2 964.496L1062.72 960.332ZM1061.9 967.796C1061.61 968.308 1061.3 968.772 1060.96 969.188C1060.64 969.604 1060.28 969.96 1059.91 970.256C1059.54 970.544 1059.15 970.768 1058.73 970.928C1058.32 971.088 1057.9 971.168 1057.46 971.168C1056.98 971.168 1056.54 971.076 1056.15 970.892C1055.76 970.7 1055.42 970.424 1055.14 970.064C1054.87 969.696 1054.66 969.248 1054.51 968.72C1054.36 968.184 1054.28 967.572 1054.28 966.884C1054.28 966.164 1054.37 965.464 1054.54 964.784C1054.73 964.096 1054.98 963.448 1055.31 962.84C1055.65 962.232 1056.05 961.676 1056.51 961.172C1056.98 960.66 1057.49 960.22 1058.06 959.852C1058.64 959.476 1059.25 959.188 1059.91 958.988C1060.56 958.78 1061.25 958.676 1061.97 958.676C1062.49 958.676 1063 958.72 1063.48 958.808C1063.98 958.888 1064.47 959.032 1064.95 959.24L1063.5 971H1062.39C1062.11 971 1061.92 970.928 1061.82 970.784C1061.72 970.64 1061.67 970.464 1061.67 970.256L1061.9 967.796ZM1077.64 958.844L1076.17 971H1075.12C1074.6 971 1074.34 970.744 1074.34 970.232L1074.52 968.012C1073.88 969.052 1073.15 969.84 1072.35 970.376C1071.55 970.904 1070.72 971.168 1069.87 971.168C1069.36 971.168 1068.91 971.068 1068.52 970.868C1068.13 970.66 1067.81 970.36 1067.56 969.968C1067.32 969.576 1067.15 969.096 1067.07 968.528C1066.98 967.96 1066.98 967.308 1067.08 966.572L1067.99 958.844H1070.11L1069.2 966.572C1069.09 967.524 1069.15 968.232 1069.37 968.696C1069.6 969.16 1070.03 969.392 1070.67 969.392C1071.03 969.392 1071.41 969.292 1071.81 969.092C1072.2 968.892 1072.57 968.608 1072.93 968.24C1073.29 967.872 1073.63 967.428 1073.94 966.908C1074.26 966.38 1074.53 965.796 1074.76 965.156L1075.51 958.844H1077.64ZM1079.41 971L1081.56 953.324H1083.66L1081.51 971H1079.41ZM1089.3 965.516C1089.73 965.516 1090.11 965.424 1090.44 965.24C1090.78 965.048 1091.06 964.8 1091.28 964.496C1091.51 964.184 1091.69 963.836 1091.81 963.452C1091.93 963.068 1091.99 962.68 1091.99 962.288C1091.99 961.584 1091.81 961.052 1091.45 960.692C1091.1 960.332 1090.61 960.152 1089.98 960.152C1089.55 960.152 1089.17 960.24 1088.84 960.416C1088.52 960.592 1088.24 960.828 1088 961.124C1087.78 961.42 1087.61 961.756 1087.49 962.132C1087.38 962.508 1087.32 962.9 1087.32 963.308C1087.32 964.028 1087.49 964.576 1087.84 964.952C1088.19 965.328 1088.68 965.516 1089.3 965.516ZM1091.71 971.3C1091.71 971.084 1091.69 970.888 1091.65 970.712C1091.61 970.528 1091.56 970.356 1091.5 970.196C1090.44 970.028 1089.53 969.968 1088.76 970.016C1087.99 970.056 1087.36 970.172 1086.85 970.364C1086.36 970.556 1085.99 970.804 1085.75 971.108C1085.51 971.412 1085.39 971.74 1085.39 972.092C1085.39 972.668 1085.63 973.108 1086.11 973.412C1086.6 973.716 1087.28 973.868 1088.17 973.868C1088.7 973.868 1089.18 973.796 1089.61 973.652C1090.05 973.516 1090.42 973.332 1090.73 973.1C1091.04 972.868 1091.28 972.596 1091.45 972.284C1091.62 971.972 1091.71 971.644 1091.71 971.3ZM1095.79 959.288L1095.71 959.996C1095.67 960.284 1095.51 960.476 1095.23 960.572L1093.7 960.836C1093.86 961.252 1093.93 961.712 1093.93 962.216C1093.93 962.616 1093.88 962.976 1093.79 963.296C1093.7 963.616 1093.59 963.912 1093.45 964.184C1093.32 964.456 1093.17 964.712 1093.01 964.952C1092.85 965.192 1092.7 965.432 1092.56 965.672C1092.43 965.904 1092.31 966.148 1092.22 966.404C1092.13 966.652 1092.08 966.924 1092.08 967.22C1092.08 967.436 1092.12 967.644 1092.19 967.844C1092.27 968.036 1092.37 968.228 1092.48 968.42C1092.6 968.604 1092.73 968.792 1092.86 968.984C1093.01 969.176 1093.14 969.38 1093.25 969.596C1093.37 969.812 1093.46 970.048 1093.54 970.304C1093.62 970.552 1093.66 970.828 1093.66 971.132C1093.65 971.7 1093.51 972.236 1093.25 972.74C1092.98 973.252 1092.61 973.704 1092.12 974.096C1091.63 974.488 1091.04 974.796 1090.34 975.02C1089.65 975.252 1088.86 975.368 1087.99 975.368C1087.3 975.368 1086.66 975.296 1086.08 975.152C1085.52 975.008 1085.03 974.804 1084.62 974.54C1084.22 974.276 1083.91 973.956 1083.7 973.58C1083.47 973.212 1083.36 972.804 1083.36 972.356C1083.36 971.844 1083.47 971.392 1083.68 971C1083.9 970.608 1084.19 970.272 1084.56 969.992C1084.93 969.704 1085.36 969.468 1085.84 969.284C1086.33 969.1 1086.85 968.964 1087.39 968.876C1087.94 968.788 1088.51 968.748 1089.08 968.756C1089.66 968.756 1090.22 968.796 1090.78 968.876C1090.7 968.724 1090.64 968.568 1090.6 968.408C1090.56 968.24 1090.54 968.06 1090.54 967.868C1090.54 967.62 1090.57 967.364 1090.64 967.1C1090.72 966.836 1090.85 966.536 1091.03 966.2C1090.72 966.408 1090.38 966.572 1090.01 966.692C1089.63 966.804 1089.2 966.86 1088.72 966.86C1088.26 966.86 1087.82 966.784 1087.42 966.632C1087.02 966.48 1086.66 966.256 1086.36 965.96C1086.06 965.664 1085.82 965.296 1085.64 964.856C1085.46 964.408 1085.38 963.888 1085.38 963.296C1085.38 962.72 1085.48 962.156 1085.69 961.604C1085.9 961.044 1086.22 960.548 1086.62 960.116C1087.03 959.676 1087.54 959.324 1088.14 959.06C1088.74 958.796 1089.43 958.664 1090.21 958.664C1090.64 958.664 1091.06 958.716 1091.45 958.82C1091.84 958.924 1092.19 959.08 1092.5 959.288H1095.79ZM1099.41 962.228C1099.73 961.548 1100.08 960.96 1100.44 960.464C1100.82 959.96 1101.21 959.568 1101.62 959.288C1102.03 959 1102.45 958.828 1102.88 958.772C1103.31 958.708 1103.75 958.772 1104.2 958.964L1103.82 961.016C1102.78 960.6 1101.86 960.752 1101.06 961.472C1100.26 962.192 1099.62 963.492 1099.12 965.372L1098.45 971H1096.36L1097.83 958.832H1098.88C1099.37 958.832 1099.62 959.072 1099.62 959.552L1099.41 962.228ZM1112.24 960.332C1112.06 960.292 1111.89 960.268 1111.71 960.26C1111.54 960.244 1111.38 960.236 1111.21 960.236C1110.73 960.236 1110.26 960.316 1109.82 960.476C1109.37 960.628 1108.95 960.844 1108.56 961.124C1108.16 961.404 1107.81 961.74 1107.49 962.132C1107.17 962.516 1106.89 962.94 1106.66 963.404C1106.44 963.868 1106.26 964.364 1106.13 964.892C1106 965.412 1105.94 965.948 1105.94 966.5C1105.94 968.428 1106.56 969.392 1107.79 969.392C1108.18 969.392 1108.56 969.272 1108.94 969.032C1109.32 968.784 1109.67 968.444 1110.01 968.012C1110.35 967.572 1110.67 967.056 1110.96 966.464C1111.24 965.864 1111.5 965.208 1111.72 964.496L1112.24 960.332ZM1111.42 967.796C1111.14 968.308 1110.82 968.772 1110.49 969.188C1110.16 969.604 1109.81 969.96 1109.43 970.256C1109.06 970.544 1108.67 970.768 1108.26 970.928C1107.85 971.088 1107.42 971.168 1106.98 971.168C1106.5 971.168 1106.07 971.076 1105.68 970.892C1105.28 970.7 1104.95 970.424 1104.67 970.064C1104.4 969.696 1104.18 969.248 1104.03 968.72C1103.88 968.184 1103.8 967.572 1103.8 966.884C1103.8 966.164 1103.89 965.464 1104.07 964.784C1104.25 964.096 1104.51 963.448 1104.84 962.84C1105.17 962.232 1105.57 961.676 1106.04 961.172C1106.5 960.66 1107.02 960.22 1107.58 959.852C1108.16 959.476 1108.78 959.188 1109.43 958.988C1110.09 958.78 1110.78 958.676 1111.5 958.676C1112.02 958.676 1112.52 958.72 1113.01 958.808C1113.5 958.888 1113.99 959.032 1114.47 959.24L1113.02 971H1111.92C1111.64 971 1111.44 970.928 1111.34 970.784C1111.24 970.64 1111.2 970.464 1111.2 970.256L1111.42 967.796ZM1119.44 961.532C1120.08 960.588 1120.78 959.876 1121.54 959.396C1122.32 958.908 1123.11 958.664 1123.91 958.664C1124.43 958.664 1124.88 958.768 1125.28 958.976C1125.67 959.176 1125.98 959.472 1126.22 959.864C1126.47 960.256 1126.64 960.74 1126.73 961.316C1126.82 961.884 1126.82 962.532 1126.73 963.26L1125.82 971H1123.68L1124.59 963.26C1124.71 962.3 1124.66 961.588 1124.42 961.124C1124.19 960.66 1123.76 960.428 1123.13 960.428C1122.77 960.428 1122.4 960.528 1122.01 960.728C1121.63 960.92 1121.26 961.196 1120.9 961.556C1120.54 961.916 1120.21 962.352 1119.89 962.864C1119.58 963.376 1119.3 963.948 1119.07 964.58L1118.29 971H1116.17L1118.3 953.324H1120.44L1119.44 961.532ZM1137.2 960.332C1137.02 960.292 1136.85 960.268 1136.67 960.26C1136.5 960.244 1136.34 960.236 1136.17 960.236C1135.69 960.236 1135.22 960.316 1134.78 960.476C1134.33 960.628 1133.91 960.844 1133.52 961.124C1133.12 961.404 1132.77 961.74 1132.45 962.132C1132.13 962.516 1131.85 962.94 1131.62 963.404C1131.4 963.868 1131.22 964.364 1131.09 964.892C1130.96 965.412 1130.9 965.948 1130.9 966.5C1130.9 968.428 1131.52 969.392 1132.75 969.392C1133.14 969.392 1133.52 969.272 1133.9 969.032C1134.28 968.784 1134.63 968.444 1134.97 968.012C1135.31 967.572 1135.63 967.056 1135.92 966.464C1136.2 965.864 1136.46 965.208 1136.68 964.496L1137.2 960.332ZM1136.38 967.796C1136.1 968.308 1135.78 968.772 1135.45 969.188C1135.12 969.604 1134.77 969.96 1134.39 970.256C1134.02 970.544 1133.63 970.768 1133.22 970.928C1132.81 971.088 1132.38 971.168 1131.94 971.168C1131.46 971.168 1131.03 971.076 1130.64 970.892C1130.24 970.7 1129.91 970.424 1129.63 970.064C1129.36 969.696 1129.14 969.248 1128.99 968.72C1128.84 968.184 1128.76 967.572 1128.76 966.884C1128.76 966.164 1128.85 965.464 1129.03 964.784C1129.21 964.096 1129.47 963.448 1129.8 962.84C1130.13 962.232 1130.53 961.676 1131 961.172C1131.46 960.66 1131.98 960.22 1132.54 959.852C1133.12 959.476 1133.74 959.188 1134.39 958.988C1135.05 958.78 1135.74 958.676 1136.46 958.676C1136.98 958.676 1137.48 958.72 1137.97 958.808C1138.46 958.888 1138.95 959.032 1139.43 959.24L1137.98 971H1136.88C1136.6 971 1136.4 970.928 1136.3 970.784C1136.2 970.64 1136.16 970.464 1136.16 970.256L1136.38 967.796ZM1141.13 971L1142.59 958.832H1143.65C1144.14 958.832 1144.38 959.072 1144.38 959.552L1144.21 961.712C1144.81 960.712 1145.47 959.956 1146.18 959.444C1146.9 958.924 1147.65 958.664 1148.44 958.664C1149.26 958.664 1149.87 958.948 1150.26 959.516C1150.65 960.076 1150.85 960.88 1150.85 961.928C1151.45 960.816 1152.13 959.996 1152.88 959.468C1153.64 958.932 1154.44 958.664 1155.28 958.664C1156.32 958.664 1157.05 959.064 1157.49 959.864C1157.92 960.664 1158.05 961.796 1157.87 963.26L1156.96 971H1154.85L1155.77 963.26C1155.88 962.308 1155.85 961.6 1155.67 961.136C1155.51 960.672 1155.12 960.44 1154.52 960.44C1154.18 960.44 1153.83 960.528 1153.49 960.704C1153.15 960.872 1152.83 961.124 1152.51 961.46C1152.19 961.788 1151.89 962.2 1151.61 962.696C1151.33 963.184 1151.09 963.748 1150.87 964.388V964.4L1150.09 971H1147.98L1148.89 963.26C1149.01 962.308 1149 961.6 1148.85 961.136C1148.69 960.672 1148.32 960.44 1147.72 960.44C1147.33 960.44 1146.96 960.536 1146.6 960.728C1146.25 960.92 1145.91 961.2 1145.59 961.568C1145.28 961.928 1144.99 962.372 1144.72 962.9C1144.45 963.42 1144.2 964.008 1143.97 964.664L1143.22 971H1141.13ZM1159.94 969.68C1159.94 969.472 1159.97 969.276 1160.04 969.092C1160.12 968.908 1160.23 968.748 1160.36 968.612C1160.49 968.476 1160.65 968.368 1160.84 968.288C1161.02 968.208 1161.22 968.168 1161.42 968.168C1161.63 968.168 1161.83 968.208 1162.01 968.288C1162.2 968.368 1162.36 968.476 1162.49 968.612C1162.63 968.748 1162.74 968.908 1162.82 969.092C1162.9 969.276 1162.94 969.472 1162.94 969.68C1162.94 969.896 1162.9 970.096 1162.82 970.28C1162.74 970.456 1162.63 970.612 1162.49 970.748C1162.36 970.884 1162.2 970.988 1162.01 971.06C1161.83 971.14 1161.63 971.18 1161.42 971.18C1161.22 971.18 1161.02 971.14 1160.84 971.06C1160.65 970.988 1160.49 970.884 1160.36 970.748C1160.23 970.612 1160.12 970.456 1160.04 970.28C1159.97 970.096 1159.94 969.896 1159.94 969.68ZM1174.75 968.816C1174.34 969.272 1173.94 969.652 1173.57 969.956C1173.19 970.26 1172.81 970.504 1172.44 970.688C1172.06 970.864 1171.67 970.988 1171.26 971.06C1170.86 971.132 1170.43 971.168 1169.97 971.168C1169.26 971.168 1168.64 971.048 1168.09 970.808C1167.56 970.568 1167.11 970.232 1166.74 969.8C1166.38 969.36 1166.1 968.836 1165.91 968.228C1165.73 967.612 1165.63 966.936 1165.63 966.2C1165.63 965.216 1165.79 964.272 1166.09 963.368C1166.4 962.464 1166.83 961.664 1167.39 960.968C1167.94 960.272 1168.59 959.716 1169.35 959.3C1170.12 958.884 1170.96 958.676 1171.86 958.676C1172.67 958.676 1173.35 958.82 1173.89 959.108C1174.43 959.388 1174.91 959.8 1175.32 960.344L1174.65 961.148C1174.59 961.212 1174.53 961.264 1174.45 961.304C1174.39 961.344 1174.31 961.364 1174.23 961.364C1174.11 961.364 1174 961.316 1173.89 961.22C1173.79 961.116 1173.65 961.004 1173.47 960.884C1173.29 960.756 1173.07 960.644 1172.81 960.548C1172.55 960.444 1172.22 960.392 1171.81 960.392C1171.26 960.392 1170.74 960.544 1170.25 960.848C1169.77 961.144 1169.34 961.552 1168.97 962.072C1168.6 962.592 1168.31 963.208 1168.09 963.92C1167.89 964.632 1167.78 965.396 1167.78 966.212C1167.78 966.708 1167.84 967.16 1167.95 967.568C1168.06 967.968 1168.23 968.312 1168.45 968.6C1168.68 968.88 1168.95 969.1 1169.27 969.26C1169.6 969.412 1169.98 969.488 1170.41 969.488C1170.95 969.488 1171.39 969.408 1171.75 969.248C1172.12 969.088 1172.43 968.916 1172.68 968.732C1172.93 968.54 1173.13 968.364 1173.3 968.204C1173.48 968.044 1173.65 967.964 1173.82 967.964C1173.97 967.964 1174.11 968.032 1174.23 968.168L1174.75 968.816ZM1181.04 969.5C1181.62 969.5 1182.15 969.34 1182.62 969.02C1183.1 968.7 1183.51 968.276 1183.85 967.748C1184.19 967.212 1184.45 966.596 1184.64 965.9C1184.82 965.204 1184.91 964.476 1184.91 963.716C1184.91 962.596 1184.69 961.756 1184.24 961.196C1183.8 960.628 1183.17 960.344 1182.33 960.344C1181.74 960.344 1181.21 960.504 1180.73 960.824C1180.25 961.136 1179.85 961.556 1179.51 962.084C1179.18 962.612 1178.92 963.224 1178.73 963.92C1178.55 964.616 1178.46 965.344 1178.46 966.104C1178.46 967.224 1178.68 968.072 1179.12 968.648C1179.56 969.216 1180.2 969.5 1181.04 969.5ZM1180.83 971.168C1180.17 971.168 1179.56 971.056 1179.01 970.832C1178.46 970.6 1177.98 970.268 1177.58 969.836C1177.18 969.404 1176.87 968.876 1176.65 968.252C1176.42 967.628 1176.31 966.916 1176.31 966.116C1176.31 965.092 1176.47 964.128 1176.79 963.224C1177.11 962.32 1177.55 961.532 1178.11 960.86C1178.67 960.18 1179.33 959.644 1180.08 959.252C1180.84 958.86 1181.65 958.664 1182.53 958.664C1183.19 958.664 1183.8 958.78 1184.35 959.012C1184.9 959.236 1185.38 959.564 1185.78 959.996C1186.18 960.428 1186.49 960.956 1186.71 961.58C1186.94 962.204 1187.05 962.912 1187.05 963.704C1187.05 964.72 1186.89 965.68 1186.57 966.584C1186.25 967.488 1185.81 968.28 1185.25 968.96C1184.7 969.64 1184.04 970.18 1183.28 970.58C1182.52 970.972 1181.71 971.168 1180.83 971.168ZM1188.75 971L1190.22 958.832H1191.27C1191.76 958.832 1192.01 959.072 1192.01 959.552L1191.84 961.712C1192.44 960.712 1193.09 959.956 1193.81 959.444C1194.53 958.924 1195.28 958.664 1196.06 958.664C1196.89 958.664 1197.49 958.948 1197.89 959.516C1198.28 960.076 1198.47 960.88 1198.47 961.928C1199.07 960.816 1199.75 959.996 1200.5 959.468C1201.26 958.932 1202.06 958.664 1202.9 958.664C1203.94 958.664 1204.68 959.064 1205.11 959.864C1205.54 960.664 1205.67 961.796 1205.49 963.26L1204.58 971H1202.47L1203.39 963.26C1203.51 962.308 1203.47 961.6 1203.3 961.136C1203.13 960.672 1202.75 960.44 1202.15 960.44C1201.8 960.44 1201.46 960.528 1201.11 960.704C1200.78 960.872 1200.45 961.124 1200.13 961.46C1199.81 961.788 1199.51 962.2 1199.23 962.696C1198.96 963.184 1198.71 963.748 1198.5 964.388V964.4L1197.72 971H1195.61L1196.52 963.26C1196.64 962.308 1196.62 961.6 1196.47 961.136C1196.32 960.672 1195.94 960.44 1195.34 960.44C1194.96 960.44 1194.59 960.536 1194.23 960.728C1193.87 960.92 1193.54 961.2 1193.22 961.568C1192.91 961.928 1192.61 962.372 1192.34 962.9C1192.07 963.42 1191.82 964.008 1191.6 964.664L1190.84 971H1188.75ZM1208.77 971.3C1208.65 971.556 1208.47 971.752 1208.23 971.888C1208 972.024 1207.78 972.092 1207.56 972.092H1206.69L1215.39 954.344C1215.51 954.112 1215.67 953.928 1215.87 953.792C1216.07 953.656 1216.29 953.588 1216.55 953.588H1217.43L1208.77 971.3ZM1224.93 960.332C1224.75 960.292 1224.57 960.268 1224.4 960.26C1224.23 960.244 1224.06 960.236 1223.89 960.236C1223.41 960.236 1222.95 960.316 1222.5 960.476C1222.05 960.628 1221.63 960.844 1221.24 961.124C1220.85 961.404 1220.49 961.74 1220.17 962.132C1219.85 962.516 1219.58 962.94 1219.35 963.404C1219.12 963.868 1218.95 964.364 1218.82 964.892C1218.69 965.412 1218.63 965.948 1218.63 966.5C1218.63 968.428 1219.24 969.392 1220.47 969.392C1220.87 969.392 1221.25 969.272 1221.63 969.032C1222 968.784 1222.36 968.444 1222.69 968.012C1223.04 967.572 1223.35 967.056 1223.64 966.464C1223.93 965.864 1224.19 965.208 1224.41 964.496L1224.93 960.332ZM1224.11 967.796C1223.82 968.308 1223.51 968.772 1223.17 969.188C1222.85 969.604 1222.49 969.96 1222.12 970.256C1221.75 970.544 1221.36 970.768 1220.94 970.928C1220.53 971.088 1220.11 971.168 1219.67 971.168C1219.19 971.168 1218.75 971.076 1218.36 970.892C1217.97 970.7 1217.63 970.424 1217.35 970.064C1217.08 969.696 1216.87 969.248 1216.72 968.72C1216.57 968.184 1216.49 967.572 1216.49 966.884C1216.49 966.164 1216.58 965.464 1216.75 964.784C1216.94 964.096 1217.19 963.448 1217.52 962.84C1217.86 962.232 1218.26 961.676 1218.72 961.172C1219.19 960.66 1219.7 960.22 1220.27 959.852C1220.85 959.476 1221.46 959.188 1222.12 958.988C1222.77 958.78 1223.46 958.676 1224.18 958.676C1224.7 958.676 1225.21 958.72 1225.69 958.808C1226.19 958.888 1226.68 959.032 1227.16 959.24L1225.71 971H1224.6C1224.32 971 1224.13 970.928 1224.03 970.784C1223.93 970.64 1223.88 970.464 1223.88 970.256L1224.11 967.796ZM1240 958.844L1233.91 971H1232.13L1228.99 958.844H1230.72C1230.88 958.844 1231 958.888 1231.1 958.976C1231.2 959.064 1231.26 959.168 1231.29 959.288L1233.09 967.112C1233.14 967.416 1233.18 967.716 1233.21 968.012C1233.24 968.308 1233.27 968.608 1233.3 968.912C1233.38 968.616 1233.48 968.32 1233.58 968.024C1233.69 967.728 1233.81 967.424 1233.94 967.112L1237.7 959.288C1237.76 959.16 1237.85 959.056 1237.96 958.976C1238.08 958.888 1238.2 958.844 1238.35 958.844H1240ZM1244.67 965.516C1245.1 965.516 1245.48 965.424 1245.81 965.24C1246.14 965.048 1246.42 964.8 1246.65 964.496C1246.88 964.184 1247.05 963.836 1247.17 963.452C1247.29 963.068 1247.35 962.68 1247.35 962.288C1247.35 961.584 1247.17 961.052 1246.81 960.692C1246.46 960.332 1245.97 960.152 1245.35 960.152C1244.92 960.152 1244.54 960.24 1244.21 960.416C1243.88 960.592 1243.6 960.828 1243.37 961.124C1243.15 961.42 1242.97 961.756 1242.85 962.132C1242.74 962.508 1242.69 962.9 1242.69 963.308C1242.69 964.028 1242.86 964.576 1243.2 964.952C1243.55 965.328 1244.04 965.516 1244.67 965.516ZM1247.08 971.3C1247.08 971.084 1247.06 970.888 1247.02 970.712C1246.98 970.528 1246.93 970.356 1246.86 970.196C1245.81 970.028 1244.89 969.968 1244.13 970.016C1243.36 970.056 1242.72 970.172 1242.22 970.364C1241.72 970.556 1241.35 970.804 1241.11 971.108C1240.87 971.412 1240.75 971.74 1240.75 972.092C1240.75 972.668 1240.99 973.108 1241.47 973.412C1241.96 973.716 1242.65 973.868 1243.54 973.868C1244.07 973.868 1244.55 973.796 1244.98 973.652C1245.42 973.516 1245.79 973.332 1246.09 973.1C1246.41 972.868 1246.65 972.596 1246.81 972.284C1246.99 971.972 1247.08 971.644 1247.08 971.3ZM1251.16 959.288L1251.07 959.996C1251.03 960.284 1250.87 960.476 1250.59 960.572L1249.07 960.836C1249.22 961.252 1249.3 961.712 1249.3 962.216C1249.3 962.616 1249.25 962.976 1249.15 963.296C1249.07 963.616 1248.95 963.912 1248.82 964.184C1248.68 964.456 1248.53 964.712 1248.37 964.952C1248.21 965.192 1248.07 965.432 1247.93 965.672C1247.79 965.904 1247.68 966.148 1247.58 966.404C1247.49 966.652 1247.45 966.924 1247.45 967.22C1247.45 967.436 1247.49 967.644 1247.56 967.844C1247.64 968.036 1247.73 968.228 1247.85 968.42C1247.97 968.604 1248.09 968.792 1248.23 968.984C1248.37 969.176 1248.5 969.38 1248.61 969.596C1248.73 969.812 1248.83 970.048 1248.9 970.304C1248.98 970.552 1249.02 970.828 1249.02 971.132C1249.01 971.7 1248.88 972.236 1248.61 972.74C1248.35 973.252 1247.97 973.704 1247.49 974.096C1247 974.488 1246.41 974.796 1245.71 975.02C1245.01 975.252 1244.23 975.368 1243.36 975.368C1242.66 975.368 1242.03 975.296 1241.45 975.152C1240.88 975.008 1240.39 974.804 1239.99 974.54C1239.59 974.276 1239.28 973.956 1239.06 973.58C1238.84 973.212 1238.73 972.804 1238.73 972.356C1238.73 971.844 1238.83 971.392 1239.05 971C1239.27 970.608 1239.56 970.272 1239.93 969.992C1240.29 969.704 1240.72 969.468 1241.21 969.284C1241.7 969.1 1242.21 968.964 1242.76 968.876C1243.31 968.788 1243.87 968.748 1244.45 968.756C1245.03 968.756 1245.59 968.796 1246.14 968.876C1246.07 968.724 1246.01 968.568 1245.96 968.408C1245.92 968.24 1245.9 968.06 1245.9 967.868C1245.9 967.62 1245.94 967.364 1246.01 967.1C1246.09 966.836 1246.22 966.536 1246.39 966.2C1246.09 966.408 1245.75 966.572 1245.37 966.692C1245 966.804 1244.57 966.86 1244.09 966.86C1243.63 966.86 1243.19 966.784 1242.78 966.632C1242.38 966.48 1242.03 966.256 1241.73 965.96C1241.42 965.664 1241.18 965.296 1241.01 964.856C1240.83 964.408 1240.74 963.888 1240.74 963.296C1240.74 962.72 1240.85 962.156 1241.05 961.604C1241.27 961.044 1241.58 960.548 1241.99 960.116C1242.4 959.676 1242.9 959.324 1243.5 959.06C1244.1 958.796 1244.79 958.664 1245.58 958.664C1246.01 958.664 1246.42 958.716 1246.81 958.82C1247.21 958.924 1247.56 959.08 1247.87 959.288H1251.16ZM1251.65 969.68C1251.65 969.472 1251.68 969.276 1251.76 969.092C1251.84 968.908 1251.94 968.748 1252.07 968.612C1252.2 968.476 1252.36 968.368 1252.55 968.288C1252.73 968.208 1252.93 968.168 1253.14 968.168C1253.34 968.168 1253.54 968.208 1253.72 968.288C1253.91 968.368 1254.07 968.476 1254.2 968.612C1254.34 968.748 1254.45 968.908 1254.53 969.092C1254.61 969.276 1254.65 969.472 1254.65 969.68C1254.65 969.896 1254.61 970.096 1254.53 970.28C1254.45 970.456 1254.34 970.612 1254.2 970.748C1254.07 970.884 1253.91 970.988 1253.72 971.06C1253.54 971.14 1253.34 971.18 1253.14 971.18C1252.93 971.18 1252.73 971.14 1252.55 971.06C1252.36 970.988 1252.2 970.884 1252.07 970.748C1251.94 970.612 1251.84 970.456 1251.76 970.28C1251.68 970.096 1251.65 969.896 1251.65 969.68ZM1260.63 961.532C1261.26 960.588 1261.96 959.876 1262.73 959.396C1263.51 958.908 1264.3 958.664 1265.1 958.664C1265.62 958.664 1266.07 958.768 1266.46 958.976C1266.86 959.176 1267.17 959.472 1267.41 959.864C1267.66 960.256 1267.83 960.74 1267.92 961.316C1268 961.884 1268 962.532 1267.92 963.26L1267 971H1264.87L1265.78 963.26C1265.9 962.3 1265.84 961.588 1265.61 961.124C1265.38 960.66 1264.95 960.428 1264.32 960.428C1263.96 960.428 1263.58 960.528 1263.2 960.728C1262.82 960.92 1262.44 961.196 1262.08 961.556C1261.73 961.916 1261.4 962.352 1261.08 962.864C1260.76 963.376 1260.49 963.948 1260.26 964.58L1259.48 971H1257.36L1259.49 953.324H1261.63L1260.63 961.532ZM1270.88 968.708C1270.88 968.66 1270.88 968.6 1270.88 968.528C1270.88 968.448 1270.88 968.336 1270.89 968.192C1270.91 968.048 1270.93 967.86 1270.95 967.628C1270.98 967.396 1271.02 967.092 1271.07 966.716L1271.81 960.632H1270.46C1270.35 960.632 1270.25 960.596 1270.18 960.524C1270.12 960.444 1270.09 960.324 1270.11 960.164L1270.21 959.312L1272.08 959.06L1272.99 955.304C1273.03 955.184 1273.09 955.088 1273.17 955.016C1273.26 954.936 1273.37 954.896 1273.49 954.896H1274.61L1274.09 959.084H1277.29L1277.11 960.632H1273.9L1273.17 966.608C1273.13 966.936 1273.1 967.2 1273.07 967.4C1273.05 967.6 1273.03 967.76 1273.01 967.88C1273.01 968 1273 968.084 1272.99 968.132C1272.99 968.18 1272.99 968.216 1272.99 968.24C1272.99 968.648 1273.09 968.952 1273.28 969.152C1273.47 969.344 1273.73 969.44 1274.05 969.44C1274.26 969.44 1274.45 969.412 1274.6 969.356C1274.76 969.292 1274.9 969.224 1275.02 969.152C1275.14 969.08 1275.24 969.016 1275.32 968.96C1275.4 968.896 1275.47 968.864 1275.52 968.864C1275.59 968.864 1275.65 968.88 1275.68 968.912C1275.72 968.944 1275.75 968.996 1275.79 969.068L1276.24 970.088C1275.85 970.432 1275.4 970.704 1274.9 970.904C1274.4 971.096 1273.9 971.192 1273.4 971.192C1272.62 971.192 1272.01 970.98 1271.56 970.556C1271.12 970.132 1270.89 969.516 1270.88 968.708ZM1278.43 971L1279.89 958.832H1280.95C1281.43 958.832 1281.68 959.072 1281.68 959.552L1281.51 961.712C1282.11 960.712 1282.77 959.956 1283.48 959.444C1284.2 958.924 1284.95 958.664 1285.73 958.664C1286.56 958.664 1287.17 958.948 1287.56 959.516C1287.95 960.076 1288.15 960.88 1288.15 961.928C1288.75 960.816 1289.42 959.996 1290.17 959.468C1290.93 958.932 1291.73 958.664 1292.57 958.664C1293.61 958.664 1294.35 959.064 1294.78 959.864C1295.21 960.664 1295.34 961.796 1295.17 963.26L1294.25 971H1292.14L1293.07 963.26C1293.18 962.308 1293.15 961.6 1292.97 961.136C1292.8 960.672 1292.42 960.44 1291.82 960.44C1291.47 960.44 1291.13 960.528 1290.79 960.704C1290.45 960.872 1290.12 961.124 1289.8 961.46C1289.48 961.788 1289.18 962.2 1288.9 962.696C1288.63 963.184 1288.39 963.748 1288.17 964.388V964.4L1287.39 971H1285.28L1286.19 963.26C1286.31 962.308 1286.29 961.6 1286.14 961.136C1285.99 960.672 1285.61 960.44 1285.01 960.44C1284.63 960.44 1284.26 960.536 1283.9 960.728C1283.55 960.92 1283.21 961.2 1282.89 961.568C1282.58 961.928 1282.29 962.372 1282.01 962.9C1281.74 963.42 1281.49 964.008 1281.27 964.664L1280.51 971H1278.43ZM1297.38 971L1299.53 953.324H1301.63L1299.48 971H1297.38Z" fill="#74705D"/>
<path d="M423.48 359H414.12V297.56H379.752V359H370.44V290.216H423.48V359ZM463.964 337.112C460.028 337.24 456.668 337.56 453.884 338.072C451.132 338.552 448.876 339.192 447.116 339.992C445.388 340.792 444.124 341.736 443.324 342.824C442.556 343.912 442.172 345.128 442.172 346.472C442.172 347.752 442.38 348.856 442.796 349.784C443.212 350.712 443.772 351.48 444.476 352.088C445.212 352.664 446.06 353.096 447.02 353.384C448.012 353.64 449.068 353.768 450.188 353.768C451.692 353.768 453.068 353.624 454.316 353.336C455.564 353.016 456.732 352.568 457.82 351.992C458.94 351.416 459.996 350.728 460.988 349.928C462.012 349.128 463.004 348.216 463.964 347.192V337.112ZM436.364 317.24C439.052 314.648 441.948 312.712 445.052 311.432C448.156 310.152 451.596 309.512 455.372 309.512C458.092 309.512 460.508 309.96 462.62 310.856C464.732 311.752 466.508 313 467.948 314.6C469.388 316.2 470.476 318.136 471.212 320.408C471.948 322.68 472.316 325.176 472.316 327.896V359H468.524C467.692 359 467.052 358.872 466.604 358.616C466.156 358.328 465.804 357.784 465.548 356.984L464.588 352.376C463.308 353.56 462.06 354.616 460.844 355.544C459.628 356.44 458.348 357.208 457.004 357.848C455.66 358.456 454.22 358.92 452.684 359.24C451.18 359.592 449.5 359.768 447.644 359.768C445.756 359.768 443.98 359.512 442.316 359C440.652 358.456 439.196 357.656 437.948 356.6C436.732 355.544 435.756 354.216 435.02 352.616C434.316 350.984 433.964 349.064 433.964 346.856C433.964 344.936 434.492 343.096 435.548 341.336C436.604 339.544 438.316 337.96 440.684 336.584C443.052 335.208 446.14 334.088 449.948 333.224C453.756 332.328 458.428 331.816 463.964 331.688V327.896C463.964 324.12 463.148 321.272 461.516 319.352C459.884 317.4 457.5 316.424 454.364 316.424C452.252 316.424 450.476 316.696 449.036 317.24C447.628 317.752 446.396 318.344 445.34 319.016C444.316 319.656 443.42 320.248 442.652 320.792C441.916 321.304 441.18 321.56 440.444 321.56C439.868 321.56 439.372 321.416 438.956 321.128C438.54 320.808 438.188 320.424 437.9 319.976L436.364 317.24ZM493.923 347.288C495.491 349.4 497.203 350.888 499.059 351.752C500.915 352.616 502.995 353.048 505.299 353.048C509.843 353.048 513.331 351.432 515.763 348.2C518.195 344.968 519.411 340.36 519.411 334.376C519.411 331.208 519.123 328.488 518.547 326.216C518.003 323.944 517.203 322.088 516.147 320.648C515.091 319.176 513.795 318.104 512.259 317.432C510.723 316.76 508.979 316.424 507.027 316.424C504.243 316.424 501.795 317.064 499.683 318.344C497.603 319.624 495.683 321.432 493.923 323.768V347.288ZM493.491 317.912C495.539 315.384 497.907 313.352 500.595 311.816C503.283 310.28 506.355 309.512 509.811 309.512C512.627 309.512 515.171 310.056 517.443 311.144C519.715 312.2 521.651 313.784 523.251 315.896C524.851 317.976 526.083 320.568 526.947 323.672C527.811 326.776 528.243 330.344 528.243 334.376C528.243 337.96 527.763 341.304 526.802 344.408C525.843 347.48 524.451 350.152 522.627 352.424C520.835 354.664 518.627 356.44 516.003 357.752C513.411 359.032 510.483 359.672 507.219 359.672C504.243 359.672 501.683 359.176 499.539 358.184C497.427 357.16 495.555 355.752 493.923 353.96V375.464H485.331V310.376H490.467C491.683 310.376 492.435 310.968 492.723 312.152L493.491 317.912ZM565.401 337.112C561.465 337.24 558.105 337.56 555.321 338.072C552.569 338.552 550.313 339.192 548.553 339.992C546.825 340.792 545.561 341.736 544.761 342.824C543.993 343.912 543.609 345.128 543.609 346.472C543.609 347.752 543.817 348.856 544.233 349.784C544.649 350.712 545.209 351.48 545.913 352.088C546.649 352.664 547.497 353.096 548.457 353.384C549.449 353.64 550.505 353.768 551.625 353.768C553.129 353.768 554.505 353.624 555.753 353.336C557.001 353.016 558.169 352.568 559.257 351.992C560.377 351.416 561.433 350.728 562.425 349.928C563.449 349.128 564.441 348.216 565.401 347.192V337.112ZM537.801 317.24C540.489 314.648 543.385 312.712 546.489 311.432C549.593 310.152 553.033 309.512 556.809 309.512C559.529 309.512 561.945 309.96 564.057 310.856C566.169 311.752 567.945 313 569.385 314.6C570.825 316.2 571.913 318.136 572.649 320.408C573.385 322.68 573.753 325.176 573.753 327.896V359H569.961C569.129 359 568.489 358.872 568.041 358.616C567.593 358.328 567.241 357.784 566.985 356.984L566.025 352.376C564.745 353.56 563.497 354.616 562.281 355.544C561.065 356.44 559.785 357.208 558.441 357.848C557.097 358.456 555.657 358.92 554.121 359.24C552.617 359.592 550.937 359.768 549.081 359.768C547.193 359.768 545.417 359.512 543.753 359C542.089 358.456 540.633 357.656 539.385 356.6C538.169 355.544 537.193 354.216 536.457 352.616C535.753 350.984 535.401 349.064 535.401 346.856C535.401 344.936 535.929 343.096 536.985 341.336C538.041 339.544 539.753 337.96 542.121 336.584C544.489 335.208 547.577 334.088 551.385 333.224C555.193 332.328 559.865 331.816 565.401 331.688V327.896C565.401 324.12 564.585 321.272 562.953 319.352C561.321 317.4 558.937 316.424 555.801 316.424C553.689 316.424 551.913 316.696 550.473 317.24C549.065 317.752 547.833 318.344 546.777 319.016C545.753 319.656 544.857 320.248 544.089 320.792C543.353 321.304 542.617 321.56 541.881 321.56C541.305 321.56 540.809 321.416 540.393 321.128C539.977 320.808 539.625 320.424 539.337 319.976L537.801 317.24ZM620.272 352.76V317.096H604.864C604.544 322.088 604.096 326.504 603.52 330.344C602.944 334.184 602.272 337.56 601.504 340.472C600.768 343.352 599.936 345.8 599.008 347.816C598.112 349.832 597.168 351.48 596.176 352.76H620.272ZM637.456 352.52V373.112C637.456 373.944 637.216 374.584 636.736 375.032C636.288 375.512 635.696 375.752 634.96 375.752H629.728V359H588.832V373.304C588.832 373.912 588.64 374.472 588.256 374.984C587.904 375.496 587.312 375.752 586.48 375.752H581.104V352.76H582.688C583.808 352.76 584.912 352.568 586 352.184C587.12 351.8 588.192 351.08 589.216 350.024C590.24 348.936 591.2 347.416 592.096 345.464C593.024 343.512 593.856 340.968 594.592 337.832C595.328 334.696 595.968 330.888 596.512 326.408C597.056 321.896 597.488 316.552 597.808 310.376H628.576V352.52H637.456ZM665.764 309.608C669.316 309.608 672.516 310.2 675.364 311.384C678.212 312.568 680.644 314.248 682.66 316.424C684.676 318.6 686.212 321.24 687.268 324.344C688.356 327.416 688.9 330.856 688.9 334.664C688.9 338.504 688.356 341.96 687.268 345.032C686.212 348.104 684.676 350.728 682.66 352.904C680.644 355.08 678.212 356.76 675.364 357.944C672.516 359.096 669.316 359.672 665.764 359.672C662.18 359.672 658.948 359.096 656.068 357.944C653.22 356.76 650.788 355.08 648.772 352.904C646.756 350.728 645.204 348.104 644.116 345.032C643.06 341.96 642.532 338.504 642.532 334.664C642.532 330.856 643.06 327.416 644.116 324.344C645.204 321.24 646.756 318.6 648.772 316.424C650.788 314.248 653.22 312.568 656.068 311.384C658.948 310.2 662.18 309.608 665.764 309.608ZM665.764 353C670.564 353 674.148 351.4 676.516 348.2C678.884 344.968 680.068 340.472 680.068 334.712C680.068 328.92 678.884 324.408 676.516 321.176C674.148 317.944 670.564 316.328 665.764 316.328C663.332 316.328 661.204 316.744 659.38 317.576C657.588 318.408 656.084 319.608 654.868 321.176C653.684 322.744 652.788 324.68 652.18 326.984C651.604 329.256 651.316 331.832 651.316 334.712C651.316 340.472 652.5 344.968 654.868 348.2C657.268 351.4 660.9 353 665.764 353ZM729.257 312.776C729.705 312.072 730.297 311.496 731.033 311.048C731.769 310.6 732.553 310.376 733.385 310.376H740.057L727.433 328.904C726.665 330.088 725.865 331.064 725.033 331.832C724.201 332.568 723.177 333.144 721.961 333.56C723.497 333.976 724.793 334.632 725.849 335.528C726.905 336.392 727.849 337.512 728.681 338.888L741.449 359H735.497C733.961 359 732.777 358.744 731.945 358.232C731.113 357.72 730.393 356.984 729.785 356.024L720.329 340.904C718.825 338.408 716.569 337.16 713.561 337.16H708.329V359.048H699.737V310.376H708.329V331.4H712.937C715.497 331.4 717.497 330.312 718.937 328.136L729.257 312.776ZM781.389 319.016C781.133 319.368 780.877 319.64 780.621 319.832C780.365 320.024 780.013 320.12 779.565 320.12C779.085 320.12 778.557 319.928 777.981 319.544C777.405 319.128 776.685 318.68 775.821 318.2C774.989 317.72 773.949 317.288 772.701 316.904C771.485 316.488 769.981 316.28 768.189 316.28C765.789 316.28 763.677 316.712 761.853 317.576C760.029 318.408 758.493 319.624 757.245 321.224C756.029 322.824 755.101 324.76 754.461 327.032C753.853 329.304 753.549 331.848 753.549 334.664C753.549 337.608 753.885 340.232 754.557 342.536C755.229 344.808 756.173 346.728 757.389 348.296C758.637 349.832 760.125 351.016 761.853 351.848C763.613 352.648 765.581 353.048 767.757 353.048C769.837 353.048 771.549 352.808 772.893 352.328C774.237 351.816 775.341 351.256 776.205 350.648C777.101 350.04 777.837 349.496 778.413 349.016C779.021 348.504 779.613 348.248 780.189 348.248C780.893 348.248 781.437 348.52 781.821 349.064L784.221 352.184C783.165 353.496 781.965 354.616 780.621 355.544C779.277 356.472 777.821 357.256 776.253 357.896C774.717 358.504 773.101 358.952 771.405 359.24C769.709 359.528 767.981 359.672 766.221 359.672C763.181 359.672 760.349 359.112 757.725 357.992C755.133 356.872 752.877 355.256 750.957 353.144C749.037 351 747.533 348.376 746.445 345.272C745.357 342.168 744.813 338.632 744.813 334.664C744.813 331.048 745.309 327.704 746.301 324.632C747.325 321.56 748.797 318.92 750.717 316.712C752.669 314.472 755.053 312.728 757.869 311.48C760.717 310.232 763.981 309.608 767.661 309.608C771.085 309.608 774.093 310.168 776.685 311.288C779.309 312.376 781.629 313.928 783.645 315.944L781.389 319.016ZM842.58 351.608C845.236 351.608 847.508 351.304 849.396 350.696C851.316 350.088 852.868 349.256 854.052 348.2C855.268 347.112 856.148 345.816 856.692 344.312C857.268 342.776 857.556 341.096 857.556 339.272C857.556 337.352 857.268 335.656 856.692 334.184C856.148 332.68 855.268 331.416 854.052 330.392C852.868 329.336 851.332 328.552 849.444 328.04C847.556 327.496 845.284 327.224 842.628 327.224H829.236V351.608H842.58ZM842.628 319.832C846.82 319.832 850.436 320.296 853.476 321.224C856.516 322.12 859.012 323.4 860.964 325.064C862.948 326.696 864.404 328.648 865.332 330.92C866.292 333.192 866.772 335.672 866.772 338.36C866.772 341.528 866.228 344.392 865.14 346.952C864.084 349.48 862.516 351.64 860.436 353.432C858.388 355.224 855.86 356.6 852.852 357.56C849.844 358.52 846.42 359 842.58 359H819.972V290.216H864.42V297.56H829.236V319.832H842.628ZM918.986 359H910.442V317.096H895.082C894.698 323.272 894.122 328.616 893.354 333.128C892.586 337.608 891.658 341.432 890.57 344.6C889.514 347.736 888.314 350.296 886.97 352.28C885.658 354.232 884.266 355.752 882.794 356.84C881.354 357.928 879.85 358.664 878.282 359.048C876.746 359.432 875.21 359.624 873.674 359.624C870.954 359.624 869.594 359.192 869.594 358.328V352.904H872.09C873.178 352.904 874.282 352.712 875.402 352.328C876.522 351.944 877.61 351.208 878.666 350.12C879.754 349.032 880.794 347.512 881.786 345.56C882.778 343.576 883.674 341.016 884.474 337.88C885.306 334.712 886.01 330.888 886.586 326.408C887.194 321.896 887.658 316.552 887.978 310.376H918.986V359ZM958.87 337.112C954.934 337.24 951.574 337.56 948.79 338.072C946.038 338.552 943.782 339.192 942.022 339.992C940.294 340.792 939.03 341.736 938.23 342.824C937.462 343.912 937.078 345.128 937.078 346.472C937.078 347.752 937.286 348.856 937.702 349.784C938.118 350.712 938.678 351.48 939.382 352.088C940.118 352.664 940.966 353.096 941.926 353.384C942.918 353.64 943.974 353.768 945.094 353.768C946.598 353.768 947.974 353.624 949.222 353.336C950.47 353.016 951.638 352.568 952.726 351.992C953.846 351.416 954.902 350.728 955.894 349.928C956.918 349.128 957.91 348.216 958.87 347.192V337.112ZM931.27 317.24C933.958 314.648 936.854 312.712 939.958 311.432C943.062 310.152 946.502 309.512 950.278 309.512C952.998 309.512 955.414 309.96 957.526 310.856C959.638 311.752 961.414 313 962.854 314.6C964.294 316.2 965.382 318.136 966.118 320.408C966.854 322.68 967.222 325.176 967.222 327.896V359H963.43C962.598 359 961.958 358.872 961.51 358.616C961.062 358.328 960.71 357.784 960.454 356.984L959.494 352.376C958.214 353.56 956.966 354.616 955.75 355.544C954.534 356.44 953.254 357.208 951.91 357.848C950.566 358.456 949.126 358.92 947.59 359.24C946.086 359.592 944.406 359.768 942.55 359.768C940.662 359.768 938.886 359.512 937.222 359C935.558 358.456 934.102 357.656 932.854 356.6C931.638 355.544 930.662 354.216 929.926 352.616C929.222 350.984 928.87 349.064 928.87 346.856C928.87 344.936 929.398 343.096 930.454 341.336C931.51 339.544 933.222 337.96 935.59 336.584C937.958 335.208 941.046 334.088 944.854 333.224C948.662 332.328 953.334 331.816 958.87 331.688V327.896C958.87 324.12 958.054 321.272 956.422 319.352C954.79 317.4 952.406 316.424 949.27 316.424C947.158 316.424 945.382 316.696 943.942 317.24C942.534 317.752 941.302 318.344 940.246 319.016C939.222 319.656 938.326 320.248 937.558 320.792C936.822 321.304 936.086 321.56 935.35 321.56C934.774 321.56 934.278 321.416 933.862 321.128C933.446 320.808 933.094 320.424 932.806 319.976L931.27 317.24ZM1002.17 353.336C1006.97 353.336 1010.59 351.816 1013.02 348.776C1015.48 345.704 1016.72 341.416 1016.72 335.912C1016.72 330.44 1015.53 326.168 1013.16 323.096C1010.83 320.024 1007.31 318.488 1002.6 318.488C1000.33 318.488 998.285 318.856 996.461 319.592C994.637 320.296 993.085 321.336 991.805 322.712C990.557 324.088 989.581 325.784 988.877 327.8C988.205 329.816 987.869 332.12 987.869 334.712C987.869 337.624 988.173 340.232 988.781 342.536C989.389 344.84 990.285 346.792 991.469 348.392C992.685 349.992 994.173 351.224 995.933 352.088C997.725 352.92 999.805 353.336 1002.17 353.336ZM1005.48 298.952C1002.22 299.24 999.421 299.96 997.085 301.112C994.781 302.264 992.861 303.832 991.325 305.816C989.789 307.768 988.637 310.12 987.869 312.872C987.101 315.624 986.653 318.728 986.525 322.184C987.293 320.648 988.285 319.272 989.501 318.056C990.717 316.808 992.109 315.752 993.677 314.888C995.245 313.992 996.941 313.32 998.765 312.872C1000.62 312.392 1002.59 312.152 1004.67 312.152C1007.9 312.152 1010.8 312.728 1013.36 313.88C1015.95 315 1018.14 316.6 1019.93 318.68C1021.76 320.76 1023.15 323.272 1024.11 326.216C1025.07 329.128 1025.55 332.36 1025.55 335.912C1025.55 339.528 1024.99 342.808 1023.87 345.752C1022.78 348.664 1021.21 351.16 1019.16 353.24C1017.12 355.288 1014.65 356.872 1011.77 357.992C1008.92 359.112 1005.72 359.672 1002.17 359.672C998.909 359.672 995.853 359.128 993.005 358.04C990.157 356.952 987.693 355.16 985.613 352.664C983.533 350.168 981.885 346.888 980.669 342.824C979.485 338.728 978.893 333.688 978.893 327.704C978.893 322.584 979.357 317.88 980.285 313.592C981.213 309.304 982.701 305.576 984.749 302.408C986.829 299.24 989.501 296.696 992.765 294.776C996.061 292.824 1000.06 291.64 1004.76 291.224L1022.14 289.736L1022.62 294.152C1022.72 295.144 1022.57 295.976 1022.19 296.648C1021.8 297.32 1021.12 297.688 1020.12 297.752L1005.48 298.952ZM1062.75 337.112C1058.81 337.24 1055.45 337.56 1052.67 338.072C1049.91 338.552 1047.66 339.192 1045.9 339.992C1044.17 340.792 1042.91 341.736 1042.11 342.824C1041.34 343.912 1040.95 345.128 1040.95 346.472C1040.95 347.752 1041.16 348.856 1041.58 349.784C1041.99 350.712 1042.55 351.48 1043.26 352.088C1043.99 352.664 1044.84 353.096 1045.8 353.384C1046.79 353.64 1047.85 353.768 1048.97 353.768C1050.47 353.768 1051.85 353.624 1053.1 353.336C1054.35 353.016 1055.51 352.568 1056.6 351.992C1057.72 351.416 1058.78 350.728 1059.77 349.928C1060.79 349.128 1061.79 348.216 1062.75 347.192V337.112ZM1035.15 317.24C1037.83 314.648 1040.73 312.712 1043.83 311.432C1046.94 310.152 1050.38 309.512 1054.15 309.512C1056.87 309.512 1059.29 309.96 1061.4 310.856C1063.51 311.752 1065.29 313 1066.73 314.6C1068.17 316.2 1069.26 318.136 1069.99 320.408C1070.73 322.68 1071.1 325.176 1071.1 327.896V359H1067.31C1066.47 359 1065.83 358.872 1065.39 358.616C1064.94 358.328 1064.59 357.784 1064.33 356.984L1063.37 352.376C1062.09 353.56 1060.84 354.616 1059.62 355.544C1058.41 356.44 1057.13 357.208 1055.79 357.848C1054.44 358.456 1053 358.92 1051.47 359.24C1049.96 359.592 1048.28 359.768 1046.43 359.768C1044.54 359.768 1042.76 359.512 1041.1 359C1039.43 358.456 1037.98 357.656 1036.73 356.6C1035.51 355.544 1034.54 354.216 1033.8 352.616C1033.1 350.984 1032.75 349.064 1032.75 346.856C1032.75 344.936 1033.27 343.096 1034.33 341.336C1035.39 339.544 1037.1 337.96 1039.47 336.584C1041.83 335.208 1044.92 334.088 1048.73 333.224C1052.54 332.328 1057.21 331.816 1062.75 331.688V327.896C1062.75 324.12 1061.93 321.272 1060.3 319.352C1058.67 317.4 1056.28 316.424 1053.15 316.424C1051.03 316.424 1049.26 316.696 1047.82 317.24C1046.41 317.752 1045.18 318.344 1044.12 319.016C1043.1 319.656 1042.2 320.248 1041.43 320.792C1040.7 321.304 1039.96 321.56 1039.23 321.56C1038.65 321.56 1038.15 321.416 1037.74 321.128C1037.32 320.808 1036.97 320.424 1036.68 319.976L1035.15 317.24Z" fill="#74705D"/>
</svg>
