<svg width="1440" height="1080" viewBox="0 0 1440 1080" fill="none" xmlns="http://www.w3.org/2000/svg">
<rect width="1440" height="1080" fill="#282923"/>
<path d="M624.149 435.156L624.131 438H608.237V412.206H624.131V415.05H611.729V423.618H621.773V426.354H611.729V435.156H624.149ZM639.365 424.104C638.765 423.3 638.117 422.742 637.421 422.43C636.725 422.106 635.945 421.944 635.081 421.944C633.389 421.944 632.087 422.55 631.175 423.762C630.263 424.974 629.807 426.702 629.807 428.946C629.807 430.134 629.909 431.154 630.113 432.006C630.317 432.846 630.617 433.542 631.013 434.094C631.409 434.634 631.895 435.03 632.471 435.282C633.047 435.534 633.701 435.66 634.433 435.66C635.489 435.66 636.407 435.42 637.187 434.94C637.979 434.46 638.705 433.782 639.365 432.906V424.104ZM642.569 411.486V438H640.661C640.205 438 639.917 437.778 639.797 437.334L639.509 435.12C638.729 436.056 637.841 436.812 636.845 437.388C635.849 437.964 634.697 438.252 633.389 438.252C632.345 438.252 631.397 438.054 630.545 437.658C629.693 437.25 628.967 436.656 628.367 435.876C627.767 435.096 627.305 434.124 626.981 432.96C626.657 431.796 626.495 430.458 626.495 428.946C626.495 427.602 626.675 426.354 627.035 425.202C627.395 424.038 627.911 423.03 628.583 422.178C629.255 421.326 630.077 420.66 631.049 420.18C632.033 419.688 633.137 419.442 634.361 419.442C635.477 419.442 636.431 419.634 637.223 420.018C638.027 420.39 638.741 420.912 639.365 421.584V411.486H642.569ZM653.984 429.09C654.632 429.09 655.202 429 655.694 428.82C656.186 428.64 656.6 428.388 656.936 428.064C657.272 427.74 657.524 427.356 657.692 426.912C657.86 426.456 657.944 425.958 657.944 425.418C657.944 424.302 657.602 423.414 656.918 422.754C656.246 422.094 655.268 421.764 653.984 421.764C652.688 421.764 651.698 422.094 651.014 422.754C650.342 423.414 650.006 424.302 650.006 425.418C650.006 425.958 650.09 426.456 650.258 426.912C650.438 427.356 650.696 427.74 651.032 428.064C651.368 428.388 651.782 428.64 652.274 428.82C652.766 429 653.336 429.09 653.984 429.09ZM659.762 438.99C659.762 438.546 659.636 438.186 659.384 437.91C659.132 437.634 658.79 437.418 658.358 437.262C657.938 437.106 657.446 436.998 656.882 436.938C656.318 436.866 655.718 436.812 655.082 436.776C654.458 436.74 653.822 436.704 653.174 436.668C652.526 436.632 651.902 436.572 651.302 436.488C650.63 436.8 650.078 437.196 649.646 437.676C649.226 438.144 649.016 438.696 649.016 439.332C649.016 439.74 649.118 440.118 649.322 440.466C649.538 440.826 649.862 441.132 650.294 441.384C650.726 441.648 651.266 441.852 651.914 441.996C652.574 442.152 653.348 442.23 654.236 442.23C655.1 442.23 655.874 442.152 656.558 441.996C657.242 441.84 657.818 441.618 658.286 441.33C658.766 441.042 659.132 440.7 659.384 440.304C659.636 439.908 659.762 439.47 659.762 438.99ZM663.02 420.486V421.674C663.02 422.07 662.768 422.322 662.264 422.43L660.194 422.7C660.602 423.492 660.806 424.368 660.806 425.328C660.806 426.216 660.632 427.026 660.284 427.758C659.948 428.478 659.48 429.096 658.88 429.612C658.28 430.128 657.56 430.524 656.72 430.8C655.88 431.076 654.968 431.214 653.984 431.214C653.132 431.214 652.328 431.112 651.572 430.908C651.188 431.148 650.894 431.406 650.69 431.682C650.486 431.946 650.384 432.216 650.384 432.492C650.384 432.924 650.558 433.254 650.906 433.482C651.266 433.698 651.734 433.854 652.31 433.95C652.886 434.046 653.54 434.106 654.272 434.13C655.016 434.154 655.772 434.196 656.54 434.256C657.32 434.304 658.076 434.394 658.808 434.526C659.552 434.658 660.212 434.874 660.788 435.174C661.364 435.474 661.826 435.888 662.174 436.416C662.534 436.944 662.714 437.628 662.714 438.468C662.714 439.248 662.516 440.004 662.12 440.736C661.736 441.468 661.178 442.116 660.446 442.68C659.714 443.256 658.814 443.712 657.746 444.048C656.69 444.396 655.496 444.57 654.164 444.57C652.832 444.57 651.668 444.438 650.672 444.174C649.676 443.91 648.848 443.556 648.188 443.112C647.528 442.668 647.03 442.152 646.694 441.564C646.37 440.988 646.208 440.382 646.208 439.746C646.208 438.846 646.49 438.084 647.054 437.46C647.618 436.836 648.392 436.338 649.376 435.966C648.836 435.726 648.404 435.408 648.08 435.012C647.768 434.604 647.612 434.058 647.612 433.374C647.612 433.11 647.66 432.84 647.756 432.564C647.852 432.276 647.996 431.994 648.188 431.718C648.392 431.43 648.638 431.16 648.926 430.908C649.214 430.656 649.55 430.434 649.934 430.242C649.034 429.738 648.332 429.072 647.828 428.244C647.324 427.404 647.072 426.432 647.072 425.328C647.072 424.44 647.24 423.636 647.576 422.916C647.924 422.184 648.404 421.566 649.016 421.062C649.628 420.546 650.354 420.15 651.194 419.874C652.046 419.598 652.976 419.46 653.984 419.46C654.776 419.46 655.514 419.55 656.198 419.73C656.882 419.898 657.506 420.15 658.07 420.486H663.02ZM676.215 429.792C674.739 429.84 673.479 429.96 672.435 430.152C671.403 430.332 670.557 430.572 669.897 430.872C669.249 431.172 668.775 431.526 668.475 431.934C668.187 432.342 668.043 432.798 668.043 433.302C668.043 433.782 668.121 434.196 668.277 434.544C668.433 434.892 668.643 435.18 668.907 435.408C669.183 435.624 669.501 435.786 669.861 435.894C670.233 435.99 670.629 436.038 671.049 436.038C671.613 436.038 672.129 435.984 672.597 435.876C673.065 435.756 673.503 435.588 673.911 435.372C674.331 435.156 674.727 434.898 675.099 434.598C675.483 434.298 675.855 433.956 676.215 433.572V429.792ZM665.865 422.34C666.873 421.368 667.959 420.642 669.123 420.162C670.287 419.682 671.577 419.442 672.993 419.442C674.013 419.442 674.919 419.61 675.711 419.946C676.503 420.282 677.169 420.75 677.709 421.35C678.249 421.95 678.657 422.676 678.933 423.528C679.209 424.38 679.347 425.316 679.347 426.336V438H677.925C677.613 438 677.373 437.952 677.205 437.856C677.037 437.748 676.905 437.544 676.809 437.244L676.449 435.516C675.969 435.96 675.501 436.356 675.045 436.704C674.589 437.04 674.109 437.328 673.605 437.568C673.101 437.796 672.561 437.97 671.985 438.09C671.421 438.222 670.791 438.288 670.095 438.288C669.387 438.288 668.721 438.192 668.097 438C667.473 437.796 666.927 437.496 666.459 437.1C666.003 436.704 665.637 436.206 665.361 435.606C665.097 434.994 664.965 434.274 664.965 433.446C664.965 432.726 665.163 432.036 665.559 431.376C665.955 430.704 666.597 430.11 667.485 429.594C668.373 429.078 669.531 428.658 670.959 428.334C672.387 427.998 674.139 427.806 676.215 427.758V426.336C676.215 424.92 675.909 423.852 675.297 423.132C674.685 422.4 673.791 422.034 672.615 422.034C671.823 422.034 671.157 422.136 670.617 422.34C670.089 422.532 669.627 422.754 669.231 423.006C668.847 423.246 668.511 423.468 668.223 423.672C667.947 423.864 667.671 423.96 667.395 423.96C667.179 423.96 666.993 423.906 666.837 423.798C666.681 423.678 666.549 423.534 666.441 423.366L665.865 422.34ZM687.269 423.42C687.845 422.172 688.553 421.2 689.393 420.504C690.233 419.796 691.259 419.442 692.471 419.442C692.855 419.442 693.221 419.484 693.569 419.568C693.929 419.652 694.247 419.784 694.523 419.964L694.289 422.358C694.217 422.658 694.037 422.808 693.749 422.808C693.581 422.808 693.335 422.772 693.011 422.7C692.687 422.628 692.321 422.592 691.913 422.592C691.337 422.592 690.821 422.676 690.365 422.844C689.921 423.012 689.519 423.264 689.159 423.6C688.811 423.924 688.493 424.332 688.205 424.824C687.929 425.304 687.677 425.856 687.449 426.48V438H684.227V419.766H686.063C686.411 419.766 686.651 419.832 686.783 419.964C686.915 420.096 687.005 420.324 687.053 420.648L687.269 423.42ZM728.89 425.112C728.89 427.044 728.584 428.802 727.972 430.386C727.36 431.97 726.496 433.326 725.38 434.454C724.264 435.582 722.92 436.458 721.348 437.082C719.788 437.694 718.06 438 716.164 438H706.534V412.206H716.164C718.06 412.206 719.788 412.518 721.348 413.142C722.92 413.754 724.264 414.63 725.38 415.77C726.496 416.898 727.36 418.254 727.972 419.838C728.584 421.422 728.89 423.18 728.89 425.112ZM725.308 425.112C725.308 423.528 725.092 422.112 724.66 420.864C724.228 419.616 723.616 418.56 722.824 417.696C722.032 416.832 721.072 416.172 719.944 415.716C718.816 415.26 717.556 415.032 716.164 415.032H710.026V435.174H716.164C717.556 435.174 718.816 434.946 719.944 434.49C721.072 434.034 722.032 433.38 722.824 432.528C723.616 431.664 724.228 430.608 724.66 429.36C725.092 428.112 725.308 426.696 725.308 425.112ZM736.197 419.766V438H732.993V419.766H736.197ZM736.881 414.042C736.881 414.354 736.815 414.648 736.683 414.924C736.563 415.188 736.395 415.428 736.179 415.644C735.975 415.848 735.729 416.01 735.441 416.13C735.165 416.25 734.871 416.31 734.559 416.31C734.247 416.31 733.953 416.25 733.677 416.13C733.413 416.01 733.179 415.848 732.975 415.644C732.771 415.428 732.609 415.188 732.489 414.924C732.369 414.648 732.309 414.354 732.309 414.042C732.309 413.73 732.369 413.436 732.489 413.16C732.609 412.872 732.771 412.626 732.975 412.422C733.179 412.206 733.413 412.038 733.677 411.918C733.953 411.798 734.247 411.738 734.559 411.738C734.871 411.738 735.165 411.798 735.441 411.918C735.729 412.038 735.975 412.206 736.179 412.422C736.395 412.626 736.563 412.872 736.683 413.16C736.815 413.436 736.881 413.73 736.881 414.042ZM744.846 419.766V439.35C744.846 440.082 744.75 440.76 744.558 441.384C744.366 442.02 744.06 442.572 743.64 443.04C743.22 443.508 742.68 443.874 742.02 444.138C741.372 444.414 740.592 444.552 739.68 444.552C739.296 444.552 738.942 444.522 738.618 444.462C738.294 444.402 737.97 444.312 737.646 444.192L737.772 442.464C737.796 442.356 737.838 442.272 737.898 442.212C737.946 442.164 738.018 442.134 738.114 442.122C738.21 442.11 738.336 442.104 738.492 442.104C738.636 442.116 738.822 442.122 739.05 442.122C739.986 442.122 740.652 441.9 741.048 441.456C741.444 441.024 741.642 440.322 741.642 439.35V419.766H744.846ZM745.512 414.042C745.512 414.354 745.446 414.648 745.314 414.924C745.194 415.188 745.026 415.428 744.81 415.644C744.606 415.848 744.366 416.01 744.09 416.13C743.814 416.25 743.52 416.31 743.208 416.31C742.896 416.31 742.602 416.25 742.326 416.13C742.062 416.01 741.828 415.848 741.624 415.644C741.42 415.428 741.258 415.188 741.138 414.924C741.018 414.648 740.958 414.354 740.958 414.042C740.958 413.73 741.018 413.436 741.138 413.16C741.258 412.872 741.42 412.626 741.624 412.422C741.828 412.206 742.062 412.038 742.326 411.918C742.602 411.798 742.896 411.738 743.208 411.738C743.52 411.738 743.814 411.798 744.09 411.918C744.366 412.038 744.606 412.206 744.81 412.422C745.026 412.626 745.194 412.872 745.314 413.16C745.446 413.436 745.512 413.73 745.512 414.042ZM753.332 411.486V427.092H754.16C754.4 427.092 754.598 427.062 754.754 427.002C754.922 426.93 755.096 426.792 755.276 426.588L761.036 420.414C761.204 420.21 761.378 420.054 761.558 419.946C761.75 419.826 762.002 419.766 762.314 419.766H765.212L758.498 426.912C758.174 427.32 757.826 427.638 757.454 427.866C757.67 428.01 757.862 428.178 758.03 428.37C758.21 428.55 758.378 428.76 758.534 429L765.662 438H762.8C762.524 438 762.284 437.958 762.08 437.874C761.888 437.778 761.72 437.61 761.576 437.37L755.582 429.9C755.402 429.648 755.222 429.486 755.042 429.414C754.874 429.33 754.61 429.288 754.25 429.288H753.332V438H750.11V411.486H753.332ZM779.012 422.772C778.868 423.036 778.646 423.168 778.346 423.168C778.166 423.168 777.962 423.102 777.734 422.97C777.506 422.838 777.224 422.694 776.888 422.538C776.564 422.37 776.174 422.22 775.718 422.088C775.262 421.944 774.722 421.872 774.098 421.872C773.558 421.872 773.072 421.944 772.64 422.088C772.208 422.22 771.836 422.406 771.524 422.646C771.224 422.886 770.99 423.168 770.822 423.492C770.666 423.804 770.588 424.146 770.588 424.518C770.588 424.986 770.72 425.376 770.984 425.688C771.26 426 771.62 426.27 772.064 426.498C772.508 426.726 773.012 426.93 773.576 427.11C774.14 427.278 774.716 427.464 775.304 427.668C775.904 427.86 776.486 428.076 777.05 428.316C777.614 428.556 778.118 428.856 778.562 429.216C779.006 429.576 779.36 430.02 779.624 430.548C779.9 431.064 780.038 431.688 780.038 432.42C780.038 433.26 779.888 434.04 779.588 434.76C779.288 435.468 778.844 436.086 778.256 436.614C777.668 437.13 776.948 437.538 776.096 437.838C775.244 438.138 774.26 438.288 773.144 438.288C771.872 438.288 770.72 438.084 769.688 437.676C768.656 437.256 767.78 436.722 767.06 436.074L767.816 434.85C767.912 434.694 768.026 434.574 768.158 434.49C768.29 434.406 768.458 434.364 768.662 434.364C768.878 434.364 769.106 434.448 769.346 434.616C769.586 434.784 769.874 434.97 770.21 435.174C770.558 435.378 770.978 435.564 771.47 435.732C771.962 435.9 772.574 435.984 773.306 435.984C773.93 435.984 774.476 435.906 774.944 435.75C775.412 435.582 775.802 435.36 776.114 435.084C776.426 434.808 776.654 434.49 776.798 434.13C776.954 433.77 777.032 433.386 777.032 432.978C777.032 432.474 776.894 432.06 776.618 431.736C776.354 431.4 776 431.118 775.556 430.89C775.112 430.65 774.602 430.446 774.026 430.278C773.462 430.098 772.88 429.912 772.28 429.72C771.692 429.528 771.11 429.312 770.534 429.072C769.97 428.82 769.466 428.508 769.022 428.136C768.578 427.764 768.218 427.308 767.942 426.768C767.678 426.216 767.546 425.55 767.546 424.77C767.546 424.074 767.69 423.408 767.978 422.772C768.266 422.124 768.686 421.56 769.238 421.08C769.79 420.588 770.468 420.198 771.272 419.91C772.076 419.622 772.994 419.478 774.026 419.478C775.226 419.478 776.3 419.67 777.248 420.054C778.208 420.426 779.036 420.942 779.732 421.602L779.012 422.772ZM789.564 438.288C788.124 438.288 787.014 437.886 786.234 437.082C785.466 436.278 785.082 435.12 785.082 433.608V422.448H782.886C782.694 422.448 782.532 422.394 782.4 422.286C782.268 422.166 782.202 421.986 782.202 421.746V420.468L785.19 420.09L785.928 414.456C785.964 414.276 786.042 414.132 786.162 414.024C786.294 413.904 786.462 413.844 786.666 413.844H788.286V420.126H793.56V422.448H788.286V433.392C788.286 434.16 788.472 434.73 788.844 435.102C789.216 435.474 789.696 435.66 790.284 435.66C790.62 435.66 790.908 435.618 791.148 435.534C791.4 435.438 791.616 435.336 791.796 435.228C791.976 435.12 792.126 435.024 792.246 434.94C792.378 434.844 792.492 434.796 792.588 434.796C792.756 434.796 792.906 434.898 793.038 435.102L793.974 436.632C793.422 437.148 792.756 437.556 791.976 437.856C791.196 438.144 790.392 438.288 789.564 438.288ZM799.91 423.42C800.486 422.172 801.194 421.2 802.034 420.504C802.874 419.796 803.9 419.442 805.112 419.442C805.496 419.442 805.862 419.484 806.21 419.568C806.57 419.652 806.888 419.784 807.164 419.964L806.93 422.358C806.858 422.658 806.678 422.808 806.39 422.808C806.222 422.808 805.976 422.772 805.652 422.7C805.328 422.628 804.962 422.592 804.554 422.592C803.978 422.592 803.462 422.676 803.006 422.844C802.562 423.012 802.16 423.264 801.8 423.6C801.452 423.924 801.134 424.332 800.846 424.824C800.57 425.304 800.318 425.856 800.09 426.48V438H796.868V419.766H798.704C799.052 419.766 799.292 419.832 799.424 419.964C799.556 420.096 799.646 420.324 799.694 420.648L799.91 423.42ZM819.582 429.792C818.106 429.84 816.846 429.96 815.802 430.152C814.77 430.332 813.924 430.572 813.264 430.872C812.616 431.172 812.142 431.526 811.842 431.934C811.554 432.342 811.41 432.798 811.41 433.302C811.41 433.782 811.488 434.196 811.644 434.544C811.8 434.892 812.01 435.18 812.274 435.408C812.55 435.624 812.868 435.786 813.228 435.894C813.6 435.99 813.996 436.038 814.416 436.038C814.98 436.038 815.496 435.984 815.964 435.876C816.432 435.756 816.87 435.588 817.278 435.372C817.698 435.156 818.094 434.898 818.466 434.598C818.85 434.298 819.222 433.956 819.582 433.572V429.792ZM809.232 422.34C810.24 421.368 811.326 420.642 812.49 420.162C813.654 419.682 814.944 419.442 816.36 419.442C817.38 419.442 818.286 419.61 819.078 419.946C819.87 420.282 820.536 420.75 821.076 421.35C821.616 421.95 822.024 422.676 822.3 423.528C822.576 424.38 822.714 425.316 822.714 426.336V438H821.292C820.98 438 820.74 437.952 820.572 437.856C820.404 437.748 820.272 437.544 820.176 437.244L819.816 435.516C819.336 435.96 818.868 436.356 818.412 436.704C817.956 437.04 817.476 437.328 816.972 437.568C816.468 437.796 815.928 437.97 815.352 438.09C814.788 438.222 814.158 438.288 813.462 438.288C812.754 438.288 812.088 438.192 811.464 438C810.84 437.796 810.294 437.496 809.826 437.1C809.37 436.704 809.004 436.206 808.728 435.606C808.464 434.994 808.332 434.274 808.332 433.446C808.332 432.726 808.53 432.036 808.926 431.376C809.322 430.704 809.964 430.11 810.852 429.594C811.74 429.078 812.898 428.658 814.326 428.334C815.754 427.998 817.506 427.806 819.582 427.758V426.336C819.582 424.92 819.276 423.852 818.664 423.132C818.052 422.4 817.158 422.034 815.982 422.034C815.19 422.034 814.524 422.136 813.984 422.34C813.456 422.532 812.994 422.754 812.598 423.006C812.214 423.246 811.878 423.468 811.59 423.672C811.314 423.864 811.038 423.96 810.762 423.96C810.546 423.96 810.36 423.906 810.204 423.798C810.048 423.678 809.916 423.534 809.808 423.366L809.232 422.34ZM827.307 436.02C827.307 435.708 827.361 435.414 827.469 435.138C827.589 434.862 827.745 434.622 827.937 434.418C828.141 434.214 828.381 434.052 828.657 433.932C828.933 433.812 829.227 433.752 829.539 433.752C829.851 433.752 830.145 433.812 830.421 433.932C830.697 434.052 830.937 434.214 831.141 434.418C831.345 434.622 831.507 434.862 831.627 435.138C831.747 435.414 831.807 435.708 831.807 436.02C831.807 436.344 831.747 436.644 831.627 436.92C831.507 437.184 831.345 437.418 831.141 437.622C830.937 437.826 830.697 437.982 830.421 438.09C830.145 438.21 829.851 438.27 829.539 438.27C829.227 438.27 828.933 438.21 828.657 438.09C828.381 437.982 828.141 437.826 827.937 437.622C827.745 437.418 827.589 437.184 827.469 436.92C827.361 436.644 827.307 436.344 827.307 436.02ZM827.307 422.52C827.307 422.208 827.361 421.914 827.469 421.638C827.589 421.362 827.745 421.122 827.937 420.918C828.141 420.714 828.381 420.552 828.657 420.432C828.933 420.312 829.227 420.252 829.539 420.252C829.851 420.252 830.145 420.312 830.421 420.432C830.697 420.552 830.937 420.714 831.141 420.918C831.345 421.122 831.507 421.362 831.627 421.638C831.747 421.914 831.807 422.208 831.807 422.52C831.807 422.844 831.747 423.144 831.627 423.42C831.507 423.684 831.345 423.918 831.141 424.122C830.937 424.326 830.697 424.488 830.421 424.608C830.145 424.716 829.851 424.77 829.539 424.77C829.227 424.77 828.933 424.716 828.657 424.608C828.381 424.488 828.141 424.326 827.937 424.122C827.745 423.918 827.589 423.684 827.469 423.42C827.361 423.144 827.307 422.844 827.307 422.52Z" fill="#A6E22C"/>
<path d="M432.687 507.928V534.328C429.231 536.824 425.535 538.696 421.599 539.944C417.695 541.16 413.407 541.768 408.735 541.768C403.199 541.768 398.207 540.92 393.759 539.224C389.311 537.496 385.503 535.096 382.335 532.024C379.199 528.92 376.783 525.208 375.087 520.888C373.391 516.568 372.543 511.816 372.543 506.632C372.543 501.384 373.359 496.6 374.991 492.28C376.655 487.96 379.007 484.264 382.047 481.192C385.087 478.088 388.783 475.688 393.135 473.992C397.487 472.296 402.351 471.448 407.727 471.448C410.447 471.448 412.975 471.656 415.311 472.072C417.647 472.456 419.807 473.032 421.791 473.8C423.775 474.536 425.615 475.448 427.311 476.536C429.007 477.592 430.591 478.792 432.063 480.136L429.423 484.36C429.007 485 428.463 485.416 427.791 485.608C427.151 485.768 426.431 485.608 425.631 485.128C424.863 484.68 423.983 484.136 422.991 483.496C421.999 482.856 420.783 482.248 419.343 481.672C417.935 481.064 416.255 480.552 414.303 480.136C412.383 479.72 410.095 479.512 407.439 479.512C403.567 479.512 400.063 480.152 396.927 481.432C393.791 482.68 391.119 484.488 388.911 486.856C386.703 489.192 385.007 492.04 383.823 495.4C382.639 498.728 382.047 502.472 382.047 506.632C382.047 510.952 382.655 514.824 383.871 518.248C385.119 521.64 386.879 524.536 389.151 526.936C391.455 529.304 394.239 531.112 397.503 532.36C400.767 533.608 404.431 534.232 408.495 534.232C411.695 534.232 414.527 533.88 416.991 533.176C419.487 532.44 421.919 531.432 424.287 530.152V515.032H413.583C412.975 515.032 412.479 514.856 412.095 514.504C411.743 514.152 411.567 513.72 411.567 513.208V507.928H432.687ZM464.858 491.608C468.41 491.608 471.61 492.2 474.458 493.384C477.306 494.568 479.738 496.248 481.754 498.424C483.77 500.6 485.306 503.24 486.362 506.344C487.45 509.416 487.994 512.856 487.994 516.664C487.994 520.504 487.45 523.96 486.362 527.032C485.306 530.104 483.77 532.728 481.754 534.904C479.738 537.08 477.306 538.76 474.458 539.944C471.61 541.096 468.41 541.672 464.858 541.672C461.274 541.672 458.042 541.096 455.162 539.944C452.314 538.76 449.882 537.08 447.866 534.904C445.85 532.728 444.298 530.104 443.21 527.032C442.154 523.96 441.626 520.504 441.626 516.664C441.626 512.856 442.154 509.416 443.21 506.344C444.298 503.24 445.85 500.6 447.866 498.424C449.882 496.248 452.314 494.568 455.162 493.384C458.042 492.2 461.274 491.608 464.858 491.608ZM464.858 535C469.658 535 473.242 533.4 475.61 530.2C477.978 526.968 479.162 522.472 479.162 516.712C479.162 510.92 477.978 506.408 475.61 503.176C473.242 499.944 469.658 498.328 464.858 498.328C462.426 498.328 460.298 498.744 458.474 499.576C456.682 500.408 455.178 501.608 453.962 503.176C452.778 504.744 451.882 506.68 451.274 508.984C450.698 511.256 450.41 513.832 450.41 516.712C450.41 522.472 451.594 526.968 453.962 530.2C456.362 533.4 459.994 535 464.858 535ZM569.015 480.04H546.743V541H537.479V480.04H515.159V472.216H569.015V480.04ZM585.983 491.608C589.535 491.608 592.735 492.2 595.583 493.384C598.431 494.568 600.863 496.248 602.879 498.424C604.895 500.6 606.431 503.24 607.487 506.344C608.575 509.416 609.119 512.856 609.119 516.664C609.119 520.504 608.575 523.96 607.487 527.032C606.431 530.104 604.895 532.728 602.879 534.904C600.863 537.08 598.431 538.76 595.583 539.944C592.735 541.096 589.535 541.672 585.983 541.672C582.399 541.672 579.167 541.096 576.287 539.944C573.439 538.76 571.007 537.08 568.991 534.904C566.975 532.728 565.423 530.104 564.335 527.032C563.279 523.96 562.751 520.504 562.751 516.664C562.751 512.856 563.279 509.416 564.335 506.344C565.423 503.24 566.975 500.6 568.991 498.424C571.007 496.248 573.439 494.568 576.287 493.384C579.167 492.2 582.399 491.608 585.983 491.608ZM585.983 535C590.783 535 594.367 533.4 596.735 530.2C599.103 526.968 600.287 522.472 600.287 516.712C600.287 510.92 599.103 506.408 596.735 503.176C594.367 499.944 590.783 498.328 585.983 498.328C583.551 498.328 581.423 498.744 579.599 499.576C577.807 500.408 576.303 501.608 575.087 503.176C573.903 504.744 573.007 506.68 572.399 508.984C571.823 511.256 571.535 513.832 571.535 516.712C571.535 522.472 572.719 526.968 575.087 530.2C577.487 533.4 581.119 535 585.983 535Z" fill="#67D8EF"/>
<path d="M681.718 482.968C681.43 483.448 681.11 483.816 680.758 484.072C680.438 484.296 680.038 484.408 679.558 484.408C679.014 484.408 678.374 484.136 677.638 483.592C676.902 483.048 675.974 482.456 674.854 481.816C673.766 481.144 672.438 480.536 670.87 479.992C669.334 479.448 667.462 479.176 665.254 479.176C663.174 479.176 661.334 479.464 659.734 480.04C658.166 480.584 656.838 481.336 655.75 482.296C654.694 483.256 653.894 484.392 653.35 485.704C652.806 486.984 652.534 488.376 652.534 489.88C652.534 491.8 652.998 493.4 653.926 494.68C654.886 495.928 656.134 497 657.67 497.896C659.238 498.792 660.998 499.576 662.95 500.248C664.934 500.888 666.95 501.56 668.998 502.264C671.078 502.968 673.094 503.768 675.046 504.664C677.03 505.528 678.79 506.632 680.326 507.976C681.894 509.32 683.142 510.968 684.07 512.92C685.03 514.872 685.51 517.272 685.51 520.12C685.51 523.128 684.998 525.96 683.974 528.616C682.95 531.24 681.446 533.528 679.462 535.48C677.51 537.432 675.094 538.968 672.214 540.088C669.366 541.208 666.118 541.768 662.47 541.768C657.99 541.768 653.926 540.968 650.278 539.368C646.63 537.736 643.51 535.544 640.918 532.792L643.606 528.376C643.862 528.024 644.166 527.736 644.518 527.512C644.902 527.256 645.318 527.128 645.766 527.128C646.182 527.128 646.646 527.304 647.158 527.656C647.702 527.976 648.31 528.392 648.982 528.904C649.654 529.416 650.422 529.976 651.286 530.584C652.15 531.192 653.126 531.752 654.214 532.264C655.334 532.776 656.598 533.208 658.006 533.56C659.414 533.88 660.998 534.04 662.758 534.04C664.966 534.04 666.934 533.736 668.662 533.128C670.39 532.52 671.846 531.672 673.03 530.584C674.246 529.464 675.174 528.136 675.814 526.6C676.454 525.064 676.774 523.352 676.774 521.464C676.774 519.384 676.294 517.688 675.334 516.376C674.406 515.032 673.174 513.912 671.638 513.016C670.102 512.12 668.342 511.368 666.358 510.76C664.374 510.12 662.358 509.48 660.31 508.84C658.262 508.168 656.246 507.4 654.262 506.536C652.278 505.672 650.518 504.552 648.982 503.176C647.446 501.8 646.198 500.088 645.238 498.04C644.31 495.96 643.846 493.4 643.846 490.36C643.846 487.928 644.31 485.576 645.238 483.304C646.198 481.032 647.574 479.016 649.366 477.256C651.19 475.496 653.414 474.088 656.038 473.032C658.694 471.976 661.734 471.448 665.158 471.448C668.998 471.448 672.486 472.056 675.622 473.272C678.79 474.488 681.574 476.248 683.974 478.552L681.718 482.968ZM709.415 541.768C705.575 541.768 702.615 540.696 700.535 538.552C698.487 536.408 697.463 533.32 697.463 529.288V499.528H691.607C691.095 499.528 690.663 499.384 690.311 499.096C689.959 498.776 689.783 498.296 689.783 497.656V494.248L697.751 493.24L699.719 478.216C699.815 477.736 700.023 477.352 700.343 477.064C700.695 476.744 701.143 476.584 701.687 476.584H706.007V493.336H720.071V499.528H706.007V528.712C706.007 530.76 706.503 532.28 707.495 533.272C708.487 534.264 709.767 534.76 711.335 534.76C712.231 534.76 712.999 534.648 713.639 534.424C714.311 534.168 714.887 533.896 715.367 533.608C715.847 533.32 716.247 533.064 716.567 532.84C716.919 532.584 717.223 532.456 717.479 532.456C717.927 532.456 718.327 532.728 718.679 533.272L721.175 537.352C719.703 538.728 717.927 539.816 715.847 540.616C713.767 541.384 711.623 541.768 709.415 541.768ZM755.245 519.112C751.309 519.24 747.949 519.56 745.165 520.072C742.413 520.552 740.157 521.192 738.397 521.992C736.669 522.792 735.405 523.736 734.605 524.824C733.837 525.912 733.453 527.128 733.453 528.472C733.453 529.752 733.661 530.856 734.077 531.784C734.493 532.712 735.053 533.48 735.757 534.088C736.493 534.664 737.341 535.096 738.301 535.384C739.293 535.64 740.349 535.768 741.469 535.768C742.973 535.768 744.349 535.624 745.597 535.336C746.845 535.016 748.013 534.568 749.101 533.992C750.221 533.416 751.277 532.728 752.269 531.928C753.293 531.128 754.285 530.216 755.245 529.192V519.112ZM727.645 499.24C730.333 496.648 733.229 494.712 736.333 493.432C739.437 492.152 742.877 491.512 746.653 491.512C749.373 491.512 751.789 491.96 753.901 492.856C756.013 493.752 757.789 495 759.229 496.6C760.669 498.2 761.757 500.136 762.493 502.408C763.229 504.68 763.597 507.176 763.597 509.896V541H759.805C758.973 541 758.333 540.872 757.885 540.616C757.437 540.328 757.085 539.784 756.829 538.984L755.869 534.376C754.589 535.56 753.341 536.616 752.125 537.544C750.909 538.44 749.629 539.208 748.285 539.848C746.941 540.456 745.501 540.92 743.965 541.24C742.461 541.592 740.781 541.768 738.925 541.768C737.037 541.768 735.261 541.512 733.597 541C731.933 540.456 730.477 539.656 729.229 538.6C728.013 537.544 727.037 536.216 726.301 534.616C725.597 532.984 725.245 531.064 725.245 528.856C725.245 526.936 725.773 525.096 726.829 523.336C727.885 521.544 729.597 519.96 731.965 518.584C734.333 517.208 737.421 516.088 741.229 515.224C745.037 514.328 749.709 513.816 755.245 513.688V509.896C755.245 506.12 754.429 503.272 752.797 501.352C751.165 499.4 748.781 498.424 745.645 498.424C743.533 498.424 741.757 498.696 740.317 499.24C738.909 499.752 737.677 500.344 736.621 501.016C735.597 501.656 734.701 502.248 733.933 502.792C733.197 503.304 732.461 503.56 731.725 503.56C731.149 503.56 730.653 503.416 730.237 503.128C729.821 502.808 729.469 502.424 729.181 501.976L727.645 499.24ZM790.884 541.768C787.044 541.768 784.084 540.696 782.004 538.552C779.956 536.408 778.932 533.32 778.932 529.288V499.528H773.076C772.564 499.528 772.132 499.384 771.78 499.096C771.428 498.776 771.252 498.296 771.252 497.656V494.248L779.22 493.24L781.188 478.216C781.284 477.736 781.492 477.352 781.812 477.064C782.164 476.744 782.612 476.584 783.156 476.584H787.476V493.336H801.54V499.528H787.476V528.712C787.476 530.76 787.972 532.28 788.964 533.272C789.956 534.264 791.236 534.76 792.804 534.76C793.7 534.76 794.468 534.648 795.108 534.424C795.78 534.168 796.356 533.896 796.836 533.608C797.316 533.32 797.716 533.064 798.036 532.84C798.388 532.584 798.692 532.456 798.948 532.456C799.396 532.456 799.796 532.728 800.148 533.272L802.644 537.352C801.172 538.728 799.396 539.816 797.316 540.616C795.236 541.384 793.092 541.768 790.884 541.768ZM842.625 511.384C842.625 509.4 842.337 507.592 841.761 505.96C841.217 504.296 840.401 502.872 839.313 501.688C838.257 500.472 836.961 499.544 835.425 498.904C833.889 498.232 832.145 497.896 830.193 497.896C826.097 497.896 822.849 499.096 820.449 501.496C818.081 503.864 816.609 507.16 816.033 511.384H842.625ZM849.537 534.184C848.481 535.464 847.217 536.584 845.745 537.544C844.273 538.472 842.689 539.24 840.993 539.848C839.329 540.456 837.601 540.904 835.809 541.192C834.017 541.512 832.241 541.672 830.481 541.672C827.121 541.672 824.017 541.112 821.169 539.992C818.353 538.84 815.905 537.176 813.825 535C811.777 532.792 810.177 530.072 809.025 526.84C807.873 523.608 807.297 519.896 807.297 515.704C807.297 512.312 807.809 509.144 808.833 506.2C809.889 503.256 811.393 500.712 813.345 498.568C815.297 496.392 817.681 494.696 820.497 493.48C823.313 492.232 826.481 491.608 830.001 491.608C832.913 491.608 835.601 492.104 838.065 493.096C840.561 494.056 842.705 495.464 844.497 497.32C846.321 499.144 847.745 501.416 848.769 504.136C849.793 506.824 850.305 509.896 850.305 513.352C850.305 514.696 850.161 515.592 849.873 516.04C849.585 516.488 849.041 516.712 848.241 516.712H815.745C815.841 519.784 816.257 522.456 816.993 524.728C817.761 527 818.817 528.904 820.161 530.44C821.505 531.944 823.105 533.08 824.961 533.848C826.817 534.584 828.897 534.952 831.201 534.952C833.345 534.952 835.185 534.712 836.721 534.232C838.289 533.72 839.633 533.176 840.753 532.6C841.873 532.024 842.801 531.496 843.537 531.016C844.305 530.504 844.961 530.248 845.505 530.248C846.209 530.248 846.753 530.52 847.137 531.064L849.537 534.184ZM860.799 541V492.376H865.935C867.151 492.376 867.903 492.968 868.191 494.152L868.815 499.144C870.607 496.936 872.623 495.128 874.863 493.72C877.103 492.312 879.695 491.608 882.639 491.608C885.903 491.608 888.543 492.52 890.559 494.344C892.607 496.168 894.079 498.632 894.975 501.736C895.679 499.976 896.575 498.456 897.663 497.176C898.783 495.896 900.031 494.84 901.407 494.008C902.783 493.176 904.239 492.568 905.775 492.184C907.343 491.8 908.927 491.608 910.527 491.608C913.087 491.608 915.359 492.024 917.343 492.856C919.359 493.656 921.055 494.84 922.431 496.408C923.839 497.976 924.911 499.912 925.647 502.216C926.383 504.488 926.751 507.096 926.751 510.04V541H918.159V510.04C918.159 506.232 917.327 503.352 915.663 501.4C913.999 499.416 911.599 498.424 908.463 498.424C907.055 498.424 905.711 498.68 904.431 499.192C903.183 499.672 902.079 500.392 901.119 501.352C900.159 502.312 899.391 503.528 898.815 505C898.271 506.44 897.999 508.12 897.999 510.04V541H889.407V510.04C889.407 506.136 888.623 503.224 887.055 501.304C885.487 499.384 883.199 498.424 880.191 498.424C878.079 498.424 876.127 499 874.335 500.152C872.543 501.272 870.895 502.808 869.391 504.76V541H860.799ZM972.281 511.384C972.281 509.4 971.993 507.592 971.417 505.96C970.873 504.296 970.057 502.872 968.969 501.688C967.913 500.472 966.617 499.544 965.081 498.904C963.545 498.232 961.801 497.896 959.849 497.896C955.753 497.896 952.505 499.096 950.105 501.496C947.737 503.864 946.265 507.16 945.689 511.384H972.281ZM979.193 534.184C978.137 535.464 976.873 536.584 975.401 537.544C973.929 538.472 972.345 539.24 970.649 539.848C968.985 540.456 967.257 540.904 965.465 541.192C963.673 541.512 961.897 541.672 960.137 541.672C956.777 541.672 953.673 541.112 950.825 539.992C948.009 538.84 945.561 537.176 943.481 535C941.433 532.792 939.833 530.072 938.681 526.84C937.529 523.608 936.953 519.896 936.953 515.704C936.953 512.312 937.465 509.144 938.489 506.2C939.545 503.256 941.049 500.712 943.001 498.568C944.953 496.392 947.337 494.696 950.153 493.48C952.969 492.232 956.137 491.608 959.657 491.608C962.569 491.608 965.257 492.104 967.721 493.096C970.217 494.056 972.361 495.464 974.153 497.32C975.977 499.144 977.401 501.416 978.425 504.136C979.449 506.824 979.961 509.896 979.961 513.352C979.961 514.696 979.817 515.592 979.529 516.04C979.241 516.488 978.697 516.712 977.897 516.712H945.401C945.497 519.784 945.913 522.456 946.649 524.728C947.417 527 948.473 528.904 949.817 530.44C951.161 531.944 952.761 533.08 954.617 533.848C956.473 534.584 958.553 534.952 960.857 534.952C963.001 534.952 964.841 534.712 966.377 534.232C967.945 533.72 969.289 533.176 970.409 532.6C971.529 532.024 972.457 531.496 973.193 531.016C973.961 530.504 974.617 530.248 975.161 530.248C975.865 530.248 976.409 530.52 976.793 531.064L979.193 534.184ZM998.52 499.432C999.576 498.248 1000.7 497.176 1001.88 496.216C1003.06 495.256 1004.31 494.44 1005.62 493.768C1006.97 493.064 1008.38 492.536 1009.85 492.184C1011.35 491.8 1012.97 491.608 1014.7 491.608C1017.35 491.608 1019.69 492.056 1021.7 492.952C1023.75 493.816 1025.45 495.064 1026.79 496.696C1028.17 498.296 1029.21 500.232 1029.91 502.504C1030.62 504.776 1030.97 507.288 1030.97 510.04V541H1022.38V510.04C1022.38 506.36 1021.53 503.512 1019.83 501.496C1018.17 499.448 1015.62 498.424 1012.2 498.424C1009.67 498.424 1007.3 499.032 1005.1 500.248C1002.92 501.464 1000.9 503.112 999.048 505.192V541H990.456V492.376H995.592C996.808 492.376 997.56 492.968 997.848 494.152L998.52 499.432ZM1058.26 541.768C1054.42 541.768 1051.46 540.696 1049.38 538.552C1047.33 536.408 1046.31 533.32 1046.31 529.288V499.528H1040.45C1039.94 499.528 1039.51 499.384 1039.15 499.096C1038.8 498.776 1038.63 498.296 1038.63 497.656V494.248L1046.59 493.24L1048.56 478.216C1048.66 477.736 1048.87 477.352 1049.19 477.064C1049.54 476.744 1049.99 476.584 1050.53 476.584H1054.85V493.336H1068.91V499.528H1054.85V528.712C1054.85 530.76 1055.35 532.28 1056.34 533.272C1057.33 534.264 1058.61 534.76 1060.18 534.76C1061.07 534.76 1061.84 534.648 1062.48 534.424C1063.15 534.168 1063.73 533.896 1064.21 533.608C1064.69 533.32 1065.09 533.064 1065.41 532.84C1065.76 532.584 1066.07 532.456 1066.32 532.456C1066.77 532.456 1067.17 532.728 1067.52 533.272L1070.02 537.352C1068.55 538.728 1066.77 539.816 1064.69 540.616C1062.61 541.384 1060.47 541.768 1058.26 541.768Z" fill="#F8F8F2"/>
<path d="M354.135 641.792C354.647 641.792 355.095 642 355.479 642.416L359.175 646.4C356.359 649.664 352.935 652.208 348.903 654.032C344.903 655.856 340.055 656.768 334.359 656.768C329.431 656.768 324.951 655.92 320.919 654.224C316.887 652.496 313.447 650.096 310.599 647.024C307.751 643.92 305.543 640.208 303.975 635.888C302.407 631.568 301.623 626.816 301.623 621.632C301.623 616.448 302.439 611.696 304.071 607.376C305.703 603.056 307.991 599.344 310.935 596.24C313.911 593.136 317.463 590.736 321.591 589.04C325.719 587.312 330.279 586.448 335.271 586.448C340.167 586.448 344.487 587.232 348.231 588.8C351.975 590.368 355.271 592.496 358.119 595.184L355.047 599.456C354.855 599.776 354.599 600.048 354.279 600.272C353.991 600.464 353.591 600.56 353.079 600.56C352.503 600.56 351.799 600.256 350.967 599.648C350.135 599.008 349.047 598.304 347.703 597.536C346.359 596.768 344.679 596.08 342.663 595.472C340.647 594.832 338.167 594.512 335.223 594.512C331.671 594.512 328.423 595.136 325.479 596.384C322.535 597.6 319.991 599.376 317.847 601.712C315.735 604.048 314.087 606.896 312.903 610.256C311.719 613.616 311.127 617.408 311.127 621.632C311.127 625.92 311.735 629.744 312.951 633.104C314.199 636.464 315.879 639.312 317.991 641.648C320.135 643.952 322.647 645.712 325.527 646.928C328.439 648.144 331.575 648.752 334.935 648.752C336.983 648.752 338.823 648.64 340.455 648.416C342.119 648.16 343.639 647.776 345.015 647.264C346.423 646.752 347.719 646.112 348.903 645.344C350.119 644.544 351.319 643.6 352.503 642.512C353.047 642.032 353.591 641.792 354.135 641.792ZM387.514 606.608C391.066 606.608 394.266 607.2 397.114 608.384C399.962 609.568 402.394 611.248 404.41 613.424C406.426 615.6 407.962 618.24 409.018 621.344C410.106 624.416 410.65 627.856 410.65 631.664C410.65 635.504 410.106 638.96 409.018 642.032C407.962 645.104 406.426 647.728 404.41 649.904C402.394 652.08 399.962 653.76 397.114 654.944C394.266 656.096 391.066 656.672 387.514 656.672C383.93 656.672 380.698 656.096 377.818 654.944C374.97 653.76 372.538 652.08 370.522 649.904C368.506 647.728 366.954 645.104 365.866 642.032C364.81 638.96 364.282 635.504 364.282 631.664C364.282 627.856 364.81 624.416 365.866 621.344C366.954 618.24 368.506 615.6 370.522 613.424C372.538 611.248 374.97 609.568 377.818 608.384C380.698 607.2 383.93 606.608 387.514 606.608ZM387.514 650C392.314 650 395.898 648.4 398.266 645.2C400.634 641.968 401.818 637.472 401.818 631.712C401.818 625.92 400.634 621.408 398.266 618.176C395.898 614.944 392.314 613.328 387.514 613.328C385.082 613.328 382.954 613.744 381.13 614.576C379.338 615.408 377.834 616.608 376.618 618.176C375.434 619.744 374.538 621.68 373.93 623.984C373.354 626.256 373.066 628.832 373.066 631.712C373.066 637.472 374.25 641.968 376.618 645.2C379.018 648.4 382.65 650 387.514 650ZM429.551 614.432C430.607 613.248 431.727 612.176 432.911 611.216C434.095 610.256 435.343 609.44 436.655 608.768C437.999 608.064 439.407 607.536 440.879 607.184C442.383 606.8 443.999 606.608 445.727 606.608C448.383 606.608 450.719 607.056 452.735 607.952C454.783 608.816 456.479 610.064 457.823 611.696C459.199 613.296 460.239 615.232 460.943 617.504C461.647 619.776 461.999 622.288 461.999 625.04V656H453.407V625.04C453.407 621.36 452.559 618.512 450.863 616.496C449.199 614.448 446.655 613.424 443.231 613.424C440.703 613.424 438.335 614.032 436.127 615.248C433.951 616.464 431.935 618.112 430.079 620.192V656H421.487V607.376H426.623C427.839 607.376 428.591 607.968 428.879 609.152L429.551 614.432ZM503.338 615.392C502.954 616.096 502.362 616.448 501.562 616.448C501.082 616.448 500.538 616.272 499.93 615.92C499.322 615.568 498.57 615.184 497.674 614.768C496.81 614.32 495.77 613.92 494.554 613.568C493.338 613.184 491.898 612.992 490.234 612.992C488.794 612.992 487.498 613.184 486.346 613.568C485.194 613.92 484.202 614.416 483.37 615.056C482.57 615.696 481.946 616.448 481.498 617.312C481.082 618.144 480.874 619.056 480.874 620.048C480.874 621.296 481.226 622.336 481.93 623.168C482.666 624 483.626 624.72 484.81 625.328C485.994 625.936 487.338 626.48 488.842 626.96C490.346 627.408 491.882 627.904 493.45 628.448C495.05 628.96 496.602 629.536 498.106 630.176C499.61 630.816 500.954 631.616 502.138 632.576C503.322 633.536 504.266 634.72 504.97 636.128C505.706 637.504 506.074 639.168 506.074 641.12C506.074 643.36 505.674 645.44 504.874 647.36C504.074 649.248 502.89 650.896 501.322 652.304C499.754 653.68 497.834 654.768 495.562 655.568C493.29 656.368 490.666 656.768 487.69 656.768C484.298 656.768 481.226 656.224 478.474 655.136C475.722 654.016 473.386 652.592 471.466 650.864L473.482 647.6C473.738 647.184 474.042 646.864 474.394 646.64C474.746 646.416 475.194 646.304 475.738 646.304C476.314 646.304 476.922 646.528 477.562 646.976C478.202 647.424 478.97 647.92 479.866 648.464C480.794 649.008 481.914 649.504 483.226 649.952C484.538 650.4 486.17 650.624 488.122 650.624C489.786 650.624 491.242 650.416 492.49 650C493.738 649.552 494.778 648.96 495.61 648.224C496.442 647.488 497.05 646.64 497.434 645.68C497.85 644.72 498.058 643.696 498.058 642.608C498.058 641.264 497.69 640.16 496.954 639.296C496.25 638.4 495.306 637.648 494.122 637.04C492.938 636.4 491.578 635.856 490.042 635.408C488.538 634.928 486.986 634.432 485.386 633.92C483.818 633.408 482.266 632.832 480.73 632.192C479.226 631.52 477.882 630.688 476.698 629.696C475.514 628.704 474.554 627.488 473.818 626.048C473.114 624.576 472.762 622.8 472.762 620.72C472.762 618.864 473.146 617.088 473.914 615.392C474.682 613.664 475.802 612.16 477.274 610.88C478.746 609.568 480.554 608.528 482.698 607.76C484.842 606.992 487.29 606.608 490.042 606.608C493.242 606.608 496.106 607.12 498.634 608.144C501.194 609.136 503.402 610.512 505.258 612.272L503.338 615.392ZM525.573 607.376V656H517.029V607.376H525.573ZM527.397 592.112C527.397 592.944 527.221 593.728 526.869 594.464C526.549 595.168 526.101 595.808 525.525 596.384C524.981 596.928 524.325 597.36 523.557 597.68C522.821 598 522.037 598.16 521.205 598.16C520.373 598.16 519.589 598 518.853 597.68C518.149 597.36 517.525 596.928 516.981 596.384C516.437 595.808 516.005 595.168 515.685 594.464C515.365 593.728 515.205 592.944 515.205 592.112C515.205 591.28 515.365 590.496 515.685 589.76C516.005 588.992 516.437 588.336 516.981 587.792C517.525 587.216 518.149 586.768 518.853 586.448C519.589 586.128 520.373 585.968 521.205 585.968C522.037 585.968 522.821 586.128 523.557 586.448C524.325 586.768 524.981 587.216 525.525 587.792C526.101 588.336 526.549 588.992 526.869 589.76C527.221 590.496 527.397 591.28 527.397 592.112ZM571.292 618.944C569.692 616.8 567.964 615.312 566.108 614.48C564.252 613.616 562.172 613.184 559.868 613.184C555.356 613.184 551.884 614.8 549.452 618.032C547.02 621.264 545.804 625.872 545.804 631.856C545.804 635.024 546.076 637.744 546.62 640.016C547.164 642.256 547.964 644.112 549.02 645.584C550.076 647.024 551.372 648.08 552.908 648.752C554.444 649.424 556.188 649.76 558.14 649.76C560.956 649.76 563.404 649.12 565.484 647.84C567.596 646.56 569.532 644.752 571.292 642.416V618.944ZM579.836 585.296V656H574.748C573.532 656 572.764 655.408 572.444 654.224L571.676 648.32C569.596 650.816 567.228 652.832 564.572 654.368C561.916 655.904 558.844 656.672 555.356 656.672C552.572 656.672 550.044 656.144 547.772 655.088C545.5 654 543.564 652.416 541.964 650.336C540.364 648.256 539.132 645.664 538.268 642.56C537.404 639.456 536.972 635.888 536.972 631.856C536.972 628.272 537.452 624.944 538.412 621.872C539.372 618.768 540.748 616.08 542.54 613.808C544.332 611.536 546.524 609.76 549.116 608.48C551.74 607.168 554.684 606.512 557.948 606.512C560.924 606.512 563.468 607.024 565.58 608.048C567.724 609.04 569.628 610.432 571.292 612.224V585.296H579.836ZM625.875 626.384C625.875 624.4 625.587 622.592 625.011 620.96C624.467 619.296 623.651 617.872 622.563 616.688C621.507 615.472 620.211 614.544 618.675 613.904C617.139 613.232 615.395 612.896 613.443 612.896C609.347 612.896 606.099 614.096 603.699 616.496C601.331 618.864 599.859 622.16 599.283 626.384H625.875ZM632.787 649.184C631.731 650.464 630.467 651.584 628.995 652.544C627.523 653.472 625.939 654.24 624.243 654.848C622.579 655.456 620.851 655.904 619.059 656.192C617.267 656.512 615.491 656.672 613.731 656.672C610.371 656.672 607.267 656.112 604.419 654.992C601.603 653.84 599.155 652.176 597.075 650C595.027 647.792 593.427 645.072 592.275 641.84C591.123 638.608 590.547 634.896 590.547 630.704C590.547 627.312 591.059 624.144 592.083 621.2C593.139 618.256 594.643 615.712 596.595 613.568C598.547 611.392 600.931 609.696 603.747 608.48C606.563 607.232 609.731 606.608 613.251 606.608C616.163 606.608 618.851 607.104 621.315 608.096C623.811 609.056 625.955 610.464 627.747 612.32C629.571 614.144 630.995 616.416 632.019 619.136C633.043 621.824 633.555 624.896 633.555 628.352C633.555 629.696 633.411 630.592 633.123 631.04C632.835 631.488 632.291 631.712 631.491 631.712H598.995C599.091 634.784 599.507 637.456 600.243 639.728C601.011 642 602.067 643.904 603.411 645.44C604.755 646.944 606.355 648.08 608.211 648.848C610.067 649.584 612.147 649.952 614.451 649.952C616.595 649.952 618.435 649.712 619.971 649.232C621.539 648.72 622.883 648.176 624.003 647.6C625.123 647.024 626.051 646.496 626.787 646.016C627.555 645.504 628.211 645.248 628.755 645.248C629.459 645.248 630.003 645.52 630.387 646.064L632.787 649.184ZM652.161 617.12C653.697 613.792 655.585 611.2 657.825 609.344C660.065 607.456 662.801 606.512 666.033 606.512C667.057 606.512 668.033 606.624 668.961 606.848C669.921 607.072 670.769 607.424 671.505 607.904L670.881 614.288C670.689 615.088 670.209 615.488 669.441 615.488C668.993 615.488 668.337 615.392 667.473 615.2C666.609 615.008 665.633 614.912 664.545 614.912C663.009 614.912 661.633 615.136 660.417 615.584C659.233 616.032 658.161 616.704 657.201 617.6C656.273 618.464 655.425 619.552 654.657 620.864C653.921 622.144 653.249 623.616 652.641 625.28V656H644.049V607.376H648.945C649.873 607.376 650.513 607.552 650.865 607.904C651.217 608.256 651.457 608.864 651.585 609.728L652.161 617.12ZM709.593 626.384C709.593 624.4 709.305 622.592 708.729 620.96C708.185 619.296 707.369 617.872 706.281 616.688C705.225 615.472 703.929 614.544 702.393 613.904C700.857 613.232 699.113 612.896 697.161 612.896C693.065 612.896 689.817 614.096 687.417 616.496C685.049 618.864 683.577 622.16 683.001 626.384H709.593ZM716.505 649.184C715.449 650.464 714.185 651.584 712.713 652.544C711.241 653.472 709.657 654.24 707.961 654.848C706.297 655.456 704.569 655.904 702.777 656.192C700.985 656.512 699.209 656.672 697.449 656.672C694.089 656.672 690.985 656.112 688.137 654.992C685.321 653.84 682.873 652.176 680.793 650C678.745 647.792 677.145 645.072 675.993 641.84C674.841 638.608 674.265 634.896 674.265 630.704C674.265 627.312 674.777 624.144 675.801 621.2C676.857 618.256 678.361 615.712 680.313 613.568C682.265 611.392 684.649 609.696 687.465 608.48C690.281 607.232 693.449 606.608 696.969 606.608C699.881 606.608 702.569 607.104 705.033 608.096C707.529 609.056 709.673 610.464 711.465 612.32C713.289 614.144 714.713 616.416 715.737 619.136C716.761 621.824 717.273 624.896 717.273 628.352C717.273 629.696 717.129 630.592 716.841 631.04C716.553 631.488 716.009 631.712 715.209 631.712H682.713C682.809 634.784 683.225 637.456 683.961 639.728C684.729 642 685.785 643.904 687.129 645.44C688.473 646.944 690.073 648.08 691.929 648.848C693.785 649.584 695.865 649.952 698.169 649.952C700.313 649.952 702.153 649.712 703.689 649.232C705.257 648.72 706.601 648.176 707.721 647.6C708.841 647.024 709.769 646.496 710.505 646.016C711.273 645.504 711.929 645.248 712.473 645.248C713.177 645.248 713.721 645.52 714.105 646.064L716.505 649.184ZM759.448 618.944C757.848 616.8 756.12 615.312 754.264 614.48C752.408 613.616 750.328 613.184 748.024 613.184C743.512 613.184 740.04 614.8 737.608 618.032C735.176 621.264 733.96 625.872 733.96 631.856C733.96 635.024 734.232 637.744 734.776 640.016C735.32 642.256 736.12 644.112 737.176 645.584C738.232 647.024 739.528 648.08 741.064 648.752C742.6 649.424 744.344 649.76 746.296 649.76C749.112 649.76 751.56 649.12 753.64 647.84C755.752 646.56 757.688 644.752 759.448 642.416V618.944ZM767.992 585.296V656H762.904C761.688 656 760.92 655.408 760.6 654.224L759.832 648.32C757.752 650.816 755.384 652.832 752.728 654.368C750.072 655.904 747 656.672 743.512 656.672C740.728 656.672 738.2 656.144 735.928 655.088C733.656 654 731.72 652.416 730.12 650.336C728.52 648.256 727.288 645.664 726.424 642.56C725.56 639.456 725.128 635.888 725.128 631.856C725.128 628.272 725.608 624.944 726.568 621.872C727.528 618.768 728.904 616.08 730.696 613.808C732.488 611.536 734.68 609.76 737.272 608.48C739.896 607.168 742.84 606.512 746.104 606.512C749.08 606.512 751.624 607.024 753.736 608.048C755.88 609.04 757.784 610.432 759.448 612.224V585.296H767.992ZM863.793 587.216V656H854.481V624.704H817.377V656H808.065V587.216H817.377V617.888H854.481V587.216H863.793ZM904.308 634.112C900.372 634.24 897.012 634.56 894.228 635.072C891.476 635.552 889.22 636.192 887.46 636.992C885.732 637.792 884.468 638.736 883.668 639.824C882.9 640.912 882.516 642.128 882.516 643.472C882.516 644.752 882.724 645.856 883.14 646.784C883.556 647.712 884.116 648.48 884.82 649.088C885.556 649.664 886.404 650.096 887.364 650.384C888.356 650.64 889.412 650.768 890.532 650.768C892.036 650.768 893.412 650.624 894.66 650.336C895.908 650.016 897.076 649.568 898.164 648.992C899.284 648.416 900.34 647.728 901.332 646.928C902.356 646.128 903.348 645.216 904.308 644.192V634.112ZM876.708 614.24C879.396 611.648 882.292 609.712 885.396 608.432C888.5 607.152 891.94 606.512 895.716 606.512C898.436 606.512 900.852 606.96 902.964 607.856C905.076 608.752 906.852 610 908.292 611.6C909.732 613.2 910.82 615.136 911.556 617.408C912.292 619.68 912.66 622.176 912.66 624.896V656H908.868C908.036 656 907.396 655.872 906.948 655.616C906.5 655.328 906.148 654.784 905.892 653.984L904.932 649.376C903.652 650.56 902.404 651.616 901.188 652.544C899.972 653.44 898.692 654.208 897.348 654.848C896.004 655.456 894.564 655.92 893.028 656.24C891.524 656.592 889.844 656.768 887.988 656.768C886.1 656.768 884.324 656.512 882.66 656C880.996 655.456 879.54 654.656 878.292 653.6C877.076 652.544 876.1 651.216 875.364 649.616C874.66 647.984 874.308 646.064 874.308 643.856C874.308 641.936 874.836 640.096 875.892 638.336C876.948 636.544 878.66 634.96 881.028 633.584C883.396 632.208 886.484 631.088 890.292 630.224C894.1 629.328 898.772 628.816 904.308 628.688V624.896C904.308 621.12 903.492 618.272 901.86 616.352C900.228 614.4 897.844 613.424 894.708 613.424C892.596 613.424 890.82 613.696 889.38 614.24C887.972 614.752 886.74 615.344 885.684 616.016C884.66 616.656 883.764 617.248 882.996 617.792C882.26 618.304 881.524 618.56 880.788 618.56C880.212 618.56 879.716 618.416 879.3 618.128C878.884 617.808 878.532 617.424 878.243 616.976L876.708 614.24ZM933.786 617.12C935.322 613.792 937.21 611.2 939.45 609.344C941.69 607.456 944.426 606.512 947.658 606.512C948.682 606.512 949.658 606.624 950.586 606.848C951.546 607.072 952.394 607.424 953.13 607.904L952.506 614.288C952.314 615.088 951.834 615.488 951.066 615.488C950.618 615.488 949.962 615.392 949.098 615.2C948.234 615.008 947.258 614.912 946.17 614.912C944.634 614.912 943.258 615.136 942.042 615.584C940.858 616.032 939.786 616.704 938.826 617.6C937.898 618.464 937.05 619.552 936.282 620.864C935.546 622.144 934.874 623.616 934.266 625.28V656H925.674V607.376H930.57C931.498 607.376 932.138 607.552 932.49 607.904C932.842 608.256 933.082 608.864 933.21 609.728L933.786 617.12ZM960.643 656V607.376H965.779C966.995 607.376 967.747 607.968 968.035 609.152L968.659 614.144C970.451 611.936 972.467 610.128 974.707 608.72C976.947 607.312 979.539 606.608 982.483 606.608C985.747 606.608 988.387 607.52 990.403 609.344C992.451 611.168 993.923 613.632 994.819 616.736C995.523 614.976 996.419 613.456 997.507 612.176C998.627 610.896 999.875 609.84 1001.25 609.008C1002.63 608.176 1004.08 607.568 1005.62 607.184C1007.19 606.8 1008.77 606.608 1010.37 606.608C1012.93 606.608 1015.2 607.024 1017.19 607.856C1019.2 608.656 1020.9 609.84 1022.28 611.408C1023.68 612.976 1024.76 614.912 1025.49 617.216C1026.23 619.488 1026.6 622.096 1026.6 625.04V656H1018V625.04C1018 621.232 1017.17 618.352 1015.51 616.4C1013.84 614.416 1011.44 613.424 1008.31 613.424C1006.9 613.424 1005.56 613.68 1004.28 614.192C1003.03 614.672 1001.92 615.392 1000.96 616.352C1000 617.312 999.235 618.528 998.659 620C998.115 621.44 997.843 623.12 997.843 625.04V656H989.251V625.04C989.251 621.136 988.467 618.224 986.899 616.304C985.331 614.384 983.043 613.424 980.035 613.424C977.923 613.424 975.971 614 974.179 615.152C972.387 616.272 970.739 617.808 969.235 619.76V656H960.643ZM1042 656V614.672L1036.62 614.048C1035.95 613.888 1035.39 613.648 1034.94 613.328C1034.53 612.976 1034.32 612.48 1034.32 611.84V608.336H1042V603.632C1042 600.848 1042.38 598.384 1043.15 596.24C1043.95 594.064 1045.07 592.24 1046.51 590.768C1047.98 589.264 1049.74 588.128 1051.79 587.36C1053.84 586.592 1056.14 586.208 1058.7 586.208C1060.88 586.208 1062.88 586.528 1064.7 587.168L1064.51 591.44C1064.45 592.208 1064.01 592.624 1063.21 592.688C1062.45 592.752 1061.41 592.784 1060.09 592.784C1058.62 592.784 1057.28 592.976 1056.06 593.36C1054.88 593.744 1053.85 594.368 1052.99 595.232C1052.13 596.096 1051.45 597.232 1050.97 598.64C1050.53 600.048 1050.3 601.792 1050.3 603.872V608.336H1064.32V614.528H1050.59V656H1042ZM1112.47 607.376V656H1107.38C1106.17 656 1105.4 655.408 1105.08 654.224L1104.41 648.992C1102.29 651.328 1099.93 653.216 1097.3 654.656C1094.68 656.064 1091.67 656.768 1088.28 656.768C1085.62 656.768 1083.27 656.336 1081.22 655.472C1079.21 654.576 1077.51 653.328 1076.13 651.728C1074.76 650.128 1073.72 648.192 1073.01 645.92C1072.34 643.648 1072.01 641.136 1072.01 638.384V607.376H1080.55V638.384C1080.55 642.064 1081.38 644.912 1083.05 646.928C1084.74 648.944 1087.32 649.952 1090.77 649.952C1093.3 649.952 1095.65 649.36 1097.83 648.176C1100.04 646.96 1102.07 645.296 1103.93 643.184V607.376H1112.47ZM1134.85 585.296V656H1126.31V585.296H1134.85Z" fill="#F92472"/>
</svg>
