<svg width="1440" height="1080" viewBox="0 0 1440 1080" fill="none" xmlns="http://www.w3.org/2000/svg">
<rect width="1440" height="1080" fill="#282923"/>
<path d="M496.179 549.712C496.179 559.984 497.475 569.968 500.067 579.664C502.707 589.36 506.547 598.576 511.587 607.312C512.355 608.8 512.547 609.928 512.163 610.696C511.779 611.512 511.227 612.16 510.507 612.64L504.819 616.096C501.219 610.576 498.147 605.104 495.603 599.68C493.107 594.256 491.067 588.808 489.483 583.336C487.947 577.864 486.819 572.368 486.099 566.848C485.379 561.28 485.019 555.568 485.019 549.712C485.019 543.904 485.379 538.216 486.099 532.648C486.819 527.08 487.947 521.584 489.483 516.16C491.067 510.688 493.107 505.24 495.603 499.816C498.147 494.392 501.219 488.896 504.819 483.328L510.507 486.856C511.227 487.336 511.779 487.984 512.163 488.8C512.547 489.568 512.355 490.672 511.587 492.112C506.547 500.848 502.707 510.064 500.067 519.76C497.475 529.456 496.179 539.44 496.179 549.712ZM534.57 549.712C534.57 559.984 535.866 569.968 538.458 579.664C541.098 589.36 544.938 598.576 549.978 607.312C550.746 608.8 550.938 609.928 550.554 610.696C550.17 611.512 549.618 612.16 548.898 612.64L543.21 616.096C539.61 610.576 536.538 605.104 533.994 599.68C531.498 594.256 529.458 588.808 527.874 583.336C526.338 577.864 525.21 572.368 524.49 566.848C523.77 561.28 523.41 555.568 523.41 549.712C523.41 543.904 523.77 538.216 524.49 532.648C525.21 527.08 526.338 521.584 527.874 516.16C529.458 510.688 531.498 505.24 533.994 499.816C536.538 494.392 539.61 488.896 543.21 483.328L548.898 486.856C549.618 487.336 550.17 487.984 550.554 488.8C550.938 489.568 550.746 490.672 549.978 492.112C544.938 500.848 541.098 510.064 538.458 519.76C535.866 529.456 534.57 539.44 534.57 549.712ZM572.96 549.712C572.96 559.984 574.256 569.968 576.848 579.664C579.488 589.36 583.328 598.576 588.368 607.312C589.136 608.8 589.328 609.928 588.944 610.696C588.56 611.512 588.008 612.16 587.288 612.64L581.6 616.096C578 610.576 574.928 605.104 572.384 599.68C569.888 594.256 567.848 588.808 566.264 583.336C564.728 577.864 563.6 572.368 562.88 566.848C562.16 561.28 561.8 555.568 561.8 549.712C561.8 543.904 562.16 538.216 562.88 532.648C563.6 527.08 564.728 521.584 566.264 516.16C567.848 510.688 569.888 505.24 572.384 499.816C574.928 494.392 578 488.896 581.6 483.328L587.288 486.856C588.008 487.336 588.56 487.984 588.944 488.8C589.328 489.568 589.136 490.672 588.368 492.112C583.328 500.848 579.488 510.064 576.848 519.76C574.256 529.456 572.96 539.44 572.96 549.712Z" fill="#282923"/>
<path d="M665.423 583.264V595H606.887V491.824H620.783V583.264H665.423ZM691.368 522.064V595H678.552V522.064H691.368ZM694.104 499.168C694.104 500.416 693.84 501.592 693.312 502.696C692.832 503.752 692.16 504.712 691.296 505.576C690.48 506.392 689.496 507.04 688.344 507.52C687.24 508 686.064 508.24 684.816 508.24C683.568 508.24 682.392 508 681.288 507.52C680.232 507.04 679.296 506.392 678.48 505.576C677.664 504.712 677.016 503.752 676.536 502.696C676.056 501.592 675.816 500.416 675.816 499.168C675.816 497.92 676.056 496.744 676.536 495.64C677.016 494.488 677.664 493.504 678.48 492.688C679.296 491.824 680.232 491.152 681.288 490.672C682.392 490.192 683.568 489.952 684.816 489.952C686.064 489.952 687.24 490.192 688.344 490.672C689.496 491.152 690.48 491.824 691.296 492.688C692.16 493.504 692.832 494.488 693.312 495.64C693.84 496.744 694.104 497.92 694.104 499.168ZM754.905 534.088C754.329 535.144 753.441 535.672 752.241 535.672C751.521 535.672 750.705 535.408 749.793 534.88C748.881 534.352 747.753 533.776 746.409 533.152C745.113 532.48 743.553 531.88 741.729 531.352C739.905 530.776 737.745 530.488 735.249 530.488C733.089 530.488 731.145 530.776 729.417 531.352C727.689 531.88 726.201 532.624 724.953 533.584C723.753 534.544 722.817 535.672 722.145 536.968C721.521 538.216 721.209 539.584 721.209 541.072C721.209 542.944 721.737 544.504 722.793 545.752C723.897 547 725.337 548.08 727.113 548.992C728.889 549.904 730.905 550.72 733.161 551.44C735.417 552.112 737.721 552.856 740.073 553.672C742.473 554.44 744.801 555.304 747.057 556.264C749.313 557.224 751.329 558.424 753.105 559.864C754.881 561.304 756.297 563.08 757.353 565.192C758.457 567.256 759.009 569.752 759.009 572.68C759.009 576.04 758.409 579.16 757.209 582.04C756.009 584.872 754.233 587.344 751.881 589.456C749.529 591.52 746.649 593.152 743.241 594.352C739.833 595.552 735.897 596.152 731.433 596.152C726.345 596.152 721.737 595.336 717.609 593.704C713.481 592.024 709.977 589.888 707.097 587.296L710.121 582.4C710.505 581.776 710.961 581.296 711.489 580.96C712.017 580.624 712.689 580.456 713.505 580.456C714.369 580.456 715.281 580.792 716.241 581.464C717.201 582.136 718.353 582.88 719.697 583.696C721.089 584.512 722.769 585.256 724.737 585.928C726.705 586.6 729.153 586.936 732.081 586.936C734.577 586.936 736.761 586.624 738.633 586C740.505 585.328 742.065 584.44 743.313 583.336C744.561 582.232 745.473 580.96 746.049 579.52C746.673 578.08 746.985 576.544 746.985 574.912C746.985 572.896 746.433 571.24 745.329 569.944C744.273 568.6 742.857 567.472 741.081 566.56C739.305 565.6 737.265 564.784 734.961 564.112C732.705 563.392 730.377 562.648 727.977 561.88C725.625 561.112 723.297 560.248 720.993 559.288C718.737 558.28 716.721 557.032 714.945 555.544C713.169 554.056 711.729 552.232 710.625 550.072C709.569 547.864 709.041 545.2 709.041 542.08C709.041 539.296 709.617 536.632 710.769 534.088C711.921 531.496 713.601 529.24 715.809 527.32C718.017 525.352 720.729 523.792 723.945 522.64C727.161 521.488 730.833 520.912 734.961 520.912C739.761 520.912 744.057 521.68 747.849 523.216C751.689 524.704 755.001 526.768 757.785 529.408L754.905 534.088ZM787.61 577.432C789.962 580.6 792.53 582.832 795.314 584.128C798.098 585.424 801.218 586.072 804.674 586.072C811.49 586.072 816.722 583.648 820.37 578.8C824.018 573.952 825.842 567.04 825.842 558.064C825.842 553.312 825.41 549.232 824.546 545.824C823.73 542.416 822.53 539.632 820.946 537.472C819.362 535.264 817.418 533.656 815.114 532.648C812.81 531.64 810.194 531.136 807.266 531.136C803.09 531.136 799.418 532.096 796.25 534.016C793.13 535.936 790.25 538.648 787.61 542.152V577.432ZM786.962 533.368C790.034 529.576 793.586 526.528 797.618 524.224C801.65 521.92 806.258 520.768 811.442 520.768C815.666 520.768 819.482 521.584 822.89 523.216C826.298 524.8 829.202 527.176 831.602 530.344C834.002 533.464 835.85 537.352 837.146 542.008C838.442 546.664 839.09 552.016 839.09 558.064C839.09 563.44 838.37 568.456 836.93 573.112C835.49 577.72 833.402 581.728 830.666 585.136C827.978 588.496 824.666 591.16 820.73 593.128C816.842 595.048 812.45 596.008 807.554 596.008C803.09 596.008 799.25 595.264 796.034 593.776C792.866 592.24 790.058 590.128 787.61 587.44V619.696H774.722V522.064H782.426C784.25 522.064 785.378 522.952 785.81 524.728L786.962 533.368Z" fill="#E7DB74"/>
<path d="M866.097 549.712C866.097 539.44 864.777 529.456 862.137 519.76C859.545 510.064 855.729 500.848 850.689 492.112C850.305 491.392 850.065 490.768 849.969 490.24C849.873 489.664 849.897 489.184 850.041 488.8C850.185 488.368 850.401 488.008 850.689 487.72C851.025 487.384 851.385 487.096 851.769 486.856L857.457 483.328C861.057 488.896 864.105 494.392 866.601 499.816C869.145 505.24 871.185 510.688 872.721 516.16C874.305 521.584 875.457 527.08 876.177 532.648C876.897 538.216 877.257 543.904 877.257 549.712C877.257 555.568 876.897 561.28 876.177 566.848C875.457 572.368 874.305 577.864 872.721 583.336C871.185 588.808 869.145 594.256 866.601 599.68C864.105 605.104 861.057 610.576 857.457 616.096L851.769 612.64C851.385 612.4 851.025 612.112 850.689 611.776C850.401 611.488 850.185 611.128 850.041 610.696C849.897 610.312 849.873 609.832 849.969 609.256C850.065 608.68 850.305 608.032 850.689 607.312C855.729 598.576 859.545 589.36 862.137 579.664C864.777 569.968 866.097 559.984 866.097 549.712ZM904.488 549.712C904.488 539.44 903.168 529.456 900.528 519.76C897.936 510.064 894.12 500.848 889.08 492.112C888.696 491.392 888.456 490.768 888.36 490.24C888.264 489.664 888.288 489.184 888.432 488.8C888.576 488.368 888.792 488.008 889.08 487.72C889.416 487.384 889.776 487.096 890.16 486.856L895.848 483.328C899.448 488.896 902.496 494.392 904.992 499.816C907.536 505.24 909.576 510.688 911.112 516.16C912.696 521.584 913.848 527.08 914.568 532.648C915.288 538.216 915.648 543.904 915.648 549.712C915.648 555.568 915.288 561.28 914.568 566.848C913.848 572.368 912.696 577.864 911.112 583.336C909.576 588.808 907.536 594.256 904.992 599.68C902.496 605.104 899.448 610.576 895.848 616.096L890.16 612.64C889.776 612.4 889.416 612.112 889.08 611.776C888.792 611.488 888.576 611.128 888.432 610.696C888.288 610.312 888.264 609.832 888.36 609.256C888.456 608.68 888.696 608.032 889.08 607.312C894.12 598.576 897.936 589.36 900.528 579.664C903.168 569.968 904.488 559.984 904.488 549.712ZM942.878 549.712C942.878 539.44 941.558 529.456 938.918 519.76C936.326 510.064 932.51 500.848 927.47 492.112C927.086 491.392 926.846 490.768 926.75 490.24C926.654 489.664 926.678 489.184 926.822 488.8C926.966 488.368 927.182 488.008 927.47 487.72C927.806 487.384 928.166 487.096 928.55 486.856L934.238 483.328C937.838 488.896 940.886 494.392 943.382 499.816C945.926 505.24 947.966 510.688 949.502 516.16C951.086 521.584 952.238 527.08 952.958 532.648C953.678 538.216 954.038 543.904 954.038 549.712C954.038 555.568 953.678 561.28 952.958 566.848C952.238 572.368 951.086 577.864 949.502 583.336C947.966 588.808 945.926 594.256 943.382 599.68C940.886 605.104 937.838 610.576 934.238 616.096L928.55 612.64C928.166 612.4 927.806 612.112 927.47 611.776C927.182 611.488 926.966 611.128 926.822 610.696C926.678 610.312 926.654 609.832 926.75 609.256C926.846 608.68 927.086 608.032 927.47 607.312C932.51 598.576 936.326 589.36 938.918 579.664C941.558 569.968 942.878 559.984 942.878 549.712Z" fill="#74705D"/>
</svg>
