<svg width="1440" height="1080" viewBox="0 0 1440 1080" fill="none" xmlns="http://www.w3.org/2000/svg">
<rect width="1440" height="1080" fill="#282923"/>
<path d="M601.167 417.2V453.272H643.575V464.648H601.167V509H587.199V405.824H650.775V417.2H601.167ZM719.007 421.952C718.575 422.672 718.095 423.224 717.567 423.608C717.087 423.944 716.487 424.112 715.767 424.112C714.951 424.112 713.991 423.704 712.887 422.888C711.783 422.072 710.391 421.184 708.711 420.224C707.079 419.216 705.087 418.304 702.735 417.488C700.431 416.672 697.623 416.264 694.311 416.264C691.191 416.264 688.431 416.696 686.031 417.56C683.679 418.376 681.687 419.504 680.055 420.944C678.471 422.384 677.271 424.088 676.455 426.056C675.639 427.976 675.231 430.064 675.231 432.32C675.231 435.2 675.927 437.6 677.319 439.52C678.759 441.392 680.631 443 682.935 444.344C685.287 445.688 687.927 446.864 690.855 447.872C693.831 448.832 696.855 449.84 699.927 450.896C703.047 451.952 706.071 453.152 708.999 454.496C711.975 455.792 714.615 457.448 716.919 459.464C719.271 461.48 721.143 463.952 722.535 466.88C723.975 469.808 724.695 473.408 724.695 477.68C724.695 482.192 723.927 486.44 722.391 490.424C720.855 494.36 718.599 497.792 715.623 500.72C712.695 503.648 709.071 505.952 704.751 507.632C700.479 509.312 695.607 510.152 690.135 510.152C683.415 510.152 677.319 508.952 671.847 506.552C666.375 504.104 661.695 500.816 657.807 496.688L661.839 490.064C662.223 489.536 662.679 489.104 663.207 488.768C663.783 488.384 664.407 488.192 665.079 488.192C665.703 488.192 666.399 488.456 667.167 488.984C667.983 489.464 668.895 490.088 669.903 490.856C670.911 491.624 672.063 492.464 673.359 493.376C674.655 494.288 676.119 495.128 677.751 495.896C679.431 496.664 681.327 497.312 683.439 497.84C685.551 498.32 687.927 498.56 690.567 498.56C693.879 498.56 696.831 498.104 699.423 497.192C702.015 496.28 704.199 495.008 705.975 493.376C707.799 491.696 709.191 489.704 710.151 487.4C711.111 485.096 711.591 482.528 711.591 479.696C711.591 476.576 710.871 474.032 709.431 472.064C708.039 470.048 706.191 468.368 703.887 467.024C701.583 465.68 698.943 464.552 695.967 463.64C692.991 462.68 689.967 461.72 686.895 460.76C683.823 459.752 680.799 458.6 677.823 457.304C674.847 456.008 672.207 454.328 669.903 452.264C667.599 450.2 665.727 447.632 664.287 444.56C662.895 441.44 662.199 437.6 662.199 433.04C662.199 429.392 662.895 425.864 664.287 422.456C665.727 419.048 667.791 416.024 670.479 413.384C673.215 410.744 676.551 408.632 680.487 407.048C684.471 405.464 689.031 404.672 694.167 404.672C699.927 404.672 705.159 405.584 709.863 407.408C714.615 409.232 718.791 411.872 722.391 415.328L719.007 421.952ZM851.77 405.824V509H839.53V433.184C839.53 432.176 839.554 431.096 839.602 429.944C839.698 428.792 839.794 427.616 839.89 426.416L804.466 490.928C803.362 493.088 801.682 494.168 799.426 494.168H797.41C795.154 494.168 793.474 493.088 792.37 490.928L756.226 426.128C756.514 428.672 756.658 431.024 756.658 433.184V509H744.418V405.824H754.714C755.962 405.824 756.922 405.944 757.594 406.184C758.266 406.424 758.914 407.096 759.538 408.2L795.178 471.704C795.754 472.856 796.306 474.056 796.834 475.304C797.41 476.552 797.938 477.824 798.418 479.12C798.898 477.824 799.402 476.552 799.93 475.304C800.458 474.008 801.034 472.784 801.658 471.632L836.65 408.2C837.226 407.096 837.85 406.424 838.522 406.184C839.242 405.944 840.226 405.824 841.474 405.824H851.77Z" fill="#F8F8F2"/>
<path d="M410.584 565.1V583.136H431.788V588.824H410.584V611H403.6V559.412H435.388V565.1H410.584ZM449.426 574.532V611H443.018V574.532H449.426ZM450.794 563.084C450.794 563.708 450.662 564.296 450.398 564.848C450.158 565.376 449.822 565.856 449.39 566.288C448.982 566.696 448.49 567.02 447.914 567.26C447.362 567.5 446.774 567.62 446.15 567.62C445.526 567.62 444.938 567.5 444.386 567.26C443.858 567.02 443.39 566.696 442.982 566.288C442.574 565.856 442.25 565.376 442.01 564.848C441.77 564.296 441.65 563.708 441.65 563.084C441.65 562.46 441.77 561.872 442.01 561.32C442.25 560.744 442.574 560.252 442.982 559.844C443.39 559.412 443.858 559.076 444.386 558.836C444.938 558.596 445.526 558.476 446.15 558.476C446.774 558.476 447.362 558.596 447.914 558.836C448.49 559.076 448.982 559.412 449.39 559.844C449.822 560.252 450.158 560.744 450.398 561.32C450.662 561.872 450.794 562.46 450.794 563.084ZM466.003 579.824C466.795 578.936 467.635 578.132 468.523 577.412C469.411 576.692 470.347 576.08 471.331 575.576C472.339 575.048 473.395 574.652 474.499 574.388C475.627 574.1 476.839 573.956 478.135 573.956C480.127 573.956 481.879 574.292 483.391 574.964C484.927 575.612 486.199 576.548 487.207 577.772C488.239 578.972 489.019 580.424 489.547 582.128C490.075 583.832 490.339 585.716 490.339 587.78V611H483.895V587.78C483.895 585.02 483.259 582.884 481.987 581.372C480.739 579.836 478.831 579.068 476.263 579.068C474.367 579.068 472.591 579.524 470.935 580.436C469.303 581.348 467.791 582.584 466.399 584.144V611H459.955V574.532H463.807C464.719 574.532 465.283 574.976 465.499 575.864L466.003 579.824ZM506.871 574.532V611H500.463V574.532H506.871ZM508.239 563.084C508.239 563.708 508.107 564.296 507.843 564.848C507.603 565.376 507.267 565.856 506.835 566.288C506.427 566.696 505.935 567.02 505.359 567.26C504.807 567.5 504.219 567.62 503.595 567.62C502.971 567.62 502.383 567.5 501.831 567.26C501.303 567.02 500.835 566.696 500.427 566.288C500.019 565.856 499.695 565.376 499.455 564.848C499.215 564.296 499.095 563.708 499.095 563.084C499.095 562.46 499.215 561.872 499.455 561.32C499.695 560.744 500.019 560.252 500.427 559.844C500.835 559.412 501.303 559.076 501.831 558.836C502.383 558.596 502.971 558.476 503.595 558.476C504.219 558.476 504.807 558.596 505.359 558.836C505.935 559.076 506.427 559.412 506.835 559.844C507.267 560.252 507.603 560.744 507.843 561.32C508.107 561.872 508.239 562.46 508.239 563.084ZM528.596 611.576C525.716 611.576 523.496 610.772 521.936 609.164C520.4 607.556 519.632 605.24 519.632 602.216V579.896H515.24C514.856 579.896 514.532 579.788 514.268 579.572C514.004 579.332 513.872 578.972 513.872 578.492V575.936L519.848 575.18L521.324 563.912C521.396 563.552 521.552 563.264 521.792 563.048C522.056 562.808 522.392 562.688 522.8 562.688H526.04V575.252H536.588V579.896H526.04V601.784C526.04 603.32 526.412 604.46 527.156 605.204C527.9 605.948 528.86 606.32 530.036 606.32C530.708 606.32 531.284 606.236 531.764 606.068C532.268 605.876 532.7 605.672 533.06 605.456C533.42 605.24 533.72 605.048 533.96 604.88C534.224 604.688 534.452 604.592 534.644 604.592C534.98 604.592 535.28 604.796 535.544 605.204L537.416 608.264C536.312 609.296 534.98 610.112 533.42 610.712C531.86 611.288 530.252 611.576 528.596 611.576ZM567.402 588.788C567.402 587.3 567.186 585.944 566.754 584.72C566.346 583.472 565.734 582.404 564.918 581.516C564.126 580.604 563.154 579.908 562.002 579.428C560.85 578.924 559.542 578.672 558.078 578.672C555.006 578.672 552.57 579.572 550.77 581.372C548.994 583.148 547.89 585.62 547.458 588.788H567.402ZM572.586 605.888C571.794 606.848 570.846 607.688 569.742 608.408C568.638 609.104 567.45 609.68 566.178 610.136C564.93 610.592 563.634 610.928 562.29 611.144C560.946 611.384 559.614 611.504 558.294 611.504C555.774 611.504 553.446 611.084 551.31 610.244C549.198 609.38 547.362 608.132 545.802 606.5C544.266 604.844 543.066 602.804 542.202 600.38C541.338 597.956 540.906 595.172 540.906 592.028C540.906 589.484 541.29 587.108 542.058 584.9C542.85 582.692 543.978 580.784 545.442 579.176C546.906 577.544 548.694 576.272 550.806 575.36C552.918 574.424 555.294 573.956 557.934 573.956C560.118 573.956 562.134 574.328 563.982 575.072C565.854 575.792 567.462 576.848 568.806 578.24C570.174 579.608 571.242 581.312 572.01 583.352C572.778 585.368 573.162 587.672 573.162 590.264C573.162 591.272 573.054 591.944 572.838 592.28C572.622 592.616 572.214 592.784 571.614 592.784H547.242C547.314 595.088 547.626 597.092 548.178 598.796C548.754 600.5 549.546 601.928 550.554 603.08C551.562 604.208 552.762 605.06 554.154 605.636C555.546 606.188 557.106 606.464 558.834 606.464C560.442 606.464 561.822 606.284 562.974 605.924C564.15 605.54 565.158 605.132 565.998 604.7C566.838 604.268 567.534 603.872 568.086 603.512C568.662 603.128 569.154 602.936 569.562 602.936C570.09 602.936 570.498 603.14 570.786 603.548L572.586 605.888ZM580.457 586.7H598.241V592.136H580.457V586.7ZM628.992 580.544C628.704 581.072 628.26 581.336 627.66 581.336C627.3 581.336 626.892 581.204 626.436 580.94C625.98 580.676 625.416 580.388 624.744 580.076C624.096 579.74 623.316 579.44 622.404 579.176C621.492 578.888 620.412 578.744 619.164 578.744C618.084 578.744 617.112 578.888 616.248 579.176C615.384 579.44 614.64 579.812 614.016 580.292C613.416 580.772 612.948 581.336 612.612 581.984C612.3 582.608 612.144 583.292 612.144 584.036C612.144 584.972 612.408 585.752 612.936 586.376C613.488 587 614.208 587.54 615.096 587.996C615.984 588.452 616.992 588.86 618.12 589.22C619.248 589.556 620.4 589.928 621.576 590.336C622.776 590.72 623.94 591.152 625.068 591.632C626.196 592.112 627.204 592.712 628.092 593.432C628.98 594.152 629.688 595.04 630.216 596.096C630.768 597.128 631.044 598.376 631.044 599.84C631.044 601.52 630.744 603.08 630.144 604.52C629.544 605.936 628.656 607.172 627.48 608.228C626.304 609.26 624.864 610.076 623.16 610.676C621.456 611.276 619.488 611.576 617.256 611.576C614.712 611.576 612.408 611.168 610.344 610.352C608.28 609.512 606.528 608.444 605.088 607.148L606.6 604.7C606.792 604.388 607.02 604.148 607.284 603.98C607.548 603.812 607.884 603.728 608.292 603.728C608.724 603.728 609.18 603.896 609.66 604.232C610.14 604.568 610.716 604.94 611.388 605.348C612.084 605.756 612.924 606.128 613.908 606.464C614.892 606.8 616.116 606.968 617.58 606.968C618.828 606.968 619.92 606.812 620.856 606.5C621.792 606.164 622.572 605.72 623.196 605.168C623.82 604.616 624.276 603.98 624.564 603.26C624.876 602.54 625.032 601.772 625.032 600.956C625.032 599.948 624.756 599.12 624.204 598.472C623.676 597.8 622.968 597.236 622.08 596.78C621.192 596.3 620.172 595.892 619.02 595.556C617.892 595.196 616.728 594.824 615.528 594.44C614.352 594.056 613.188 593.624 612.036 593.144C610.908 592.64 609.9 592.016 609.012 591.272C608.124 590.528 607.404 589.616 606.852 588.536C606.324 587.432 606.06 586.1 606.06 584.54C606.06 583.148 606.348 581.816 606.924 580.544C607.5 579.248 608.34 578.12 609.444 577.16C610.548 576.176 611.904 575.396 613.512 574.82C615.12 574.244 616.956 573.956 619.02 573.956C621.42 573.956 623.568 574.34 625.464 575.108C627.384 575.852 629.04 576.884 630.432 578.204L628.992 580.544ZM650.096 611.576C647.216 611.576 644.996 610.772 643.436 609.164C641.9 607.556 641.132 605.24 641.132 602.216V579.896H636.74C636.356 579.896 636.032 579.788 635.768 579.572C635.504 579.332 635.372 578.972 635.372 578.492V575.936L641.348 575.18L642.824 563.912C642.896 563.552 643.052 563.264 643.292 563.048C643.556 562.808 643.892 562.688 644.3 562.688H647.54V575.252H658.088V579.896H647.54V601.784C647.54 603.32 647.912 604.46 648.656 605.204C649.4 605.948 650.36 606.32 651.536 606.32C652.208 606.32 652.784 606.236 653.264 606.068C653.768 605.876 654.2 605.672 654.56 605.456C654.92 605.24 655.22 605.048 655.46 604.88C655.724 604.688 655.952 604.592 656.144 604.592C656.48 604.592 656.78 604.796 657.044 605.204L658.916 608.264C657.812 609.296 656.48 610.112 654.92 610.712C653.36 611.288 651.752 611.576 650.096 611.576ZM684.469 594.584C681.517 594.68 678.997 594.92 676.909 595.304C674.845 595.664 673.153 596.144 671.833 596.744C670.537 597.344 669.589 598.052 668.989 598.868C668.413 599.684 668.125 600.596 668.125 601.604C668.125 602.564 668.281 603.392 668.593 604.088C668.905 604.784 669.325 605.36 669.853 605.816C670.405 606.248 671.041 606.572 671.761 606.788C672.505 606.98 673.297 607.076 674.137 607.076C675.265 607.076 676.297 606.968 677.233 606.752C678.169 606.512 679.045 606.176 679.861 605.744C680.701 605.312 681.493 604.796 682.237 604.196C683.005 603.596 683.749 602.912 684.469 602.144V594.584ZM663.769 579.68C665.785 577.736 667.957 576.284 670.285 575.324C672.613 574.364 675.193 573.884 678.025 573.884C680.065 573.884 681.877 574.22 683.461 574.892C685.045 575.564 686.377 576.5 687.457 577.7C688.537 578.9 689.353 580.352 689.905 582.056C690.457 583.76 690.733 585.632 690.733 587.672V611H687.889C687.265 611 686.785 610.904 686.449 610.712C686.113 610.496 685.849 610.088 685.657 609.488L684.937 606.032C683.977 606.92 683.041 607.712 682.129 608.408C681.217 609.08 680.257 609.656 679.249 610.136C678.241 610.592 677.161 610.94 676.009 611.18C674.881 611.444 673.621 611.576 672.229 611.576C670.813 611.576 669.481 611.384 668.233 611C666.985 610.592 665.893 609.992 664.957 609.2C664.045 608.408 663.313 607.412 662.761 606.212C662.233 604.988 661.969 603.548 661.969 601.892C661.969 600.452 662.365 599.072 663.157 597.752C663.949 596.408 665.233 595.22 667.009 594.188C668.785 593.156 671.101 592.316 673.957 591.668C676.813 590.996 680.317 590.612 684.469 590.516V587.672C684.469 584.84 683.857 582.704 682.633 581.264C681.409 579.8 679.621 579.068 677.269 579.068C675.685 579.068 674.353 579.272 673.273 579.68C672.217 580.064 671.293 580.508 670.501 581.012C669.733 581.492 669.061 581.936 668.485 582.344C667.933 582.728 667.381 582.92 666.829 582.92C666.397 582.92 666.025 582.812 665.713 582.596C665.401 582.356 665.137 582.068 664.921 581.732L663.769 579.68ZM711.198 611.576C708.318 611.576 706.098 610.772 704.538 609.164C703.002 607.556 702.234 605.24 702.234 602.216V579.896H697.842C697.458 579.896 697.134 579.788 696.87 579.572C696.606 579.332 696.474 578.972 696.474 578.492V575.936L702.45 575.18L703.926 563.912C703.998 563.552 704.154 563.264 704.394 563.048C704.658 562.808 704.994 562.688 705.402 562.688H708.642V575.252H719.19V579.896H708.642V601.784C708.642 603.32 709.014 604.46 709.758 605.204C710.502 605.948 711.462 606.32 712.638 606.32C713.31 606.32 713.886 606.236 714.366 606.068C714.87 605.876 715.302 605.672 715.662 605.456C716.022 605.24 716.322 605.048 716.562 604.88C716.826 604.688 717.054 604.592 717.246 604.592C717.582 604.592 717.882 604.796 718.146 605.204L720.018 608.264C718.914 609.296 717.582 610.112 716.022 610.712C714.462 611.288 712.854 611.576 711.198 611.576ZM750.004 588.788C750.004 587.3 749.788 585.944 749.356 584.72C748.948 583.472 748.336 582.404 747.52 581.516C746.728 580.604 745.756 579.908 744.604 579.428C743.452 578.924 742.144 578.672 740.68 578.672C737.608 578.672 735.172 579.572 733.372 581.372C731.596 583.148 730.492 585.62 730.06 588.788H750.004ZM755.188 605.888C754.396 606.848 753.448 607.688 752.344 608.408C751.24 609.104 750.052 609.68 748.78 610.136C747.532 610.592 746.236 610.928 744.892 611.144C743.548 611.384 742.216 611.504 740.896 611.504C738.376 611.504 736.048 611.084 733.912 610.244C731.8 609.38 729.964 608.132 728.404 606.5C726.868 604.844 725.668 602.804 724.804 600.38C723.94 597.956 723.508 595.172 723.508 592.028C723.508 589.484 723.892 587.108 724.66 584.9C725.452 582.692 726.58 580.784 728.044 579.176C729.508 577.544 731.296 576.272 733.408 575.36C735.52 574.424 737.896 573.956 740.536 573.956C742.72 573.956 744.736 574.328 746.584 575.072C748.456 575.792 750.064 576.848 751.408 578.24C752.776 579.608 753.844 581.312 754.612 583.352C755.38 585.368 755.764 587.672 755.764 590.264C755.764 591.272 755.656 591.944 755.44 592.28C755.224 592.616 754.816 592.784 754.216 592.784H729.844C729.916 595.088 730.228 597.092 730.78 598.796C731.356 600.5 732.148 601.928 733.156 603.08C734.164 604.208 735.364 605.06 736.756 605.636C738.148 606.188 739.708 606.464 741.436 606.464C743.044 606.464 744.424 606.284 745.576 605.924C746.752 605.54 747.76 605.132 748.6 604.7C749.44 604.268 750.136 603.872 750.688 603.512C751.264 603.128 751.756 602.936 752.164 602.936C752.692 602.936 753.1 603.14 753.388 603.548L755.188 605.888ZM782.056 611V574.532H785.908C786.82 574.532 787.384 574.976 787.6 575.864L788.068 579.608C789.412 577.952 790.924 576.596 792.604 575.54C794.284 574.484 796.228 573.956 798.436 573.956C800.884 573.956 802.864 574.64 804.376 576.008C805.912 577.376 807.016 579.224 807.688 581.552C808.216 580.232 808.888 579.092 809.704 578.132C810.544 577.172 811.48 576.38 812.512 575.756C813.544 575.132 814.636 574.676 815.788 574.388C816.964 574.1 818.152 573.956 819.352 573.956C821.272 573.956 822.976 574.268 824.464 574.892C825.976 575.492 827.248 576.38 828.28 577.556C829.336 578.732 830.14 580.184 830.692 581.912C831.244 583.616 831.52 585.572 831.52 587.78V611H825.076V587.78C825.076 584.924 824.452 582.764 823.204 581.3C821.956 579.812 820.156 579.068 817.804 579.068C816.748 579.068 815.74 579.26 814.78 579.644C813.844 580.004 813.016 580.544 812.296 581.264C811.576 581.984 811 582.896 810.568 584C810.16 585.08 809.956 586.34 809.956 587.78V611H803.512V587.78C803.512 584.852 802.924 582.668 801.748 581.228C800.572 579.788 798.856 579.068 796.6 579.068C795.016 579.068 793.552 579.5 792.208 580.364C790.864 581.204 789.628 582.356 788.5 583.82V611H782.056ZM861.024 594.584C858.072 594.68 855.552 594.92 853.464 595.304C851.4 595.664 849.708 596.144 848.388 596.744C847.092 597.344 846.144 598.052 845.544 598.868C844.968 599.684 844.68 600.596 844.68 601.604C844.68 602.564 844.836 603.392 845.148 604.088C845.46 604.784 845.88 605.36 846.408 605.816C846.96 606.248 847.596 606.572 848.316 606.788C849.06 606.98 849.852 607.076 850.692 607.076C851.82 607.076 852.852 606.968 853.788 606.752C854.724 606.512 855.6 606.176 856.416 605.744C857.256 605.312 858.048 604.796 858.792 604.196C859.56 603.596 860.304 602.912 861.024 602.144V594.584ZM840.324 579.68C842.34 577.736 844.512 576.284 846.84 575.324C849.168 574.364 851.748 573.884 854.58 573.884C856.62 573.884 858.432 574.22 860.016 574.892C861.6 575.564 862.932 576.5 864.012 577.7C865.092 578.9 865.908 580.352 866.46 582.056C867.012 583.76 867.288 585.632 867.288 587.672V611H864.444C863.82 611 863.34 610.904 863.004 610.712C862.668 610.496 862.404 610.088 862.212 609.488L861.492 606.032C860.532 606.92 859.596 607.712 858.684 608.408C857.772 609.08 856.812 609.656 855.804 610.136C854.796 610.592 853.716 610.94 852.564 611.18C851.436 611.444 850.176 611.576 848.784 611.576C847.368 611.576 846.036 611.384 844.788 611C843.54 610.592 842.448 609.992 841.512 609.2C840.6 608.408 839.868 607.412 839.316 606.212C838.788 604.988 838.524 603.548 838.524 601.892C838.524 600.452 838.92 599.072 839.712 597.752C840.504 596.408 841.788 595.22 843.564 594.188C845.34 593.156 847.656 592.316 850.512 591.668C853.368 590.996 856.872 590.612 861.024 590.516V587.672C861.024 584.84 860.412 582.704 859.188 581.264C857.964 579.8 856.176 579.068 853.824 579.068C852.24 579.068 850.908 579.272 849.828 579.68C848.772 580.064 847.848 580.508 847.056 581.012C846.288 581.492 845.616 581.936 845.04 582.344C844.488 582.728 843.936 582.92 843.384 582.92C842.952 582.92 842.58 582.812 842.268 582.596C841.956 582.356 841.692 582.068 841.476 581.732L840.324 579.68ZM902.429 581.012C902.237 581.276 902.045 581.48 901.853 581.624C901.661 581.768 901.397 581.84 901.061 581.84C900.701 581.84 900.305 581.696 899.873 581.408C899.441 581.096 898.901 580.76 898.253 580.4C897.629 580.04 896.849 579.716 895.913 579.428C895.001 579.116 893.873 578.96 892.529 578.96C890.729 578.96 889.145 579.284 887.777 579.932C886.409 580.556 885.257 581.468 884.321 582.668C883.409 583.868 882.713 585.32 882.233 587.024C881.777 588.728 881.549 590.636 881.549 592.748C881.549 594.956 881.801 596.924 882.305 598.652C882.809 600.356 883.517 601.796 884.429 602.972C885.365 604.124 886.481 605.012 887.777 605.636C889.097 606.236 890.573 606.536 892.205 606.536C893.765 606.536 895.049 606.356 896.057 605.996C897.065 605.612 897.893 605.192 898.541 604.736C899.213 604.28 899.765 603.872 900.197 603.512C900.653 603.128 901.097 602.936 901.529 602.936C902.057 602.936 902.465 603.14 902.753 603.548L904.553 605.888C903.761 606.872 902.861 607.712 901.853 608.408C900.845 609.104 899.753 609.692 898.577 610.172C897.425 610.628 896.213 610.964 894.941 611.18C893.669 611.396 892.373 611.504 891.053 611.504C888.773 611.504 886.649 611.084 884.681 610.244C882.737 609.404 881.045 608.192 879.605 606.608C878.165 605 877.037 603.032 876.221 600.704C875.405 598.376 874.997 595.724 874.997 592.748C874.997 590.036 875.369 587.528 876.113 585.224C876.881 582.92 877.985 580.94 879.425 579.284C880.889 577.604 882.677 576.296 884.789 575.36C886.925 574.424 889.373 573.956 892.133 573.956C894.701 573.956 896.957 574.376 898.901 575.216C900.869 576.032 902.609 577.196 904.121 578.708L902.429 581.012ZM917.875 579.392C919.435 577.736 921.163 576.416 923.059 575.432C924.955 574.448 927.139 573.956 929.611 573.956C931.603 573.956 933.355 574.292 934.867 574.964C936.403 575.612 937.675 576.548 938.683 577.772C939.715 578.972 940.495 580.424 941.023 582.128C941.551 583.832 941.815 585.716 941.815 587.78V611H935.371V587.78C935.371 585.02 934.735 582.884 933.463 581.372C932.215 579.836 930.307 579.068 927.739 579.068C925.843 579.068 924.067 579.524 922.411 580.436C920.779 581.348 919.267 582.584 917.875 584.144V611H911.431V557.972H917.875V579.392ZM958.348 574.532V611H951.94V574.532H958.348ZM959.716 563.084C959.716 563.708 959.584 564.296 959.32 564.848C959.08 565.376 958.744 565.856 958.312 566.288C957.904 566.696 957.412 567.02 956.836 567.26C956.284 567.5 955.696 567.62 955.072 567.62C954.448 567.62 953.86 567.5 953.308 567.26C952.78 567.02 952.312 566.696 951.904 566.288C951.496 565.856 951.172 565.376 950.932 564.848C950.692 564.296 950.572 563.708 950.572 563.084C950.572 562.46 950.692 561.872 950.932 561.32C951.172 560.744 951.496 560.252 951.904 559.844C952.312 559.412 952.78 559.076 953.308 558.836C953.86 558.596 954.448 558.476 955.072 558.476C955.696 558.476 956.284 558.596 956.836 558.836C957.412 559.076 957.904 559.412 958.312 559.844C958.744 560.252 959.08 560.744 959.32 561.32C959.584 561.872 959.716 562.46 959.716 563.084ZM974.925 579.824C975.717 578.936 976.557 578.132 977.445 577.412C978.333 576.692 979.269 576.08 980.253 575.576C981.261 575.048 982.317 574.652 983.421 574.388C984.549 574.1 985.761 573.956 987.057 573.956C989.049 573.956 990.801 574.292 992.313 574.964C993.849 575.612 995.121 576.548 996.129 577.772C997.161 578.972 997.941 580.424 998.469 582.128C998.997 583.832 999.261 585.716 999.261 587.78V611H992.817V587.78C992.817 585.02 992.181 582.884 990.909 581.372C989.661 579.836 987.753 579.068 985.185 579.068C983.289 579.068 981.513 579.524 979.857 580.436C978.225 581.348 976.713 582.584 975.321 584.144V611H968.877V574.532H972.729C973.641 574.532 974.205 574.976 974.421 575.864L974.925 579.824ZM1033.43 588.788C1033.43 587.3 1033.22 585.944 1032.79 584.72C1032.38 583.472 1031.77 582.404 1030.95 581.516C1030.16 580.604 1029.19 579.908 1028.03 579.428C1026.88 578.924 1025.57 578.672 1024.11 578.672C1021.04 578.672 1018.6 579.572 1016.8 581.372C1015.03 583.148 1013.92 585.62 1013.49 588.788H1033.43ZM1038.62 605.888C1037.83 606.848 1036.88 607.688 1035.77 608.408C1034.67 609.104 1033.48 609.68 1032.21 610.136C1030.96 610.592 1029.67 610.928 1028.32 611.144C1026.98 611.384 1025.65 611.504 1024.33 611.504C1021.81 611.504 1019.48 611.084 1017.34 610.244C1015.23 609.38 1013.39 608.132 1011.83 606.5C1010.3 604.844 1009.1 602.804 1008.23 600.38C1007.37 597.956 1006.94 595.172 1006.94 592.028C1006.94 589.484 1007.32 587.108 1008.09 584.9C1008.88 582.692 1010.01 580.784 1011.47 579.176C1012.94 577.544 1014.73 576.272 1016.84 575.36C1018.95 574.424 1021.33 573.956 1023.97 573.956C1026.15 573.956 1028.17 574.328 1030.01 575.072C1031.89 575.792 1033.49 576.848 1034.84 578.24C1036.21 579.608 1037.27 581.312 1038.04 583.352C1038.81 585.368 1039.19 587.672 1039.19 590.264C1039.19 591.272 1039.09 591.944 1038.87 592.28C1038.65 592.616 1038.25 592.784 1037.65 592.784H1013.27C1013.35 595.088 1013.66 597.092 1014.21 598.796C1014.79 600.5 1015.58 601.928 1016.59 603.08C1017.59 604.208 1018.79 605.06 1020.19 605.636C1021.58 606.188 1023.14 606.464 1024.87 606.464C1026.47 606.464 1027.85 606.284 1029.01 605.924C1030.18 605.54 1031.19 605.132 1032.03 604.7C1032.87 604.268 1033.57 603.872 1034.12 603.512C1034.69 603.128 1035.19 602.936 1035.59 602.936C1036.12 602.936 1036.53 603.14 1036.82 603.548L1038.62 605.888Z" fill="#E7DB74"/>
</svg>
