<svg width="1440" height="1080" viewBox="0 0 1440 1080" fill="none" xmlns="http://www.w3.org/2000/svg">
<g clip-path="url(#clip0)">
<rect width="1440" height="1080" fill="#282923"/>
<path d="M310.46 458.32C314.444 458.32 317.948 457.792 320.972 456.736C324.044 455.68 326.612 454.216 328.676 452.344C330.788 450.424 332.372 448.144 333.428 445.504C334.484 442.864 335.012 439.96 335.012 436.792C335.012 430.216 332.972 425.08 328.892 421.384C324.86 417.688 318.716 415.84 310.46 415.84H293.9V458.32H310.46ZM310.46 404.824C316.988 404.824 322.652 405.592 327.452 407.128C332.3 408.616 336.308 410.752 339.476 413.536C342.644 416.32 344.996 419.68 346.532 423.616C348.116 427.552 348.908 431.944 348.908 436.792C348.908 441.592 348.068 445.984 346.388 449.968C344.708 453.952 342.236 457.384 338.972 460.264C335.756 463.144 331.748 465.4 326.948 467.032C322.196 468.616 316.7 469.408 310.46 469.408H293.9V508H280.004V404.824H310.46ZM408.484 463.576C408.484 460.6 408.052 457.888 407.188 455.44C406.372 452.944 405.148 450.808 403.516 449.032C401.932 447.208 399.988 445.816 397.684 444.856C395.38 443.848 392.764 443.344 389.836 443.344C383.692 443.344 378.82 445.144 375.22 448.744C371.668 452.296 369.46 457.24 368.596 463.576H408.484ZM418.852 497.776C417.268 499.696 415.372 501.376 413.164 502.816C410.956 504.208 408.58 505.36 406.036 506.272C403.54 507.184 400.948 507.856 398.26 508.288C395.572 508.768 392.908 509.008 390.268 509.008C385.228 509.008 380.572 508.168 376.3 506.488C372.076 504.76 368.404 502.264 365.284 499C362.212 495.688 359.812 491.608 358.084 486.76C356.356 481.912 355.492 476.344 355.492 470.056C355.492 464.968 356.26 460.216 357.796 455.8C359.38 451.384 361.636 447.568 364.564 444.352C367.492 441.088 371.068 438.544 375.292 436.72C379.516 434.848 384.268 433.912 389.548 433.912C393.916 433.912 397.948 434.656 401.644 436.144C405.388 437.584 408.604 439.696 411.292 442.48C414.028 445.216 416.164 448.624 417.7 452.704C419.236 456.736 420.004 461.344 420.004 466.528C420.004 468.544 419.788 469.888 419.356 470.56C418.924 471.232 418.108 471.568 416.908 471.568H368.164C368.308 476.176 368.932 480.184 370.036 483.592C371.188 487 372.772 489.856 374.788 492.16C376.804 494.416 379.204 496.12 381.988 497.272C384.772 498.376 387.892 498.928 391.348 498.928C394.564 498.928 397.324 498.568 399.628 497.848C401.98 497.08 403.996 496.264 405.676 495.4C407.356 494.536 408.748 493.744 409.852 493.024C411.004 492.256 411.988 491.872 412.804 491.872C413.86 491.872 414.676 492.28 415.252 493.096L418.852 497.776ZM475.274 475.168C469.37 475.36 464.33 475.84 460.154 476.608C456.026 477.328 452.642 478.288 450.002 479.488C447.41 480.688 445.514 482.104 444.314 483.736C443.162 485.368 442.586 487.192 442.586 489.208C442.586 491.128 442.898 492.784 443.522 494.176C444.146 495.568 444.986 496.72 446.042 497.632C447.146 498.496 448.418 499.144 449.858 499.576C451.346 499.96 452.93 500.152 454.61 500.152C456.866 500.152 458.93 499.936 460.802 499.504C462.674 499.024 464.426 498.352 466.058 497.488C467.738 496.624 469.322 495.592 470.81 494.392C472.346 493.192 473.834 491.824 475.274 490.288V475.168ZM433.874 445.36C437.906 441.472 442.25 438.568 446.906 436.648C451.562 434.728 456.722 433.768 462.386 433.768C466.466 433.768 470.09 434.44 473.258 435.784C476.426 437.128 479.09 439 481.25 441.4C483.41 443.8 485.042 446.704 486.146 450.112C487.25 453.52 487.802 457.264 487.802 461.344V508H482.114C480.866 508 479.906 507.808 479.234 507.424C478.562 506.992 478.034 506.176 477.65 504.976L476.21 498.064C474.29 499.84 472.418 501.424 470.594 502.816C468.77 504.16 466.85 505.312 464.834 506.272C462.818 507.184 460.658 507.88 458.354 508.36C456.098 508.888 453.578 509.152 450.794 509.152C447.962 509.152 445.298 508.768 442.802 508C440.306 507.184 438.122 505.984 436.25 504.4C434.426 502.816 432.962 500.824 431.858 498.424C430.802 495.976 430.274 493.096 430.274 489.784C430.274 486.904 431.066 484.144 432.65 481.504C434.234 478.816 436.802 476.44 440.354 474.376C443.906 472.312 448.538 470.632 454.25 469.336C459.962 467.992 466.97 467.224 475.274 467.032V461.344C475.274 455.68 474.05 451.408 471.602 448.528C469.154 445.6 465.578 444.136 460.874 444.136C457.706 444.136 455.042 444.544 452.882 445.36C450.77 446.128 448.922 447.016 447.338 448.024C445.802 448.984 444.458 449.872 443.306 450.688C442.202 451.456 441.098 451.84 439.994 451.84C439.13 451.84 438.386 451.624 437.762 451.192C437.138 450.712 436.61 450.136 436.178 449.464L433.874 445.36ZM551.604 438.664C552.276 437.608 553.164 436.744 554.268 436.072C555.372 435.4 556.548 435.064 557.796 435.064H567.804L548.868 462.856C547.716 464.632 546.516 466.096 545.268 467.248C544.02 468.352 542.484 469.216 540.66 469.84C542.964 470.464 544.908 471.448 546.492 472.792C548.076 474.088 549.492 475.768 550.74 477.832L569.892 508H560.964C558.66 508 556.884 507.616 555.636 506.848C554.388 506.08 553.308 504.976 552.396 503.536L538.212 480.856C535.956 477.112 532.572 475.24 528.06 475.24H520.212V508.072H507.324V435.064H520.212V466.6H527.124C530.964 466.6 533.964 464.968 536.124 461.704L551.604 438.664ZM642.479 444.856H614.471V508H601.655V444.856H573.647V435.064H642.479V444.856ZM717.267 435.064V508H704.451V458.464C704.451 457.504 704.499 456.472 704.595 455.368C704.691 454.264 704.811 453.16 704.955 452.056C704.523 453.016 704.091 453.904 703.659 454.72C703.227 455.536 702.771 456.28 702.291 456.952L667.083 504.832C666.555 505.6 665.883 506.344 665.067 507.064C664.299 507.736 663.435 508.072 662.475 508.072H654.699V435.136H667.587V484.672C667.587 485.584 667.539 486.592 667.443 487.696C667.347 488.752 667.227 489.832 667.083 490.936C667.515 490.024 667.947 489.184 668.379 488.416C668.811 487.6 669.243 486.856 669.675 486.184L704.883 438.304C705.411 437.536 706.083 436.816 706.899 436.144C707.715 435.424 708.603 435.064 709.563 435.064H717.267ZM765.535 499C770.335 499 774.127 497.896 776.911 495.688C779.695 493.432 781.087 490.36 781.087 486.472C781.087 484.744 780.823 483.184 780.295 481.792C779.767 480.352 778.903 479.104 777.703 478.048C776.503 476.992 774.895 476.176 772.879 475.6C770.911 475.024 768.487 474.736 765.607 474.736H749.839V499H765.535ZM749.839 443.704V466.6H763.879C765.991 466.6 767.935 466.312 769.711 465.736C771.535 465.112 773.095 464.272 774.391 463.216C775.687 462.112 776.695 460.816 777.415 459.328C778.135 457.792 778.495 456.112 778.495 454.288C778.495 452.944 778.255 451.648 777.775 450.4C777.295 449.104 776.479 447.976 775.327 447.016C774.175 446.008 772.663 445.216 770.791 444.64C768.919 444.016 766.615 443.704 763.879 443.704H749.839ZM764.239 435.064C768.751 435.064 772.615 435.52 775.831 436.432C779.047 437.344 781.687 438.592 783.751 440.176C785.815 441.712 787.327 443.536 788.287 445.648C789.247 447.76 789.727 450.016 789.727 452.416C789.727 454 789.511 455.656 789.079 457.384C788.647 459.112 787.879 460.768 786.775 462.352C785.719 463.936 784.255 465.376 782.383 466.672C780.559 467.92 778.255 468.904 775.471 469.624C781.039 470.584 785.335 472.528 788.359 475.456C791.383 478.336 792.895 482.152 792.895 486.904C792.895 490.456 792.175 493.552 790.735 496.192C789.343 498.784 787.399 500.968 784.903 502.744C782.455 504.52 779.575 505.84 776.263 506.704C772.951 507.568 769.399 508 765.607 508H737.527V435.064H764.239ZM869.733 435.064V508H856.845V473.872H821.853V508H808.965V435.064H821.853V464.152H856.845V435.064H869.733ZM920.849 433.912C926.177 433.912 930.977 434.8 935.249 436.576C939.521 438.352 943.169 440.872 946.193 444.136C949.217 447.4 951.521 451.36 953.105 456.016C954.737 460.624 955.553 465.784 955.553 471.496C955.553 477.256 954.737 482.44 953.105 487.048C951.521 491.656 949.217 495.592 946.193 498.856C943.169 502.12 939.521 504.64 935.249 506.416C930.977 508.144 926.177 509.008 920.849 509.008C915.473 509.008 910.625 508.144 906.305 506.416C902.033 504.64 898.385 502.12 895.361 498.856C892.337 495.592 890.009 491.656 888.377 487.048C886.793 482.44 886.001 477.256 886.001 471.496C886.001 465.784 886.793 460.624 888.377 456.016C890.009 451.36 892.337 447.4 895.361 444.136C898.385 440.872 902.033 438.352 906.305 436.576C910.625 434.8 915.473 433.912 920.849 433.912ZM920.849 499C928.049 499 933.425 496.6 936.977 491.8C940.529 486.952 942.305 480.208 942.305 471.568C942.305 462.88 940.529 456.112 936.977 451.264C933.425 446.416 928.049 443.992 920.849 443.992C917.201 443.992 914.009 444.616 911.273 445.864C908.585 447.112 906.329 448.912 904.505 451.264C902.729 453.616 901.385 456.52 900.473 459.976C899.609 463.384 899.177 467.248 899.177 471.568C899.177 480.208 900.953 486.952 904.505 491.8C908.105 496.6 913.553 499 920.849 499ZM1022.57 448.024C1022.18 448.552 1021.8 448.96 1021.42 449.248C1021.03 449.536 1020.5 449.68 1019.83 449.68C1019.11 449.68 1018.32 449.392 1017.46 448.816C1016.59 448.192 1015.51 447.52 1014.22 446.8C1012.97 446.08 1011.41 445.432 1009.54 444.856C1007.71 444.232 1005.46 443.92 1002.77 443.92C999.168 443.92 996 444.568 993.264 445.864C990.528 447.112 988.224 448.936 986.352 451.336C984.528 453.736 983.136 456.64 982.176 460.048C981.264 463.456 980.808 467.272 980.808 471.496C980.808 475.912 981.312 479.848 982.32 483.304C983.328 486.712 984.744 489.592 986.568 491.944C988.44 494.248 990.672 496.024 993.264 497.272C995.904 498.472 998.856 499.072 1002.12 499.072C1005.24 499.072 1007.81 498.712 1009.82 497.992C1011.84 497.224 1013.5 496.384 1014.79 495.472C1016.14 494.56 1017.24 493.744 1018.1 493.024C1019.02 492.256 1019.9 491.872 1020.77 491.872C1021.82 491.872 1022.64 492.28 1023.22 493.096L1026.82 497.776C1025.23 499.744 1023.43 501.424 1021.42 502.816C1019.4 504.208 1017.22 505.384 1014.86 506.344C1012.56 507.256 1010.14 507.928 1007.59 508.36C1005.05 508.792 1002.46 509.008 999.816 509.008C995.256 509.008 991.008 508.168 987.072 506.488C983.184 504.808 979.8 502.384 976.92 499.216C974.04 496 971.784 492.064 970.152 487.408C968.52 482.752 967.704 477.448 967.704 471.496C967.704 466.072 968.448 461.056 969.936 456.448C971.472 451.84 973.68 447.88 976.56 444.568C979.488 441.208 983.064 438.592 987.288 436.72C991.56 434.848 996.456 433.912 1001.98 433.912C1007.11 433.912 1011.62 434.752 1015.51 436.432C1019.45 438.064 1022.93 440.392 1025.95 443.416L1022.57 448.024ZM1101.2 444.856H1073.19V508H1060.37V444.856H1032.37V435.064H1101.2V444.856ZM1141.43 498.64C1144.02 498.64 1146.25 498.328 1148.12 497.704C1150.04 497.032 1151.63 496.12 1152.87 494.968C1154.12 493.768 1155.06 492.376 1155.68 490.792C1156.31 489.208 1156.62 487.48 1156.62 485.608C1156.62 483.88 1156.35 482.272 1155.83 480.784C1155.3 479.248 1154.41 477.904 1153.16 476.752C1151.96 475.6 1150.38 474.688 1148.41 474.016C1146.44 473.344 1144.04 473.008 1141.21 473.008H1125.73V498.64H1141.43ZM1141.21 463.648C1146.25 463.648 1150.47 464.248 1153.88 465.448C1157.34 466.648 1160.1 468.256 1162.16 470.272C1164.27 472.288 1165.79 474.616 1166.7 477.256C1167.61 479.896 1168.07 482.632 1168.07 485.464C1168.07 488.728 1167.49 491.752 1166.34 494.536C1165.19 497.272 1163.48 499.648 1161.23 501.664C1158.97 503.632 1156.19 505.192 1152.87 506.344C1149.56 507.448 1145.75 508 1141.43 508H1113.42V435.064H1125.73V463.648H1141.21Z" fill="#F8F8F2"/>
<path d="M437.448 601.648C437.784 602.2 437.892 602.728 437.772 603.232C437.676 603.712 437.352 604.084 436.8 604.348L434.712 605.356L425.748 591.352V590.524L434.712 576.52L436.8 577.528C437.352 577.792 437.676 578.176 437.772 578.68C437.892 579.16 437.784 579.676 437.448 580.228L431.76 589.624C431.424 590.224 431.088 590.656 430.752 590.92C431.088 591.232 431.424 591.676 431.76 592.252L437.448 601.648ZM448.104 601.648C448.44 602.2 448.548 602.728 448.428 603.232C448.332 603.712 448.008 604.084 447.456 604.348L445.368 605.356L436.404 591.352V590.524L445.368 576.52L447.456 577.528C448.008 577.792 448.332 578.176 448.428 578.68C448.548 579.16 448.44 579.676 448.104 580.228L442.416 589.624C442.08 590.224 441.744 590.656 441.408 590.92C441.744 591.232 442.08 591.676 442.416 592.252L448.104 601.648ZM455.572 577.708C457.084 576.196 458.824 575.032 460.792 574.216C462.76 573.376 465.016 572.956 467.56 572.956C470.32 572.956 472.768 573.424 474.904 574.36C477.04 575.296 478.828 576.604 480.268 578.284C481.732 579.94 482.836 581.92 483.58 584.224C484.348 586.528 484.732 589.036 484.732 591.748C484.732 594.724 484.312 597.376 483.472 599.704C482.656 602.032 481.528 604 480.088 605.608C478.648 607.192 476.944 608.404 474.976 609.244C473.032 610.084 470.92 610.504 468.64 610.504C466 610.504 463.492 610.06 461.116 609.172C458.74 608.26 456.76 606.832 455.176 604.888L456.868 602.764C457.156 602.356 457.564 602.152 458.092 602.152C458.524 602.152 458.968 602.332 459.424 602.692C459.88 603.028 460.444 603.412 461.116 603.844C461.812 604.276 462.664 604.672 463.672 605.032C464.68 605.368 465.964 605.536 467.524 605.536C469.036 605.536 470.416 605.272 471.664 604.744C472.912 604.216 474.004 603.448 474.94 602.44C475.876 601.432 476.632 600.196 477.208 598.732C477.784 597.244 478.144 595.54 478.288 593.62H461.008V589.156H478.216C477.832 585.652 476.704 582.916 474.832 580.948C472.96 578.956 470.416 577.96 467.2 577.96C465.856 577.96 464.716 578.104 463.78 578.392C462.844 578.656 462.052 578.956 461.404 579.292C460.756 579.628 460.204 579.94 459.748 580.228C459.316 580.492 458.92 580.624 458.56 580.624C458.224 580.624 457.96 580.564 457.768 580.444C457.576 580.3 457.384 580.096 457.192 579.832L455.572 577.708ZM521.661 578.428H507.657V610H501.249V578.428H487.245V573.532H521.661V578.428ZM541.667 572.956C544.331 572.956 546.731 573.4 548.867 574.288C551.003 575.176 552.827 576.436 554.339 578.068C555.851 579.7 557.003 581.68 557.795 584.008C558.611 586.312 559.019 588.892 559.019 591.748C559.019 594.628 558.611 597.22 557.795 599.524C557.003 601.828 555.851 603.796 554.339 605.428C552.827 607.06 551.003 608.32 548.867 609.208C546.731 610.072 544.331 610.504 541.667 610.504C538.979 610.504 536.555 610.072 534.395 609.208C532.259 608.32 530.435 607.06 528.923 605.428C527.411 603.796 526.247 601.828 525.431 599.524C524.639 597.22 524.243 594.628 524.243 591.748C524.243 588.892 524.639 586.312 525.431 584.008C526.247 581.68 527.411 579.7 528.923 578.068C530.435 576.436 532.259 575.176 534.395 574.288C536.555 573.4 538.979 572.956 541.667 572.956ZM541.667 605.5C545.267 605.5 547.955 604.3 549.731 601.9C551.507 599.476 552.395 596.104 552.395 591.784C552.395 587.44 551.507 584.056 549.731 581.632C547.955 579.208 545.267 577.996 541.667 577.996C539.843 577.996 538.247 578.308 536.879 578.932C535.535 579.556 534.407 580.456 533.495 581.632C532.607 582.808 531.935 584.26 531.479 585.988C531.047 587.692 530.831 589.624 530.831 591.784C530.831 596.104 531.719 599.476 533.495 601.9C535.295 604.3 538.019 605.5 541.667 605.5ZM607.708 575.332C608.044 574.804 608.488 574.372 609.04 574.036C609.592 573.7 610.18 573.532 610.804 573.532H615.808L606.34 587.428C605.764 588.316 605.164 589.048 604.54 589.624C603.916 590.176 603.148 590.608 602.236 590.92C603.388 591.232 604.36 591.724 605.152 592.396C605.944 593.044 606.652 593.884 607.276 594.916L616.852 610H612.388C611.236 610 610.348 609.808 609.724 609.424C609.1 609.04 608.56 608.488 608.104 607.768L601.012 596.428C599.884 594.556 598.192 593.62 595.936 593.62H592.012V610.036H585.568V573.532H592.012V589.3H595.468C597.388 589.3 598.888 588.484 599.968 586.852L607.708 575.332ZM642.598 593.584C639.646 593.68 637.126 593.92 635.038 594.304C632.974 594.664 631.282 595.144 629.962 595.744C628.666 596.344 627.718 597.052 627.118 597.868C626.542 598.684 626.254 599.596 626.254 600.604C626.254 601.564 626.41 602.392 626.722 603.088C627.034 603.784 627.454 604.36 627.982 604.816C628.534 605.248 629.17 605.572 629.89 605.788C630.634 605.98 631.426 606.076 632.266 606.076C633.394 606.076 634.426 605.968 635.362 605.752C636.298 605.512 637.174 605.176 637.99 604.744C638.83 604.312 639.622 603.796 640.366 603.196C641.134 602.596 641.878 601.912 642.598 601.144V593.584ZM621.898 578.68C623.914 576.736 626.086 575.284 628.414 574.324C630.742 573.364 633.322 572.884 636.154 572.884C638.194 572.884 640.006 573.22 641.59 573.892C643.174 574.564 644.506 575.5 645.586 576.7C646.666 577.9 647.482 579.352 648.034 581.056C648.586 582.76 648.862 584.632 648.862 586.672V610H646.018C645.394 610 644.914 609.904 644.578 609.712C644.242 609.496 643.978 609.088 643.786 608.488L643.066 605.032C642.106 605.92 641.17 606.712 640.258 607.408C639.346 608.08 638.386 608.656 637.378 609.136C636.37 609.592 635.29 609.94 634.138 610.18C633.01 610.444 631.75 610.576 630.358 610.576C628.942 610.576 627.61 610.384 626.362 610C625.114 609.592 624.022 608.992 623.086 608.2C622.174 607.408 621.442 606.412 620.89 605.212C620.362 603.988 620.098 602.548 620.098 600.892C620.098 599.452 620.494 598.072 621.286 596.752C622.078 595.408 623.362 594.22 625.138 593.188C626.914 592.156 629.23 591.316 632.086 590.668C634.942 589.996 638.446 589.612 642.598 589.516V586.672C642.598 583.84 641.986 581.704 640.762 580.264C639.538 578.8 637.75 578.068 635.398 578.068C633.814 578.068 632.482 578.272 631.402 578.68C630.346 579.064 629.422 579.508 628.63 580.012C627.862 580.492 627.19 580.936 626.614 581.344C626.062 581.728 625.51 581.92 624.958 581.92C624.526 581.92 624.154 581.812 623.842 581.596C623.53 581.356 623.266 581.068 623.05 580.732L621.898 578.68ZM680.763 575.332C681.099 574.804 681.543 574.372 682.095 574.036C682.647 573.7 683.235 573.532 683.859 573.532H688.863L679.395 587.428C678.819 588.316 678.219 589.048 677.595 589.624C676.971 590.176 676.203 590.608 675.291 590.92C676.443 591.232 677.415 591.724 678.207 592.396C678.999 593.044 679.707 593.884 680.331 594.916L689.907 610H685.443C684.291 610 683.403 609.808 682.779 609.424C682.155 609.04 681.615 608.488 681.159 607.768L674.067 596.428C672.939 594.556 671.247 593.62 668.991 593.62H665.067V610.036H658.623V573.532H665.067V589.3H668.523C670.443 589.3 671.943 588.484 673.023 586.852L680.763 575.332ZM728.314 605.5C730.714 605.5 732.61 604.948 734.002 603.844C735.394 602.716 736.09 601.18 736.09 599.236C736.09 598.372 735.958 597.592 735.694 596.896C735.43 596.176 734.998 595.552 734.398 595.024C733.798 594.496 732.994 594.088 731.986 593.8C731.002 593.512 729.79 593.368 728.35 593.368H720.466V605.5H728.314ZM720.466 577.852V589.3H727.486C728.542 589.3 729.514 589.156 730.402 588.868C731.314 588.556 732.094 588.136 732.742 587.608C733.39 587.056 733.894 586.408 734.254 585.664C734.614 584.896 734.794 584.056 734.794 583.144C734.794 582.472 734.674 581.824 734.434 581.2C734.194 580.552 733.786 579.988 733.21 579.508C732.634 579.004 731.878 578.608 730.942 578.32C730.006 578.008 728.854 577.852 727.486 577.852H720.466ZM727.666 573.532C729.922 573.532 731.854 573.76 733.462 574.216C735.07 574.672 736.39 575.296 737.422 576.088C738.454 576.856 739.21 577.768 739.69 578.824C740.17 579.88 740.41 581.008 740.41 582.208C740.41 583 740.302 583.828 740.086 584.692C739.87 585.556 739.486 586.384 738.934 587.176C738.406 587.968 737.674 588.688 736.738 589.336C735.826 589.96 734.674 590.452 733.282 590.812C736.066 591.292 738.214 592.264 739.726 593.728C741.238 595.168 741.994 597.076 741.994 599.452C741.994 601.228 741.634 602.776 740.914 604.096C740.218 605.392 739.246 606.484 737.998 607.372C736.774 608.26 735.334 608.92 733.678 609.352C732.022 609.784 730.246 610 728.35 610H714.31V573.532H727.666ZM765.931 577.708C767.443 576.196 769.183 575.032 771.151 574.216C773.119 573.376 775.375 572.956 777.919 572.956C780.679 572.956 783.127 573.424 785.263 574.36C787.399 575.296 789.187 576.604 790.627 578.284C792.091 579.94 793.195 581.92 793.939 584.224C794.707 586.528 795.091 589.036 795.091 591.748C795.091 594.724 794.671 597.376 793.831 599.704C793.015 602.032 791.887 604 790.447 605.608C789.007 607.192 787.303 608.404 785.335 609.244C783.391 610.084 781.279 610.504 778.999 610.504C776.359 610.504 773.851 610.06 771.475 609.172C769.099 608.26 767.119 606.832 765.535 604.888L767.227 602.764C767.515 602.356 767.923 602.152 768.451 602.152C768.883 602.152 769.327 602.332 769.783 602.692C770.239 603.028 770.803 603.412 771.475 603.844C772.171 604.276 773.023 604.672 774.031 605.032C775.039 605.368 776.323 605.536 777.883 605.536C779.395 605.536 780.775 605.272 782.023 604.744C783.271 604.216 784.363 603.448 785.299 602.44C786.235 601.432 786.991 600.196 787.567 598.732C788.143 597.244 788.503 595.54 788.647 593.62H771.367V589.156H788.575C788.191 585.652 787.063 582.916 785.191 580.948C783.319 578.956 780.775 577.96 777.559 577.96C776.215 577.96 775.075 578.104 774.139 578.392C773.203 578.656 772.411 578.956 771.763 579.292C771.115 579.628 770.563 579.94 770.107 580.228C769.675 580.492 769.279 580.624 768.919 580.624C768.583 580.624 768.319 580.564 768.127 580.444C767.935 580.3 767.743 580.096 767.551 579.832L765.931 577.708ZM825.325 575.332C825.661 574.804 826.105 574.372 826.657 574.036C827.209 573.7 827.797 573.532 828.421 573.532H833.425L823.957 587.428C823.381 588.316 822.781 589.048 822.157 589.624C821.533 590.176 820.765 590.608 819.853 590.92C821.005 591.232 821.977 591.724 822.769 592.396C823.561 593.044 824.269 593.884 824.893 594.916L834.469 610H830.005C828.853 610 827.965 609.808 827.341 609.424C826.717 609.04 826.177 608.488 825.721 607.768L818.629 596.428C817.501 594.556 815.809 593.62 813.553 593.62H809.629V610.036H803.185V573.532H809.629V589.3H813.085C815.005 589.3 816.505 588.484 817.585 586.852L825.325 575.332ZM864.425 580.012C864.233 580.276 864.041 580.48 863.849 580.624C863.657 580.768 863.393 580.84 863.057 580.84C862.697 580.84 862.301 580.696 861.869 580.408C861.437 580.096 860.897 579.76 860.249 579.4C859.625 579.04 858.845 578.716 857.909 578.428C856.997 578.116 855.869 577.96 854.525 577.96C852.725 577.96 851.141 578.284 849.773 578.932C848.405 579.556 847.253 580.468 846.317 581.668C845.405 582.868 844.709 584.32 844.229 586.024C843.773 587.728 843.545 589.636 843.545 591.748C843.545 593.956 843.797 595.924 844.301 597.652C844.805 599.356 845.513 600.796 846.425 601.972C847.361 603.124 848.477 604.012 849.773 604.636C851.093 605.236 852.569 605.536 854.201 605.536C855.761 605.536 857.045 605.356 858.053 604.996C859.061 604.612 859.889 604.192 860.537 603.736C861.209 603.28 861.761 602.872 862.193 602.512C862.649 602.128 863.093 601.936 863.525 601.936C864.053 601.936 864.461 602.14 864.749 602.548L866.549 604.888C865.757 605.872 864.857 606.712 863.849 607.408C862.841 608.104 861.749 608.692 860.573 609.172C859.421 609.628 858.209 609.964 856.937 610.18C855.665 610.396 854.369 610.504 853.049 610.504C850.769 610.504 848.645 610.084 846.677 609.244C844.733 608.404 843.041 607.192 841.601 605.608C840.161 604 839.033 602.032 838.217 599.704C837.401 597.376 836.993 594.724 836.993 591.748C836.993 589.036 837.365 586.528 838.109 584.224C838.877 581.92 839.981 579.94 841.421 578.284C842.885 576.604 844.673 575.296 846.785 574.36C848.921 573.424 851.369 572.956 854.129 572.956C856.697 572.956 858.953 573.376 860.897 574.216C862.865 575.032 864.605 576.196 866.117 577.708L864.425 580.012ZM897.203 587.788C897.203 586.3 896.987 584.944 896.555 583.72C896.147 582.472 895.535 581.404 894.719 580.516C893.927 579.604 892.955 578.908 891.803 578.428C890.651 577.924 889.343 577.672 887.879 577.672C884.807 577.672 882.371 578.572 880.571 580.372C878.795 582.148 877.691 584.62 877.259 587.788H897.203ZM902.387 604.888C901.595 605.848 900.647 606.688 899.543 607.408C898.439 608.104 897.251 608.68 895.979 609.136C894.731 609.592 893.435 609.928 892.091 610.144C890.747 610.384 889.415 610.504 888.095 610.504C885.575 610.504 883.247 610.084 881.111 609.244C878.999 608.38 877.163 607.132 875.603 605.5C874.067 603.844 872.867 601.804 872.003 599.38C871.139 596.956 870.707 594.172 870.707 591.028C870.707 588.484 871.091 586.108 871.859 583.9C872.651 581.692 873.779 579.784 875.243 578.176C876.707 576.544 878.495 575.272 880.607 574.36C882.719 573.424 885.095 572.956 887.735 572.956C889.919 572.956 891.935 573.328 893.783 574.072C895.655 574.792 897.263 575.848 898.607 577.24C899.975 578.608 901.043 580.312 901.811 582.352C902.579 584.368 902.963 586.672 902.963 589.264C902.963 590.272 902.855 590.944 902.639 591.28C902.423 591.616 902.015 591.784 901.415 591.784H877.043C877.115 594.088 877.427 596.092 877.979 597.796C878.555 599.5 879.347 600.928 880.355 602.08C881.363 603.208 882.563 604.06 883.955 604.636C885.347 605.188 886.907 605.464 888.635 605.464C890.243 605.464 891.623 605.284 892.775 604.924C893.951 604.54 894.959 604.132 895.799 603.7C896.639 603.268 897.335 602.872 897.887 602.512C898.463 602.128 898.955 601.936 899.363 601.936C899.891 601.936 900.299 602.14 900.587 602.548L902.387 604.888ZM942.802 610H936.394V578.572H924.874C924.586 583.204 924.154 587.212 923.578 590.596C923.002 593.956 922.306 596.824 921.49 599.2C920.698 601.552 919.798 603.472 918.79 604.96C917.806 606.424 916.762 607.564 915.658 608.38C914.578 609.196 913.45 609.748 912.274 610.036C911.122 610.324 909.97 610.468 908.818 610.468C906.778 610.468 905.758 610.144 905.758 609.496V605.428H907.63C908.446 605.428 909.274 605.284 910.114 604.996C910.954 604.708 911.77 604.156 912.562 603.34C913.378 602.524 914.158 601.384 914.902 599.92C915.646 598.432 916.318 596.512 916.918 594.16C917.542 591.784 918.07 588.916 918.502 585.556C918.958 582.172 919.306 578.164 919.546 573.532H942.802V610ZM977.359 587.788C977.359 586.3 977.143 584.944 976.711 583.72C976.303 582.472 975.691 581.404 974.875 580.516C974.083 579.604 973.111 578.908 971.959 578.428C970.807 577.924 969.499 577.672 968.035 577.672C964.963 577.672 962.527 578.572 960.727 580.372C958.951 582.148 957.847 584.62 957.415 587.788H977.359ZM982.543 604.888C981.751 605.848 980.803 606.688 979.699 607.408C978.595 608.104 977.407 608.68 976.135 609.136C974.887 609.592 973.591 609.928 972.247 610.144C970.903 610.384 969.571 610.504 968.251 610.504C965.731 610.504 963.403 610.084 961.267 609.244C959.155 608.38 957.319 607.132 955.759 605.5C954.223 603.844 953.023 601.804 952.159 599.38C951.295 596.956 950.863 594.172 950.863 591.028C950.863 588.484 951.247 586.108 952.015 583.9C952.807 581.692 953.935 579.784 955.399 578.176C956.863 576.544 958.651 575.272 960.763 574.36C962.875 573.424 965.251 572.956 967.891 572.956C970.075 572.956 972.091 573.328 973.939 574.072C975.811 574.792 977.419 575.848 978.763 577.24C980.131 578.608 981.199 580.312 981.967 582.352C982.735 584.368 983.119 586.672 983.119 589.264C983.119 590.272 983.011 590.944 982.795 591.28C982.579 591.616 982.171 591.784 981.571 591.784H957.199C957.271 594.088 957.583 596.092 958.135 597.796C958.711 599.5 959.503 600.928 960.511 602.08C961.519 603.208 962.719 604.06 964.111 604.636C965.503 605.188 967.063 605.464 968.791 605.464C970.399 605.464 971.779 605.284 972.931 604.924C974.107 604.54 975.115 604.132 975.955 603.7C976.795 603.268 977.491 602.872 978.043 602.512C978.619 602.128 979.111 601.936 979.519 601.936C980.047 601.936 980.455 602.14 980.743 602.548L982.543 604.888ZM1002.58 590.524V591.352L993.618 605.356L991.53 604.348C990.978 604.084 990.642 603.712 990.522 603.232C990.426 602.728 990.546 602.2 990.882 601.648L996.57 592.252C996.762 591.964 996.93 591.712 997.074 591.496C997.242 591.256 997.422 591.064 997.614 590.92C997.422 590.8 997.242 590.632 997.074 590.416C996.93 590.176 996.762 589.912 996.57 589.624L990.882 580.228C990.546 579.676 990.426 579.16 990.522 578.68C990.642 578.176 990.978 577.792 991.53 577.528L993.618 576.52L1002.58 590.524ZM1013.24 590.524V591.352L1004.27 605.356L1002.19 604.348C1001.63 604.084 1001.3 603.712 1001.18 603.232C1001.08 602.728 1001.2 602.2 1001.54 601.648L1007.23 592.252C1007.42 591.964 1007.59 591.712 1007.73 591.496C1007.9 591.256 1008.08 591.064 1008.27 590.92C1008.08 590.8 1007.9 590.632 1007.73 590.416C1007.59 590.176 1007.42 589.912 1007.23 589.624L1001.54 580.228C1001.2 579.676 1001.08 579.16 1001.18 578.68C1001.3 578.176 1001.63 577.792 1002.19 577.528L1004.27 576.52L1013.24 590.524Z" fill="#E7DB74"/>
</g>
<defs>
<clipPath id="clip0">
<rect width="1440" height="1080" fill="white"/>
</clipPath>
</defs>
</svg>
