<svg width="1440" height="1080" viewBox="0 0 1440 1080" fill="none" xmlns="http://www.w3.org/2000/svg">
<rect width="1440" height="1080" fill="#282923"/>
<path d="M137.158 35.989V132H125.768V61.449C125.768 60.511 125.79 59.506 125.835 58.434C125.924 57.362 126.014 56.2677 126.103 55.151L93.139 115.183C92.1117 117.193 90.5483 118.198 88.449 118.198H86.573C84.4737 118.198 82.9103 117.193 81.883 115.183L48.249 54.883C48.517 57.2503 48.651 59.439 48.651 61.449V132H37.261V35.989H46.842C48.0033 35.989 48.8967 36.1007 49.522 36.324C50.1473 36.5473 50.7503 37.1727 51.331 38.2L84.496 97.294C85.032 98.366 85.5457 99.4827 86.037 100.644C86.573 101.805 87.0643 102.989 87.511 104.195C87.9577 102.989 88.4267 101.805 88.918 100.644C89.4093 99.438 89.9453 98.299 90.526 97.227L123.088 38.2C123.624 37.1727 124.205 36.5473 124.83 36.324C125.5 36.1007 126.416 35.989 127.577 35.989H137.158ZM319.796 112.168C320.51 112.168 321.136 112.458 321.672 113.039L326.831 118.6C322.9 123.156 318.121 126.707 312.493 129.253C306.909 131.799 300.142 133.072 292.192 133.072C285.313 133.072 279.06 131.888 273.432 129.521C267.804 127.109 263.002 123.759 259.027 119.471C255.051 115.138 251.969 109.957 249.781 103.927C247.592 97.897 246.498 91.264 246.498 84.028C246.498 76.792 247.637 70.159 249.915 64.129C252.193 58.099 255.386 52.9177 259.496 48.585C263.65 44.2523 268.608 40.9023 274.37 38.535C280.132 36.123 286.497 34.917 293.465 34.917C300.299 34.917 306.329 36.0113 311.555 38.2C316.781 40.3887 321.381 43.359 325.357 47.111L321.069 53.074C320.801 53.5207 320.443 53.9003 319.997 54.213C319.595 54.481 319.036 54.615 318.322 54.615C317.518 54.615 316.535 54.1907 315.374 53.342C314.212 52.4487 312.694 51.466 310.818 50.394C308.942 49.322 306.597 48.3617 303.783 47.513C300.969 46.6197 297.507 46.173 293.398 46.173C288.44 46.173 283.906 47.044 279.797 48.786C275.687 50.4833 272.136 52.9623 269.144 56.223C266.196 59.4837 263.895 63.459 262.243 68.149C260.59 72.839 259.764 78.132 259.764 84.028C259.764 90.0133 260.612 95.351 262.31 100.041C264.052 104.731 266.397 108.706 269.345 111.967C272.337 115.183 275.844 117.64 279.864 119.337C283.928 121.034 288.306 121.883 292.996 121.883C295.854 121.883 298.423 121.727 300.701 121.414C303.023 121.057 305.145 120.521 307.066 119.806C309.031 119.091 310.84 118.198 312.493 117.126C314.19 116.009 315.865 114.692 317.518 113.173C318.277 112.503 319.036 112.168 319.796 112.168ZM476.084 35.989V132H464.694V61.449C464.694 60.511 464.716 59.506 464.761 58.434C464.85 57.362 464.939 56.2677 465.029 55.151L432.065 115.183C431.037 117.193 429.474 118.198 427.375 118.198H425.499C423.399 118.198 421.836 117.193 420.809 115.183L387.175 54.883C387.443 57.2503 387.577 59.439 387.577 61.449V132H376.187V35.989H385.768C386.929 35.989 387.822 36.1007 388.448 36.324C389.073 36.5473 389.676 37.1727 390.257 38.2L423.422 97.294C423.958 98.366 424.471 99.4827 424.963 100.644C425.499 101.805 425.99 102.989 426.437 104.195C426.883 102.989 427.352 101.805 427.844 100.644C428.335 99.438 428.871 98.299 429.452 97.227L462.014 38.2C462.55 37.1727 463.13 36.5473 463.756 36.324C464.426 36.1007 465.341 35.989 466.503 35.989H476.084ZM619.661 85.77C623.368 85.77 626.629 85.2787 629.443 84.296C632.301 83.3133 634.691 81.951 636.612 80.209C638.577 78.4223 640.051 76.3007 641.034 73.844C642.016 71.3873 642.508 68.685 642.508 65.737C642.508 59.6177 640.609 54.8383 636.813 51.399C633.061 47.9597 627.343 46.24 619.661 46.24H604.251V85.77H619.661ZM619.661 35.989C625.735 35.989 631.006 36.7037 635.473 38.133C639.984 39.5177 643.714 41.5053 646.662 44.096C649.61 46.6867 651.798 49.8133 653.228 53.476C654.702 57.1387 655.439 61.2257 655.439 65.737C655.439 70.2037 654.657 74.2907 653.094 77.998C651.53 81.7053 649.23 84.899 646.193 87.579C643.2 90.259 639.47 92.3583 635.004 93.877C630.582 95.351 625.467 96.088 619.661 96.088H604.251V132H591.32V35.989H619.661ZM802.316 35.989V132H790.926V61.449C790.926 60.511 790.949 59.506 790.993 58.434C791.083 57.362 791.172 56.2677 791.261 55.151L758.297 115.183C757.27 117.193 755.707 118.198 753.607 118.198H751.731C749.632 118.198 748.069 117.193 747.041 115.183L713.407 54.883C713.675 57.2503 713.809 59.439 713.809 61.449V132H702.419V35.989H712C713.162 35.989 714.055 36.1007 714.68 36.324C715.306 36.5473 715.909 37.1727 716.489 38.2L749.654 97.294C750.19 98.366 750.704 99.4827 751.195 100.644C751.731 101.805 752.223 102.989 752.669 104.195C753.116 102.989 753.585 101.805 754.076 100.644C754.568 99.438 755.104 98.299 755.684 97.227L788.246 38.2C788.782 37.1727 789.363 36.5473 789.988 36.324C790.658 36.1007 791.574 35.989 792.735 35.989H802.316ZM1108.13 35.989V132H1096.74V61.449C1096.74 60.511 1096.77 59.506 1096.81 58.434C1096.9 57.362 1096.99 56.2677 1097.08 55.151L1064.12 115.183C1063.09 117.193 1061.52 118.198 1059.43 118.198H1057.55C1055.45 118.198 1053.89 117.193 1052.86 115.183L1019.23 54.883C1019.49 57.2503 1019.63 59.439 1019.63 61.449V132H1008.24V35.989H1017.82C1018.98 35.989 1019.87 36.1007 1020.5 36.324C1021.12 36.5473 1021.73 37.1727 1022.31 38.2L1055.47 97.294C1056.01 98.366 1056.52 99.4827 1057.01 100.644C1057.55 101.805 1058.04 102.989 1058.49 104.195C1058.93 102.989 1059.4 101.805 1059.89 100.644C1060.39 99.438 1060.92 98.299 1061.5 97.227L1094.06 38.2C1094.6 37.1727 1095.18 36.5473 1095.81 36.324C1096.48 36.1007 1097.39 35.989 1098.55 35.989H1108.13ZM1266.87 35.989V132H1255.48V61.449C1255.48 60.511 1255.5 59.506 1255.54 58.434C1255.63 57.362 1255.72 56.2677 1255.81 55.151L1222.85 115.183C1221.82 117.193 1220.26 118.198 1218.16 118.198H1216.28C1214.18 118.198 1212.62 117.193 1211.59 115.183L1177.96 54.883C1178.23 57.2503 1178.36 59.439 1178.36 61.449V132H1166.97V35.989H1176.55C1177.71 35.989 1178.61 36.1007 1179.23 36.324C1179.86 36.5473 1180.46 37.1727 1181.04 38.2L1214.2 97.294C1214.74 98.366 1215.25 99.4827 1215.75 100.644C1216.28 101.805 1216.77 102.989 1217.22 104.195C1217.67 102.989 1218.14 101.805 1218.63 100.644C1219.12 99.438 1219.65 98.299 1220.23 97.227L1252.8 38.2C1253.33 37.1727 1253.91 36.5473 1254.54 36.324C1255.21 36.1007 1256.12 35.989 1257.29 35.989H1266.87ZM1395.1 132H1382.1V35.989H1395.1V132ZM137.158 186.989V283H125.768V212.449C125.768 211.511 125.79 210.506 125.835 209.434C125.924 208.362 126.014 207.268 126.103 206.151L93.139 266.183C92.1117 268.193 90.5483 269.198 88.449 269.198H86.573C84.4737 269.198 82.9103 268.193 81.883 266.183L48.249 205.883C48.517 208.25 48.651 210.439 48.651 212.449V283H37.261V186.989H46.842C48.0033 186.989 48.8967 187.101 49.522 187.324C50.1473 187.547 50.7503 188.173 51.331 189.2L84.496 248.294C85.032 249.366 85.5457 250.483 86.037 251.644C86.573 252.805 87.0643 253.989 87.511 255.195C87.9577 253.989 88.4267 252.805 88.918 251.644C89.4093 250.438 89.9453 249.299 90.526 248.227L123.088 189.2C123.624 188.173 124.205 187.547 124.83 187.324C125.5 187.101 126.416 186.989 127.577 186.989H137.158ZM280.735 236.77C284.442 236.77 287.703 236.279 290.517 235.296C293.375 234.313 295.765 232.951 297.686 231.209C299.651 229.422 301.125 227.301 302.108 224.844C303.09 222.387 303.582 219.685 303.582 216.737C303.582 210.618 301.683 205.838 297.887 202.399C294.135 198.96 288.417 197.24 280.735 197.24H265.325V236.77H280.735ZM280.735 186.989C286.809 186.989 292.08 187.704 296.547 189.133C301.058 190.518 304.788 192.505 307.736 195.096C310.684 197.687 312.872 200.813 314.302 204.476C315.776 208.139 316.513 212.226 316.513 216.737C316.513 221.204 315.731 225.291 314.168 228.998C312.604 232.705 310.304 235.899 307.267 238.579C304.274 241.259 300.544 243.358 296.078 244.877C291.656 246.351 286.541 247.088 280.735 247.088H265.325V283H252.394V186.989H280.735ZM463.39 186.989V283H452V212.449C452 211.511 452.023 210.506 452.067 209.434C452.157 208.362 452.246 207.268 452.335 206.151L419.371 266.183C418.344 268.193 416.781 269.198 414.681 269.198H412.805C410.706 269.198 409.143 268.193 408.115 266.183L374.481 205.883C374.749 208.25 374.883 210.439 374.883 212.449V283H363.493V186.989H373.074C374.236 186.989 375.129 187.101 375.754 187.324C376.38 187.547 376.983 188.173 377.563 189.2L410.728 248.294C411.264 249.366 411.778 250.483 412.269 251.644C412.805 252.805 413.297 253.989 413.743 255.195C414.19 253.989 414.659 252.805 415.15 251.644C415.642 250.438 416.178 249.299 416.758 248.227L449.32 189.2C449.856 188.173 450.437 187.547 451.062 187.324C451.732 187.101 452.648 186.989 453.809 186.989H463.39ZM769.209 186.989V283H757.819V212.449C757.819 211.511 757.841 210.506 757.886 209.434C757.975 208.362 758.064 207.268 758.154 206.151L725.19 266.183C724.162 268.193 722.599 269.198 720.5 269.198H718.624C716.524 269.198 714.961 268.193 713.934 266.183L680.3 205.883C680.568 208.25 680.702 210.439 680.702 212.449V283H669.312V186.989H678.893C680.054 186.989 680.947 187.101 681.573 187.324C682.198 187.547 682.801 188.173 683.382 189.2L716.547 248.294C717.083 249.366 717.596 250.483 718.088 251.644C718.624 252.805 719.115 253.989 719.562 255.195C720.008 253.989 720.477 252.805 720.969 251.644C721.46 250.438 721.996 249.299 722.577 248.227L755.139 189.2C755.675 188.173 756.255 187.547 756.881 187.324C757.551 187.101 758.466 186.989 759.628 186.989H769.209ZM927.941 186.989V283H916.551V212.449C916.551 211.511 916.574 210.506 916.618 209.434C916.708 208.362 916.797 207.268 916.886 206.151L883.922 266.183C882.895 268.193 881.332 269.198 879.232 269.198H877.356C875.257 269.198 873.694 268.193 872.666 266.183L839.032 205.883C839.3 208.25 839.434 210.439 839.434 212.449V283H828.044V186.989H837.625C838.787 186.989 839.68 187.101 840.305 187.324C840.931 187.547 841.534 188.173 842.114 189.2L875.279 248.294C875.815 249.366 876.329 250.483 876.82 251.644C877.356 252.805 877.848 253.989 878.294 255.195C878.741 253.989 879.21 252.805 879.701 251.644C880.193 250.438 880.729 249.299 881.309 248.227L913.871 189.2C914.407 188.173 914.988 187.547 915.613 187.324C916.283 187.101 917.199 186.989 918.36 186.989H927.941ZM1056.18 283H1043.18V186.989H1056.18V283ZM1214.92 186.989V283H1203.53V212.449C1203.53 211.511 1203.55 210.506 1203.59 209.434C1203.68 208.362 1203.77 207.268 1203.86 206.151L1170.9 266.183C1169.87 268.193 1168.31 269.198 1166.21 269.198H1164.33C1162.23 269.198 1160.67 268.193 1159.64 266.183L1126.01 205.883C1126.27 208.25 1126.41 210.439 1126.41 212.449V283H1115.02V186.989H1124.6C1125.76 186.989 1126.65 187.101 1127.28 187.324C1127.91 187.547 1128.51 188.173 1129.09 189.2L1162.25 248.294C1162.79 249.366 1163.3 250.483 1163.79 251.644C1164.33 252.805 1164.82 253.989 1165.27 255.195C1165.72 253.989 1166.18 252.805 1166.68 251.644C1167.17 250.438 1167.7 249.299 1168.28 248.227L1200.85 189.2C1201.38 188.173 1201.96 187.547 1202.59 187.324C1203.26 187.101 1204.17 186.989 1205.33 186.989H1214.92ZM1397.55 263.168C1398.27 263.168 1398.89 263.458 1399.43 264.039L1404.59 269.6C1400.66 274.156 1395.88 277.707 1390.25 280.253C1384.67 282.799 1377.9 284.072 1369.95 284.072C1363.07 284.072 1356.82 282.888 1351.19 280.521C1345.56 278.109 1340.76 274.759 1336.78 270.471C1332.81 266.138 1329.73 260.957 1327.54 254.927C1325.35 248.897 1324.26 242.264 1324.26 235.028C1324.26 227.792 1325.39 221.159 1327.67 215.129C1329.95 209.099 1333.14 203.918 1337.25 199.585C1341.41 195.252 1346.37 191.902 1352.13 189.535C1357.89 187.123 1364.25 185.917 1371.22 185.917C1378.06 185.917 1384.09 187.011 1389.31 189.2C1394.54 191.389 1399.14 194.359 1403.11 198.111L1398.83 204.074C1398.56 204.521 1398.2 204.9 1397.75 205.213C1397.35 205.481 1396.79 205.615 1396.08 205.615C1395.28 205.615 1394.29 205.191 1393.13 204.342C1391.97 203.449 1390.45 202.466 1388.58 201.394C1386.7 200.322 1384.35 199.362 1381.54 198.513C1378.73 197.62 1375.26 197.173 1371.16 197.173C1366.2 197.173 1361.66 198.044 1357.55 199.786C1353.45 201.483 1349.89 203.962 1346.9 207.223C1343.95 210.484 1341.65 214.459 1340 219.149C1338.35 223.839 1337.52 229.132 1337.52 235.028C1337.52 241.013 1338.37 246.351 1340.07 251.041C1341.81 255.731 1344.15 259.706 1347.1 262.967C1350.1 266.183 1353.6 268.64 1357.62 270.337C1361.69 272.034 1366.06 272.883 1370.75 272.883C1373.61 272.883 1376.18 272.727 1378.46 272.414C1380.78 272.057 1382.9 271.521 1384.82 270.806C1386.79 270.091 1388.6 269.198 1390.25 268.126C1391.95 267.009 1393.62 265.692 1395.28 264.173C1396.03 263.503 1396.79 263.168 1397.55 263.168ZM137.158 338.989V435H125.768V364.449C125.768 363.511 125.79 362.506 125.835 361.434C125.924 360.362 126.014 359.268 126.103 358.151L93.139 418.183C92.1117 420.193 90.5483 421.198 88.449 421.198H86.573C84.4737 421.198 82.9103 420.193 81.883 418.183L48.249 357.883C48.517 360.25 48.651 362.439 48.651 364.449V435H37.261V338.989H46.842C48.0033 338.989 48.8967 339.101 49.522 339.324C50.1473 339.547 50.7503 340.173 51.331 341.2L84.496 400.294C85.032 401.366 85.5457 402.483 86.037 403.644C86.573 404.805 87.0643 405.989 87.511 407.195C87.9577 405.989 88.4267 404.805 88.918 403.644C89.4093 402.438 89.9453 401.299 90.526 400.227L123.088 341.2C123.624 340.173 124.205 339.547 124.83 339.324C125.5 339.101 126.416 338.989 127.577 338.989H137.158ZM442.976 338.989V435H431.586V364.449C431.586 363.511 431.609 362.506 431.653 361.434C431.743 360.362 431.832 359.268 431.921 358.151L398.957 418.183C397.93 420.193 396.367 421.198 394.267 421.198H392.391C390.292 421.198 388.729 420.193 387.701 418.183L354.067 357.883C354.335 360.25 354.469 362.439 354.469 364.449V435H343.079V338.989H352.66C353.822 338.989 354.715 339.101 355.34 339.324C355.966 339.547 356.569 340.173 357.149 341.2L390.314 400.294C390.85 401.366 391.364 402.483 391.855 403.644C392.391 404.805 392.883 405.989 393.329 407.195C393.776 405.989 394.245 404.805 394.736 403.644C395.228 402.438 395.764 401.299 396.344 400.227L428.906 341.2C429.442 340.173 430.023 339.547 430.648 339.324C431.318 339.101 432.234 338.989 433.395 338.989H442.976ZM601.709 338.989V435H590.319V364.449C590.319 363.511 590.341 362.506 590.386 361.434C590.475 360.362 590.564 359.268 590.654 358.151L557.69 418.183C556.662 420.193 555.099 421.198 553 421.198H551.124C549.024 421.198 547.461 420.193 546.434 418.183L512.8 357.883C513.068 360.25 513.202 362.439 513.202 364.449V435H501.812V338.989H511.393C512.554 338.989 513.447 339.101 514.073 339.324C514.698 339.547 515.301 340.173 515.882 341.2L549.047 400.294C549.583 401.366 550.096 402.483 550.588 403.644C551.124 404.805 551.615 405.989 552.062 407.195C552.508 405.989 552.977 404.805 553.469 403.644C553.96 402.438 554.496 401.299 555.077 400.227L587.639 341.2C588.175 340.173 588.755 339.547 589.381 339.324C590.051 339.101 590.966 338.989 592.128 338.989H601.709ZM729.943 435H716.945V338.989H729.943V435ZM888.683 338.989V435H877.293V364.449C877.293 363.511 877.316 362.506 877.36 361.434C877.45 360.362 877.539 359.268 877.628 358.151L844.664 418.183C843.637 420.193 842.074 421.198 839.974 421.198H838.098C835.999 421.198 834.436 420.193 833.408 418.183L799.774 357.883C800.042 360.25 800.176 362.439 800.176 364.449V435H788.786V338.989H798.367C799.529 338.989 800.422 339.101 801.047 339.324C801.673 339.547 802.276 340.173 802.856 341.2L836.021 400.294C836.557 401.366 837.071 402.483 837.562 403.644C838.098 404.805 838.59 405.989 839.036 407.195C839.483 405.989 839.952 404.805 840.443 403.644C840.935 402.438 841.471 401.299 842.051 400.227L874.613 341.2C875.149 340.173 875.73 339.547 876.355 339.324C877.025 339.101 877.941 338.989 879.102 338.989H888.683ZM1071.32 415.168C1072.04 415.168 1072.66 415.458 1073.2 416.039L1078.36 421.6C1074.43 426.156 1069.65 429.707 1064.02 432.253C1058.43 434.799 1051.67 436.072 1043.72 436.072C1036.84 436.072 1030.59 434.888 1024.96 432.521C1019.33 430.109 1014.53 426.759 1010.55 422.471C1006.58 418.138 1003.49 412.957 1001.31 406.927C999.118 400.897 998.023 394.264 998.023 387.028C998.023 379.792 999.162 373.159 1001.44 367.129C1003.72 361.099 1006.91 355.918 1011.02 351.585C1015.18 347.252 1020.13 343.902 1025.9 341.535C1031.66 339.123 1038.02 337.917 1044.99 337.917C1051.82 337.917 1057.85 339.011 1063.08 341.2C1068.31 343.389 1072.91 346.359 1076.88 350.111L1072.59 356.074C1072.33 356.521 1071.97 356.9 1071.52 357.213C1071.12 357.481 1070.56 357.615 1069.85 357.615C1069.04 357.615 1068.06 357.191 1066.9 356.342C1065.74 355.449 1064.22 354.466 1062.34 353.394C1060.47 352.322 1058.12 351.362 1055.31 350.513C1052.49 349.62 1049.03 349.173 1044.92 349.173C1039.97 349.173 1035.43 350.044 1031.32 351.786C1027.21 353.483 1023.66 355.962 1020.67 359.223C1017.72 362.484 1015.42 366.459 1013.77 371.149C1012.12 375.839 1011.29 381.132 1011.29 387.028C1011.29 393.013 1012.14 398.351 1013.84 403.041C1015.58 407.731 1017.92 411.706 1020.87 414.967C1023.86 418.183 1027.37 420.64 1031.39 422.337C1035.45 424.034 1039.83 424.883 1044.52 424.883C1047.38 424.883 1049.95 424.727 1052.23 424.414C1054.55 424.057 1056.67 423.521 1058.59 422.806C1060.56 422.091 1062.37 421.198 1064.02 420.126C1065.72 419.009 1067.39 417.692 1069.04 416.173C1069.8 415.503 1070.56 415.168 1071.32 415.168ZM1227.61 338.989V435H1216.22V364.449C1216.22 363.511 1216.24 362.506 1216.29 361.434C1216.38 360.362 1216.46 359.268 1216.55 358.151L1183.59 418.183C1182.56 420.193 1181 421.198 1178.9 421.198H1177.02C1174.92 421.198 1173.36 420.193 1172.33 418.183L1138.7 357.883C1138.97 360.25 1139.1 362.439 1139.1 364.449V435H1127.71V338.989H1137.29C1138.45 338.989 1139.35 339.101 1139.97 339.324C1140.6 339.547 1141.2 340.173 1141.78 341.2L1174.95 400.294C1175.48 401.366 1176 402.483 1176.49 403.644C1177.02 404.805 1177.52 405.989 1177.96 407.195C1178.41 405.989 1178.88 404.805 1179.37 403.644C1179.86 402.438 1180.4 401.299 1180.98 400.227L1213.54 341.2C1214.08 340.173 1214.66 339.547 1215.28 339.324C1215.95 339.101 1216.87 338.989 1218.03 338.989H1227.61ZM1371.19 388.77C1374.89 388.77 1378.15 388.279 1380.97 387.296C1383.83 386.313 1386.22 384.951 1388.14 383.209C1390.1 381.422 1391.58 379.301 1392.56 376.844C1393.54 374.387 1394.03 371.685 1394.03 368.737C1394.03 362.618 1392.13 357.838 1388.34 354.399C1384.59 350.96 1378.87 349.24 1371.19 349.24H1355.78V388.77H1371.19ZM1371.19 338.989C1377.26 338.989 1382.53 339.704 1387 341.133C1391.51 342.518 1395.24 344.505 1398.19 347.096C1401.13 349.687 1403.32 352.813 1404.75 356.476C1406.23 360.139 1406.96 364.226 1406.96 368.737C1406.96 373.204 1406.18 377.291 1404.62 380.998C1403.06 384.705 1400.76 387.899 1397.72 390.579C1394.73 393.259 1391 395.358 1386.53 396.877C1382.11 398.351 1376.99 399.088 1371.19 399.088H1355.78V435H1342.84V338.989H1371.19ZM137.158 489.989V586H125.768V515.449C125.768 514.511 125.79 513.506 125.835 512.434C125.924 511.362 126.014 510.268 126.103 509.151L93.139 569.183C92.1117 571.193 90.5483 572.198 88.449 572.198H86.573C84.4737 572.198 82.9103 571.193 81.883 569.183L48.249 508.883C48.517 511.25 48.651 513.439 48.651 515.449V586H37.261V489.989H46.842C48.0033 489.989 48.8967 490.101 49.522 490.324C50.1473 490.547 50.7503 491.173 51.331 492.2L84.496 551.294C85.032 552.366 85.5457 553.483 86.037 554.644C86.573 555.805 87.0643 556.989 87.511 558.195C87.9577 556.989 88.4267 555.805 88.918 554.644C89.4093 553.438 89.9453 552.299 90.526 551.227L123.088 492.2C123.624 491.173 124.205 490.547 124.83 490.324C125.5 490.101 126.416 489.989 127.577 489.989H137.158ZM265.392 586H252.394V489.989H265.392V586ZM424.133 489.989V586H412.743V515.449C412.743 514.511 412.765 513.506 412.81 512.434C412.899 511.362 412.988 510.268 413.078 509.151L380.114 569.183C379.086 571.193 377.523 572.198 375.424 572.198H373.548C371.448 572.198 369.885 571.193 368.858 569.183L335.224 508.883C335.492 511.25 335.626 513.439 335.626 515.449V586H324.236V489.989H333.817C334.978 489.989 335.871 490.101 336.497 490.324C337.122 490.547 337.725 491.173 338.306 492.2L371.471 551.294C372.007 552.366 372.52 553.483 373.012 554.644C373.548 555.805 374.039 556.989 374.486 558.195C374.932 556.989 375.401 555.805 375.893 554.644C376.384 553.438 376.92 552.299 377.501 551.227L410.063 492.2C410.599 491.173 411.179 490.547 411.805 490.324C412.475 490.101 413.39 489.989 414.552 489.989H424.133ZM606.77 566.168C607.485 566.168 608.11 566.458 608.646 567.039L613.805 572.6C609.875 577.156 605.095 580.707 599.467 583.253C593.884 585.799 587.117 587.072 579.166 587.072C572.288 587.072 566.034 585.888 560.406 583.521C554.778 581.109 549.977 577.759 546.001 573.471C542.026 569.138 538.944 563.957 536.755 557.927C534.567 551.897 533.472 545.264 533.472 538.028C533.472 530.792 534.611 524.159 536.889 518.129C539.167 512.099 542.361 506.918 546.47 502.585C550.624 498.252 555.582 494.902 561.344 492.535C567.106 490.123 573.471 488.917 580.439 488.917C587.273 488.917 593.303 490.011 598.529 492.2C603.755 494.389 608.356 497.359 612.331 501.111L608.043 507.074C607.775 507.521 607.418 507.9 606.971 508.213C606.569 508.481 606.011 508.615 605.296 508.615C604.492 508.615 603.51 508.191 602.348 507.342C601.187 506.449 599.668 505.466 597.792 504.394C595.916 503.322 593.571 502.362 590.757 501.513C587.943 500.62 584.482 500.173 580.372 500.173C575.414 500.173 570.881 501.044 566.771 502.786C562.662 504.483 559.111 506.962 556.118 510.223C553.17 513.484 550.87 517.459 549.217 522.149C547.565 526.839 546.738 532.132 546.738 538.028C546.738 544.013 547.587 549.351 549.284 554.041C551.026 558.731 553.371 562.706 556.319 565.967C559.312 569.183 562.818 571.64 566.838 573.337C570.903 575.034 575.28 575.883 579.97 575.883C582.829 575.883 585.397 575.727 587.675 575.414C589.998 575.057 592.12 574.521 594.04 573.806C596.006 573.091 597.815 572.198 599.467 571.126C601.165 570.009 602.84 568.692 604.492 567.173C605.252 566.503 606.011 566.168 606.77 566.168ZM763.058 489.989V586H751.668V515.449C751.668 514.511 751.691 513.506 751.735 512.434C751.825 511.362 751.914 510.268 752.003 509.151L719.039 569.183C718.012 571.193 716.449 572.198 714.349 572.198H712.473C710.374 572.198 708.811 571.193 707.783 569.183L674.149 508.883C674.417 511.25 674.551 513.439 674.551 515.449V586H663.161V489.989H672.742C673.904 489.989 674.797 490.101 675.422 490.324C676.048 490.547 676.651 491.173 677.231 492.2L710.396 551.294C710.932 552.366 711.446 553.483 711.937 554.644C712.473 555.805 712.965 556.989 713.411 558.195C713.858 556.989 714.327 555.805 714.818 554.644C715.31 553.438 715.846 552.299 716.426 551.227L748.988 492.2C749.524 491.173 750.105 490.547 750.73 490.324C751.4 490.101 752.316 489.989 753.477 489.989H763.058ZM906.635 539.77C910.343 539.77 913.603 539.279 916.417 538.296C919.276 537.313 921.666 535.951 923.586 534.209C925.552 532.422 927.026 530.301 928.008 527.844C928.991 525.387 929.482 522.685 929.482 519.737C929.482 513.618 927.584 508.838 923.787 505.399C920.035 501.96 914.318 500.24 906.635 500.24H891.225V539.77H906.635ZM906.635 489.989C912.71 489.989 917.981 490.704 922.447 492.133C926.959 493.518 930.688 495.505 933.636 498.096C936.584 500.687 938.773 503.813 940.202 507.476C941.676 511.139 942.413 515.226 942.413 519.737C942.413 524.204 941.632 528.291 940.068 531.998C938.505 535.705 936.205 538.899 933.167 541.579C930.175 544.259 926.445 546.358 921.978 547.877C917.556 549.351 912.442 550.088 906.635 550.088H891.225V586H878.294V489.989H906.635ZM1089.29 489.989V586H1077.9V515.449C1077.9 514.511 1077.92 513.506 1077.97 512.434C1078.06 511.362 1078.15 510.268 1078.24 509.151L1045.27 569.183C1044.24 571.193 1042.68 572.198 1040.58 572.198H1038.71C1036.61 572.198 1035.04 571.193 1034.02 569.183L1000.38 508.883C1000.65 511.25 1000.78 513.439 1000.78 515.449V586H989.394V489.989H998.975C1000.14 489.989 1001.03 490.101 1001.65 490.324C1002.28 490.547 1002.88 491.173 1003.46 492.2L1036.63 551.294C1037.16 552.366 1037.68 553.483 1038.17 554.644C1038.71 555.805 1039.2 556.989 1039.64 558.195C1040.09 556.989 1040.56 555.805 1041.05 554.644C1041.54 553.438 1042.08 552.299 1042.66 551.227L1075.22 492.2C1075.76 491.173 1076.34 490.547 1076.96 490.324C1077.63 490.101 1078.55 489.989 1079.71 489.989H1089.29ZM1395.11 489.989V586H1383.72V515.449C1383.72 514.511 1383.74 513.506 1383.79 512.434C1383.88 511.362 1383.96 510.268 1384.05 509.151L1351.09 569.183C1350.06 571.193 1348.5 572.198 1346.4 572.198H1344.52C1342.42 572.198 1340.86 571.193 1339.83 569.183L1306.2 508.883C1306.47 511.25 1306.6 513.439 1306.6 515.449V586H1295.21V489.989H1304.79C1305.95 489.989 1306.85 490.101 1307.47 490.324C1308.1 490.547 1308.7 491.173 1309.28 492.2L1342.45 551.294C1342.98 552.366 1343.5 553.483 1343.99 554.644C1344.52 555.805 1345.02 556.989 1345.46 558.195C1345.91 556.989 1346.38 555.805 1346.87 554.644C1347.36 553.438 1347.9 552.299 1348.48 551.227L1381.04 492.2C1381.58 491.173 1382.16 490.547 1382.78 490.324C1383.45 490.101 1384.37 489.989 1385.53 489.989H1395.11ZM137.158 640.989V737H125.768V666.449C125.768 665.511 125.79 664.506 125.835 663.434C125.924 662.362 126.014 661.268 126.103 660.151L93.139 720.183C92.1117 722.193 90.5483 723.198 88.449 723.198H86.573C84.4737 723.198 82.9103 722.193 81.883 720.183L48.249 659.883C48.517 662.25 48.651 664.439 48.651 666.449V737H37.261V640.989H46.842C48.0033 640.989 48.8967 641.101 49.522 641.324C50.1473 641.547 50.7503 642.173 51.331 643.2L84.496 702.294C85.032 703.366 85.5457 704.483 86.037 705.644C86.573 706.805 87.0643 707.989 87.511 709.195C87.9577 707.989 88.4267 706.805 88.918 705.644C89.4093 704.438 89.9453 703.299 90.526 702.227L123.088 643.2C123.624 642.173 124.205 641.547 124.83 641.324C125.5 641.101 126.416 640.989 127.577 640.989H137.158ZM319.796 717.168C320.51 717.168 321.136 717.458 321.672 718.039L326.831 723.6C322.9 728.156 318.121 731.707 312.493 734.253C306.909 736.799 300.142 738.072 292.192 738.072C285.313 738.072 279.06 736.888 273.432 734.521C267.804 732.109 263.002 728.759 259.027 724.471C255.051 720.138 251.969 714.957 249.781 708.927C247.592 702.897 246.498 696.264 246.498 689.028C246.498 681.792 247.637 675.159 249.915 669.129C252.193 663.099 255.386 657.918 259.496 653.585C263.65 649.252 268.608 645.902 274.37 643.535C280.132 641.123 286.497 639.917 293.465 639.917C300.299 639.917 306.329 641.011 311.555 643.2C316.781 645.389 321.381 648.359 325.357 652.111L321.069 658.074C320.801 658.521 320.443 658.9 319.997 659.213C319.595 659.481 319.036 659.615 318.322 659.615C317.518 659.615 316.535 659.191 315.374 658.342C314.212 657.449 312.694 656.466 310.818 655.394C308.942 654.322 306.597 653.362 303.783 652.513C300.969 651.62 297.507 651.173 293.398 651.173C288.44 651.173 283.906 652.044 279.797 653.786C275.687 655.483 272.136 657.962 269.144 661.223C266.196 664.484 263.895 668.459 262.243 673.149C260.59 677.839 259.764 683.132 259.764 689.028C259.764 695.013 260.612 700.351 262.31 705.041C264.052 709.731 266.397 713.706 269.345 716.967C272.337 720.183 275.844 722.64 279.864 724.337C283.928 726.034 288.306 726.883 292.996 726.883C295.854 726.883 298.423 726.727 300.701 726.414C303.023 726.057 305.145 725.521 307.066 724.806C309.031 724.091 310.84 723.198 312.493 722.126C314.19 721.009 315.865 719.692 317.518 718.173C318.277 717.503 319.036 717.168 319.796 717.168ZM476.084 640.989V737H464.694V666.449C464.694 665.511 464.716 664.506 464.761 663.434C464.85 662.362 464.939 661.268 465.029 660.151L432.065 720.183C431.037 722.193 429.474 723.198 427.375 723.198H425.499C423.399 723.198 421.836 722.193 420.809 720.183L387.175 659.883C387.443 662.25 387.577 664.439 387.577 666.449V737H376.187V640.989H385.768C386.929 640.989 387.822 641.101 388.448 641.324C389.073 641.547 389.676 642.173 390.257 643.2L423.422 702.294C423.958 703.366 424.471 704.483 424.963 705.644C425.499 706.805 425.99 707.989 426.437 709.195C426.883 707.989 427.352 706.805 427.844 705.644C428.335 704.438 428.871 703.299 429.452 702.227L462.014 643.2C462.55 642.173 463.13 641.547 463.756 641.324C464.426 641.101 465.341 640.989 466.503 640.989H476.084ZM619.661 690.77C623.368 690.77 626.629 690.279 629.443 689.296C632.301 688.313 634.691 686.951 636.612 685.209C638.577 683.422 640.051 681.301 641.034 678.844C642.016 676.387 642.508 673.685 642.508 670.737C642.508 664.618 640.609 659.838 636.813 656.399C633.061 652.96 627.343 651.24 619.661 651.24H604.251V690.77H619.661ZM619.661 640.989C625.735 640.989 631.006 641.704 635.473 643.133C639.984 644.518 643.714 646.505 646.662 649.096C649.61 651.687 651.798 654.813 653.228 658.476C654.702 662.139 655.439 666.226 655.439 670.737C655.439 675.204 654.657 679.291 653.094 682.998C651.53 686.705 649.23 689.899 646.193 692.579C643.2 695.259 639.47 697.358 635.004 698.877C630.582 700.351 625.467 701.088 619.661 701.088H604.251V737H591.32V640.989H619.661ZM802.316 640.989V737H790.926V666.449C790.926 665.511 790.949 664.506 790.993 663.434C791.083 662.362 791.172 661.268 791.261 660.151L758.297 720.183C757.27 722.193 755.707 723.198 753.607 723.198H751.731C749.632 723.198 748.069 722.193 747.041 720.183L713.407 659.883C713.675 662.25 713.809 664.439 713.809 666.449V737H702.419V640.989H712C713.162 640.989 714.055 641.101 714.68 641.324C715.306 641.547 715.909 642.173 716.489 643.2L749.654 702.294C750.19 703.366 750.704 704.483 751.195 705.644C751.731 706.805 752.223 707.989 752.669 709.195C753.116 707.989 753.585 706.805 754.076 705.644C754.568 704.438 755.104 703.299 755.684 702.227L788.246 643.2C788.782 642.173 789.363 641.547 789.988 641.324C790.658 641.101 791.574 640.989 792.735 640.989H802.316ZM1108.13 640.989V737H1096.74V666.449C1096.74 665.511 1096.77 664.506 1096.81 663.434C1096.9 662.362 1096.99 661.268 1097.08 660.151L1064.12 720.183C1063.09 722.193 1061.52 723.198 1059.43 723.198H1057.55C1055.45 723.198 1053.89 722.193 1052.86 720.183L1019.23 659.883C1019.49 662.25 1019.63 664.439 1019.63 666.449V737H1008.24V640.989H1017.82C1018.98 640.989 1019.87 641.101 1020.5 641.324C1021.12 641.547 1021.73 642.173 1022.31 643.2L1055.47 702.294C1056.01 703.366 1056.52 704.483 1057.01 705.644C1057.55 706.805 1058.04 707.989 1058.49 709.195C1058.93 707.989 1059.4 706.805 1059.89 705.644C1060.39 704.438 1060.92 703.299 1061.5 702.227L1094.06 643.2C1094.6 642.173 1095.18 641.547 1095.81 641.324C1096.48 641.101 1097.39 640.989 1098.55 640.989H1108.13ZM1266.87 640.989V737H1255.48V666.449C1255.48 665.511 1255.5 664.506 1255.54 663.434C1255.63 662.362 1255.72 661.268 1255.81 660.151L1222.85 720.183C1221.82 722.193 1220.26 723.198 1218.16 723.198H1216.28C1214.18 723.198 1212.62 722.193 1211.59 720.183L1177.96 659.883C1178.23 662.25 1178.36 664.439 1178.36 666.449V737H1166.97V640.989H1176.55C1177.71 640.989 1178.61 641.101 1179.23 641.324C1179.86 641.547 1180.46 642.173 1181.04 643.2L1214.2 702.294C1214.74 703.366 1215.25 704.483 1215.75 705.644C1216.28 706.805 1216.77 707.989 1217.22 709.195C1217.67 707.989 1218.14 706.805 1218.63 705.644C1219.12 704.438 1219.65 703.299 1220.23 702.227L1252.8 643.2C1253.33 642.173 1253.91 641.547 1254.54 641.324C1255.21 641.101 1256.12 640.989 1257.29 640.989H1266.87ZM1395.1 737H1382.1V640.989H1395.1V737ZM137.158 791.989V888H125.768V817.449C125.768 816.511 125.79 815.506 125.835 814.434C125.924 813.362 126.014 812.268 126.103 811.151L93.139 871.183C92.1117 873.193 90.5483 874.198 88.449 874.198H86.573C84.4737 874.198 82.9103 873.193 81.883 871.183L48.249 810.883C48.517 813.25 48.651 815.439 48.651 817.449V888H37.261V791.989H46.842C48.0033 791.989 48.8967 792.101 49.522 792.324C50.1473 792.547 50.7503 793.173 51.331 794.2L84.496 853.294C85.032 854.366 85.5457 855.483 86.037 856.644C86.573 857.805 87.0643 858.989 87.511 860.195C87.9577 858.989 88.4267 857.805 88.918 856.644C89.4093 855.438 89.9453 854.299 90.526 853.227L123.088 794.2C123.624 793.173 124.205 792.547 124.83 792.324C125.5 792.101 126.416 791.989 127.577 791.989H137.158ZM280.735 841.77C284.442 841.77 287.703 841.279 290.517 840.296C293.375 839.313 295.765 837.951 297.686 836.209C299.651 834.422 301.125 832.301 302.108 829.844C303.09 827.387 303.582 824.685 303.582 821.737C303.582 815.618 301.683 810.838 297.887 807.399C294.135 803.96 288.417 802.24 280.735 802.24H265.325V841.77H280.735ZM280.735 791.989C286.809 791.989 292.08 792.704 296.547 794.133C301.058 795.518 304.788 797.505 307.736 800.096C310.684 802.687 312.872 805.813 314.302 809.476C315.776 813.139 316.513 817.226 316.513 821.737C316.513 826.204 315.731 830.291 314.168 833.998C312.604 837.705 310.304 840.899 307.267 843.579C304.274 846.259 300.544 848.358 296.078 849.877C291.656 851.351 286.541 852.088 280.735 852.088H265.325V888H252.394V791.989H280.735ZM463.39 791.989V888H452V817.449C452 816.511 452.023 815.506 452.067 814.434C452.157 813.362 452.246 812.268 452.335 811.151L419.371 871.183C418.344 873.193 416.781 874.198 414.681 874.198H412.805C410.706 874.198 409.143 873.193 408.115 871.183L374.481 810.883C374.749 813.25 374.883 815.439 374.883 817.449V888H363.493V791.989H373.074C374.236 791.989 375.129 792.101 375.754 792.324C376.38 792.547 376.983 793.173 377.563 794.2L410.728 853.294C411.264 854.366 411.778 855.483 412.269 856.644C412.805 857.805 413.297 858.989 413.743 860.195C414.19 858.989 414.659 857.805 415.15 856.644C415.642 855.438 416.178 854.299 416.758 853.227L449.32 794.2C449.856 793.173 450.437 792.547 451.062 792.324C451.732 792.101 452.648 791.989 453.809 791.989H463.39ZM769.209 791.989V888H757.819V817.449C757.819 816.511 757.841 815.506 757.886 814.434C757.975 813.362 758.064 812.268 758.154 811.151L725.19 871.183C724.162 873.193 722.599 874.198 720.5 874.198H718.624C716.524 874.198 714.961 873.193 713.934 871.183L680.3 810.883C680.568 813.25 680.702 815.439 680.702 817.449V888H669.312V791.989H678.893C680.054 791.989 680.947 792.101 681.573 792.324C682.198 792.547 682.801 793.173 683.382 794.2L716.547 853.294C717.083 854.366 717.596 855.483 718.088 856.644C718.624 857.805 719.115 858.989 719.562 860.195C720.008 858.989 720.477 857.805 720.969 856.644C721.46 855.438 721.996 854.299 722.577 853.227L755.139 794.2C755.675 793.173 756.255 792.547 756.881 792.324C757.551 792.101 758.466 791.989 759.628 791.989H769.209ZM927.941 791.989V888H916.551V817.449C916.551 816.511 916.574 815.506 916.618 814.434C916.708 813.362 916.797 812.268 916.886 811.151L883.922 871.183C882.895 873.193 881.332 874.198 879.232 874.198H877.356C875.257 874.198 873.694 873.193 872.666 871.183L839.032 810.883C839.3 813.25 839.434 815.439 839.434 817.449V888H828.044V791.989H837.625C838.787 791.989 839.68 792.101 840.305 792.324C840.931 792.547 841.534 793.173 842.114 794.2L875.279 853.294C875.815 854.366 876.329 855.483 876.82 856.644C877.356 857.805 877.848 858.989 878.294 860.195C878.741 858.989 879.21 857.805 879.701 856.644C880.193 855.438 880.729 854.299 881.309 853.227L913.871 794.2C914.407 793.173 914.988 792.547 915.613 792.324C916.283 792.101 917.199 791.989 918.36 791.989H927.941ZM1056.18 888H1043.18V791.989H1056.18V888ZM1214.92 791.989V888H1203.53V817.449C1203.53 816.511 1203.55 815.506 1203.59 814.434C1203.68 813.362 1203.77 812.268 1203.86 811.151L1170.9 871.183C1169.87 873.193 1168.31 874.198 1166.21 874.198H1164.33C1162.23 874.198 1160.67 873.193 1159.64 871.183L1126.01 810.883C1126.27 813.25 1126.41 815.439 1126.41 817.449V888H1115.02V791.989H1124.6C1125.76 791.989 1126.65 792.101 1127.28 792.324C1127.91 792.547 1128.51 793.173 1129.09 794.2L1162.25 853.294C1162.79 854.366 1163.3 855.483 1163.79 856.644C1164.33 857.805 1164.82 858.989 1165.27 860.195C1165.72 858.989 1166.18 857.805 1166.68 856.644C1167.17 855.438 1167.7 854.299 1168.28 853.227L1200.85 794.2C1201.38 793.173 1201.96 792.547 1202.59 792.324C1203.26 792.101 1204.17 791.989 1205.33 791.989H1214.92ZM1397.55 868.168C1398.27 868.168 1398.89 868.458 1399.43 869.039L1404.59 874.6C1400.66 879.156 1395.88 882.707 1390.25 885.253C1384.67 887.799 1377.9 889.072 1369.95 889.072C1363.07 889.072 1356.82 887.888 1351.19 885.521C1345.56 883.109 1340.76 879.759 1336.78 875.471C1332.81 871.138 1329.73 865.957 1327.54 859.927C1325.35 853.897 1324.26 847.264 1324.26 840.028C1324.26 832.792 1325.39 826.159 1327.67 820.129C1329.95 814.099 1333.14 808.918 1337.25 804.585C1341.41 800.252 1346.37 796.902 1352.13 794.535C1357.89 792.123 1364.25 790.917 1371.22 790.917C1378.06 790.917 1384.09 792.011 1389.31 794.2C1394.54 796.389 1399.14 799.359 1403.11 803.111L1398.83 809.074C1398.56 809.521 1398.2 809.9 1397.75 810.213C1397.35 810.481 1396.79 810.615 1396.08 810.615C1395.28 810.615 1394.29 810.191 1393.13 809.342C1391.97 808.449 1390.45 807.466 1388.58 806.394C1386.7 805.322 1384.35 804.362 1381.54 803.513C1378.73 802.62 1375.26 802.173 1371.16 802.173C1366.2 802.173 1361.66 803.044 1357.55 804.786C1353.45 806.483 1349.89 808.962 1346.9 812.223C1343.95 815.484 1341.65 819.459 1340 824.149C1338.35 828.839 1337.52 834.132 1337.52 840.028C1337.52 846.013 1338.37 851.351 1340.07 856.041C1341.81 860.731 1344.15 864.706 1347.1 867.967C1350.1 871.183 1353.6 873.64 1357.62 875.337C1361.69 877.034 1366.06 877.883 1370.75 877.883C1373.61 877.883 1376.18 877.727 1378.46 877.414C1380.78 877.057 1382.9 876.521 1384.82 875.806C1386.79 875.091 1388.6 874.198 1390.25 873.126C1391.95 872.009 1393.62 870.692 1395.28 869.173C1396.03 868.503 1396.79 868.168 1397.55 868.168ZM137.158 942.989V1039H125.768V968.449C125.768 967.511 125.79 966.506 125.835 965.434C125.924 964.362 126.014 963.268 126.103 962.151L93.139 1022.18C92.1117 1024.19 90.5483 1025.2 88.449 1025.2H86.573C84.4737 1025.2 82.9103 1024.19 81.883 1022.18L48.249 961.883C48.517 964.25 48.651 966.439 48.651 968.449V1039H37.261V942.989H46.842C48.0033 942.989 48.8967 943.101 49.522 943.324C50.1473 943.547 50.7503 944.173 51.331 945.2L84.496 1004.29C85.032 1005.37 85.5457 1006.48 86.037 1007.64C86.573 1008.81 87.0643 1009.99 87.511 1011.19C87.9577 1009.99 88.4267 1008.81 88.918 1007.64C89.4093 1006.44 89.9453 1005.3 90.526 1004.23L123.088 945.2C123.624 944.173 124.205 943.547 124.83 943.324C125.5 943.101 126.416 942.989 127.577 942.989H137.158ZM442.976 942.989V1039H431.586V968.449C431.586 967.511 431.609 966.506 431.653 965.434C431.743 964.362 431.832 963.268 431.921 962.151L398.957 1022.18C397.93 1024.19 396.367 1025.2 394.267 1025.2H392.391C390.292 1025.2 388.729 1024.19 387.701 1022.18L354.067 961.883C354.335 964.25 354.469 966.439 354.469 968.449V1039H343.079V942.989H352.66C353.822 942.989 354.715 943.101 355.34 943.324C355.966 943.547 356.569 944.173 357.149 945.2L390.314 1004.29C390.85 1005.37 391.364 1006.48 391.855 1007.64C392.391 1008.81 392.883 1009.99 393.329 1011.19C393.776 1009.99 394.245 1008.81 394.736 1007.64C395.228 1006.44 395.764 1005.3 396.344 1004.23L428.906 945.2C429.442 944.173 430.023 943.547 430.648 943.324C431.318 943.101 432.234 942.989 433.395 942.989H442.976ZM601.709 942.989V1039H590.319V968.449C590.319 967.511 590.341 966.506 590.386 965.434C590.475 964.362 590.564 963.268 590.654 962.151L557.69 1022.18C556.662 1024.19 555.099 1025.2 553 1025.2H551.124C549.024 1025.2 547.461 1024.19 546.434 1022.18L512.8 961.883C513.068 964.25 513.202 966.439 513.202 968.449V1039H501.812V942.989H511.393C512.554 942.989 513.447 943.101 514.073 943.324C514.698 943.547 515.301 944.173 515.882 945.2L549.047 1004.29C549.583 1005.37 550.096 1006.48 550.588 1007.64C551.124 1008.81 551.615 1009.99 552.062 1011.19C552.508 1009.99 552.977 1008.81 553.469 1007.64C553.96 1006.44 554.496 1005.3 555.077 1004.23L587.639 945.2C588.175 944.173 588.755 943.547 589.381 943.324C590.051 943.101 590.966 942.989 592.128 942.989H601.709ZM729.943 1039H716.945V942.989H729.943V1039ZM888.683 942.989V1039H877.293V968.449C877.293 967.511 877.316 966.506 877.36 965.434C877.45 964.362 877.539 963.268 877.628 962.151L844.664 1022.18C843.637 1024.19 842.074 1025.2 839.974 1025.2H838.098C835.999 1025.2 834.436 1024.19 833.408 1022.18L799.774 961.883C800.042 964.25 800.176 966.439 800.176 968.449V1039H788.786V942.989H798.367C799.529 942.989 800.422 943.101 801.047 943.324C801.673 943.547 802.276 944.173 802.856 945.2L836.021 1004.29C836.557 1005.37 837.071 1006.48 837.562 1007.64C838.098 1008.81 838.59 1009.99 839.036 1011.19C839.483 1009.99 839.952 1008.81 840.443 1007.64C840.935 1006.44 841.471 1005.3 842.051 1004.23L874.613 945.2C875.149 944.173 875.73 943.547 876.355 943.324C877.025 943.101 877.941 942.989 879.102 942.989H888.683ZM1071.32 1019.17C1072.04 1019.17 1072.66 1019.46 1073.2 1020.04L1078.36 1025.6C1074.43 1030.16 1069.65 1033.71 1064.02 1036.25C1058.43 1038.8 1051.67 1040.07 1043.72 1040.07C1036.84 1040.07 1030.59 1038.89 1024.96 1036.52C1019.33 1034.11 1014.53 1030.76 1010.55 1026.47C1006.58 1022.14 1003.49 1016.96 1001.31 1010.93C999.118 1004.9 998.023 998.264 998.023 991.028C998.023 983.792 999.162 977.159 1001.44 971.129C1003.72 965.099 1006.91 959.918 1011.02 955.585C1015.18 951.252 1020.13 947.902 1025.9 945.535C1031.66 943.123 1038.02 941.917 1044.99 941.917C1051.82 941.917 1057.85 943.011 1063.08 945.2C1068.31 947.389 1072.91 950.359 1076.88 954.111L1072.59 960.074C1072.33 960.521 1071.97 960.9 1071.52 961.213C1071.12 961.481 1070.56 961.615 1069.85 961.615C1069.04 961.615 1068.06 961.191 1066.9 960.342C1065.74 959.449 1064.22 958.466 1062.34 957.394C1060.47 956.322 1058.12 955.362 1055.31 954.513C1052.49 953.62 1049.03 953.173 1044.92 953.173C1039.97 953.173 1035.43 954.044 1031.32 955.786C1027.21 957.483 1023.66 959.962 1020.67 963.223C1017.72 966.484 1015.42 970.459 1013.77 975.149C1012.12 979.839 1011.29 985.132 1011.29 991.028C1011.29 997.013 1012.14 1002.35 1013.84 1007.04C1015.58 1011.73 1017.92 1015.71 1020.87 1018.97C1023.86 1022.18 1027.37 1024.64 1031.39 1026.34C1035.45 1028.03 1039.83 1028.88 1044.52 1028.88C1047.38 1028.88 1049.95 1028.73 1052.23 1028.41C1054.55 1028.06 1056.67 1027.52 1058.59 1026.81C1060.56 1026.09 1062.37 1025.2 1064.02 1024.13C1065.72 1023.01 1067.39 1021.69 1069.04 1020.17C1069.8 1019.5 1070.56 1019.17 1071.32 1019.17ZM1227.61 942.989V1039H1216.22V968.449C1216.22 967.511 1216.24 966.506 1216.29 965.434C1216.38 964.362 1216.46 963.268 1216.55 962.151L1183.59 1022.18C1182.56 1024.19 1181 1025.2 1178.9 1025.2H1177.02C1174.92 1025.2 1173.36 1024.19 1172.33 1022.18L1138.7 961.883C1138.97 964.25 1139.1 966.439 1139.1 968.449V1039H1127.71V942.989H1137.29C1138.45 942.989 1139.35 943.101 1139.97 943.324C1140.6 943.547 1141.2 944.173 1141.78 945.2L1174.95 1004.29C1175.48 1005.37 1176 1006.48 1176.49 1007.64C1177.02 1008.81 1177.52 1009.99 1177.96 1011.19C1178.41 1009.99 1178.88 1008.81 1179.37 1007.64C1179.86 1006.44 1180.4 1005.3 1180.98 1004.23L1213.54 945.2C1214.08 944.173 1214.66 943.547 1215.28 943.324C1215.95 943.101 1216.87 942.989 1218.03 942.989H1227.61ZM1371.19 992.77C1374.89 992.77 1378.15 992.279 1380.97 991.296C1383.83 990.313 1386.22 988.951 1388.14 987.209C1390.1 985.422 1391.58 983.301 1392.56 980.844C1393.54 978.387 1394.03 975.685 1394.03 972.737C1394.03 966.618 1392.13 961.838 1388.34 958.399C1384.59 954.96 1378.87 953.24 1371.19 953.24H1355.78V992.77H1371.19ZM1371.19 942.989C1377.26 942.989 1382.53 943.704 1387 945.133C1391.51 946.518 1395.24 948.505 1398.19 951.096C1401.13 953.687 1403.32 956.813 1404.75 960.476C1406.23 964.139 1406.96 968.226 1406.96 972.737C1406.96 977.204 1406.18 981.291 1404.62 984.998C1403.06 988.705 1400.76 991.899 1397.72 994.579C1394.73 997.259 1391 999.358 1386.53 1000.88C1382.11 1002.35 1376.99 1003.09 1371.19 1003.09H1355.78V1039H1342.84V942.989H1371.19Z" fill="#74705D"/>
<path d="M239.763 35.989L200.635 132H188.977L149.849 35.989H160.234C161.396 35.989 162.334 36.2793 163.048 36.86C163.763 37.4407 164.299 38.1777 164.656 39.071L191.724 106.808C192.305 108.327 192.863 109.979 193.399 111.766C193.98 113.553 194.494 115.429 194.94 117.394C195.387 115.429 195.856 113.553 196.347 111.766C196.839 109.979 197.375 108.327 197.955 106.808L224.956 39.071C225.224 38.3117 225.738 37.6193 226.497 36.994C227.301 36.324 228.262 35.989 229.378 35.989H239.763ZM578.689 35.989L539.561 132H527.903L488.775 35.989H499.16C500.321 35.989 501.259 36.2793 501.974 36.86C502.689 37.4407 503.225 38.1777 503.582 39.071L530.65 106.808C531.231 108.327 531.789 109.979 532.325 111.766C532.906 113.553 533.419 115.429 533.866 117.394C534.313 115.429 534.782 113.553 535.273 111.766C535.764 109.979 536.3 108.327 536.881 106.808L563.882 39.071C564.15 38.3117 564.664 37.6193 565.423 36.994C566.227 36.324 567.187 35.989 568.304 35.989H578.689ZM904.921 35.989L865.793 132H854.135L815.007 35.989H825.392C826.554 35.989 827.492 36.2793 828.206 36.86C828.921 37.4407 829.457 38.1777 829.814 39.071L856.882 106.808C857.463 108.327 858.021 109.979 858.557 111.766C859.138 113.553 859.652 115.429 860.098 117.394C860.545 115.429 861.014 113.553 861.505 111.766C861.997 109.979 862.533 108.327 863.113 106.808L890.114 39.071C890.382 38.3117 890.896 37.6193 891.655 36.994C892.459 36.324 893.42 35.989 894.536 35.989H904.921ZM995.607 35.989L956.479 132H944.821L905.693 35.989H916.078C917.239 35.989 918.177 36.2793 918.892 36.86C919.607 37.4407 920.143 38.1777 920.5 39.071L947.568 106.808C948.149 108.327 948.707 109.979 949.243 111.766C949.824 113.553 950.337 115.429 950.784 117.394C951.231 115.429 951.7 113.553 952.191 111.766C952.682 109.979 953.218 108.327 953.799 106.808L980.8 39.071C981.068 38.3117 981.582 37.6193 982.341 36.994C983.145 36.324 984.105 35.989 985.222 35.989H995.607ZM1369.47 35.989L1330.34 132H1318.69L1279.56 35.989H1289.94C1291.1 35.989 1292.04 36.2793 1292.76 36.86C1293.47 37.4407 1294.01 38.1777 1294.37 39.071L1321.43 106.808C1322.01 108.327 1322.57 109.979 1323.11 111.766C1323.69 113.553 1324.2 115.429 1324.65 117.394C1325.1 115.429 1325.56 113.553 1326.06 111.766C1326.55 109.979 1327.08 108.327 1327.66 106.808L1354.67 39.071C1354.93 38.3117 1355.45 37.6193 1356.21 36.994C1357.01 36.324 1357.97 35.989 1359.09 35.989H1369.47ZM239.763 186.989L200.635 283H188.977L149.849 186.989H160.234C161.396 186.989 162.334 187.279 163.048 187.86C163.763 188.441 164.299 189.178 164.656 190.071L191.724 257.808C192.305 259.327 192.863 260.979 193.399 262.766C193.98 264.553 194.494 266.429 194.94 268.394C195.387 266.429 195.856 264.553 196.347 262.766C196.839 260.979 197.375 259.327 197.955 257.808L224.956 190.071C225.224 189.312 225.738 188.619 226.497 187.994C227.301 187.324 228.262 186.989 229.378 186.989H239.763ZM565.996 186.989L526.868 283H515.21L476.082 186.989H486.467C487.628 186.989 488.566 187.279 489.281 187.86C489.995 188.441 490.531 189.178 490.889 190.071L517.957 257.808C518.537 259.327 519.096 260.979 519.632 262.766C520.212 264.553 520.726 266.429 521.173 268.394C521.619 266.429 522.088 264.553 522.58 262.766C523.071 260.979 523.607 259.327 524.188 257.808L551.189 190.071C551.457 189.312 551.97 188.619 552.73 187.994C553.534 187.324 554.494 186.989 555.611 186.989H565.996ZM656.681 186.989L617.553 283H605.895L566.767 186.989H577.152C578.314 186.989 579.252 187.279 579.966 187.86C580.681 188.441 581.217 189.178 581.574 190.071L608.642 257.808C609.223 259.327 609.781 260.979 610.317 262.766C610.898 264.553 611.412 266.429 611.858 268.394C612.305 266.429 612.774 264.553 613.265 262.766C613.757 260.979 614.293 259.327 614.873 257.808L641.874 190.071C642.142 189.312 642.656 188.619 643.415 187.994C644.219 187.324 645.18 186.989 646.296 186.989H656.681ZM1030.55 186.989L991.418 283H979.76L940.632 186.989H951.017C952.179 186.989 953.117 187.279 953.831 187.86C954.546 188.441 955.082 189.178 955.439 190.071L982.507 257.808C983.088 259.327 983.646 260.979 984.182 262.766C984.763 264.553 985.277 266.429 985.723 268.394C986.17 266.429 986.639 264.553 987.13 262.766C987.622 260.979 988.158 259.327 988.738 257.808L1015.74 190.071C1016.01 189.312 1016.52 188.619 1017.28 187.994C1018.08 187.324 1019.04 186.989 1020.16 186.989H1030.55ZM1317.52 186.989L1278.39 283H1266.74L1227.61 186.989H1237.99C1239.15 186.989 1240.09 187.279 1240.81 187.86C1241.52 188.441 1242.06 189.178 1242.41 190.071L1269.48 257.808C1270.06 259.327 1270.62 260.979 1271.16 262.766C1271.74 264.553 1272.25 266.429 1272.7 268.394C1273.14 266.429 1273.61 264.553 1274.11 262.766C1274.6 260.979 1275.13 259.327 1275.71 257.808L1302.71 190.071C1302.98 189.312 1303.5 188.619 1304.26 187.994C1305.06 187.324 1306.02 186.989 1307.14 186.989H1317.52ZM239.763 338.989L200.635 435H188.977L149.849 338.989H160.234C161.396 338.989 162.334 339.279 163.048 339.86C163.763 340.441 164.299 341.178 164.656 342.071L191.724 409.808C192.305 411.327 192.863 412.979 193.399 414.766C193.98 416.553 194.494 418.429 194.94 420.394C195.387 418.429 195.856 416.553 196.347 414.766C196.839 412.979 197.375 411.327 197.955 409.808L224.956 342.071C225.224 341.312 225.738 340.619 226.497 339.994C227.301 339.324 228.262 338.989 229.378 338.989H239.763ZM330.449 338.989L291.321 435H279.663L240.535 338.989H250.92C252.081 338.989 253.019 339.279 253.734 339.86C254.448 340.441 254.984 341.178 255.342 342.071L282.41 409.808C282.99 411.327 283.549 412.979 284.085 414.766C284.665 416.553 285.179 418.429 285.626 420.394C286.072 418.429 286.541 416.553 287.033 414.766C287.524 412.979 288.06 411.327 288.641 409.808L315.642 342.071C315.91 341.312 316.423 340.619 317.183 339.994C317.987 339.324 318.947 338.989 320.064 338.989H330.449ZM704.314 338.989L665.186 435H653.528L614.4 338.989H624.785C625.946 338.989 626.884 339.279 627.599 339.86C628.314 340.441 628.85 341.178 629.207 342.071L656.275 409.808C656.856 411.327 657.414 412.979 657.95 414.766C658.531 416.553 659.044 418.429 659.491 420.394C659.938 418.429 660.407 416.553 660.898 414.766C661.389 412.979 661.925 411.327 662.506 409.808L689.507 342.071C689.775 341.312 690.289 340.619 691.048 339.994C691.852 339.324 692.812 338.989 693.929 338.989H704.314ZM991.289 338.989L952.161 435H940.503L901.375 338.989H911.76C912.921 338.989 913.859 339.279 914.574 339.86C915.288 340.441 915.824 341.178 916.182 342.071L943.25 409.808C943.83 411.327 944.389 412.979 944.925 414.766C945.505 416.553 946.019 418.429 946.466 420.394C946.912 418.429 947.381 416.553 947.873 414.766C948.364 412.979 948.9 411.327 949.481 409.808L976.482 342.071C976.75 341.312 977.263 340.619 978.023 339.994C978.827 339.324 979.787 338.989 980.904 338.989H991.289ZM1330.21 338.989L1291.09 435H1279.43L1240.3 338.989H1250.69C1251.85 338.989 1252.78 339.279 1253.5 339.86C1254.21 340.441 1254.75 341.178 1255.11 342.071L1282.18 409.808C1282.76 411.327 1283.31 412.979 1283.85 414.766C1284.43 416.553 1284.94 418.429 1285.39 420.394C1285.84 418.429 1286.31 416.553 1286.8 414.766C1287.29 412.979 1287.83 411.327 1288.41 409.808L1315.41 342.071C1315.68 341.312 1316.19 340.619 1316.95 339.994C1317.75 339.324 1318.71 338.989 1319.83 338.989H1330.21ZM239.763 489.989L200.635 586H188.977L149.849 489.989H160.234C161.396 489.989 162.334 490.279 163.048 490.86C163.763 491.441 164.299 492.178 164.656 493.071L191.724 560.808C192.305 562.327 192.863 563.979 193.399 565.766C193.98 567.553 194.494 569.429 194.94 571.394C195.387 569.429 195.856 567.553 196.347 565.766C196.839 563.979 197.375 562.327 197.955 560.808L224.956 493.071C225.224 492.312 225.738 491.619 226.497 490.994C227.301 490.324 228.262 489.989 229.378 489.989H239.763ZM526.738 489.989L487.61 586H475.952L436.824 489.989H447.209C448.37 489.989 449.308 490.279 450.023 490.86C450.738 491.441 451.274 492.178 451.631 493.071L478.699 560.808C479.28 562.327 479.838 563.979 480.374 565.766C480.955 567.553 481.468 569.429 481.915 571.394C482.362 569.429 482.831 567.553 483.322 565.766C483.813 563.979 484.349 562.327 484.93 560.808L511.931 493.071C512.199 492.312 512.713 491.619 513.472 490.994C514.276 490.324 515.236 489.989 516.353 489.989H526.738ZM865.664 489.989L826.536 586H814.878L775.75 489.989H786.135C787.296 489.989 788.234 490.279 788.949 490.86C789.663 491.441 790.199 492.178 790.557 493.071L817.625 560.808C818.205 562.327 818.764 563.979 819.3 565.766C819.88 567.553 820.394 569.429 820.841 571.394C821.287 569.429 821.756 567.553 822.248 565.766C822.739 563.979 823.275 562.327 823.856 560.808L850.857 493.071C851.125 492.312 851.638 491.619 852.398 490.994C853.202 490.324 854.162 489.989 855.279 489.989H865.664ZM1191.9 489.989L1152.77 586H1141.11L1101.98 489.989H1112.37C1113.53 489.989 1114.47 490.279 1115.18 490.86C1115.9 491.441 1116.43 492.178 1116.79 493.071L1143.86 560.808C1144.44 562.327 1145 563.979 1145.53 565.766C1146.11 567.553 1146.63 569.429 1147.07 571.394C1147.52 569.429 1147.99 567.553 1148.48 565.766C1148.97 563.979 1149.51 562.327 1150.09 560.808L1177.09 493.071C1177.36 492.312 1177.87 491.619 1178.63 490.994C1179.43 490.324 1180.39 489.989 1181.51 489.989H1191.9ZM1282.58 489.989L1243.45 586H1231.8L1192.67 489.989H1203.05C1204.21 489.989 1205.15 490.279 1205.87 490.86C1206.58 491.441 1207.12 492.178 1207.47 493.071L1234.54 560.808C1235.12 562.327 1235.68 563.979 1236.22 565.766C1236.8 567.553 1237.31 569.429 1237.76 571.394C1238.21 569.429 1238.67 567.553 1239.17 565.766C1239.66 563.979 1240.19 562.327 1240.77 560.808L1267.77 493.071C1268.04 492.312 1268.56 491.619 1269.32 490.994C1270.12 490.324 1271.08 489.989 1272.2 489.989H1282.58ZM239.763 640.989L200.635 737H188.977L149.849 640.989H160.234C161.396 640.989 162.334 641.279 163.048 641.86C163.763 642.441 164.299 643.178 164.656 644.071L191.724 711.808C192.305 713.327 192.863 714.979 193.399 716.766C193.98 718.553 194.494 720.429 194.94 722.394C195.387 720.429 195.856 718.553 196.347 716.766C196.839 714.979 197.375 713.327 197.955 711.808L224.956 644.071C225.224 643.312 225.738 642.619 226.497 641.994C227.301 641.324 228.262 640.989 229.378 640.989H239.763ZM578.689 640.989L539.561 737H527.903L488.775 640.989H499.16C500.321 640.989 501.259 641.279 501.974 641.86C502.689 642.441 503.225 643.178 503.582 644.071L530.65 711.808C531.231 713.327 531.789 714.979 532.325 716.766C532.906 718.553 533.419 720.429 533.866 722.394C534.313 720.429 534.782 718.553 535.273 716.766C535.764 714.979 536.3 713.327 536.881 711.808L563.882 644.071C564.15 643.312 564.664 642.619 565.423 641.994C566.227 641.324 567.187 640.989 568.304 640.989H578.689ZM904.921 640.989L865.793 737H854.135L815.007 640.989H825.392C826.554 640.989 827.492 641.279 828.206 641.86C828.921 642.441 829.457 643.178 829.814 644.071L856.882 711.808C857.463 713.327 858.021 714.979 858.557 716.766C859.138 718.553 859.652 720.429 860.098 722.394C860.545 720.429 861.014 718.553 861.505 716.766C861.997 714.979 862.533 713.327 863.113 711.808L890.114 644.071C890.382 643.312 890.896 642.619 891.655 641.994C892.459 641.324 893.42 640.989 894.536 640.989H904.921ZM995.607 640.989L956.479 737H944.821L905.693 640.989H916.078C917.239 640.989 918.177 641.279 918.892 641.86C919.607 642.441 920.143 643.178 920.5 644.071L947.568 711.808C948.149 713.327 948.707 714.979 949.243 716.766C949.824 718.553 950.337 720.429 950.784 722.394C951.231 720.429 951.7 718.553 952.191 716.766C952.682 714.979 953.218 713.327 953.799 711.808L980.8 644.071C981.068 643.312 981.582 642.619 982.341 641.994C983.145 641.324 984.105 640.989 985.222 640.989H995.607ZM1369.47 640.989L1330.34 737H1318.69L1279.56 640.989H1289.94C1291.1 640.989 1292.04 641.279 1292.76 641.86C1293.47 642.441 1294.01 643.178 1294.37 644.071L1321.43 711.808C1322.01 713.327 1322.57 714.979 1323.11 716.766C1323.69 718.553 1324.2 720.429 1324.65 722.394C1325.1 720.429 1325.56 718.553 1326.06 716.766C1326.55 714.979 1327.08 713.327 1327.66 711.808L1354.67 644.071C1354.93 643.312 1355.45 642.619 1356.21 641.994C1357.01 641.324 1357.97 640.989 1359.09 640.989H1369.47ZM239.763 791.989L200.635 888H188.977L149.849 791.989H160.234C161.396 791.989 162.334 792.279 163.048 792.86C163.763 793.441 164.299 794.178 164.656 795.071L191.724 862.808C192.305 864.327 192.863 865.979 193.399 867.766C193.98 869.553 194.494 871.429 194.94 873.394C195.387 871.429 195.856 869.553 196.347 867.766C196.839 865.979 197.375 864.327 197.955 862.808L224.956 795.071C225.224 794.312 225.738 793.619 226.497 792.994C227.301 792.324 228.262 791.989 229.378 791.989H239.763ZM565.996 791.989L526.868 888H515.21L476.082 791.989H486.467C487.628 791.989 488.566 792.279 489.281 792.86C489.995 793.441 490.531 794.178 490.889 795.071L517.957 862.808C518.537 864.327 519.096 865.979 519.632 867.766C520.212 869.553 520.726 871.429 521.173 873.394C521.619 871.429 522.088 869.553 522.58 867.766C523.071 865.979 523.607 864.327 524.188 862.808L551.189 795.071C551.457 794.312 551.97 793.619 552.73 792.994C553.534 792.324 554.494 791.989 555.611 791.989H565.996ZM656.681 791.989L617.553 888H605.895L566.767 791.989H577.152C578.314 791.989 579.252 792.279 579.966 792.86C580.681 793.441 581.217 794.178 581.574 795.071L608.642 862.808C609.223 864.327 609.781 865.979 610.317 867.766C610.898 869.553 611.412 871.429 611.858 873.394C612.305 871.429 612.774 869.553 613.265 867.766C613.757 865.979 614.293 864.327 614.873 862.808L641.874 795.071C642.142 794.312 642.656 793.619 643.415 792.994C644.219 792.324 645.18 791.989 646.296 791.989H656.681ZM1030.55 791.989L991.418 888H979.76L940.632 791.989H951.017C952.179 791.989 953.117 792.279 953.831 792.86C954.546 793.441 955.082 794.178 955.439 795.071L982.507 862.808C983.088 864.327 983.646 865.979 984.182 867.766C984.763 869.553 985.277 871.429 985.723 873.394C986.17 871.429 986.639 869.553 987.13 867.766C987.622 865.979 988.158 864.327 988.738 862.808L1015.74 795.071C1016.01 794.312 1016.52 793.619 1017.28 792.994C1018.08 792.324 1019.04 791.989 1020.16 791.989H1030.55ZM1317.52 791.989L1278.39 888H1266.74L1227.61 791.989H1237.99C1239.15 791.989 1240.09 792.279 1240.81 792.86C1241.52 793.441 1242.06 794.178 1242.41 795.071L1269.48 862.808C1270.06 864.327 1270.62 865.979 1271.16 867.766C1271.74 869.553 1272.25 871.429 1272.7 873.394C1273.14 871.429 1273.61 869.553 1274.11 867.766C1274.6 865.979 1275.13 864.327 1275.71 862.808L1302.71 795.071C1302.98 794.312 1303.5 793.619 1304.26 792.994C1305.06 792.324 1306.02 791.989 1307.14 791.989H1317.52ZM239.763 942.989L200.635 1039H188.977L149.849 942.989H160.234C161.396 942.989 162.334 943.279 163.048 943.86C163.763 944.441 164.299 945.178 164.656 946.071L191.724 1013.81C192.305 1015.33 192.863 1016.98 193.399 1018.77C193.98 1020.55 194.494 1022.43 194.94 1024.39C195.387 1022.43 195.856 1020.55 196.347 1018.77C196.839 1016.98 197.375 1015.33 197.955 1013.81L224.956 946.071C225.224 945.312 225.738 944.619 226.497 943.994C227.301 943.324 228.262 942.989 229.378 942.989H239.763ZM330.449 942.989L291.321 1039H279.663L240.535 942.989H250.92C252.081 942.989 253.019 943.279 253.734 943.86C254.448 944.441 254.984 945.178 255.342 946.071L282.41 1013.81C282.99 1015.33 283.549 1016.98 284.085 1018.77C284.665 1020.55 285.179 1022.43 285.626 1024.39C286.072 1022.43 286.541 1020.55 287.033 1018.77C287.524 1016.98 288.06 1015.33 288.641 1013.81L315.642 946.071C315.91 945.312 316.423 944.619 317.183 943.994C317.987 943.324 318.947 942.989 320.064 942.989H330.449ZM704.314 942.989L665.186 1039H653.528L614.4 942.989H624.785C625.946 942.989 626.884 943.279 627.599 943.86C628.314 944.441 628.85 945.178 629.207 946.071L656.275 1013.81C656.856 1015.33 657.414 1016.98 657.95 1018.77C658.531 1020.55 659.044 1022.43 659.491 1024.39C659.938 1022.43 660.407 1020.55 660.898 1018.77C661.389 1016.98 661.925 1015.33 662.506 1013.81L689.507 946.071C689.775 945.312 690.289 944.619 691.048 943.994C691.852 943.324 692.812 942.989 693.929 942.989H704.314ZM991.289 942.989L952.161 1039H940.503L901.375 942.989H911.76C912.921 942.989 913.859 943.279 914.574 943.86C915.288 944.441 915.824 945.178 916.182 946.071L943.25 1013.81C943.83 1015.33 944.389 1016.98 944.925 1018.77C945.505 1020.55 946.019 1022.43 946.466 1024.39C946.912 1022.43 947.381 1020.55 947.873 1018.77C948.364 1016.98 948.9 1015.33 949.481 1013.81L976.482 946.071C976.75 945.312 977.263 944.619 978.023 943.994C978.827 943.324 979.787 942.989 980.904 942.989H991.289ZM1330.21 942.989L1291.09 1039H1279.43L1240.3 942.989H1250.69C1251.85 942.989 1252.78 943.279 1253.5 943.86C1254.21 944.441 1254.75 945.178 1255.11 946.071L1282.18 1013.81C1282.76 1015.33 1283.31 1016.98 1283.85 1018.77C1284.43 1020.55 1284.94 1022.43 1285.39 1024.39C1285.84 1022.43 1286.31 1020.55 1286.8 1018.77C1287.29 1016.98 1287.83 1015.33 1288.41 1013.81L1315.41 946.071C1315.68 945.312 1316.19 944.619 1316.95 943.994C1317.75 943.324 1318.71 942.989 1319.83 942.989H1330.21Z" fill="#F8F8F2"/>
</svg>
