<svg width="1440" height="1080" viewBox="0 0 1440 1080" fill="none" xmlns="http://www.w3.org/2000/svg">
<rect width="1440" height="1080" fill="#282923"/>
<path d="M313.42 302.528V261.92H296.356C296.068 267.8 295.66 272.96 295.132 277.4C294.604 281.84 293.98 285.692 293.26 288.956C292.54 292.22 291.736 294.956 290.848 297.164C289.96 299.348 289 301.136 287.968 302.528H313.42ZM328.864 302.528V318.476C328.864 319.1 328.66 319.604 328.252 319.988C327.844 320.372 327.304 320.564 326.632 320.564H322.492V308H280.912V318.476C280.912 319.1 280.696 319.604 280.264 319.988C279.856 320.372 279.328 320.564 278.68 320.564H274.504V302.528H279.76C280.504 302.168 281.248 301.592 281.992 300.8C282.736 299.984 283.444 298.832 284.116 297.344C284.812 295.832 285.46 293.936 286.06 291.656C286.66 289.376 287.2 286.592 287.68 283.304C288.184 279.992 288.616 276.128 288.976 271.712C289.336 267.296 289.612 262.196 289.804 256.412H320.44V302.528H328.864ZM357.906 285.788C357.906 284.3 357.69 282.944 357.258 281.72C356.85 280.472 356.238 279.404 355.422 278.516C354.63 277.604 353.658 276.908 352.506 276.428C351.354 275.924 350.046 275.672 348.582 275.672C345.51 275.672 343.074 276.572 341.274 278.372C339.498 280.148 338.394 282.62 337.962 285.788H357.906ZM363.09 302.888C362.298 303.848 361.35 304.688 360.246 305.408C359.142 306.104 357.954 306.68 356.682 307.136C355.434 307.592 354.138 307.928 352.794 308.144C351.45 308.384 350.118 308.504 348.798 308.504C346.278 308.504 343.95 308.084 341.814 307.244C339.702 306.38 337.866 305.132 336.306 303.5C334.77 301.844 333.57 299.804 332.706 297.38C331.842 294.956 331.41 292.172 331.41 289.028C331.41 286.484 331.794 284.108 332.562 281.9C333.354 279.692 334.482 277.784 335.946 276.176C337.41 274.544 339.198 273.272 341.31 272.36C343.422 271.424 345.798 270.956 348.438 270.956C350.622 270.956 352.638 271.328 354.486 272.072C356.358 272.792 357.966 273.848 359.31 275.24C360.678 276.608 361.746 278.312 362.514 280.352C363.282 282.368 363.666 284.672 363.666 287.264C363.666 288.272 363.558 288.944 363.342 289.28C363.126 289.616 362.718 289.784 362.118 289.784H337.746C337.818 292.088 338.13 294.092 338.682 295.796C339.258 297.5 340.05 298.928 341.058 300.08C342.066 301.208 343.266 302.06 344.658 302.636C346.05 303.188 347.61 303.464 349.338 303.464C350.946 303.464 352.326 303.284 353.478 302.924C354.654 302.54 355.662 302.132 356.502 301.7C357.342 301.268 358.038 300.872 358.59 300.512C359.166 300.128 359.658 299.936 360.066 299.936C360.594 299.936 361.002 300.14 361.29 300.548L363.09 302.888ZM393.677 273.332C394.013 272.804 394.457 272.372 395.009 272.036C395.561 271.7 396.149 271.532 396.773 271.532H401.777L392.309 285.428C391.733 286.316 391.133 287.048 390.509 287.624C389.885 288.176 389.117 288.608 388.205 288.92C389.357 289.232 390.329 289.724 391.121 290.396C391.913 291.044 392.621 291.884 393.245 292.916L402.821 308H398.357C397.205 308 396.317 307.808 395.693 307.424C395.069 307.04 394.529 306.488 394.073 305.768L386.981 294.428C385.853 292.556 384.161 291.62 381.905 291.62H377.981V308.036H371.537V271.532H377.981V287.3H381.437C383.357 287.3 384.857 286.484 385.937 284.852L393.677 273.332ZM440.771 308H434.363V276.572H422.843C422.555 281.204 422.123 285.212 421.547 288.596C420.971 291.956 420.275 294.824 419.459 297.2C418.667 299.552 417.767 301.472 416.759 302.96C415.775 304.424 414.731 305.564 413.627 306.38C412.547 307.196 411.419 307.748 410.243 308.036C409.091 308.324 407.939 308.468 406.787 308.468C404.747 308.468 403.727 308.144 403.727 307.496V303.428H405.599C406.415 303.428 407.243 303.284 408.083 302.996C408.923 302.708 409.739 302.156 410.531 301.34C411.347 300.524 412.127 299.384 412.871 297.92C413.615 296.432 414.287 294.512 414.887 292.16C415.511 289.784 416.039 286.916 416.471 283.556C416.927 280.172 417.275 276.164 417.515 271.532H440.771V308ZM470.684 291.584C467.732 291.68 465.212 291.92 463.124 292.304C461.06 292.664 459.368 293.144 458.048 293.744C456.752 294.344 455.804 295.052 455.204 295.868C454.628 296.684 454.34 297.596 454.34 298.604C454.34 299.564 454.496 300.392 454.808 301.088C455.12 301.784 455.54 302.36 456.068 302.816C456.62 303.248 457.256 303.572 457.976 303.788C458.72 303.98 459.512 304.076 460.352 304.076C461.48 304.076 462.512 303.968 463.448 303.752C464.384 303.512 465.26 303.176 466.076 302.744C466.916 302.312 467.708 301.796 468.452 301.196C469.22 300.596 469.964 299.912 470.684 299.144V291.584ZM449.984 276.68C452 274.736 454.172 273.284 456.5 272.324C458.828 271.364 461.408 270.884 464.24 270.884C466.28 270.884 468.092 271.22 469.676 271.892C471.26 272.564 472.592 273.5 473.672 274.7C474.752 275.9 475.568 277.352 476.12 279.056C476.672 280.76 476.948 282.632 476.948 284.672V308H474.104C473.48 308 473 307.904 472.664 307.712C472.328 307.496 472.064 307.088 471.872 306.488L471.152 303.032C470.192 303.92 469.256 304.712 468.344 305.408C467.432 306.08 466.472 306.656 465.464 307.136C464.456 307.592 463.376 307.94 462.224 308.18C461.096 308.444 459.836 308.576 458.444 308.576C457.028 308.576 455.696 308.384 454.448 308C453.2 307.592 452.108 306.992 451.172 306.2C450.26 305.408 449.528 304.412 448.976 303.212C448.448 301.988 448.184 300.548 448.184 298.892C448.184 297.452 448.58 296.072 449.372 294.752C450.164 293.408 451.448 292.22 453.224 291.188C455 290.156 457.316 289.316 460.172 288.668C463.028 287.996 466.532 287.612 470.684 287.516V284.672C470.684 281.84 470.072 279.704 468.848 278.264C467.624 276.8 465.836 276.068 463.484 276.068C461.9 276.068 460.568 276.272 459.488 276.68C458.432 277.064 457.508 277.508 456.716 278.012C455.948 278.492 455.276 278.936 454.7 279.344C454.148 279.728 453.596 279.92 453.044 279.92C452.612 279.92 452.24 279.812 451.928 279.596C451.616 279.356 451.352 279.068 451.136 278.732L449.984 276.68ZM493.153 299.216C494.329 300.8 495.613 301.916 497.005 302.564C498.397 303.212 499.957 303.536 501.685 303.536C505.093 303.536 507.709 302.324 509.533 299.9C511.357 297.476 512.269 294.02 512.269 289.532C512.269 287.156 512.053 285.116 511.621 283.412C511.213 281.708 510.613 280.316 509.821 279.236C509.029 278.132 508.057 277.328 506.905 276.824C505.753 276.32 504.445 276.068 502.981 276.068C500.893 276.068 499.057 276.548 497.473 277.508C495.913 278.468 494.473 279.824 493.153 281.576V299.216ZM492.829 277.184C494.365 275.288 496.141 273.764 498.157 272.612C500.173 271.46 502.477 270.884 505.069 270.884C507.181 270.884 509.089 271.292 510.793 272.108C512.497 272.9 513.949 274.088 515.149 275.672C516.349 277.232 517.273 279.176 517.921 281.504C518.569 283.832 518.893 286.508 518.893 289.532C518.893 292.22 518.533 294.728 517.813 297.056C517.093 299.36 516.049 301.364 514.681 303.068C513.337 304.748 511.681 306.08 509.713 307.064C507.769 308.024 505.573 308.504 503.125 308.504C500.893 308.504 498.973 308.132 497.365 307.388C495.781 306.62 494.377 305.564 493.153 304.22V320.348H486.709V271.532H490.561C491.473 271.532 492.037 271.976 492.253 272.864L492.829 277.184ZM546.762 291.584C543.81 291.68 541.29 291.92 539.202 292.304C537.138 292.664 535.446 293.144 534.126 293.744C532.83 294.344 531.882 295.052 531.282 295.868C530.706 296.684 530.418 297.596 530.418 298.604C530.418 299.564 530.574 300.392 530.886 301.088C531.198 301.784 531.618 302.36 532.146 302.816C532.698 303.248 533.334 303.572 534.054 303.788C534.798 303.98 535.59 304.076 536.43 304.076C537.558 304.076 538.59 303.968 539.526 303.752C540.462 303.512 541.338 303.176 542.154 302.744C542.994 302.312 543.786 301.796 544.53 301.196C545.298 300.596 546.042 299.912 546.762 299.144V291.584ZM526.062 276.68C528.078 274.736 530.25 273.284 532.578 272.324C534.906 271.364 537.486 270.884 540.318 270.884C542.358 270.884 544.17 271.22 545.754 271.892C547.338 272.564 548.67 273.5 549.75 274.7C550.83 275.9 551.646 277.352 552.198 279.056C552.75 280.76 553.026 282.632 553.026 284.672V308H550.182C549.558 308 549.078 307.904 548.742 307.712C548.406 307.496 548.142 307.088 547.95 306.488L547.23 303.032C546.27 303.92 545.334 304.712 544.422 305.408C543.51 306.08 542.55 306.656 541.542 307.136C540.534 307.592 539.454 307.94 538.302 308.18C537.174 308.444 535.914 308.576 534.522 308.576C533.106 308.576 531.774 308.384 530.526 308C529.278 307.592 528.186 306.992 527.25 306.2C526.338 305.408 525.606 304.412 525.054 303.212C524.526 301.988 524.262 300.548 524.262 298.892C524.262 297.452 524.658 296.072 525.45 294.752C526.242 293.408 527.526 292.22 529.302 291.188C531.078 290.156 533.394 289.316 536.25 288.668C539.106 287.996 542.61 287.612 546.762 287.516V284.672C546.762 281.84 546.15 279.704 544.926 278.264C543.702 276.8 541.914 276.068 539.562 276.068C537.978 276.068 536.646 276.272 535.566 276.68C534.51 277.064 533.586 277.508 532.794 278.012C532.026 278.492 531.354 278.936 530.778 279.344C530.226 279.728 529.674 279.92 529.122 279.92C528.69 279.92 528.318 279.812 528.006 279.596C527.694 279.356 527.43 279.068 527.214 278.732L526.062 276.68ZM592.185 276.428H578.181V308H571.773V276.428H557.769V271.532H592.185V276.428ZM629.579 271.532V308H623.171V283.232C623.171 282.752 623.195 282.236 623.243 281.684C623.291 281.132 623.351 280.58 623.423 280.028C623.207 280.508 622.991 280.952 622.775 281.36C622.559 281.768 622.331 282.14 622.091 282.476L604.487 306.416C604.223 306.8 603.887 307.172 603.479 307.532C603.095 307.868 602.663 308.036 602.183 308.036H598.295V271.568H604.739V296.336C604.739 296.792 604.715 297.296 604.667 297.848C604.619 298.376 604.559 298.916 604.487 299.468C604.703 299.012 604.919 298.592 605.135 298.208C605.351 297.8 605.567 297.428 605.783 297.092L623.387 273.152C623.651 272.768 623.987 272.408 624.395 272.072C624.803 271.712 625.247 271.532 625.727 271.532H629.579ZM653.713 303.5C656.113 303.5 658.009 302.948 659.401 301.844C660.793 300.716 661.489 299.18 661.489 297.236C661.489 296.372 661.357 295.592 661.093 294.896C660.829 294.176 660.397 293.552 659.797 293.024C659.197 292.496 658.393 292.088 657.385 291.8C656.401 291.512 655.189 291.368 653.749 291.368H645.865V303.5H653.713ZM645.865 275.852V287.3H652.885C653.941 287.3 654.913 287.156 655.801 286.868C656.713 286.556 657.493 286.136 658.141 285.608C658.789 285.056 659.293 284.408 659.653 283.664C660.013 282.896 660.193 282.056 660.193 281.144C660.193 280.472 660.073 279.824 659.833 279.2C659.593 278.552 659.185 277.988 658.609 277.508C658.033 277.004 657.277 276.608 656.341 276.32C655.405 276.008 654.253 275.852 652.885 275.852H645.865ZM653.065 271.532C655.321 271.532 657.253 271.76 658.861 272.216C660.469 272.672 661.789 273.296 662.821 274.088C663.853 274.856 664.609 275.768 665.089 276.824C665.569 277.88 665.809 279.008 665.809 280.208C665.809 281 665.701 281.828 665.485 282.692C665.269 283.556 664.885 284.384 664.333 285.176C663.805 285.968 663.073 286.688 662.137 287.336C661.225 287.96 660.073 288.452 658.681 288.812C661.465 289.292 663.613 290.264 665.125 291.728C666.637 293.168 667.393 295.076 667.393 297.452C667.393 299.228 667.033 300.776 666.313 302.096C665.617 303.392 664.645 304.484 663.397 305.372C662.173 306.26 660.733 306.92 659.077 307.352C657.421 307.784 655.645 308 653.749 308H639.709V271.532H653.065ZM705.812 271.532V308H699.368V290.936H681.872V308H675.428V271.532H681.872V286.076H699.368V271.532H705.812ZM731.37 270.956C734.034 270.956 736.434 271.4 738.57 272.288C740.706 273.176 742.53 274.436 744.042 276.068C745.554 277.7 746.706 279.68 747.498 282.008C748.314 284.312 748.722 286.892 748.722 289.748C748.722 292.628 748.314 295.22 747.498 297.524C746.706 299.828 745.554 301.796 744.042 303.428C742.53 305.06 740.706 306.32 738.57 307.208C736.434 308.072 734.034 308.504 731.37 308.504C728.682 308.504 726.258 308.072 724.098 307.208C721.962 306.32 720.138 305.06 718.626 303.428C717.114 301.796 715.95 299.828 715.134 297.524C714.342 295.22 713.946 292.628 713.946 289.748C713.946 286.892 714.342 284.312 715.134 282.008C715.95 279.68 717.114 277.7 718.626 276.068C720.138 274.436 721.962 273.176 724.098 272.288C726.258 271.4 728.682 270.956 731.37 270.956ZM731.37 303.5C734.97 303.5 737.658 302.3 739.434 299.9C741.21 297.476 742.098 294.104 742.098 289.784C742.098 285.44 741.21 282.056 739.434 279.632C737.658 277.208 734.97 275.996 731.37 275.996C729.546 275.996 727.95 276.308 726.582 276.932C725.238 277.556 724.11 278.456 723.198 279.632C722.31 280.808 721.638 282.26 721.182 283.988C720.75 285.692 720.534 287.624 720.534 289.784C720.534 294.104 721.422 297.476 723.198 299.9C724.998 302.3 727.722 303.5 731.37 303.5ZM782.229 278.012C782.037 278.276 781.845 278.48 781.653 278.624C781.461 278.768 781.197 278.84 780.861 278.84C780.501 278.84 780.105 278.696 779.673 278.408C779.241 278.096 778.701 277.76 778.053 277.4C777.429 277.04 776.649 276.716 775.713 276.428C774.801 276.116 773.673 275.96 772.329 275.96C770.529 275.96 768.945 276.284 767.577 276.932C766.209 277.556 765.057 278.468 764.121 279.668C763.209 280.868 762.513 282.32 762.033 284.024C761.577 285.728 761.349 287.636 761.349 289.748C761.349 291.956 761.601 293.924 762.105 295.652C762.609 297.356 763.317 298.796 764.229 299.972C765.165 301.124 766.281 302.012 767.577 302.636C768.897 303.236 770.373 303.536 772.005 303.536C773.565 303.536 774.849 303.356 775.857 302.996C776.865 302.612 777.693 302.192 778.341 301.736C779.013 301.28 779.565 300.872 779.997 300.512C780.453 300.128 780.897 299.936 781.329 299.936C781.857 299.936 782.265 300.14 782.553 300.548L784.353 302.888C783.561 303.872 782.661 304.712 781.653 305.408C780.645 306.104 779.553 306.692 778.377 307.172C777.225 307.628 776.013 307.964 774.741 308.18C773.469 308.396 772.173 308.504 770.853 308.504C768.573 308.504 766.449 308.084 764.481 307.244C762.537 306.404 760.845 305.192 759.405 303.608C757.965 302 756.837 300.032 756.021 297.704C755.205 295.376 754.797 292.724 754.797 289.748C754.797 287.036 755.169 284.528 755.913 282.224C756.681 279.92 757.785 277.94 759.225 276.284C760.689 274.604 762.477 273.296 764.589 272.36C766.725 271.424 769.173 270.956 771.933 270.956C774.501 270.956 776.757 271.376 778.701 272.216C780.669 273.032 782.409 274.196 783.921 275.708L782.229 278.012ZM821.544 276.428H807.54V308H801.132V276.428H787.128V271.532H821.544V276.428ZM841.658 303.32C842.954 303.32 844.07 303.164 845.006 302.852C845.966 302.516 846.758 302.06 847.382 301.484C848.006 300.884 848.474 300.188 848.786 299.396C849.098 298.604 849.254 297.74 849.254 296.804C849.254 295.94 849.122 295.136 848.858 294.392C848.594 293.624 848.15 292.952 847.526 292.376C846.926 291.8 846.134 291.344 845.15 291.008C844.166 290.672 842.966 290.504 841.55 290.504H833.81V303.32H841.658ZM841.55 285.824C844.07 285.824 846.182 286.124 847.886 286.724C849.614 287.324 850.994 288.128 852.026 289.136C853.082 290.144 853.838 291.308 854.294 292.628C854.75 293.948 854.978 295.316 854.978 296.732C854.978 298.364 854.69 299.876 854.114 301.268C853.538 302.636 852.686 303.824 851.558 304.832C850.43 305.816 849.038 306.596 847.382 307.172C845.726 307.724 843.818 308 841.658 308H827.654V271.532H833.81V285.824H841.55ZM316.804 427.344C317.188 427.344 317.524 427.5 317.812 427.812L320.584 430.8C318.472 433.248 315.904 435.156 312.88 436.524C309.88 437.892 306.244 438.576 301.972 438.576C298.276 438.576 294.916 437.94 291.892 436.668C288.868 435.372 286.288 433.572 284.152 431.268C282.016 428.94 280.36 426.156 279.184 422.916C278.008 419.676 277.42 416.112 277.42 412.224C277.42 408.336 278.032 404.772 279.256 401.532C280.48 398.292 282.196 395.508 284.404 393.18C286.636 390.852 289.3 389.052 292.396 387.78C295.492 386.484 298.912 385.836 302.656 385.836C306.328 385.836 309.568 386.424 312.376 387.6C315.184 388.776 317.656 390.372 319.792 392.388L317.488 395.592C317.344 395.832 317.152 396.036 316.912 396.204C316.696 396.348 316.396 396.42 316.012 396.42C315.58 396.42 315.052 396.192 314.428 395.736C313.804 395.256 312.988 394.728 311.98 394.152C310.972 393.576 309.712 393.06 308.2 392.604C306.688 392.124 304.828 391.884 302.62 391.884C299.956 391.884 297.52 392.352 295.312 393.288C293.104 394.2 291.196 395.532 289.588 397.284C288.004 399.036 286.768 401.172 285.88 403.692C284.992 406.212 284.548 409.056 284.548 412.224C284.548 415.44 285.004 418.308 285.916 420.828C286.852 423.348 288.112 425.484 289.696 427.236C291.304 428.964 293.188 430.284 295.348 431.196C297.532 432.108 299.884 432.564 302.404 432.564C303.94 432.564 305.32 432.48 306.544 432.312C307.792 432.12 308.932 431.832 309.964 431.448C311.02 431.064 311.992 430.584 312.88 430.008C313.792 429.408 314.692 428.7 315.58 427.884C315.988 427.524 316.396 427.344 316.804 427.344ZM358.243 401.532V438H351.835V413.232C351.835 412.752 351.859 412.236 351.907 411.684C351.955 411.132 352.015 410.58 352.087 410.028C351.871 410.508 351.655 410.952 351.439 411.36C351.223 411.768 350.995 412.14 350.755 412.476L333.151 436.416C332.887 436.8 332.551 437.172 332.143 437.532C331.759 437.868 331.327 438.036 330.847 438.036H326.959V401.568H333.403V426.336C333.403 426.792 333.379 427.296 333.331 427.848C333.283 428.376 333.223 428.916 333.151 429.468C333.367 429.012 333.583 428.592 333.799 428.208C334.015 427.8 334.231 427.428 334.447 427.092L352.051 403.152C352.315 402.768 352.651 402.408 353.059 402.072C353.467 401.712 353.911 401.532 354.391 401.532H358.243ZM398.757 401.532V438H392.313V420.936H374.817V438H368.373V401.532H374.817V416.076H392.313V401.532H398.757ZM439.255 406.428H425.251V438H418.843V406.428H404.839V401.532H439.255V406.428ZM464.778 421.584C461.826 421.68 459.306 421.92 457.218 422.304C455.154 422.664 453.462 423.144 452.142 423.744C450.846 424.344 449.898 425.052 449.298 425.868C448.722 426.684 448.434 427.596 448.434 428.604C448.434 429.564 448.59 430.392 448.902 431.088C449.214 431.784 449.634 432.36 450.162 432.816C450.714 433.248 451.35 433.572 452.07 433.788C452.814 433.98 453.606 434.076 454.446 434.076C455.574 434.076 456.606 433.968 457.542 433.752C458.478 433.512 459.354 433.176 460.17 432.744C461.01 432.312 461.802 431.796 462.546 431.196C463.314 430.596 464.058 429.912 464.778 429.144V421.584ZM444.078 406.68C446.094 404.736 448.266 403.284 450.594 402.324C452.922 401.364 455.502 400.884 458.334 400.884C460.374 400.884 462.186 401.22 463.77 401.892C465.354 402.564 466.686 403.5 467.766 404.7C468.846 405.9 469.662 407.352 470.214 409.056C470.766 410.76 471.042 412.632 471.042 414.672V438H468.198C467.574 438 467.094 437.904 466.758 437.712C466.422 437.496 466.158 437.088 465.966 436.488L465.246 433.032C464.286 433.92 463.35 434.712 462.438 435.408C461.526 436.08 460.566 436.656 459.558 437.136C458.55 437.592 457.47 437.94 456.318 438.18C455.19 438.444 453.93 438.576 452.538 438.576C451.122 438.576 449.79 438.384 448.542 438C447.294 437.592 446.202 436.992 445.266 436.2C444.354 435.408 443.622 434.412 443.07 433.212C442.542 431.988 442.278 430.548 442.278 428.892C442.278 427.452 442.674 426.072 443.466 424.752C444.258 423.408 445.542 422.22 447.318 421.188C449.094 420.156 451.41 419.316 454.266 418.668C457.122 417.996 460.626 417.612 464.778 417.516V414.672C464.778 411.84 464.166 409.704 462.942 408.264C461.718 406.8 459.93 406.068 457.578 406.068C455.994 406.068 454.662 406.272 453.582 406.68C452.526 407.064 451.602 407.508 450.81 408.012C450.042 408.492 449.37 408.936 448.794 409.344C448.242 409.728 447.69 409.92 447.138 409.92C446.706 409.92 446.334 409.812 446.022 409.596C445.71 409.356 445.446 409.068 445.229 408.732L444.078 406.68ZM502.943 403.332C503.279 402.804 503.723 402.372 504.275 402.036C504.827 401.7 505.415 401.532 506.039 401.532H511.043L501.575 415.428C500.999 416.316 500.399 417.048 499.775 417.624C499.151 418.176 498.383 418.608 497.471 418.92C498.623 419.232 499.595 419.724 500.387 420.396C501.179 421.044 501.887 421.884 502.511 422.916L512.087 438H507.623C506.471 438 505.583 437.808 504.959 437.424C504.335 437.04 503.795 436.488 503.339 435.768L496.247 424.428C495.119 422.556 493.427 421.62 491.171 421.62H487.247V438.036H480.803V401.532H487.247V417.3H490.703C492.623 417.3 494.123 416.484 495.203 414.852L502.943 403.332ZM542.042 408.012C541.85 408.276 541.658 408.48 541.466 408.624C541.274 408.768 541.01 408.84 540.674 408.84C540.314 408.84 539.918 408.696 539.486 408.408C539.054 408.096 538.514 407.76 537.866 407.4C537.242 407.04 536.462 406.716 535.526 406.428C534.614 406.116 533.486 405.96 532.142 405.96C530.342 405.96 528.758 406.284 527.39 406.932C526.022 407.556 524.87 408.468 523.934 409.668C523.022 410.868 522.326 412.32 521.846 414.024C521.39 415.728 521.162 417.636 521.162 419.748C521.162 421.956 521.414 423.924 521.918 425.652C522.422 427.356 523.13 428.796 524.042 429.972C524.978 431.124 526.094 432.012 527.39 432.636C528.71 433.236 530.186 433.536 531.818 433.536C533.378 433.536 534.662 433.356 535.67 432.996C536.678 432.612 537.506 432.192 538.154 431.736C538.826 431.28 539.378 430.872 539.81 430.512C540.266 430.128 540.71 429.936 541.142 429.936C541.67 429.936 542.078 430.14 542.366 430.548L544.166 432.888C543.374 433.872 542.474 434.712 541.466 435.408C540.458 436.104 539.366 436.692 538.19 437.172C537.038 437.628 535.826 437.964 534.554 438.18C533.282 438.396 531.986 438.504 530.666 438.504C528.386 438.504 526.262 438.084 524.294 437.244C522.35 436.404 520.658 435.192 519.218 433.608C517.778 432 516.65 430.032 515.834 427.704C515.018 425.376 514.61 422.724 514.61 419.748C514.61 417.036 514.982 414.528 515.726 412.224C516.494 409.92 517.598 407.94 519.038 406.284C520.502 404.604 522.29 403.296 524.402 402.36C526.538 401.424 528.986 400.956 531.746 400.956C534.314 400.956 536.57 401.376 538.514 402.216C540.482 403.032 542.222 404.196 543.734 405.708L542.042 408.012ZM582.329 401.532V438H575.921V413.232C575.921 412.752 575.945 412.236 575.993 411.684C576.041 411.132 576.101 410.58 576.173 410.028C575.957 410.508 575.741 410.952 575.525 411.36C575.309 411.768 575.081 412.14 574.841 412.476L557.237 436.416C556.973 436.8 556.637 437.172 556.229 437.532C555.845 437.868 555.413 438.036 554.933 438.036H551.045V401.568H557.489V426.336C557.489 426.792 557.465 427.296 557.417 427.848C557.369 428.376 557.309 428.916 557.237 429.468C557.453 429.012 557.669 428.592 557.885 428.208C558.101 427.8 558.317 427.428 558.533 427.092L576.137 403.152C576.401 402.768 576.737 402.408 577.145 402.072C577.553 401.712 577.997 401.532 578.477 401.532H582.329ZM617.839 408.012C617.647 408.276 617.455 408.48 617.263 408.624C617.071 408.768 616.807 408.84 616.471 408.84C616.111 408.84 615.715 408.696 615.283 408.408C614.851 408.096 614.311 407.76 613.663 407.4C613.039 407.04 612.259 406.716 611.323 406.428C610.411 406.116 609.283 405.96 607.939 405.96C606.139 405.96 604.555 406.284 603.187 406.932C601.819 407.556 600.667 408.468 599.731 409.668C598.819 410.868 598.123 412.32 597.643 414.024C597.187 415.728 596.959 417.636 596.959 419.748C596.959 421.956 597.211 423.924 597.715 425.652C598.219 427.356 598.927 428.796 599.839 429.972C600.775 431.124 601.891 432.012 603.187 432.636C604.507 433.236 605.983 433.536 607.615 433.536C609.175 433.536 610.459 433.356 611.467 432.996C612.475 432.612 613.303 432.192 613.951 431.736C614.623 431.28 615.175 430.872 615.607 430.512C616.063 430.128 616.507 429.936 616.939 429.936C617.467 429.936 617.875 430.14 618.163 430.548L619.963 432.888C619.171 433.872 618.271 434.712 617.263 435.408C616.255 436.104 615.163 436.692 613.987 437.172C612.835 437.628 611.623 437.964 610.351 438.18C609.079 438.396 607.783 438.504 606.463 438.504C604.183 438.504 602.059 438.084 600.091 437.244C598.147 436.404 596.455 435.192 595.015 433.608C593.575 432 592.447 430.032 591.631 427.704C590.815 425.376 590.407 422.724 590.407 419.748C590.407 417.036 590.779 414.528 591.523 412.224C592.291 409.92 593.395 407.94 594.835 406.284C596.299 404.604 598.087 403.296 600.199 402.36C602.335 401.424 604.783 400.956 607.543 400.956C610.111 400.956 612.367 401.376 614.311 402.216C616.279 403.032 618.019 404.196 619.531 405.708L617.839 408.012ZM316.804 556.344C317.188 556.344 317.524 556.5 317.812 556.812L320.584 559.8C318.472 562.248 315.904 564.156 312.88 565.524C309.88 566.892 306.244 567.576 301.972 567.576C298.276 567.576 294.916 566.94 291.892 565.668C288.868 564.372 286.288 562.572 284.152 560.268C282.016 557.94 280.36 555.156 279.184 551.916C278.008 548.676 277.42 545.112 277.42 541.224C277.42 537.336 278.032 533.772 279.256 530.532C280.48 527.292 282.196 524.508 284.404 522.18C286.636 519.852 289.3 518.052 292.396 516.78C295.492 515.484 298.912 514.836 302.656 514.836C306.328 514.836 309.568 515.424 312.376 516.6C315.184 517.776 317.656 519.372 319.792 521.388L317.488 524.592C317.344 524.832 317.152 525.036 316.912 525.204C316.696 525.348 316.396 525.42 316.012 525.42C315.58 525.42 315.052 525.192 314.428 524.736C313.804 524.256 312.988 523.728 311.98 523.152C310.972 522.576 309.712 522.06 308.2 521.604C306.688 521.124 304.828 520.884 302.62 520.884C299.956 520.884 297.52 521.352 295.312 522.288C293.104 523.2 291.196 524.532 289.588 526.284C288.004 528.036 286.768 530.172 285.88 532.692C284.992 535.212 284.548 538.056 284.548 541.224C284.548 544.44 285.004 547.308 285.916 549.828C286.852 552.348 288.112 554.484 289.696 556.236C291.304 557.964 293.188 559.284 295.348 560.196C297.532 561.108 299.884 561.564 302.404 561.564C303.94 561.564 305.32 561.48 306.544 561.312C307.792 561.12 308.932 560.832 309.964 560.448C311.02 560.064 311.992 559.584 312.88 559.008C313.792 558.408 314.692 557.7 315.58 556.884C315.988 556.524 316.396 556.344 316.804 556.344ZM341.839 529.956C344.503 529.956 346.903 530.4 349.039 531.288C351.175 532.176 352.999 533.436 354.511 535.068C356.023 536.7 357.175 538.68 357.967 541.008C358.783 543.312 359.191 545.892 359.191 548.748C359.191 551.628 358.783 554.22 357.967 556.524C357.175 558.828 356.023 560.796 354.511 562.428C352.999 564.06 351.175 565.32 349.039 566.208C346.903 567.072 344.503 567.504 341.839 567.504C339.151 567.504 336.727 567.072 334.567 566.208C332.431 565.32 330.607 564.06 329.095 562.428C327.583 560.796 326.419 558.828 325.603 556.524C324.811 554.22 324.415 551.628 324.415 548.748C324.415 545.892 324.811 543.312 325.603 541.008C326.419 538.68 327.583 536.7 329.095 535.068C330.607 533.436 332.431 532.176 334.567 531.288C336.727 530.4 339.151 529.956 341.839 529.956ZM341.839 562.5C345.439 562.5 348.127 561.3 349.903 558.9C351.679 556.476 352.567 553.104 352.567 548.784C352.567 544.44 351.679 541.056 349.903 538.632C348.127 536.208 345.439 534.996 341.839 534.996C340.015 534.996 338.419 535.308 337.051 535.932C335.707 536.556 334.579 537.456 333.667 538.632C332.779 539.808 332.107 541.26 331.651 542.988C331.219 544.692 331.003 546.624 331.003 548.784C331.003 553.104 331.891 556.476 333.667 558.9C335.467 561.3 338.191 562.5 341.839 562.5ZM392.698 537.012C392.506 537.276 392.314 537.48 392.122 537.624C391.93 537.768 391.666 537.84 391.33 537.84C390.97 537.84 390.574 537.696 390.142 537.408C389.71 537.096 389.17 536.76 388.522 536.4C387.898 536.04 387.118 535.716 386.182 535.428C385.27 535.116 384.142 534.96 382.798 534.96C380.998 534.96 379.414 535.284 378.046 535.932C376.678 536.556 375.526 537.468 374.59 538.668C373.678 539.868 372.982 541.32 372.502 543.024C372.046 544.728 371.818 546.636 371.818 548.748C371.818 550.956 372.07 552.924 372.574 554.652C373.078 556.356 373.786 557.796 374.698 558.972C375.634 560.124 376.75 561.012 378.046 561.636C379.366 562.236 380.842 562.536 382.474 562.536C384.034 562.536 385.318 562.356 386.326 561.996C387.334 561.612 388.162 561.192 388.81 560.736C389.482 560.28 390.034 559.872 390.466 559.512C390.922 559.128 391.366 558.936 391.798 558.936C392.326 558.936 392.734 559.14 393.022 559.548L394.822 561.888C394.03 562.872 393.13 563.712 392.122 564.408C391.114 565.104 390.022 565.692 388.846 566.172C387.694 566.628 386.482 566.964 385.21 567.18C383.938 567.396 382.642 567.504 381.322 567.504C379.042 567.504 376.918 567.084 374.95 566.244C373.006 565.404 371.314 564.192 369.874 562.608C368.434 561 367.306 559.032 366.49 556.704C365.674 554.376 365.266 551.724 365.266 548.748C365.266 546.036 365.638 543.528 366.382 541.224C367.15 538.92 368.254 536.94 369.694 535.284C371.158 533.604 372.946 532.296 375.058 531.36C377.194 530.424 379.642 529.956 382.402 529.956C384.97 529.956 387.226 530.376 389.17 531.216C391.138 532.032 392.878 533.196 394.39 534.708L392.698 537.012ZM432.013 535.428H418.009V567H411.601V535.428H397.597V530.532H432.013V535.428ZM452.018 529.956C454.682 529.956 457.082 530.4 459.218 531.288C461.354 532.176 463.178 533.436 464.69 535.068C466.202 536.7 467.354 538.68 468.146 541.008C468.962 543.312 469.37 545.892 469.37 548.748C469.37 551.628 468.962 554.22 468.146 556.524C467.354 558.828 466.202 560.796 464.69 562.428C463.178 564.06 461.354 565.32 459.218 566.208C457.082 567.072 454.682 567.504 452.018 567.504C449.33 567.504 446.906 567.072 444.746 566.208C442.61 565.32 440.786 564.06 439.274 562.428C437.762 560.796 436.598 558.828 435.782 556.524C434.99 554.22 434.594 551.628 434.594 548.748C434.594 545.892 434.99 543.312 435.782 541.008C436.598 538.68 437.762 536.7 439.274 535.068C440.786 533.436 442.61 532.176 444.746 531.288C446.906 530.4 449.33 529.956 452.018 529.956ZM452.018 562.5C455.618 562.5 458.306 561.3 460.082 558.9C461.858 556.476 462.746 553.104 462.746 548.784C462.746 544.44 461.858 541.056 460.082 538.632C458.306 536.208 455.618 534.996 452.018 534.996C450.194 534.996 448.598 535.308 447.23 535.932C445.886 536.556 444.758 537.456 443.846 538.632C442.958 539.808 442.286 541.26 441.83 542.988C441.398 544.692 441.182 546.624 441.182 548.784C441.182 553.104 442.07 556.476 443.846 558.9C445.646 561.3 448.37 562.5 452.018 562.5ZM496.334 547.56V534.852H490.214C488.846 534.852 487.694 535.056 486.758 535.464C485.822 535.848 485.066 536.352 484.49 536.976C483.938 537.576 483.542 538.26 483.302 539.028C483.062 539.772 482.942 540.516 482.942 541.26C482.942 543.228 483.662 544.776 485.102 545.904C486.542 547.008 488.51 547.56 491.006 547.56H496.334ZM502.454 530.532V567H496.334V551.628H493.526C492.854 551.628 492.29 551.688 491.834 551.808C491.402 551.904 491.018 552.048 490.682 552.24C490.37 552.432 490.094 552.684 489.854 552.996C489.614 553.284 489.362 553.62 489.098 554.004L481.106 564.768C480.698 565.536 480.194 566.1 479.594 566.46C479.018 566.82 478.166 567 477.038 567H472.574L483.158 553.248C484.022 551.808 485.162 550.848 486.578 550.368C484.73 550.128 483.17 549.696 481.898 549.072C480.626 548.448 479.582 547.716 478.766 546.876C477.974 546.012 477.398 545.064 477.038 544.032C476.678 543 476.498 541.956 476.498 540.9C476.498 539.652 476.738 538.404 477.218 537.156C477.722 535.908 478.514 534.804 479.594 533.844C480.674 532.86 482.066 532.068 483.77 531.468C485.498 530.844 487.586 530.532 490.034 530.532H502.454ZM543.038 530.532V567H536.594V549.936H519.098V567H512.654V530.532H519.098V545.076H536.594V530.532H543.038ZM584.508 530.532V567H578.1V542.232C578.1 541.752 578.124 541.236 578.172 540.684C578.22 540.132 578.28 539.58 578.352 539.028C578.136 539.508 577.92 539.952 577.704 540.36C577.488 540.768 577.26 541.14 577.02 541.476L559.416 565.416C559.152 565.8 558.816 566.172 558.408 566.532C558.024 566.868 557.592 567.036 557.112 567.036H553.224V530.568H559.668V555.336C559.668 555.792 559.644 556.296 559.596 556.848C559.548 557.376 559.488 557.916 559.416 558.468C559.632 558.012 559.848 557.592 560.064 557.208C560.28 556.8 560.496 556.428 560.712 556.092L578.316 532.152C578.58 531.768 578.916 531.408 579.324 531.072C579.732 530.712 580.176 530.532 580.656 530.532H584.508ZM619.047 544.788C619.047 543.3 618.831 541.944 618.399 540.72C617.991 539.472 617.379 538.404 616.563 537.516C615.771 536.604 614.799 535.908 613.647 535.428C612.495 534.924 611.187 534.672 609.723 534.672C606.651 534.672 604.215 535.572 602.415 537.372C600.639 539.148 599.535 541.62 599.103 544.788H619.047ZM624.231 561.888C623.439 562.848 622.491 563.688 621.387 564.408C620.283 565.104 619.095 565.68 617.823 566.136C616.575 566.592 615.279 566.928 613.935 567.144C612.591 567.384 611.259 567.504 609.939 567.504C607.419 567.504 605.091 567.084 602.955 566.244C600.843 565.38 599.007 564.132 597.447 562.5C595.911 560.844 594.711 558.804 593.847 556.38C592.983 553.956 592.551 551.172 592.551 548.028C592.551 545.484 592.935 543.108 593.703 540.9C594.495 538.692 595.623 536.784 597.087 535.176C598.551 533.544 600.339 532.272 602.451 531.36C604.563 530.424 606.939 529.956 609.579 529.956C611.763 529.956 613.779 530.328 615.627 531.072C617.499 531.792 619.107 532.848 620.451 534.24C621.819 535.608 622.887 537.312 623.655 539.352C624.423 541.368 624.807 543.672 624.807 546.264C624.807 547.272 624.699 547.944 624.483 548.28C624.267 548.616 623.859 548.784 623.259 548.784H598.887C598.959 551.088 599.271 553.092 599.823 554.796C600.399 556.5 601.191 557.928 602.199 559.08C603.207 560.208 604.407 561.06 605.799 561.636C607.191 562.188 608.751 562.464 610.479 562.464C612.087 562.464 613.467 562.284 614.619 561.924C615.795 561.54 616.803 561.132 617.643 560.7C618.483 560.268 619.179 559.872 619.731 559.512C620.307 559.128 620.799 558.936 621.207 558.936C621.735 558.936 622.143 559.14 622.431 559.548L624.231 561.888ZM321.772 697H315.508C314.812 697 314.212 696.82 313.708 696.46C313.228 696.076 312.772 695.524 312.34 694.804L298.696 675.904C298.072 674.968 297.4 674.32 296.68 673.96C295.96 673.576 294.976 673.384 293.728 673.384H287.536V697H280.588V645.412H287.536V668.02H292.9C293.98 668.02 294.892 667.852 295.636 667.516C296.404 667.18 297.16 666.52 297.904 665.536L311.404 647.392C311.764 646.816 312.196 646.348 312.7 645.988C313.228 645.604 313.84 645.412 314.536 645.412H320.404L304.816 666.616C303.64 668.272 302.128 669.412 300.28 670.036C301.552 670.372 302.62 670.912 303.484 671.656C304.372 672.376 305.212 673.384 306.004 674.68L321.772 697ZM340.011 659.956C342.675 659.956 345.075 660.4 347.211 661.288C349.347 662.176 351.171 663.436 352.683 665.068C354.195 666.7 355.347 668.68 356.139 671.008C356.955 673.312 357.363 675.892 357.363 678.748C357.363 681.628 356.955 684.22 356.139 686.524C355.347 688.828 354.195 690.796 352.683 692.428C351.171 694.06 349.347 695.32 347.211 696.208C345.075 697.072 342.675 697.504 340.011 697.504C337.323 697.504 334.899 697.072 332.739 696.208C330.603 695.32 328.779 694.06 327.267 692.428C325.755 690.796 324.591 688.828 323.775 686.524C322.983 684.22 322.587 681.628 322.587 678.748C322.587 675.892 322.983 673.312 323.775 671.008C324.591 668.68 325.755 666.7 327.267 665.068C328.779 663.436 330.603 662.176 332.739 661.288C334.899 660.4 337.323 659.956 340.011 659.956ZM340.011 692.5C343.611 692.5 346.299 691.3 348.075 688.9C349.851 686.476 350.739 683.104 350.739 678.784C350.739 674.44 349.851 671.056 348.075 668.632C346.299 666.208 343.611 664.996 340.011 664.996C338.187 664.996 336.591 665.308 335.223 665.932C333.879 666.556 332.751 667.456 331.839 668.632C330.951 669.808 330.279 671.26 329.823 672.988C329.391 674.692 329.175 676.624 329.175 678.784C329.175 683.104 330.063 686.476 331.839 688.9C333.639 691.3 336.363 692.5 340.011 692.5ZM406.134 660.424V697H400.338V672.772C400.338 672.1 400.374 671.356 400.446 670.54C400.542 669.7 400.662 668.92 400.806 668.2L388.134 690.412C387.942 690.772 387.69 691.06 387.378 691.276C387.066 691.492 386.706 691.6 386.298 691.6H385.578C385.17 691.6 384.798 691.492 384.462 691.276C384.15 691.06 383.898 690.772 383.706 690.412L370.818 668.128C370.938 668.848 371.046 669.64 371.142 670.504C371.238 671.344 371.286 672.1 371.286 672.772V697H365.49V660.424H370.638C371.094 660.424 371.538 660.532 371.97 660.748C372.402 660.94 372.774 661.312 373.086 661.864L384.462 680.872C385.014 681.976 385.506 683.14 385.938 684.364C386.346 683.092 386.826 681.928 387.378 680.872L398.538 661.864C398.85 661.288 399.222 660.904 399.654 660.712C400.086 660.52 400.53 660.424 400.986 660.424H406.134ZM446.64 697H440.196V665.428H422.7V697H416.256V660.532H446.64V697ZM472.198 659.956C474.862 659.956 477.262 660.4 479.398 661.288C481.534 662.176 483.358 663.436 484.87 665.068C486.382 666.7 487.534 668.68 488.326 671.008C489.142 673.312 489.55 675.892 489.55 678.748C489.55 681.628 489.142 684.22 488.326 686.524C487.534 688.828 486.382 690.796 484.87 692.428C483.358 694.06 481.534 695.32 479.398 696.208C477.262 697.072 474.862 697.504 472.198 697.504C469.51 697.504 467.086 697.072 464.926 696.208C462.79 695.32 460.966 694.06 459.454 692.428C457.942 690.796 456.778 688.828 455.962 686.524C455.17 684.22 454.774 681.628 454.774 678.748C454.774 675.892 455.17 673.312 455.962 671.008C456.778 668.68 457.942 666.7 459.454 665.068C460.966 663.436 462.79 662.176 464.926 661.288C467.086 660.4 469.51 659.956 472.198 659.956ZM472.198 692.5C475.798 692.5 478.486 691.3 480.262 688.9C482.038 686.476 482.926 683.104 482.926 678.784C482.926 674.44 482.038 671.056 480.262 668.632C478.486 666.208 475.798 664.996 472.198 664.996C470.374 664.996 468.778 665.308 467.41 665.932C466.066 666.556 464.938 667.456 464.026 668.632C463.138 669.808 462.466 671.26 462.01 672.988C461.578 674.692 461.362 676.624 461.362 678.784C461.362 683.104 462.25 686.476 464.026 688.9C465.826 691.3 468.55 692.5 472.198 692.5ZM494.67 664.276C496.038 662.98 497.694 661.936 499.638 661.144C501.606 660.352 503.97 659.956 506.73 659.956C508.938 659.956 510.882 660.232 512.562 660.784C514.242 661.312 515.646 662.02 516.774 662.908C517.926 663.796 518.79 664.816 519.366 665.968C519.966 667.096 520.266 668.272 520.266 669.496C520.266 670.216 520.146 670.972 519.906 671.764C519.69 672.556 519.318 673.312 518.79 674.032C518.262 674.752 517.578 675.424 516.738 676.048C515.898 676.672 514.854 677.176 513.606 677.56C515.934 678.256 517.758 679.372 519.078 680.908C520.422 682.444 521.094 684.328 521.094 686.56C521.094 688.24 520.71 689.764 519.942 691.132C519.174 692.476 518.142 693.628 516.846 694.588C515.55 695.524 514.038 696.244 512.31 696.748C510.606 697.252 508.818 697.504 506.946 697.504C505.77 697.504 504.57 697.396 503.346 697.18C502.146 696.964 500.97 696.628 499.818 696.172C498.666 695.692 497.574 695.104 496.542 694.408C495.534 693.712 494.634 692.872 493.842 691.888L495.642 689.548C495.93 689.14 496.338 688.936 496.866 688.936C497.298 688.936 497.754 689.128 498.234 689.512C498.738 689.872 499.35 690.28 500.07 690.736C500.79 691.192 501.666 691.612 502.698 691.996C503.754 692.356 505.038 692.536 506.55 692.536C507.87 692.536 509.046 692.38 510.078 692.068C511.134 691.732 512.022 691.276 512.742 690.7C513.462 690.124 514.014 689.44 514.398 688.648C514.782 687.856 514.974 686.992 514.974 686.056C514.974 684.256 514.218 682.804 512.706 681.7C511.218 680.596 508.95 680.044 505.902 680.044H501.762V675.796H505.902C507.222 675.796 508.41 675.664 509.466 675.4C510.522 675.112 511.422 674.728 512.166 674.248C512.91 673.768 513.474 673.192 513.858 672.52C514.242 671.824 514.434 671.08 514.434 670.288C514.434 669.568 514.266 668.884 513.93 668.236C513.618 667.588 513.126 667.024 512.454 666.544C511.806 666.064 510.99 665.68 510.006 665.392C509.022 665.104 507.87 664.96 506.55 664.96C505.11 664.96 503.886 665.104 502.878 665.392C501.894 665.68 501.054 665.992 500.358 666.328C499.686 666.664 499.134 666.976 498.702 667.264C498.27 667.552 497.898 667.696 497.586 667.696C497.274 667.696 497.01 667.636 496.794 667.516C496.602 667.396 496.386 667.144 496.146 666.76L494.67 664.276ZM560.602 660.532V697H554.194V672.232C554.194 671.752 554.218 671.236 554.266 670.684C554.314 670.132 554.374 669.58 554.446 669.028C554.23 669.508 554.014 669.952 553.798 670.36C553.582 670.768 553.354 671.14 553.114 671.476L535.51 695.416C535.246 695.8 534.91 696.172 534.502 696.532C534.118 696.868 533.686 697.036 533.206 697.036H529.318V660.568H535.762V685.336C535.762 685.792 535.738 686.296 535.69 686.848C535.642 687.376 535.582 687.916 535.51 688.468C535.726 688.012 535.942 687.592 536.158 687.208C536.374 686.8 536.59 686.428 536.806 686.092L554.41 662.152C554.674 661.768 555.01 661.408 555.418 661.072C555.826 660.712 556.27 660.532 556.75 660.532H560.602ZM607.776 692.14V707.584C607.776 708.208 607.596 708.688 607.236 709.024C606.9 709.384 606.456 709.564 605.904 709.564H601.98V697H570.732V660.532H577.176V692.14H594.672V660.532H601.116V692.14H607.776ZM645.54 660.532V697H639.132V672.232C639.132 671.752 639.156 671.236 639.204 670.684C639.252 670.132 639.312 669.58 639.384 669.028C639.168 669.508 638.952 669.952 638.736 670.36C638.52 670.768 638.292 671.14 638.052 671.476L620.448 695.416C620.184 695.8 619.848 696.172 619.44 696.532C619.056 696.868 618.624 697.036 618.144 697.036H614.256V660.568H620.7V685.336C620.7 685.792 620.676 686.296 620.628 686.848C620.58 687.376 620.52 687.916 620.448 688.468C620.664 688.012 620.88 687.592 621.096 687.208C621.312 686.8 621.528 686.428 621.744 686.092L639.348 662.152C639.612 661.768 639.948 661.408 640.356 661.072C640.764 660.712 641.208 660.532 641.688 660.532H645.54ZM674.858 677.56V664.852H668.738C667.37 664.852 666.218 665.056 665.282 665.464C664.346 665.848 663.59 666.352 663.014 666.976C662.462 667.576 662.066 668.26 661.826 669.028C661.586 669.772 661.466 670.516 661.466 671.26C661.466 673.228 662.186 674.776 663.626 675.904C665.066 677.008 667.034 677.56 669.53 677.56H674.858ZM680.978 660.532V697H674.858V681.628H672.05C671.378 681.628 670.814 681.688 670.358 681.808C669.926 681.904 669.542 682.048 669.206 682.24C668.894 682.432 668.618 682.684 668.378 682.996C668.138 683.284 667.886 683.62 667.622 684.004L659.63 694.768C659.222 695.536 658.718 696.1 658.118 696.46C657.542 696.82 656.69 697 655.562 697H651.098L661.682 683.248C662.546 681.808 663.686 680.848 665.102 680.368C663.254 680.128 661.694 679.696 660.422 679.072C659.15 678.448 658.106 677.716 657.29 676.876C656.498 676.012 655.922 675.064 655.562 674.032C655.202 673 655.022 671.956 655.022 670.9C655.022 669.652 655.262 668.404 655.742 667.156C656.246 665.908 657.038 664.804 658.118 663.844C659.198 662.86 660.59 662.068 662.294 661.468C664.022 660.844 666.11 660.532 668.558 660.532H680.978Z" fill="#F8F8F2"/>
<path d="M315.472 781.28H298.768V827H291.82V781.28H275.08V775.412H315.472V781.28ZM344.954 790.532V827H338.546V802.232C338.546 801.752 338.57 801.236 338.618 800.684C338.666 800.132 338.726 799.58 338.798 799.028C338.582 799.508 338.366 799.952 338.15 800.36C337.934 800.768 337.706 801.14 337.466 801.476L319.862 825.416C319.598 825.8 319.262 826.172 318.854 826.532C318.47 826.868 318.038 827.036 317.558 827.036H313.67V790.568H320.114V815.336C320.114 815.792 320.09 816.296 320.042 816.848C319.994 817.376 319.934 817.916 319.862 818.468C320.078 818.012 320.294 817.592 320.51 817.208C320.726 816.8 320.942 816.428 321.158 816.092L338.762 792.152C339.026 791.768 339.362 791.408 339.77 791.072C340.178 790.712 340.622 790.532 341.102 790.532H344.954ZM385.468 827H379.024V795.428H361.528V827H355.084V790.532H385.468V827ZM426.938 790.532V827H420.53V802.232C420.53 801.752 420.554 801.236 420.602 800.684C420.65 800.132 420.71 799.58 420.782 799.028C420.566 799.508 420.35 799.952 420.134 800.36C419.918 800.768 419.69 801.14 419.45 801.476L401.846 825.416C401.582 825.8 401.246 826.172 400.838 826.532C400.454 826.868 400.022 827.036 399.542 827.036H395.654V790.568H402.098V815.336C402.098 815.792 402.074 816.296 402.026 816.848C401.978 817.376 401.918 817.916 401.846 818.468C402.062 818.012 402.278 817.592 402.494 817.208C402.71 816.8 402.926 816.428 403.142 816.092L420.746 792.152C421.01 791.768 421.346 791.408 421.754 791.072C422.162 790.712 422.606 790.532 423.086 790.532H426.938ZM434.764 794.276C436.132 792.98 437.788 791.936 439.732 791.144C441.7 790.352 444.064 789.956 446.824 789.956C449.032 789.956 450.976 790.232 452.656 790.784C454.336 791.312 455.74 792.02 456.868 792.908C458.02 793.796 458.884 794.816 459.46 795.968C460.06 797.096 460.36 798.272 460.36 799.496C460.36 800.216 460.24 800.972 460 801.764C459.784 802.556 459.412 803.312 458.884 804.032C458.356 804.752 457.672 805.424 456.832 806.048C455.992 806.672 454.948 807.176 453.7 807.56C456.028 808.256 457.852 809.372 459.172 810.908C460.516 812.444 461.188 814.328 461.188 816.56C461.188 818.24 460.804 819.764 460.036 821.132C459.268 822.476 458.236 823.628 456.94 824.588C455.644 825.524 454.132 826.244 452.404 826.748C450.7 827.252 448.912 827.504 447.04 827.504C445.864 827.504 444.664 827.396 443.44 827.18C442.24 826.964 441.064 826.628 439.912 826.172C438.76 825.692 437.668 825.104 436.636 824.408C435.628 823.712 434.728 822.872 433.936 821.888L435.736 819.548C436.024 819.14 436.432 818.936 436.96 818.936C437.392 818.936 437.848 819.128 438.328 819.512C438.832 819.872 439.444 820.28 440.164 820.736C440.884 821.192 441.76 821.612 442.792 821.996C443.848 822.356 445.132 822.536 446.644 822.536C447.964 822.536 449.14 822.38 450.172 822.068C451.228 821.732 452.116 821.276 452.836 820.7C453.556 820.124 454.108 819.44 454.492 818.648C454.876 817.856 455.068 816.992 455.068 816.056C455.068 814.256 454.312 812.804 452.8 811.7C451.312 810.596 449.044 810.044 445.996 810.044H441.856V805.796H445.996C447.316 805.796 448.504 805.664 449.56 805.4C450.616 805.112 451.516 804.728 452.26 804.248C453.004 803.768 453.568 803.192 453.952 802.52C454.336 801.824 454.528 801.08 454.528 800.288C454.528 799.568 454.36 798.884 454.024 798.236C453.712 797.588 453.22 797.024 452.548 796.544C451.9 796.064 451.084 795.68 450.1 795.392C449.116 795.104 447.964 794.96 446.644 794.96C445.204 794.96 443.98 795.104 442.972 795.392C441.988 795.68 441.148 795.992 440.452 796.328C439.78 796.664 439.228 796.976 438.796 797.264C438.364 797.552 437.992 797.696 437.68 797.696C437.368 797.696 437.104 797.636 436.888 797.516C436.696 797.396 436.48 797.144 436.24 796.76L434.764 794.276ZM489.176 810.584C486.224 810.68 483.704 810.92 481.616 811.304C479.552 811.664 477.86 812.144 476.54 812.744C475.244 813.344 474.296 814.052 473.696 814.868C473.12 815.684 472.832 816.596 472.832 817.604C472.832 818.564 472.988 819.392 473.3 820.088C473.612 820.784 474.032 821.36 474.56 821.816C475.112 822.248 475.748 822.572 476.468 822.788C477.212 822.98 478.004 823.076 478.844 823.076C479.972 823.076 481.004 822.968 481.94 822.752C482.876 822.512 483.752 822.176 484.568 821.744C485.408 821.312 486.2 820.796 486.944 820.196C487.712 819.596 488.456 818.912 489.176 818.144V810.584ZM468.476 795.68C470.492 793.736 472.664 792.284 474.992 791.324C477.32 790.364 479.9 789.884 482.732 789.884C484.772 789.884 486.584 790.22 488.168 790.892C489.752 791.564 491.084 792.5 492.164 793.7C493.244 794.9 494.06 796.352 494.612 798.056C495.164 799.76 495.44 801.632 495.44 803.672V827H492.596C491.972 827 491.492 826.904 491.156 826.712C490.82 826.496 490.556 826.088 490.364 825.488L489.644 822.032C488.684 822.92 487.748 823.712 486.836 824.408C485.924 825.08 484.964 825.656 483.956 826.136C482.948 826.592 481.868 826.94 480.716 827.18C479.588 827.444 478.328 827.576 476.936 827.576C475.52 827.576 474.188 827.384 472.94 827C471.692 826.592 470.6 825.992 469.664 825.2C468.752 824.408 468.02 823.412 467.468 822.212C466.94 820.988 466.676 819.548 466.676 817.892C466.676 816.452 467.072 815.072 467.864 813.752C468.656 812.408 469.94 811.22 471.716 810.188C473.492 809.156 475.808 808.316 478.664 807.668C481.52 806.996 485.024 806.612 489.176 806.516V803.672C489.176 800.84 488.564 798.704 487.34 797.264C486.116 795.8 484.328 795.068 481.976 795.068C480.392 795.068 479.06 795.272 477.98 795.68C476.924 796.064 476 796.508 475.208 797.012C474.44 797.492 473.768 797.936 473.192 798.344C472.64 798.728 472.088 798.92 471.536 798.92C471.104 798.92 470.732 798.812 470.42 798.596C470.108 798.356 469.844 798.068 469.628 797.732L468.476 795.68ZM542.245 822.14V837.584C542.245 838.208 542.065 838.688 541.705 839.024C541.369 839.384 540.925 839.564 540.373 839.564H536.449V827H505.201V790.532H511.645V822.14H529.141V790.532H535.585V822.14H542.245ZM580.008 790.532V827H573.6V802.232C573.6 801.752 573.624 801.236 573.672 800.684C573.72 800.132 573.78 799.58 573.852 799.028C573.636 799.508 573.42 799.952 573.204 800.36C572.988 800.768 572.76 801.14 572.52 801.476L554.916 825.416C554.652 825.8 554.316 826.172 553.908 826.532C553.524 826.868 553.092 827.036 552.612 827.036H548.724V790.568H555.168V815.336C555.168 815.792 555.144 816.296 555.096 816.848C555.048 817.376 554.988 817.916 554.916 818.468C555.132 818.012 555.348 817.592 555.564 817.208C555.78 816.8 555.996 816.428 556.212 816.092L573.816 792.152C574.08 791.768 574.416 791.408 574.824 791.072C575.232 790.712 575.676 790.532 576.156 790.532H580.008ZM609.327 807.56V794.852H603.207C601.839 794.852 600.687 795.056 599.751 795.464C598.815 795.848 598.059 796.352 597.483 796.976C596.931 797.576 596.535 798.26 596.295 799.028C596.055 799.772 595.935 800.516 595.935 801.26C595.935 803.228 596.655 804.776 598.095 805.904C599.535 807.008 601.503 807.56 603.999 807.56H609.327ZM615.447 790.532V827H609.327V811.628H606.519C605.847 811.628 605.283 811.688 604.827 811.808C604.395 811.904 604.011 812.048 603.675 812.24C603.363 812.432 603.087 812.684 602.847 812.996C602.607 813.284 602.355 813.62 602.091 814.004L594.099 824.768C593.691 825.536 593.187 826.1 592.587 826.46C592.011 826.82 591.159 827 590.031 827H585.567L596.151 813.248C597.015 811.808 598.155 810.848 599.571 810.368C597.723 810.128 596.163 809.696 594.891 809.072C593.619 808.448 592.575 807.716 591.759 806.876C590.967 806.012 590.391 805.064 590.031 804.032C589.671 803 589.491 801.956 589.491 800.9C589.491 799.652 589.731 798.404 590.211 797.156C590.715 795.908 591.507 794.804 592.587 793.844C593.667 792.86 595.059 792.068 596.763 791.468C598.491 790.844 600.579 790.532 603.027 790.532H615.447Z" fill="#E7DB74"/>
<circle cx="206" cy="420" r="12" fill="#74705D"/>
<circle cx="206" cy="549" r="12" fill="#74705D"/>
<circle cx="206" cy="679" r="12" fill="#74705D"/>
<circle cx="206" cy="809" r="12" fill="#74705D"/>
<circle cx="206" cy="290" r="12" fill="#74705D"/>
</svg>
