<svg width="1440" height="1080" viewBox="0 0 1440 1080" fill="none" xmlns="http://www.w3.org/2000/svg">
<rect width="1440" height="1080" fill="#282923"/>
<path d="M320.344 345.28V326.956H310.12C308.128 326.956 306.424 327.172 305.008 327.604C303.592 328.036 302.428 328.66 301.516 329.476C300.604 330.268 299.932 331.228 299.5 332.356C299.092 333.46 298.888 334.696 298.888 336.064C298.888 337.504 299.092 338.8 299.5 339.952C299.932 341.08 300.592 342.04 301.48 342.832C302.392 343.624 303.556 344.236 304.972 344.668C306.412 345.076 308.128 345.28 310.12 345.28H320.344ZM327.292 373H320.344V350.788H313.324C312.676 350.788 312.064 350.848 311.488 350.968C310.936 351.064 310.396 351.256 309.868 351.544C309.34 351.832 308.812 352.228 308.284 352.732C307.756 353.212 307.228 353.836 306.7 354.604L295.504 370.516C295.072 371.284 294.484 371.896 293.74 372.352C292.996 372.784 292.12 373 291.112 373H285.856L299.212 354.172C300.652 352.06 302.344 350.56 304.288 349.672C302.224 349.288 300.424 348.688 298.888 347.872C297.352 347.056 296.068 346.072 295.036 344.92C294.028 343.744 293.272 342.412 292.768 340.924C292.264 339.436 292.012 337.828 292.012 336.1C292.012 333.892 292.408 331.888 293.2 330.088C294.016 328.288 295.192 326.752 296.728 325.48C298.288 324.184 300.184 323.188 302.416 322.492C304.672 321.772 307.24 321.412 310.12 321.412H327.292V373ZM335.741 340.276C337.109 338.98 338.765 337.936 340.709 337.144C342.677 336.352 345.041 335.956 347.801 335.956C350.009 335.956 351.953 336.232 353.633 336.784C355.313 337.312 356.717 338.02 357.845 338.908C358.997 339.796 359.861 340.816 360.437 341.968C361.037 343.096 361.337 344.272 361.337 345.496C361.337 346.216 361.217 346.972 360.977 347.764C360.761 348.556 360.389 349.312 359.861 350.032C359.333 350.752 358.649 351.424 357.809 352.048C356.969 352.672 355.925 353.176 354.677 353.56C357.005 354.256 358.829 355.372 360.149 356.908C361.493 358.444 362.165 360.328 362.165 362.56C362.165 364.24 361.781 365.764 361.013 367.132C360.245 368.476 359.213 369.628 357.917 370.588C356.621 371.524 355.109 372.244 353.381 372.748C351.677 373.252 349.889 373.504 348.017 373.504C346.841 373.504 345.641 373.396 344.417 373.18C343.217 372.964 342.041 372.628 340.889 372.172C339.737 371.692 338.645 371.104 337.613 370.408C336.605 369.712 335.705 368.872 334.913 367.888L336.713 365.548C337.001 365.14 337.409 364.936 337.937 364.936C338.369 364.936 338.825 365.128 339.305 365.512C339.809 365.872 340.421 366.28 341.141 366.736C341.861 367.192 342.737 367.612 343.769 367.996C344.825 368.356 346.109 368.536 347.621 368.536C348.941 368.536 350.117 368.38 351.149 368.068C352.205 367.732 353.093 367.276 353.813 366.7C354.533 366.124 355.085 365.44 355.469 364.648C355.853 363.856 356.045 362.992 356.045 362.056C356.045 360.256 355.289 358.804 353.777 357.7C352.289 356.596 350.021 356.044 346.973 356.044H342.833V351.796H346.973C348.293 351.796 349.481 351.664 350.537 351.4C351.593 351.112 352.493 350.728 353.237 350.248C353.981 349.768 354.545 349.192 354.929 348.52C355.313 347.824 355.505 347.08 355.505 346.288C355.505 345.568 355.337 344.884 355.001 344.236C354.689 343.588 354.197 343.024 353.525 342.544C352.877 342.064 352.061 341.68 351.077 341.392C350.093 341.104 348.941 340.96 347.621 340.96C346.181 340.96 344.957 341.104 343.949 341.392C342.965 341.68 342.125 341.992 341.429 342.328C340.757 342.664 340.205 342.976 339.773 343.264C339.341 343.552 338.969 343.696 338.657 343.696C338.345 343.696 338.081 343.636 337.865 343.516C337.673 343.396 337.457 343.144 337.217 342.76L335.741 340.276ZM384.393 368.32C385.689 368.32 386.805 368.164 387.741 367.852C388.701 367.516 389.493 367.06 390.117 366.484C390.741 365.884 391.209 365.188 391.521 364.396C391.833 363.604 391.989 362.74 391.989 361.804C391.989 360.94 391.857 360.136 391.593 359.392C391.329 358.624 390.885 357.952 390.261 357.376C389.661 356.8 388.869 356.344 387.885 356.008C386.901 355.672 385.701 355.504 384.285 355.504H376.509V368.32H384.393ZM384.285 350.824C386.805 350.824 388.917 351.124 390.621 351.724C392.349 352.324 393.729 353.128 394.761 354.136C395.817 355.144 396.573 356.308 397.029 357.628C397.485 358.948 397.713 360.316 397.713 361.732C397.713 363.364 397.425 364.876 396.849 366.268C396.273 367.636 395.421 368.824 394.293 369.832C393.165 370.816 391.773 371.596 390.117 372.172C388.461 372.724 386.553 373 384.393 373H370.389V336.532H376.509V350.824H384.285ZM412.149 336.532V373H405.741V336.532H412.149ZM444.489 338.332C444.825 337.804 445.269 337.372 445.821 337.036C446.373 336.7 446.961 336.532 447.585 336.532H452.589L443.121 350.428C442.545 351.316 441.945 352.048 441.321 352.624C440.697 353.176 439.929 353.608 439.017 353.92C440.169 354.232 441.141 354.724 441.933 355.396C442.725 356.044 443.433 356.884 444.057 357.916L453.633 373H449.169C448.017 373 447.129 372.808 446.505 372.424C445.881 372.04 445.341 371.488 444.885 370.768L437.793 359.428C436.665 357.556 434.973 356.62 432.717 356.62H428.793V373.036H422.349V336.532H428.793V352.3H432.249C434.169 352.3 435.669 351.484 436.749 349.852L444.489 338.332ZM490.899 336.532V373H484.491V348.232C484.491 347.752 484.515 347.236 484.563 346.684C484.611 346.132 484.671 345.58 484.743 345.028C484.527 345.508 484.311 345.952 484.095 346.36C483.879 346.768 483.651 347.14 483.411 347.476L465.807 371.416C465.543 371.8 465.207 372.172 464.799 372.532C464.415 372.868 463.983 373.036 463.503 373.036H459.615V336.568H466.059V361.336C466.059 361.792 466.035 362.296 465.987 362.848C465.939 363.376 465.879 363.916 465.807 364.468C466.023 364.012 466.239 363.592 466.455 363.208C466.671 362.8 466.887 362.428 467.103 362.092L484.707 338.152C484.971 337.768 485.307 337.408 485.715 337.072C486.123 336.712 486.567 336.532 487.047 336.532H490.899ZM549.835 373H543.391V341.428H525.895V373H519.451V336.532H549.835V373ZM566.465 364.216C567.641 365.8 568.925 366.916 570.317 367.564C571.709 368.212 573.269 368.536 574.997 368.536C578.405 368.536 581.021 367.324 582.845 364.9C584.669 362.476 585.581 359.02 585.581 354.532C585.581 352.156 585.365 350.116 584.933 348.412C584.525 346.708 583.925 345.316 583.133 344.236C582.341 343.132 581.369 342.328 580.217 341.824C579.065 341.32 577.757 341.068 576.293 341.068C574.205 341.068 572.369 341.548 570.785 342.508C569.225 343.468 567.785 344.824 566.465 346.576V364.216ZM566.141 342.184C567.677 340.288 569.453 338.764 571.469 337.612C573.485 336.46 575.789 335.884 578.381 335.884C580.493 335.884 582.401 336.292 584.105 337.108C585.809 337.9 587.261 339.088 588.461 340.672C589.661 342.232 590.585 344.176 591.233 346.504C591.881 348.832 592.205 351.508 592.205 354.532C592.205 357.22 591.845 359.728 591.125 362.056C590.405 364.36 589.361 366.364 587.993 368.068C586.649 369.748 584.993 371.08 583.025 372.064C581.081 373.024 578.885 373.504 576.437 373.504C574.205 373.504 572.285 373.132 570.677 372.388C569.093 371.62 567.689 370.564 566.465 369.22V385.348H560.021V336.532H563.873C564.785 336.532 565.349 336.976 565.565 337.864L566.141 342.184ZM615.682 335.956C618.346 335.956 620.746 336.4 622.882 337.288C625.018 338.176 626.842 339.436 628.354 341.068C629.866 342.7 631.018 344.68 631.81 347.008C632.626 349.312 633.034 351.892 633.034 354.748C633.034 357.628 632.626 360.22 631.81 362.524C631.018 364.828 629.866 366.796 628.354 368.428C626.842 370.06 625.018 371.32 622.882 372.208C620.746 373.072 618.346 373.504 615.682 373.504C612.994 373.504 610.57 373.072 608.41 372.208C606.274 371.32 604.45 370.06 602.938 368.428C601.426 366.796 600.262 364.828 599.446 362.524C598.654 360.22 598.258 357.628 598.258 354.748C598.258 351.892 598.654 349.312 599.446 347.008C600.262 344.68 601.426 342.7 602.938 341.068C604.45 339.436 606.274 338.176 608.41 337.288C610.57 336.4 612.994 335.956 615.682 335.956ZM615.682 368.5C619.282 368.5 621.97 367.3 623.746 364.9C625.522 362.476 626.41 359.104 626.41 354.784C626.41 350.44 625.522 347.056 623.746 344.632C621.97 342.208 619.282 340.996 615.682 340.996C613.858 340.996 612.262 341.308 610.894 341.932C609.55 342.556 608.422 343.456 607.51 344.632C606.622 345.808 605.95 347.26 605.494 348.988C605.062 350.692 604.846 352.624 604.846 354.784C604.846 359.104 605.734 362.476 607.51 364.9C609.31 367.3 612.034 368.5 615.682 368.5ZM664.814 341.428H647.606V373H641.162V336.532H664.814V341.428ZM677.348 364.216C678.524 365.8 679.808 366.916 681.2 367.564C682.592 368.212 684.152 368.536 685.88 368.536C689.288 368.536 691.904 367.324 693.728 364.9C695.552 362.476 696.464 359.02 696.464 354.532C696.464 352.156 696.248 350.116 695.816 348.412C695.408 346.708 694.808 345.316 694.016 344.236C693.224 343.132 692.252 342.328 691.1 341.824C689.948 341.32 688.64 341.068 687.176 341.068C685.088 341.068 683.252 341.548 681.668 342.508C680.108 343.468 678.668 344.824 677.348 346.576V364.216ZM677.024 342.184C678.56 340.288 680.336 338.764 682.352 337.612C684.368 336.46 686.672 335.884 689.264 335.884C691.376 335.884 693.284 336.292 694.988 337.108C696.692 337.9 698.144 339.088 699.344 340.672C700.544 342.232 701.468 344.176 702.116 346.504C702.764 348.832 703.088 351.508 703.088 354.532C703.088 357.22 702.728 359.728 702.008 362.056C701.288 364.36 700.244 366.364 698.876 368.068C697.532 369.748 695.876 371.08 693.908 372.064C691.964 373.024 689.768 373.504 687.32 373.504C685.088 373.504 683.168 373.132 681.56 372.388C679.976 371.62 678.572 370.564 677.348 369.22V385.348H670.904V336.532H674.756C675.668 336.532 676.232 336.976 676.448 337.864L677.024 342.184ZM730.957 356.584C728.005 356.68 725.485 356.92 723.397 357.304C721.333 357.664 719.641 358.144 718.321 358.744C717.025 359.344 716.077 360.052 715.477 360.868C714.901 361.684 714.613 362.596 714.613 363.604C714.613 364.564 714.769 365.392 715.081 366.088C715.393 366.784 715.813 367.36 716.341 367.816C716.893 368.248 717.529 368.572 718.249 368.788C718.993 368.98 719.785 369.076 720.625 369.076C721.753 369.076 722.785 368.968 723.721 368.752C724.657 368.512 725.533 368.176 726.349 367.744C727.189 367.312 727.981 366.796 728.725 366.196C729.493 365.596 730.237 364.912 730.957 364.144V356.584ZM710.257 341.68C712.273 339.736 714.445 338.284 716.773 337.324C719.101 336.364 721.681 335.884 724.513 335.884C726.553 335.884 728.365 336.22 729.949 336.892C731.533 337.564 732.865 338.5 733.945 339.7C735.025 340.9 735.841 342.352 736.393 344.056C736.945 345.76 737.221 347.632 737.221 349.672V373H734.377C733.753 373 733.273 372.904 732.937 372.712C732.601 372.496 732.337 372.088 732.145 371.488L731.425 368.032C730.465 368.92 729.529 369.712 728.617 370.408C727.705 371.08 726.745 371.656 725.737 372.136C724.729 372.592 723.649 372.94 722.497 373.18C721.369 373.444 720.109 373.576 718.717 373.576C717.301 373.576 715.969 373.384 714.721 373C713.473 372.592 712.381 371.992 711.445 371.2C710.533 370.408 709.801 369.412 709.249 368.212C708.721 366.988 708.457 365.548 708.457 363.892C708.457 362.452 708.853 361.072 709.645 359.752C710.437 358.408 711.721 357.22 713.497 356.188C715.273 355.156 717.589 354.316 720.445 353.668C723.301 352.996 726.805 352.612 730.957 352.516V349.672C730.957 346.84 730.345 344.704 729.121 343.264C727.897 341.8 726.109 341.068 723.757 341.068C722.173 341.068 720.841 341.272 719.761 341.68C718.705 342.064 717.781 342.508 716.989 343.012C716.221 343.492 715.549 343.936 714.973 344.344C714.421 344.728 713.869 344.92 713.317 344.92C712.885 344.92 712.513 344.812 712.201 344.596C711.889 344.356 711.625 344.068 711.409 343.732L710.257 341.68ZM787.626 336.424V373H781.83V348.772C781.83 348.1 781.866 347.356 781.938 346.54C782.034 345.7 782.154 344.92 782.298 344.2L769.626 366.412C769.434 366.772 769.182 367.06 768.87 367.276C768.558 367.492 768.198 367.6 767.79 367.6H767.07C766.662 367.6 766.29 367.492 765.954 367.276C765.642 367.06 765.39 366.772 765.198 366.412L752.31 344.128C752.43 344.848 752.538 345.64 752.634 346.504C752.73 347.344 752.778 348.1 752.778 348.772V373H746.982V336.424H752.13C752.586 336.424 753.03 336.532 753.462 336.748C753.894 336.94 754.266 337.312 754.578 337.864L765.954 356.872C766.506 357.976 766.998 359.14 767.43 360.364C767.838 359.092 768.318 357.928 768.87 356.872L780.03 337.864C780.342 337.288 780.714 336.904 781.146 336.712C781.578 336.52 782.022 336.424 782.478 336.424H787.626ZM838.392 336.424V373H832.596V348.772C832.596 348.1 832.632 347.356 832.704 346.54C832.8 345.7 832.92 344.92 833.064 344.2L820.392 366.412C820.2 366.772 819.948 367.06 819.636 367.276C819.324 367.492 818.964 367.6 818.556 367.6H817.836C817.428 367.6 817.056 367.492 816.72 367.276C816.408 367.06 816.156 366.772 815.964 366.412L803.076 344.128C803.196 344.848 803.304 345.64 803.4 346.504C803.496 347.344 803.544 348.1 803.544 348.772V373H797.748V336.424H802.896C803.352 336.424 803.796 336.532 804.228 336.748C804.66 336.94 805.032 337.312 805.344 337.864L816.72 356.872C817.272 357.976 817.764 359.14 818.196 360.364C818.604 359.092 819.084 357.928 819.636 356.872L830.796 337.864C831.108 337.288 831.48 336.904 831.912 336.712C832.344 336.52 832.788 336.424 833.244 336.424H838.392ZM879.797 336.532V373H873.39V348.232C873.39 347.752 873.414 347.236 873.462 346.684C873.51 346.132 873.57 345.58 873.642 345.028C873.426 345.508 873.21 345.952 872.994 346.36C872.778 346.768 872.55 347.14 872.31 347.476L854.706 371.416C854.442 371.8 854.106 372.172 853.698 372.532C853.314 372.868 852.882 373.036 852.402 373.036H848.514V336.568H854.958V361.336C854.958 361.792 854.934 362.296 854.886 362.848C854.838 363.376 854.778 363.916 854.706 364.468C854.922 364.012 855.138 363.592 855.354 363.208C855.57 362.8 855.786 362.428 856.002 362.092L873.606 338.152C873.87 337.768 874.206 337.408 874.614 337.072C875.022 336.712 875.466 336.532 875.946 336.532H879.797ZM896.372 364.216C897.548 365.8 898.832 366.916 900.224 367.564C901.616 368.212 903.176 368.536 904.904 368.536C908.312 368.536 910.928 367.324 912.752 364.9C914.576 362.476 915.488 359.02 915.488 354.532C915.488 352.156 915.272 350.116 914.84 348.412C914.432 346.708 913.832 345.316 913.04 344.236C912.248 343.132 911.276 342.328 910.124 341.824C908.972 341.32 907.664 341.068 906.2 341.068C904.112 341.068 902.276 341.548 900.692 342.508C899.132 343.468 897.692 344.824 896.372 346.576V364.216ZM896.048 342.184C897.584 340.288 899.36 338.764 901.376 337.612C903.392 336.46 905.696 335.884 908.288 335.884C910.4 335.884 912.308 336.292 914.012 337.108C915.716 337.9 917.168 339.088 918.368 340.672C919.568 342.232 920.492 344.176 921.14 346.504C921.788 348.832 922.112 351.508 922.112 354.532C922.112 357.22 921.752 359.728 921.032 362.056C920.312 364.36 919.268 366.364 917.9 368.068C916.556 369.748 914.9 371.08 912.932 372.064C910.988 373.024 908.792 373.504 906.344 373.504C904.112 373.504 902.192 373.132 900.584 372.388C899 371.62 897.596 370.564 896.372 369.22V385.348H889.928V336.532H893.78C894.692 336.532 895.256 336.976 895.472 337.864L896.048 342.184ZM945.589 335.956C948.253 335.956 950.653 336.4 952.789 337.288C954.925 338.176 956.749 339.436 958.261 341.068C959.773 342.7 960.925 344.68 961.717 347.008C962.533 349.312 962.941 351.892 962.941 354.748C962.941 357.628 962.533 360.22 961.717 362.524C960.925 364.828 959.773 366.796 958.261 368.428C956.749 370.06 954.925 371.32 952.789 372.208C950.653 373.072 948.253 373.504 945.589 373.504C942.901 373.504 940.477 373.072 938.317 372.208C936.181 371.32 934.357 370.06 932.845 368.428C931.333 366.796 930.169 364.828 929.353 362.524C928.561 360.22 928.165 357.628 928.165 354.748C928.165 351.892 928.561 349.312 929.353 347.008C930.169 344.68 931.333 342.7 932.845 341.068C934.357 339.436 936.181 338.176 938.317 337.288C940.477 336.4 942.901 335.956 945.589 335.956ZM945.589 368.5C949.189 368.5 951.877 367.3 953.653 364.9C955.429 362.476 956.317 359.104 956.317 354.784C956.317 350.44 955.429 347.056 953.653 344.632C951.877 342.208 949.189 340.996 945.589 340.996C943.765 340.996 942.169 341.308 940.801 341.932C939.457 342.556 938.329 343.456 937.417 344.632C936.529 345.808 935.857 347.26 935.401 348.988C934.969 350.692 934.753 352.624 934.753 354.784C934.753 359.104 935.641 362.476 937.417 364.9C939.217 367.3 941.941 368.5 945.589 368.5ZM985.072 368.5C987.472 368.5 989.368 367.948 990.76 366.844C992.152 365.716 992.848 364.18 992.848 362.236C992.848 361.372 992.716 360.592 992.452 359.896C992.188 359.176 991.756 358.552 991.156 358.024C990.556 357.496 989.752 357.088 988.744 356.8C987.76 356.512 986.548 356.368 985.108 356.368H977.224V368.5H985.072ZM977.224 340.852V352.3H984.244C985.3 352.3 986.272 352.156 987.16 351.868C988.072 351.556 988.852 351.136 989.5 350.608C990.148 350.056 990.652 349.408 991.012 348.664C991.372 347.896 991.552 347.056 991.552 346.144C991.552 345.472 991.432 344.824 991.192 344.2C990.952 343.552 990.544 342.988 989.968 342.508C989.392 342.004 988.636 341.608 987.7 341.32C986.764 341.008 985.612 340.852 984.244 340.852H977.224ZM984.424 336.532C986.68 336.532 988.612 336.76 990.22 337.216C991.828 337.672 993.148 338.296 994.18 339.088C995.212 339.856 995.968 340.768 996.448 341.824C996.928 342.88 997.168 344.008 997.168 345.208C997.168 346 997.06 346.828 996.844 347.692C996.628 348.556 996.244 349.384 995.692 350.176C995.164 350.968 994.432 351.688 993.496 352.336C992.584 352.96 991.432 353.452 990.04 353.812C992.824 354.292 994.972 355.264 996.484 356.728C997.996 358.168 998.752 360.076 998.752 362.452C998.752 364.228 998.392 365.776 997.672 367.096C996.976 368.392 996.004 369.484 994.756 370.372C993.532 371.26 992.092 371.92 990.436 372.352C988.78 372.784 987.004 373 985.108 373H971.068V336.532H984.424ZM1026.55 356.584C1023.6 356.68 1021.08 356.92 1018.99 357.304C1016.93 357.664 1015.23 358.144 1013.91 358.744C1012.62 359.344 1011.67 360.052 1011.07 360.868C1010.49 361.684 1010.21 362.596 1010.21 363.604C1010.21 364.564 1010.36 365.392 1010.67 366.088C1010.99 366.784 1011.41 367.36 1011.93 367.816C1012.49 368.248 1013.12 368.572 1013.84 368.788C1014.59 368.98 1015.38 369.076 1016.22 369.076C1017.35 369.076 1018.38 368.968 1019.31 368.752C1020.25 368.512 1021.13 368.176 1021.94 367.744C1022.78 367.312 1023.57 366.796 1024.32 366.196C1025.09 365.596 1025.83 364.912 1026.55 364.144V356.584ZM1005.85 341.68C1007.87 339.736 1010.04 338.284 1012.37 337.324C1014.69 336.364 1017.27 335.884 1020.11 335.884C1022.15 335.884 1023.96 336.22 1025.54 336.892C1027.13 337.564 1028.46 338.5 1029.54 339.7C1030.62 340.9 1031.43 342.352 1031.99 344.056C1032.54 345.76 1032.81 347.632 1032.81 349.672V373H1029.97C1029.35 373 1028.87 372.904 1028.53 372.712C1028.19 372.496 1027.93 372.088 1027.74 371.488L1027.02 368.032C1026.06 368.92 1025.12 369.712 1024.21 370.408C1023.3 371.08 1022.34 371.656 1021.33 372.136C1020.32 372.592 1019.24 372.94 1018.09 373.18C1016.96 373.444 1015.7 373.576 1014.31 373.576C1012.89 373.576 1011.56 373.384 1010.31 373C1009.07 372.592 1007.97 371.992 1007.04 371.2C1006.13 370.408 1005.39 369.412 1004.84 368.212C1004.31 366.988 1004.05 365.548 1004.05 363.892C1004.05 362.452 1004.45 361.072 1005.24 359.752C1006.03 358.408 1007.31 357.22 1009.09 356.188C1010.87 355.156 1013.18 354.316 1016.04 353.668C1018.89 352.996 1022.4 352.612 1026.55 352.516V349.672C1026.55 346.84 1025.94 344.704 1024.71 343.264C1023.49 341.8 1021.7 341.068 1019.35 341.068C1017.77 341.068 1016.43 341.272 1015.35 341.68C1014.3 342.064 1013.37 342.508 1012.58 343.012C1011.81 343.492 1011.14 343.936 1010.57 344.344C1010.01 344.728 1009.46 344.92 1008.91 344.92C1008.48 344.92 1008.11 344.812 1007.79 344.596C1007.48 344.356 1007.22 344.068 1007 343.732L1005.85 341.68ZM1072.96 336.532V373H1066.52V355.936H1049.02V373H1042.58V336.532H1049.02V351.076H1066.52V336.532H1072.96ZM1114.43 336.532V373H1108.02V348.232C1108.02 347.752 1108.05 347.236 1108.09 346.684C1108.14 346.132 1108.2 345.58 1108.27 345.028C1108.06 345.508 1107.84 345.952 1107.63 346.36C1107.41 346.768 1107.18 347.14 1106.94 347.476L1089.34 371.416C1089.07 371.8 1088.74 372.172 1088.33 372.532C1087.95 372.868 1087.51 373.036 1087.03 373.036H1083.15V336.568H1089.59V361.336C1089.59 361.792 1089.57 362.296 1089.52 362.848C1089.47 363.376 1089.41 363.916 1089.34 364.468C1089.55 364.012 1089.77 363.592 1089.99 363.208C1090.2 362.8 1090.42 362.428 1090.63 362.092L1108.24 338.152C1108.5 337.768 1108.84 337.408 1109.25 337.072C1109.65 336.712 1110.1 336.532 1110.58 336.532H1114.43ZM1143.75 353.56V340.852H1137.63C1136.26 340.852 1135.11 341.056 1134.17 341.464C1133.24 341.848 1132.48 342.352 1131.9 342.976C1131.35 343.576 1130.96 344.26 1130.72 345.028C1130.48 345.772 1130.36 346.516 1130.36 347.26C1130.36 349.228 1131.08 350.776 1132.52 351.904C1133.96 353.008 1135.92 353.56 1138.42 353.56H1143.75ZM1149.87 336.532V373H1143.75V357.628H1140.94C1140.27 357.628 1139.7 357.688 1139.25 357.808C1138.82 357.904 1138.43 358.048 1138.1 358.24C1137.78 358.432 1137.51 358.684 1137.27 358.996C1137.03 359.284 1136.78 359.62 1136.51 360.004L1128.52 370.768C1128.11 371.536 1127.61 372.1 1127.01 372.46C1126.43 372.82 1125.58 373 1124.45 373H1119.99L1130.57 359.248C1131.44 357.808 1132.58 356.848 1133.99 356.368C1132.14 356.128 1130.58 355.696 1129.31 355.072C1128.04 354.448 1127 353.716 1126.18 352.876C1125.39 352.012 1124.81 351.064 1124.45 350.032C1124.09 349 1123.91 347.956 1123.91 346.9C1123.91 345.652 1124.15 344.404 1124.63 343.156C1125.14 341.908 1125.93 340.804 1127.01 339.844C1128.09 338.86 1129.48 338.068 1131.18 337.468C1132.91 336.844 1135 336.532 1137.45 336.532H1149.87Z" fill="#F8F8F2"/>
<path d="M501.487 479.924L480.967 500.444L478.771 498.176C478.291 497.696 478.099 497.216 478.195 496.736C478.315 496.256 478.579 495.8 478.987 495.368L489.319 485.108C489.895 484.532 490.435 484.016 490.939 483.56C491.443 483.104 491.935 482.684 492.415 482.3C491.215 482.468 489.943 482.6 488.599 482.696C487.279 482.792 485.911 482.84 484.495 482.84H437.623V476.972H484.495C485.911 476.972 487.291 477.02 488.635 477.116C489.979 477.212 491.251 477.344 492.451 477.512C491.971 477.128 491.467 476.708 490.939 476.252C490.435 475.796 489.895 475.28 489.319 474.704L478.915 464.372C478.483 463.94 478.219 463.484 478.123 463.004C478.027 462.524 478.207 462.044 478.663 461.564L480.895 459.26L501.487 479.924ZM648.862 608.924L628.342 629.444L626.146 627.176C625.666 626.696 625.474 626.216 625.57 625.736C625.69 625.256 625.954 624.8 626.362 624.368L636.694 614.108C637.27 613.532 637.81 613.016 638.314 612.56C638.818 612.104 639.31 611.684 639.79 611.3C638.59 611.468 637.318 611.6 635.974 611.696C634.654 611.792 633.286 611.84 631.87 611.84H584.998V605.972H631.87C633.286 605.972 634.666 606.02 636.01 606.116C637.354 606.212 638.626 606.344 639.826 606.512C639.346 606.128 638.842 605.708 638.314 605.252C637.81 604.796 637.27 604.28 636.694 603.704L626.29 593.372C625.858 592.94 625.594 592.484 625.498 592.004C625.402 591.524 625.582 591.044 626.038 590.564L628.27 588.26L648.862 608.924ZM796.237 738.924L775.717 759.444L773.521 757.176C773.041 756.696 772.849 756.216 772.945 755.736C773.065 755.256 773.329 754.8 773.737 754.368L784.069 744.108C784.645 743.532 785.185 743.016 785.689 742.56C786.193 742.104 786.685 741.684 787.165 741.3C785.965 741.468 784.693 741.6 783.349 741.696C782.029 741.792 780.661 741.84 779.245 741.84H732.373V735.972H779.245C780.661 735.972 782.041 736.02 783.385 736.116C784.729 736.212 786.001 736.344 787.201 736.512C786.721 736.128 786.217 735.708 785.689 735.252C785.185 734.796 784.645 734.28 784.069 733.704L773.665 723.372C773.233 722.94 772.969 722.484 772.873 722.004C772.777 721.524 772.957 721.044 773.413 720.564L775.645 718.26L796.237 738.924Z" fill="#74705D"/>
<path d="M570.165 503H563.145V456.92H537.369V503H530.385V451.412H570.165V503ZM600.528 486.584C597.576 486.68 595.056 486.92 592.968 487.304C590.904 487.664 589.212 488.144 587.892 488.744C586.596 489.344 585.648 490.052 585.048 490.868C584.472 491.684 584.184 492.596 584.184 493.604C584.184 494.564 584.34 495.392 584.652 496.088C584.964 496.784 585.384 497.36 585.912 497.816C586.464 498.248 587.1 498.572 587.82 498.788C588.564 498.98 589.356 499.076 590.196 499.076C591.324 499.076 592.356 498.968 593.292 498.752C594.228 498.512 595.104 498.176 595.92 497.744C596.76 497.312 597.552 496.796 598.296 496.196C599.064 495.596 599.808 494.912 600.528 494.144V486.584ZM579.828 471.68C581.844 469.736 584.016 468.284 586.344 467.324C588.672 466.364 591.252 465.884 594.084 465.884C596.124 465.884 597.936 466.22 599.52 466.892C601.104 467.564 602.436 468.5 603.516 469.7C604.596 470.9 605.412 472.352 605.964 474.056C606.516 475.76 606.792 477.632 606.792 479.672V503H603.948C603.324 503 602.844 502.904 602.508 502.712C602.172 502.496 601.908 502.088 601.716 501.488L600.996 498.032C600.036 498.92 599.1 499.712 598.188 500.408C597.276 501.08 596.316 501.656 595.308 502.136C594.3 502.592 593.22 502.94 592.068 503.18C590.94 503.444 589.68 503.576 588.288 503.576C586.872 503.576 585.54 503.384 584.292 503C583.044 502.592 581.952 501.992 581.016 501.2C580.104 500.408 579.372 499.412 578.82 498.212C578.292 496.988 578.028 495.548 578.028 493.892C578.028 492.452 578.424 491.072 579.216 489.752C580.008 488.408 581.292 487.22 583.068 486.188C584.844 485.156 587.16 484.316 590.016 483.668C592.872 482.996 596.376 482.612 600.528 482.516V479.672C600.528 476.84 599.916 474.704 598.692 473.264C597.468 471.8 595.68 471.068 593.328 471.068C591.744 471.068 590.412 471.272 589.332 471.68C588.276 472.064 587.352 472.508 586.56 473.012C585.792 473.492 585.12 473.936 584.544 474.344C583.992 474.728 583.44 474.92 582.888 474.92C582.456 474.92 582.084 474.812 581.772 474.596C581.46 474.356 581.196 474.068 580.979 473.732L579.828 471.68ZM645.951 471.428H631.947V503H625.539V471.428H611.535V466.532H645.951V471.428ZM682.372 471.428H668.368V503H661.96V471.428H647.956V466.532H682.372V471.428ZM711.414 480.788C711.414 479.3 711.198 477.944 710.766 476.72C710.358 475.472 709.746 474.404 708.93 473.516C708.138 472.604 707.166 471.908 706.014 471.428C704.862 470.924 703.554 470.672 702.09 470.672C699.018 470.672 696.582 471.572 694.782 473.372C693.006 475.148 691.902 477.62 691.47 480.788H711.414ZM716.598 497.888C715.806 498.848 714.858 499.688 713.754 500.408C712.65 501.104 711.462 501.68 710.19 502.136C708.942 502.592 707.646 502.928 706.302 503.144C704.958 503.384 703.626 503.504 702.306 503.504C699.786 503.504 697.458 503.084 695.322 502.244C693.21 501.38 691.374 500.132 689.814 498.5C688.278 496.844 687.078 494.804 686.214 492.38C685.35 489.956 684.918 487.172 684.918 484.028C684.918 481.484 685.302 479.108 686.07 476.9C686.862 474.692 687.99 472.784 689.454 471.176C690.918 469.544 692.706 468.272 694.818 467.36C696.93 466.424 699.306 465.956 701.946 465.956C704.13 465.956 706.146 466.328 707.994 467.072C709.866 467.792 711.474 468.848 712.818 470.24C714.186 471.608 715.254 473.312 716.022 475.352C716.79 477.368 717.174 479.672 717.174 482.264C717.174 483.272 717.066 483.944 716.85 484.28C716.634 484.616 716.226 484.784 715.626 484.784H691.254C691.326 487.088 691.638 489.092 692.19 490.796C692.766 492.5 693.558 493.928 694.566 495.08C695.574 496.208 696.774 497.06 698.166 497.636C699.558 498.188 701.118 498.464 702.846 498.464C704.454 498.464 705.834 498.284 706.986 497.924C708.162 497.54 709.17 497.132 710.01 496.7C710.85 496.268 711.546 495.872 712.098 495.512C712.674 495.128 713.166 494.936 713.574 494.936C714.102 494.936 714.51 495.14 714.798 495.548L716.598 497.888ZM731.489 494.216C732.665 495.8 733.949 496.916 735.341 497.564C736.733 498.212 738.293 498.536 740.021 498.536C743.429 498.536 746.045 497.324 747.869 494.9C749.693 492.476 750.605 489.02 750.605 484.532C750.605 482.156 750.389 480.116 749.957 478.412C749.549 476.708 748.949 475.316 748.157 474.236C747.365 473.132 746.393 472.328 745.241 471.824C744.089 471.32 742.781 471.068 741.317 471.068C739.229 471.068 737.393 471.548 735.809 472.508C734.249 473.468 732.809 474.824 731.489 476.576V494.216ZM731.165 472.184C732.701 470.288 734.477 468.764 736.493 467.612C738.509 466.46 740.813 465.884 743.405 465.884C745.517 465.884 747.425 466.292 749.129 467.108C750.833 467.9 752.285 469.088 753.485 470.672C754.685 472.232 755.609 474.176 756.257 476.504C756.905 478.832 757.229 481.508 757.229 484.532C757.229 487.22 756.869 489.728 756.149 492.056C755.429 494.36 754.385 496.364 753.017 498.068C751.673 499.748 750.017 501.08 748.049 502.064C746.105 503.024 743.909 503.504 741.461 503.504C739.229 503.504 737.309 503.132 735.701 502.388C734.117 501.62 732.713 500.564 731.489 499.22V515.348H725.045V466.532H728.897C729.809 466.532 730.373 466.976 730.589 467.864L731.165 472.184ZM795.718 466.532V503H789.274V485.936H771.778V503H765.334V466.532H771.778V481.076H789.274V466.532H795.718ZM819.908 498.32C821.204 498.32 822.32 498.164 823.256 497.852C824.216 497.516 825.008 497.06 825.632 496.484C826.256 495.884 826.724 495.188 827.036 494.396C827.348 493.604 827.504 492.74 827.504 491.804C827.504 490.94 827.372 490.136 827.108 489.392C826.844 488.624 826.4 487.952 825.776 487.376C825.176 486.8 824.384 486.344 823.4 486.008C822.416 485.672 821.216 485.504 819.8 485.504H812.024V498.32H819.908ZM819.8 480.824C822.32 480.824 824.432 481.124 826.136 481.724C827.864 482.324 829.244 483.128 830.276 484.136C831.332 485.144 832.088 486.308 832.544 487.628C833 488.948 833.228 490.316 833.228 491.732C833.228 493.364 832.94 494.876 832.364 496.268C831.788 497.636 830.936 498.824 829.808 499.832C828.68 500.816 827.288 501.596 825.632 502.172C823.976 502.724 822.068 503 819.908 503H805.904V466.532H812.024V480.824H819.8ZM847.664 466.532V503H841.256V466.532H847.664Z" fill="#67D8EF"/>
<path d="M705.084 612.848L696.984 591.86C696.744 591.236 696.492 590.516 696.228 589.7C695.964 588.86 695.712 587.972 695.472 587.036C694.968 588.98 694.452 590.6 693.924 591.896L685.824 612.848H705.084ZM719.628 632H714.228C713.604 632 713.1 631.844 712.716 631.532C712.332 631.22 712.044 630.824 711.852 630.344L707.028 617.888H683.88L679.056 630.344C678.912 630.776 678.636 631.16 678.228 631.496C677.82 631.832 677.304 632 676.68 632H671.316L691.944 580.412H699L719.628 632ZM731.137 623.216C732.313 624.8 733.597 625.916 734.989 626.564C736.381 627.212 737.941 627.536 739.669 627.536C743.077 627.536 745.693 626.324 747.517 623.9C749.341 621.476 750.253 618.02 750.253 613.532C750.253 611.156 750.037 609.116 749.605 607.412C749.197 605.708 748.597 604.316 747.805 603.236C747.013 602.132 746.041 601.328 744.889 600.824C743.737 600.32 742.429 600.068 740.965 600.068C738.877 600.068 737.041 600.548 735.457 601.508C733.897 602.468 732.457 603.824 731.137 605.576V623.216ZM730.813 601.184C732.349 599.288 734.125 597.764 736.141 596.612C738.157 595.46 740.461 594.884 743.053 594.884C745.165 594.884 747.073 595.292 748.777 596.108C750.481 596.9 751.933 598.088 753.133 599.672C754.333 601.232 755.257 603.176 755.905 605.504C756.553 607.832 756.877 610.508 756.877 613.532C756.877 616.22 756.517 618.728 755.797 621.056C755.077 623.36 754.033 625.364 752.665 627.068C751.321 628.748 749.665 630.08 747.697 631.064C745.753 632.024 743.557 632.504 741.109 632.504C738.877 632.504 736.957 632.132 735.349 631.388C733.765 630.62 732.361 629.564 731.137 628.22V644.348H724.693V595.532H728.545C729.457 595.532 730.021 595.976 730.237 596.864L730.813 601.184ZM793.528 632H787.372C786.844 632 786.424 631.868 786.112 631.604C785.824 631.316 785.584 631.004 785.392 630.668L776.212 616.376C776.116 616.712 776.008 617.048 775.888 617.384C775.792 617.696 775.648 617.984 775.456 618.248L766.96 630.668C766.72 631.004 766.456 631.316 766.168 631.604C765.904 631.868 765.532 632 765.052 632H759.328L772.108 613.28L759.832 595.532H765.988C766.516 595.532 766.9 595.616 767.14 595.784C767.38 595.952 767.596 596.192 767.788 596.504L776.752 610.184C776.944 609.488 777.244 608.816 777.652 608.168L785.5 596.648C785.716 596.312 785.944 596.048 786.184 595.856C786.448 595.64 786.76 595.532 787.12 595.532H793.024L780.748 612.956L793.528 632ZM830.719 595.532V632H824.311V607.232C824.311 606.752 824.335 606.236 824.383 605.684C824.431 605.132 824.491 604.58 824.563 604.028C824.347 604.508 824.131 604.952 823.915 605.36C823.699 605.768 823.471 606.14 823.231 606.476L805.627 630.416C805.363 630.8 805.027 631.172 804.619 631.532C804.235 631.868 803.803 632.036 803.323 632.036H799.435V595.568H805.879V620.336C805.879 620.792 805.855 621.296 805.807 621.848C805.759 622.376 805.699 622.916 805.627 623.468C805.843 623.012 806.059 622.592 806.275 622.208C806.491 621.8 806.707 621.428 806.923 621.092L824.527 597.152C824.791 596.768 825.127 596.408 825.535 596.072C825.943 595.712 826.387 595.532 826.867 595.532H830.719ZM871.161 600.428H857.157V632H850.749V600.428H836.745V595.532H871.161V600.428ZM900.203 609.788C900.203 608.3 899.987 606.944 899.555 605.72C899.147 604.472 898.535 603.404 897.719 602.516C896.927 601.604 895.955 600.908 894.803 600.428C893.651 599.924 892.343 599.672 890.879 599.672C887.807 599.672 885.371 600.572 883.571 602.372C881.795 604.148 880.691 606.62 880.259 609.788H900.203ZM905.387 626.888C904.595 627.848 903.647 628.688 902.543 629.408C901.439 630.104 900.251 630.68 898.979 631.136C897.731 631.592 896.435 631.928 895.091 632.144C893.747 632.384 892.415 632.504 891.095 632.504C888.575 632.504 886.247 632.084 884.111 631.244C881.999 630.38 880.163 629.132 878.603 627.5C877.067 625.844 875.867 623.804 875.003 621.38C874.139 618.956 873.707 616.172 873.707 613.028C873.707 610.484 874.091 608.108 874.859 605.9C875.651 603.692 876.779 601.784 878.243 600.176C879.707 598.544 881.495 597.272 883.607 596.36C885.719 595.424 888.095 594.956 890.735 594.956C892.919 594.956 894.935 595.328 896.783 596.072C898.655 596.792 900.263 597.848 901.607 599.24C902.975 600.608 904.043 602.312 904.811 604.352C905.579 606.368 905.963 608.672 905.963 611.264C905.963 612.272 905.855 612.944 905.639 613.28C905.423 613.616 905.015 613.784 904.415 613.784H880.043C880.115 616.088 880.427 618.092 880.979 619.796C881.555 621.5 882.347 622.928 883.355 624.08C884.363 625.208 885.563 626.06 886.955 626.636C888.347 627.188 889.907 627.464 891.635 627.464C893.243 627.464 894.623 627.284 895.775 626.924C896.951 626.54 897.959 626.132 898.799 625.7C899.639 625.268 900.335 624.872 900.887 624.512C901.463 624.128 901.955 623.936 902.363 623.936C902.891 623.936 903.299 624.14 903.587 624.548L905.387 626.888ZM935.974 597.332C936.31 596.804 936.754 596.372 937.306 596.036C937.858 595.7 938.446 595.532 939.07 595.532H944.074L934.606 609.428C934.03 610.316 933.43 611.048 932.806 611.624C932.182 612.176 931.414 612.608 930.502 612.92C931.654 613.232 932.626 613.724 933.418 614.396C934.21 615.044 934.918 615.884 935.542 616.916L945.118 632H940.654C939.502 632 938.614 631.808 937.99 631.424C937.366 631.04 936.826 630.488 936.37 629.768L929.278 618.428C928.15 616.556 926.458 615.62 924.202 615.62H920.278V632.036H913.834V595.532H920.278V611.3H923.734C925.654 611.3 927.154 610.484 928.234 608.852L935.974 597.332ZM981.411 600.428H967.407V632H960.999V600.428H946.995V595.532H981.411V600.428ZM1018.99 595.532L998.645 642.764C998.429 643.244 998.153 643.628 997.817 643.916C997.505 644.204 997.013 644.348 996.341 644.348H991.589L998.249 629.876L983.201 595.532H988.745C989.297 595.532 989.729 595.676 990.041 595.964C990.377 596.228 990.605 596.528 990.725 596.864L1000.48 619.832C1000.87 620.84 1001.19 621.896 1001.45 623C1001.79 621.872 1002.15 620.804 1002.53 619.796L1012 596.864C1012.15 596.48 1012.39 596.168 1012.72 595.928C1013.08 595.664 1013.48 595.532 1013.91 595.532H1018.99ZM1031.09 623.216C1032.27 624.8 1033.55 625.916 1034.94 626.564C1036.33 627.212 1037.89 627.536 1039.62 627.536C1043.03 627.536 1045.65 626.324 1047.47 623.9C1049.29 621.476 1050.21 618.02 1050.21 613.532C1050.21 611.156 1049.99 609.116 1049.56 607.412C1049.15 605.708 1048.55 604.316 1047.76 603.236C1046.97 602.132 1045.99 601.328 1044.84 600.824C1043.69 600.32 1042.38 600.068 1040.92 600.068C1038.83 600.068 1036.99 600.548 1035.41 601.508C1033.85 602.468 1032.41 603.824 1031.09 605.576V623.216ZM1030.77 601.184C1032.3 599.288 1034.08 597.764 1036.09 596.612C1038.11 595.46 1040.41 594.884 1043.01 594.884C1045.12 594.884 1047.03 595.292 1048.73 596.108C1050.43 596.9 1051.89 598.088 1053.09 599.672C1054.29 601.232 1055.21 603.176 1055.86 605.504C1056.51 607.832 1056.83 610.508 1056.83 613.532C1056.83 616.22 1056.47 618.728 1055.75 621.056C1055.03 623.36 1053.99 625.364 1052.62 627.068C1051.27 628.748 1049.62 630.08 1047.65 631.064C1045.71 632.024 1043.51 632.504 1041.06 632.504C1038.83 632.504 1036.91 632.132 1035.3 631.388C1033.72 630.62 1032.31 629.564 1031.09 628.22V644.348H1024.65V595.532H1028.5C1029.41 595.532 1029.97 595.976 1030.19 596.864L1030.77 601.184ZM1084.7 615.584C1081.75 615.68 1079.23 615.92 1077.14 616.304C1075.08 616.664 1073.38 617.144 1072.06 617.744C1070.77 618.344 1069.82 619.052 1069.22 619.868C1068.64 620.684 1068.36 621.596 1068.36 622.604C1068.36 623.564 1068.51 624.392 1068.82 625.088C1069.14 625.784 1069.56 626.36 1070.08 626.816C1070.64 627.248 1071.27 627.572 1071.99 627.788C1072.74 627.98 1073.53 628.076 1074.37 628.076C1075.5 628.076 1076.53 627.968 1077.46 627.752C1078.4 627.512 1079.28 627.176 1080.09 626.744C1080.93 626.312 1081.72 625.796 1082.47 625.196C1083.24 624.596 1083.98 623.912 1084.7 623.144V615.584ZM1064 600.68C1066.02 598.736 1068.19 597.284 1070.52 596.324C1072.84 595.364 1075.42 594.884 1078.26 594.884C1080.3 594.884 1082.11 595.22 1083.69 595.892C1085.28 596.564 1086.61 597.5 1087.69 598.7C1088.77 599.9 1089.58 601.352 1090.14 603.056C1090.69 604.76 1090.96 606.632 1090.96 608.672V632H1088.12C1087.5 632 1087.02 631.904 1086.68 631.712C1086.34 631.496 1086.08 631.088 1085.89 630.488L1085.17 627.032C1084.21 627.92 1083.27 628.712 1082.36 629.408C1081.45 630.08 1080.49 630.656 1079.48 631.136C1078.47 631.592 1077.39 631.94 1076.24 632.18C1075.11 632.444 1073.85 632.576 1072.46 632.576C1071.04 632.576 1069.71 632.384 1068.46 632C1067.22 631.592 1066.12 630.992 1065.19 630.2C1064.28 629.408 1063.54 628.412 1062.99 627.212C1062.46 625.988 1062.2 624.548 1062.2 622.892C1062.2 621.452 1062.6 620.072 1063.39 618.752C1064.18 617.408 1065.46 616.22 1067.24 615.188C1069.02 614.156 1071.33 613.316 1074.19 612.668C1077.04 611.996 1080.55 611.612 1084.7 611.516V608.672C1084.7 605.84 1084.09 603.704 1082.86 602.264C1081.64 600.8 1079.85 600.068 1077.5 600.068C1075.92 600.068 1074.58 600.272 1073.5 600.68C1072.45 601.064 1071.52 601.508 1070.73 602.012C1069.96 602.492 1069.29 602.936 1068.72 603.344C1068.16 603.728 1067.61 603.92 1067.06 603.92C1066.63 603.92 1066.26 603.812 1065.94 603.596C1065.63 603.356 1065.37 603.068 1065.15 602.732L1064 600.68Z" fill="#A6E22C"/>
<path d="M864.195 762H857.211V715.92H840.147C839.811 722.544 839.355 728.292 838.779 733.164C838.227 738.036 837.543 742.2 836.727 745.656C835.935 749.112 835.023 751.932 833.991 754.116C832.983 756.276 831.867 757.98 830.643 759.228C829.443 760.476 828.147 761.328 826.755 761.784C825.363 762.24 823.887 762.468 822.327 762.468C821.031 762.468 820.035 762.348 819.339 762.108C818.643 761.892 818.295 761.556 818.295 761.1V756.672H820.815C821.775 756.672 822.723 756.492 823.659 756.132C824.595 755.748 825.495 754.992 826.359 753.864C827.223 752.736 828.039 751.128 828.807 749.04C829.575 746.952 830.271 744.192 830.895 740.76C831.519 737.328 832.059 733.14 832.515 728.196C832.971 723.228 833.319 717.3 833.559 710.412H864.195V762ZM906.911 757.5C910.271 757.5 912.779 756.3 914.435 753.9C916.091 751.476 916.919 748.104 916.919 743.784C916.919 739.44 916.091 736.056 914.435 733.632C912.779 731.208 910.271 729.996 906.911 729.996C903.551 729.996 901.043 731.208 899.387 733.632C897.731 736.056 896.903 739.44 896.903 743.784C896.903 748.104 897.731 751.476 899.387 753.9C901.043 756.3 903.551 757.5 906.911 757.5ZM890.603 741.264C890.819 738.768 891.335 736.512 892.151 734.496C892.991 732.48 894.107 730.764 895.499 729.348C896.915 727.932 898.571 726.852 900.467 726.108C902.387 725.34 904.535 724.956 906.911 724.956C909.455 724.956 911.747 725.4 913.787 726.288C915.851 727.176 917.603 728.436 919.043 730.068C920.483 731.7 921.587 733.68 922.355 736.008C923.147 738.312 923.543 740.892 923.543 743.748C923.543 746.628 923.147 749.22 922.355 751.524C921.563 753.828 920.435 755.796 918.971 757.428C917.507 759.06 915.755 760.32 913.715 761.208C911.675 762.072 909.407 762.504 906.911 762.504C904.487 762.504 902.303 762.12 900.359 761.352C898.439 760.584 896.783 759.492 895.391 758.076C893.999 756.636 892.883 754.896 892.043 752.856C891.227 750.816 890.735 748.512 890.567 745.944H881.747V762H875.303V725.532H881.747V741.264H890.603ZM955.415 757.32V730.572H943.859C943.619 734.316 943.283 737.628 942.851 740.508C942.419 743.388 941.915 745.92 941.339 748.104C940.787 750.264 940.163 752.1 939.467 753.612C938.795 755.124 938.087 756.36 937.343 757.32H955.415ZM968.303 757.14V772.584C968.303 773.208 968.123 773.688 967.763 774.024C967.427 774.384 966.983 774.564 966.431 774.564H962.507V762H931.835V772.728C931.835 773.184 931.691 773.604 931.403 773.988C931.139 774.372 930.695 774.564 930.071 774.564H926.039V757.32H927.227C928.067 757.32 928.895 757.176 929.711 756.888C930.551 756.6 931.355 756.06 932.123 755.268C932.891 754.452 933.611 753.312 934.283 751.848C934.979 750.384 935.603 748.476 936.155 746.124C936.707 743.772 937.187 740.916 937.595 737.556C938.003 734.172 938.327 730.164 938.567 725.532H961.643V757.14H968.303ZM1006.08 725.532V762H999.671V737.232C999.671 736.752 999.695 736.236 999.743 735.684C999.791 735.132 999.851 734.58 999.923 734.028C999.707 734.508 999.491 734.952 999.275 735.36C999.059 735.768 998.831 736.14 998.591 736.476L980.987 760.416C980.723 760.8 980.387 761.172 979.979 761.532C979.595 761.868 979.163 762.036 978.683 762.036H974.795V725.568H981.239V750.336C981.239 750.792 981.215 751.296 981.167 751.848C981.119 752.376 981.059 752.916 980.987 753.468C981.203 753.012 981.419 752.592 981.635 752.208C981.851 751.8 982.067 751.428 982.283 751.092L999.887 727.152C1000.15 726.768 1000.49 726.408 1000.89 726.072C1001.3 725.712 1001.75 725.532 1002.23 725.532H1006.08Z" fill="#FD9621"/>
</svg>
