<svg width="1440" height="1080" viewBox="0 0 1440 1080" fill="none" xmlns="http://www.w3.org/2000/svg">
<rect width="1440" height="1080" fill="#282923"/>
<path d="M406.171 252.344C406.555 252.344 406.891 252.5 407.179 252.812L409.951 255.8C407.839 258.248 405.271 260.156 402.247 261.524C399.247 262.892 395.611 263.576 391.339 263.576C387.643 263.576 384.283 262.94 381.259 261.668C378.235 260.372 375.655 258.572 373.519 256.268C371.383 253.94 369.727 251.156 368.551 247.916C367.375 244.676 366.787 241.112 366.787 237.224C366.787 233.336 367.399 229.772 368.623 226.532C369.847 223.292 371.563 220.508 373.771 218.18C376.003 215.852 378.667 214.052 381.763 212.78C384.859 211.484 388.279 210.836 392.023 210.836C395.695 210.836 398.935 211.424 401.743 212.6C404.551 213.776 407.023 215.372 409.159 217.388L406.855 220.592C406.711 220.832 406.519 221.036 406.279 221.204C406.063 221.348 405.763 221.42 405.379 221.42C404.947 221.42 404.419 221.192 403.795 220.736C403.171 220.256 402.355 219.728 401.347 219.152C400.339 218.576 399.079 218.06 397.567 217.604C396.055 217.124 394.195 216.884 391.987 216.884C389.323 216.884 386.887 217.352 384.679 218.288C382.471 219.2 380.563 220.532 378.955 222.284C377.371 224.036 376.135 226.172 375.247 228.692C374.359 231.212 373.915 234.056 373.915 237.224C373.915 240.44 374.371 243.308 375.283 245.828C376.219 248.348 377.479 250.484 379.063 252.236C380.671 253.964 382.555 255.284 384.715 256.196C386.899 257.108 389.251 257.564 391.771 257.564C393.307 257.564 394.687 257.48 395.911 257.312C397.159 257.12 398.299 256.832 399.331 256.448C400.387 256.064 401.359 255.584 402.247 255.008C403.159 254.408 404.059 253.7 404.947 252.884C405.355 252.524 405.763 252.344 406.171 252.344ZM446.71 263H440.266V231.428H422.77V263H416.326V226.532H446.71V263ZM476.66 246.584C473.708 246.68 471.188 246.92 469.1 247.304C467.036 247.664 465.344 248.144 464.024 248.744C462.728 249.344 461.78 250.052 461.18 250.868C460.604 251.684 460.316 252.596 460.316 253.604C460.316 254.564 460.472 255.392 460.784 256.088C461.096 256.784 461.516 257.36 462.044 257.816C462.596 258.248 463.232 258.572 463.952 258.788C464.696 258.98 465.488 259.076 466.328 259.076C467.456 259.076 468.488 258.968 469.424 258.752C470.36 258.512 471.236 258.176 472.052 257.744C472.892 257.312 473.684 256.796 474.428 256.196C475.196 255.596 475.94 254.912 476.66 254.144V246.584ZM455.96 231.68C457.976 229.736 460.148 228.284 462.476 227.324C464.804 226.364 467.384 225.884 470.216 225.884C472.256 225.884 474.068 226.22 475.652 226.892C477.236 227.564 478.568 228.5 479.648 229.7C480.728 230.9 481.544 232.352 482.096 234.056C482.648 235.76 482.924 237.632 482.924 239.672V263H480.08C479.456 263 478.976 262.904 478.64 262.712C478.304 262.496 478.04 262.088 477.848 261.488L477.128 258.032C476.168 258.92 475.232 259.712 474.32 260.408C473.408 261.08 472.448 261.656 471.44 262.136C470.432 262.592 469.352 262.94 468.2 263.18C467.072 263.444 465.812 263.576 464.42 263.576C463.004 263.576 461.672 263.384 460.424 263C459.176 262.592 458.084 261.992 457.148 261.2C456.236 260.408 455.504 259.412 454.952 258.212C454.424 256.988 454.16 255.548 454.16 253.892C454.16 252.452 454.556 251.072 455.348 249.752C456.14 248.408 457.424 247.22 459.2 246.188C460.976 245.156 463.292 244.316 466.148 243.668C469.004 242.996 472.508 242.612 476.66 242.516V239.672C476.66 236.84 476.048 234.704 474.824 233.264C473.6 231.8 471.812 231.068 469.46 231.068C467.876 231.068 466.544 231.272 465.464 231.68C464.408 232.064 463.484 232.508 462.692 233.012C461.924 233.492 461.252 233.936 460.676 234.344C460.124 234.728 459.572 234.92 459.02 234.92C458.588 234.92 458.216 234.812 457.904 234.596C457.592 234.356 457.328 234.068 457.112 233.732L455.96 231.68ZM518.065 233.012C517.873 233.276 517.681 233.48 517.489 233.624C517.297 233.768 517.033 233.84 516.697 233.84C516.337 233.84 515.941 233.696 515.509 233.408C515.077 233.096 514.537 232.76 513.889 232.4C513.265 232.04 512.485 231.716 511.549 231.428C510.637 231.116 509.509 230.96 508.165 230.96C506.365 230.96 504.781 231.284 503.413 231.932C502.045 232.556 500.893 233.468 499.957 234.668C499.045 235.868 498.349 237.32 497.869 239.024C497.413 240.728 497.185 242.636 497.185 244.748C497.185 246.956 497.437 248.924 497.941 250.652C498.445 252.356 499.153 253.796 500.065 254.972C501.001 256.124 502.117 257.012 503.413 257.636C504.733 258.236 506.209 258.536 507.841 258.536C509.401 258.536 510.685 258.356 511.693 257.996C512.701 257.612 513.529 257.192 514.177 256.736C514.849 256.28 515.401 255.872 515.833 255.512C516.289 255.128 516.733 254.936 517.165 254.936C517.693 254.936 518.101 255.14 518.389 255.548L520.189 257.888C519.397 258.872 518.497 259.712 517.489 260.408C516.481 261.104 515.389 261.692 514.213 262.172C513.061 262.628 511.849 262.964 510.577 263.18C509.305 263.396 508.009 263.504 506.689 263.504C504.409 263.504 502.285 263.084 500.317 262.244C498.373 261.404 496.681 260.192 495.241 258.608C493.801 257 492.673 255.032 491.857 252.704C491.041 250.376 490.633 247.724 490.633 244.748C490.633 242.036 491.005 239.528 491.749 237.224C492.517 234.92 493.621 232.94 495.061 231.284C496.525 229.604 498.313 228.296 500.425 227.36C502.561 226.424 505.009 225.956 507.769 225.956C510.337 225.956 512.593 226.376 514.537 227.216C516.505 228.032 518.245 229.196 519.757 230.708L518.065 233.012ZM558.352 226.532V263H551.944V238.232C551.944 237.752 551.968 237.236 552.016 236.684C552.064 236.132 552.124 235.58 552.196 235.028C551.98 235.508 551.764 235.952 551.548 236.36C551.332 236.768 551.104 237.14 550.864 237.476L533.26 261.416C532.996 261.8 532.66 262.172 532.252 262.532C531.868 262.868 531.436 263.036 530.956 263.036H527.068V226.568H533.512V251.336C533.512 251.792 533.488 252.296 533.44 252.848C533.392 253.376 533.332 253.916 533.26 254.468C533.476 254.012 533.692 253.592 533.908 253.208C534.124 252.8 534.34 252.428 534.556 252.092L552.16 228.152C552.424 227.768 552.76 227.408 553.168 227.072C553.576 226.712 554.02 226.532 554.5 226.532H558.352ZM584.934 258.752C588.534 258.752 591.246 257.612 593.07 255.332C594.918 253.028 595.842 249.812 595.842 245.684C595.842 241.58 594.954 238.376 593.178 236.072C591.426 233.768 588.786 232.616 585.258 232.616C583.554 232.616 582.018 232.892 580.65 233.444C579.282 233.972 578.118 234.752 577.158 235.784C576.222 236.816 575.49 238.088 574.962 239.6C574.458 241.112 574.206 242.84 574.206 244.784C574.206 246.968 574.434 248.924 574.89 250.652C575.346 252.38 576.018 253.844 576.906 255.044C577.818 256.244 578.934 257.168 580.254 257.816C581.598 258.44 583.158 258.752 584.934 258.752ZM587.418 217.964C584.97 218.18 582.87 218.72 581.118 219.584C579.39 220.448 577.95 221.624 576.798 223.112C575.646 224.576 574.782 226.34 574.206 228.404C573.63 230.468 573.294 232.796 573.198 235.388C573.774 234.236 574.518 233.204 575.43 232.292C576.342 231.356 577.386 230.564 578.562 229.916C579.738 229.244 581.01 228.74 582.378 228.404C583.77 228.044 585.246 227.864 586.806 227.864C589.23 227.864 591.402 228.296 593.322 229.16C595.266 230 596.91 231.2 598.254 232.76C599.622 234.32 600.666 236.204 601.386 238.412C602.106 240.596 602.466 243.02 602.466 245.684C602.466 248.396 602.046 250.856 601.206 253.064C600.39 255.248 599.214 257.12 597.678 258.68C596.142 260.216 594.294 261.404 592.134 262.244C589.998 263.084 587.598 263.504 584.934 263.504C582.486 263.504 580.194 263.096 578.058 262.28C575.922 261.464 574.074 260.12 572.514 258.248C570.954 256.376 569.718 253.916 568.806 250.868C567.918 247.796 567.474 244.016 567.474 239.528C567.474 235.688 567.822 232.16 568.518 228.944C569.214 225.728 570.33 222.932 571.866 220.556C573.426 218.18 575.43 216.272 577.878 214.832C580.35 213.368 583.35 212.48 586.878 212.168L599.91 211.052L600.27 214.364C600.342 215.108 600.234 215.732 599.946 216.236C599.658 216.74 599.142 217.016 598.398 217.064L587.418 217.964ZM625.971 225.956C628.635 225.956 631.035 226.4 633.171 227.288C635.307 228.176 637.131 229.436 638.643 231.068C640.155 232.7 641.307 234.68 642.099 237.008C642.915 239.312 643.323 241.892 643.323 244.748C643.323 247.628 642.915 250.22 642.099 252.524C641.307 254.828 640.155 256.796 638.643 258.428C637.131 260.06 635.307 261.32 633.171 262.208C631.035 263.072 628.635 263.504 625.971 263.504C623.283 263.504 620.859 263.072 618.699 262.208C616.563 261.32 614.739 260.06 613.227 258.428C611.715 256.796 610.551 254.828 609.735 252.524C608.943 250.22 608.547 247.628 608.547 244.748C608.547 241.892 608.943 239.312 609.735 237.008C610.551 234.68 611.715 232.7 613.227 231.068C614.739 229.436 616.563 228.176 618.699 227.288C620.859 226.4 623.283 225.956 625.971 225.956ZM625.971 258.5C629.571 258.5 632.259 257.3 634.035 254.9C635.811 252.476 636.699 249.104 636.699 244.784C636.699 240.44 635.811 237.056 634.035 234.632C632.259 232.208 629.571 230.996 625.971 230.996C624.147 230.996 622.551 231.308 621.183 231.932C619.839 232.556 618.711 233.456 617.799 234.632C616.911 235.808 616.239 237.26 615.783 238.988C615.351 240.692 615.135 242.624 615.135 244.784C615.135 249.104 616.023 252.476 617.799 254.9C619.599 257.3 622.323 258.5 625.971 258.5ZM667.569 230.276C668.937 228.98 670.593 227.936 672.537 227.144C674.505 226.352 676.869 225.956 679.629 225.956C681.837 225.956 683.781 226.232 685.461 226.784C687.141 227.312 688.545 228.02 689.673 228.908C690.825 229.796 691.689 230.816 692.265 231.968C692.865 233.096 693.165 234.272 693.165 235.496C693.165 236.216 693.045 236.972 692.805 237.764C692.589 238.556 692.217 239.312 691.689 240.032C691.161 240.752 690.477 241.424 689.637 242.048C688.797 242.672 687.753 243.176 686.505 243.56C688.833 244.256 690.657 245.372 691.977 246.908C693.321 248.444 693.993 250.328 693.993 252.56C693.993 254.24 693.609 255.764 692.841 257.132C692.073 258.476 691.041 259.628 689.745 260.588C688.449 261.524 686.937 262.244 685.209 262.748C683.505 263.252 681.717 263.504 679.845 263.504C678.669 263.504 677.469 263.396 676.245 263.18C675.045 262.964 673.869 262.628 672.717 262.172C671.565 261.692 670.473 261.104 669.441 260.408C668.433 259.712 667.533 258.872 666.741 257.888L668.541 255.548C668.829 255.14 669.237 254.936 669.765 254.936C670.197 254.936 670.653 255.128 671.133 255.512C671.637 255.872 672.249 256.28 672.969 256.736C673.689 257.192 674.565 257.612 675.597 257.996C676.653 258.356 677.937 258.536 679.449 258.536C680.769 258.536 681.945 258.38 682.977 258.068C684.033 257.732 684.921 257.276 685.641 256.7C686.361 256.124 686.913 255.44 687.297 254.648C687.681 253.856 687.873 252.992 687.873 252.056C687.873 250.256 687.117 248.804 685.605 247.7C684.117 246.596 681.849 246.044 678.801 246.044H674.661V241.796H678.801C680.121 241.796 681.309 241.664 682.365 241.4C683.421 241.112 684.321 240.728 685.065 240.248C685.809 239.768 686.373 239.192 686.757 238.52C687.141 237.824 687.333 237.08 687.333 236.288C687.333 235.568 687.165 234.884 686.829 234.236C686.517 233.588 686.025 233.024 685.353 232.544C684.705 232.064 683.889 231.68 682.905 231.392C681.921 231.104 680.769 230.96 679.449 230.96C678.009 230.96 676.785 231.104 675.777 231.392C674.793 231.68 673.953 231.992 673.257 232.328C672.585 232.664 672.033 232.976 671.601 233.264C671.169 233.552 670.797 233.696 670.485 233.696C670.173 233.696 669.909 233.636 669.693 233.516C669.501 233.396 669.285 233.144 669.045 232.76L667.569 230.276ZM721.981 246.584C719.029 246.68 716.509 246.92 714.421 247.304C712.357 247.664 710.665 248.144 709.345 248.744C708.049 249.344 707.101 250.052 706.501 250.868C705.925 251.684 705.637 252.596 705.637 253.604C705.637 254.564 705.793 255.392 706.105 256.088C706.417 256.784 706.837 257.36 707.365 257.816C707.917 258.248 708.553 258.572 709.273 258.788C710.017 258.98 710.809 259.076 711.649 259.076C712.777 259.076 713.809 258.968 714.745 258.752C715.681 258.512 716.557 258.176 717.373 257.744C718.213 257.312 719.005 256.796 719.749 256.196C720.517 255.596 721.261 254.912 721.981 254.144V246.584ZM701.281 231.68C703.297 229.736 705.469 228.284 707.797 227.324C710.125 226.364 712.705 225.884 715.537 225.884C717.577 225.884 719.389 226.22 720.973 226.892C722.557 227.564 723.889 228.5 724.969 229.7C726.049 230.9 726.865 232.352 727.417 234.056C727.969 235.76 728.245 237.632 728.245 239.672V263H725.401C724.777 263 724.297 262.904 723.961 262.712C723.625 262.496 723.361 262.088 723.169 261.488L722.449 258.032C721.489 258.92 720.553 259.712 719.641 260.408C718.729 261.08 717.769 261.656 716.761 262.136C715.753 262.592 714.673 262.94 713.521 263.18C712.393 263.444 711.133 263.576 709.741 263.576C708.325 263.576 706.993 263.384 705.745 263C704.497 262.592 703.405 261.992 702.469 261.2C701.557 260.408 700.825 259.412 700.273 258.212C699.745 256.988 699.481 255.548 699.481 253.892C699.481 252.452 699.877 251.072 700.669 249.752C701.461 248.408 702.745 247.22 704.521 246.188C706.297 245.156 708.613 244.316 711.469 243.668C714.325 242.996 717.829 242.612 721.981 242.516V239.672C721.981 236.84 721.369 234.704 720.145 233.264C718.921 231.8 717.133 231.068 714.781 231.068C713.197 231.068 711.865 231.272 710.785 231.68C709.729 232.064 708.805 232.508 708.013 233.012C707.245 233.492 706.573 233.936 705.997 234.344C705.445 234.728 704.893 234.92 704.341 234.92C703.909 234.92 703.537 234.812 703.225 234.596C702.913 234.356 702.649 234.068 702.433 233.732L701.281 231.68ZM770.432 258.5C772.832 258.5 774.728 257.948 776.12 256.844C777.512 255.716 778.208 254.18 778.208 252.236C778.208 251.372 778.076 250.592 777.812 249.896C777.548 249.176 777.116 248.552 776.516 248.024C775.916 247.496 775.112 247.088 774.104 246.8C773.12 246.512 771.908 246.368 770.468 246.368H762.584V258.5H770.432ZM762.584 230.852V242.3H769.604C770.66 242.3 771.632 242.156 772.52 241.868C773.432 241.556 774.212 241.136 774.86 240.608C775.508 240.056 776.012 239.408 776.372 238.664C776.732 237.896 776.912 237.056 776.912 236.144C776.912 235.472 776.792 234.824 776.552 234.2C776.312 233.552 775.904 232.988 775.328 232.508C774.752 232.004 773.996 231.608 773.06 231.32C772.124 231.008 770.972 230.852 769.604 230.852H762.584ZM769.784 226.532C772.04 226.532 773.972 226.76 775.58 227.216C777.188 227.672 778.508 228.296 779.54 229.088C780.572 229.856 781.328 230.768 781.808 231.824C782.288 232.88 782.528 234.008 782.528 235.208C782.528 236 782.42 236.828 782.204 237.692C781.988 238.556 781.604 239.384 781.052 240.176C780.524 240.968 779.792 241.688 778.856 242.336C777.944 242.96 776.792 243.452 775.4 243.812C778.184 244.292 780.332 245.264 781.844 246.728C783.356 248.168 784.112 250.076 784.112 252.452C784.112 254.228 783.752 255.776 783.032 257.096C782.336 258.392 781.364 259.484 780.116 260.372C778.892 261.26 777.452 261.92 775.796 262.352C774.14 262.784 772.364 263 770.468 263H756.428V226.532H769.784ZM822.53 226.532V263H816.086V245.936H798.59V263H792.146V226.532H798.59V241.076H816.086V226.532H822.53ZM864.001 226.532V263H857.593V238.232C857.593 237.752 857.617 237.236 857.665 236.684C857.713 236.132 857.773 235.58 857.845 235.028C857.629 235.508 857.413 235.952 857.197 236.36C856.981 236.768 856.753 237.14 856.513 237.476L838.909 261.416C838.645 261.8 838.309 262.172 837.901 262.532C837.517 262.868 837.085 263.036 836.605 263.036H832.717V226.568H839.161V251.336C839.161 251.792 839.137 252.296 839.089 252.848C839.041 253.376 838.981 253.916 838.909 254.468C839.125 254.012 839.341 253.592 839.557 253.208C839.773 252.8 839.989 252.428 840.205 252.092L857.809 228.152C858.073 227.768 858.409 227.408 858.817 227.072C859.225 226.712 859.669 226.532 860.149 226.532H864.001ZM914.775 226.424V263H908.979V238.772C908.979 238.1 909.015 237.356 909.087 236.54C909.183 235.7 909.303 234.92 909.447 234.2L896.775 256.412C896.583 256.772 896.331 257.06 896.019 257.276C895.707 257.492 895.347 257.6 894.939 257.6H894.219C893.811 257.6 893.439 257.492 893.103 257.276C892.791 257.06 892.539 256.772 892.347 256.412L879.459 234.128C879.579 234.848 879.687 235.64 879.783 236.504C879.879 237.344 879.927 238.1 879.927 238.772V263H874.131V226.424H879.279C879.735 226.424 880.179 226.532 880.611 226.748C881.043 226.94 881.415 227.312 881.727 227.864L893.103 246.872C893.655 247.976 894.147 249.14 894.579 250.364C894.987 249.092 895.467 247.928 896.019 246.872L907.179 227.864C907.491 227.288 907.863 226.904 908.295 226.712C908.727 226.52 909.171 226.424 909.627 226.424H914.775ZM944.66 246.584C941.708 246.68 939.188 246.92 937.1 247.304C935.036 247.664 933.344 248.144 932.024 248.744C930.728 249.344 929.78 250.052 929.18 250.868C928.604 251.684 928.316 252.596 928.316 253.604C928.316 254.564 928.472 255.392 928.784 256.088C929.096 256.784 929.516 257.36 930.044 257.816C930.596 258.248 931.232 258.572 931.952 258.788C932.696 258.98 933.488 259.076 934.328 259.076C935.456 259.076 936.488 258.968 937.424 258.752C938.36 258.512 939.236 258.176 940.052 257.744C940.892 257.312 941.684 256.796 942.428 256.196C943.196 255.596 943.94 254.912 944.66 254.144V246.584ZM923.96 231.68C925.976 229.736 928.148 228.284 930.476 227.324C932.804 226.364 935.384 225.884 938.216 225.884C940.256 225.884 942.068 226.22 943.652 226.892C945.236 227.564 946.568 228.5 947.648 229.7C948.728 230.9 949.544 232.352 950.096 234.056C950.648 235.76 950.924 237.632 950.924 239.672V263H948.08C947.456 263 946.976 262.904 946.64 262.712C946.304 262.496 946.04 262.088 945.848 261.488L945.128 258.032C944.168 258.92 943.232 259.712 942.32 260.408C941.408 261.08 940.448 261.656 939.44 262.136C938.432 262.592 937.352 262.94 936.2 263.18C935.072 263.444 933.812 263.576 932.42 263.576C931.004 263.576 929.672 263.384 928.424 263C927.176 262.592 926.084 261.992 925.148 261.2C924.236 260.408 923.504 259.412 922.952 258.212C922.424 256.988 922.16 255.548 922.16 253.892C922.16 252.452 922.556 251.072 923.348 249.752C924.14 248.408 925.424 247.22 927.2 246.188C928.976 245.156 931.292 244.316 934.148 243.668C937.004 242.996 940.508 242.612 944.66 242.516V239.672C944.66 236.84 944.048 234.704 942.824 233.264C941.6 231.8 939.812 231.068 937.46 231.068C935.876 231.068 934.544 231.272 933.464 231.68C932.408 232.064 931.484 232.508 930.692 233.012C929.924 233.492 929.252 233.936 928.676 234.344C928.124 234.728 927.572 234.92 927.02 234.92C926.588 234.92 926.216 234.812 925.904 234.596C925.592 234.356 925.328 234.068 925.112 233.732L923.96 231.68ZM991.069 226.532V263H984.625V245.936H967.129V263H960.685V226.532H967.129V241.076H984.625V226.532H991.069ZM1032.54 226.532V263H1026.13V238.232C1026.13 237.752 1026.16 237.236 1026.2 236.684C1026.25 236.132 1026.31 235.58 1026.38 235.028C1026.17 235.508 1025.95 235.952 1025.74 236.36C1025.52 236.768 1025.29 237.14 1025.05 237.476L1007.45 261.416C1007.18 261.8 1006.85 262.172 1006.44 262.532C1006.06 262.868 1005.62 263.036 1005.14 263.036H1001.26V226.568H1007.7V251.336C1007.7 251.792 1007.68 252.296 1007.63 252.848C1007.58 253.376 1007.52 253.916 1007.45 254.468C1007.66 254.012 1007.88 253.592 1008.1 253.208C1008.31 252.8 1008.53 252.428 1008.74 252.092L1026.35 228.152C1026.61 227.768 1026.95 227.408 1027.36 227.072C1027.76 226.712 1028.21 226.532 1028.69 226.532H1032.54ZM1067.08 240.788C1067.08 239.3 1066.86 237.944 1066.43 236.72C1066.02 235.472 1065.41 234.404 1064.59 233.516C1063.8 232.604 1062.83 231.908 1061.68 231.428C1060.53 230.924 1059.22 230.672 1057.75 230.672C1054.68 230.672 1052.25 231.572 1050.45 233.372C1048.67 235.148 1047.57 237.62 1047.13 240.788H1067.08ZM1072.26 257.888C1071.47 258.848 1070.52 259.688 1069.42 260.408C1068.31 261.104 1067.13 261.68 1065.85 262.136C1064.61 262.592 1063.31 262.928 1061.97 263.144C1060.62 263.384 1059.29 263.504 1057.97 263.504C1055.45 263.504 1053.12 263.084 1050.99 262.244C1048.87 261.38 1047.04 260.132 1045.48 258.5C1043.94 256.844 1042.74 254.804 1041.88 252.38C1041.01 249.956 1040.58 247.172 1040.58 244.028C1040.58 241.484 1040.97 239.108 1041.73 236.9C1042.53 234.692 1043.65 232.784 1045.12 231.176C1046.58 229.544 1048.37 228.272 1050.48 227.36C1052.59 226.424 1054.97 225.956 1057.61 225.956C1059.79 225.956 1061.81 226.328 1063.66 227.072C1065.53 227.792 1067.14 228.848 1068.48 230.24C1069.85 231.608 1070.92 233.312 1071.69 235.352C1072.45 237.368 1072.84 239.672 1072.84 242.264C1072.84 243.272 1072.73 243.944 1072.51 244.28C1072.3 244.616 1071.89 244.784 1071.29 244.784H1046.92C1046.99 247.088 1047.3 249.092 1047.85 250.796C1048.43 252.5 1049.22 253.928 1050.23 255.08C1051.24 256.208 1052.44 257.06 1053.83 257.636C1055.22 258.188 1056.78 258.464 1058.51 258.464C1060.12 258.464 1061.5 258.284 1062.65 257.924C1063.83 257.54 1064.83 257.132 1065.67 256.7C1066.51 256.268 1067.21 255.872 1067.76 255.512C1068.34 255.128 1068.83 254.936 1069.24 254.936C1069.77 254.936 1070.17 255.14 1070.46 255.548L1072.26 257.888Z" fill="#F8F8F2"/>
<path d="M580.966 430.456C582.958 430.456 584.674 430.228 586.114 429.772C587.554 429.316 588.73 428.68 589.642 427.864C590.578 427.024 591.262 426.04 591.694 424.912C592.126 423.76 592.342 422.5 592.342 421.132C592.342 418.468 591.394 416.368 589.498 414.832C587.602 413.272 584.758 412.492 580.966 412.492H569.806V430.456H580.966ZM569.806 389.92V407.524H579.022C580.99 407.524 582.694 407.308 584.134 406.876C585.598 406.444 586.798 405.844 587.734 405.076C588.694 404.308 589.402 403.384 589.858 402.304C590.314 401.2 590.542 400 590.542 398.704C590.542 395.656 589.63 393.436 587.806 392.044C585.982 390.628 583.15 389.92 579.31 389.92H569.806ZM579.31 384.412C582.478 384.412 585.202 384.724 587.482 385.348C589.786 385.972 591.67 386.86 593.134 388.012C594.622 389.164 595.714 390.58 596.41 392.26C597.106 393.916 597.454 395.788 597.454 397.876C597.454 399.148 597.25 400.372 596.842 401.548C596.458 402.7 595.87 403.78 595.078 404.788C594.286 405.796 593.278 406.708 592.054 407.524C590.854 408.316 589.438 408.964 587.806 409.468C591.598 410.188 594.442 411.544 596.338 413.536C598.258 415.504 599.218 418.096 599.218 421.312C599.218 423.496 598.81 425.488 597.994 427.288C597.202 429.088 596.026 430.636 594.466 431.932C592.93 433.228 591.034 434.236 588.778 434.956C586.522 435.652 583.954 436 581.074 436H562.858V384.412H579.31ZM622.702 398.956C625.366 398.956 627.766 399.4 629.902 400.288C632.038 401.176 633.862 402.436 635.374 404.068C636.886 405.7 638.038 407.68 638.83 410.008C639.646 412.312 640.054 414.892 640.054 417.748C640.054 420.628 639.646 423.22 638.83 425.524C638.038 427.828 636.886 429.796 635.374 431.428C633.862 433.06 632.038 434.32 629.902 435.208C627.766 436.072 625.366 436.504 622.702 436.504C620.014 436.504 617.59 436.072 615.43 435.208C613.294 434.32 611.47 433.06 609.958 431.428C608.446 429.796 607.282 427.828 606.466 425.524C605.674 423.22 605.278 420.628 605.278 417.748C605.278 414.892 605.674 412.312 606.466 410.008C607.282 407.68 608.446 405.7 609.958 404.068C611.47 402.436 613.294 401.176 615.43 400.288C617.59 399.4 620.014 398.956 622.702 398.956ZM622.702 431.5C626.302 431.5 628.99 430.3 630.766 427.9C632.542 425.476 633.43 422.104 633.43 417.784C633.43 413.44 632.542 410.056 630.766 407.632C628.99 405.208 626.302 403.996 622.702 403.996C620.878 403.996 619.282 404.308 617.914 404.932C616.57 405.556 615.442 406.456 614.53 407.632C613.642 408.808 612.97 410.26 612.514 411.988C612.082 413.692 611.866 415.624 611.866 417.784C611.866 422.104 612.754 425.476 614.53 427.9C616.33 430.3 619.054 431.5 622.702 431.5ZM678.565 436H672.121V404.428H654.625V436H648.181V399.532H678.565V436ZM695.196 427.216C696.372 428.8 697.656 429.916 699.048 430.564C700.44 431.212 702 431.536 703.728 431.536C707.136 431.536 709.752 430.324 711.576 427.9C713.4 425.476 714.312 422.02 714.312 417.532C714.312 415.156 714.096 413.116 713.664 411.412C713.256 409.708 712.656 408.316 711.864 407.236C711.072 406.132 710.1 405.328 708.948 404.824C707.796 404.32 706.488 404.068 705.024 404.068C702.936 404.068 701.1 404.548 699.516 405.508C697.956 406.468 696.516 407.824 695.196 409.576V427.216ZM694.872 405.184C696.408 403.288 698.184 401.764 700.2 400.612C702.216 399.46 704.52 398.884 707.112 398.884C709.224 398.884 711.132 399.292 712.836 400.108C714.54 400.9 715.992 402.088 717.192 403.672C718.392 405.232 719.316 407.176 719.964 409.504C720.612 411.832 720.936 414.508 720.936 417.532C720.936 420.22 720.576 422.728 719.856 425.056C719.136 427.36 718.092 429.364 716.724 431.068C715.38 432.748 713.724 434.08 711.756 435.064C709.812 436.024 707.616 436.504 705.168 436.504C702.936 436.504 701.016 436.132 699.408 435.388C697.824 434.62 696.42 433.564 695.196 432.22V448.348H688.752V399.532H692.604C693.516 399.532 694.08 399.976 694.296 400.864L694.872 405.184ZM744.413 398.956C747.077 398.956 749.477 399.4 751.613 400.288C753.749 401.176 755.573 402.436 757.085 404.068C758.597 405.7 759.749 407.68 760.541 410.008C761.357 412.312 761.765 414.892 761.765 417.748C761.765 420.628 761.357 423.22 760.541 425.524C759.749 427.828 758.597 429.796 757.085 431.428C755.573 433.06 753.749 434.32 751.613 435.208C749.477 436.072 747.077 436.504 744.413 436.504C741.725 436.504 739.301 436.072 737.141 435.208C735.005 434.32 733.181 433.06 731.669 431.428C730.157 429.796 728.993 427.828 728.177 425.524C727.385 423.22 726.989 420.628 726.989 417.748C726.989 414.892 727.385 412.312 728.177 410.008C728.993 407.68 730.157 405.7 731.669 404.068C733.181 402.436 735.005 401.176 737.141 400.288C739.301 399.4 741.725 398.956 744.413 398.956ZM744.413 431.5C748.013 431.5 750.701 430.3 752.477 427.9C754.253 425.476 755.141 422.104 755.141 417.784C755.141 413.44 754.253 410.056 752.477 407.632C750.701 405.208 748.013 403.996 744.413 403.996C742.589 403.996 740.993 404.308 739.625 404.932C738.281 405.556 737.153 406.456 736.241 407.632C735.353 408.808 734.681 410.26 734.225 411.988C733.793 413.692 733.577 415.624 733.577 417.784C733.577 422.104 734.465 425.476 736.241 427.9C738.041 430.3 740.765 431.5 744.413 431.5ZM795.272 406.012C795.08 406.276 794.888 406.48 794.696 406.624C794.504 406.768 794.24 406.84 793.904 406.84C793.544 406.84 793.148 406.696 792.716 406.408C792.284 406.096 791.744 405.76 791.096 405.4C790.472 405.04 789.692 404.716 788.756 404.428C787.844 404.116 786.716 403.96 785.372 403.96C783.572 403.96 781.988 404.284 780.62 404.932C779.252 405.556 778.1 406.468 777.164 407.668C776.252 408.868 775.556 410.32 775.076 412.024C774.62 413.728 774.392 415.636 774.392 417.748C774.392 419.956 774.644 421.924 775.148 423.652C775.652 425.356 776.36 426.796 777.272 427.972C778.208 429.124 779.324 430.012 780.62 430.636C781.94 431.236 783.416 431.536 785.048 431.536C786.608 431.536 787.892 431.356 788.9 430.996C789.908 430.612 790.736 430.192 791.384 429.736C792.056 429.28 792.608 428.872 793.04 428.512C793.496 428.128 793.94 427.936 794.372 427.936C794.9 427.936 795.308 428.14 795.596 428.548L797.396 430.888C796.604 431.872 795.704 432.712 794.696 433.408C793.688 434.104 792.596 434.692 791.42 435.172C790.268 435.628 789.056 435.964 787.784 436.18C786.512 436.396 785.216 436.504 783.896 436.504C781.616 436.504 779.492 436.084 777.524 435.244C775.58 434.404 773.888 433.192 772.448 431.608C771.008 430 769.88 428.032 769.064 425.704C768.248 423.376 767.84 420.724 767.84 417.748C767.84 415.036 768.212 412.528 768.956 410.224C769.724 407.92 770.828 405.94 772.268 404.284C773.732 402.604 775.52 401.296 777.632 400.36C779.768 399.424 782.216 398.956 784.976 398.956C787.544 398.956 789.8 399.376 791.744 400.216C793.712 401.032 795.452 402.196 796.964 403.708L795.272 406.012ZM818.279 431.32C819.575 431.32 820.691 431.164 821.627 430.852C822.587 430.516 823.379 430.06 824.003 429.484C824.627 428.884 825.095 428.188 825.407 427.396C825.719 426.604 825.875 425.74 825.875 424.804C825.875 423.94 825.743 423.136 825.479 422.392C825.215 421.624 824.771 420.952 824.147 420.376C823.547 419.8 822.755 419.344 821.771 419.008C820.787 418.672 819.587 418.504 818.171 418.504H810.395V431.32H818.279ZM818.171 413.824C820.691 413.824 822.803 414.124 824.507 414.724C826.235 415.324 827.615 416.128 828.647 417.136C829.703 418.144 830.459 419.308 830.915 420.628C831.371 421.948 831.599 423.316 831.599 424.732C831.599 426.364 831.311 427.876 830.735 429.268C830.159 430.636 829.307 431.824 828.179 432.832C827.051 433.816 825.659 434.596 824.003 435.172C822.347 435.724 820.439 436 818.279 436H804.275V399.532H810.395V413.824H818.171ZM846.035 399.532V436H839.627V399.532H846.035ZM853.443 389.02C854.187 388.324 855.003 387.664 855.891 387.04C856.803 386.416 857.787 385.864 858.843 385.384C859.923 384.904 861.075 384.532 862.299 384.268C863.547 383.98 864.891 383.836 866.331 383.836C868.227 383.836 869.979 384.112 871.587 384.664C873.219 385.216 874.623 385.996 875.799 387.004C876.975 388.012 877.899 389.236 878.571 390.676C879.243 392.116 879.579 393.736 879.579 395.536C879.579 397.36 879.303 398.932 878.751 400.252C878.223 401.572 877.539 402.736 876.699 403.744C875.883 404.728 874.983 405.592 873.999 406.336C873.039 407.056 872.127 407.74 871.263 408.388C870.399 409.036 869.655 409.684 869.031 410.332C868.431 410.98 868.083 411.7 867.987 412.492L867.339 418H862.947L862.515 412.024C862.419 410.944 862.623 410.008 863.127 409.216C863.631 408.4 864.291 407.644 865.107 406.948C865.923 406.228 866.823 405.532 867.807 404.86C868.791 404.164 869.703 403.396 870.543 402.556C871.407 401.716 872.127 400.768 872.703 399.712C873.279 398.632 873.567 397.348 873.567 395.86C873.567 394.828 873.363 393.892 872.955 393.052C872.547 392.212 871.995 391.504 871.299 390.928C870.603 390.328 869.775 389.872 868.815 389.56C867.879 389.248 866.871 389.092 865.791 389.092C864.327 389.092 863.067 389.272 862.011 389.632C860.979 389.992 860.103 390.388 859.383 390.82C858.663 391.252 858.075 391.648 857.619 392.008C857.187 392.368 856.827 392.548 856.539 392.548C855.939 392.548 855.471 392.272 855.135 391.72L853.443 389.02ZM860.463 432.04C860.463 431.416 860.571 430.828 860.787 430.276C861.027 429.724 861.339 429.244 861.723 428.836C862.131 428.428 862.611 428.104 863.163 427.864C863.715 427.624 864.303 427.504 864.927 427.504C865.551 427.504 866.139 427.624 866.691 427.864C867.243 428.104 867.723 428.428 868.131 428.836C868.539 429.244 868.863 429.724 869.103 430.276C869.343 430.828 869.463 431.416 869.463 432.04C869.463 432.688 869.343 433.288 869.103 433.84C868.863 434.368 868.539 434.836 868.131 435.244C867.723 435.652 867.243 435.964 866.691 436.18C866.139 436.42 865.551 436.54 864.927 436.54C864.303 436.54 863.715 436.42 863.163 436.18C862.611 435.964 862.131 435.652 861.723 435.244C861.339 434.836 861.027 434.368 860.787 433.84C860.571 433.288 860.463 432.688 860.463 432.04Z" fill="#FD9621"/>
<path d="M565.406 684.296L560.456 671.47C560.309 671.089 560.155 670.649 559.994 670.15C559.832 669.637 559.678 669.094 559.532 668.522C559.224 669.71 558.908 670.7 558.586 671.492L553.636 684.296H565.406ZM574.294 696H570.994C570.612 696 570.304 695.905 570.07 695.714C569.835 695.523 569.659 695.281 569.542 694.988L566.594 687.376H552.448L549.5 694.988C549.412 695.252 549.243 695.487 548.994 695.692C548.744 695.897 548.429 696 548.048 696H544.77L557.376 664.474H561.688L574.294 696ZM597.398 696H593.482V676.794H586.442C586.266 679.625 586.002 682.074 585.65 684.142C585.298 686.195 584.872 687.948 584.374 689.4C583.89 690.837 583.34 692.011 582.724 692.92C582.122 693.815 581.484 694.511 580.81 695.01C580.15 695.509 579.46 695.846 578.742 696.022C578.038 696.198 577.334 696.286 576.63 696.286C575.383 696.286 574.76 696.088 574.76 695.692V693.206H575.904C576.402 693.206 576.908 693.118 577.422 692.942C577.935 692.766 578.434 692.429 578.918 691.93C579.416 691.431 579.893 690.735 580.348 689.84C580.802 688.931 581.213 687.757 581.58 686.32C581.961 684.868 582.284 683.115 582.548 681.062C582.826 678.994 583.039 676.545 583.186 673.714H597.398V696ZM618.516 682.426C618.516 681.517 618.384 680.688 618.12 679.94C617.871 679.177 617.497 678.525 616.998 677.982C616.514 677.425 615.92 676.999 615.216 676.706C614.512 676.398 613.713 676.244 612.818 676.244C610.941 676.244 609.452 676.794 608.352 677.894C607.267 678.979 606.592 680.49 606.328 682.426H618.516ZM621.684 692.876C621.2 693.463 620.621 693.976 619.946 694.416C619.271 694.841 618.545 695.193 617.768 695.472C617.005 695.751 616.213 695.956 615.392 696.088C614.571 696.235 613.757 696.308 612.95 696.308C611.41 696.308 609.987 696.051 608.682 695.538C607.391 695.01 606.269 694.247 605.316 693.25C604.377 692.238 603.644 690.991 603.116 689.51C602.588 688.029 602.324 686.327 602.324 684.406C602.324 682.851 602.559 681.399 603.028 680.05C603.512 678.701 604.201 677.535 605.096 676.552C605.991 675.555 607.083 674.777 608.374 674.22C609.665 673.648 611.117 673.362 612.73 673.362C614.065 673.362 615.297 673.589 616.426 674.044C617.57 674.484 618.553 675.129 619.374 675.98C620.21 676.816 620.863 677.857 621.332 679.104C621.801 680.336 622.036 681.744 622.036 683.328C622.036 683.944 621.97 684.355 621.838 684.56C621.706 684.765 621.457 684.868 621.09 684.868H606.196C606.24 686.276 606.431 687.501 606.768 688.542C607.12 689.583 607.604 690.456 608.22 691.16C608.836 691.849 609.569 692.37 610.42 692.722C611.271 693.059 612.224 693.228 613.28 693.228C614.263 693.228 615.106 693.118 615.81 692.898C616.529 692.663 617.145 692.414 617.658 692.15C618.171 691.886 618.597 691.644 618.934 691.424C619.286 691.189 619.587 691.072 619.836 691.072C620.159 691.072 620.408 691.197 620.584 691.446L621.684 692.876ZM640.376 674.814C640.581 674.491 640.853 674.227 641.19 674.022C641.527 673.817 641.887 673.714 642.268 673.714H645.326L639.54 682.206C639.188 682.749 638.821 683.196 638.44 683.548C638.059 683.885 637.589 684.149 637.032 684.34C637.736 684.531 638.33 684.831 638.814 685.242C639.298 685.638 639.731 686.151 640.112 686.782L645.964 696H643.236C642.532 696 641.989 695.883 641.608 695.648C641.227 695.413 640.897 695.076 640.618 694.636L636.284 687.706C635.595 686.562 634.561 685.99 633.182 685.99H630.784V696.022H626.846V673.714H630.784V683.35H632.896C634.069 683.35 634.986 682.851 635.646 681.854L640.376 674.814ZM664.27 677.674C664.153 677.835 664.036 677.96 663.918 678.048C663.801 678.136 663.64 678.18 663.434 678.18C663.214 678.18 662.972 678.092 662.708 677.916C662.444 677.725 662.114 677.52 661.718 677.3C661.337 677.08 660.86 676.882 660.288 676.706C659.731 676.515 659.042 676.42 658.22 676.42C657.12 676.42 656.152 676.618 655.316 677.014C654.48 677.395 653.776 677.953 653.204 678.686C652.647 679.419 652.222 680.307 651.928 681.348C651.65 682.389 651.51 683.555 651.51 684.846C651.51 686.195 651.664 687.398 651.972 688.454C652.28 689.495 652.713 690.375 653.27 691.094C653.842 691.798 654.524 692.341 655.316 692.722C656.123 693.089 657.025 693.272 658.022 693.272C658.976 693.272 659.76 693.162 660.376 692.942C660.992 692.707 661.498 692.451 661.894 692.172C662.305 691.893 662.642 691.644 662.906 691.424C663.185 691.189 663.456 691.072 663.72 691.072C664.043 691.072 664.292 691.197 664.468 691.446L665.568 692.876C665.084 693.477 664.534 693.991 663.918 694.416C663.302 694.841 662.635 695.201 661.916 695.494C661.212 695.773 660.472 695.978 659.694 696.11C658.917 696.242 658.125 696.308 657.318 696.308C655.925 696.308 654.627 696.051 653.424 695.538C652.236 695.025 651.202 694.284 650.322 693.316C649.442 692.333 648.753 691.131 648.254 689.708C647.756 688.285 647.506 686.665 647.506 684.846C647.506 683.189 647.734 681.656 648.188 680.248C648.658 678.84 649.332 677.63 650.212 676.618C651.107 675.591 652.2 674.792 653.49 674.22C654.796 673.648 656.292 673.362 657.978 673.362C659.548 673.362 660.926 673.619 662.114 674.132C663.317 674.631 664.38 675.342 665.304 676.266L664.27 677.674ZM681.85 685.968C680.046 686.027 678.506 686.173 677.23 686.408C675.969 686.628 674.935 686.921 674.128 687.288C673.336 687.655 672.757 688.087 672.39 688.586C672.038 689.085 671.862 689.642 671.862 690.258C671.862 690.845 671.957 691.351 672.148 691.776C672.339 692.201 672.595 692.553 672.918 692.832C673.255 693.096 673.644 693.294 674.084 693.426C674.539 693.543 675.023 693.602 675.536 693.602C676.225 693.602 676.856 693.536 677.428 693.404C678 693.257 678.535 693.052 679.034 692.788C679.547 692.524 680.031 692.209 680.486 691.842C680.955 691.475 681.41 691.057 681.85 690.588V685.968ZM669.2 676.86C670.432 675.672 671.759 674.785 673.182 674.198C674.605 673.611 676.181 673.318 677.912 673.318C679.159 673.318 680.266 673.523 681.234 673.934C682.202 674.345 683.016 674.917 683.676 675.65C684.336 676.383 684.835 677.271 685.172 678.312C685.509 679.353 685.678 680.497 685.678 681.744V696H683.94C683.559 696 683.265 695.941 683.06 695.824C682.855 695.692 682.693 695.443 682.576 695.076L682.136 692.964C681.549 693.507 680.977 693.991 680.42 694.416C679.863 694.827 679.276 695.179 678.66 695.472C678.044 695.751 677.384 695.963 676.68 696.11C675.991 696.271 675.221 696.352 674.37 696.352C673.505 696.352 672.691 696.235 671.928 696C671.165 695.751 670.498 695.384 669.926 694.9C669.369 694.416 668.921 693.807 668.584 693.074C668.261 692.326 668.1 691.446 668.1 690.434C668.1 689.554 668.342 688.711 668.826 687.904C669.31 687.083 670.095 686.357 671.18 685.726C672.265 685.095 673.681 684.582 675.426 684.186C677.171 683.775 679.313 683.541 681.85 683.482V681.744C681.85 680.013 681.476 678.708 680.728 677.828C679.98 676.933 678.887 676.486 677.45 676.486C676.482 676.486 675.668 676.611 675.008 676.86C674.363 677.095 673.798 677.366 673.314 677.674C672.845 677.967 672.434 678.239 672.082 678.488C671.745 678.723 671.407 678.84 671.07 678.84C670.806 678.84 670.579 678.774 670.388 678.642C670.197 678.495 670.036 678.319 669.904 678.114L669.2 676.86ZM710.211 673.714V696H706.273V685.572H695.581V696H691.643V673.714H695.581V682.602H706.273V673.714H710.211ZM731.792 693.14V676.794H724.73C724.583 679.082 724.378 681.106 724.114 682.866C723.85 684.626 723.542 686.173 723.19 687.508C722.853 688.828 722.471 689.95 722.046 690.874C721.635 691.798 721.203 692.553 720.748 693.14H731.792ZM739.668 693.03V702.468C739.668 702.849 739.558 703.143 739.338 703.348C739.133 703.568 738.861 703.678 738.524 703.678H736.126V696H717.382V702.556C717.382 702.835 717.294 703.091 717.118 703.326C716.957 703.561 716.685 703.678 716.304 703.678H713.84V693.14H714.566C715.079 693.14 715.585 693.052 716.084 692.876C716.597 692.7 717.089 692.37 717.558 691.886C718.027 691.387 718.467 690.691 718.878 689.796C719.303 688.901 719.685 687.735 720.022 686.298C720.359 684.861 720.653 683.115 720.902 681.062C721.151 678.994 721.349 676.545 721.496 673.714H735.598V693.03H739.668ZM747.573 690.632C748.292 691.6 749.077 692.282 749.927 692.678C750.778 693.074 751.731 693.272 752.787 693.272C754.87 693.272 756.469 692.531 757.583 691.05C758.698 689.569 759.255 687.457 759.255 684.714C759.255 683.262 759.123 682.015 758.859 680.974C758.61 679.933 758.243 679.082 757.759 678.422C757.275 677.747 756.681 677.256 755.977 676.948C755.273 676.64 754.474 676.486 753.579 676.486C752.303 676.486 751.181 676.779 750.213 677.366C749.26 677.953 748.38 678.781 747.573 679.852V690.632ZM747.375 677.168C748.314 676.009 749.399 675.078 750.631 674.374C751.863 673.67 753.271 673.318 754.855 673.318C756.146 673.318 757.312 673.567 758.353 674.066C759.395 674.55 760.282 675.276 761.015 676.244C761.749 677.197 762.313 678.385 762.709 679.808C763.105 681.231 763.303 682.866 763.303 684.714C763.303 686.357 763.083 687.889 762.643 689.312C762.203 690.72 761.565 691.945 760.729 692.986C759.908 694.013 758.896 694.827 757.693 695.428C756.505 696.015 755.163 696.308 753.667 696.308C752.303 696.308 751.13 696.081 750.147 695.626C749.179 695.157 748.321 694.511 747.573 693.69V703.546H743.635V673.714H745.989C746.547 673.714 746.891 673.985 747.023 674.528L747.375 677.168ZM789.744 680.82C790.961 680.82 792.032 680.659 792.956 680.336C793.895 680.013 794.679 679.566 795.31 678.994C795.955 678.407 796.439 677.711 796.762 676.904C797.085 676.097 797.246 675.21 797.246 674.242C797.246 672.233 796.623 670.663 795.376 669.534C794.144 668.405 792.267 667.84 789.744 667.84H784.684V680.82H789.744ZM789.744 664.474C791.739 664.474 793.469 664.709 794.936 665.178C796.417 665.633 797.642 666.285 798.61 667.136C799.578 667.987 800.297 669.013 800.766 670.216C801.25 671.419 801.492 672.761 801.492 674.242C801.492 675.709 801.235 677.051 800.722 678.268C800.209 679.485 799.453 680.534 798.456 681.414C797.473 682.294 796.249 682.983 794.782 683.482C793.33 683.966 791.651 684.208 789.744 684.208H784.684V696H780.438V664.474H789.744ZM825.168 673.714L812.738 702.578C812.606 702.871 812.437 703.106 812.232 703.282C812.041 703.458 811.741 703.546 811.33 703.546H808.426L812.496 694.702L803.3 673.714H806.688C807.025 673.714 807.289 673.802 807.48 673.978C807.685 674.139 807.825 674.323 807.898 674.528L813.86 688.564C814.095 689.18 814.293 689.825 814.454 690.5C814.659 689.811 814.879 689.158 815.114 688.542L820.9 674.528C820.988 674.293 821.135 674.103 821.34 673.956C821.56 673.795 821.802 673.714 822.066 673.714H825.168ZM846.144 696H842.228V676.794H835.188C835.012 679.625 834.748 682.074 834.396 684.142C834.044 686.195 833.619 687.948 833.12 689.4C832.636 690.837 832.086 692.011 831.47 692.92C830.869 693.815 830.231 694.511 829.556 695.01C828.896 695.509 828.207 695.846 827.488 696.022C826.784 696.198 826.08 696.286 825.376 696.286C824.129 696.286 823.506 696.088 823.506 695.692V693.206H824.65C825.149 693.206 825.655 693.118 826.168 692.942C826.681 692.766 827.18 692.429 827.664 691.93C828.163 691.431 828.639 690.735 829.094 689.84C829.549 688.931 829.959 687.757 830.326 686.32C830.707 684.868 831.03 683.115 831.294 681.062C831.573 678.994 831.785 676.545 831.932 673.714H846.144V696ZM867.262 682.426C867.262 681.517 867.13 680.688 866.866 679.94C866.617 679.177 866.243 678.525 865.744 677.982C865.26 677.425 864.666 676.999 863.962 676.706C863.258 676.398 862.459 676.244 861.564 676.244C859.687 676.244 858.198 676.794 857.098 677.894C856.013 678.979 855.338 680.49 855.074 682.426H867.262ZM870.43 692.876C869.946 693.463 869.367 693.976 868.692 694.416C868.017 694.841 867.291 695.193 866.514 695.472C865.751 695.751 864.959 695.956 864.138 696.088C863.317 696.235 862.503 696.308 861.696 696.308C860.156 696.308 858.733 696.051 857.428 695.538C856.137 695.01 855.015 694.247 854.062 693.25C853.123 692.238 852.39 690.991 851.862 689.51C851.334 688.029 851.07 686.327 851.07 684.406C851.07 682.851 851.305 681.399 851.774 680.05C852.258 678.701 852.947 677.535 853.842 676.552C854.737 675.555 855.829 674.777 857.12 674.22C858.411 673.648 859.863 673.362 861.476 673.362C862.811 673.362 864.043 673.589 865.172 674.044C866.316 674.484 867.299 675.129 868.12 675.98C868.956 676.816 869.609 677.857 870.078 679.104C870.547 680.336 870.782 681.744 870.782 683.328C870.782 683.944 870.716 684.355 870.584 684.56C870.452 684.765 870.203 684.868 869.836 684.868H854.942C854.986 686.276 855.177 687.501 855.514 688.542C855.866 689.583 856.35 690.456 856.966 691.16C857.582 691.849 858.315 692.37 859.166 692.722C860.017 693.059 860.97 693.228 862.026 693.228C863.009 693.228 863.852 693.118 864.556 692.898C865.275 692.663 865.891 692.414 866.404 692.15C866.917 691.886 867.343 691.644 867.68 691.424C868.032 691.189 868.333 691.072 868.582 691.072C868.905 691.072 869.154 691.197 869.33 691.446L870.43 692.876ZM859.848 667.642C859.848 667.979 859.782 668.295 859.65 668.588C859.518 668.881 859.335 669.138 859.1 669.358C858.865 669.578 858.594 669.754 858.286 669.886C857.993 670.018 857.677 670.084 857.34 670.084C857.017 670.084 856.709 670.018 856.416 669.886C856.123 669.754 855.859 669.578 855.624 669.358C855.404 669.138 855.228 668.881 855.096 668.588C854.964 668.295 854.898 667.979 854.898 667.642C854.898 667.305 854.964 666.982 855.096 666.674C855.228 666.366 855.404 666.102 855.624 665.882C855.859 665.647 856.123 665.464 856.416 665.332C856.709 665.2 857.017 665.134 857.34 665.134C857.677 665.134 857.993 665.2 858.286 665.332C858.594 665.464 858.865 665.647 859.1 665.882C859.335 666.102 859.518 666.366 859.65 666.674C859.782 666.982 859.848 667.305 859.848 667.642ZM868.23 667.642C868.23 667.979 868.164 668.295 868.032 668.588C867.9 668.881 867.717 669.138 867.482 669.358C867.262 669.578 866.998 669.754 866.69 669.886C866.397 670.018 866.081 670.084 865.744 670.084C865.407 670.084 865.084 670.018 864.776 669.886C864.483 669.754 864.226 669.578 864.006 669.358C863.786 669.138 863.61 668.881 863.478 668.588C863.346 668.295 863.28 667.979 863.28 667.642C863.28 667.305 863.346 666.982 863.478 666.674C863.61 666.366 863.786 666.102 864.006 665.882C864.226 665.647 864.483 665.464 864.776 665.332C865.084 665.2 865.407 665.134 865.744 665.134C866.081 665.134 866.397 665.2 866.69 665.332C866.998 665.464 867.262 665.647 867.482 665.882C867.717 666.102 867.9 666.366 868.032 666.674C868.164 666.982 868.23 667.305 868.23 667.642ZM884.15 693.25C885.617 693.25 886.776 692.913 887.626 692.238C888.477 691.549 888.902 690.61 888.902 689.422C888.902 688.894 888.822 688.417 888.66 687.992C888.499 687.552 888.235 687.171 887.868 686.848C887.502 686.525 887.01 686.276 886.394 686.1C885.793 685.924 885.052 685.836 884.172 685.836H879.354V693.25H884.15ZM879.354 676.354V683.35H883.644C884.29 683.35 884.884 683.262 885.426 683.086C885.984 682.895 886.46 682.639 886.856 682.316C887.252 681.979 887.56 681.583 887.78 681.128C888 680.659 888.11 680.145 888.11 679.588C888.11 679.177 888.037 678.781 887.89 678.4C887.744 678.004 887.494 677.659 887.142 677.366C886.79 677.058 886.328 676.816 885.756 676.64C885.184 676.449 884.48 676.354 883.644 676.354H879.354ZM883.754 673.714C885.133 673.714 886.314 673.853 887.296 674.132C888.279 674.411 889.086 674.792 889.716 675.276C890.347 675.745 890.809 676.303 891.102 676.948C891.396 677.593 891.542 678.283 891.542 679.016C891.542 679.5 891.476 680.006 891.344 680.534C891.212 681.062 890.978 681.568 890.64 682.052C890.318 682.536 889.87 682.976 889.298 683.372C888.741 683.753 888.037 684.054 887.186 684.274C888.888 684.567 890.2 685.161 891.124 686.056C892.048 686.936 892.51 688.102 892.51 689.554C892.51 690.639 892.29 691.585 891.85 692.392C891.425 693.184 890.831 693.851 890.068 694.394C889.32 694.937 888.44 695.34 887.428 695.604C886.416 695.868 885.331 696 884.172 696H875.592V673.714H883.754ZM558.665 801H554.837C554.411 801 554.045 800.89 553.737 800.67C553.443 800.435 553.165 800.098 552.901 799.658L544.563 788.108C544.181 787.536 543.771 787.14 543.331 786.92C542.891 786.685 542.289 786.568 541.527 786.568H537.743V801H533.497V769.474H537.743V783.29H541.021C541.681 783.29 542.238 783.187 542.693 782.982C543.162 782.777 543.624 782.373 544.079 781.772L552.329 770.684C552.549 770.332 552.813 770.046 553.121 769.826C553.443 769.591 553.817 769.474 554.243 769.474H557.829L548.303 782.432C547.584 783.444 546.66 784.141 545.531 784.522C546.308 784.727 546.961 785.057 547.489 785.512C548.031 785.952 548.545 786.568 549.029 787.36L558.665 801ZM569.81 778.362C571.438 778.362 572.905 778.633 574.21 779.176C575.516 779.719 576.63 780.489 577.554 781.486C578.478 782.483 579.182 783.693 579.666 785.116C580.165 786.524 580.414 788.101 580.414 789.846C580.414 791.606 580.165 793.19 579.666 794.598C579.182 796.006 578.478 797.209 577.554 798.206C576.63 799.203 575.516 799.973 574.21 800.516C572.905 801.044 571.438 801.308 569.81 801.308C568.168 801.308 566.686 801.044 565.366 800.516C564.061 799.973 562.946 799.203 562.022 798.206C561.098 797.209 560.387 796.006 559.888 794.598C559.404 793.19 559.162 791.606 559.162 789.846C559.162 788.101 559.404 786.524 559.888 785.116C560.387 783.693 561.098 782.483 562.022 781.486C562.946 780.489 564.061 779.719 565.366 779.176C566.686 778.633 568.168 778.362 569.81 778.362ZM569.81 798.25C572.01 798.25 573.653 797.517 574.738 796.05C575.824 794.569 576.366 792.508 576.366 789.868C576.366 787.213 575.824 785.145 574.738 783.664C573.653 782.183 572.01 781.442 569.81 781.442C568.696 781.442 567.72 781.633 566.884 782.014C566.063 782.395 565.374 782.945 564.816 783.664C564.274 784.383 563.863 785.27 563.584 786.326C563.32 787.367 563.188 788.548 563.188 789.868C563.188 792.508 563.731 794.569 564.816 796.05C565.916 797.517 567.581 798.25 569.81 798.25ZM603.949 778.714V801H600.011V790.572H589.319V801H585.381V778.714H589.319V787.602H600.011V778.714H603.949ZM628.698 781.706H620.14V801H616.224V781.706H607.666V778.714H628.698V781.706ZM644.295 790.968C642.491 791.027 640.951 791.173 639.675 791.408C638.414 791.628 637.38 791.921 636.573 792.288C635.781 792.655 635.202 793.087 634.835 793.586C634.483 794.085 634.307 794.642 634.307 795.258C634.307 795.845 634.403 796.351 634.593 796.776C634.784 797.201 635.041 797.553 635.363 797.832C635.701 798.096 636.089 798.294 636.529 798.426C636.984 798.543 637.468 798.602 637.981 798.602C638.671 798.602 639.301 798.536 639.873 798.404C640.445 798.257 640.981 798.052 641.479 797.788C641.993 797.524 642.477 797.209 642.931 796.842C643.401 796.475 643.855 796.057 644.295 795.588V790.968ZM631.645 781.86C632.877 780.672 634.205 779.785 635.627 779.198C637.05 778.611 638.627 778.318 640.357 778.318C641.604 778.318 642.711 778.523 643.679 778.934C644.647 779.345 645.461 779.917 646.121 780.65C646.781 781.383 647.28 782.271 647.617 783.312C647.955 784.353 648.123 785.497 648.123 786.744V801H646.385C646.004 801 645.711 800.941 645.505 800.824C645.3 800.692 645.139 800.443 645.021 800.076L644.581 797.964C643.995 798.507 643.423 798.991 642.865 799.416C642.308 799.827 641.721 800.179 641.105 800.472C640.489 800.751 639.829 800.963 639.125 801.11C638.436 801.271 637.666 801.352 636.815 801.352C635.95 801.352 635.136 801.235 634.373 801C633.611 800.751 632.943 800.384 632.371 799.9C631.814 799.416 631.367 798.807 631.029 798.074C630.707 797.326 630.545 796.446 630.545 795.434C630.545 794.554 630.787 793.711 631.271 792.904C631.755 792.083 632.54 791.357 633.625 790.726C634.711 790.095 636.126 789.582 637.871 789.186C639.617 788.775 641.758 788.541 644.295 788.482V786.744C644.295 785.013 643.921 783.708 643.173 782.828C642.425 781.933 641.333 781.486 639.895 781.486C638.927 781.486 638.113 781.611 637.453 781.86C636.808 782.095 636.243 782.366 635.759 782.674C635.29 782.967 634.879 783.239 634.527 783.488C634.19 783.723 633.853 783.84 633.515 783.84C633.251 783.84 633.024 783.774 632.833 783.642C632.643 783.495 632.481 783.319 632.349 783.114L631.645 781.86ZM667.618 779.814C667.824 779.491 668.095 779.227 668.432 779.022C668.77 778.817 669.129 778.714 669.51 778.714H672.568L666.782 787.206C666.43 787.749 666.064 788.196 665.682 788.548C665.301 788.885 664.832 789.149 664.274 789.34C664.978 789.531 665.572 789.831 666.056 790.242C666.54 790.638 666.973 791.151 667.354 791.782L673.206 801H670.478C669.774 801 669.232 800.883 668.85 800.648C668.469 800.413 668.139 800.076 667.86 799.636L663.526 792.706C662.837 791.562 661.803 790.99 660.424 790.99H658.026V801.022H654.088V778.714H658.026V788.35H660.138C661.312 788.35 662.228 787.851 662.888 786.854L667.618 779.814ZM695.386 781.706H686.828V801H682.912V781.706H674.354V778.714H695.386V781.706ZM707.678 798.14C708.47 798.14 709.152 798.045 709.724 797.854C710.31 797.649 710.794 797.37 711.176 797.018C711.557 796.651 711.843 796.226 712.034 795.742C712.224 795.258 712.32 794.73 712.32 794.158C712.32 793.63 712.239 793.139 712.078 792.684C711.916 792.215 711.645 791.804 711.264 791.452C710.897 791.1 710.413 790.821 709.812 790.616C709.21 790.411 708.477 790.308 707.612 790.308H702.86V798.14H707.678ZM707.612 787.448C709.152 787.448 710.442 787.631 711.484 787.998C712.54 788.365 713.383 788.856 714.014 789.472C714.659 790.088 715.121 790.799 715.4 791.606C715.678 792.413 715.818 793.249 715.818 794.114C715.818 795.111 715.642 796.035 715.29 796.886C714.938 797.722 714.417 798.448 713.728 799.064C713.038 799.665 712.188 800.142 711.176 800.494C710.164 800.831 708.998 801 707.678 801H699.12V778.714H702.86V787.448H707.612ZM724.64 778.714V801H720.724V778.714H724.64ZM733.029 801.462C732.839 801.975 732.538 802.357 732.127 802.606C731.731 802.855 731.321 802.98 730.895 802.98H729.245L742.467 770.046C742.643 769.577 742.907 769.217 743.259 768.968C743.626 768.719 744.044 768.594 744.513 768.594H746.185L733.029 801.462ZM764.258 782.674C764.141 782.835 764.024 782.96 763.906 783.048C763.789 783.136 763.628 783.18 763.422 783.18C763.202 783.18 762.96 783.092 762.696 782.916C762.432 782.725 762.102 782.52 761.706 782.3C761.325 782.08 760.848 781.882 760.276 781.706C759.719 781.515 759.03 781.42 758.208 781.42C757.108 781.42 756.14 781.618 755.304 782.014C754.468 782.395 753.764 782.953 753.192 783.686C752.635 784.419 752.21 785.307 751.916 786.348C751.638 787.389 751.498 788.555 751.498 789.846C751.498 791.195 751.652 792.398 751.96 793.454C752.268 794.495 752.701 795.375 753.258 796.094C753.83 796.798 754.512 797.341 755.304 797.722C756.111 798.089 757.013 798.272 758.01 798.272C758.964 798.272 759.748 798.162 760.364 797.942C760.98 797.707 761.486 797.451 761.882 797.172C762.293 796.893 762.63 796.644 762.894 796.424C763.173 796.189 763.444 796.072 763.708 796.072C764.031 796.072 764.28 796.197 764.456 796.446L765.556 797.876C765.072 798.477 764.522 798.991 763.906 799.416C763.29 799.841 762.623 800.201 761.904 800.494C761.2 800.773 760.46 800.978 759.682 801.11C758.905 801.242 758.113 801.308 757.306 801.308C755.913 801.308 754.615 801.051 753.412 800.538C752.224 800.025 751.19 799.284 750.31 798.316C749.43 797.333 748.741 796.131 748.242 794.708C747.744 793.285 747.494 791.665 747.494 789.846C747.494 788.189 747.722 786.656 748.176 785.248C748.646 783.84 749.32 782.63 750.2 781.618C751.095 780.591 752.188 779.792 753.478 779.22C754.784 778.648 756.28 778.362 757.966 778.362C759.536 778.362 760.914 778.619 762.102 779.132C763.305 779.631 764.368 780.342 765.292 781.266L764.258 782.674ZM789.296 801H785.38V781.794H778.34C778.164 784.625 777.9 787.074 777.548 789.142C777.196 791.195 776.771 792.948 776.272 794.4C775.788 795.837 775.238 797.011 774.622 797.92C774.021 798.815 773.383 799.511 772.708 800.01C772.048 800.509 771.359 800.846 770.64 801.022C769.936 801.198 769.232 801.286 768.528 801.286C767.282 801.286 766.658 801.088 766.658 800.692V798.206H767.802C768.301 798.206 768.807 798.118 769.32 797.942C769.834 797.766 770.332 797.429 770.816 796.93C771.315 796.431 771.792 795.735 772.246 794.84C772.701 793.931 773.112 792.757 773.478 791.32C773.86 789.868 774.182 788.115 774.446 786.062C774.725 783.994 774.938 781.545 775.084 778.714H789.296V801ZM807.576 790.968C805.772 791.027 804.232 791.173 802.956 791.408C801.695 791.628 800.661 791.921 799.854 792.288C799.062 792.655 798.483 793.087 798.116 793.586C797.764 794.085 797.588 794.642 797.588 795.258C797.588 795.845 797.684 796.351 797.874 796.776C798.065 797.201 798.322 797.553 798.644 797.832C798.982 798.096 799.37 798.294 799.81 798.426C800.265 798.543 800.749 798.602 801.262 798.602C801.952 798.602 802.582 798.536 803.154 798.404C803.726 798.257 804.262 798.052 804.76 797.788C805.274 797.524 805.758 797.209 806.212 796.842C806.682 796.475 807.136 796.057 807.576 795.588V790.968ZM794.926 781.86C796.158 780.672 797.486 779.785 798.908 779.198C800.331 778.611 801.908 778.318 803.638 778.318C804.885 778.318 805.992 778.523 806.96 778.934C807.928 779.345 808.742 779.917 809.402 780.65C810.062 781.383 810.561 782.271 810.898 783.312C811.236 784.353 811.404 785.497 811.404 786.744V801H809.666C809.285 801 808.992 800.941 808.786 800.824C808.581 800.692 808.42 800.443 808.302 800.076L807.862 797.964C807.276 798.507 806.704 798.991 806.146 799.416C805.589 799.827 805.002 800.179 804.386 800.472C803.77 800.751 803.11 800.963 802.406 801.11C801.717 801.271 800.947 801.352 800.096 801.352C799.231 801.352 798.417 801.235 797.654 801C796.892 800.751 796.224 800.384 795.652 799.9C795.095 799.416 794.648 798.807 794.31 798.074C793.988 797.326 793.826 796.446 793.826 795.434C793.826 794.554 794.068 793.711 794.552 792.904C795.036 792.083 795.821 791.357 796.906 790.726C797.992 790.095 799.407 789.582 801.152 789.186C802.898 788.775 805.039 788.541 807.576 788.482V786.744C807.576 785.013 807.202 783.708 806.454 782.828C805.706 781.933 804.614 781.486 803.176 781.486C802.208 781.486 801.394 781.611 800.734 781.86C800.089 782.095 799.524 782.366 799.04 782.674C798.571 782.967 798.16 783.239 797.808 783.488C797.471 783.723 797.134 783.84 796.796 783.84C796.532 783.84 796.305 783.774 796.114 783.642C795.924 783.495 795.762 783.319 795.63 783.114L794.926 781.86ZM836.488 778.714V801H832.572V785.864C832.572 785.571 832.586 785.255 832.616 784.918C832.645 784.581 832.682 784.243 832.726 783.906C832.594 784.199 832.462 784.471 832.33 784.72C832.198 784.969 832.058 785.197 831.912 785.402L821.154 800.032C820.992 800.267 820.787 800.494 820.538 800.714C820.303 800.919 820.039 801.022 819.746 801.022H817.37V778.736H821.308V793.872C821.308 794.151 821.293 794.459 821.264 794.796C821.234 795.119 821.198 795.449 821.154 795.786C821.286 795.507 821.418 795.251 821.55 795.016C821.682 794.767 821.814 794.539 821.946 794.334L832.704 779.704C832.865 779.469 833.07 779.249 833.32 779.044C833.569 778.824 833.84 778.714 834.134 778.714H836.488ZM827.182 773.324C827.783 773.324 828.289 773.258 828.7 773.126C829.11 772.979 829.44 772.752 829.69 772.444C829.954 772.136 830.144 771.74 830.262 771.256C830.379 770.772 830.438 770.178 830.438 769.474H832.726C833.004 769.474 833.217 769.599 833.364 769.848C833.51 770.097 833.584 770.369 833.584 770.662C833.584 771.395 833.437 772.055 833.144 772.642C832.85 773.229 832.425 773.735 831.868 774.16C831.325 774.571 830.658 774.886 829.866 775.106C829.074 775.326 828.179 775.436 827.182 775.436C826.184 775.436 825.29 775.326 824.498 775.106C823.706 774.886 823.031 774.571 822.474 774.16C821.931 773.735 821.513 773.229 821.22 772.642C820.926 772.055 820.78 771.395 820.78 770.662C820.78 770.369 820.853 770.097 821 769.848C821.146 769.599 821.359 769.474 821.638 769.474H823.926C823.926 770.178 823.984 770.772 824.102 771.256C824.219 771.74 824.402 772.136 824.652 772.444C824.916 772.752 825.253 772.979 825.664 773.126C826.074 773.258 826.58 773.324 827.182 773.324ZM858.034 798.14V781.794H850.972C850.826 784.082 850.62 786.106 850.356 787.866C850.092 789.626 849.784 791.173 849.432 792.508C849.095 793.828 848.714 794.95 848.288 795.874C847.878 796.798 847.445 797.553 846.99 798.14H858.034ZM865.91 798.03V807.468C865.91 807.849 865.8 808.143 865.58 808.348C865.375 808.568 865.104 808.678 864.766 808.678H862.368V801H843.624V807.556C843.624 807.835 843.536 808.091 843.36 808.326C843.199 808.561 842.928 808.678 842.546 808.678H840.082V798.14H840.808C841.322 798.14 841.828 798.052 842.326 797.876C842.84 797.7 843.331 797.37 843.8 796.886C844.27 796.387 844.71 795.691 845.12 794.796C845.546 793.901 845.927 792.735 846.264 791.298C846.602 789.861 846.895 788.115 847.144 786.062C847.394 783.994 847.592 781.545 847.738 778.714H861.84V798.03H865.91ZM878.435 798.14C879.227 798.14 879.909 798.045 880.481 797.854C881.068 797.649 881.552 797.37 881.933 797.018C882.315 796.651 882.601 796.226 882.791 795.742C882.982 795.258 883.077 794.73 883.077 794.158C883.077 793.63 882.997 793.139 882.835 792.684C882.674 792.215 882.403 791.804 882.021 791.452C881.655 791.1 881.171 790.821 880.569 790.616C879.968 790.411 879.235 790.308 878.369 790.308H873.617V798.14H878.435ZM878.369 787.448C879.909 787.448 881.2 787.631 882.241 787.998C883.297 788.365 884.141 788.856 884.771 789.472C885.417 790.088 885.879 790.799 886.157 791.606C886.436 792.413 886.575 793.249 886.575 794.114C886.575 795.111 886.399 796.035 886.047 796.886C885.695 797.722 885.175 798.448 884.485 799.064C883.796 799.665 882.945 800.142 881.933 800.494C880.921 800.831 879.755 801 878.435 801H869.877V778.714H873.617V787.448H878.369ZM895.397 778.714V801H891.481V778.714H895.397ZM901.279 798.58C901.279 798.199 901.345 797.839 901.477 797.502C901.624 797.165 901.815 796.871 902.049 796.622C902.299 796.373 902.592 796.175 902.929 796.028C903.267 795.881 903.626 795.808 904.007 795.808C904.389 795.808 904.748 795.881 905.085 796.028C905.423 796.175 905.716 796.373 905.965 796.622C906.215 796.871 906.413 797.165 906.559 797.502C906.706 797.839 906.779 798.199 906.779 798.58C906.779 798.976 906.706 799.343 906.559 799.68C906.413 800.003 906.215 800.289 905.965 800.538C905.716 800.787 905.423 800.978 905.085 801.11C904.748 801.257 904.389 801.33 904.007 801.33C903.626 801.33 903.267 801.257 902.929 801.11C902.592 800.978 902.299 800.787 902.049 800.538C901.815 800.289 901.624 800.003 901.477 799.68C901.345 799.343 901.279 798.976 901.279 798.58ZM901.279 782.08C901.279 781.699 901.345 781.339 901.477 781.002C901.624 780.665 901.815 780.371 902.049 780.122C902.299 779.873 902.592 779.675 902.929 779.528C903.267 779.381 903.626 779.308 904.007 779.308C904.389 779.308 904.748 779.381 905.085 779.528C905.423 779.675 905.716 779.873 905.965 780.122C906.215 780.371 906.413 780.665 906.559 781.002C906.706 781.339 906.779 781.699 906.779 782.08C906.779 782.476 906.706 782.843 906.559 783.18C906.413 783.503 906.215 783.789 905.965 784.038C905.716 784.287 905.423 784.485 905.085 784.632C904.748 784.764 904.389 784.83 904.007 784.83C903.626 784.83 903.267 784.764 902.929 784.632C902.592 784.485 902.299 784.287 902.049 784.038C901.815 783.789 901.624 783.503 901.477 783.18C901.345 782.843 901.279 782.476 901.279 782.08Z" fill="#F8F8F2"/>
<path d="M430.979 834.684C431.933 833.672 432.989 832.865 434.147 832.264C435.306 831.663 436.641 831.362 438.151 831.362C439.369 831.362 440.439 831.567 441.363 831.978C442.302 832.374 443.079 832.946 443.695 833.694C444.326 834.427 444.803 835.315 445.125 836.356C445.448 837.397 445.609 838.549 445.609 839.81V854H441.671V839.81C441.671 838.123 441.283 836.818 440.505 835.894C439.743 834.955 438.577 834.486 437.007 834.486C435.849 834.486 434.763 834.765 433.751 835.322C432.754 835.879 431.83 836.635 430.979 837.588V854H427.041V821.594H430.979V834.684ZM458.118 854.352C456.358 854.352 455.001 853.861 454.048 852.878C453.109 851.895 452.64 850.48 452.64 848.632V834.992H449.956C449.721 834.992 449.523 834.926 449.362 834.794C449.2 834.647 449.12 834.427 449.12 834.134V832.572L452.772 832.11L453.674 825.224C453.718 825.004 453.813 824.828 453.96 824.696C454.121 824.549 454.326 824.476 454.576 824.476H456.556V832.154H467.05L467.952 825.224C467.996 825.004 468.091 824.828 468.238 824.696C468.399 824.549 468.604 824.476 468.854 824.476H470.834V832.154H477.28V834.992H470.834V848.368C470.834 849.307 471.061 850.003 471.516 850.458C471.985 850.913 472.572 851.14 473.276 851.14C473.686 851.14 474.038 851.089 474.332 850.986C474.64 850.869 474.904 850.744 475.124 850.612C475.344 850.48 475.527 850.363 475.674 850.26C475.835 850.143 475.974 850.084 476.092 850.084C476.312 850.084 476.495 850.209 476.642 850.458L477.808 852.328C477.118 852.959 476.297 853.457 475.344 853.824C474.39 854.176 473.408 854.352 472.396 854.352C470.65 854.352 469.301 853.861 468.348 852.878C467.394 851.895 466.918 850.48 466.918 848.632V834.992H456.556V848.368C456.556 849.307 456.783 850.003 457.238 850.458C457.692 850.913 458.279 851.14 458.998 851.14C459.408 851.14 459.76 851.089 460.054 850.986C460.362 850.869 460.626 850.744 460.846 850.612C461.066 850.48 461.249 850.363 461.396 850.26C461.557 850.143 461.696 850.084 461.814 850.084C462.019 850.084 462.202 850.209 462.364 850.458L463.508 852.328C462.833 852.959 462.019 853.457 461.066 853.824C460.112 854.176 459.13 854.352 458.118 854.352ZM485.249 848.632C485.968 849.6 486.752 850.282 487.603 850.678C488.454 851.074 489.407 851.272 490.463 851.272C492.546 851.272 494.144 850.531 495.259 849.05C496.374 847.569 496.931 845.457 496.931 842.714C496.931 841.262 496.799 840.015 496.535 838.974C496.286 837.933 495.919 837.082 495.435 836.422C494.951 835.747 494.357 835.256 493.653 834.948C492.949 834.64 492.15 834.486 491.255 834.486C489.979 834.486 488.857 834.779 487.889 835.366C486.936 835.953 486.056 836.781 485.249 837.852V848.632ZM485.051 835.168C485.99 834.009 487.075 833.078 488.307 832.374C489.539 831.67 490.947 831.318 492.531 831.318C493.822 831.318 494.988 831.567 496.029 832.066C497.07 832.55 497.958 833.276 498.691 834.244C499.424 835.197 499.989 836.385 500.385 837.808C500.781 839.231 500.979 840.866 500.979 842.714C500.979 844.357 500.759 845.889 500.319 847.312C499.879 848.72 499.241 849.945 498.405 850.986C497.584 852.013 496.572 852.827 495.369 853.428C494.181 854.015 492.839 854.308 491.343 854.308C489.979 854.308 488.806 854.081 487.823 853.626C486.855 853.157 485.997 852.511 485.249 851.69V861.546H481.311V831.714H483.665C484.222 831.714 484.567 831.985 484.699 832.528L485.051 835.168ZM518.955 835.388C518.779 835.711 518.508 835.872 518.141 835.872C517.921 835.872 517.672 835.791 517.393 835.63C517.114 835.469 516.77 835.293 516.359 835.102C515.963 834.897 515.486 834.713 514.929 834.552C514.372 834.376 513.712 834.288 512.949 834.288C512.289 834.288 511.695 834.376 511.167 834.552C510.639 834.713 510.184 834.941 509.803 835.234C509.436 835.527 509.15 835.872 508.945 836.268C508.754 836.649 508.659 837.067 508.659 837.522C508.659 838.094 508.82 838.571 509.143 838.952C509.48 839.333 509.92 839.663 510.463 839.942C511.006 840.221 511.622 840.47 512.311 840.69C513 840.895 513.704 841.123 514.423 841.372C515.156 841.607 515.868 841.871 516.557 842.164C517.246 842.457 517.862 842.824 518.405 843.264C518.948 843.704 519.38 844.247 519.703 844.892C520.04 845.523 520.209 846.285 520.209 847.18C520.209 848.207 520.026 849.16 519.659 850.04C519.292 850.905 518.75 851.661 518.031 852.306C517.312 852.937 516.432 853.435 515.391 853.802C514.35 854.169 513.147 854.352 511.783 854.352C510.228 854.352 508.82 854.103 507.559 853.604C506.298 853.091 505.227 852.438 504.347 851.646L505.271 850.15C505.388 849.959 505.528 849.813 505.689 849.71C505.85 849.607 506.056 849.556 506.305 849.556C506.569 849.556 506.848 849.659 507.141 849.864C507.434 850.069 507.786 850.297 508.197 850.546C508.622 850.795 509.136 851.023 509.737 851.228C510.338 851.433 511.086 851.536 511.981 851.536C512.744 851.536 513.411 851.441 513.983 851.25C514.555 851.045 515.032 850.773 515.413 850.436C515.794 850.099 516.073 849.71 516.249 849.27C516.44 848.83 516.535 848.361 516.535 847.862C516.535 847.246 516.366 846.74 516.029 846.344C515.706 845.933 515.274 845.589 514.731 845.31C514.188 845.017 513.565 844.767 512.861 844.562C512.172 844.342 511.46 844.115 510.727 843.88C510.008 843.645 509.297 843.381 508.593 843.088C507.904 842.78 507.288 842.399 506.745 841.944C506.202 841.489 505.762 840.932 505.425 840.272C505.102 839.597 504.941 838.783 504.941 837.83C504.941 836.979 505.117 836.165 505.469 835.388C505.821 834.596 506.334 833.907 507.009 833.32C507.684 832.719 508.512 832.242 509.495 831.89C510.478 831.538 511.6 831.362 512.861 831.362C514.328 831.362 515.64 831.597 516.799 832.066C517.972 832.521 518.984 833.151 519.835 833.958L518.955 835.388ZM524.658 851.58C524.658 851.199 524.724 850.839 524.856 850.502C525.003 850.165 525.194 849.871 525.428 849.622C525.678 849.373 525.971 849.175 526.308 849.028C526.646 848.881 527.005 848.808 527.386 848.808C527.768 848.808 528.127 848.881 528.464 849.028C528.802 849.175 529.095 849.373 529.344 849.622C529.594 849.871 529.792 850.165 529.938 850.502C530.085 850.839 530.158 851.199 530.158 851.58C530.158 851.976 530.085 852.343 529.938 852.68C529.792 853.003 529.594 853.289 529.344 853.538C529.095 853.787 528.802 853.978 528.464 854.11C528.127 854.257 527.768 854.33 527.386 854.33C527.005 854.33 526.646 854.257 526.308 854.11C525.971 853.978 525.678 853.787 525.428 853.538C525.194 853.289 525.003 853.003 524.856 852.68C524.724 852.343 524.658 851.976 524.658 851.58ZM524.658 835.08C524.658 834.699 524.724 834.339 524.856 834.002C525.003 833.665 525.194 833.371 525.428 833.122C525.678 832.873 525.971 832.675 526.308 832.528C526.646 832.381 527.005 832.308 527.386 832.308C527.768 832.308 528.127 832.381 528.464 832.528C528.802 832.675 529.095 832.873 529.344 833.122C529.594 833.371 529.792 833.665 529.938 834.002C530.085 834.339 530.158 834.699 530.158 835.08C530.158 835.476 530.085 835.843 529.938 836.18C529.792 836.503 529.594 836.789 529.344 837.038C529.095 837.287 528.802 837.485 528.464 837.632C528.127 837.764 527.768 837.83 527.386 837.83C527.005 837.83 526.646 837.764 526.308 837.632C525.971 837.485 525.678 837.287 525.428 837.038C525.194 836.789 525.003 836.503 524.856 836.18C524.724 835.843 524.658 835.476 524.658 835.08ZM538.166 854.462C537.976 854.975 537.675 855.357 537.264 855.606C536.868 855.855 536.458 855.98 536.032 855.98H534.382L547.604 823.046C547.78 822.577 548.044 822.217 548.396 821.968C548.763 821.719 549.181 821.594 549.65 821.594H551.322L538.166 854.462ZM548.221 854.462C548.03 854.975 547.73 855.357 547.319 855.606C546.923 855.855 546.512 855.98 546.087 855.98H544.437L557.659 823.046C557.835 822.577 558.099 822.217 558.451 821.968C558.818 821.719 559.236 821.594 559.705 821.594H561.377L548.221 854.462ZM1000.42 854.462C1000.23 854.975 999.933 855.357 999.522 855.606C999.126 855.855 998.715 855.98 998.29 855.98H996.64L1009.86 823.046C1010.04 822.577 1010.3 822.217 1010.65 821.968C1011.02 821.719 1011.44 821.594 1011.91 821.594H1013.58L1000.42 854.462Z" fill="#74705D"/>
<path d="M569.677 836.18C570.381 834.655 571.247 833.467 572.273 832.616C573.3 831.751 574.554 831.318 576.035 831.318C576.505 831.318 576.952 831.369 577.377 831.472C577.817 831.575 578.206 831.736 578.543 831.956L578.257 834.882C578.169 835.249 577.949 835.432 577.597 835.432C577.392 835.432 577.091 835.388 576.695 835.3C576.299 835.212 575.852 835.168 575.353 835.168C574.649 835.168 574.019 835.271 573.461 835.476C572.919 835.681 572.427 835.989 571.987 836.4C571.562 836.796 571.173 837.295 570.821 837.896C570.484 838.483 570.176 839.157 569.897 839.92V854H565.959V831.714H568.203C568.629 831.714 568.922 831.795 569.083 831.956C569.245 832.117 569.355 832.396 569.413 832.792L569.677 836.18ZM600.313 831.714V854H597.981C597.423 854 597.071 853.729 596.925 853.186L596.617 850.788C595.649 851.859 594.563 852.724 593.361 853.384C592.158 854.029 590.779 854.352 589.225 854.352C588.007 854.352 586.929 854.154 585.991 853.758C585.067 853.347 584.289 852.775 583.659 852.042C583.028 851.309 582.551 850.421 582.229 849.38C581.921 848.339 581.767 847.187 581.767 845.926V831.714H585.683V845.926C585.683 847.613 586.064 848.918 586.827 849.842C587.604 850.766 588.785 851.228 590.369 851.228C591.527 851.228 592.605 850.957 593.603 850.414C594.615 849.857 595.546 849.094 596.397 848.126V831.714H600.313ZM610.57 821.594V854H606.654V821.594H610.57ZM621.056 831.714V854H617.14V831.714H621.056ZM621.892 824.718C621.892 825.099 621.812 825.459 621.65 825.796C621.504 826.119 621.298 826.412 621.034 826.676C620.785 826.925 620.484 827.123 620.132 827.27C619.795 827.417 619.436 827.49 619.054 827.49C618.673 827.49 618.314 827.417 617.976 827.27C617.654 827.123 617.368 826.925 617.118 826.676C616.869 826.412 616.671 826.119 616.524 825.796C616.378 825.459 616.304 825.099 616.304 824.718C616.304 824.337 616.378 823.977 616.524 823.64C616.671 823.288 616.869 822.987 617.118 822.738C617.368 822.474 617.654 822.269 617.976 822.122C618.314 821.975 618.673 821.902 619.054 821.902C619.436 821.902 619.795 821.975 620.132 822.122C620.484 822.269 620.785 822.474 621.034 822.738C621.298 822.987 621.504 823.288 621.65 823.64C621.812 823.977 621.892 824.337 621.892 824.718ZM636.885 831.362C638.513 831.362 639.979 831.633 641.285 832.176C642.59 832.719 643.705 833.489 644.629 834.486C645.553 835.483 646.257 836.693 646.741 838.116C647.239 839.524 647.489 841.101 647.489 842.846C647.489 844.606 647.239 846.19 646.741 847.598C646.257 849.006 645.553 850.209 644.629 851.206C643.705 852.203 642.59 852.973 641.285 853.516C639.979 854.044 638.513 854.308 636.885 854.308C635.242 854.308 633.761 854.044 632.441 853.516C631.135 852.973 630.021 852.203 629.097 851.206C628.173 850.209 627.461 849.006 626.963 847.598C626.479 846.19 626.237 844.606 626.237 842.846C626.237 841.101 626.479 839.524 626.963 838.116C627.461 836.693 628.173 835.483 629.097 834.486C630.021 833.489 631.135 832.719 632.441 832.176C633.761 831.633 635.242 831.362 636.885 831.362ZM636.885 851.25C639.085 851.25 640.727 850.517 641.813 849.05C642.898 847.569 643.441 845.508 643.441 842.868C643.441 840.213 642.898 838.145 641.813 836.664C640.727 835.183 639.085 834.442 636.885 834.442C635.77 834.442 634.795 834.633 633.959 835.014C633.137 835.395 632.448 835.945 631.891 836.664C631.348 837.383 630.937 838.27 630.659 839.326C630.395 840.367 630.263 841.548 630.263 842.868C630.263 845.508 630.805 847.569 631.891 849.05C632.991 850.517 634.655 851.25 636.885 851.25ZM670.95 831.714L661.864 854H658.344L649.258 831.714H652.448C652.771 831.714 653.035 831.795 653.24 831.956C653.445 832.117 653.585 832.308 653.658 832.528L659.312 846.872C659.488 847.415 659.642 847.943 659.774 848.456C659.906 848.969 660.031 849.483 660.148 849.996C660.265 849.483 660.39 848.969 660.522 848.456C660.654 847.943 660.815 847.415 661.006 846.872L666.726 832.528C666.814 832.293 666.961 832.103 667.166 831.956C667.371 831.795 667.613 831.714 667.892 831.714H670.95ZM672.421 851.58C672.421 851.199 672.487 850.839 672.619 850.502C672.765 850.165 672.956 849.871 673.191 849.622C673.44 849.373 673.733 849.175 674.071 849.028C674.408 848.881 674.767 848.808 675.149 848.808C675.53 848.808 675.889 848.881 676.227 849.028C676.564 849.175 676.857 849.373 677.107 849.622C677.356 849.871 677.554 850.165 677.701 850.502C677.847 850.839 677.921 851.199 677.921 851.58C677.921 851.976 677.847 852.343 677.701 852.68C677.554 853.003 677.356 853.289 677.107 853.538C676.857 853.787 676.564 853.978 676.227 854.11C675.889 854.257 675.53 854.33 675.149 854.33C674.767 854.33 674.408 854.257 674.071 854.11C673.733 853.978 673.44 853.787 673.191 853.538C672.956 853.289 672.765 853.003 672.619 852.68C672.487 852.343 672.421 851.976 672.421 851.58ZM687.417 834.684C688.37 833.672 689.426 832.865 690.585 832.264C691.744 831.663 693.078 831.362 694.589 831.362C695.806 831.362 696.877 831.567 697.801 831.978C698.74 832.374 699.517 832.946 700.133 833.694C700.764 834.427 701.24 835.315 701.563 836.356C701.886 837.397 702.047 838.549 702.047 839.81V854H698.109V839.81C698.109 838.123 697.72 836.818 696.943 835.894C696.18 834.955 695.014 834.486 693.445 834.486C692.286 834.486 691.201 834.765 690.189 835.322C689.192 835.879 688.268 836.635 687.417 837.588V854H683.479V821.594H687.417V834.684ZM726.684 831.714L714.254 860.578C714.122 860.871 713.953 861.106 713.748 861.282C713.557 861.458 713.256 861.546 712.846 861.546H709.942L714.012 852.702L704.816 831.714H708.204C708.541 831.714 708.805 831.802 708.996 831.978C709.201 832.139 709.34 832.323 709.414 832.528L715.376 846.564C715.61 847.18 715.808 847.825 715.97 848.5C716.175 847.811 716.395 847.158 716.63 846.542L722.416 832.528C722.504 832.293 722.65 832.103 722.856 831.956C723.076 831.795 723.318 831.714 723.582 831.714H726.684ZM734.081 848.632C734.8 849.6 735.584 850.282 736.435 850.678C737.286 851.074 738.239 851.272 739.295 851.272C741.378 851.272 742.976 850.531 744.091 849.05C745.206 847.569 745.763 845.457 745.763 842.714C745.763 841.262 745.631 840.015 745.367 838.974C745.118 837.933 744.751 837.082 744.267 836.422C743.783 835.747 743.189 835.256 742.485 834.948C741.781 834.64 740.982 834.486 740.087 834.486C738.811 834.486 737.689 834.779 736.721 835.366C735.768 835.953 734.888 836.781 734.081 837.852V848.632ZM733.883 835.168C734.822 834.009 735.907 833.078 737.139 832.374C738.371 831.67 739.779 831.318 741.363 831.318C742.654 831.318 743.82 831.567 744.861 832.066C745.902 832.55 746.79 833.276 747.523 834.244C748.256 835.197 748.821 836.385 749.217 837.808C749.613 839.231 749.811 840.866 749.811 842.714C749.811 844.357 749.591 845.889 749.151 847.312C748.711 848.72 748.073 849.945 747.237 850.986C746.416 852.013 745.404 852.827 744.201 853.428C743.013 854.015 741.671 854.308 740.175 854.308C738.811 854.308 737.638 854.081 736.655 853.626C735.687 853.157 734.829 852.511 734.081 851.69V861.546H730.143V831.714H732.497C733.054 831.714 733.399 831.985 733.531 832.528L733.883 835.168ZM769.723 840.426C769.723 839.517 769.591 838.688 769.327 837.94C769.078 837.177 768.704 836.525 768.205 835.982C767.721 835.425 767.127 834.999 766.423 834.706C765.719 834.398 764.92 834.244 764.025 834.244C762.148 834.244 760.659 834.794 759.559 835.894C758.474 836.979 757.799 838.49 757.535 840.426H769.723ZM772.891 850.876C772.407 851.463 771.828 851.976 771.153 852.416C770.478 852.841 769.752 853.193 768.975 853.472C768.212 853.751 767.42 853.956 766.599 854.088C765.778 854.235 764.964 854.308 764.157 854.308C762.617 854.308 761.194 854.051 759.889 853.538C758.598 853.01 757.476 852.247 756.523 851.25C755.584 850.238 754.851 848.991 754.323 847.51C753.795 846.029 753.531 844.327 753.531 842.406C753.531 840.851 753.766 839.399 754.235 838.05C754.719 836.701 755.408 835.535 756.303 834.552C757.198 833.555 758.29 832.777 759.581 832.22C760.872 831.648 762.324 831.362 763.937 831.362C765.272 831.362 766.504 831.589 767.633 832.044C768.777 832.484 769.76 833.129 770.581 833.98C771.417 834.816 772.07 835.857 772.539 837.104C773.008 838.336 773.243 839.744 773.243 841.328C773.243 841.944 773.177 842.355 773.045 842.56C772.913 842.765 772.664 842.868 772.297 842.868H757.403C757.447 844.276 757.638 845.501 757.975 846.542C758.327 847.583 758.811 848.456 759.427 849.16C760.043 849.849 760.776 850.37 761.627 850.722C762.478 851.059 763.431 851.228 764.487 851.228C765.47 851.228 766.313 851.118 767.017 850.898C767.736 850.663 768.352 850.414 768.865 850.15C769.378 849.886 769.804 849.644 770.141 849.424C770.493 849.189 770.794 849.072 771.043 849.072C771.366 849.072 771.615 849.197 771.791 849.446L772.891 850.876ZM781.771 836.18C782.475 834.655 783.341 833.467 784.367 832.616C785.394 831.751 786.648 831.318 788.129 831.318C788.599 831.318 789.046 831.369 789.471 831.472C789.911 831.575 790.3 831.736 790.637 831.956L790.351 834.882C790.263 835.249 790.043 835.432 789.691 835.432C789.486 835.432 789.185 835.388 788.789 835.3C788.393 835.212 787.946 835.168 787.447 835.168C786.743 835.168 786.113 835.271 785.555 835.476C785.013 835.681 784.521 835.989 784.081 836.4C783.656 836.796 783.267 837.295 782.915 837.896C782.578 838.483 782.27 839.157 781.991 839.92V854H778.053V831.714H780.297C780.723 831.714 781.016 831.795 781.177 831.956C781.339 832.117 781.449 832.396 781.507 832.792L781.771 836.18ZM806.932 835.388C806.756 835.711 806.484 835.872 806.118 835.872C805.898 835.872 805.648 835.791 805.37 835.63C805.091 835.469 804.746 835.293 804.336 835.102C803.94 834.897 803.463 834.713 802.906 834.552C802.348 834.376 801.688 834.288 800.926 834.288C800.266 834.288 799.672 834.376 799.144 834.552C798.616 834.713 798.161 834.941 797.78 835.234C797.413 835.527 797.127 835.872 796.922 836.268C796.731 836.649 796.636 837.067 796.636 837.522C796.636 838.094 796.797 838.571 797.12 838.952C797.457 839.333 797.897 839.663 798.44 839.942C798.982 840.221 799.598 840.47 800.288 840.69C800.977 840.895 801.681 841.123 802.4 841.372C803.133 841.607 803.844 841.871 804.534 842.164C805.223 842.457 805.839 842.824 806.382 843.264C806.924 843.704 807.357 844.247 807.68 844.892C808.017 845.523 808.186 846.285 808.186 847.18C808.186 848.207 808.002 849.16 807.636 850.04C807.269 850.905 806.726 851.661 806.008 852.306C805.289 852.937 804.409 853.435 803.368 853.802C802.326 854.169 801.124 854.352 799.76 854.352C798.205 854.352 796.797 854.103 795.536 853.604C794.274 853.091 793.204 852.438 792.324 851.646L793.248 850.15C793.365 849.959 793.504 849.813 793.666 849.71C793.827 849.607 794.032 849.556 794.282 849.556C794.546 849.556 794.824 849.659 795.118 849.864C795.411 850.069 795.763 850.297 796.174 850.546C796.599 850.795 797.112 851.023 797.714 851.228C798.315 851.433 799.063 851.536 799.958 851.536C800.72 851.536 801.388 851.441 801.96 851.25C802.532 851.045 803.008 850.773 803.39 850.436C803.771 850.099 804.05 849.71 804.226 849.27C804.416 848.83 804.512 848.361 804.512 847.862C804.512 847.246 804.343 846.74 804.006 846.344C803.683 845.933 803.25 845.589 802.708 845.31C802.165 845.017 801.542 844.767 800.838 844.562C800.148 844.342 799.437 844.115 798.704 843.88C797.985 843.645 797.274 843.381 796.57 843.088C795.88 842.78 795.264 842.399 794.722 841.944C794.179 841.489 793.739 840.932 793.402 840.272C793.079 839.597 792.918 838.783 792.918 837.83C792.918 836.979 793.094 836.165 793.446 835.388C793.798 834.596 794.311 833.907 794.986 833.32C795.66 832.719 796.489 832.242 797.472 831.89C798.454 831.538 799.576 831.362 800.838 831.362C802.304 831.362 803.617 831.597 804.776 832.066C805.949 832.521 806.961 833.151 807.812 833.958L806.932 835.388ZM816.925 834.684C817.878 833.672 818.934 832.865 820.093 832.264C821.251 831.663 822.586 831.362 824.097 831.362C825.314 831.362 826.385 831.567 827.309 831.978C828.247 832.374 829.025 832.946 829.641 833.694C830.271 834.427 830.748 835.315 831.071 836.356C831.393 837.397 831.555 838.549 831.555 839.81V854H827.617V839.81C827.617 838.123 827.228 836.818 826.451 835.894C825.688 834.955 824.522 834.486 822.953 834.486C821.794 834.486 820.709 834.765 819.697 835.322C818.699 835.879 817.775 836.635 816.925 837.588V854H812.987V821.594H816.925V834.684ZM849.6 843.968C847.796 844.027 846.256 844.173 844.98 844.408C843.719 844.628 842.685 844.921 841.878 845.288C841.086 845.655 840.507 846.087 840.14 846.586C839.788 847.085 839.612 847.642 839.612 848.258C839.612 848.845 839.707 849.351 839.898 849.776C840.089 850.201 840.345 850.553 840.668 850.832C841.005 851.096 841.394 851.294 841.834 851.426C842.289 851.543 842.773 851.602 843.286 851.602C843.975 851.602 844.606 851.536 845.178 851.404C845.75 851.257 846.285 851.052 846.784 850.788C847.297 850.524 847.781 850.209 848.236 849.842C848.705 849.475 849.16 849.057 849.6 848.588V843.968ZM836.95 834.86C838.182 833.672 839.509 832.785 840.932 832.198C842.355 831.611 843.931 831.318 845.662 831.318C846.909 831.318 848.016 831.523 848.984 831.934C849.952 832.345 850.766 832.917 851.426 833.65C852.086 834.383 852.585 835.271 852.922 836.312C853.259 837.353 853.428 838.497 853.428 839.744V854H851.69C851.309 854 851.015 853.941 850.81 853.824C850.605 853.692 850.443 853.443 850.326 853.076L849.886 850.964C849.299 851.507 848.727 851.991 848.17 852.416C847.613 852.827 847.026 853.179 846.41 853.472C845.794 853.751 845.134 853.963 844.43 854.11C843.741 854.271 842.971 854.352 842.12 854.352C841.255 854.352 840.441 854.235 839.678 854C838.915 853.751 838.248 853.384 837.676 852.9C837.119 852.416 836.671 851.807 836.334 851.074C836.011 850.326 835.85 849.446 835.85 848.434C835.85 847.554 836.092 846.711 836.576 845.904C837.06 845.083 837.845 844.357 838.93 843.726C840.015 843.095 841.431 842.582 843.176 842.186C844.921 841.775 847.063 841.541 849.6 841.482V839.744C849.6 838.013 849.226 836.708 848.478 835.828C847.73 834.933 846.637 834.486 845.2 834.486C844.232 834.486 843.418 834.611 842.758 834.86C842.113 835.095 841.548 835.366 841.064 835.674C840.595 835.967 840.184 836.239 839.832 836.488C839.495 836.723 839.157 836.84 838.82 836.84C838.556 836.84 838.329 836.774 838.138 836.642C837.947 836.495 837.786 836.319 837.654 836.114L836.95 834.86ZM863.331 848.632C864.05 849.6 864.834 850.282 865.685 850.678C866.536 851.074 867.489 851.272 868.545 851.272C870.628 851.272 872.226 850.531 873.341 849.05C874.456 847.569 875.013 845.457 875.013 842.714C875.013 841.262 874.881 840.015 874.617 838.974C874.368 837.933 874.001 837.082 873.517 836.422C873.033 835.747 872.439 835.256 871.735 834.948C871.031 834.64 870.232 834.486 869.337 834.486C868.061 834.486 866.939 834.779 865.971 835.366C865.018 835.953 864.138 836.781 863.331 837.852V848.632ZM863.133 835.168C864.072 834.009 865.157 833.078 866.389 832.374C867.621 831.67 869.029 831.318 870.613 831.318C871.904 831.318 873.07 831.567 874.111 832.066C875.152 832.55 876.04 833.276 876.773 834.244C877.506 835.197 878.071 836.385 878.467 837.808C878.863 839.231 879.061 840.866 879.061 842.714C879.061 844.357 878.841 845.889 878.401 847.312C877.961 848.72 877.323 849.945 876.487 850.986C875.666 852.013 874.654 852.827 873.451 853.428C872.263 854.015 870.921 854.308 869.425 854.308C868.061 854.308 866.888 854.081 865.905 853.626C864.937 853.157 864.079 852.511 863.331 851.69V861.546H859.393V831.714H861.747C862.304 831.714 862.649 831.985 862.781 832.528L863.133 835.168ZM898.973 840.426C898.973 839.517 898.841 838.688 898.577 837.94C898.328 837.177 897.954 836.525 897.455 835.982C896.971 835.425 896.377 834.999 895.673 834.706C894.969 834.398 894.17 834.244 893.275 834.244C891.398 834.244 889.909 834.794 888.809 835.894C887.724 836.979 887.049 838.49 886.785 840.426H898.973ZM902.141 850.876C901.657 851.463 901.078 851.976 900.403 852.416C899.728 852.841 899.002 853.193 898.225 853.472C897.462 853.751 896.67 853.956 895.849 854.088C895.028 854.235 894.214 854.308 893.407 854.308C891.867 854.308 890.444 854.051 889.139 853.538C887.848 853.01 886.726 852.247 885.773 851.25C884.834 850.238 884.101 848.991 883.573 847.51C883.045 846.029 882.781 844.327 882.781 842.406C882.781 840.851 883.016 839.399 883.485 838.05C883.969 836.701 884.658 835.535 885.553 834.552C886.448 833.555 887.54 832.777 888.831 832.22C890.122 831.648 891.574 831.362 893.187 831.362C894.522 831.362 895.754 831.589 896.883 832.044C898.027 832.484 899.01 833.129 899.831 833.98C900.667 834.816 901.32 835.857 901.789 837.104C902.258 838.336 902.493 839.744 902.493 841.328C902.493 841.944 902.427 842.355 902.295 842.56C902.163 842.765 901.914 842.868 901.547 842.868H886.653C886.697 844.276 886.888 845.501 887.225 846.542C887.577 847.583 888.061 848.456 888.677 849.16C889.293 849.849 890.026 850.37 890.877 850.722C891.728 851.059 892.681 851.228 893.737 851.228C894.72 851.228 895.563 851.118 896.267 850.898C896.986 850.663 897.602 850.414 898.115 850.15C898.628 849.886 899.054 849.644 899.391 849.424C899.743 849.189 900.044 849.072 900.293 849.072C900.616 849.072 900.865 849.197 901.041 849.446L902.141 850.876ZM906.643 851.58C906.643 851.199 906.709 850.839 906.841 850.502C906.988 850.165 907.179 849.871 907.413 849.622C907.663 849.373 907.956 849.175 908.293 849.028C908.631 848.881 908.99 848.808 909.371 848.808C909.753 848.808 910.112 848.881 910.449 849.028C910.787 849.175 911.08 849.373 911.329 849.622C911.579 849.871 911.777 850.165 911.923 850.502C912.07 850.839 912.143 851.199 912.143 851.58C912.143 851.976 912.07 852.343 911.923 852.68C911.777 853.003 911.579 853.289 911.329 853.538C911.08 853.787 910.787 853.978 910.449 854.11C910.112 854.257 909.753 854.33 909.371 854.33C908.99 854.33 908.631 854.257 908.293 854.11C907.956 853.978 907.663 853.787 907.413 853.538C907.179 853.289 906.988 853.003 906.841 852.68C906.709 852.343 906.643 851.976 906.643 851.58ZM933.212 835.674C933.094 835.835 932.977 835.96 932.86 836.048C932.742 836.136 932.581 836.18 932.376 836.18C932.156 836.18 931.914 836.092 931.65 835.916C931.386 835.725 931.056 835.52 930.66 835.3C930.278 835.08 929.802 834.882 929.23 834.706C928.672 834.515 927.983 834.42 927.162 834.42C926.062 834.42 925.094 834.618 924.258 835.014C923.422 835.395 922.718 835.953 922.146 836.686C921.588 837.419 921.163 838.307 920.87 839.348C920.591 840.389 920.452 841.555 920.452 842.846C920.452 844.195 920.606 845.398 920.914 846.454C921.222 847.495 921.654 848.375 922.212 849.094C922.784 849.798 923.466 850.341 924.258 850.722C925.064 851.089 925.966 851.272 926.964 851.272C927.917 851.272 928.702 851.162 929.318 850.942C929.934 850.707 930.44 850.451 930.836 850.172C931.246 849.893 931.584 849.644 931.848 849.424C932.126 849.189 932.398 849.072 932.662 849.072C932.984 849.072 933.234 849.197 933.41 849.446L934.51 850.876C934.026 851.477 933.476 851.991 932.86 852.416C932.244 852.841 931.576 853.201 930.858 853.494C930.154 853.773 929.413 853.978 928.636 854.11C927.858 854.242 927.066 854.308 926.26 854.308C924.866 854.308 923.568 854.051 922.366 853.538C921.178 853.025 920.144 852.284 919.264 851.316C918.384 850.333 917.694 849.131 917.196 847.708C916.697 846.285 916.448 844.665 916.448 842.846C916.448 841.189 916.675 839.656 917.13 838.248C917.599 836.84 918.274 835.63 919.154 834.618C920.048 833.591 921.141 832.792 922.432 832.22C923.737 831.648 925.233 831.362 926.92 831.362C928.489 831.362 929.868 831.619 931.056 832.132C932.258 832.631 933.322 833.342 934.246 834.266L933.212 835.674ZM942.761 821.594V854H938.845V821.594H942.761ZM967.438 831.714V854H965.106C964.548 854 964.196 853.729 964.05 853.186L963.742 850.788C962.774 851.859 961.688 852.724 960.486 853.384C959.283 854.029 957.904 854.352 956.35 854.352C955.132 854.352 954.054 854.154 953.116 853.758C952.192 853.347 951.414 852.775 950.784 852.042C950.153 851.309 949.676 850.421 949.354 849.38C949.046 848.339 948.892 847.187 948.892 845.926V831.714H952.808V845.926C952.808 847.613 953.189 848.918 953.952 849.842C954.729 850.766 955.91 851.228 957.494 851.228C958.652 851.228 959.73 850.957 960.728 850.414C961.74 849.857 962.671 849.094 963.522 848.126V831.714H967.438ZM977.585 848.632C978.304 849.6 979.088 850.282 979.939 850.678C980.804 851.074 981.75 851.272 982.777 851.272C984.874 851.272 986.48 850.531 987.595 849.05C988.71 847.569 989.267 845.361 989.267 842.428C989.267 839.7 988.768 837.698 987.771 836.422C986.788 835.131 985.38 834.486 983.547 834.486C982.271 834.486 981.156 834.779 980.203 835.366C979.264 835.953 978.392 836.781 977.585 837.852V848.632ZM977.585 834.926C978.524 833.841 979.58 832.975 980.753 832.33C981.941 831.685 983.305 831.362 984.845 831.362C986.15 831.362 987.324 831.611 988.365 832.11C989.421 832.609 990.316 833.335 991.049 834.288C991.782 835.227 992.34 836.371 992.721 837.72C993.117 839.069 993.315 840.587 993.315 842.274C993.315 844.078 993.095 845.721 992.655 847.202C992.215 848.683 991.577 849.952 990.741 851.008C989.92 852.049 988.915 852.863 987.727 853.45C986.539 854.022 985.204 854.308 983.723 854.308C982.256 854.308 981.017 854.037 980.005 853.494C979.008 852.937 978.135 852.152 977.387 851.14L977.189 853.164C977.072 853.721 976.734 854 976.177 854H973.647V821.594H977.585V834.926Z" fill="#A6E22C"/>
<g clip-path="url(#clip0)">
<path fill-rule="evenodd" clip-rule="evenodd" d="M1292.49 1019.3C1292.43 1019.3 1292.36 1020.29 1292.29 1022.24C1292.2 1024.26 1292.08 1026.48 1291.92 1028.9C1291.74 1031.75 1291.59 1033.58 1291.48 1034.38C1291.38 1035.17 1291.23 1035.81 1291.04 1036.31C1290.84 1036.84 1290.61 1037.28 1290.35 1037.62C1290.15 1037.92 1289.9 1038.18 1289.62 1038.39C1289.3 1038.63 1288.94 1038.81 1288.53 1038.94C1288.01 1039.1 1287.46 1039.18 1286.88 1039.18C1286.19 1039.18 1285.53 1039.07 1284.9 1038.85C1284.27 1038.63 1283.77 1038.3 1283.42 1037.87C1283.06 1037.43 1282.82 1036.9 1282.68 1036.27C1282.54 1035.65 1282.48 1034.87 1282.48 1033.94C1282.48 1033.45 1282.51 1032.55 1282.56 1031.27C1282.61 1029.98 1282.7 1028.6 1282.81 1027.13L1283.36 1019.3C1281.73 1019.33 1280.42 1019.34 1279.44 1019.34C1278.66 1019.34 1277.31 1019.33 1275.4 1019.3L1275.07 1026.57C1274.99 1028.07 1274.92 1029.21 1274.86 1029.98L1274.62 1032.92C1274.54 1034.04 1274.48 1034.9 1274.45 1035.5C1274.43 1036.09 1274.42 1036.53 1274.42 1036.82C1274.42 1037.7 1274.53 1038.51 1274.75 1039.28C1274.94 1039.95 1275.21 1040.53 1275.56 1041.01C1275.9 1041.5 1276.39 1041.97 1277.03 1042.44C1277.73 1042.94 1278.55 1043.38 1279.5 1043.76C1280.44 1044.12 1281.5 1044.42 1282.68 1044.61C1283.96 1044.8 1285.28 1044.9 1286.65 1044.9C1288.19 1044.9 1289.71 1044.77 1291.2 1044.51C1292.7 1044.26 1294.04 1043.82 1295.22 1043.2C1296.39 1042.58 1297.29 1041.89 1297.9 1041.12C1298.51 1040.34 1298.96 1039.43 1299.22 1038.38C1299.48 1037.33 1299.64 1035.53 1299.69 1032.98C1299.69 1032.82 1299.7 1032.62 1299.71 1032.37L1300.61 1019.3H1292.49L1292.49 1019.3ZM1326.08 1022.2C1325.74 1021.72 1325.31 1021.29 1324.79 1020.89C1324.28 1020.51 1323.64 1020.18 1322.89 1019.92C1322.13 1019.64 1321.3 1019.46 1320.38 1019.38C1319.15 1019.26 1317.75 1019.19 1316.18 1019.19C1314.84 1019.19 1313.47 1019.22 1312.06 1019.28C1310.65 1019.33 1309.45 1019.36 1308.47 1019.36C1307.53 1019.36 1306.28 1019.35 1304.75 1019.31C1304.75 1020.8 1304.72 1022.82 1304.68 1025.35C1304.63 1027.89 1304.56 1030.3 1304.46 1032.58C1304.36 1034.86 1304.24 1036.87 1304.1 1038.59C1303.97 1040.33 1303.78 1042.27 1303.55 1044.43C1305.4 1044.4 1306.68 1044.39 1307.4 1044.39C1308.01 1044.39 1309.34 1044.4 1311.39 1044.43C1311.43 1040.94 1311.51 1037.4 1311.64 1033.77C1311.75 1030.15 1311.9 1027.08 1312.06 1024.57C1312.67 1024.56 1313.21 1024.54 1313.66 1024.52C1314.13 1024.51 1314.57 1024.5 1315.01 1024.5C1316.26 1024.5 1317.2 1024.6 1317.8 1024.79C1318.41 1024.99 1318.86 1025.28 1319.14 1025.69C1319.43 1026.08 1319.56 1026.55 1319.56 1027.07C1319.56 1027.7 1319.38 1028.29 1319.01 1028.86C1318.63 1029.42 1318.07 1029.85 1317.35 1030.11C1316.62 1030.38 1315.8 1030.52 1314.91 1030.52C1314.27 1030.52 1313.62 1030.45 1312.96 1030.33L1314.85 1035.54C1315.43 1037.11 1315.87 1038.33 1316.16 1039.21C1316.31 1039.6 1316.49 1040.15 1316.69 1040.88C1317.21 1042.61 1317.57 1043.79 1317.77 1044.43C1319.78 1044.4 1321.22 1044.39 1322.11 1044.39C1322.81 1044.39 1324.17 1044.4 1326.19 1044.43C1325.91 1043.74 1325.71 1043.28 1325.6 1043.05L1323.14 1037.66C1322.83 1036.98 1322.54 1036.32 1322.27 1035.67L1321.31 1033.33C1322.54 1032.85 1323.5 1032.38 1324.18 1031.92C1324.85 1031.47 1325.42 1030.92 1325.87 1030.28C1326.32 1029.65 1326.65 1028.98 1326.85 1028.26C1327.06 1027.54 1327.17 1026.77 1327.17 1025.95C1327.17 1025.21 1327.07 1024.52 1326.88 1023.88C1326.69 1023.23 1326.43 1022.68 1326.08 1022.2L1326.08 1022.2ZM1352.39 1023.5C1352.41 1022.87 1352.44 1022.08 1352.49 1021.11L1352.6 1019.3L1350.21 1019.33H1345.79L1341.25 1019.34C1336.61 1019.34 1332.55 1019.33 1329.07 1019.3C1329.04 1020.6 1329 1021.8 1328.95 1022.89L1328.86 1024.93L1336.7 1024.74C1336.58 1031.9 1336.21 1038.47 1335.6 1044.43C1337.89 1044.4 1339.3 1044.39 1339.83 1044.39C1340.42 1044.39 1341.72 1044.4 1343.73 1044.43C1343.73 1042.9 1343.77 1040.89 1343.85 1038.41C1343.92 1035.93 1344.02 1033.37 1344.16 1030.74C1344.25 1028.9 1344.4 1026.9 1344.58 1024.74H1345.87C1347.57 1024.74 1349.74 1024.8 1352.36 1024.93C1352.36 1024.61 1352.37 1024.14 1352.39 1023.5L1352.39 1023.5ZM1259.66 1029.78C1259.66 1030.58 1259.65 1031.2 1259.62 1031.66C1259.6 1032.12 1259.57 1032.48 1259.57 1032.73L1259.44 1034.99L1261.39 1034.97C1261.54 1034.97 1262.01 1034.98 1262.81 1035.02L1262.61 1039.02C1261.31 1039.34 1260.11 1039.5 1259.02 1039.5C1257.7 1039.5 1256.51 1039.24 1255.44 1038.73C1254.37 1038.21 1253.59 1037.45 1253.11 1036.47C1252.62 1035.48 1252.37 1034.36 1252.37 1033.09C1252.37 1031.85 1252.58 1030.68 1253.01 1029.56C1253.44 1028.44 1254.09 1027.48 1254.96 1026.67C1255.82 1025.88 1256.85 1025.28 1258.05 1024.89C1259.26 1024.5 1260.53 1024.31 1261.89 1024.31C1262.4 1024.31 1262.98 1024.34 1263.64 1024.41C1264.3 1024.46 1264.99 1024.56 1265.72 1024.69C1266.45 1024.82 1267.09 1024.96 1267.64 1025.11C1268.18 1025.26 1268.89 1025.49 1269.78 1025.78C1269.62 1023.58 1269.54 1021.59 1269.54 1019.8C1266.28 1019.15 1263.3 1018.83 1260.61 1018.83C1256.93 1018.83 1253.92 1019.45 1251.6 1020.69C1249.27 1021.94 1247.49 1023.63 1246.25 1025.76C1245.01 1027.9 1244.39 1030.21 1244.39 1032.7C1244.39 1034.21 1244.63 1035.67 1245.08 1037.08C1245.54 1038.49 1246.2 1039.72 1247.04 1040.74C1247.89 1041.77 1248.95 1042.59 1250.22 1043.2C1251.49 1043.79 1252.92 1044.23 1254.53 1044.5C1256.14 1044.77 1257.78 1044.9 1259.45 1044.9C1260.47 1044.9 1261.63 1044.86 1262.93 1044.76C1264.23 1044.67 1265.34 1044.57 1266.27 1044.45C1267.2 1044.34 1268.37 1044.15 1269.77 1043.89C1269.81 1042.32 1269.91 1040 1270.08 1036.92C1270.25 1033.83 1270.41 1031.46 1270.57 1029.77C1269.1 1029.8 1267.06 1029.81 1264.46 1029.81C1262.94 1029.81 1261.34 1029.8 1259.65 1029.77L1259.66 1029.78ZM1373.98 1026.98L1371.29 1019.3C1369.81 1019.33 1368.22 1019.34 1366.48 1019.34C1366.22 1019.34 1365.92 1019.34 1365.58 1019.34C1364.62 1019.33 1363.34 1019.32 1361.75 1019.3C1361.23 1020.41 1360.82 1021.26 1360.52 1021.84L1359.51 1023.85L1349.99 1041.78L1348.47 1044.43C1350.54 1044.4 1352.04 1044.39 1352.98 1044.39C1353.5 1044.39 1354.89 1044.4 1357.17 1044.43C1358.31 1041.83 1359.42 1039.45 1360.49 1037.29H1369.76C1370.78 1040.02 1371.56 1042.41 1372.1 1044.43C1374.1 1044.4 1375.62 1044.39 1376.65 1044.39C1377.1 1044.39 1378.39 1044.4 1380.51 1044.43L1379.44 1041.74L1373.98 1026.98L1373.98 1026.98ZM1365.58 1031.93H1362.71L1364.04 1029.21C1364.47 1028.31 1364.99 1027.22 1365.58 1025.94L1366.1 1024.78C1366.23 1025.22 1367.01 1027.6 1368.44 1031.93H1365.58H1365.58ZM1413.4 1019.3C1411.26 1019.33 1409.6 1019.34 1408.39 1019.34C1406.63 1019.34 1404.83 1019.33 1402.98 1019.3C1402.68 1020.44 1402.44 1021.27 1402.26 1021.82C1402.08 1022.36 1401.66 1023.52 1401 1025.29C1400.33 1027.05 1399.78 1028.63 1399.34 1030.01C1398.9 1031.41 1398.4 1033.06 1397.87 1034.98C1397.34 1032.18 1396.95 1030.19 1396.68 1029.03C1396.42 1027.87 1396.07 1026.5 1395.64 1024.91C1395.2 1023.32 1394.93 1022.25 1394.81 1021.7C1394.7 1021.16 1394.57 1020.36 1394.41 1019.3C1392.21 1019.33 1390.58 1019.34 1389.51 1019.34C1388.22 1019.34 1386.45 1019.33 1384.19 1019.3L1383.62 1027.8L1382.48 1040.71L1382.02 1044.43C1383.6 1044.4 1384.7 1044.39 1385.33 1044.39C1385.8 1044.39 1386.88 1044.4 1388.57 1044.43L1388.63 1042.07L1389.24 1031.62L1389.7 1026.52C1389.83 1027.29 1389.93 1027.83 1389.99 1028.14C1390.05 1028.44 1390.11 1028.7 1390.16 1028.91L1391.49 1034.31L1393.75 1044.43C1395.32 1044.4 1396.49 1044.39 1397.25 1044.39C1397.84 1044.39 1398.94 1044.4 1400.54 1044.43L1404 1033.97L1406.41 1026.48C1406.43 1027.37 1406.44 1028.07 1406.44 1028.58C1406.44 1029.73 1406.38 1032.39 1406.22 1036.54C1406.08 1040.69 1405.96 1043.32 1405.86 1044.43C1407.23 1044.4 1408.39 1044.39 1409.34 1044.39C1409.99 1044.39 1411.12 1044.4 1412.74 1044.43C1412.72 1043.24 1412.7 1042.42 1412.7 1041.96C1412.7 1039.78 1412.79 1035.78 1412.95 1029.96C1413.02 1026.99 1413.17 1023.44 1413.4 1019.3L1413.4 1019.3ZM1165.94 1018.15L1181.01 1004.08L1195.08 1019.15L1180.01 1033.22L1165.94 1018.15ZM1145 1037.93L1163.66 1020.5L1177.73 1035.58L1159.07 1053L1145 1037.93ZM1183.36 1036.81L1198.43 1022.74L1212.5 1037.81L1197.43 1051.88L1183.36 1036.81ZM1200.91 1020.42L1219.57 1003L1233.64 1018.07L1214.98 1035.49L1200.91 1020.42Z" fill="#74705D"/>
</g>
<defs>
<clipPath id="clip0">
<rect width="268.403" height="50" fill="white" transform="translate(1145 1003)"/>
</clipPath>
</defs>
</svg>
